<svg width="920" height="230" preserveAspectRatio="none" fill="none" xmlns="http://www.w3.org/2000/svg"><path d="M915.605 154.035c-.175-3.684-4.219-14.561-15.295-14.561-12.658 0-17.053 10.877-17.053 14.561v75.789h32.348v-75.789z" fill="#93B1B2"/><path d="M917.89 155.263h-36.919v1.93h36.919v-1.93zm-29.887-4.21h-1.758v2.982h1.758v-2.982zm13.186 0h-1.758v2.982h1.758v-2.982zm12.131 0h-1.758v2.982h1.758v-2.982zm6.68 63.158h-61.181v15.614H920v-15.614z" fill="#697D7F"/><path d="M836.316 229.825h-16.702l2.462-97.018h12.306l1.934 97.018z" fill="#93B1B2"/><path d="M836.316 133.158c0 .526-.527 1.053-1.055 1.053h-14.24c-.528 0-1.055-.527-1.055-1.053 0-.526.527-1.053 1.055-1.053h14.24c.704.176 1.055.527 1.055 1.053z" fill="#93B1B2"/><path d="M851.611 175.088c0 5.965-10.549 10.877-23.734 10.877-13.01 0-23.734-4.912-23.734-10.877 0-5.965 10.548-10.878 23.734-10.878 13.185 0 23.734 4.913 23.734 10.878z" fill="#697D7F"/><path d="M858.819 168.947h-61.884v41.228h61.884v-41.228z" fill="#93B1B2"/><path d="M870.774 172.982h-89.837v56.843h89.837v-56.843z" fill="#697D7F"/><path d="M795.353 181.404h-8.439v8.421h8.439v-8.421z" fill="#93B1B2"/><path d="M808.714 181.404h-8.439v8.421h8.439v-8.421zm13.362 0h-8.439v8.421h8.439v-8.421z" fill="#fff"/><path d="M835.437 181.404h-8.439v8.421h8.439v-8.421zm13.361 0h-8.439v8.421h8.439v-8.421zm13.361 0h-8.438v8.421h8.438v-8.421zm-66.806 14.561h-8.439v8.421h8.439v-8.421zm13.361 0h-8.439v8.421h8.439v-8.421zm13.362 0h-8.439v8.421h8.439v-8.421zm13.361 0h-8.439v8.421h8.439v-8.421zm13.361 0h-8.439v8.421h8.439v-8.421zm13.361 0h-8.438v8.421h8.438v-8.421zm-66.806 14.386h-8.439v8.421h8.439v-8.421zm13.361 0h-8.439v8.421h8.439v-8.421zm13.362 0h-8.439v8.421h8.439v-8.421zm13.361 0h-8.439v8.421h8.439v-8.421zm13.361 0h-8.439v8.421h8.439v-8.421zm13.361 0h-8.438v8.421h8.438v-8.421z" fill="#93B1B2"/><path opacity=".5" d="M863.214 85.263c-2.285-.877-4.571-.175-6.153 1.404-.527-.527-1.23-.878-2.109-1.228-3.341-1.228-7.033.526-8.439 3.86-.352 1.052-.528 2.28-.352 3.332-.527-.35-1.055-.701-1.758-1.052-3.692-1.404-7.911.526-9.318 4.21-.703 1.93-.527 4.035.352 5.614-2.989.527-5.274 3.158-5.274 6.316 0 1.228.351 2.456 1.055 3.509-.176.526-.176 1.053-.176 1.579-3.165.702-5.45 3.509-5.45 6.667 0 3.859 3.164 6.842 6.856 6.842 3.516 0 6.505-2.807 6.857-6.141 3.34-.526 5.977-3.333 6.153-6.842.352.176.527.351.879.527 3.692 1.403 7.911-.527 9.318-4.211.703-2.105.527-4.21-.528-6.14 1.758-.702 3.165-2.281 3.868-4.035.352-1.228.527-2.457.352-3.51 2.988.878 6.153-.525 7.208-3.508 1.23-2.632-.352-5.965-3.341-7.193z" fill="#C4D8DB"/><path d="M149.085 95.965H98.979v100.877h50.106V95.965z" fill="#93B1B2"/><path d="M141.525 106.491h-34.986v7.544h34.986v-7.544z" fill="#697D7F"/><path d="M141.525 116.842h-34.986v7.544h34.986v-7.544z" fill="#fff"/><path d="M141.525 127.193h-34.986v7.544h34.986v-7.544zm0 10.351h-34.986v7.544h34.986v-7.544zm0 10.351h-34.986v7.543h34.986v-7.543zm0 10.35h-34.986v7.544h34.986v-7.544z" fill="#697D7F"/><path d="M15.295 229.825v-46.141l22.328-10V230l-22.328-.175z" fill="#93B1B2"/><path d="M36.392 229.825v-46.141l22.327-10V230l-22.327-.175z" fill="#93B1B2"/><path d="M57.664 229.825v-46.141l22.328-10V230l-22.328-.175z" fill="#93B1B2"/><path d="M78.76 229.825v-46.141l22.328-10V230l-22.327-.175z" fill="#93B1B2"/><path d="M100.034 229.825v-46.141l22.328-10V230l-22.328-.175z" fill="#93B1B2"/><path d="M121.131 229.825v-46.141l22.327-10V230l-22.327-.175z" fill="#93B1B2"/><path d="M155.414 192.105H0v37.72h155.414v-37.72z" fill="#697D7F"/><path d="M36.568 200.877H26.547v10h10.02v-10z" fill="#fff"/><path d="M21.449 200.877H11.428v10h10.02v-10zm30.239 0H41.667v10h10.021v-10zm15.119 0h-10.02v10h10.02v-10zm15.12 0h-10.02v10h10.02v-10zm15.294 0h-10.02v10h10.02v-10zm15.12 0H102.32v10h10.021v-10zm15.12 0h-10.022v10h10.022v-10z" fill="#93B1B2"/><path d="M142.58 200.877h-10.021v10h10.021v-10z" fill="#fff"/><path d="M706.395 221.579h16.877l-2.11-71.93h-13.185l-1.582 71.93zm22.854 0h17.053l-2.285-71.93h-13.01l-1.758 71.93z" fill="#93B1B2"/><path opacity=".5" fill-rule="evenodd" clip-rule="evenodd" d="M677.034 116.667c.727 1.887 1.996 3.383 3.557 4.365a8.278 8.278 0 00.486 4.407 9.062 9.062 0 001.861 2.97c-.977 2.057-1.168 4.458-.278 6.679 1.758 4.561 6.681 6.842 11.252 5.088a9.137 9.137 0 002.699-1.608 8.255 8.255 0 007.322 4.415c4.571 0 8.263-3.685 8.263-8.246a8.242 8.242 0 00-6.334-8.021 8.928 8.928 0 00-.246-1.823 7.88 7.88 0 001.305-4.367 7.87 7.87 0 00-7.911-7.894c-1.076 0-2.1.21-3.032.592a6.88 6.88 0 00-2.773-3.13c-1.895-4.271-6.648-6.353-11.073-4.655-4.395 1.754-6.856 6.842-5.098 11.228zm42.194 13.158c-.62-1.68-.526-3.449.17-4.947a6.49 6.49 0 01-1.401-2.246 5.832 5.832 0 01-.319-3.041 6.493 6.493 0 01-2.669-3.275c-1.231-3.333.527-7.018 3.867-8.246 3.075-1.13 6.449.267 7.925 3.096a5.118 5.118 0 012.266 2.576 5.689 5.689 0 012.115-.409c3.165 0 5.802 2.632 5.802 5.79a5.722 5.722 0 01-1.179 3.466c.054.271.091.548.11.829 2.983.49 5.112 3.06 5.112 6.056 0 3.509-2.813 6.14-6.153 6.14-2.365 0-4.332-1.27-5.367-3.115-.579.5-1.257.906-2.016 1.185-3.34 1.228-7.032-.526-8.263-3.859z" fill="#C4D8DB"/><path d="M390.82 211.404l-29.184-6.842 6.505-143.86h17.756l4.923 150.702z" fill="#93B1B2"/><path opacity=".5" d="M403.302 16.842c21.8-7.895 46.061 3.684 69.092 1.228 12.834-1.403 24.613-7.193 36.568-11.754 11.955-4.562 25.14-8.246 37.623-5.088 12.482 3.158 23.558 15.088 21.624 27.72-1.055 7.017-5.977 13.157-11.955 16.842-5.977 3.86-13.185 5.438-20.218 6.315-13.537 1.58-27.601-.35-40.26-5.263-8.438-3.333-16.174-7.895-24.613-10.877-18.459-6.491-36.04-10.175-55.555-8.421-8.439.702-19.163 4.737-27.074 11.228-5.45 4.561-9.318 9.474-10.724 16.14-.352.176-.704.176-.879 0-1.583-16.14 12.13-32.982 26.371-38.07z" fill="#C4D8DB"/><path d="M501.051 121.053c-.703-23.684 11.076-44.562 11.076-44.562h-96.166s11.779 20.877 11.076 44.562c-.528 19.298-28.833 108.772-28.833 108.772h132.031c-.175 0-28.656-89.474-29.184-108.772z" fill="#93B1B2"/><path d="M507.732 86.316h-87.377c.352 1.053.879 2.28 1.231 3.509h84.739c.528-1.228.879-2.456 1.407-3.51zm-2.988 8.596h-81.575c.352 1.053.703 2.281.879 3.51h79.641c.351-1.229.703-2.457 1.055-3.51z" fill="#fff"/><path d="M431.959 140.176h-31.821v69.649h31.821v-69.649z" fill="#697D7F"/><path d="M413.498 145.439h-7.911v14.386h7.911v-14.386zm13.186 0h-7.912v14.386h7.912v-14.386zm-13.186 18.947h-7.911v14.386h7.911v-14.386zm13.186 0h-7.912v14.386h7.912v-14.386zm-13.186 18.947h-7.911v14.386h7.911v-14.386zm13.186 0h-7.912v14.386h7.912v-14.386zM232.944 68.246l2.813-23.685 2.637 23.685h-5.45z" fill="#93B1B2"/><path d="M241.384 68.246h-11.076v1.579h11.076v-1.58zm-2.814-12.983h-6.153v1.579h6.153v-1.579zm15.12 65.439h-17.229v2.631h17.229v-2.631z" fill="#93B1B2"/><path d="M238.219 69.825h-5.275v160h5.275v-160zm76.652 42.631c-.176-5.614-6.857-10.175-15.295-10.175-8.439 0-15.296 4.561-15.296 10.175v20.877h30.767l-.176-20.877zm-34.458 0c-.176-5.614-6.857-10.175-15.296-10.175-8.438 0-15.295 4.561-15.295 10.175v117.369h30.767l-.176-117.369z" fill="#93B1B2"/><path d="M502.458 198.597H346.517v31.228h155.941v-31.228z" fill="#697D7F"/><path d="M382.908 204.562h-20.393v6.491h20.393v-6.491zm28.481 0h-20.394v6.491h20.394v-6.491zm28.305 0h-20.393v6.491h20.393v-6.491zm28.481 0h-20.394v6.491h20.394v-6.491zm28.305 0h-20.394v6.491h20.394v-6.491z" fill="#93B1B2"/><path d="M347.044 162.807H226.265v67.018h120.779v-67.018zm4.395-3.333H222.045v3.333h129.394v-3.333z" fill="#697D7F"/><path d="M285.512 198.246h-13.01v31.579h13.01v-31.579zm15.47 0h-13.009v31.579h13.009v-31.579zm-39.732 0h-28.832v20.526h28.832v-20.526zm79.641 0h-28.832v20.526h28.832v-20.526z" fill="#93B1B2"/><path d="M251.404 169.123h-20.393v6.491h20.393v-6.491zm29.009 0H260.02v6.491h20.393v-6.491zm28.832 0h-20.393v6.491h20.393v-6.491zm29.008 0h-20.394v6.491h20.394v-6.491z" fill="#fff"/><path d="M347.044 183.509H226.265v3.333h120.779v-3.333z" fill="#93B1B2"/><path d="M339.66 136.316h-66.103v23.158h66.103v-23.158zm3.867-2.807h-73.311v2.807h73.311v-2.807z" fill="#697D7F"/><path d="M280.588 140.176h-3.164v8.596h3.164v-8.596zm11.076 0h-3.165v8.596h3.165v-8.596zm10.9 0h-3.165v8.596h3.165v-8.596zm10.9 0H310.3v8.596h3.164v-8.596zm10.901 0H321.2v8.596h3.165v-8.596zm10.899 0H332.1v8.596h3.164v-8.596z" fill="#fff"/><path d="M269.513 152.632h-19.339v6.842h19.339v-6.842zm-21.625 3.508h-5.45v3.334h5.45v-3.334z" fill="#697D7F"/><path d="M675.1 229.298v-51.579l-24.788-11.228v62.983l24.788-.176z" fill="#93B1B2"/><path d="M651.542 229.298v-51.579l-24.965-11.228v62.983l24.965-.176z" fill="#93B1B2"/><path d="M627.808 229.298v-51.579l-24.788-11.228v62.983l24.788-.176z" fill="#93B1B2"/><path d="M604.25 194.211v-51.579l-24.789-11.228v62.982l24.789-.175z" fill="#93B1B2"/><path d="M580.692 194.211v-51.579l-24.964-11.228v62.982l24.964-.175z" fill="#93B1B2"/><path d="M556.957 194.211v-51.579l-24.789-11.228v62.982l24.789-.175z" fill="#93B1B2"/><path d="M692.329 187.719H518.982v42.106h173.347v-42.106z" fill="#697D7F"/><path d="M768.806 214.386H499.117v15.439h269.689v-15.439z" fill="#697D7F"/><path d="M662.618 197.544h-11.252v11.228h11.252v-11.228z" fill="#fff"/><path d="M679.496 197.544h-11.252v11.228h11.252v-11.228zm-33.756 0h-11.252v11.228h11.252v-11.228zm-17.053 0h-11.251v11.228h11.251v-11.228zm-16.878 0h-11.251v11.228h11.251v-11.228zm-16.877 0h-11.251v11.228h11.251v-11.228zm-16.878 0h-11.251v11.228h11.251v-11.228zm-16.877 0h-11.251v11.228h11.251v-11.228z" fill="#93B1B2"/><path d="M544.299 197.544h-11.251v11.228h11.251v-11.228z" fill="#fff"/><path d="M761.421 199.123h-73.663v18.245h73.663v-18.245z" fill="#697D7F"/><path d="M593.701 171.579h-53.445v5.088h53.445v-5.088zm-14.064-11.93h-39.381v5.088h39.381v-5.088z" fill="#fff"/><path d="M189.521 219.298v-56.842l28.305-14.386v71.228h-28.305z" fill="#93B1B2"/><path d="M201.826 166.316h-5.977v10h5.977v-10zm9.494 0h-5.977v10h5.977v-10z" fill="#fff"/><path d="M201.826 181.754h-5.977v10h5.977v-10zm9.494 0h-5.977v10h5.977v-10z" fill="#697D7F"/><path d="M162.622 221.754v-56.842l28.129-14.21v71.052h-28.129z" fill="#93B1B2"/><path d="M174.929 168.772h-5.978v10h5.978v-10zm9.317 0h-5.977v10h5.977v-10z" fill="#fff"/><path d="M174.929 184.211h-5.978v10h5.978v-10zm9.317 0h-5.977v10h5.977v-10zm42.545 24.386h-68.389v21.228h68.389v-21.228z" fill="#697D7F"/><path d="M170.884 213.86h-2.637v8.245h2.637v-8.245zm5.802 0h-2.637v8.245h2.637v-8.245zm5.801 0h-2.637v8.245h2.637v-8.245zm5.802 0h-2.637v8.245h2.637v-8.245zm5.802 0h-2.637v8.245h2.637v-8.245zm5.801 0h-2.637v8.245h2.637v-8.245zm5.802 0h-2.637v8.245h2.637v-8.245zm5.802 0h-2.638v8.245h2.638v-8.245zm5.801 0h-2.637v8.245h2.637v-8.245z" fill="#93B1B2"/><path d="M162.094 220.175h-18.636v9.65h18.636v-9.65zm623.589 0h-26.02v9.65h26.02v-9.65zM493.842 181.93c1.231 0 2.286 1.052 2.286 2.28v15.439h-4.571V184.21c0-1.403 1.054-2.28 2.285-2.28zm-6.328-6.667c1.231 0 2.285 1.053 2.285 2.281v22.105h-4.57v-22.105c0-1.228 1.054-2.281 2.285-2.281z" fill="#697D7F"/></svg>