<svg width="217" height="47" fill="none" xmlns="http://www.w3.org/2000/svg"><g clip-path="url(#clip0)" fill="#fff" fill-opacity=".4"><path d="M123.2.5h.5c.1 0 .2.1.2.2v11.1c0 .1-.1.2-.2.2h-.5c-.1 0-.1 0-.2-.1l-5.9-9.6V12c0 .1-.1.2-.2.2h-.5c-.1 0-.2-.1-.2-.2V.6c0-.1.1-.2.2-.2h.6c.1 0 .1 0 .2.1l5.9 9.6V.6c0-.1 0-.1.1-.1zm4.7 11.3V.6c0-.1.1-.2.2-.2h.5c.1 0 .2.1.2.2v11.1c0 .1-.1.2-.2.2h-.5c-.1 0-.2 0-.2-.1zm11.401 0l-.7-2.2h-5.3l-.7 2.2c0 .1-.1.1-.2.1h-.6c-.1 0-.2-.1-.1-.2l3.6-11.2c0-.1.1-.1.2-.1h.7c.1 0 .2 0 .2.1l3.7 11.2v.1c0 .1 0 .1-.1.1h-.6s-.1 0-.1-.1zm-5.7-3s.1 0 0 0h4.7v-.1l-2.3-7.1-2.4 7.2zm10.8 2.8c-.6-.3-1-.7-1.3-1.2-.3-.5-.5-1.1-.5-1.8V3.8c0-.7.2-1.3.5-1.8s.8-.9 1.3-1.2c.6-.3 1.2-.4 2-.4.7 0 1.4.1 1.9.4.6.3 1 .7 1.3 1.2.3.5.5 1.1.5 1.8V4c0 .1-.1.2-.2.2h-.5c-.1 0-.2-.1-.2-.2v-.3c0-.8-.3-1.4-.8-1.9s-1.2-.7-2.1-.7c-.9 0-1.6.2-2.1.7-.5.5-.8 1.1-.8 2v4.8c0 .8.3 1.5.8 2s1.2.7 2.1.7c.9 0 1.5-.2 2.1-.7.5-.5.8-1.1.8-1.9V7s0-.1-.1-.1h-2.6c-.1 0-.2-.1-.2-.2v-.4c0-.1.1-.2.2-.2h3.3c.1 0 .2.1.2.2v2.1c0 1.1-.3 2-1 2.6-.7.6-1.6 1-2.7 1-.7 0-1.3-.1-1.9-.4zm15.799.2l-.7-2.2h-5.3l-.7 2.2c0 .1-.1.1-.2.1h-.6c-.1 0-.2-.1-.1-.2L156.2.5c0-.1.1-.1.2-.1h.7c.1 0 .2 0 .2.1l3.7 11.2v.1c0 .1 0 .1-.1.1h-.6l-.1-.1zm-5.6-3h4.7v-.1L157 1.6l-2.4 7.2c-.1 0-.1 0 0 0zm16.1 3l-2.5-5.2H165s-.1 0-.1.1v5.1c0 .1-.1.2-.2.2h-.5c-.1 0-.2-.1-.2-.2V.6c0-.1.1-.2.2-.2h4.1c.9 0 1.7.3 2.2.9.5.6.8 1.3.8 2.2 0 .8-.2 1.4-.6 2-.4.6-1 .9-1.7 1-.1 0-.1 0 0 .1l2.5 5.2v.1c0 .1 0 .1-.1.1h-.5c-.1-.1-.2-.1-.2-.2zm-5.8-10.5v4.5s0 .1.1.1h3.3c.7 0 1.2-.2 1.6-.6.4-.4.6-1 .6-1.7s-.2-1.2-.6-1.7c-.4-.4-1-.6-1.6-.6h-3.4c0-.1.1-.1 0 0zm17 10.5l-.7-2.2h-5.3l-.7 2.2c0 .1-.1.1-.2.1h-.6c-.1 0-.2-.1-.1-.2L178 .6c0-.1.1-.1.2-.1h.7c.1 0 .2 0 .2.1l3.7 11.2v.1c0 .1 0 .1-.1.1h-.6l-.2-.2zm-5.6-3h4.7v-.1l-2.3-7.1-2.4 7.2s-.1 0 0 0zm-60.1 19.6V17.3c0-.1.1-.2.2-.2h.5c.1 0 .2.1.2.2v11.1c0 .1-.1.2-.2.2h-.5c-.2 0-.2-.1-.2-.2zm11.901-11.3h.5c.1 0 .2.1.2.2v11.1c0 .1-.1.2-.2.2h-.5c-.1 0-.1 0-.2-.1l-5.9-9.6v9.7c0 .1-.1.2-.2.2h-.5c-.1 0-.2-.1-.2-.2V17.3c0-.1.1-.2.2-.2h.6c.1 0 .1 0 .2.1l5.9 9.6v-9.7c0 .1 0 0 .1 0zm4.5 11.3V17.3c0-.1.1-.2.2-.2h3.8c1 0 1.9.3 2.5.8.6.6.9 1.3.9 2.3v5.3c0 1-.3 1.7-.9 2.3-.6.6-1.4.8-2.5.8h-3.8c-.2 0-.2-.1-.2-.2zm.9-.6h3.1c.8 0 1.4-.2 1.8-.6.4-.4.7-1 .7-1.8v-5.1c0-.7-.2-1.3-.7-1.8-.4-.4-1.1-.6-1.8-.6h-3.1s-.1 0-.1.1l.1 9.8c-.1 0-.1 0 0 0zm11.499.5c-.6-.3-1-.7-1.3-1.3-.3-.5-.5-1.2-.5-1.9v-7.8c0-.1.1-.2.2-.2h.5c.1 0 .2.1.2.2v7.9c0 .8.3 1.5.8 2s1.2.8 2.1.8c.9 0 1.6-.3 2.1-.8s.8-1.2.8-2v-7.9c0-.1.1-.2.2-.2h.5c.1 0 .2.1.2.2v7.8c0 .7-.2 1.3-.5 1.9-.3.5-.8 1-1.3 1.3-.5.3-1.2.5-2 .5-.8-.1-1.4-.2-2-.5zm10-.4c-.7-.5-1-1.3-1-2.2v-.5c0-.1.1-.2.2-.2h.5c.1 0 .2.1.2.2v.5c0 .7.3 1.2.8 1.6.6.4 1.3.6 2.3.6.9 0 1.6-.2 2.1-.6.5-.4.7-.9.7-1.6 0-.4-.1-.8-.3-1.1-.2-.3-.5-.6-1-.8-.5-.2-1.1-.6-1.9-.9-.9-.4-1.5-.7-1.9-.9-.4-.2-.8-.5-1-.9-.3-.4-.4-.8-.4-1.4 0-.9.3-1.6.9-2.1.6-.5 1.5-.7 2.6-.7 1.2 0 2.1.3 2.8.8.7.5 1 1.3 1 2.2v.4c0 .1-.1.2-.2.2h-.5c-.1 0-.2-.1-.2-.2V20c0-.7-.3-1.2-.8-1.7-.5-.4-1.3-.6-2.2-.6-.8 0-1.5.2-1.9.5-.4.3-.7.8-.7 1.5 0 .4.1.8.3 1.1.2.3.5.5.9.7.4.2 1 .5 1.8.8.8.3 1.5.6 2 .9.5.3.9.7 1.2 1.1.3.4.4.9.4 1.5 0 .9-.3 1.6-1 2.1s-1.6.8-2.8.8c-1.3 0-2.2-.2-2.9-.8zm16.3-10.6v.4c0 .1-.1.2-.2.2h-3.3s-.1 0-.1.1v10.5c0 .1-.1.2-.2.2h-.5c-.1 0-.2-.1-.2-.2V18s0-.1-.1-.1h-3.1c-.1 0-.2-.1-.2-.2v-.4c0-.1.1-.2.2-.2h7.4c.2 0 .3.1.3.2zm9.7 11.2l-2.5-5.2h-3.2s-.1 0-.1.1v5.1c0 .1-.1.2-.2.2h-.5c-.1 0-.2-.1-.2-.2V17.3c0-.1.1-.2.2-.2h4.1c.9 0 1.7.3 2.2.9.5.6.8 1.3.8 2.2 0 .8-.2 1.4-.6 2-.4.6-1 .9-1.7 1-.1 0-.1 0 0 .1l2.5 5.2v.1c0 .1 0 .1-.1.1h-.5c-.1-.1-.2-.1-.2-.2zM175.3 18v4.5s0 .1.1.1h3.3c.7 0 1.2-.2 1.6-.6.4-.4.6-1 .6-1.7s-.2-1.2-.6-1.7c-.4-.4-1-.6-1.6-.6h-3.4c0-.1 0-.1 0 0zm9.801 10.4V17.3c0-.1.1-.2.2-.2h.5c.1 0 .2.1.2.2v11.1c0 .1-.1.2-.2.2h-.5c-.2 0-.2-.1-.2-.2zm11.299.1l-.7-2.2h-5.3l-.7 2.2c0 .1-.1.1-.2.1h-.5c-.1 0-.2-.1-.1-.2l3.6-11.2c0-.1.1-.1.2-.1h.7c.1 0 .2 0 .2.1l3.7 11.2v.1c0 .1 0 .1-.1.1h-.6c-.1 0-.1-.1-.2-.1zm-5.6-3h4.7v-.1l-2.3-7.1-2.4 7.2c-.1 0-.1 0 0 0zm9.5 2.9V17.3c0-.1.1-.2.2-.2h.5c.1 0 .2.1.2.2v10.5s0 .1.1.1h5.9c.1 0 .2.1.2.2v.4c0 .1-.1.2-.2.2h-6.7c-.2-.1-.2-.2-.2-.3zm-76.5 5.4h.6c.1 0 .2.1.2.2v11.1c0 .1-.1.2-.2.2h-.5c-.1 0-.2-.1-.2-.2v-9.7l-2.9 4.5c-.1.1-.1.1-.2.1h-.3c-.1 0-.1 0-.2-.1l-2.9-4.4v9.7c0 .1-.1.2-.2.2h-.5c-.1 0-.2-.1-.2-.2V34c0-.1.1-.2.2-.2h.6c.1 0 .1 0 .2.1l3.2 4.9 3.2-4.9c0-.1 0-.1.1-.1zm11.9.8h-6.2s-.1 0-.1.1v4.4s0 .1.1.1h4.4c.1 0 .2.1.2.2v.4c0 .1-.1.2-.2.2h-4.4s-.1 0-.1.1v4.5s0 .1.1.1h6.2c.1 0 .2.1.2.2v.4c0 .1-.1.2-.2.2h-7c-.1 0-.2-.1-.2-.2V34c0-.1.1-.2.2-.2h7c.1 0 .2.1.2.2v.4c-.1.1-.1.2-.2.2zm4.9 10.4c-.6-.3-1-.7-1.3-1.3-.3-.5-.5-1.2-.5-1.9v-4.7c0-.7.2-1.3.5-1.8s.8-.9 1.3-1.2c.6-.3 1.2-.4 2-.4.7 0 1.4.1 1.9.4.6.3 1 .7 1.3 1.2.3.5.5 1.1.5 1.8v.1h-.6c-.1 0-.2-.1-.2-.2 0-.8-.3-1.5-.8-2s-1.2-.7-2.1-.7c-.9 0-1.6.2-2.1.7-.5.5-.8 1.2-.8 2v4.8c0 .8.3 1.5.8 2s1.2.8 2.1.8c.9 0 1.6-.3 2.1-.8s.8-1.2.8-2c0-.1.1-.1.2-.1h.5c.1 0 .2 0 .2.1 0 .7-.2 1.3-.5 1.8s-.8.9-1.3 1.2c-.6.3-1.2.4-1.9.4-.9.2-1.5.1-2.1-.2zm16-11.2h.5c.1 0 .2.1.2.2v11.1c0 .1-.1.2-.2.2h-.5c-.1 0-.2-.1-.2-.2V40s0-.1-.1-.1h-5.6s-.1 0-.1.1v5.1c0 .1-.1.2-.2.2h-.4c-.1 0-.2-.1-.2-.2V34c0-.1.1-.2.2-.2h.5c.1 0 .2.1.2.2v5.1s0 .1.1.1h5.6s.1 0 .1-.1V34c-.1-.1 0-.2.1-.2zm11.3 11.3l-.7-2.2h-5.3l-.7 2.2c0 .1-.1.1-.2.1h-.6c-.1 0-.2-.1-.1-.2l3.6-11.2c0-.1.1-.1.2-.1h.7c.1 0 .2 0 .2.1l3.7 11.2v.1c0 .1 0 .1-.1.1h-.6c0 .1-.1 0-.1-.1zm-5.7-2.9s.1 0 0 0h4.7v-.1l-2.3-7.1-2.4 7.2c0-.1 0-.1 0 0zm16.6-8.4h.5c.1 0 .2.1.2.2v11.1c0 .1-.1.2-.2.2h-.5c-.1 0-.1 0-.2-.1l-5.9-9.6v9.7c0 .1-.1.2-.2.2h-.5c-.1 0-.2-.1-.2-.2V34c0-.1.1-.2.2-.2h.6c.1 0 .1 0 .2.1l5.9 9.6V34c0-.1 0-.2.1-.2zm4.7 11.3V34c0-.1.1-.2.2-.2h.5c.1 0 .2.1.2.2v11.1c0 .1-.1.2-.2.2h-.5c-.1 0-.2-.1-.2-.2zm6.3-.1c-.6-.3-1-.7-1.3-1.3-.3-.5-.5-1.2-.5-1.9v-4.7c0-.7.2-1.3.5-1.8s.8-.9 1.3-1.2c.6-.3 1.2-.4 2-.4.7 0 1.4.1 1.9.4.6.3 1 .7 1.3 1.2.3.5.5 1.1.5 1.8v.1h-.6c-.1 0-.2-.1-.2-.2 0-.8-.3-1.5-.8-2s-1.2-.7-2.1-.7c-.9 0-1.6.2-2.1.7-.5.5-.8 1.2-.8 2v4.8c0 .8.3 1.5.8 2s1.2.8 2.1.8c.9 0 1.6-.3 2.1-.8s.8-1.2.8-2c0-.1.1-.1.2-.1h.5c.1 0 .2 0 .2.1 0 .7-.2 1.3-.5 1.8s-.8.9-1.3 1.2c-.6.3-1.2.4-1.9.4-.9.2-1.5.1-2.1-.2zm15.7.1l-.7-2.2h-5.3l-.7 2.2c0 .1-.1.1-.2.1h-.6c-.1 0-.2-.1-.1-.2l3.6-11.2c0-.1.1-.1.2-.1h.7c.1 0 .2 0 .2.1l3.7 11.2v.1c0 .1 0 .1-.1.1h-.6c0 .1 0 0-.1-.1zm-5.6-2.9h4.7v-.1l-2.3-7.1-2.4 7.2c-.1-.1-.1-.1 0 0zm9.5 2.9V34c0-.1.1-.2.2-.2h.5c.1 0 .2.1.2.2v10.5s0 .1.1.1h5.9c.1 0 .2.1.2.2v.4c0 .1-.1.2-.2.2h-6.7c-.2-.1-.2-.2-.2-.3zM20.5 23.9v10.4c0 .2-.2.4-.4.4h-5c-.2 0-.4-.2-.4-.4V12.7c0-.2.2-.4.4-.4h5.2c.1 0 .3.1.3.2l6.5 10.9c.2.3.7.2.7-.2V12.7c0-.2.2-.4.4-.4h5c.2 0 .4.2.4.4v21.5c0 .2-.2.4-.4.4h-5.4c-.1 0-.3-.1-.3-.2l-6.3-10.8c-.2-.3-.7-.1-.7.3zm23.9 10.8h-5.5c-.2 0-.4-.2-.4-.4V12.7c0-.2.2-.4.4-.4h5.5c.2 0 .4.2.4.4v21.5c0 .3-.2.5-.4.5zm11-10.9v10.5c0 .2-.2.4-.4.4h-5c-.2 0-.4-.2-.4-.4V12.7c0-.2.2-.4.4-.4h5.7c.2 0 .3.1.4.2l4.5 9.4c.1.3.6.3.7 0l4.1-9.4c.1-.1.2-.2.4-.2h6c.2 0 .4.2.4.4v21.5c0 .2-.2.4-.4.4h-5.2c-.2 0-.4-.2-.4-.4V23.6c0-.4-.6-.6-.8-.2l-3.3 7c-.1.1-.2.2-.4.2h-2c-.2 0-.3-.1-.4-.2L56 23.6c-.1-.4-.6-.3-.6.2zm21 6.4c0-.2.2-.4.4-.4h8.8c.3 0 .4-.1.4-.3v-3.2c0-.2-.1-.3-.4-.3h-6.3c-1.7 0-2.9-1.1-2.9-2.6V15c0-1.6 1.2-2.6 2.9-2.6h12.3c.2 0 .4.2.4.4v4c0 .2-.2.4-.4.4h-8.5c-.2 0-.4.2-.4.4v3.3c0 .1.1.3.4.3h6.3c1.7 0 2.9 1.1 2.9 2.6V32c0 1.6-1.2 2.6-2.9 2.6H76.8c-.2 0-.4-.2-.4-.4v-4z"/><path d="M96.1 47H.4c-.2 0-.4-.2-.4-.4V9.9c0-.1.1-.3.1-.4L9.5.1c.1 0 .3-.1.4-.1h95.7c.2 0 .4.2.4.4v36.7c0 .1-.1.3-.1.4l-9.4 9.4c-.1 0-.3.1-.4.1zM4.4 43h90.1c.1 0 .3-.1.4-.1l7-7c.1-.1.1-.2.1-.4V4.4c0-.2-.2-.4-.4-.4H11.5c-.1 0-.3.1-.4.1l-7 7c0 .2-.1.3-.1.4v31.1c0 .2.2.4.4.4z"/></g><defs><clipPath id="clip0"><path fill="#fff" d="M0 0h216.3v47H0z"/></clipPath></defs></svg>