<svg width="206" height="120" fill="none" xmlns="http://www.w3.org/2000/svg"><g clip-path="url(#clip0)"><path d="M174.946 112.215c-13.733 1.224-23.268-6.473-33.196-14.958-9.928-8.485-18.413-13.996-31.796-14.04 3.586-15.35 4.461-31.096 8.048-46.403 31.402-3.587 47.366 35.47 78.987 32.758-6.473 14.608-13.339 29.172-22.043 42.643z" fill="#231F20"/><path fill-rule="evenodd" clip-rule="evenodd" d="M138.339 78.713c.787 3.718 3.105 8.091 5.948 10.628.481.437.962.743 1.443 1.093-.262-1.924-.35-2.93-.656-4.854.044-.175.044-.22.088-.394.481-.175.7-.263 1.181-.437.262-.132.393-.175.612-.307.175-.043.262-.087.481-.13.262.393.394.612.656 1.005.306.394.437.612.744 1.05.175.218.306.306.481.525.175.043.262.043.437.087.175-.087.219-.131.394-.219a8.82 8.82 0 00.481-.874c.306-.044.437-.044.743-.088.044-.218.088-.306.175-.48.219.043.306.087.481.13.219-.262.306-.393.525-.656.394.263.569.394 1.006.656.175-.043.219-.087.394-.13-.131.305.175-.438.306-.744.306-.788.219-1.531.787-1.968.306-.22.525-.175.875-.307a5.89 5.89 0 001.006-.568c.831-.612 1.268-1.137 1.793-2.143.219-.438.437-.656.481-1.225.088-.787-.306-1.312-.612-2.1-.35-1.005-.7-1.53-1.181-2.449-.569-1.093-.875-1.705-1.575-2.711-.612-.875-.962-1.443-1.705-2.056-.7-.568-1.137-.83-1.925-1.093-.7-.219-1.093-.306-1.705-.219-.744.088-1.138.35-1.75.787-.568.438-.831.744-1.268 1.356-1.006 1.4-.7 3.062-1.706 4.418-.525.7-.875 1.137-1.574 1.53-.482.306-.831.306-1.356.482-.7.262-1.137.437-1.837.787-.569.306-.919.48-1.444.787-.481.306-1.224.831-1.224.831z" fill="#231F20" stroke="#231F20" stroke-width=".33" stroke-miterlimit="2.613"/><path d="M140.656 72.765c.875 1.662 1.269 2.537 2.056 4.242m-3.062-1.793c.831 1.662 1.269 2.537 2.012 4.242l-2.012-4.242z" stroke="#fff" stroke-width=".661" stroke-miterlimit="2.613"/><path fill-rule="evenodd" clip-rule="evenodd" d="M138.382 78.67c-.831-3.237-1.006-6.605-.043-9.492 2.099-6.385 10.015-8.266 15.176-3.892 5.292 4.505 9.316 13.646 6.561 20.512-1.575 3.936-5.161 6.167-8.704 6.298-1.924.044-3.849-.48-5.642-1.662-.219-1.618-.306-2.449-.525-4.067-.044-.306-.044-.438-.087-.744.043-.175.043-.218.087-.393.481-.175.7-.263 1.181-.438.263-.13.394-.175.612-.306.175-.044.263-.087.481-.131.263.394.394.612.657 1.006.306.393.437.612.743 1.05.175.218.306.306.481.524.175.044.263.044.438.088.174-.088.218-.131.393-.219.219-.35.306-.525.481-.874.306-.044.438-.044.744-.088.043-.219.087-.306.175-.481.218.044.306.087.481.131.218-.262.306-.394.525-.656.393.263.568.394 1.006.656.175-.044.218-.087.393-.131-.131.306.175-.437.306-.744.306-.787.219-1.53.788-1.968.306-.218.524-.175.874-.306a5.81 5.81 0 001.006-.569c.831-.612 1.269-1.137 1.793-2.142.219-.438.438-.657.482-1.225.087-.787-.307-1.312-.613-2.1-.35-1.005-.7-1.53-1.181-2.449-.568-1.093-.874-1.705-1.574-2.711-.612-.875-.962-1.444-1.706-2.056-.7-.569-1.137-.83-1.924-1.093-.7-.219-1.094-.306-1.706-.219-.743.087-1.137.35-1.749.787-.569.438-.831.744-1.269 1.356-1.006 1.4-.7 3.062-1.705 4.417-.525.7-.875 1.138-1.575 1.531-.481.306-.831.306-1.356.481-.7.263-1.137.438-1.837.787-.568.307-.918.482-1.443.788-.525.218-1.225.743-1.225.743z" fill="#fff" stroke="#231F20" stroke-width=".165" stroke-miterlimit="2.613"/><path d="M144.418 71.584c-.481 1.968-.744 2.974-1.225 4.986" stroke="#231F20" stroke-width=".661" stroke-miterlimit="2.613"/><path d="M154.565 61.787c.788-.962 1.225-1.443 2.012-2.405-.131 1.487-.175 2.274-.306 3.76-.612-1.442-.918-2.186-1.574-3.673 1.137.875 1.705 1.356 2.843 2.23-1.181.044-1.794.044-2.975.088z" fill="#fff" stroke="#fff" stroke-width=".297" stroke-miterlimit="2.613"/><path d="M159.332 59.25c.044.175.088.219.132.394-1.269 2.712-1.881 4.024-3.149 6.648h-.175c.262.306.35.437.612.743 0-.13 0-.218-.044-.35.569-1.137.875-1.662 1.444-2.799-.35 1.531-.482 2.275-.831 3.806.043.087.043.13.087.218.044.044.044.088.087.131.044.044.088.044.132.044h.175l1.968-2.843c-.569 1.444-.875 2.143-1.444 3.587l-.174-.088c.393.656.612.962 1.005 1.575 0-.175-.043-.22-.043-.394a740.833 740.833 0 003.499-8.004h.35c-.569-.393-.831-.612-1.356-1.006.043.175.087.263.131.438-.919 1.093-1.4 1.618-2.318 2.668.393-1.487.568-2.23.962-3.718.131 0 .175-.044.306-.044-.525-.35-.787-.568-1.356-1.006zm4.373 3.237a.552.552 0 01.044.262c-1.531 3.5-2.318 5.205-3.805 8.66-.131-.088-.175-.131-.306-.219l1.006 2.012v-.481a8176.34 8176.34 0 014.111-9.097c.131-.088.175-.088.306-.175-.569-.394-.831-.612-1.356-.962zm2.931 1.968c0 .087 0 .131.044.262-2.274 3.674-3.367 5.467-5.554 9.01a.918.918 0 00-.263-.175c.175.569.263.831.481 1.4.044-.132.088-.219.132-.35.524-.875.787-1.312 1.355-2.187.219.262.35.437.613.7-.438 1.443-.7 2.187-1.137 3.63-.175-.131-.263-.175-.394-.306.306 2.187.481 3.236.787 5.467.131-1.225.175-1.837.263-3.062 1.443-4.548 2.93-9.14 4.373-13.69.088-.043.131-.043.263-.043-.394-.306-.569-.437-.963-.656z" fill="#fff" stroke="#231F20" stroke-width=".083" stroke-miterlimit="2.613"/><path d="M158.195 94.02c-3.499 2.319-9.36 2.319-12.815-.087m-1.399-1.05c-.132-.13-.263-.218-.394-.35l.394.35z" stroke="#231F20" stroke-width=".075" stroke-miterlimit="2.613"/><path d="M155.483 93.758c-.044.569-.044.875-.087 1.487.568-.218 2.318-.962 2.799-1.224-.525-.35-.744-.525-1.312-.875-.482.306-.875.394-1.4.612z" fill="#fff" stroke="#fff" stroke-width=".075" stroke-miterlimit="2.613"/><path d="M145.381 93.933c.087.612.087.875.175 1.487a11.853 11.853 0 01-1.531-1.05c-.044-.612-.044-.874-.087-1.487.481.394.962.744 1.443 1.05z" stroke="#fff" stroke-width=".33" stroke-miterlimit="2.613"/><path d="M144.768 92.009c-.349.35-.481.525-.83.918.481.35.918.7 1.443 1.006.306-.393.481-.568.787-.962-.525-.262-.918-.656-1.4-.962z" fill="#fff" stroke="#fff" stroke-width=".075" stroke-miterlimit="2.613"/><path d="M147.568 94.983c.175.569.219.875.393 1.443-.568-.175-1.137-.437-1.661-.7-.088-.612-.175-.874-.263-1.487a7.061 7.061 0 001.531.744z" stroke="#fff" stroke-width=".33" stroke-miterlimit="2.613"/><path d="M146.779 93.277c-.306.394-.481.612-.787 1.05.525.262 1.006.525 1.575.656.306-.438.437-.656.743-1.05-.525-.131-1.006-.437-1.531-.656z" fill="#fff" stroke="#fff" stroke-width=".075" stroke-miterlimit="2.613"/><path d="M149.929 95.639c.262.568.349.83.612 1.4-.612-.044-1.225-.175-1.793-.307-.175-.568-.306-.874-.481-1.443.524.131 1.093.262 1.662.35z" stroke="#fff" stroke-width=".33" stroke-miterlimit="2.613"/><path d="M148.88 94.064c-.263.482-.394.744-.656 1.225.568.131 1.093.263 1.662.306.218-.48.35-.743.612-1.268-.569 0-1.093-.175-1.618-.263z" fill="#fff" stroke="#fff" stroke-width=".075" stroke-miterlimit="2.613"/><path d="M152.335 95.858c.35.524.481.743.831 1.268-.613.087-1.225.087-1.837.087a13.121 13.121 0 01-.7-1.355c.568 0 1.137.043 1.706 0z" stroke="#fff" stroke-width=".33" stroke-miterlimit="2.613"/><path d="M151.066 94.502c-.175.568-.262.83-.437 1.4.568 0 1.137.043 1.706-.044.175-.569.218-.831.393-1.4-.568.088-1.137 0-1.662.044z" fill="#fff" stroke="#fff" stroke-width=".075" stroke-miterlimit="2.613"/><path d="M154.74 95.42c.437.438.612.656 1.05 1.137-.613.219-1.225.35-1.837.481-.394-.48-.569-.743-.919-1.224.569-.131 1.181-.219 1.706-.394z" stroke="#fff" stroke-width=".33" stroke-miterlimit="2.613"/><path d="M153.253 94.327c-.088.612-.131.918-.219 1.487.569-.131 1.137-.219 1.706-.394.044-.568.087-.874.175-1.443-.569.219-1.094.175-1.662.35z" fill="#fff" stroke="#fff" stroke-width=".075" stroke-miterlimit="2.613"/><path d="M158.195 94.064c-.044.613-.044.919-.088 1.531-.525.306-1.006.481-1.574.744-.438-.438-.7-.656-1.137-1.05.568-.219 2.318-.918 2.799-1.225z" fill="#fff" stroke="#fff" stroke-width=".165" stroke-miterlimit="2.613"/><path d="M158.239 93.977c-3.499 2.362-9.447 2.1-12.814-.088-.438-.306-.963-.656-1.444-1.05-.131-.087-.525-.437-.656-.524" stroke="#fff" stroke-width=".496" stroke-miterlimit="2.613"/><path d="M136.108 78.363c-.306.394-.481.569-.787.962-.175-.7-.743-2.93-.831-3.586.481.306.7.481 1.181.83.088.613.306 1.094.437 1.794z" fill="#fff" stroke="#fff" stroke-width=".075" stroke-miterlimit="2.613"/><path d="M141.182 90.26c-.35.218-.568.305-.918.524a14.21 14.21 0 001.355 1.443l.875-.656c-.481-.437-.918-.83-1.312-1.312z" stroke="#fff" stroke-width=".33" stroke-miterlimit="2.613"/><path d="M142.581 90.084c-.043.613-.043.919-.087 1.531-.437-.437-.875-.874-1.268-1.356.043-.612.087-.874.131-1.487.35.525.787.831 1.224 1.312z" fill="#fff" stroke="#fff" stroke-width=".075" stroke-miterlimit="2.613"/><path d="M139.52 88.073c-.394.13-.613.175-1.006.306.393.612.787 1.18 1.224 1.705.394-.175.569-.262.962-.437-.437-.525-.831-1.006-1.18-1.575z" stroke="#fff" stroke-width=".33" stroke-miterlimit="2.613"/><path d="M140.832 88.116c-.088.612-.088.919-.175 1.531a34.477 34.477 0 01-1.137-1.575c.087-.612.131-.918.218-1.487.35.569.744 1.006 1.094 1.531z" fill="#fff" stroke="#fff" stroke-width=".075" stroke-miterlimit="2.613"/><path d="M137.989 85.58c-.437 0-.656.043-1.093.043.349.656.699 1.312 1.093 1.925a42.7 42.7 0 011.05-.22c-.35-.568-.744-1.136-1.05-1.749z" stroke="#fff" stroke-width=".33" stroke-miterlimit="2.613"/><path d="M139.389 85.973c-.131.569-.219.875-.35 1.444-.35-.613-.7-1.181-1.006-1.794.175-.568.219-.83.394-1.4.262.613.612 1.138.962 1.75z" fill="#fff" stroke="#fff" stroke-width=".075" stroke-miterlimit="2.613"/><path d="M136.633 82.955a10.22 10.22 0 00-1.137-.175c.263.7.612 1.4.919 2.1.437 0 .656.044 1.093.044-.306-.7-.612-1.313-.875-1.969z" stroke="#fff" stroke-width=".33" stroke-miterlimit="2.613"/><path d="M138.033 83.611c-.219.525-.307.788-.525 1.313-.306-.657-.613-1.269-.831-1.969.218-.48.35-.743.568-1.224.219.656.525 1.224.788 1.88z" fill="#fff" stroke="#fff" stroke-width=".075" stroke-miterlimit="2.613"/><path d="M135.583 80.069c-.481-.175-.7-.263-1.181-.394.219.7.438 1.443.7 2.187.481.131.7.175 1.181.306-.219-.743-.481-1.4-.7-2.1z" stroke="#fff" stroke-width=".33" stroke-miterlimit="2.613"/><path d="M136.983 81.03c-.306.438-.438.657-.7 1.094-.219-.7-.481-1.355-.656-2.055.306-.394.437-.613.743-1.05.132.744.438 1.356.613 2.012z" fill="#fff" stroke="#fff" stroke-width=".075" stroke-miterlimit="2.613"/><path d="M134.446 75.739c-.306.393-.481.612-.787 1.006.088.7.263 1.356.481 2.1.481.218.7.305 1.181.524-.175-.743-.743-2.974-.875-3.63z" fill="#fff" stroke="#fff" stroke-width=".165" stroke-miterlimit="2.613"/><path d="M143.019 92.096c.131.132.218.175.35.306m-8.879-16.75c.831 5.292 3.28 10.496 6.692 14.564.393.48.831.918 1.268 1.312.131.13.481.48.656.568l-8.616-16.445z" stroke="#fff" stroke-width=".496" stroke-miterlimit="2.613"/><path d="M142.232 67.123c-.307.962-.482 1.443-.788 2.362 1.356.962 1.968 1.443 3.237 2.449.306-.962.481-1.4.831-2.362-.088-.087-.131-.087-.219-.175-.219.656-.35.962-.568 1.618-1.094-.874-1.662-1.268-2.843-2.143.218-.656.306-.962.525-1.618a.614.614 0 00-.175-.131z" fill="#231F20" stroke="#231F20" stroke-width=".33" stroke-miterlimit="2.613"/><path d="M142.144 67.035c1.443 1.006 2.099 1.531 3.455 2.58.043-.043.043-.087.043-.13a61.912 61.912 0 00-1.399-2.23c-.831-.176-1.268-.22-2.099-.394v.174z" fill="#231F20" stroke="#231F20" stroke-width=".083" stroke-miterlimit="2.613"/><path d="M143.543 74.908c-1.53.131-2.318.175-3.892.35m2.187-5.51c-1.487 3.542-2.231 5.291-3.718 8.877l3.718-8.878zm-.35.917a93.537 93.537 0 012.055 4.243l-2.055-4.243zm2.668 2.056c-1.356.044-2.056.088-3.455.131.962 1.925 1.399 2.887 2.274 4.811l1.181-4.942z" stroke="#231F20" stroke-width=".661" stroke-miterlimit="2.613"/><path d="M144.068 69.397c.044-.087.131-.131.219-.044.087.044.131.175.087.307-.044.087-.131.13-.219.043-.087-.087-.131-.175-.087-.306z" fill="#231F20" stroke="#231F20" stroke-width=".083" stroke-miterlimit="2.613"/><path d="M144.331 69.878v.744c-.307-.219-.438-.35-.7-.525.087-.131.131-.175.219-.306.043-.088.087-.088.131-.175.087-.044.131-.044.218-.044.044.131.088.175.132.306z" fill="#231F20" stroke="#231F20" stroke-width=".083" stroke-miterlimit="2.613"/><path d="M139.607 75.17c.831 1.662 1.269 2.537 2.012 4.243" stroke="#231F20" stroke-width=".661" stroke-miterlimit="2.613"/><path d="M145.294 87.46c2.493 1.837 3.761 2.8 6.56 4.68m-6.56-5.423c2.231 2.143 3.324 3.236 5.817 5.467l-5.817-5.467z" stroke="#231F20" stroke-width=".33" stroke-miterlimit="2.613"/><path d="M148.048 91.571c.131.044.218.088.35.175.306-.787.481-1.18.787-1.968-.306-.262-.438-.35-.7-.612-.35.875-.525 1.356-.875 2.23.175.088.263.132.438.175zm15.134-19.681l.393.394c.438-1.181.7-1.793 1.137-2.974a56.155 56.155 0 01-1.53 2.58z" fill="#231F20" stroke="#231F20" stroke-width=".083" stroke-miterlimit="2.613"/><path d="M148.048 51.509c-.043-.219-.087-.35-.131-.569-.043-.13-.087-.174-.175-.306-.087-.13-.131-.218-.218-.35a32.522 32.522 0 00-2.012-1.355 1561.938 1561.938 0 00-6.123 15.176 118.225 118.225 0 012.843-2.143l-.438-.219c.612-1.618.962-2.405 1.618-4.067l2.406-.656c.875-2.143 1.312-3.237 2.23-5.511z" fill="#fff" stroke="#231F20" stroke-width=".083" stroke-miterlimit="2.613"/><path d="M146.168 50.11c-1.05 2.842-1.531 4.198-2.537 6.954.481-.175.7-.22 1.181-.394.831-2.362 1.268-3.543 2.143-5.992-.306-.219-.438-.35-.787-.569z" fill="#231F20" stroke="#231F20" stroke-width=".083" stroke-miterlimit="2.613"/><path d="M148.661 51.946c-1.312 3.193-1.925 4.768-3.149 7.873v.306c0 .087.043.131.043.263l.132.262c.087.131.087.175.175.306.087.131.175.175.262.262.131.088.219.088.35.175.131 0 .175.044.306.044.219 0 .306.044.481.044.175-.044.263-.044.438-.088.131-.043.174-.043.262-.087.087-.087.175-.131.262-.175a.615.615 0 01.132-.175c1.093-2.712 1.618-4.111 2.799-6.91v-.525c-.044-.131-.044-.175-.088-.306-.087-.132-.087-.175-.175-.306-.087-.132-.131-.175-.175-.263-.087-.131-.175-.175-.262-.306-.131-.088-.175-.131-.306-.219-.088-.087-.131-.087-.263-.175-.131-.043-.175-.043-.262-.087-.131 0-.175-.044-.306-.044s-.175.044-.306.044c-.175-.044-.219 0-.35.087z" fill="#fff" stroke="#231F20" stroke-width=".083" stroke-miterlimit="2.613"/><path d="M147.217 60.562l.175-.174.132-.263c1.049-2.712 1.618-4.067 2.711-6.867 0-.087 0-.13.044-.218 0-.088 0-.131-.044-.219-.044-.087-.087-.131-.131-.219-.088-.043-.088-.087-.175-.13-.087 0-.131-.044-.175-.044-.044 0-.087.043-.175.043-.044.044-.044.088-.087.131-1.225 3.106-1.837 4.637-2.974 7.698.043.088.043.088.043.175l.175.087c.088 0 .175.044.263.044.131 0 .131 0 .218-.044z" fill="#231F20" stroke="#231F20" stroke-width=".083" stroke-miterlimit="2.613"/><path d="M151.853 53.433c.481.394.744.569 1.225.919-.088.087-.132.087-.175.175-.438 1.356-.7 2.012-1.137 3.367.918-1.093 1.355-1.661 2.274-2.799.131.088.175.132.306.263-.262 1.224-.437 1.837-.7 3.018.613-.875.919-1.356 1.531-2.231 0-.088-.044-.131-.044-.219.263.175.35.306.613.481-.088.044-.132.044-.175.044-1.531 2.58-2.275 3.805-3.718 6.298-.087 0-.087.044-.175.044a.604.604 0 01-.131-.175c-.044-.087-.044-.131-.088-.219 0-.13-.043-.175-.043-.306a60.46 60.46 0 01.831-3.018 100.1 100.1 0 00-2.012 2.493.587.587 0 00-.131.175c-.088 0-.088.044-.175.044a.589.589 0 01-.175-.131c-.044-.088-.044-.088-.044-.175.875-3.062 1.356-4.593 2.274-7.742-.131-.087-.131-.174-.131-.306z" fill="#fff" stroke="#231F20" stroke-width=".083" stroke-miterlimit="2.613"/><path d="M96.307 83.568c-26.373-3.762-39.581 28.603-66.085 27.553-.744-1.18-1.094-1.793-1.793-2.974 26.854.919 40.237-32.102 67.047-28.253.306 1.487.438 2.23.831 3.674z" fill="#C40D3C"/><path d="M95.434 79.894C68.624 76 55.24 109.066 28.386 108.147c-.7-1.18-1.05-1.793-1.75-3.017 27.205.656 40.807-32.627 68.054-28.91.306 1.487.438 2.23.744 3.674z" fill="#fff"/><path d="M94.689 76.22c-27.248-3.761-40.85 29.522-68.054 28.909-.7-1.224-1.05-1.793-1.705-3.017 27.597.481 41.418-33.109 69.147-29.522.218 1.443.35 2.187.612 3.63z" fill="#C40D3C"/><path d="M94.033 72.59c-27.728-3.587-41.505 30.003-69.147 29.522-.7-1.225-1.006-1.837-1.705-3.105 28.035.437 41.986-33.459 70.24-30.091.262 1.487.394 2.187.612 3.674z" fill="#fff"/><path d="M93.465 68.916c-28.254-3.368-42.206 30.528-70.24 30.09a206.284 206.284 0 01-1.663-3.148c28.516.743 42.643-33.896 71.378-30.572.175 1.443.306 2.187.525 3.63z" fill="#C40D3C"/><path d="M92.94 65.286c-28.735-3.28-42.905 31.359-71.378 30.572-.656-1.269-1.006-1.925-1.662-3.193 28.954.918 43.255-34.07 72.515-31.053.219 1.487.306 2.23.525 3.674z" fill="#fff"/><path d="M92.416 61.656C63.156 58.594 48.855 93.627 19.9 92.709c-.656-1.313-1.006-1.969-1.662-3.28 29.435 1.18 43.911-34.202 73.696-31.403.175 1.4.262 2.143.48 3.63z" fill="#C40D3C"/><path d="M91.935 57.982c-29.785-2.8-44.261 32.583-73.696 31.403-.656-1.313-1.006-2.012-1.662-3.368 29.916 1.53 44.611-34.246 74.833-31.709.219 1.487.306 2.23.525 3.674z" fill="#fff"/><path d="M91.41 54.352c-30.222-2.537-44.917 33.24-74.833 31.709-.656-1.356-1.006-2.056-1.662-3.456 30.353 1.969 45.31-34.201 75.926-31.883.263 1.443.35 2.143.569 3.63z" fill="#C40D3C"/><path d="M90.885 50.678c-30.66-2.274-45.573 33.852-75.926 31.884-.656-1.4-1.006-2.1-1.662-3.543 30.79 2.624 45.967-34.246 77.02-32.015.218 1.487.35 2.23.568 3.674z" fill="#fff"/><path d="M90.273 47.048c-31.053-2.23-46.23 34.639-77.02 32.015-.655-1.444-1.005-2.187-1.705-3.674 31.228 3.149 46.666-34.07 78.069-31.971.306 1.443.437 2.143.656 3.63z" fill="#C40D3C"/><path d="M89.616 43.374c-31.403-2.056-46.842 35.12-78.07 31.971-.655-1.487-1.005-2.23-1.705-3.761C41.506 75.258 57.163 37.732 88.872 39.7c.35 1.487.481 2.23.744 3.674z" fill="#fff"/><path d="M88.873 39.7C57.164 37.776 41.55 75.258 9.885 71.584c-.7-1.53-1.05-2.318-1.75-3.893 32.103 4.2 47.892-33.545 79.907-31.665.35 1.487.525 2.23.83 3.674z" fill="#C40D3C"/><path d="M92.415 61.656C78.988 60.3 71.028 65.46 60.444 73.115c-3.018-7.785-5.948-15.614-8.704-23.53 11.503-8.53 21.606-14.434 36.301-13.515 2.056 8.397 3.237 16.97 4.374 25.586z" fill="#011E41"/><path d="M54.715 48.666c0 .481.043.7.043 1.181a7.259 7.259 0 00-.918.7c.393 0 .568.044.962.044 0 .48.044.7.044 1.18.219-.48.306-.7.525-1.137.393.044.568.044.962.044-.263-.306-.35-.481-.612-.787.218-.481.35-.7.568-1.137a7.252 7.252 0 00-.918.7c-.263-.307-.394-.482-.656-.788zm5.423-3.717v1.18c-.394.263-.569.394-.962.656.393.044.568.044.962.088v1.18c.219-.437.35-.655.569-1.136.393.043.612.043 1.005.087a9.593 9.593 0 01-.612-.787c.219-.438.35-.656.612-1.094-.393.263-.568.35-.962.613a9.614 9.614 0 01-.612-.787zm5.554-3.325v1.181c-.393.22-.612.35-1.005.569a8.01 8.01 0 011.005.175v1.18c.263-.437.35-.655.613-1.049.393.088.612.088 1.006.175-.263-.35-.35-.481-.613-.83.263-.438.35-.613.613-1.05-.394.218-.613.306-1.006.524a4.434 4.434 0 00-.613-.875zm5.774-2.711c0 .437 0 .656-.044 1.137-.438.175-.613.262-1.05.437.394.088.612.175 1.006.263 0 .437 0 .656-.044 1.137.263-.394.394-.569.656-.962.394.13.613.175 1.006.306-.262-.35-.35-.525-.612-.875.262-.35.394-.568.7-.918a7.453 7.453 0 00-1.05.393c-.175-.393-.306-.568-.569-.918zm6.21-1.706c-.044.438-.044.656-.088 1.094-.437.087-.7.13-1.137.218l1.094.438c-.044.437-.044.656-.088 1.093.306-.306.438-.481.744-.787.437.175.656.262 1.093.48-.262-.393-.35-.568-.612-.961.306-.306.48-.438.787-.744-.481.044-.7.088-1.18.175-.22-.437-.35-.612-.613-1.006zm6.911-.437c-.044.393-.087.612-.131 1.006-.525 0-.744-.044-1.269 0 .482.262.7.393 1.181.656a8.079 8.079 0 01-.175 1.006c.35-.263.525-.35.875-.613.481.263.7.394 1.181.7-.262-.437-.394-.612-.656-1.05.35-.218.525-.35.918-.524-.524-.044-.787-.088-1.312-.088-.262-.437-.35-.656-.612-1.093zm-28.21 16.838c0 .481.043.7.043 1.181-.35.263-.524.394-.918.656.394 0 .569.044.918.044 0 .481.044.7.044 1.137.219-.437.306-.656.525-1.137.394 0 .569.044.918.044-.262-.306-.35-.438-.612-.744.219-.437.306-.656.525-1.137-.35.262-.569.394-.919.656a4.787 4.787 0 00-.524-.7zm5.335-3.674v1.181c-.393.263-.568.394-.962.612.394.044.569.044.962.088v1.18c.219-.436.35-.655.569-1.092.393.043.568.043.962.087-.263-.306-.35-.481-.612-.787.262-.438.35-.656.612-1.094-.394.263-.569.394-.962.613a4.443 4.443 0 00-.569-.788zm5.555-3.324v1.138c-.394.218-.569.306-.962.568.393.044.568.088.962.131v1.137c.219-.437.35-.612.612-1.05.394.088.569.088.962.176-.218-.306-.35-.481-.612-.831.263-.394.35-.612.612-1.006-.393.219-.612.306-.962.525a9.614 9.614 0 01-.612-.788zm5.686-2.667c0 .437-.044.656-.044 1.093-.393.175-.612.219-1.006.393.394.088.613.175 1.006.263 0 .437-.044.656-.044 1.093.263-.393.394-.568.657-.918.393.131.612.175 1.005.306-.218-.35-.35-.525-.568-.875.262-.35.394-.525.656-.918-.437.131-.612.218-1.05.35a3.774 3.774 0 01-.612-.787zm6.036-1.663c-.044.438-.044.657-.088 1.05l-1.093.219c.393.175.612.262 1.05.437-.044.438-.044.656-.088 1.05.306-.306.437-.481.743-.787.438.175.613.262 1.05.48-.219-.393-.35-.568-.569-.962.307-.306.481-.437.788-.743-.438.044-.7.087-1.138.175-.306-.35-.393-.525-.656-.918zm6.734-.35c-.088.394-.088.613-.175 1.007-.481 0-.744-.044-1.225-.044.438.262.656.393 1.137.656-.087.394-.087.612-.175 1.006.35-.263.525-.35.875-.569.438.263.7.394 1.137.7-.218-.437-.35-.612-.612-1.05.35-.218.525-.306.918-.525-.524-.043-.787-.087-1.268-.087a6.48 6.48 0 00-.612-1.093zm-27.64 16.49c.044.437.044.699.044 1.136l-.875.656c.35 0 .569.044.918.044.044.438.044.7.044 1.137.219-.437.306-.656.525-1.093.35.044.569.044.919.044-.22-.307-.35-.438-.613-.744.219-.437.306-.656.525-1.093l-.875.656c-.262-.306-.393-.438-.612-.744zm5.205-3.587v1.137c-.393.262-.568.35-.962.612.394.044.569.044.962.088v1.137c.22-.438.35-.656.569-1.094.394.044.569.044.962.088-.262-.306-.35-.438-.612-.744.262-.437.35-.656.612-1.093-.394.262-.568.35-.962.612-.219-.306-.306-.437-.569-.743zm5.467-3.324v1.137c-.393.219-.568.306-.962.525.394.044.569.087.962.131v1.137c.219-.394.35-.612.613-1.006.393.088.568.088.962.175-.219-.306-.35-.481-.569-.787.219-.394.35-.612.612-1.006-.393.219-.568.306-.962.525-.306-.35-.437-.481-.656-.831zm5.511-2.581c0 .438-.044.656-.044 1.094a9.534 9.534 0 00-1.006.393c.393.088.568.175.962.263 0 .437-.044.656-.044 1.093.263-.35.394-.568.656-.918.394.13.569.175.962.306-.218-.35-.35-.525-.568-.875l.656-.875c-.394.132-.612.22-1.006.35-.219-.306-.306-.48-.569-.83zm5.904-1.574c-.045.437-.088.612-.132 1.05-.437.087-.656.13-1.05.218.394.175.613.263 1.006.438-.043.437-.087.612-.131 1.05.306-.307.437-.482.743-.744.394.175.613.306 1.007.48-.22-.393-.307-.568-.57-.961l.744-.744c-.437.044-.656.088-1.093.131a9.847 9.847 0 00-.525-.918zm6.56-.35a8.08 8.08 0 00-.175 1.006c-.481-.044-.744-.044-1.225-.044l1.094.656c-.088.394-.132.613-.22 1.006.35-.218.526-.35.876-.568.437.262.656.393 1.093.7-.219-.438-.35-.613-.569-1.05.35-.219.525-.306.919-.525-.525-.044-.744-.088-1.269-.131-.175-.438-.306-.613-.524-1.05zM59.744 63.143c.044.437.044.656.088 1.137-.35.262-.525.394-.875.612.35.044.525.044.875.044.044.437.044.656.087 1.093.175-.437.306-.656.481-1.05.35.044.525.044.875.088-.219-.306-.35-.437-.612-.743.218-.438.306-.656.525-1.094-.35.263-.525.394-.875.613-.219-.263-.35-.394-.569-.7zm5.074-3.499v1.137c-.394.263-.569.35-.919.612.394.044.569.044.919.088v1.137c.219-.437.35-.656.568-1.093.394.043.569.043.963.087-.22-.306-.35-.437-.613-.744.219-.437.35-.656.613-1.093-.394.263-.569.35-.963.612-.218-.306-.306-.437-.568-.743zm5.38-3.28v1.093c-.394.219-.569.306-.919.525.394.044.569.087.919.131v1.093c.218-.393.35-.612.568-1.005.35.087.569.087.919.175-.219-.307-.35-.482-.569-.788.219-.393.35-.612.569-1.006-.394.175-.569.306-.919.481a4.825 4.825 0 01-.568-.7zm5.378-2.494c0 .438-.043.657-.043 1.094-.394.131-.57.219-.963.394.35.087.569.175.919.262 0 .438-.044.656-.044 1.094.263-.35.35-.525.612-.919.35.131.569.175.919.306-.219-.35-.306-.525-.525-.874l.656-.875c-.394.131-.569.175-.962.35a9.374 9.374 0 01-.569-.831zm5.687-1.53c-.044.437-.088.612-.131 1.05-.438.087-.613.087-1.05.175.394.174.569.262.962.437-.043.437-.087.612-.131 1.05.262-.307.437-.438.7-.744.393.175.568.306.962.481-.219-.394-.306-.569-.525-.962.306-.306.438-.438.744-.7-.438.044-.656.088-1.05.131-.175-.35-.306-.525-.481-.918zm6.342-.219c-.088.394-.132.569-.219.962-.481-.043-.7-.043-1.18-.043.436.262.611.393 1.049.656-.088.393-.131.568-.219.962.35-.219.525-.35.831-.569.437.263.656.438 1.05.7l-.525-1.05c.35-.218.525-.306.918-.524-.48-.044-.743-.088-1.224-.132-.132-.35-.263-.568-.481-.962zM61.407 67.779c.043.437.043.656.087 1.093-.35.219-.481.35-.83.613.349.043.524.043.874.087.044.438.044.656.087 1.093.175-.437.263-.612.438-1.05.35.045.524.045.874.088-.218-.306-.35-.437-.568-.743.175-.438.306-.612.48-1.05-.349.219-.524.35-.83.612-.262-.306-.394-.437-.612-.743zm4.941-3.412v1.138c-.35.218-.568.35-.918.612.35.044.568.044.918.087v1.138c.219-.438.306-.656.569-1.05.35.044.568.044.962.087-.219-.306-.35-.437-.612-.743.218-.438.35-.656.568-1.05-.393.219-.568.35-.962.612-.175-.35-.306-.524-.525-.83zm5.249-3.192v1.093c-.35.219-.525.306-.918.525.35.044.568.087.918.175v1.093c.219-.393.35-.612.569-1.006.35.088.525.132.918.175-.219-.306-.35-.48-.568-.787.218-.394.35-.569.568-.962-.35.175-.525.306-.918.48-.219-.305-.306-.48-.569-.786zm5.205-2.405c0 .436-.044.655-.044 1.093-.35.13-.568.218-.918.35.35.13.525.174.875.306 0 .437-.044.656-.044 1.093.218-.35.35-.525.568-.875.35.131.525.175.875.35-.219-.35-.306-.525-.525-.875.263-.35.35-.524.613-.83-.394.13-.569.174-.919.306-.175-.438-.262-.613-.48-.919zm5.467-1.444c-.044.393-.088.612-.131 1.05a8.062 8.062 0 00-1.006.174c.35.175.568.263.918.482-.043.393-.043.612-.087 1.05.262-.307.393-.438.656-.744.394.218.568.306.918.524-.218-.393-.306-.568-.525-.962l.7-.7c-.393.044-.612.044-1.006.132-.13-.438-.262-.613-.437-1.006zm6.166-.131c-.088.393-.131.568-.219.962-.48-.044-.7-.044-1.137-.088.394.263.612.394 1.006.656-.087.394-.131.569-.175.963.306-.219.481-.35.831-.569.394.263.612.438 1.05.744l-.525-1.05c.35-.219.525-.306.875-.525-.482-.044-.744-.087-1.181-.131a6.764 6.764 0 01-.525-.962zm-30.221-7.917c0 .481 0 .7.043 1.181-.393.263-.568.394-.918.656.394.044.568.044.962.044 0 .481 0 .7.044 1.18l.568-1.136c.394.043.569.043.963.087-.263-.306-.35-.48-.613-.787.219-.437.35-.656.569-1.137-.394.262-.569.393-.962.656-.306-.263-.438-.438-.656-.744zm5.466-3.542v1.18c-.393.22-.568.35-.961.613.393.044.612.087 1.006.131v1.181c.218-.437.35-.656.612-1.093.394.043.569.087.962.13-.262-.305-.35-.48-.612-.786.262-.438.35-.657.612-1.094-.393.219-.568.35-.962.569-.262-.35-.394-.525-.656-.831zm5.643-3.018v1.137c-.393.175-.612.306-1.006.481.394.088.613.132 1.006.219v1.137c.263-.394.394-.612.613-1.006.393.088.612.131 1.006.219a5.817 5.817 0 00-.613-.831c.263-.394.394-.569.656-.962-.393.175-.612.262-1.006.437a8.956 8.956 0 01-.656-.831zm5.903-2.231c-.043.438-.043.657-.043 1.094-.438.131-.657.175-1.05.306.393.131.612.219 1.05.35-.044.437-.044.656-.044 1.093.262-.35.437-.525.7-.874.393.13.612.218 1.05.393-.22-.35-.35-.568-.613-.918.306-.35.437-.525.743-.831-.437.087-.656.175-1.093.262a4.09 4.09 0 01-.7-.875zm6.431-1.093c-.044.394-.088.612-.131 1.05-.481.043-.7.043-1.181.087.437.219.656.306 1.093.525-.044.394-.087.612-.131 1.05.306-.263.481-.438.83-.7.438.218.657.35 1.094.568-.218-.393-.35-.612-.612-1.006.35-.262.481-.393.831-.656-.481 0-.743 0-1.225.044-.175-.394-.306-.569-.568-.962zM59.832 54.177c0 .48 0 .7.044 1.137-.35.262-.57.394-.919.656.394.044.569.044.962.044 0 .48 0 .7.044 1.137.219-.438.306-.656.525-1.094.393.044.568.044.962.088-.262-.306-.35-.438-.612-.744.218-.437.35-.656.568-1.093-.393.262-.568.394-.918.656a5.205 5.205 0 01-.656-.787zm5.422-3.499v1.137c-.393.219-.568.35-.962.612.394.044.569.044.962.088v1.137c.219-.437.35-.656.612-1.093.394.043.57.087.963.13a9.614 9.614 0 00-.613-.786 8.24 8.24 0 01.613-1.05c-.394.218-.569.35-.962.568-.263-.262-.35-.437-.613-.743zm5.512-3.018v1.137a9.852 9.852 0 00-.962.481c.393.088.568.132.962.219 0 .437 0 .656-.044 1.137.263-.394.35-.612.613-.962.393.087.568.131.962.219-.219-.35-.35-.481-.569-.831.263-.394.394-.569.612-.963-.393.175-.612.263-1.005.438-.22-.35-.307-.525-.57-.875zm5.774-2.143c-.044.437-.044.656-.088 1.093-.437.132-.612.175-1.05.306.394.132.613.22 1.006.35-.043.438-.043.657-.087 1.094.262-.35.393-.525.7-.831.393.131.612.218 1.005.393-.218-.35-.35-.524-.568-.918.262-.35.437-.481.7-.831a7.325 7.325 0 00-1.05.262c-.219-.393-.35-.568-.569-.918zm6.297-1.05c-.044.394-.088.613-.132 1.006-.48.044-.7.044-1.137.088l1.05.525c-.044.393-.087.612-.131 1.006.306-.263.48-.394.787-.7.437.218.656.35 1.05.568-.219-.393-.35-.612-.569-1.006.35-.262.481-.393.831-.656-.48 0-.7 0-1.18.044-.263-.262-.35-.481-.57-.875zM61.406 58.988c0 .437 0 .7.044 1.137a6.69 6.69 0 01-.919.612c.35.044.569.044.919.088 0 .437.043.7.043 1.137.22-.438.307-.656.525-1.094.35.044.569.044.919.088-.219-.306-.35-.437-.613-.744.22-.437.35-.656.569-1.093-.35.262-.569.394-.918.612a6.785 6.785 0 00-.569-.743zm5.379-3.455v1.137c-.393.218-.568.35-.962.612.394.044.569.044.962.088v1.137c.22-.438.35-.656.569-1.05.394.044.569.087.962.131-.219-.306-.35-.48-.568-.787.218-.437.35-.612.568-1.05-.393.219-.568.35-.962.569-.219-.306-.35-.481-.569-.787zm5.381-2.931c0 .438 0 .656-.044 1.094a9.841 9.841 0 00-.962.48c.394.088.569.132.919.22 0 .437 0 .655-.044 1.093.219-.394.35-.569.612-.962.394.087.569.13.919.262-.219-.35-.35-.481-.569-.83.263-.395.35-.57.612-.963-.393.175-.568.262-.962.437-.131-.35-.262-.525-.48-.83zm5.597-2.099c-.043.437-.043.656-.087 1.05-.394.13-.612.175-1.006.306.394.131.569.218.962.35-.044.437-.044.656-.087 1.05.262-.35.393-.526.656-.832.393.175.568.219.962.394-.219-.35-.306-.525-.525-.918.262-.307.394-.482.7-.788-.394.088-.612.131-1.006.263-.262-.35-.35-.525-.569-.875zm6.08-.963a8.079 8.079 0 01-.175 1.007c-.438.043-.656.043-1.094.087.394.219.612.306 1.006.525a8.079 8.079 0 01-.175 1.006c.306-.262.481-.394.787-.656.394.219.613.35 1.05.612-.219-.393-.306-.612-.525-1.006.306-.262.481-.393.831-.612h-1.137c-.262-.394-.35-.569-.568-.962zM63.024 63.755c0 .437.044.656.044 1.137-.35.263-.525.35-.875.613.35.043.525.043.919.087 0 .437.044.656.044 1.137.218-.437.306-.656.524-1.05.35.044.525.044.919.088-.219-.306-.35-.437-.569-.743.219-.438.306-.657.525-1.05-.35.262-.525.35-.875.612-.306-.394-.437-.525-.656-.83zm5.249-3.411v1.137c-.394.218-.569.35-.962.568.393.044.568.044.962.088v1.137c.218-.437.35-.612.568-1.05.394.044.569.088.919.132-.219-.307-.35-.482-.569-.788.219-.393.35-.612.569-1.05-.35.22-.569.35-.919.57-.218-.307-.35-.438-.568-.744zm5.248-2.887v1.093c-.35.175-.569.263-.918.438.35.087.524.131.918.218V60.3c.219-.394.35-.569.569-.962.35.087.524.13.918.262-.219-.35-.306-.481-.525-.83.219-.395.35-.57.612-.92-.35.176-.568.263-.918.438-.35-.35-.437-.525-.656-.831zm5.379-2.012c-.044.438-.044.656-.087 1.05-.394.087-.569.175-.962.262.35.132.568.219.918.35-.044.438-.044.656-.087 1.05.262-.35.393-.481.656-.831.35.175.568.262.918.393-.219-.35-.306-.524-.525-.918.263-.306.394-.481.656-.787-.393.087-.612.131-1.006.218-.175-.262-.262-.437-.48-.787zm5.861-.875a8.078 8.078 0 01-.174 1.007c-.438 0-.657.043-1.094.087.394.219.569.306.962.569-.043.393-.087.612-.13 1.005.305-.262.436-.393.743-.656.393.22.612.35 1.006.613-.22-.394-.307-.613-.525-1.006.306-.263.48-.35.787-.612h-1.137a5.01 5.01 0 00-.438-1.006z" fill="#fff"/><path d="M103.087 110.116c-.437 0-.787-.307-.874-.744l-13.602-78.55a.854.854 0 01.7-1.006.853.853 0 011.005.7l12.728 73.608 12.727-73.608a.853.853 0 011.006-.7.854.854 0 01.7 1.006l-13.602 78.55c0 .437-.394.744-.788.744z" fill="#697D7F"/><path d="M89.485 33.184a2.493 2.493 0 100-4.986 2.493 2.493 0 000 4.986zm27.204 0a2.493 2.493 0 100-4.986 2.493 2.493 0 000 4.986z" fill="#697D7F"/><path d="M81.525 31.74C54.146 36.42 34.99 50.678 20.863 74.864c-.306.569-1.093.569-1.487.044l-6.473-9.36-11.153-.087c-.656 0-1.05-.656-.787-1.268C8.136 48.929 23.356 33.709 37.57 24.96c11.81-7.26 22.524-11.633 37.482-14.17l6.473 20.95z" fill="#fff"/><path d="M20.119 76.176a1.763 1.763 0 01-1.443-.743l-6.21-8.966-10.76-.131a1.636 1.636 0 01-1.443-.831c-.306-.525-.35-1.137-.088-1.662 6.78-14.433 21.3-29.96 36.914-39.582C49.64 16.521 60.575 12.41 74.877 9.96c.437-.088.874.175.962.612l6.517 20.95a.787.787 0 01-.088.7.85.85 0 01-.612.393C55.02 37.12 35.95 50.722 21.606 75.302c-.306.524-.831.83-1.443.874h-.044zm54.32-64.423c-13.69 2.405-24.317 6.473-36.432 13.952-15.351 9.447-29.61 24.71-36.257 38.838l11.196.174a.84.84 0 01.7.394l6.473 9.316C34.596 49.628 53.752 35.852 80.431 31.04L74.44 11.753z" fill="#697D7F"/><path d="M124.473 31.697c27.379 4.636 46.579 18.937 60.662 43.124.306.568 1.093.568 1.487.043l6.473-9.36 11.196-.13c.656 0 1.05-.656.788-1.269-7.173-15.264-22.393-30.484-36.608-39.231-11.808-7.26-22.524-11.634-37.482-14.17l-6.516 20.993z" fill="#fff"/><path d="M185.879 76.132h-.088c-.612-.043-1.137-.35-1.443-.874-14.346-24.624-33.458-38.182-60.05-42.687a.85.85 0 01-.612-.393c-.131-.219-.175-.481-.088-.7l6.517-20.95c.131-.437.569-.656.962-.612 14.302 2.45 25.236 6.604 37.788 14.302 15.658 9.622 30.134 25.148 36.914 39.58a1.73 1.73 0 01-.088 1.663 1.688 1.688 0 01-1.443.83l-10.759.132-6.211 8.966a1.738 1.738 0 01-1.399.743zm-60.313-45.135c26.636 4.767 45.836 18.588 60.269 43.386l6.473-9.316c.175-.218.437-.393.7-.393l11.196-.132c-6.648-14.126-20.906-29.39-36.257-38.837-12.115-7.48-22.743-11.547-36.432-13.952l-5.949 19.244z" fill="#697D7F"/><path d="M23.136 60.212L22.043 61.7l-7.61-5.598 1.093-1.487 7.61 5.599zm-1.924-6.035l4.023 3.324-1.05 1.268-7.303-5.992 1.05-1.268 5.598 1.793-4.199-3.455 1.05-1.268 7.304 5.948-1.05 1.268-5.423-1.618zm3.455-10.234c.612-.656 1.53-.656 2.143-.044l4.592 4.417c.656.613.656 1.531.044 2.187l-2.624 2.755-6.823-6.516 2.668-2.8zm1.18 1.662c-.174-.175-.393-.175-.568 0l-.787.83 4.505 4.33.787-.83c.175-.175.131-.394 0-.569l-3.936-3.761zm3.018-5.686l5.161 5.773c.044.044.131.044.175.044l.919-.831a.133.133 0 000-.175l-5.161-5.773 1.4-1.269 5.554 6.21c.437.482.393 1.138-.088 1.575l-2.23 2.012c-.481.438-1.137.394-1.575-.087l-5.598-6.21 1.443-1.27zm8.923 2.581l1.968-1.488c.087-.043.044-.13.044-.175l-1.27-1.617c-.043-.044-.13-.087-.175-.044l-1.137.875c-.48.35-1.05.263-1.443-.175l-2.143-2.799c-.35-.481-.306-1.05.175-1.443l2.668-2.056.962 1.269-1.88 1.443c-.044.044-.044.131 0 .218l1.18 1.531c.044.044.131.044.175.044l1.137-.875c.481-.35 1.05-.306 1.444.175l2.186 2.8c.35.48.263 1.093-.175 1.443l-2.755 2.099-.962-1.225zm3.849-12.422l.918 1.313-1.268.874 4.373 6.517-1.574 1.05-4.374-6.473-1.268.874-.919-1.312 4.112-2.843zm4.986-2.974c.569-.35 1.181-.175 1.531.394l2.056 3.543c.306.48.218 1.05-.175 1.355l2.318 2.275-1.619.918-2.274-2.23-.612.35 1.574 2.667-1.618.963-4.81-8.136 3.63-2.099zm.219 1.88c-.044-.043-.131-.087-.175-.043l-1.225.7 1.619 2.799 1.224-.7c.044-.043.044-.131.044-.175l-1.487-2.58zm8.571 4.2l-1.618.83-4.286-8.44 1.618-.832 4.286 8.442zm6.342-2.887l-1.705.744L59 28.635l-1.356.612 1.05 2.406-1.706.743-3.368-7.741c-.218-.569-.043-1.093.525-1.356l2.93-1.268c.57-.219 1.094-.044 1.356.525l3.324 7.741zm-3.411-3.062l-1.4-3.192c-.043-.131-.175-.175-.306-.088l-.918.394c-.131.044-.175.175-.131.306l1.4 3.193 1.355-.613zm1.793-6.429l1.75-.656 2.623 7.348 2.1-.744.568 1.531-3.892 1.4-3.15-8.879zm81.656 2.668l-1.881 5.161-1.618-.569 3.193-8.878 1.662.612-.088 4.724 2.887-3.718 1.749.613-3.193 8.878-1.705-.612 1.88-5.205-2.23 2.668-.656-.219v-3.455zm7.959-1.224l4.068 1.836-.656 1.488-2.362-1.05-.919 2.1 1.968.874-.656 1.443-1.968-.875-.962 2.143 2.362 1.05-.656 1.487-4.068-1.837 3.849-8.66zm7.392 10.234l-1.137 2.187c-.306.568-.918.787-1.531.48l-2.624-1.399c-.569-.306-.743-.918-.437-1.487l3.411-6.473c.306-.612.919-.787 1.487-.48l2.624 1.399c.569.306.788.918.481 1.53l-1.137 2.143-1.662-.874.831-1.662c.044-.088.044-.175 0-.175l-1.049-.569c-.044-.043-.132 0-.175.088l-2.799 5.336c-.044.087 0 .13.043.175l1.05.568c.044.044.131 0 .175-.044l.831-1.618 1.618.875zM161.037 39l-1.575-1.005 2.056-3.325-1.4-.874-2.055 3.324-1.575-1.006 5.03-8.004 1.574 1.006-2.099 3.368 1.4.874 2.099-3.367 1.575 1.006-5.03 8.003zm5.335 3.937l-1.487-1.137 1.531-2.1-1.224-.874-1.531 2.099-1.487-1.137 5.029-6.78c.35-.48.919-.568 1.4-.218l2.58 1.924c.482.35.569.963.219 1.444l-5.03 6.779zm1.006-4.505l2.056-2.8c.088-.13.044-.262-.087-.35l-.831-.611c-.132-.088-.263-.044-.307.043l-2.055 2.8 1.224.918zm4.768 2.493l-3.412 3.936-1.268-1.093 6.167-7.13 1.268 1.094-1.924 5.555 3.586-4.112 1.268 1.094-6.166 7.129-1.269-1.094 1.75-5.38zm1.881 8.791l-1.312-1.269 6.604-6.779 1.312 1.269-6.604 6.779zm7.129 2.449l-1.794 1.662c-.481.437-1.137.437-1.574-.044l-2.012-2.187c-.437-.48-.394-1.137.088-1.574l5.379-4.942c.481-.438 1.137-.438 1.575.044l2.011 2.186c.438.481.438 1.137-.087 1.575l-1.793 1.662-1.269-1.4 1.313-1.224c.043-.044.087-.132.043-.175l-.831-.875c-.043-.044-.131-.044-.218 0l-4.418 4.111a.135.135 0 000 .175l.788.875c.043.044.131.044.174 0l1.356-1.225 1.269 1.356zm1.399 7.217l-1.18-1.444 2.011-1.618-.962-1.18-2.012 1.617-1.181-1.443 6.561-5.292c.481-.394 1.05-.306 1.443.131l2.012 2.493c.394.481.306 1.05-.131 1.444l-6.561 5.291zm2.056-4.068l2.712-2.187c.087-.087.087-.218 0-.35l-.613-.787c-.087-.087-.218-.131-.306-.044l-2.711 2.187.918 1.181zm6.473-.262l1.093 1.53-6.342 4.549 1.312 1.837-1.312.962-2.405-3.368 7.654-5.51z" fill="#262D2D"/><path d="M124.474 31.697l7.391-5.205c.175-.131.262-.262.35-.481l4.111-14.258-11.065-2.887-.787 22.83z" fill="#93B1B2"/><path d="M124.473 32.571c-.131 0-.306-.043-.393-.087a.922.922 0 01-.481-.787l.743-22.83a.77.77 0 01.35-.657.765.765 0 01.744-.131l11.065 2.887a.818.818 0 01.525.393c.131.219.131.438.087.656l-4.111 14.258c-.131.394-.35.7-.656.962l-7.392 5.205c-.131.044-.306.131-.481.131zm1.575-22.611l-.656 19.987 5.948-4.199 3.849-13.383-9.141-2.405z" fill="#697D7F"/><path d="M81.526 31.74l-7.348-5.204c-.175-.132-.263-.263-.35-.481l-4.111-14.258L80.782 8.91l.744 22.83z" fill="#93B1B2"/><path d="M81.525 32.615A.84.84 0 0181 32.44l-7.391-5.204a1.672 1.672 0 01-.656-.963l-4.111-14.258c-.044-.218-.044-.48.087-.656.131-.218.306-.35.525-.393l11.065-2.887c.263-.087.525 0 .744.131.218.175.35.394.35.656l.743 22.83c0 .35-.175.657-.481.788-.044.087-.175.131-.35.131zM70.81 12.41l3.849 13.383 5.948 4.199-.656-19.988-9.141 2.406z" fill="#697D7F"/><path d="M73.695 25.53L68.272 6.854a.875.875 0 01.612-1.093c10.584-2.8 21.78-4.592 34.115-4.592h.262c12.202 0 23.311 1.793 33.808 4.505a.874.874 0 01.612 1.093l-5.379 18.675c-.131.438-.613.7-1.05.613-8.747-2.23-17.626-3.412-27.991-3.412h-.262c-10.497 0-19.463 1.181-28.254 3.455-.438.175-.919-.13-1.05-.568z" fill="#fff"/><path d="M74.527 27.017a1.72 1.72 0 01-1.662-1.269L67.442 7.073a1.668 1.668 0 01.175-1.356c.218-.393.612-.7 1.093-.83C80.475 1.824 91.715.293 103 .293h.263c11.109 0 22.261 1.487 34.027 4.549.437.13.831.393 1.093.83.219.394.306.875.175 1.356l-5.38 18.676a1.746 1.746 0 01-2.099 1.224c-8.878-2.274-17.713-3.367-27.773-3.367h-.262c-10.147 0-19.069 1.093-28.035 3.411-.175.044-.35.044-.481.044zm0-1.75c9.097-2.361 18.15-3.499 28.472-3.499h.263c10.19 0 19.156 1.094 28.21 3.412l5.379-18.676c-11.634-2.974-22.611-4.46-33.589-4.46h-.263c-11.109 0-22.218 1.486-33.895 4.592l5.423 18.631z" fill="#697D7F"/><path d="M80.344 13.415l.875 5.51-1.75.263-1.575-9.928 1.75-.263 3.193 5.38-.919-5.773 1.75-.263 1.574 9.929-1.75.262-3.148-5.117zm8.922 4.417l-1.925.219-1.093-9.972 1.924-.219 1.094 9.972zm7.567-.612l-1.968.131-.175-2.755-1.575.087.175 2.756-1.968.13-.569-8.921c-.043-.657.35-1.094 1.006-1.138l3.412-.218c.656-.044 1.093.393 1.137 1.006l.525 8.922zm-2.275-4.286L94.34 9.26c0-.131-.132-.219-.263-.219l-1.05.088c-.13 0-.262.13-.218.262l.219 3.674 1.53-.131zm6.866-1.924l3.28-.044v1.662h-.612l.044 3.323c0 .7-.481 1.181-1.181 1.181l-3.062.044c-.7 0-1.18-.481-1.18-1.18l-.088-7.742c0-.7.481-1.225 1.18-1.225l4.287-.043v1.793l-3.368.044c-.043 0-.131.087-.131.174l.088 6.255c0 .087.043.13.131.13h1.399c.088 0 .132-.043.132-.13l-.044-2.58h-.831l-.044-1.663zm10.366 6.341l-2.012-.087.131-2.756-1.575-.043-.131 2.755-2.012-.088.35-8.922c.044-.656.481-1.05 1.094-1.05l3.411.132c.656.043 1.05.48 1.05 1.137l-.306 8.922zm-1.794-4.505l.132-3.674c0-.13-.088-.262-.263-.262l-1.049-.044c-.132 0-.263.088-.263.219l-.131 3.674 1.574.087zm9.186-4.898c.7.087 1.137.612 1.05 1.312l-.437 4.373c-.044.613-.438 1.006-1.006 1.05l.612 3.412-1.968-.175-.569-3.368-.743-.088-.306 3.28-2.012-.174.962-9.972 4.417.35zm-.962 1.75c0-.088-.044-.176-.087-.176l-1.531-.13-.35 3.41 1.531.132c.043 0 .131-.044.131-.131l.306-3.106zm8.396 9.446l-1.968-.306.437-2.712-1.574-.262-.437 2.712-1.969-.306 1.444-8.835a1.056 1.056 0 011.224-.919l3.368.525c.612.088 1.006.612.919 1.225l-1.444 8.878zm-1.268-4.68l.568-3.63c.044-.13-.087-.262-.218-.262l-1.05-.175c-.131-.044-.262.044-.306.175l-.569 3.63 1.575.262z" fill="#262D2D"/><path d="M163.267 117.944h4.242l-.569-17.931h-3.236l-.437 17.931zm5.729 0h4.243l-.569-17.931h-3.237l-.437 17.931z" fill="#93B1B2"/><path opacity=".5" fill-rule="evenodd" clip-rule="evenodd" d="M156.878 92.87a2.217 2.217 0 01-.872-1.08c-.437-1.093.131-2.362 1.268-2.799 1.114-.428 2.311.108 2.771 1.198.279.183.503.446.637.759.242-.105.509-.164.791-.164a1.96 1.96 0 011.969 1.968c0 .404-.12.778-.325 1.09.035.145.055.297.06.454a2.054 2.054 0 011.576 1.999 2.054 2.054 0 01-2.056 2.056 2.052 2.052 0 01-1.821-1.1 2.286 2.286 0 01-.671.4c-1.138.437-2.362-.131-2.8-1.269a2.101 2.101 0 01.044-1.645 2.271 2.271 0 01-.481-.76 2.15 2.15 0 01-.09-1.107zm9.228-.358a1.622 1.622 0 01-.653-.81 1.606 1.606 0 01.963-2.055 1.603 1.603 0 011.971.772c.252.141.452.365.561.636a1.456 1.456 0 011.972 1.348c0 .317-.107.614-.287.855.012.07.02.142.023.215a1.521 1.521 0 011.271 1.51c0 .875-.7 1.53-1.531 1.53-.6 0-1.096-.328-1.35-.802a1.606 1.606 0 01-2.519-1.893 1.635 1.635 0 01-.421-1.306z" fill="#C4D8DB"/><path d="M84.804 115.408l-7.26-1.706 1.618-35.864h4.374l1.268 37.57z" fill="#93B1B2"/><path d="M87.91 66.904c5.423-1.968 11.458.919 17.188.306 3.193-.35 6.123-1.793 9.097-2.93 2.974-1.137 6.254-2.056 9.36-1.268 3.105.787 5.86 3.761 5.379 6.91-.262 1.75-1.487 3.28-2.974 4.199-1.487.962-3.28 1.356-5.03 1.574-3.367.394-6.866-.087-10.015-1.312-2.1-.83-4.024-1.968-6.123-2.712-4.593-1.618-8.966-2.536-13.82-2.099-2.1.175-4.768 1.181-6.736 2.8-1.356 1.136-2.318 2.361-2.668 4.023-.088.044-.175.044-.219 0-.437-4.024 3.018-8.222 6.56-9.49z" fill="#C4D8DB" opacity=".5"/><path d="M112.182 92.883c-.175-5.904 2.756-11.109 2.756-11.109H91.014s2.93 5.205 2.755 11.11C93.64 97.693 86.597 120 86.597 120h32.802s-7.042-22.306-7.217-27.117z" fill="#93B1B2"/><path d="M113.844 84.224H92.107c.088.262.22.568.307.874h21.08c.132-.306.263-.612.35-.874zm-.699 2.143H92.852c.087.262.174.568.218.874h19.813c.087-.306.175-.612.262-.874z" fill="#fff"/><path d="M95.038 97.65h-7.916v17.364h7.916V97.651z" fill="#697D7F"/><path d="M90.403 98.963h-1.968v3.586h1.968v-3.586zm3.324 0h-1.968v3.586h1.968v-3.586zm-3.324 4.724h-1.968v3.586h1.968v-3.586zm3.324 0h-1.968v3.586h1.968v-3.586zm-3.324 4.723h-1.968v3.586h1.968v-3.586zm3.324 0h-1.968v3.586h1.968v-3.586zM45.53 79.719l.7-5.904.611 5.904H45.53zm2.054 0H44.83v.394h2.755v-.394z" fill="#93B1B2"/><path d="M46.928 76.483h-1.53v.393h1.53v-.394zm3.719 16.313H46.36v.656h4.287v-.656z" fill="#93B1B2"/><path d="M46.841 80.112H45.53V120h1.312V80.112zM65.91 90.74c-.044-1.4-1.706-2.536-3.805-2.536-2.1 0-3.805 1.137-3.805 2.536v5.205h7.654l-.044-5.205zm-8.616 0c-.044-1.4-1.706-2.536-3.805-2.536-2.1 0-3.805 1.137-3.805 2.536V120h7.61V90.74z" fill="#93B1B2"/><path d="M112.532 112.215H73.738V120h38.794v-7.785z" fill="#697D7F"/><path d="M82.836 113.702h-5.073v1.618h5.073v-1.618zm7.042 0h-5.073v1.618h5.073v-1.618zm7.085 0H91.89v1.618h5.073v-1.618zm7.041 0h-5.073v1.618h5.073v-1.618zm7.086 0h-5.073v1.618h5.073v-1.618z" fill="#93B1B2"/><path d="M73.914 103.293H43.867V120h30.047v-16.707zm1.049-.831h-32.19v.831h32.19v-.831z" fill="#697D7F"/><path d="M58.606 112.127h-3.237V120h3.237v-7.873zm3.804 0h-3.236V120h3.236v-7.873zm-9.84 0h-7.172v5.118h7.172v-5.118zm19.813 0H65.21v5.118h7.173v-5.118z" fill="#93B1B2"/><path d="M50.121 104.867h-5.073v1.619h5.073v-1.619zm7.173 0h-5.073v1.619h5.073v-1.619zm7.216 0h-5.074v1.619h5.074v-1.619zm7.174 0H66.61v1.619h5.074v-1.619z" fill="#fff"/><path d="M73.914 108.454H43.867v.831h30.047v-.831z" fill="#93B1B2"/><path d="M72.033 96.689H55.588v5.773h16.445v-5.773z" fill="#697D7F"/><path d="M72.995 95.989H54.757v.7h18.238v-.7z" fill="#697D7F"/><path d="M57.381 97.65h-.787v2.144h.787V97.65zm2.711 0h-.787v2.144h.787V97.65zm2.712 0h-.787v2.144h.787V97.65zm2.756 0h-.788v2.144h.788V97.65zm2.71 0h-.787v2.144h.788V97.65zm2.714 0h-.788v2.144h.788V97.65z" fill="#fff"/><path d="M54.625 100.756h-4.81v1.706h4.81v-1.706zm-5.379.875h-1.355v.831h1.355v-.831z" fill="#697D7F"/><path d="M155.525 119.869V107.01l-6.211-2.799v15.702l6.211-.044z" fill="#93B1B2"/><path d="M149.665 119.869V107.01l-6.211-2.799v15.702l6.211-.044z" fill="#93B1B2"/><path d="M143.76 119.869V107.01l-6.21-2.799v15.702l6.21-.044z" fill="#93B1B2"/><path d="M137.899 111.122V98.263l-6.167-2.799v15.701l6.167-.043z" fill="#93B1B2"/><path d="M132.039 111.122V98.263l-6.211-2.799v15.701l6.211-.043z" fill="#93B1B2"/><path d="M126.134 111.122V98.263l-6.21-2.799v15.701l6.21-.043z" fill="#93B1B2"/><path d="M159.767 109.503h-43.123V120h43.123v-10.497z" fill="#697D7F"/><path d="M178.836 116.151h-67.091V120h67.091v-3.849z" fill="#697D7F"/><path d="M152.376 111.953h-2.799v2.799h2.799v-2.799z" fill="#fff"/><path d="M156.618 111.953h-2.799v2.799h2.799v-2.799zm-8.441 0h-2.799v2.799h2.799v-2.799zm-4.199 0h-2.799v2.799h2.799v-2.799zm-4.198 0h-2.8v2.799h2.8v-2.799zm-4.199 0h-2.799v2.799h2.799v-2.799zm-4.198 0h-2.799v2.799h2.799v-2.799zm-4.199 0h-2.799v2.799h2.799v-2.799z" fill="#93B1B2"/><path d="M122.942 111.953h-2.799v2.799h2.799v-2.799z" fill="#fff"/><path d="M177 112.346h-18.325v4.549H177v-4.549z" fill="#697D7F"/><path d="M135.232 105.48h-13.295v1.268h13.295v-1.268zm-3.499-2.975h-9.796v1.269h9.796v-1.269z" fill="#fff"/><path d="M34.726 117.376v-14.171l6.997-3.586v17.757h-6.997z" fill="#93B1B2"/><path d="M37.788 104.167H36.3v2.493h1.487v-2.493zm2.318 0H38.62v2.493h1.487v-2.493z" fill="#fff"/><path d="M37.788 108.016H36.3v2.493h1.487v-2.493zm2.318 0H38.62v2.493h1.487v-2.493z" fill="#697D7F"/><path d="M27.99 117.988v-14.17l7.042-3.543v17.713H27.99z" fill="#93B1B2"/><path d="M31.052 104.78h-1.488v2.493h1.488v-2.493zm2.361 0h-1.487v2.493h1.487v-2.493z" fill="#fff"/><path d="M31.052 108.629h-1.488v2.492h1.488v-2.492zm2.361 0h-1.487v2.492h1.487v-2.492zm10.585 6.079H26.984V120h17.014v-5.292z" fill="#697D7F"/><path d="M30.046 116.02h-.656v2.056h.656v-2.056zm1.443 0h-.656v2.056h.656v-2.056zm1.486 0h-.656v2.056h.656v-2.056zm1.445 0h-.656v2.056h.656v-2.056zm1.443 0h-.656v2.056h.656v-2.056zm1.443 0h-.656v2.056h.656v-2.056zm1.443 0h-.656v2.056h.656v-2.056zm1.443 0h-.656v2.056h.656v-2.056zm1.444 0h-.657v2.056h.657v-2.056z" fill="#93B1B2"/></g><defs><clipPath id="clip0"><path fill="#fff" transform="translate(0 .294)" d="M0 0h205.998v119.706H0z"/></clipPath></defs></svg>