<?xml version="1.0" encoding="UTF-8"?>
<!DOCTYPE svg PUBLIC "-//W3C//DTD SVG 1.1//EN" "http://www.w3.org/Graphics/SVG/1.1/DTD/svg11.dtd">
<!-- Creator: CorelDRAW 2019 (64-Bit) -->
<svg xmlns="http://www.w3.org/2000/svg" xml:space="preserve" width="8.9959mm" height="5.8452mm" version="1.1" style="shape-rendering:geometricPrecision; text-rendering:geometricPrecision; image-rendering:optimizeQuality; fill-rule:evenodd; clip-rule:evenodd"
viewBox="0 0 102.09 66.33"
 xmlns:xlink="http://www.w3.org/1999/xlink"
 xmlns:xodm="http://www.corel.com/coreldraw/odm/2003">
 <defs>
  <style type="text/css">
   <![CDATA[
    .fil0 {fill:#F6F6F6;fill-rule:nonzero}
   ]]>
  </style>
 </defs>
 <g id="Слой_x0020_1">
  <metadata id="CorelCorpID_0Corel-Layer"/>
  <path id="Arrow_x0020_2.svg" class="fil0" d="M4.5 28.66c-2.49,0 -4.5,2.02 -4.5,4.5 0,2.49 2.02,4.5 4.5,4.5l0 -9.01zm96.27 7.69c1.76,-1.76 1.76,-4.61 0,-6.37l-28.66 -28.66c-1.76,-1.76 -4.61,-1.76 -6.37,0 -1.76,1.76 -1.76,4.61 0,6.37l25.48 25.48 -25.48 25.48c-1.76,1.76 -1.76,4.61 0,6.37 1.76,1.76 4.61,1.76 6.37,0l28.66 -28.66zm-96.27 1.32l93.08 0 0 -9.01 -93.08 0 0 9.01z"/>
 </g>
</svg>
