<?xml version="1.0" encoding="UTF-8"?>
<!DOCTYPE svg PUBLIC "-//W3C//DTD SVG 1.1//EN" "http://www.w3.org/Graphics/SVG/1.1/DTD/svg11.dtd">
<!-- Creator: CorelDRAW 2019 (64-Bit) -->
<svg xmlns="http://www.w3.org/2000/svg" xml:space="preserve" width="8.9959mm" height="5.8452mm" version="1.1" style="shape-rendering:geometricPrecision; text-rendering:geometricPrecision; image-rendering:optimizeQuality; fill-rule:evenodd; clip-rule:evenodd"
viewBox="0 0 78.62 51.08"
 xmlns:xlink="http://www.w3.org/1999/xlink"
 xmlns:xodm="http://www.corel.com/coreldraw/odm/2003">
 <defs>
  <style type="text/css">
   <![CDATA[
    .fil0 {fill:#283043;fill-rule:nonzero}
   ]]>
  </style>
 </defs>
 <g id="Слой_x0020_1">
  <metadata id="CorelCorpID_0Corel-Layer"/>
  <path id="Arrow_x0020_2.svg" class="fil0" d="M75.15 22.07c1.92,0 3.47,1.55 3.47,3.47 0,1.92 -1.55,3.47 -3.47,3.47l0 -6.94zm-74.13 5.92c-1.35,-1.35 -1.35,-3.55 0,-4.9l22.07 -22.07c1.35,-1.35 3.55,-1.35 4.91,0 1.35,1.35 1.35,3.55 0,4.9l-19.62 19.62 19.62 19.62c1.35,1.35 1.35,3.55 0,4.9 -1.35,1.35 -3.55,1.35 -4.91,0l-22.07 -22.07zm74.13 1.02l-71.68 0 0 -6.94 71.68 0 0 6.94z"/>
 </g>
</svg>
