<svg width="100" height="18" viewBox="0 0 100 18" fill="none" xmlns="http://www.w3.org/2000/svg">
<path d="M0 2.56115C4.99756 2.56115 4.99756 0 9.99513 0C14.991 0 14.991 2.56115 19.9886 2.56115C24.9861 2.56115 24.9861 0 29.9837 0C34.9812 0 34.9813 2.56115 39.9788 2.56115C44.9764 2.56115 44.9764 0 49.9722 0C54.9698 0 54.9698 2.56115 59.9674 2.56115C64.9649 2.56115 64.9649 0 69.9625 0C74.9601 0 74.9601 2.56115 79.9559 2.56115C84.9552 2.56115 84.9552 0 89.9528 0C94.9503 0 95.0024 2.5 100 2.5V17.9178H0V12.9167V12.3604V2.56115Z" fill="#F6F6F6"/>
</svg>
