<svg xmlns="http://www.w3.org/2000/svg" viewBox="0 0 487.42 146.91"><defs><style>.\33 f57827f-3423-4d78-8235-92679eb69935{fill:#976f55;}.\32 8b85d57-7f72-4146-988e-b9eeadc22932{fill:#151515;}</style></defs><title>logo</title><g id="7e560672-63b7-4b73-9b89-2254bfb688fb" data-name="layer-1"><path class="3f57827f-3423-4d78-8235-92679eb69935" d="M55.25,151.32l-3-128.82A42,42,0,0,0,32.05,38.06Q24.79,48.65,24.79,64.4a34.08,34.08,0,0,0,.41,5.84,25.66,25.66,0,0,0,.85,3.59,12.9,12.9,0,0,0,.86,2.08,2.77,2.77,0,0,1,.41,1.29,33.73,33.73,0,0,1-8.47-1,15.25,15.25,0,0,1-6.18-3.09,13.34,13.34,0,0,1-3.78-5.61,24.94,24.94,0,0,1-1.31-8.66,30.61,30.61,0,0,1,2.66-12.34A46.17,46.17,0,0,1,17.54,35a64.56,64.56,0,0,1,10.9-10,80.57,80.57,0,0,1,13.43-8,78.24,78.24,0,0,1,15-5.24A65.73,65.73,0,0,1,72.37,9.89c1.38,0,2.66,0,3.83.09s2.36.15,3.56.28l1.63,116L120.22,10.81h12.89L81.84,151.32Z" transform="translate(-7.58 -9.89)"/><path class="28b85d57-7f72-4146-988e-b9eeadc22932" d="M169,121.34a68.44,68.44,0,0,1-5.15,11.76,49,49,0,0,1-5.92,8.42,32.54,32.54,0,0,1-6.32,5.55,31.78,31.78,0,0,1-6.27,3.27,28.35,28.35,0,0,1-5.8,1.55,34.11,34.11,0,0,1-4.91.41,20.35,20.35,0,0,1-6.88-1.14,14.41,14.41,0,0,1-5.55-3.6,17.31,17.31,0,0,1-3.72-6.21,26.84,26.84,0,0,1-1.36-9.06,44.38,44.38,0,0,1,.32-5q.33-2.73,1-5.92l11.11-53.66h23.58l-11.75,56.85a15.06,15.06,0,0,0-.52,2.73c-.08.9-.12,1.79-.12,2.66,0,2.34.54,4,1.6,4.86s2.75,1.35,5,1.35A10.51,10.51,0,0,0,152,135a14.86,14.86,0,0,0,4.2-3.06,21.61,21.61,0,0,0,3.44-4.7,29.86,29.86,0,0,0,2.48-5.92ZM158.82,45.46a13,13,0,0,1-1,5.19,12.76,12.76,0,0,1-2.84,4.16,13.5,13.5,0,0,1-4.15,2.78,13.16,13.16,0,0,1-10.16,0,13,13,0,0,1-4.11-2.78,12.4,12.4,0,0,1-2.76-4.16A13.66,13.66,0,0,1,136.52,36a13,13,0,0,1,4.11-2.9,12.7,12.7,0,0,1,10.16,0,13.51,13.51,0,0,1,4.15,2.9,13.71,13.71,0,0,1,2.84,4.25A13,13,0,0,1,158.82,45.46Z" transform="translate(-7.58 -9.89)"/><path class="28b85d57-7f72-4146-988e-b9eeadc22932" d="M155.86,151.32l17.35-83.64h23.58l-2.08,10.37q2.16-2,4.4-3.84a34.12,34.12,0,0,1,4.67-3.3,27.37,27.37,0,0,1,5.08-2.33,17.21,17.21,0,0,1,5.6-.9,10.79,10.79,0,0,1,4.91,1.06,11.16,11.16,0,0,1,3.56,2.78,11.54,11.54,0,0,1,2.16,4,15.69,15.69,0,0,1,.72,4.74,13.75,13.75,0,0,1-.72,4.37,11.41,11.41,0,0,1-2.2,3.88,11.81,11.81,0,0,1-3.72,2.82,11.66,11.66,0,0,1-5.19,1.1,6.42,6.42,0,0,1-3.56-.82,5.39,5.39,0,0,1-1.88-2,9.79,9.79,0,0,1-.92-2.65c-.19-1-.39-1.84-.6-2.66a6.88,6.88,0,0,0-.84-2,1.87,1.87,0,0,0-1.72-.82,10.88,10.88,0,0,0-6.31,1.76,48.49,48.49,0,0,0-5.6,4.61l-13.11,63.55Z" transform="translate(-7.58 -9.89)"/><path class="28b85d57-7f72-4146-988e-b9eeadc22932" d="M274.25,121.34a69.21,69.21,0,0,1-5.16,11.76,48.41,48.41,0,0,1-5.91,8.42,32.54,32.54,0,0,1-6.32,5.55,31.78,31.78,0,0,1-6.27,3.27,28.35,28.35,0,0,1-5.8,1.55,34.34,34.34,0,0,1-4.91.41,20.31,20.31,0,0,1-6.88-1.14,14.41,14.41,0,0,1-5.55-3.6,17,17,0,0,1-3.72-6.21,26.59,26.59,0,0,1-1.36-9.06,44.38,44.38,0,0,1,.32-5q.31-2.73,1-5.92l9.83-47h-5.43l1.35-6.7h5.36l5-23.12,24.22-3.34-5.6,26.46h9.83l-1.28,6.7h-9.83l-10.47,50.15a14.25,14.25,0,0,0-.52,2.73c-.08.9-.12,1.79-.12,2.66q0,3.51,1.6,4.86c1.07.9,2.74,1.35,5,1.35a10.54,10.54,0,0,0,4.67-1.11,14.86,14.86,0,0,0,4.2-3.06,22,22,0,0,0,3.44-4.7,30.47,30.47,0,0,0,2.48-5.92Z" transform="translate(-7.58 -9.89)"/><path class="28b85d57-7f72-4146-988e-b9eeadc22932" d="M356.91,121.34a76.54,76.54,0,0,1-5,11.76,49.22,49.22,0,0,1-5.64,8.42,32,32,0,0,1-6,5.55,29.1,29.1,0,0,1-5.92,3.27,25.54,25.54,0,0,1-5.51,1.55,32,32,0,0,1-4.8.41q-7,0-11.19-4t-5-11.89a41.08,41.08,0,0,1-6.31,8.25,29.73,29.73,0,0,1-6.32,4.82,19.88,19.88,0,0,1-6.07,2.25,31.69,31.69,0,0,1-5.52.53,20.3,20.3,0,0,1-6.87-1.14,14.44,14.44,0,0,1-5.56-3.6,17.15,17.15,0,0,1-3.71-6.21,26.59,26.59,0,0,1-1.36-9.06,42.18,42.18,0,0,1,.32-5q.31-2.73,1-5.92l11.11-53.66h23.58l-11.75,56.85a26.4,26.4,0,0,0-.48,4.73,10.4,10.4,0,0,0,1,4.87,3.92,3.92,0,0,0,3.83,2,8.91,8.91,0,0,0,4.4-1.11,12.83,12.83,0,0,0,3.64-3.06,20.59,20.59,0,0,0,2.88-4.7,48.07,48.07,0,0,0,2.19-5.92l11.11-53.66h23.59l-11.75,56.85a16.15,16.15,0,0,0-.56,2.73,21.94,21.94,0,0,0-.16,2.66q0,3.51,1.63,4.86a7.93,7.93,0,0,0,5.08,1.35A9.14,9.14,0,0,0,341.2,135a13,13,0,0,0,3.71-3.06,20.4,20.4,0,0,0,3-4.7,37.81,37.81,0,0,0,2.16-5.92Z" transform="translate(-7.58 -9.89)"/><path class="28b85d57-7f72-4146-988e-b9eeadc22932" d="M442,87.77a40.15,40.15,0,0,1-12.39,8.74A64.2,64.2,0,0,1,413,101.66a80,80,0,0,1-4.36,20.91,55.75,55.75,0,0,1-8.59,15.84,37.16,37.16,0,0,1-11.91,10.05A30.3,30.3,0,0,1,373.93,152a37,37,0,0,1-10.51-1.43,20.27,20.27,0,0,1-13.75-12.74,33.82,33.82,0,0,1-2-12.21,72.22,72.22,0,0,1,1-11.15,81.58,81.58,0,0,1,3.2-12.86,78.08,78.08,0,0,1,5.67-13,49.66,49.66,0,0,1,8.48-11.31,40.48,40.48,0,0,1,11.55-8,34.94,34.94,0,0,1,14.95-3.06q21,0,21,26.71v.16a2,2,0,0,0,.76.17h1a24.86,24.86,0,0,0,6.19-.86,49.52,49.52,0,0,0,6.68-2.25,55.94,55.94,0,0,0,6.55-3.22q3.19-1.85,5.84-3.72Zm-42.61,14.38A5,5,0,0,1,396,99.58a10.27,10.27,0,0,1-.91-4.46,10.72,10.72,0,0,1,1.39-5.75,8.49,8.49,0,0,1,3.72-3.31,30.31,30.31,0,0,0-.56-4.54,10,10,0,0,0-1.12-3,4,4,0,0,0-1.8-1.67,6.61,6.61,0,0,0-2.75-.49,8.59,8.59,0,0,0-5.68,2.33,27.41,27.41,0,0,0-5.16,6.16,57.49,57.49,0,0,0-4.47,8.78,88.27,88.27,0,0,0-3.48,10.17,92.9,92.9,0,0,0-2.24,10.33,60.91,60.91,0,0,0-.8,9.27,42.66,42.66,0,0,0,.44,6.78,10.76,10.76,0,0,0,1.44,4.13,5.12,5.12,0,0,0,2.6,2.08,11.72,11.72,0,0,0,3.92.57,9,9,0,0,0,5.95-2.69A27.93,27.93,0,0,0,392,126.9a59,59,0,0,0,4.51-11A83,83,0,0,0,399.43,102.15Z" transform="translate(-7.58 -9.89)"/><path class="28b85d57-7f72-4146-988e-b9eeadc22932" d="M421.89,151.32l41.73-74.57h-9.11c-1.28,0-2.47,0-3.56.08a20.22,20.22,0,0,0-2.88.32,4.64,4.64,0,0,0-1.91.78,1.71,1.71,0,0,0-.68,1.43c0,.27.09.44.28.49a1.82,1.82,0,0,1,.6.33,2.3,2.3,0,0,1,.6.81,5.36,5.36,0,0,1,.27,2.05,9.84,9.84,0,0,1-.75,4,7.84,7.84,0,0,1-2,2.73,8.57,8.57,0,0,1-2.8,1.6,10.09,10.09,0,0,1-3.24.53,8,8,0,0,1-5.15-1.88,6.32,6.32,0,0,1-1.72-2.29,7.43,7.43,0,0,1-.64-3.18,13.75,13.75,0,0,1,1.32-5.52A19.25,19.25,0,0,1,436,73.56a20.3,20.3,0,0,1,6-4.21,18.24,18.24,0,0,1,7.91-1.67H492l-40.13,70.73c.69.06,1.52.14,2.48.25l3.12.37c1.12.13,2.25.24,3.39.32s2.28.12,3.4.12a17.19,17.19,0,0,0,5.2-.69,3.44,3.44,0,0,0,2.56-2.65,3.21,3.21,0,0,1-2.36-1.15,3.72,3.72,0,0,1-.76-2.37,5.82,5.82,0,0,1,.6-2.49,7.3,7.3,0,0,1,1.72-2.28,9.29,9.29,0,0,1,2.83-1.72,10.6,10.6,0,0,1,4-.69q3.84,0,5.56,2.28a9.3,9.3,0,0,1,1.72,5.72,15.48,15.48,0,0,1-1.36,6,18.87,18.87,0,0,1-3.92,5.8,20.81,20.81,0,0,1-6.28,4.33,19.78,19.78,0,0,1-8.43,1.72Z" transform="translate(-7.58 -9.89)"/></g></svg>