<svg width="79" height="97" viewBox="0 0 79 97" fill="none" xmlns="http://www.w3.org/2000/svg">
<path fill-rule="evenodd" clip-rule="evenodd" d="M4.04199 59.1424C3.37159 48.7909 7.19212 39.5063 13.7735 32.4924C15.2008 30.9714 16.1163 30.1568 17.8464 28.816C19.389 27.6122 21.256 26.4228 23.2456 25.3992C32.3932 20.692 42.6943 20.3604 52.3393 24.0007C56.8519 25.7019 60.9679 28.5349 64.3271 31.8652C74.2317 41.7121 77.5044 56.6555 72.2565 69.8904C70.4544 74.4317 67.7944 78.4685 64.3992 81.8854C63.4549 82.8297 61.8834 84.1849 60.8382 84.9923C51.2508 92.4531 37.8501 94.3778 26.3957 89.8292C20.9605 87.6739 17.1399 84.8409 13.3194 80.8185C12.5985 80.0616 11.9209 79.2975 11.2794 78.4109C7.12725 72.7017 4.54659 66.8844 4.04199 59.1424ZM14.0042 27.1941C13.651 27.3887 12.9734 28.0231 12.6562 28.3186C12.1588 28.7728 11.8561 29.2413 11.3443 29.6018C10.9334 29.3567 7.30746 25.6947 7.12004 25.2982C6.3271 23.6475 8.09319 22.04 9.65745 22.8401C10.1476 23.0852 12.649 25.7091 13.305 26.3579C13.5717 26.6246 13.8817 26.7976 14.0042 27.1941ZM67.3691 29.6018L65.43 27.7924C65.1417 27.5185 65.0408 27.3743 64.702 27.2013C64.8245 26.8048 65.7184 26.0335 66.0572 25.6947C66.5618 25.1973 67.0015 24.7504 67.5061 24.253C68.1693 23.5898 69.6182 21.6796 71.1752 23.1213C71.651 23.5682 71.997 24.3756 71.615 25.2334C71.3987 25.7236 70.6058 26.4084 70.2525 26.7544L67.3691 29.6018ZM35.6299 12.9644L43.0763 12.9716V17.9671C41.822 17.9239 40.6398 17.8086 39.3567 17.8086C38.0808 17.8086 36.8553 17.9383 35.6299 17.9671V12.9644ZM30.0432 9.22317C30.0432 3.62213 29.2863 4.40065 39.3567 4.40065C49.4198 4.40065 48.6629 3.59329 48.6629 9.2448L30.0432 9.22317ZM27.8446 12.8995L31.8958 12.9644C32.04 13.3969 31.9463 16.9363 31.9607 17.9455C31.9607 18.515 31.9823 18.4285 31.8526 18.5366C27.5635 19.2359 22.3157 21.42 18.6321 23.7556C18.1996 24.0295 17.4499 24.5774 17.0246 24.7792C16.4263 24.3683 13.2473 20.8506 12.1516 20.0216C9.88812 18.2987 6.88216 18.6664 4.98631 20.4036C3.24184 22.0111 2.49215 24.9018 4.06361 27.4464C4.88539 28.7944 8.30224 31.5913 8.80684 32.4419L7.3363 34.4603C3.78248 39.3693 1.33157 45.8426 0.560255 51.9987C-2.36642 75.4265 15.9217 96.0142 39.3567 96.007C63.7504 96.007 81.0365 74.3669 78.1459 51.9843C77.4251 46.4265 75.5653 41.1787 72.7683 36.6085L70.6779 33.5088C70.4039 33.1339 70.13 32.8384 69.8993 32.4419C70.3174 31.6922 73.691 28.8809 74.6209 27.4969C76.0843 25.2982 75.7094 22.3716 73.7199 20.4108C72.0114 18.724 68.7748 18.2771 66.6122 19.9783C65.6967 20.6992 64.9254 21.5642 64.1325 22.3644L61.6888 24.7792L58.4233 22.768C55.5904 21.1605 49.9605 18.8466 46.8464 18.551C46.695 18.3132 46.7383 18.1834 46.7383 17.859C46.7527 16.8642 46.6517 13.3897 46.8103 12.9356L50.8615 12.8923C52.8944 12.8058 52.3898 9.51872 52.3898 7.72379C52.3898 5.12871 52.2816 4.09068 50.9336 2.49038C49.7442 1.07751 47.9853 0.673828 46.1111 0.673828L32.6816 0.681037C30.4541 0.673828 28.9908 1.19284 27.8158 2.44713C26.511 3.84559 26.3164 5.20801 26.3164 7.6445C26.3164 8.76183 26.2876 9.91519 26.3164 11.0253C26.3453 12.0129 26.9508 12.8274 27.8446 12.8995Z" fill="#F6F6F6"/>
<path fill-rule="evenodd" clip-rule="evenodd" d="M61.4955 58.7312L63.4923 58.7456C63.5355 58.9691 63.5427 58.897 63.5067 59.1493C63.4778 59.4016 63.4706 59.3512 63.3913 59.4665C63.5211 62.1697 61.3729 67.504 59.7654 69.9117C59.4266 70.4307 59.1383 70.8488 58.7851 71.3246C58.5111 71.6994 58.021 72.377 57.7326 72.5933C57.1559 72.3338 56.709 71.4471 56.0819 71.0939C54.4095 70.1568 52.5641 72.031 53.5661 73.689C53.9553 74.3305 54.6762 74.7198 55.0438 75.2965C54.5969 75.8227 53.0182 76.9112 52.3046 77.3653C51.3963 77.9276 50.3222 78.5403 49.2482 79.0089C47.5397 79.7441 43.8634 81.0273 41.7368 80.9696C41.5206 81.0994 41.4773 81.0921 41.1818 81.0417L41.1313 78.8647C41.1241 77.7978 39.6319 76.9977 38.4642 77.6176C37.2892 78.2376 37.491 79.5711 37.491 81.0345C34.7445 80.8831 31.8611 80.0685 29.6409 79.081C28.0622 78.3817 24.6021 76.4426 23.665 75.2965C24.0398 74.6982 24.7823 74.3233 25.1716 73.6313C25.6185 72.8384 25.3878 71.9229 24.876 71.3966C24.357 70.8632 23.3839 70.6109 22.5765 71.1227C21.9422 71.5264 21.5889 72.2689 20.9834 72.6005C19.9598 71.858 17.9486 68.2609 17.2926 66.8769C16.5862 65.3775 15.2526 61.3984 15.3247 59.5169C15.1661 59.3512 15.1589 58.9979 15.2094 58.724L17.2205 58.7312C18.3883 58.7024 19.2966 57.2823 18.6551 56.0352C17.9847 54.7449 16.8169 55.199 15.2238 55.0188C15.4112 52.3084 16.1825 49.3673 17.1845 47.1831C17.8189 45.7919 19.9526 41.9137 20.9834 41.2144C21.5601 41.6902 23.1892 44.0906 24.8616 42.4255C25.4167 41.8704 25.6401 40.9693 25.15 40.1476C24.7679 39.5132 23.9966 39.1528 23.665 38.5401C23.8308 38.2806 24.4868 37.8048 24.7535 37.6174C25.15 37.3362 25.4311 37.12 25.8564 36.8244C26.6421 36.2982 27.4062 35.8585 28.2929 35.3899C29.1075 34.9574 30.059 34.5249 30.9745 34.1933C32.0558 33.8112 33.0794 33.6743 33.5479 32.8958C34.1751 31.8577 33.7209 30.7188 32.8775 30.2719C31.9044 29.76 30.7438 30.3151 29.8211 30.6539C27.9325 31.3531 26.1592 32.2182 24.6165 33.1985C13.9767 39.9674 8.85142 52.777 12.6647 65.1612C13.9767 69.4287 16.5285 73.5232 19.1236 76.1687L20.0679 77.1202C28.4371 85.1433 41.3332 87.1906 51.8721 81.8779C54.7339 80.429 58.5616 77.6753 60.5584 75.073C61.1278 74.3377 61.6685 73.725 62.2524 72.896C63.8527 70.6469 65.2439 67.8356 66.0657 65.0892C70.4918 50.2179 62.4758 35.6927 48.8301 30.6323C47.929 30.3007 46.7107 29.76 45.7808 30.3007C44.9807 30.762 44.5338 31.9154 45.1897 32.9534C45.6511 33.6887 46.7756 33.8401 47.7992 34.2221C48.7508 34.5826 49.623 34.979 50.4736 35.4188C51.2305 35.808 54.5609 37.7976 55.0438 38.5401C54.705 39.1528 53.8977 39.5348 53.53 40.1908C52.5785 41.9209 54.5969 43.7086 56.1756 42.6706C56.7739 42.2813 57.2064 41.5821 57.7326 41.2144C58.194 41.5604 59.4483 43.3842 59.8375 44.0186C61.8343 47.2624 63.2688 51.0036 63.4778 55.0476C61.8415 55.0476 60.6377 54.8242 60.0249 56.0857C59.4194 57.3183 60.3421 58.7024 61.4955 58.7312Z" fill="#F6F6F6"/>
<path fill-rule="evenodd" clip-rule="evenodd" d="M38.9969 55.1052C40.0421 54.8674 40.9432 55.5594 41.1594 56.446C41.4334 57.5778 40.6837 58.5005 39.8259 58.7095C37.3822 59.3006 36.4883 55.6603 38.9969 55.1052ZM37.4831 51.6668C36.2576 51.9839 35.1908 53.0724 34.6645 53.8726C32.2929 57.5201 34.888 62.5084 39.3573 62.494C43.6824 62.4796 46.4217 57.758 44.0789 53.9302C43.4013 52.8201 42.6444 52.3011 41.2604 51.6451C41.1234 51.0036 41.2099 40.3926 41.2171 38.7923C41.2243 35.9089 38.7734 36.0891 37.9228 37.1055C37.5119 37.5885 37.4903 37.9993 37.4903 38.7923C37.5047 42.93 37.5768 47.6372 37.4831 51.6668Z" fill="#F6F6F6"/>
<path fill-rule="evenodd" clip-rule="evenodd" d="M39.0685 29.0114C36.6897 29.3934 37.1654 32.9689 39.6019 32.6877C40.5462 32.5724 41.3464 31.6785 41.1878 30.5468C41.0581 29.6241 40.1498 28.8384 39.0685 29.0114Z" fill="#F6F6F6"/>
<path fill-rule="evenodd" clip-rule="evenodd" d="M46.8444 18.5513L46.8228 13.0151C47.4211 13.0151 50.6289 13.1233 50.8596 12.8926L46.8084 12.9358C46.6498 13.39 46.7507 16.8645 46.7363 17.8593C46.7363 18.1837 46.693 18.3134 46.8444 18.5513Z" fill="#F6F6F6"/>
<path fill-rule="evenodd" clip-rule="evenodd" d="M31.8527 18.5365C31.9824 18.4284 31.9608 18.5149 31.9608 17.9454C31.9464 16.9362 32.0401 13.3968 31.8959 12.9643L27.8447 12.8994C28.0033 13.1373 31.3337 13.0148 31.8671 13.0148L31.8527 18.5365Z" fill="#F6F6F6"/>
<path fill-rule="evenodd" clip-rule="evenodd" d="M41.7364 80.9701L41.2534 81.0062C41.2534 80.6025 41.4408 79.0382 41.1309 78.8652L41.1813 81.0422C41.4769 81.0927 41.5201 81.0999 41.7364 80.9701Z" fill="#F6F6F6"/>
<path fill-rule="evenodd" clip-rule="evenodd" d="M15.3218 59.5176L15.2425 58.8039C15.8264 58.8039 16.7563 58.9409 17.2177 58.7318L15.2065 58.7246C15.156 58.9985 15.1632 59.3518 15.3218 59.5176Z" fill="#F6F6F6"/>
<path fill-rule="evenodd" clip-rule="evenodd" d="M63.391 59.4667C63.4702 59.3514 63.4775 59.4018 63.5063 59.1495C63.5423 58.8972 63.5351 58.9693 63.4919 58.7459L61.4951 58.7314C61.9565 58.9333 62.8719 58.8035 63.4558 58.8035L63.391 59.4667Z" fill="#F6F6F6"/>
</svg>
