<svg width="90" height="109" viewBox="0 0 90 109" fill="none" xmlns="http://www.w3.org/2000/svg">
<path fill-rule="evenodd" clip-rule="evenodd" d="M77.1347 77.0704C80.4389 78.9853 83.4679 83.6357 84.707 87.4654C85.6708 90.3377 85.6708 92.3893 85.6708 95.5352C85.6708 98.5442 85.6708 101.553 85.6708 104.562L77.1347 104.699V77.0704ZM12.8386 77.0704V104.699H4.30247C4.30247 101.69 4.30247 98.681 4.30247 95.672C4.30247 89.9274 4.85318 86.2344 8.29516 81.584C9.25891 80.0795 11.3241 78.0279 12.8386 77.0704ZM64.1928 104.699H47.1206C47.1206 98.681 47.1206 92.6629 47.1206 86.7815C47.1206 85.8241 46.983 85.6873 48.0844 84.7299L55.5191 76.9337C55.7944 76.7969 55.9321 76.5233 56.2075 76.2498L58.4103 73.9246C58.8234 73.5143 58.8234 73.651 59.6494 73.651H64.1928V86.7815C64.3305 90.0641 68.4609 89.7906 68.5986 86.9183C68.5986 82.815 68.3232 77.4808 68.5986 73.7878C69.8377 73.7878 71.7652 74.4717 72.8666 74.7452V104.699H68.5986C68.4609 103.195 68.5986 101.553 68.5986 100.049C68.5986 98.681 67.7725 97.7236 66.3957 97.7236C65.0189 97.5868 64.3305 98.681 64.1928 100.049C64.1928 101.553 64.3305 103.058 64.1928 104.699ZM21.3747 104.699H17.1066V74.7452C18.208 74.4717 20.1356 73.7878 21.3747 73.7878C21.5123 75.7027 21.3747 82.1311 21.3747 84.5931C21.3747 86.508 21.0993 88.1493 22.6138 88.9699C24.4036 89.7906 25.7804 88.2861 25.7804 86.7815V73.651H30.8745C31.4252 73.651 31.9759 74.4717 32.5267 75.0188C33.0774 75.5659 33.4904 76.113 34.0411 76.5233L41.4758 84.3196C41.7512 84.5931 42.0265 84.8667 42.3019 85.1402C42.5772 85.4138 42.8526 85.5505 42.8526 86.0976V104.699H25.7804C25.6427 103.195 25.7804 101.553 25.7804 100.049C25.7804 96.7662 21.5123 96.9029 21.3747 100.049C21.3747 101.553 21.5123 103.058 21.3747 104.699ZM34.3165 66.6755C34.4542 66.8123 37.2077 68.0432 39.1353 68.5903C43.8163 69.8213 48.7728 69.5478 53.3162 67.7697C53.8669 67.4961 55.2437 66.8123 55.6567 66.6755C55.6567 67.7697 55.6567 68.8639 55.6567 69.9581C55.6567 70.7788 55.6567 70.642 55.2437 71.0523C54.9683 71.3259 54.693 71.5994 54.4176 71.873C54.0046 72.5568 53.4539 72.9672 52.9032 73.5143L48.0844 78.575C47.6714 78.9853 45.3308 81.584 44.9178 81.7208L40.2367 76.7969C39.9613 76.5233 39.686 76.3866 39.4106 76.113L34.7295 71.0523C34.3165 70.642 34.3165 70.7788 34.3165 69.9581C34.3165 68.8639 34.3165 67.7697 34.3165 66.6755ZM64.1928 38.91C64.4682 40.4145 64.1928 43.0133 64.3305 44.6546C64.3305 46.5694 64.1928 48.074 63.7798 49.8521C60.0625 65.3077 40.3744 71.0523 29.9108 57.3747C26.8818 53.6818 25.7804 49.4417 25.7804 44.5178C25.7804 43.0133 25.505 40.4145 25.7804 38.91H64.1928ZM68.4609 47.3901C68.5986 45.0649 68.4609 40.6881 68.5986 38.91C70.9391 38.7732 72.8666 40.9616 72.8666 43.2868C72.7289 45.4752 70.8014 47.6636 68.4609 47.3901ZM21.5123 47.3901C19.1718 47.6636 17.1066 45.4752 17.1066 43.15C17.1066 40.9616 19.1718 38.7732 21.3747 38.91C21.5123 40.6881 21.3747 45.0649 21.5123 47.3901ZM19.0341 30.4299C19.8602 30.2931 48.0844 30.4299 48.9105 30.4299C50.5626 30.4299 70.5261 30.2931 71.2145 30.5667C73.4173 31.1138 73.2796 34.2596 71.0768 34.6699C70.2507 34.8067 41.8888 34.6699 41.0628 34.6699C39.4106 34.6699 19.4472 34.8067 18.6211 34.5332C16.5559 33.9861 16.6936 30.8402 19.0341 30.4299ZM34.3165 10.3238C34.4542 13.0594 34.3165 16.4788 34.3165 19.351C34.3165 20.0349 34.3165 20.582 34.7295 21.1291C35.9686 22.6337 38.4469 21.9498 38.5845 19.8981C38.7222 17.573 38.4469 7.45155 38.5845 6.49412C38.8599 5.39991 39.686 4.3057 40.9251 4.3057H49.0481C50.2873 4.3057 51.1133 5.39991 51.3887 6.63089C51.664 7.86187 51.251 17.7097 51.3887 20.0349C51.664 22.0866 54.1423 22.6337 55.3814 20.9924C55.6567 20.582 55.6567 19.8981 55.6567 19.2143C55.6567 16.342 55.5191 13.0594 55.6567 10.3238C58.548 11.0077 62.403 14.0168 64.1928 16.2052C65.2943 17.573 66.1203 18.8039 66.9464 20.582C67.3595 21.6762 68.4609 24.8221 68.3232 26.1898H21.65C21.5123 24.8221 22.6138 21.6762 23.1645 20.582C23.9906 18.6672 24.679 17.573 25.9181 16.2052C27.5702 14.0168 31.5629 11.0077 34.3165 10.3238ZM74.9318 37.4055C75.6202 36.7216 76.1709 36.0377 76.7216 34.8067C77.1347 33.7125 77.2723 32.3447 76.8593 31.1138C76.3086 28.3782 74.6564 27.5576 72.7289 26.4634C72.3159 21.5395 70.2507 16.6155 67.2218 13.1961C64.7435 10.4606 62.403 8.68253 58.961 7.04122C54.4176 4.85281 56.3451 7.04122 55.106 4.16893C53.0408 -0.618227 49.0481 0.0656524 44.9178 0.0656524C42.3019 0.0656524 39.5483 -0.344675 37.6208 0.886307C36.1063 1.84374 35.1426 3.34827 34.5918 4.98958C34.3165 6.08379 34.5918 5.67346 32.5267 6.35734C30.3238 7.178 28.2586 8.2722 26.4688 9.77674C24.8166 11.0077 24.1282 11.6916 22.7515 13.1961C19.7225 16.4788 17.6573 21.6762 17.2443 26.4634C16.1429 27.0105 15.3168 27.4208 14.6284 28.2415C12.9762 30.0196 12.4255 32.4815 13.2516 34.8067C13.8023 36.1745 14.353 36.7216 15.0414 37.4055C14.9038 37.8158 14.6284 38.0893 14.353 38.3629C12.5632 41.0984 12.4255 44.5178 13.94 47.2533C14.6284 48.6211 15.7298 49.7153 17.1066 50.5359C19.0341 51.6301 19.8602 51.6301 22.3384 51.7669C22.7515 53.9553 24.4036 56.9644 25.3674 58.6057C26.0557 59.5631 26.8818 60.3838 27.5702 61.3412C27.9833 61.8883 29.9108 63.6664 30.0484 63.94V69.411C25.2297 69.411 20.9616 69.0007 16.6936 70.5052L12.8386 72.1465C8.0198 74.6085 3.88943 79.2589 1.82425 84.3196C0.0344197 88.6964 0.0344197 91.7055 0.0344197 96.6294C0.0344197 97.7236 -0.103259 106.751 0.172099 107.435C0.309778 108.255 1.13585 108.802 2.0996 108.939C4.30247 109.076 6.91837 108.939 9.25891 108.939C34.3165 108.939 59.5117 108.939 84.5693 108.939C86.6345 108.939 89.5258 109.486 89.9388 107.161C90.0765 106.477 89.9388 97.7236 89.9388 96.6294C89.9388 91.5687 89.9388 88.4228 88.149 84.1828C86.0838 79.3956 82.6418 75.2924 78.2361 72.6936L76.4463 71.7362C75.2072 70.9155 75.7579 71.3259 74.5188 70.9155C69.7 69.0007 65.2943 69.411 59.9248 69.411V63.94C60.0625 63.6664 61.0262 62.8458 61.1639 62.5722C63.9175 59.9735 66.8087 55.4599 67.6348 51.7669C70.113 51.6301 71.0768 51.6301 73.0043 50.5359C74.2434 49.7153 75.3448 48.6211 76.1709 47.1165C77.2723 44.7913 77.41 41.7823 76.1709 39.3203C75.6202 38.3629 75.0695 37.8158 74.9318 37.4055Z" fill="#F6F6F6"/>
</svg>
