<svg width="67" height="92" viewBox="0 0 67 92" fill="none" xmlns="http://www.w3.org/2000/svg">
<path fill-rule="evenodd" clip-rule="evenodd" d="M10.0391 4.52198C11.1836 4.34126 13.051 4.46174 14.316 4.46174H53.9533C55.2786 4.46174 56.7845 4.34126 57.9893 4.76293C59.2543 5.1846 59.917 5.78699 60.6398 6.50986C62.3868 8.25679 62.1458 10.8471 62.1458 13.7988V75.2426C62.1458 77.4714 62.3868 81.9291 61.7241 83.676C61.0615 85.5434 59.2543 87.2301 56.8448 87.5313C55.5797 87.6518 53.7123 87.5916 52.4473 87.5916H12.8101C9.43667 87.5916 7.99093 87.4711 6.12352 85.4832C4.25612 83.4953 4.67779 80.7846 4.67779 78.134V16.7505C4.67779 14.5819 4.43683 10.064 5.03922 8.31703C5.76209 6.38938 7.56926 4.82317 10.0391 4.52198ZM66.0613 82.8327C66.2421 81.3869 66.1216 79.3991 66.1216 77.9533V14.4012C66.1216 10.8471 66.4228 8.73871 64.977 5.78699C63.953 3.79911 62.0253 2.05218 59.7362 1.14859C57.3267 0.184767 53.5316 0.485962 50.7004 0.485962H11.545C8.77404 0.485962 6.244 0.967874 4.19588 2.83528C2.6899 4.22078 1.12369 6.14843 0.762253 9.16038C0.581536 10.6061 0.641775 12.5338 0.641775 14.0397V77.5919C0.641775 80.905 0.34058 83.6158 1.84655 86.2663C2.93086 88.3144 4.61755 89.9409 7.02711 90.9047C9.55715 91.8685 13.2317 91.5673 16.1232 91.5673H55.2785C58.5917 91.5673 60.7001 90.8445 62.6277 89.1578C64.1337 87.8325 65.6397 85.8446 66.0613 82.8327Z" fill="#F6F6F6"/>
<path fill-rule="evenodd" clip-rule="evenodd" d="M12.2672 13.558C12.3877 13.4375 12.2069 13.4978 12.5684 13.4375H13.5322C18.4116 13.4375 53.7719 13.3773 54.4947 13.4978C54.6754 13.8592 54.6754 23.9794 54.555 24.5215C53.8321 24.642 18.2911 24.5215 13.472 24.5215C13.231 24.5215 13.0503 24.5215 12.8093 24.5215C12.2069 24.5818 12.3274 24.5215 12.2672 24.401V13.558ZM9.73714 9.58224C8.35164 10.0642 8.2914 10.787 8.2914 12.4135V25.4251C8.2914 26.6299 8.23116 27.8949 9.61666 28.3768C10.2793 28.6178 21.303 28.4973 22.5078 28.4973H48.4708C49.8563 28.4973 56.2417 28.678 57.085 28.437C58.4103 28.0154 58.5307 27.1118 58.5307 25.5456V12.5942C58.5307 8.91961 57.2055 9.46176 52.9285 9.46176H18.2308C16.9658 9.46176 10.3998 9.34128 9.73714 9.58224Z" fill="#F6F6F6"/>
<path fill-rule="evenodd" clip-rule="evenodd" d="M12.2673 37.5334H18.4719V42.5332L12.2673 42.473V37.5334ZM9.7975 33.5576C7.74937 34.16 8.29152 36.2683 8.29152 38.8586C8.29152 40.1839 8.05057 44.5813 8.53248 45.4849C8.95415 46.3283 9.67702 46.509 10.8818 46.509C12.689 46.509 20.2791 46.6295 21.002 46.4487C22.9898 45.9066 22.5079 43.3163 22.5079 41.1477C22.5079 39.8224 22.6887 35.3648 22.267 34.5816C21.7851 33.7383 21.1224 33.4973 19.9177 33.4973C18.0502 33.4973 10.5806 33.3769 9.7975 33.5576Z" fill="#F6F6F6"/>
<path fill-rule="evenodd" clip-rule="evenodd" d="M30.2777 55.5451H36.4823V60.5449H36.1811H30.6391H30.2777V55.5451ZM27.8682 51.5693C25.7598 52.1115 26.3019 54.6415 26.3019 56.8101C26.3019 58.1353 26.061 62.593 26.4827 63.4364C26.9043 64.2797 27.6874 64.5207 28.832 64.5207C30.1572 64.5207 38.3497 64.6412 39.0124 64.4604C41.0003 63.9785 40.5183 61.4485 40.5183 59.2799C40.5183 58.0149 40.6991 53.4367 40.2774 52.6536C39.8557 51.8103 39.2533 51.5091 37.9883 51.5091C36.1209 51.5091 28.591 51.3886 27.8682 51.5693Z" fill="#F6F6F6"/>
<path fill-rule="evenodd" clip-rule="evenodd" d="M12.2673 55.5451H18.4719V60.5449H18.1707H12.5685H12.2673V55.5451ZM9.7975 51.5693C7.74937 52.1115 8.29152 54.4608 8.29152 56.8101C8.29152 58.0751 8.11081 62.6533 8.47224 63.4364C8.89391 64.2797 9.55654 64.5207 10.7613 64.5207C12.1468 64.5207 20.3393 64.6412 20.9417 64.4604C22.9898 63.9785 22.5079 61.3883 22.5079 59.2799C22.5079 58.0149 22.6886 53.4367 22.267 52.6536C21.8453 51.8103 21.1827 51.5091 19.9779 51.5091C18.1105 51.5091 10.5806 51.3886 9.7975 51.5693Z" fill="#F6F6F6"/>
<path fill-rule="evenodd" clip-rule="evenodd" d="M30.2792 37.5335H36.4838V42.5333H30.2792V37.5335ZM27.9299 33.5577C25.7613 33.9794 26.3034 36.5697 26.3034 38.7383C26.3034 39.9431 26.1227 44.5212 26.4841 45.3646C26.8456 46.1477 27.5684 46.5091 28.713 46.5091C30.1587 46.5091 38.291 46.6296 38.9536 46.4489C41.0017 46.0272 40.5198 43.4369 40.5198 41.3286C40.5198 40.0635 40.7005 35.4854 40.3391 34.7023C39.9777 33.8589 39.2548 33.4975 38.1102 33.4975C36.7248 33.4975 28.472 33.4372 27.9299 33.5577Z" fill="#F6F6F6"/>
<path fill-rule="evenodd" clip-rule="evenodd" d="M48.3499 73.6171L54.4943 73.5568C54.6148 74.099 54.5545 76.9905 54.5545 78.0145C54.5545 78.6169 54.5545 78.4964 54.434 78.5567H48.2897L48.3499 73.6171ZM44.3139 80.8458C44.6151 83.0746 47.2656 82.5325 49.4342 82.5325C51.7233 82.5325 53.9521 82.5927 56.181 82.5927C58.8917 82.5927 58.5303 80.4241 58.5303 78.0748C58.5303 76.9905 58.5905 71.9304 58.5303 71.328C58.2291 69.0389 55.5183 69.5208 53.3497 69.5208C51.1209 69.5208 48.8318 69.5208 46.603 69.5208C43.8922 69.5811 44.3139 71.7497 44.3139 74.099C44.3139 75.1833 44.2536 80.2434 44.3139 80.8458Z" fill="#F6F6F6"/>
<path fill-rule="evenodd" clip-rule="evenodd" d="M12.2682 73.676C12.3887 73.5555 12.1477 73.5555 12.6296 73.4953L18.4728 73.5555C18.5933 73.9772 18.533 77.0494 18.533 78.0132C18.533 78.6156 18.533 78.4951 18.4126 78.5554H12.2682V73.676ZM8.2924 80.8445C8.41288 81.6878 9.13574 82.4107 10.0393 82.5311C10.6417 82.5914 19.0752 82.5914 20.1595 82.5914C22.8702 82.5914 22.5088 80.4228 22.5088 78.0735C22.5088 76.9289 22.569 71.9893 22.4486 71.3267C22.3883 70.4231 21.6655 69.7002 20.7619 69.5798C19.9185 69.4593 18.3523 69.5195 17.3885 69.5195C7.93096 69.5195 8.2924 68.7967 8.2924 74.0977C8.2924 75.182 8.23216 80.1818 8.2924 80.8445Z" fill="#F6F6F6"/>
<path fill-rule="evenodd" clip-rule="evenodd" d="M30.2789 73.6171C30.3994 73.4966 30.3392 73.5568 30.6404 73.4966C30.7006 73.4966 30.8813 73.5568 31.0018 73.5568C32.327 73.5568 35.6402 73.4364 36.4835 73.5568L36.5438 78.376C36.4835 78.6169 36.5438 78.4362 36.4233 78.5567H30.2789V73.6171ZM26.3031 80.8458C26.4236 81.7493 27.1465 82.412 28.0501 82.5325C28.7127 82.6529 37.0859 82.5325 38.1702 82.5927C40.881 82.5927 40.5196 80.4241 40.5196 78.0748C40.5196 76.9302 40.5798 72.0509 40.5196 71.328C40.2786 69.0389 37.5076 69.5208 35.3992 69.5208C33.1704 69.5208 30.8813 69.5208 28.6525 69.5208C25.8815 69.5208 26.3031 71.6894 26.3031 74.099C26.3031 75.1833 26.2429 80.1831 26.3031 80.8458Z" fill="#F6F6F6"/>
<path fill-rule="evenodd" clip-rule="evenodd" d="M54.4936 37.4731C54.4936 37.5334 54.5538 37.5334 54.5538 37.7141L54.614 37.8346C54.614 38.6177 54.614 42.2922 54.4936 42.5332C53.8912 42.6537 50.2166 42.5332 49.0118 42.5332C48.9516 42.5332 48.4094 42.5934 48.3492 42.5332C48.3492 42.473 48.3492 42.473 48.3492 42.473L48.2889 37.5334L54.4936 37.4731ZM45.8191 33.5576C44.9758 33.7985 44.3734 34.4612 44.3132 35.4852C44.2529 36.5695 44.3132 37.7743 44.3132 38.8586C44.3132 40.1839 44.0722 44.5813 44.5541 45.4247C44.9156 46.2078 45.6987 46.509 46.8432 46.509C48.7106 46.509 56.2405 46.6295 57.0236 46.4487C59.0115 45.9668 58.5296 43.3765 58.5296 41.1477C58.5296 39.8827 58.7103 35.3648 58.2886 34.5816C57.8669 33.7383 57.2043 33.4973 55.9995 33.4973C54.0719 33.4973 46.6625 33.3769 45.8191 33.5576Z" fill="#F6F6F6"/>
<path fill-rule="evenodd" clip-rule="evenodd" d="M48.2889 55.5447C48.5299 55.4242 48.7709 55.4844 49.0118 55.4844C50.2166 55.4844 53.9514 55.4242 54.4936 55.5447C54.6743 55.9663 54.5538 59.0385 54.5538 60.0023C54.614 60.7252 54.5538 60.4843 54.4936 60.5445H48.2889V55.5447ZM45.8191 51.6291C44.9758 51.8701 44.3734 52.4725 44.3132 53.4965C44.2529 54.5808 44.3132 55.7856 44.3132 56.9301C44.3132 58.1952 44.0722 62.5926 44.5541 63.436C44.9758 64.2793 45.6987 64.5203 46.8432 64.5203C48.7106 64.5203 56.2405 64.6407 57.0236 64.46C59.0115 63.9781 58.5296 61.4481 58.5296 59.159C58.5296 57.9542 58.7103 53.376 58.2886 52.5929C57.8669 51.8098 57.2043 51.5086 55.9995 51.5086C54.1321 51.5086 46.542 51.3882 45.8191 51.6291Z" fill="#F6F6F6"/>
<path fill-rule="evenodd" clip-rule="evenodd" d="M12.2686 24.4004C12.3288 24.5209 12.2083 24.5812 12.8107 24.5209C13.0517 24.5209 13.2324 24.5209 13.4733 24.5209C18.2925 24.5209 53.8335 24.6414 54.5563 24.5209C54.6768 23.9788 54.6768 13.8586 54.4961 13.4972C53.7732 13.3767 18.4129 13.4369 13.5336 13.4369H12.5697C12.2083 13.4972 12.389 13.4369 12.2686 13.5574L54.4961 13.4972V24.4607C54.4961 24.4607 13.0517 24.5812 12.2686 24.4004Z" fill="#F6F6F6"/>
<path fill-rule="evenodd" clip-rule="evenodd" d="M48.3506 42.4725C48.3506 42.4725 48.3506 42.4725 48.3506 42.5328C48.4108 42.593 48.953 42.5328 49.0132 42.5328C50.218 42.5328 53.8926 42.6532 54.495 42.5328C54.6154 42.2918 54.6154 38.6172 54.6154 37.8341L54.5552 37.7136C54.5552 37.5329 54.495 37.5329 54.495 37.4727V42.4725H48.3506Z" fill="#F6F6F6"/>
<path fill-rule="evenodd" clip-rule="evenodd" d="M54.4947 60.5439C54.5549 60.4836 54.6151 60.7246 54.5549 60.0017C54.5549 59.0379 54.6754 55.9657 54.4947 55.544C53.9525 55.4236 50.2177 55.4838 49.0129 55.4838C48.772 55.4838 48.531 55.4236 48.29 55.544H54.4947V60.5439Z" fill="#F6F6F6"/>
<path fill-rule="evenodd" clip-rule="evenodd" d="M36.4237 78.5552C36.5441 78.4347 36.4839 78.6154 36.5441 78.3745L36.4839 73.5554C35.6406 73.4349 32.3274 73.5554 31.0022 73.5554C30.8817 73.5554 30.701 73.4951 30.6407 73.4951C30.3395 73.5554 30.3998 73.4951 30.2793 73.6156H36.4839L36.4237 78.5552Z" fill="#F6F6F6"/>
<path fill-rule="evenodd" clip-rule="evenodd" d="M18.4129 78.5552C18.5334 78.495 18.5334 78.6154 18.5334 78.013C18.5334 77.0492 18.5937 73.977 18.4732 73.5554L12.63 73.4951C12.1481 73.5554 12.389 73.5554 12.2686 73.6758C12.9914 73.4951 17.3889 73.6156 18.4129 73.6156V78.5552Z" fill="#F6F6F6"/>
<path fill-rule="evenodd" clip-rule="evenodd" d="M54.4347 78.5565C54.5552 78.4962 54.5552 78.6167 54.5552 78.0143C54.5552 76.9903 54.6154 74.0988 54.495 73.5566L48.3506 73.6169H54.4347V78.5565Z" fill="#F6F6F6"/>
</svg>
