<svg width="101" height="100" viewBox="0 0 101 100" fill="none" xmlns="http://www.w3.org/2000/svg">
<path fill-rule="evenodd" clip-rule="evenodd" d="M67.3011 95.9064H33.0316C33.2512 94.5883 34.4595 93.3801 35.3382 92.9407C36.7661 91.9522 37.7546 91.9522 39.6219 91.9522H60.601C62.4682 91.9522 63.5666 92.062 64.9945 92.8309C65.7634 93.3801 67.0814 94.6981 67.3011 95.9064ZM55.8779 79.1011C55.9878 79.2109 56.0976 79.1011 56.0976 79.6503C55.9878 81.2979 56.0976 87.4488 55.9878 88.1078C55.2189 88.2177 46.8712 88.1078 44.8941 88.1078C44.2351 88.1078 44.4547 88.1078 44.3449 87.998V79.1011H55.8779ZM96.0787 63.5041C96.1885 64.7123 96.1885 69.655 95.9689 70.6436C95.5295 72.6207 94.3213 73.9387 92.7836 74.5977C91.0261 75.4764 88.2802 75.2568 86.1933 75.2568H14.1394C12.0525 75.2568 9.19667 75.4764 7.43925 74.5977C6.01136 73.9387 4.6933 72.6207 4.36378 70.6436C4.14411 69.7649 4.03427 64.3828 4.25394 63.5041H96.0787ZM46.4318 55.7056H54.0107V59.6597H46.322L46.4318 55.7056ZM24.7937 32.4199H28.7479V59.6597H24.7937V32.4199ZM16.9952 32.4199H20.9494V59.6597H16.9952V32.4199ZM46.5417 51.8612C46.7613 47.7972 47.2007 43.5135 47.8597 39.6692C48.6286 39.779 49.1778 39.9987 50.1663 39.9987C51.045 39.9987 51.9237 39.779 52.5828 39.8889C53.0221 41.3168 53.6811 49.8841 53.791 51.8612H46.5417ZM50.4958 18.6901C50.8254 19.1294 51.4844 20.3376 51.8139 20.9967L54.5599 25.6099C54.9992 26.3788 55.4386 27.1476 55.8779 27.9165C57.6353 32.0903 54.45 36.1544 50.4958 36.1544C46.4318 36.1544 43.3564 31.9805 45.1138 27.8066L49.1778 20.8868C49.2876 20.5573 50.2762 18.9098 50.4958 18.6901ZM22.8166 19.2393C23.1461 19.4589 27.4298 28.0263 27.4298 28.4657H18.2034L22.8166 19.2393ZM83.2276 34.2871C83.3375 34.3969 83.3375 34.1773 83.3375 34.9461C83.3375 36.1544 83.4473 39.5593 83.3375 40.1085C82.8981 40.3282 81.5801 40.2184 81.0309 40.2184C80.1522 40.2184 79.3833 41.0971 79.3833 42.0856C79.3833 43.0742 80.1522 43.9529 80.921 43.9529C81.4702 43.9529 82.8981 43.9529 83.3375 44.0627C83.4473 44.7217 83.3375 48.7858 83.3375 49.994L83.2276 51.7514V51.8612C81.5801 51.8612 80.262 51.5317 79.603 52.8498C78.9439 54.1678 79.8226 55.7056 81.0309 55.7056C81.4702 55.5957 82.8981 55.5957 83.3375 55.7056C83.3375 55.9252 83.3375 59.1105 83.3375 59.5499H83.2276V59.6597H71.5848V16.8228H83.2276V20.6672C82.4588 20.6672 81.1407 20.5573 80.4817 20.8868C78.8341 21.6557 79.1636 23.8525 80.5915 24.4017C81.1407 24.7312 82.4588 24.6213 83.2276 24.6213V30.4428C82.4588 30.4428 81.1407 30.3329 80.4817 30.5526C79.0538 31.3215 78.9439 33.4084 80.5915 34.1773C81.1407 34.3969 82.4588 34.2871 83.2276 34.2871ZM96.0787 9.13415C96.0787 9.24399 96.0787 9.02431 96.1885 9.35382C96.1885 9.79318 96.1885 21.436 96.1885 21.7655C96.1885 25.5 96.2984 59.1105 96.0787 59.6597H87.1818C87.072 59.1105 87.1818 28.0263 87.1818 25.8296C87.1818 22.0951 87.1818 18.2507 87.1818 14.5162C87.072 13.8572 86.4129 13.1982 85.8638 12.9785C85.3146 12.7588 83.7768 12.8686 83.1178 12.8686C81.4702 12.8686 69.7175 12.7588 68.9487 12.9785C68.3995 13.1982 67.7404 13.8572 67.7404 14.6261C67.8503 16.3835 67.7404 18.4704 67.7404 20.2278C67.7404 24.7312 67.8503 59.1105 67.7404 59.6597C66.9716 59.7696 61.8092 59.6597 60.2714 59.6597C60.0518 59.6597 58.0747 59.7696 57.9648 59.5499C57.855 55.8154 57.7452 52.1907 57.5255 48.4562C57.3058 46.6988 57.196 44.9414 56.9763 43.184L56.3173 38.1314C56.5369 37.9118 56.6468 37.8019 56.9763 37.5823C57.6353 36.9232 58.1845 36.374 58.6239 35.6052C59.2829 34.5068 59.7223 33.5182 60.0518 32.2002C60.7108 28.905 59.7223 26.8181 58.4042 24.5115C57.196 22.4246 56.0976 20.4475 54.8894 18.3606C54.2303 17.372 53.6811 16.3835 53.132 15.2851C52.4729 14.2965 52.0336 12.9785 50.8254 12.7588C49.2876 12.4293 48.7384 13.8572 48.1892 14.8457C47.64 15.8343 46.981 16.8228 46.4318 17.8114C45.2236 19.8983 44.1252 21.8754 42.917 23.9623C41.5989 26.1591 40.3907 28.1362 40.8301 31.4313C40.9399 32.8592 41.3793 34.0674 42.0383 35.056C42.5875 36.0445 43.4662 37.1429 44.1252 37.6921C44.1252 38.461 43.9055 39.4495 43.7957 40.3282C43.3564 42.9643 43.1367 45.6004 42.917 48.2366C42.5875 52.0809 42.4776 55.8154 42.3678 59.5499C41.8186 59.7696 33.9103 59.6597 32.5922 59.6597C32.4824 50.2136 32.5922 40.7676 32.5922 31.3215C32.5922 29.6739 32.5922 29.7837 31.9332 28.5755L24.7937 14.4064C24.4642 13.5277 24.0248 12.8686 22.8166 12.8686C21.7182 12.8686 21.2789 13.6375 20.8395 14.5162L13.8099 28.6854C13.1508 29.8936 13.1508 29.7837 13.1508 31.4313C13.1508 40.8774 13.2607 50.2136 13.1508 59.6597H4.14411C4.14411 53.2891 4.14411 46.8087 4.14411 40.438V11.7703C4.14411 10.2325 4.03427 8.80463 4.6933 7.48657C5.79168 4.9603 7.87861 3.97175 10.6246 3.97175H82.2391C83.9965 3.97175 90.3671 3.75207 91.5753 4.08159C94.1016 4.63078 96.1885 7.2669 96.0787 9.13415ZM62.3584 88.1078C61.919 88.2177 60.2714 88.2177 59.9419 88.1078L59.8321 79.5405C59.8321 79.2109 59.8321 79.2109 59.9419 79.1011C66.9716 78.9913 74.1111 79.1011 81.0309 79.1011C83.008 79.1011 90.1474 79.2109 91.5753 78.9913C94.6508 78.6618 96.9574 76.7945 98.1656 75.0371C100.143 72.2911 100.033 70.314 100.033 66.3599V13.5277C100.033 9.68334 100.253 7.37674 98.4951 4.52094C97.2869 2.65369 95.0902 0.786442 92.2344 0.237251C90.6966 -0.0922641 88.7195 0.0175741 87.1818 0.0175741H18.4231C16.3362 0.0175741 9.74586 -0.0922641 8.09828 0.237251C5.02281 0.89628 3.04572 2.65369 1.8375 4.52094C-0.0297465 7.2669 0.299768 9.90302 0.299768 13.6375V66.4697C0.299768 70.2042 0.18993 72.6207 2.16702 75.1469C3.59492 76.9043 5.68184 78.6618 8.86715 79.1011C10.4049 79.2109 27.979 79.1011 29.9561 79.1011C32.3725 79.1011 38.5235 78.9913 40.3907 79.1011V88.1078C38.5235 88.1078 37.2054 87.998 35.448 88.5472C33.8004 89.0964 33.0316 89.7554 31.9332 90.5243C30.0659 92.1719 28.3085 95.6867 28.7479 98.1031C29.0774 100.19 31.2742 99.7507 32.5922 99.7507H59.8321C61.4797 99.7507 69.7175 99.9704 70.4864 99.531C71.9143 98.872 71.6946 97.1146 71.2553 95.3572C70.5962 92.8309 68.8388 90.5243 66.5322 89.3161C65.6535 88.8767 63.6764 87.998 62.3584 88.1078Z" fill="#F6F6F6"/>
<path fill-rule="evenodd" clip-rule="evenodd" d="M42.037 67.457C40.7189 67.7865 39.8402 69.2144 40.7189 70.4227C41.5976 71.6309 43.1354 71.3014 44.783 71.3014C46.101 71.3014 53.8995 71.4112 54.5586 71.3014C55.6569 70.9718 56.5357 69.5439 55.6569 68.3357C54.8881 67.1275 53.3503 67.457 51.7028 67.457C50.3847 67.457 42.696 67.3472 42.037 67.457Z" fill="#F6F6F6"/>
<path fill-rule="evenodd" clip-rule="evenodd" d="M61.4813 67.4578C58.8451 68.1169 59.8337 71.8514 62.36 71.3022C63.2387 71.0825 64.0075 70.094 63.7879 68.8857C63.5682 68.007 62.5796 67.2382 61.4813 67.4578Z" fill="#F6F6F6"/>
<path fill-rule="evenodd" clip-rule="evenodd" d="M87.1836 14.5159C87.1836 18.2504 87.1836 22.0947 87.1836 25.8292C87.1836 28.026 87.0737 59.1102 87.1836 59.6594H96.0805C96.3002 59.1102 96.1903 25.4997 96.1903 21.7652C96.1903 21.4357 96.1903 9.79282 96.1903 9.35347C96.0805 9.02395 96.0805 9.24363 96.0805 9.13379C95.9706 11.2207 96.0805 13.4175 96.0805 15.5044V53.3986C96.0805 55.2659 96.1903 57.6823 96.0805 59.5495H87.2934C87.0737 57.902 87.1836 55.5954 87.1836 53.838V15.8339C87.1836 15.6142 87.1836 15.3946 87.1836 15.1749C87.1836 14.7355 87.1836 14.7355 87.1836 14.5159Z" fill="#F6F6F6"/>
<path fill-rule="evenodd" clip-rule="evenodd" d="M57.9648 59.5488C58.0747 59.7685 60.0518 59.6587 60.2714 59.6587C61.8092 59.6587 66.9716 59.7685 67.7404 59.6587C67.8503 59.1095 67.7404 24.7301 67.7404 20.2267C67.7404 18.4693 67.8503 16.3824 67.7404 14.625C67.5208 14.9545 67.6306 19.348 67.6306 20.2267V48.3453C67.6306 52.0798 67.7404 55.9242 67.6306 59.5488H57.9648Z" fill="#F6F6F6"/>
<path fill-rule="evenodd" clip-rule="evenodd" d="M44.3447 87.9975C44.4546 88.1073 44.2349 88.1073 44.8939 88.1073C46.871 88.1073 55.2187 88.2172 55.9876 88.1073C56.0974 87.4483 55.9876 81.2974 56.0974 79.6498C56.0974 79.1006 55.9876 79.2104 55.8777 79.1006C56.0974 79.7596 55.9876 86.7893 55.9876 87.9975H44.3447Z" fill="#F6F6F6"/>
<path fill-rule="evenodd" clip-rule="evenodd" d="M83.2275 51.8615V51.7517L83.3374 49.9942C83.3374 48.786 83.4472 44.722 83.3374 44.063C82.898 43.9531 81.4701 43.9531 80.9209 43.9531C81.0307 44.2826 82.898 44.063 83.2275 44.063V51.8615Z" fill="#F6F6F6"/>
<path fill-rule="evenodd" clip-rule="evenodd" d="M81.0293 40.2184C81.5785 40.2184 82.8965 40.3282 83.3359 40.1085C83.4457 39.5593 83.3359 36.1544 83.3359 34.9461C83.3359 34.1773 83.3359 34.3969 83.2261 34.2871V40.1085C82.8965 40.1085 81.249 39.9987 81.0293 40.2184Z" fill="#F6F6F6"/>
<path fill-rule="evenodd" clip-rule="evenodd" d="M62.3583 88.1073C61.919 87.8877 60.6009 87.9975 59.9419 87.9975C59.9419 86.5696 59.9419 85.0319 59.9419 83.4941C59.9419 82.5056 59.832 79.9793 59.9419 79.1006C59.832 79.2104 59.832 79.2104 59.832 79.5399L59.9419 88.1073C60.2714 88.2172 61.919 88.2172 62.3583 88.1073Z" fill="#F6F6F6"/>
<path fill-rule="evenodd" clip-rule="evenodd" d="M83.2261 59.6606V59.5508H83.3359C83.3359 59.1114 83.3359 55.9261 83.3359 55.7064C82.8965 55.5966 81.4687 55.5966 81.0293 55.7064C81.249 55.8162 82.8965 55.8162 83.2261 55.8162V59.6606Z" fill="#F6F6F6"/>
</svg>
