<svg width="98" height="98" viewBox="0 0 98 98" fill="none" xmlns="http://www.w3.org/2000/svg">
<path fill-rule="evenodd" clip-rule="evenodd" d="M44.9675 5.81797C46.1789 5.57377 49.91 5.72029 51.4122 5.76913C53.3504 5.76913 54.7556 6.9413 54.901 8.74839C55.1433 12.2649 53.835 15.1465 57.4691 16.1233C58.3413 16.3675 59.0682 16.6117 59.8919 16.9047C61.5394 17.4908 62.9931 18.1746 64.4468 18.956C66.0458 19.7375 67.2572 20.812 69.0501 19.3468C71.1821 17.6373 72.2966 14.9511 74.8648 15.293C75.8824 15.4395 76.3669 15.8791 76.9484 16.4652C77.7721 17.3443 81.3094 20.6166 81.6971 21.5446C82.6177 23.7912 81.2125 24.9634 80.1465 26.0379C79.0804 27.1612 77.4814 28.4311 77.2876 29.7498C77.0938 30.9219 77.5783 31.508 77.966 32.2895C78.7897 33.7058 79.4681 35.171 80.098 36.7828C80.6795 38.2968 81.2125 40.8854 81.8424 41.5691C82.3754 42.1552 83.0538 42.5459 84.1683 42.5459C85.2828 42.5459 86.3488 42.5459 87.4633 42.5459C88.5778 42.5459 89.3531 42.5948 90.0799 43.1809C90.6129 43.5716 91.1459 44.2065 91.3398 45.1345C91.582 46.2578 91.4367 50.2627 91.4367 51.6791C91.4367 53.6327 90.2253 55.0979 88.384 55.1956C86.5911 55.2933 83.6353 54.8049 82.327 55.7328C81.6486 56.2213 81.4063 56.8073 81.1156 57.7841C80.3403 60.5681 79.565 62.3263 78.3536 64.866C77.966 65.5498 77.3845 66.2824 77.2876 67.1127C76.9484 69.457 79.5165 70.7269 81.3094 72.8758C82.4724 74.2922 82.1332 76.1481 80.7279 77.5157C79.6135 78.639 78.5474 79.7135 77.4329 80.8368C76.5607 81.7648 75.0586 83.2788 72.975 82.1555C72.1997 81.7159 71.7152 81.1299 71.1821 80.5926C70.6007 80.0554 70.1161 79.5181 69.5346 78.932C69.0016 78.3948 68.5655 77.8575 67.4995 77.711C66.385 77.6133 65.852 78.0529 65.0767 78.4925C62.7024 79.8112 60.8126 80.5926 58.1475 81.4229C57.2269 81.7159 56.4516 81.8136 55.8701 82.3509C55.2402 82.9858 54.901 83.523 54.901 84.744C54.901 85.8185 54.901 86.9419 54.901 88.0652C54.901 89.9211 54.3195 91.5329 52.3328 91.9236C51.6544 92.0701 46.8573 92.0213 45.8397 92.0213C43.9015 92.0213 42.4963 90.8003 42.3509 88.9443C42.1086 85.4278 43.417 82.5951 39.7828 81.6183C37.4084 80.9833 34.9372 80.0065 32.8051 78.8344C31.1576 77.9064 29.8493 76.9784 28.1049 78.5413C25.9729 80.3972 24.713 82.937 22.2418 82.4485C21.2242 82.2532 20.7396 81.7648 20.2066 81.2275C19.0921 80.1042 18.0261 79.0297 16.9116 77.9064C16.4271 77.418 15.7971 76.9296 15.5064 76.0505C15.1672 75.2202 15.2157 74.1945 15.6033 73.4131C15.991 72.7293 16.7178 72.0944 17.1539 71.6548C19.5282 69.2616 20.9819 68.4314 19.2859 65.4521C18.4622 64.1334 17.7354 62.5217 17.1539 60.9588C16.6209 59.4936 16.0394 56.9539 15.4095 56.1724C13.6651 54.0723 9.3525 56.1724 7.17199 54.5607C6.63898 54.17 6.10596 53.4862 5.91214 52.6071C5.76677 51.9233 5.81523 47.1369 5.86368 46.0625C5.86368 44.1577 7.02662 42.6925 8.81949 42.5459C10.6124 42.3994 13.5682 42.9367 14.8765 42.0575C15.5548 41.5691 15.8456 41.0319 16.1363 40.0062C16.8147 37.5154 17.7354 35.1222 18.8983 32.9244C19.2375 32.2895 19.8674 31.4592 19.9643 30.6777C20.1582 29.7498 19.7705 28.773 19.2859 28.2845C18.5591 27.5031 16.524 25.5983 16.0394 24.9634C14.7311 23.254 15.2157 21.5446 16.4271 20.3236C17.5415 19.2002 18.6076 18.1257 19.722 17.0024C20.5943 16.1233 21.9995 14.5116 24.18 15.586C26.0213 16.4163 27.7173 19.7375 29.6555 20.0305C30.8184 20.177 31.3514 19.7375 32.1267 19.2979C34.2588 18.1257 36.6816 17.0513 39.0559 16.3187C39.9766 16.0745 40.7519 15.9768 41.3333 15.3907C41.9148 14.9023 42.3509 14.2185 42.3509 13.144C42.3509 12.0207 42.3509 10.8974 42.3509 9.82288C42.3509 7.91811 42.787 6.30637 44.9675 5.81797ZM36.6816 10.9951C36.4878 11.2393 36.5847 11.1416 35.9063 11.3369C35.664 11.4346 35.3733 11.5323 35.131 11.63L30.5277 13.6324C29.8493 12.7045 28.2503 11.2881 27.2327 10.702C24.2284 8.94375 20.2551 9.18796 17.5415 11.2881C16.6693 11.923 12.1145 16.4652 11.2907 17.5397C10.467 18.7607 9.7886 20.3236 9.64324 22.1307C9.44941 24.0843 9.98243 25.8914 10.7577 27.3077C11.4846 28.6753 12.696 29.7498 13.6166 30.6777C13.5682 30.8731 11.6784 34.7803 11.1454 36.7828C9.01331 36.9781 8.09265 36.6363 6.00905 37.3689C3.34398 38.3457 1.21192 40.69 0.485085 43.4251C0.0489822 45.0856 0.145894 47.0881 0.145894 48.8952C0.145894 53.4374 0.097438 55.2444 2.52023 58.0772C3.24707 58.9075 4.60383 59.8843 6.00905 60.3727C8.04419 61.1541 9.06177 60.7634 11.1454 60.9588C11.5815 62.8147 12.8898 65.3056 13.6166 67.015C13.1805 67.7476 11.7753 68.5779 10.7577 70.4338C9.01331 73.5107 9.25559 77.2715 11.2907 80.153C11.9691 81.081 14.8765 83.9138 15.894 84.9394C17.5415 86.6488 19.1406 87.9187 21.9995 88.1629C23.9377 88.3582 25.7306 87.9187 27.1358 87.0884C28.2987 86.4535 29.8009 85.0371 30.5277 84.158L36.2939 86.5511C36.6331 86.6488 36.5362 86.5511 36.6816 86.7953C36.6816 88.749 36.5847 90.1653 37.2146 91.8747C37.7476 93.2423 38.7652 94.7075 39.5405 95.3424C42.3994 97.8333 44.1438 97.7356 48.6986 97.7356C50.443 97.7356 52.4297 97.8821 54.0288 97.3937C55.4825 97.003 56.9361 96.1727 57.7114 95.3424C58.2444 94.8052 58.5836 94.4633 59.0682 93.7795C60.958 90.9468 60.3765 89.1885 60.6188 86.6488C62.4601 86.1116 66.6758 84.158 66.6758 84.158C67.7902 85.1348 68.5171 86.2093 70.0192 87.0395C71.4729 87.8698 73.1688 88.3582 75.1555 88.2117C79.1289 87.8698 81.1156 85.2324 82.9085 83.4254C84.6529 81.6671 87.3179 79.6158 87.6571 75.6109C87.8025 73.7061 87.3179 71.8013 86.4942 70.4338C85.622 68.9686 84.6529 68.1871 83.6353 67.1127L84.9921 64.0846C85.1374 63.6938 86.0581 61.0076 86.2519 60.9588C86.8334 60.7634 89.983 61.5937 93.1811 59.3959C94.8286 58.2725 96.1853 56.4655 96.7668 54.3653C97.2514 52.7047 97.106 50.7023 97.106 48.8952C97.106 44.5484 97.1545 42.3994 94.7317 39.7132C91.2429 35.9037 86.8818 37.027 86.2519 36.8316C86.0581 36.7828 85.2343 34.2919 84.9921 33.657C84.7498 33.1197 84.5559 32.6802 84.3137 32.1918C84.1199 31.7034 83.7322 31.1173 83.6353 30.6777C84.6529 29.359 85.3312 29.2125 86.4942 27.3077C87.3179 25.9402 87.8025 24.0354 87.6571 22.1307C87.3179 18.1257 84.6529 16.0745 82.9085 14.3162C81.164 12.5579 79.0804 9.87172 75.1555 9.57868C70.746 9.2368 68.5171 11.7765 66.6758 13.5836L63.7199 12.2161C63.4777 12.1672 60.6672 11.1904 60.6188 10.9951C60.3765 10.1648 61.491 5.91565 57.7114 2.39914C55.0948 -0.0428784 52.9143 0.00596196 48.6017 0.00596196C45.1614 0.00596196 42.3509 -0.23824 39.5405 2.39914C36.7785 4.98768 36.6816 7.52738 36.6816 10.9951Z" fill="#F6F6F6"/>
<path fill-rule="evenodd" clip-rule="evenodd" d="M47.7289 33.3643C56.4994 32.8271 63.477 39.7136 64.0101 47.8699C64.5915 56.71 57.7593 63.8407 49.6671 64.378C40.7997 64.9641 33.7736 58.1264 33.2406 49.8724C32.7076 40.8857 39.5399 33.9016 47.7289 33.3643ZM47.4866 27.65C43.1256 27.943 39.1522 29.4571 35.9057 31.948C30.4786 36.0994 27.1352 42.7905 27.5713 49.9701C28.2012 61.3499 37.6985 70.7761 49.861 70.0923C61.0058 69.5062 70.3578 59.7381 69.6794 47.6746C69.0495 36.4413 59.4552 26.9174 47.4866 27.65Z" fill="#F6F6F6"/>
</svg>
