<svg width="32" height="27" viewBox="0 0 32 27" fill="none" xmlns="http://www.w3.org/2000/svg">
<path d="M17.741 9C18.0017 9 18.2113 9.07933 18.37 9.238C18.5287 9.39667 18.608 9.60633 18.608 9.867V17.432C18.608 17.6813 18.5287 17.891 18.37 18.061C18.2113 18.2197 18.0017 18.299 17.741 18.299C17.4917 18.299 17.282 18.2197 17.112 18.061C16.9533 17.891 16.874 17.6813 16.874 17.432V12.009L14.188 15.8C13.916 16.1967 13.61 16.395 13.27 16.395C12.9413 16.395 12.641 16.1967 12.369 15.8L9.734 12.009V17.432C9.734 17.6813 9.65467 17.891 9.496 18.061C9.33733 18.2197 9.12767 18.299 8.867 18.299C8.61767 18.299 8.408 18.2197 8.238 18.061C8.07933 17.891 8 17.6813 8 17.432V9.867C8 9.60633 8.07933 9.39667 8.238 9.238C8.408 9.07933 8.61767 9 8.867 9C9.22967 9 9.53567 9.17567 9.785 9.527L13.304 14.61L16.823 9.527C17.0723 9.17567 17.3783 9 17.741 9Z" fill="#283043"/>
<path fill-rule="evenodd" clip-rule="evenodd" d="M13.5 25C19.8513 25 25 19.8513 25 13.5C25 7.14873 19.8513 2 13.5 2C7.14873 2 2 7.14873 2 13.5C2 19.8513 7.14873 25 13.5 25ZM26.8876 15.25C26.9618 14.6772 27 14.093 27 13.5C27 12.7334 26.9361 11.9817 26.8133 11.25H30.5C30.9142 11.25 31.25 10.9142 31.25 10.5C31.25 10.0858 30.9142 9.75 30.5 9.75H26.5C26.4908 9.75 26.4816 9.75017 26.4725 9.7505C24.8476 4.11882 19.6548 0 13.5 0C6.04416 0 0 6.04416 0 13.5C0 20.9558 6.04416 27 13.5 27C19.8354 27 25.1515 22.636 26.6062 16.75H30.5C30.9142 16.75 31.25 16.4142 31.25 16C31.25 15.5858 30.9142 15.25 30.5 15.25H26.8876Z" fill="#283043"/>
</svg>
