<svg width="31" height="31" viewBox="0 0 31 31" fill="none" xmlns="http://www.w3.org/2000/svg">
<path d="M27.2966 5.35809H25.6168C25.1871 5.35809 24.8356 5.70959 24.8356 6.02209C24.8356 6.45178 25.1871 6.80339 25.6168 6.80339H27.2966C27.9607 6.80339 28.5075 7.35025 28.5075 8.1315V24.5378C28.5075 25.2019 27.9607 25.7487 27.2966 25.7487H2.84341C2.17935 25.7487 1.63249 25.2019 1.63249 24.5378V8.1315C1.63249 7.35025 2.17935 6.80339 2.84341 6.80339H17.3356C17.7653 6.80339 18.1169 6.45178 18.1169 6.02209C18.1169 5.67053 17.7653 5.35809 17.3356 5.35809H2.84341C1.28091 5.35809 0.0700073 6.569 0.0700073 8.1315V24.5378C0.0700073 26.1003 1.28091 27.3112 2.84341 27.3112H27.2966C28.8591 27.3112 30.07 26.1003 30.07 24.5378V8.1315C30.07 6.569 28.8591 5.35809 27.2966 5.35809Z" fill="#283043"/>
<path d="M25.7731 29.7329H19.1325V29.6158C19.1325 29.0689 18.7028 28.6001 18.1169 28.6001H11.0465C10.4997 28.6001 10.0309 29.0298 10.0309 29.6158V29.7329H4.36688C4.13251 29.7329 3.93713 29.9673 3.93713 30.2798C3.93713 30.5141 4.17157 30.7095 4.36688 30.7095H11.0074H18.0778H25.7341C25.9685 30.7095 26.2809 30.4751 26.2809 30.2798C26.32 29.9282 25.9684 29.7329 25.7731 29.7329Z" fill="#283043"/>
<path d="M16.1248 14.6548C16.5545 15.0064 17.2185 14.8892 17.5701 14.4205L25.6561 2.46734C25.8904 1.92046 25.7733 1.37361 25.3045 1.02204C24.8358 0.670482 24.2108 0.78766 23.8592 1.25641L15.8904 13.2095C15.5779 13.6783 15.6951 14.3423 16.1248 14.6548Z" fill="#283043"/>
<path d="M14.3671 15.6705C14.0155 15.7877 13.8201 16.1003 13.7029 16.4518C13.3514 17.2331 13.1561 18.6784 13.1561 19.7722C13.703 18.0925 14.8357 18.2096 15.1482 18.0924C15.8123 17.858 16.1639 17.0768 15.9295 16.4127C15.6952 15.7486 15.0311 15.4361 14.3671 15.6705Z" fill="#283043"/>
</svg>
