<svg width="31" height="21" viewBox="0 0 31 21" fill="none" xmlns="http://www.w3.org/2000/svg">
<rect x="0.75" y="0.75" width="29.5" height="19.5" rx="1.25" stroke="#283043" stroke-width="1.5"/>
<path d="M19.741 6C20.0017 6 20.2113 6.07933 20.37 6.238C20.5287 6.39667 20.608 6.60633 20.608 6.867V14.432C20.608 14.6813 20.5287 14.891 20.37 15.061C20.2113 15.2197 20.0017 15.299 19.741 15.299C19.4917 15.299 19.282 15.2197 19.112 15.061C18.9533 14.891 18.874 14.6813 18.874 14.432V9.009L16.188 12.8C15.916 13.1967 15.61 13.395 15.27 13.395C14.9413 13.395 14.641 13.1967 14.369 12.8L11.734 9.009V14.432C11.734 14.6813 11.6547 14.891 11.496 15.061C11.3373 15.2197 11.1277 15.299 10.867 15.299C10.6177 15.299 10.408 15.2197 10.238 15.061C10.0793 14.891 10 14.6813 10 14.432V6.867C10 6.60633 10.0793 6.39667 10.238 6.238C10.408 6.07933 10.6177 6 10.867 6C11.2297 6 11.5357 6.17567 11.785 6.527L15.304 11.61L18.823 6.527C19.0723 6.17567 19.3783 6 19.741 6Z" fill="#283043"/>
</svg>
