<svg width="30" height="31" viewBox="0 0 30 31" fill="none" xmlns="http://www.w3.org/2000/svg">
<path d="M29.2837 0.0343313C29.1897 0.0341143 29.0966 0.0524433 29.0097 0.0882611C28.9228 0.124079 28.8438 0.176686 28.7773 0.243069C28.7107 0.309453 28.658 0.388309 28.6219 0.475123C28.5859 0.561937 28.5674 0.655004 28.5674 0.748993V4.5583C28.5669 4.87334 28.4416 5.17535 28.2188 5.39811C27.9961 5.62088 27.6941 5.74622 27.379 5.74665H2.62179C2.46538 5.74709 2.31042 5.71668 2.16577 5.65718C2.02112 5.59767 1.88961 5.51023 1.77878 5.39986C1.66795 5.2895 1.57997 5.15836 1.51987 5.01395C1.45976 4.86955 1.42871 4.71472 1.42849 4.5583V0.748993C1.43314 0.652363 1.41812 0.555793 1.38435 0.46514C1.35057 0.374487 1.29874 0.291638 1.232 0.221607C1.16525 0.151577 1.08499 0.0958251 0.996061 0.0577326C0.907135 0.0196401 0.8114 0 0.714658 0C0.617917 0 0.522184 0.0196401 0.433258 0.0577326C0.344332 0.0958251 0.264064 0.151577 0.197321 0.221607C0.130578 0.291638 0.0787497 0.374487 0.0449735 0.46514C0.0111972 0.555793 -0.00382248 0.652363 0.000825264 0.748993V4.5583C0.00125848 4.90206 0.0693953 5.24237 0.201346 5.55979C0.333296 5.87721 0.526476 6.16554 0.769855 6.40831C1.01323 6.65107 1.30205 6.84352 1.6198 6.97467C1.93756 7.10582 2.27803 7.1731 2.62179 7.17267H10.5804V10.434C10.2689 10.5558 10.0013 10.7687 9.81256 11.0449C9.62383 11.321 9.52273 11.6477 9.52246 11.9822V13.5072C9.52307 13.8418 9.62429 14.1686 9.81295 14.4449C10.0016 14.7213 10.269 14.9346 10.5804 15.057V17.5129C10.5804 17.9328 10.739 18.3372 11.0244 18.6452L12.6056 20.3534C12.9063 20.6745 13.3213 20.8642 13.7609 20.8816V21.7415H7.91159C7.21719 21.7424 6.55155 22.0189 6.061 22.5104C5.57045 23.0019 5.29514 23.668 5.29557 24.3624V27.4076C5.29514 28.102 5.57045 28.7681 6.061 29.2596C6.55155 29.7511 7.21719 30.0277 7.91159 30.0286H21.0296C21.7246 30.0281 22.391 29.7518 22.8824 29.2604C23.3739 28.769 23.6502 28.1026 23.6506 27.4076V24.3624C23.6502 23.6675 23.3739 23.0011 22.8824 22.5096C22.391 22.0182 21.7246 21.7419 21.0296 21.7415H15.1869V20.8816C15.6262 20.8632 16.0409 20.6736 16.3423 20.3534L17.9201 18.6452C18.205 18.3369 18.3635 17.9327 18.3641 17.5129V15.057C18.6755 14.9347 18.9428 14.7214 19.1312 14.445C19.3196 14.1685 19.4204 13.8418 19.4204 13.5072V11.9822C19.4208 11.6475 19.3202 11.3206 19.1317 11.044C18.9433 10.7675 18.6757 10.5543 18.3641 10.4324V7.17267H27.384C27.7275 7.1731 28.0677 7.10579 28.3852 6.97458C28.7027 6.84337 28.9912 6.65084 29.2342 6.40801C29.4772 6.16518 29.6699 5.87681 29.8013 5.55942C29.9327 5.24202 30.0002 4.90183 30 4.5583V0.748993C30.0004 0.654881 29.9822 0.561617 29.9463 0.474604C29.9105 0.387592 29.8577 0.308559 29.7911 0.242087C29.7244 0.175616 29.6453 0.123027 29.5582 0.0873646C29.4711 0.0517024 29.3778 0.0336752 29.2837 0.0343313ZM21.0296 23.1741C21.3454 23.1737 21.6484 23.2986 21.8721 23.5214C22.0959 23.7442 22.222 24.0467 22.2229 24.3624V27.4076C22.2227 27.564 22.1917 27.7188 22.1315 27.8632C22.0714 28.0076 21.9835 28.1388 21.8726 28.2491C21.7618 28.3595 21.6303 28.4469 21.4856 28.5065C21.341 28.566 21.186 28.5964 21.0296 28.5959H7.91159C7.59655 28.5955 7.29454 28.4702 7.07178 28.2474C6.84902 28.0246 6.72368 27.7226 6.72324 27.4076V24.3624C6.72281 24.206 6.75321 24.0511 6.81271 23.9064C6.87222 23.7618 6.95966 23.6303 7.07003 23.5194C7.1804 23.4086 7.31154 23.3206 7.45594 23.2605C7.60034 23.2004 7.75518 23.1694 7.91159 23.1691H13.7592V24.7404C13.7546 24.837 13.7696 24.9336 13.8034 25.0243C13.8372 25.1149 13.889 25.1978 13.9557 25.2678C14.0225 25.3378 14.1028 25.3936 14.1917 25.4317C14.2806 25.4698 14.3763 25.4894 14.4731 25.4894C14.5698 25.4894 14.6656 25.4698 14.7545 25.4317C14.8434 25.3936 14.9237 25.3378 14.9904 25.2678C15.0572 25.1978 15.109 25.1149 15.1428 25.0243C15.1765 24.9336 15.1916 24.837 15.1869 24.7404V23.1741H21.0296ZM12.0147 10.3168V7.17267H16.9315V10.3168H12.0147ZM16.8671 17.6763L15.2909 19.378C15.2693 19.4028 15.2427 19.4226 15.2128 19.4363C15.1829 19.45 15.1505 19.4571 15.1176 19.4572H13.8319C13.8003 19.4564 13.7693 19.449 13.7408 19.4353C13.7124 19.4217 13.6872 19.4021 13.6668 19.378L12.0857 17.6747C12.0445 17.6298 12.0226 17.5705 12.0246 17.5096V15.1742H16.9414V17.5129C16.9384 17.5749 16.9118 17.6334 16.8671 17.6763V17.6763ZM17.9894 13.5072C17.9894 13.5707 17.9642 13.6316 17.9193 13.6764C17.8745 13.7213 17.8136 13.7465 17.7501 13.7465H11.1911C11.1279 13.7461 11.0675 13.7207 11.0229 13.6759C10.9784 13.631 10.9534 13.5704 10.9534 13.5072V11.9822C10.9539 11.9193 10.979 11.8591 11.0235 11.8146C11.068 11.7701 11.1282 11.7449 11.1911 11.7445H17.7501C17.8133 11.7445 17.8739 11.7695 17.9188 11.814C17.9636 11.8585 17.989 11.919 17.9894 11.9822V13.5072Z" fill="#283043"/>
<path d="M11.8134 21.4048C11.9442 21.2677 12.0153 21.0843 12.0109 20.8949C12.0066 20.7055 11.9272 20.5256 11.7903 20.3947L8.61805 17.3677C8.48082 17.2364 8.29705 17.1649 8.10715 17.1691C7.91726 17.1733 7.7368 17.2527 7.60548 17.39C7.47416 17.5272 7.40273 17.711 7.40691 17.9009C7.41109 18.0908 7.49053 18.2712 7.62776 18.4025L10.8 21.4295C10.8681 21.4945 10.9484 21.5454 11.0362 21.5793C11.124 21.6132 11.2177 21.6295 11.3118 21.6272C11.4059 21.6249 11.4987 21.6041 11.5847 21.5659C11.6708 21.5278 11.7485 21.473 11.8134 21.4048V21.4048Z" fill="#283043"/>
<path d="M20.3232 17.3677L17.151 20.3947C17.0181 20.527 16.9424 20.7061 16.9401 20.8936C16.9378 21.0811 17.0092 21.2621 17.1388 21.3975C17.2685 21.533 17.4461 21.6123 17.6335 21.6182C17.821 21.6242 18.0033 21.5565 18.1413 21.4295L21.3119 18.4025C21.4491 18.2712 21.5285 18.0908 21.5327 17.9009C21.5369 17.711 21.4655 17.5272 21.3341 17.39C21.2028 17.2527 21.0224 17.1733 20.8325 17.1691C20.6426 17.1649 20.4588 17.2364 20.3216 17.3677H20.3232Z" fill="#283043"/>
</svg>
