<svg width="27" height="18" viewBox="0 0 27 18" fill="none" xmlns="http://www.w3.org/2000/svg">
<path d="M2 17V8H25V17" stroke="#283043" stroke-linejoin="round"/>
<path d="M1 17L26 17" stroke="#283043" stroke-width="1.5" stroke-linecap="round"/>
<path d="M20.6106 0C21.0283 0 21.3643 0.127971 21.6186 0.383912C21.8729 0.639854 22 0.978062 22 1.39854V13.6015C22 14.0037 21.8729 14.3419 21.6186 14.6161C21.3643 14.872 21.0283 15 20.6106 15C20.211 15 19.875 14.872 19.6026 14.6161C19.3483 14.3419 19.2212 14.0037 19.2212 13.6015V4.85375L14.9167 10.9689C14.4808 11.6088 13.9904 11.9287 13.4455 11.9287C12.9188 11.9287 12.4375 11.6088 12.0016 10.9689L7.77885 4.85375V13.6015C7.77885 14.0037 7.65171 14.3419 7.39744 14.6161C7.14316 14.872 6.80716 15 6.38942 15C5.98985 15 5.65385 14.872 5.38141 14.6161C5.12714 14.3419 5 14.0037 5 13.6015V1.39854C5 0.978062 5.12714 0.639854 5.38141 0.383912C5.65385 0.127971 5.98985 0 6.38942 0C6.97062 0 7.461 0.283364 7.86058 0.850092L13.5 9.04936L19.1394 0.850092C19.539 0.283364 20.0294 0 20.6106 0Z" fill="#283043"/>
</svg>
