<svg width="33" height="30" viewBox="0 0 33 30" fill="none" xmlns="http://www.w3.org/2000/svg">
<path d="M3.36606 28.3658C2.78235 28.3658 2.31214 28.2057 1.95542 27.8853C1.63114 27.533 1.46899 27.0685 1.46899 26.4919V3.9559C1.46899 3.37929 1.63114 2.93081 1.95542 2.61047C2.31214 2.2581 2.78235 2.08191 3.36606 2.08191C4.2092 2.08191 4.8902 2.46632 5.40906 3.23514L16.1591 18.6115L26.9091 3.23514C27.428 2.46632 28.109 2.08191 28.9521 2.08191C29.5359 2.08191 29.9899 2.2581 30.3141 2.61047C30.6709 2.93081 30.8492 3.37929 30.8492 3.9559V26.4919C30.8492 27.0685 30.6709 27.533 30.3141 27.8853C29.9899 28.2057 29.5359 28.3658 28.9521 28.3658C28.3684 28.3658 27.9144 28.2057 27.5901 27.8853C27.2659 27.533 27.1037 27.0685 27.1037 26.4919V6.35846L28.3198 6.74286L17.9102 21.5906C17.3914 22.3274 16.7915 22.6958 16.1105 22.6958C15.4295 22.6958 14.8457 22.3274 14.3593 21.5906L3.94977 6.88702L5.21449 6.50261V26.4919C5.21449 27.0685 5.05234 27.533 4.72806 27.8853C4.40377 28.2057 3.94977 28.3658 3.36606 28.3658Z" fill="#283043"/>
</svg>
