<svg width="30" height="29" viewBox="0 0 30 29" fill="none" xmlns="http://www.w3.org/2000/svg">
<path d="M9 28.5V0.5H21V28.5H9Z" stroke="#283043" stroke-linecap="round" stroke-linejoin="round"/>
<path d="M1 27V6H9V27H1Z" stroke="#283043" stroke-linecap="round" stroke-linejoin="round"/>
<path d="M21 27V6H29V27H21Z" stroke="#283043" stroke-linecap="round" stroke-linejoin="round"/>
<path d="M17.5096 3C17.6571 3 17.7756 3.04266 17.8654 3.12797C17.9551 3.21328 18 3.32602 18 3.46618V7.53382C18 7.66789 17.9551 7.78062 17.8654 7.87203C17.7756 7.95734 17.6571 8 17.5096 8C17.3686 8 17.25 7.95734 17.1538 7.87203C17.0641 7.78062 17.0192 7.66789 17.0192 7.53382V4.61792L15.5 6.65631C15.3462 6.86959 15.1731 6.97623 14.9808 6.97623C14.7949 6.97623 14.625 6.86959 14.4712 6.65631L12.9808 4.61792V7.53382C12.9808 7.66789 12.9359 7.78062 12.8462 7.87203C12.7564 7.95734 12.6378 8 12.4904 8C12.3494 8 12.2308 7.95734 12.1346 7.87203C12.0449 7.78062 12 7.66789 12 7.53382V3.46618C12 3.32602 12.0449 3.21328 12.1346 3.12797C12.2308 3.04266 12.3494 3 12.4904 3C12.6955 3 12.8686 3.09445 13.0096 3.28336L15 6.01645L16.9904 3.28336C17.1314 3.09445 17.3045 3 17.5096 3Z" fill="#283043"/>
<path d="M6.67308 8C6.77137 8 6.85043 8.02559 6.91026 8.07678C6.97009 8.12797 7 8.19561 7 8.27971V10.7203C7 10.8007 6.97009 10.8684 6.91026 10.9232C6.85043 10.9744 6.77137 11 6.67308 11C6.57906 11 6.5 10.9744 6.4359 10.9232C6.37607 10.8684 6.34615 10.8007 6.34615 10.7203V8.97075L5.33333 10.1938C5.23077 10.3218 5.11538 10.3857 4.98718 10.3857C4.86325 10.3857 4.75 10.3218 4.64744 10.1938L3.65385 8.97075V10.7203C3.65385 10.8007 3.62393 10.8684 3.5641 10.9232C3.50427 10.9744 3.42521 11 3.32692 11C3.23291 11 3.15385 10.9744 3.08974 10.9232C3.02991 10.8684 3 10.8007 3 10.7203V8.27971C3 8.19561 3.02991 8.12797 3.08974 8.07678C3.15385 8.02559 3.23291 8 3.32692 8C3.46368 8 3.57906 8.05667 3.67308 8.17002L5 9.80987L6.32692 8.17002C6.42094 8.05667 6.53632 8 6.67308 8Z" fill="#283043"/>
<path d="M26.6731 8C26.7714 8 26.8504 8.02559 26.9103 8.07678C26.9701 8.12797 27 8.19561 27 8.27971V10.7203C27 10.8007 26.9701 10.8684 26.9103 10.9232C26.8504 10.9744 26.7714 11 26.6731 11C26.5791 11 26.5 10.9744 26.4359 10.9232C26.3761 10.8684 26.3462 10.8007 26.3462 10.7203V8.97075L25.3333 10.1938C25.2308 10.3218 25.1154 10.3857 24.9872 10.3857C24.8632 10.3857 24.75 10.3218 24.6474 10.1938L23.6538 8.97075V10.7203C23.6538 10.8007 23.6239 10.8684 23.5641 10.9232C23.5043 10.9744 23.4252 11 23.3269 11C23.2329 11 23.1538 10.9744 23.0897 10.9232C23.0299 10.8684 23 10.8007 23 10.7203V8.27971C23 8.19561 23.0299 8.12797 23.0897 8.07678C23.1538 8.02559 23.2329 8 23.3269 8C23.4637 8 23.5791 8.05667 23.6731 8.17002L25 9.80987L26.3269 8.17002C26.4209 8.05667 26.5363 8 26.6731 8Z" fill="#283043"/>
</svg>
