<svg width="32" height="30" viewBox="0 0 32 30" fill="none" xmlns="http://www.w3.org/2000/svg">
<path d="M13 14.25C12.5858 14.25 12.25 14.5858 12.25 15C12.25 15.4142 12.5858 15.75 13 15.75V14.25ZM19 15.75C19.4142 15.75 19.75 15.4142 19.75 15C19.75 14.5858 19.4142 14.25 19 14.25V15.75ZM1 1V0.25C0.585786 0.25 0.25 0.585786 0.25 1L1 1ZM31 1H31.75C31.75 0.585786 31.4142 0.25 31 0.25V1ZM31 29V29.75C31.4142 29.75 31.75 29.4142 31.75 29H31ZM1 29H0.25C0.25 29.4142 0.585786 29.75 1 29.75L1 29ZM13 15.75H19V14.25H13V15.75ZM1 1.75H31V0.25H1V1.75ZM30.25 1V29H31.75V1H30.25ZM31 28.25H1V29.75H31V28.25ZM1.75 29V1H0.25V29H1.75ZM15.25 1V28.5H16.75V1H15.25Z" fill="#283043"/>
</svg>
