<svg width="14" height="30" viewBox="0 0 14 30" fill="none" xmlns="http://www.w3.org/2000/svg">
<path d="M4.5 28V29.5M9 28V29.5M1 1H13V27.5H1V1Z" stroke="#283043" stroke-linecap="round" stroke-linejoin="round"/>
<path d="M9.50962 3.5C9.65705 3.5 9.77564 3.54266 9.86538 3.62797C9.95513 3.71328 10 3.82602 10 3.96618V8.03382C10 8.16789 9.95513 8.28062 9.86538 8.37203C9.77564 8.45734 9.65705 8.5 9.50962 8.5C9.36859 8.5 9.25 8.45734 9.15385 8.37203C9.0641 8.28062 9.01923 8.16789 9.01923 8.03382V5.11792L7.5 7.15631C7.34615 7.36959 7.17308 7.47623 6.98077 7.47623C6.79487 7.47623 6.625 7.36959 6.47115 7.15631L4.98077 5.11792V8.03382C4.98077 8.16789 4.9359 8.28062 4.84615 8.37203C4.75641 8.45734 4.63782 8.5 4.49038 8.5C4.34936 8.5 4.23077 8.45734 4.13462 8.37203C4.04487 8.28062 4 8.16789 4 8.03382V3.96618C4 3.82602 4.04487 3.71328 4.13462 3.62797C4.23077 3.54266 4.34936 3.5 4.49038 3.5C4.69551 3.5 4.86859 3.59445 5.00962 3.78336L7 6.51645L8.99038 3.78336C9.13141 3.59445 9.30449 3.5 9.50962 3.5Z" fill="#283043"/>
</svg>
