<svg width="34" height="31" viewBox="0 0 34 31" fill="none" xmlns="http://www.w3.org/2000/svg">
<path d="M29.0804 29.7867L29.0884 29.7955L29.0968 29.8039C29.5676 30.2747 30.2034 30.4801 30.9338 30.4801C31.6642 30.4801 32.3 30.2747 32.7708 29.8039C33.2679 29.3068 33.5 28.6597 33.5 27.9139V3.06623C33.5 2.30032 33.2762 1.64011 32.7623 1.16786C32.2924 0.703019 31.6598 0.5 30.9338 0.5C29.8584 0.5 28.9759 1.02919 28.3006 1.98252L28.3006 1.9825L28.2972 1.98739L17 18.3453L5.70508 1.99067C5.05936 1.02404 4.17083 0.5 3.06623 0.5C2.33367 0.5 1.69258 0.706093 1.19346 1.15983L1.18466 1.16784L1.17625 1.17625C0.700621 1.65188 0.5 2.30947 0.5 3.06623V27.9139C0.5 28.6465 0.706093 29.2876 1.15983 29.7867L1.17585 29.8043L1.19347 29.8203C1.69258 30.274 2.33367 30.4801 3.06623 30.4801C3.79662 30.4801 4.43244 30.2747 4.90322 29.8039L4.91164 29.7955L4.91964 29.7867C5.37338 29.2876 5.57947 28.6465 5.57947 27.9139V9.84654L14.6283 22.794C15.2229 23.6651 15.9966 24.1755 16.947 24.1755C17.9249 24.1755 18.7189 23.6731 19.3193 22.7932C19.3197 22.7927 19.32 22.7921 19.3204 22.7916L28.4205 9.64699V27.9139C28.4205 28.6465 28.6266 29.2876 29.0804 29.7867Z" fill="#283043" stroke="#283043"/>
</svg>
