<svg width="19" height="19" viewBox="0 0 19 19" fill="none" xmlns="http://www.w3.org/2000/svg">
<path fill-rule="evenodd" clip-rule="evenodd" d="M7.0279 1.64598C10.7269 1.03014 13.7166 3.82933 14.1988 6.94988C14.7829 10.7293 12.0334 13.6761 8.88131 14.1716C5.10033 14.7664 2.15948 12.0197 1.64413 8.89418C1.00037 4.98946 3.84014 2.17703 7.0279 1.64598ZM14.1031 12.9221C14.5849 11.8501 16.1131 10.5883 15.8041 7.13352C15.2204 0.606624 7.05441 -2.43328 2.30986 2.30359C-0.494706 5.10361 -0.940039 10.1209 2.0555 13.2022C2.71625 13.8817 3.18768 14.3486 4.18522 14.9037C6.42432 16.1498 9.59012 16.0878 11.7994 14.816C12.2236 14.572 12.6246 14.2221 12.9456 14.0781L17.1094 18.2294C17.4048 18.5271 18.1148 19.4288 18.7892 18.7567C19.5966 17.9518 17.8907 16.7086 16.8513 15.6701C15.9196 14.7395 14.9934 13.8639 14.1031 12.9226V12.9221Z" fill="#ACACAC"/>
</svg>
