<svg width="60" height="60" viewBox="0 0 60 60" fill="none" xmlns="http://www.w3.org/2000/svg">
<path d="M44.0001 30.0001C44.0001 37.732 37.732 44.0001 30.0001 44.0001C22.2681 44.0001 16.0001 37.732 16.0001 30.0001C16.0001 22.2681 22.2681 16.0001 30.0001 16.0001C37.732 16.0001 44.0001 22.2681 44.0001 30.0001Z" fill="#283043"/>
<path d="M28 51.091C28 49.9864 28.8955 49.091 30 49.091C31.1046 49.091 32 49.9864 32 51.091V58.0001C32 59.1047 31.1046 60.0001 30 60.0001C28.8955 60.0001 28 59.1047 28 58.0001V51.091Z" fill="#283043"/>
<path d="M51.0909 32.0001C49.9863 32.0001 49.0909 31.1047 49.0909 30.0001C49.0909 28.8955 49.9863 28.0001 51.0909 28.0001H58C59.1045 28.0001 60 28.8955 60 30.0001C60 31.1047 59.1045 32.0001 58 32.0001H51.0909Z" fill="#283043"/>
<path d="M2 32.0001C0.895431 32.0001 0 31.1047 0 30.0001C0 28.8955 0.895431 28.0001 2 28.0001H8.90909C10.0137 28.0001 10.9091 28.8955 10.9091 30.0001C10.9091 31.1047 10.0137 32.0001 8.90909 32.0001H2Z" fill="#283043"/>
<path d="M28 2C28 0.895431 28.8955 0 30 0C31.1046 0 32 0.895431 32 2V8.90909C32 10.0137 31.1046 10.9091 30 10.9091C28.8955 10.9091 28 10.0137 28 8.90909V2Z" fill="#283043"/>
<path d="M7.23242 10.0608C6.45137 9.2797 6.45137 8.01337 7.23241 7.23232C8.01346 6.45127 9.27979 6.45127 10.0608 7.23232L14.9463 12.1178C15.7274 12.8988 15.7274 14.1652 14.9463 14.9462C14.1653 15.7273 12.8989 15.7273 12.1179 14.9462L7.23242 10.0608Z" fill="#283043"/>
<path d="M45.4142 48.2428C44.6331 47.4617 44.6331 46.1954 45.4142 45.4143C46.1952 44.6333 47.4615 44.6333 48.2426 45.4143L53.1281 50.2998C53.9091 51.0808 53.9091 52.3472 53.1281 53.1282C52.347 53.9093 51.0807 53.9093 50.2996 53.1282L45.4142 48.2428Z" fill="#283043"/>
<path d="M12.1178 42.8688C12.8988 42.0877 14.1652 42.0877 14.9462 42.8688C15.7273 43.6498 15.7273 44.9161 14.9462 45.6972L10.0607 50.5827C9.27969 51.3637 8.01336 51.3637 7.23231 50.5827C6.45126 49.8016 6.45126 48.5353 7.23231 47.7542L12.1178 42.8688Z" fill="#283043"/>
<path d="M50.6632 7.23242C51.4443 6.45137 52.7106 6.45137 53.4917 7.23241C54.2727 8.01346 54.2727 9.27979 53.4917 10.0608L48.6062 14.9463C47.8251 15.7274 46.5588 15.7274 45.7778 14.9463C44.9967 14.1653 44.9967 12.8989 45.7778 12.1179L50.6632 7.23242Z" fill="#283043"/>
</svg>
