<svg xmlns="http://www.w3.org/2000/svg" width="66" height="65"><path fill="#fbb03b" d="M0 65V29h37v36z"/><path d="M64 55H10V17h54zM50.899 4A5.009 5.009 0 0046 0a1 1 0 100 2c1.654 0 3 1.346 3 3s-1.346 3-3 3a1 1 0 100 2 5.01 5.01 0 004.899-4H64v9H10V6h17a1 1 0 100-2h-1.816A2.995 2.995 0 0128 2c1.654 0 3 1.346 3 3s-1.346 3-3 3a1 1 0 100 2c2.757 0 5-2.243 5-5s-2.243-5-5-5a5.01 5.01 0 00-4.899 4H8v53h58V4z"/><path d="M34 2c1.654 0 3 1.346 3 3s-1.346 3-3 3a1 1 0 100 2c2.757 0 5-2.243 5-5s-2.243-5-5-5a1 1 0 100 2z"/><path d="M40 2c1.654 0 3 1.346 3 3s-1.346 3-3 3a1 1 0 100 2c2.757 0 5-2.243 5-5s-2.243-5-5-5a1 1 0 100 2zM29 24a1 1 0 112 0 1 1 0 01-2 0zm7 0a1 1 0 112 0 1 1 0 01-2 0zm7 0a1 1 0 112 0 1 1 0 01-2 0zm7 0a1 1 0 112 0 1 1 0 01-2 0zm7 0a1 1 0 112 0 1 1 0 01-2 0zm-42 8a1 1 0 112 0 1 1 0 01-2 0zm7 0a1 1 0 112 0 1 1 0 01-2 0zm7 0a1 1 0 112 0 1 1 0 01-2 0zm7 0a1 1 0 112 0 1 1 0 01-2 0zm7 0a1 1 0 112 0 1 1 0 01-2 0zm7 0a1 1 0 112 0 1 1 0 01-2 0zm7 0a1 1 0 112 0 1 1 0 01-2 0zm-42 7a1 1 0 112 0 1 1 0 01-2 0zm7 0a1 1 0 112 0 1 1 0 01-2 0zm7 0a1 1 0 112 0 1 1 0 01-2 0zm7 0a1 1 0 112 0 1 1 0 01-2 0zm7 0a1 1 0 112 0 1 1 0 01-2 0zm7 0a1 1 0 112 0 1 1 0 01-2 0zm7 0a1 1 0 112 0 1 1 0 01-2 0zm-42 8a1 1 0 112 0 1 1 0 01-2 0zm7 0a1 1 0 112 0 1 1 0 01-2 0zm7 0a1 1 0 112 0 1 1 0 01-2 0zm7 0a1 1 0 112 0 1 1 0 01-2 0zm7 0a1 1 0 112 0 1 1 0 01-2 0z"/></svg>