<svg xmlns="http://www.w3.org/2000/svg" width="55" height="71"><path fill="#fbb03b" d="M9 53c0-9 9-18 18-18h1c9 0 18 9 18 18s-9 18-18 18h-1c-9 0-18-9-18-18z"/><path d="M26.386 13.153v6.756a4.418 4.418 0 102.209 0v-6.756c13.802.6 24.595 12.12 24.294 25.933-.3 13.812-11.583 24.853-25.399 24.853-13.815 0-25.098-11.04-25.398-24.853-.3-13.812 10.491-25.333 24.294-25.933zM27.49 24.17c.61 0 1.105-.495 1.105-1.105v-.798a2.21 2.21 0 11-2.21 0v.798c0 .61.495 1.105 1.105 1.105zm0 41.973c14.988-.067 27.185-12.077 27.485-27.061.3-14.985-11.408-27.473-26.38-28.14V.975a1.105 1.105 0 00-2.21 0v9.968C11.414 11.61-.294 24.098.006 39.083c.3 14.984 12.498 26.994 27.485 27.06z"/><path d="M20.2 54.877c.488.366 1.18.268 1.547-.22L35 36.984a1.105 1.105 0 00-1.767-1.326L19.98 53.331a1.104 1.104 0 00.221 1.546zm1.767-17.452a2.209 2.209 0 110 4.418 2.209 2.209 0 010-4.418zm0 6.628a4.418 4.418 0 100-8.836 4.418 4.418 0 000 8.836zm13.255 6.627a2.209 2.209 0 11-4.418 0 2.209 2.209 0 014.418 0zm-6.627 0a4.418 4.418 0 108.837 0 4.418 4.418 0 00-8.837 0z"/></svg>