<svg xmlns="http://www.w3.org/2000/svg" width="83" height="54"><path fill="#fbb03b" d="M26.932 29.841c8.338-3.342 5.064-10.98 12.97-11.931 7.906-.953 18.654-1.82 18.654 8.122C58.556 35.973 28.94 54 19 54h-1C8.059 54 0 45.941 0 36s18.594-2.817 26.932-6.159z"/><path d="M80.602 17.908c1.163 1.44 2.713 5.036 1.753 6.59-.365.592-1.015.852-1.737.694-4.182-.909-5.371-3.096-5.632-4.77l-.059-.382c-.108-.71-.269-1.768-.475-2.049-.21-.022-.667.057-.964.311a.565.565 0 00-.214.53c.022.24.057.514.094.804.215 1.674.509 3.967-1.139 5.095-.666.455-.77 1.224-.928 2.78-.038.38-.077.772-.134 1.193a1.71 1.71 0 00-.006.054c.338-.05.872-.227 1.163-.323.27-.09.525-.173.761-.232 2.162-.54 3.323 1.78 4.017 3.168.17.34.365.642.571.96.861 1.33 1.75 2.705.935 6.533-.507 2.38-1.518 3.144-2.276 3.365-.732.214-1.505-.002-2.07-.575-.686-.696-.936-1.772-.637-2.742.314-1.022.263-1.542.2-1.713-.4.276-1.046.574-2.586.837-2.376.405-3.267-.15-4.357-1.042-.316-.259-.643-.527-1.091-.786a1.544 1.544 0 00-.185-.092c-.332.602-.464 2.799-.536 4.014-.064 1.06-.411 1.85-1.032 2.353-1.04.84-2.46.624-3.834.415-.858-.13-1.745-.266-2.397-.117-2 .457-3.448-.064-4.406-.41a25.378 25.378 0 00-.208-.073c-.152.517-.42 1.271-1.186 1.668-.617.32-1.37.316-2.3-.01-1.153-.406-1.643-.098-2.386.368-.536.336-1.203.755-2.097.755-1.1 0-4.763-.286-5.756-3.96-.213-.787-.57-.852-1.43-.936-.651-.063-2.005-.196-2.15-1.645-.023-.227-.032-.32-.432-.448-.613-.197-1.748-.264-3.059-.325-.44-.02-.689.003-.819.026l-.001.006c-.088.479-.27 1.475-1.792 1.855-2.542.636-4.823-1.777-5.282-3.195-.07-.219-.741-.465-2.24-.197-.186.033-.275.21-.342 1.222-.048.72-.102 1.538-.704 2.05a1.58 1.58 0 01-1.152.365c-.19.18-.456.819-.603 1.172-.376.903-.944 2.267-2.27 2.002-1.064-.213-1.314-1.206-1.48-1.863-.21-.828-.425-1.683-1.657-2.364-2.486-1.374-2.099-3.342-1.92-3.913.292-.938 1.127-1.882 2.098-1.786.62.062 1.992-.1 2.283-.542.11-.167.02-.548-.24-1.021a5.751 5.751 0 01-.668-3.713 1.036 1.036 0 012.047.31c-.129.853.013 1.64.434 2.404.842 1.53.549 2.563.155 3.16-.94 1.425-3.197 1.494-3.96 1.475a.99.99 0 00-.216.649c.025.525.551.924.988 1.165 1.693.936 2.25 2.212 2.528 3.162.393-.941.974-2.256 2.232-2.366.018-.154.03-.34.04-.483.064-.976.184-2.792 2.043-3.123 3.337-.596 4.298.745 4.574 1.597.162.501 1.505 2.151 2.81 1.825.123-.03.194-.06.23-.079.01-.04.02-.096.028-.141.24-1.313 1.096-1.813 2.952-1.726 2.811.13 5.052.235 5.422 2.39.101.013.223.025.324.035.92.09 2.633.257 3.227 2.456.593 2.193 2.826 2.43 3.758 2.43.284 0 .55-.159.997-.439.827-.519 2.079-1.304 4.173-.568.413.145.603.133.654.125.067-.09.148-.374.193-.53.127-.449.426-1.499 1.508-1.499.448 0 .867.151 1.353.326.818.295 1.835.66 3.244.339 1.035-.237 2.169-.064 3.17.088.842.129 1.891.288 2.22.022.146-.118.24-.425.267-.867.188-3.135.368-5.092 1.646-5.78.437-.235 1.168-.392 2.176.19.596.342 1.025.694 1.37.977.759.622 1.073.88 2.695.602 1.446-.247 1.733-.475 1.84-.561.427-.34.815-.426 1.43-.314a2.02 2.02 0 011.41.957c.482.792.493 1.95.034 3.444-.11.353.07.648.168.712.13-.07.534-.496.812-1.8.637-2.991.07-3.867-.648-4.977-.217-.336-.464-.716-.686-1.16-.758-1.517-1.287-2.18-1.662-2.085-.162.04-.381.113-.614.19-1.043.345-2.342.774-3.248.023-.36-.298-.758-.886-.61-1.993.052-.389.09-.764.126-1.127.17-1.678.33-3.263 1.819-4.282.602-.412.393-2.043.254-3.123-.04-.31-.077-.601-.102-.88a2.628 2.628 0 01.929-2.29c.774-.662 1.952-.965 2.866-.737 1.454.363 1.715 2.079 1.967 3.737l.057.374c.22 1.405 1.415 2.398 3.556 2.955-.08-.879-.686-2.722-1.596-3.85a30.244 30.244 0 00-.799-.935c-1.23-1.402-2.503-2.852-1.626-5.004a3.86 3.86 0 00.136-.406 1.035 1.035 0 011.997.543 5.568 5.568 0 01-.216.645c-.363.891.011 1.428 1.265 2.856.276.315.562.64.853 1zm-62.91 6.48c-.47 0-.895-.321-1.007-.799-.17-.725-.523-2.232.356-3.381.603-.789 1.641-1.214 3.087-1.265 2.012-.07 2.462-.748 3.279-1.979.526-.794 1.182-1.781 2.37-2.703.534-.413 2.158-1.67 3.596-.907 1.494.794 1.52 3.136 1.408 4.828-.053.816.105 1.085.176 1.163.186.206.802.228 1.345.246.511.018 1.04.036 1.558.18.505.14.993.092 1.51.04.766-.077 1.709-.172 2.474.55.267-.246.687-.758 1.039-1.186l.29-.353c1.274-1.543 2.752-.644 3.462-.212.718.436 1.053.596 1.472.417 1.125-.483 1.276-.69 1.91-1.567.3-.416.674-.934 1.254-1.626 1.42-1.692 3.752-2.453 5.31-1.732 1.124.52 1.648 1.694 1.402 3.14-.043.25-.039.4-.03.476.377.06 1.37-.245 1.76-.365.383-.117.713-.219 1-.262.49-.073.955.041 1.403.152.97.24 1.264.312 1.678-.872 1.113-3.18 2.703-3.414 4.385-3.661.153-.022.311-.046.475-.072 2.07-.33 2.377-1.41 2.843-3.044.156-.545.317-1.11.56-1.67.559-1.29 1.526-1.91 2.38-2.458.828-.53 1.426-.915 1.694-1.824.457-1.553 1.809-2.597 2.909-2.824.788-.163 1.498.053 1.948.594.608.731.61 1.854.005 3.339-.525 1.288-.602 1.838-.605 2.042l.18.062c.26.086.585.194.907.417.135.093.262.207.38.34a1.035 1.035 0 11-1.547 1.375c-.011-.013-.018-.018-.018-.018-.07-.049-.217-.098-.373-.15-.402-.132-1.076-.356-1.412-1.086-.368-.797-.208-1.852.57-3.763.222-.544.29-.903.3-1.105-.359.116-1.025.57-1.258 1.361-.485 1.65-1.637 2.39-2.563 2.983-.72.462-1.29.827-1.598 1.538-.189.436-.324.911-.468 1.415-.506 1.774-1.136 3.98-4.507 4.52-.173.028-.34.052-.501.076-1.52.223-2.032.299-2.732 2.297-1.036 2.96-3.124 2.446-4.128 2.198-.2-.05-.502-.123-.602-.114-.132.02-.432.112-.698.193-1.16.356-2.748.844-3.767-.051-.588-.517-.793-1.32-.611-2.388.127-.746-.142-.871-.23-.912-.56-.26-1.917.066-2.855 1.184a24.186 24.186 0 00-1.163 1.507c-.777 1.075-1.187 1.578-2.772 2.258-1.44.617-2.597-.086-3.362-.551-.215-.131-.533-.324-.676-.356a.762.762 0 00-.115.118l-.286.347c-1.002 1.221-1.663 2.028-2.64 2.055-.518.011-.99-.207-1.404-.658-.084-.092-.48-.053-.862-.014-.62.062-1.393.14-2.273-.106-.28-.078-.665-.09-1.073-.105-.906-.03-2.035-.07-2.81-.925-.553-.612-.784-1.491-.706-2.688.15-2.281-.255-2.8-.312-2.86-.063-.004-.451.009-1.357.71-.92.714-1.426 1.475-1.914 2.212-.912 1.374-1.856 2.796-4.931 2.904-.775.027-1.313.188-1.516.453-.284.371-.082 1.236.016 1.652a1.035 1.035 0 01-1.01 1.27z"/></svg>