<svg xmlns="http://www.w3.org/2000/svg" width="72" height="61"><path fill="#fbb03b" d="M0 45c0-8 8-16 16-16h31c8 0 16 8 16 16s-8 16-16 16H16C8 61 0 53 0 45z"/><path d="M26.149 54.98h-14.14a1.01 1.01 0 000 2.02h14.14a1.01 1.01 0 000-2.02zm16.159 0h-10.1a1.01 1.01 0 000 2.02h10.1a1.01 1.01 0 000-2.02zM17.75 36.75c.103.034.211.052.32.052h46.456c.108 0 .216-.018.32-.052.275-.092 6.75-2.408 6.75-16.107 0-13.7-6.475-16.015-6.751-16.107a1.01 1.01 0 00-.32-.052H49.378v-1.01c0-1.67-1.36-3.03-3.03-3.03h-10.1c-1.67 0-3.03 1.36-3.03 3.03v28.278a1.01 1.01 0 002.02 0V6.504h9.09a1.01 1.01 0 000-2.02h-9.09v-1.01c0-.556.454-1.01 1.01-1.01h10.1c.556 0 1.01.454 1.01 1.01v2.02c0 .558.452 1.01 1.009 1.01h15.952c.809.397 5.256 3.084 5.256 14.139 0 11.087-4.473 13.758-5.253 14.139H18.277c-.81-.397-5.257-3.084-5.257-14.14 0-11.085 4.473-13.757 5.253-14.138H21.1v25.248a1.01 1.01 0 002.02 0v-1.01h7.07a1.01 1.01 0 000-2.02h-7.07v-4.04h7.07a1.01 1.01 0 000-2.02h-7.07v-4.039h7.07a1.01 1.01 0 000-2.02h-7.07v-4.04h7.07a1.01 1.01 0 000-2.019h-7.07v-4.04h7.07a1.01 1.01 0 000-2.02H18.07a.992.992 0 00-.319.052c-.275.092-6.75 2.407-6.75 16.107s6.475 16.015 6.75 16.107z"/><path d="M56.447 10.544a1.01 1.01 0 000-2.02h-2.02a1.01 1.01 0 000 2.02zm6.603 0a7.961 7.961 0 011.496 3.23 1.01 1.01 0 101.98-.402c-.558-2.754-2.218-4.473-2.289-4.545a1.008 1.008 0 00-.721-.303h-3.03a1.01 1.01 0 000 2.02h2.563zm7.535 44.436H54.427a1.01 1.01 0 000 2.02h16.158a1.01 1.01 0 000-2.02zm-5.049-9.09a5.055 5.055 0 01-5.05 5.05 5.055 5.055 0 01-5.05-5.05 5.055 5.055 0 015.05-5.049 5.055 5.055 0 015.05 5.05zm-38.377 0a5.055 5.055 0 01-5.05 5.05 5.055 5.055 0 01-5.05-5.05 5.055 5.055 0 015.05-5.049 5.055 5.055 0 015.05 5.05zm43.426-7.069H12.01a1.01 1.01 0 000 2.02h5.16a7.046 7.046 0 00-2.13 5.05 7.077 7.077 0 007.07 7.07 7.077 7.077 0 007.068-7.07 7.046 7.046 0 00-2.13-5.05h6.17v5.05c0 .557.453 1.01 1.01 1.01h14.14a1.01 1.01 0 001.009-1.01v-2.02a1.01 1.01 0 00-2.02 0v1.01H35.238v-4.04h20.31a7.046 7.046 0 00-2.131 5.05 7.077 7.077 0 007.07 7.07 7.077 7.077 0 007.069-7.07 7.046 7.046 0 00-2.131-5.05h5.16a1.01 1.01 0 000-2.02z"/><path d="M60.486 46.9c-.556 0-1.01-.453-1.01-1.01a1.011 1.011 0 111.01 1.011zm0-4.039c-1.67 0-3.03 1.36-3.03 3.03 0 1.67 1.36 3.03 3.03 3.03 1.67 0 3.03-1.36 3.03-3.03 0-1.67-1.36-3.03-3.03-3.03zM50.387 54.98h-2.02a1.01 1.01 0 000 2.02h2.02a1.01 1.01 0 000-2.02zM22.11 46.9c-.557 0-1.01-.453-1.01-1.01a1.01 1.01 0 012.02.001c0 .556-.454 1.01-1.01 1.01zm0-4.039a3.034 3.034 0 00-3.03 3.03c0 1.67 1.359 3.03 3.03 3.03 1.67 0 3.029-1.36 3.029-3.03 0-1.67-1.36-3.03-3.03-3.03z"/></svg>