<svg xmlns="http://www.w3.org/2000/svg" width="61" height="61"><defs><linearGradient id="a" x2="61.09" y1="30.57" y2="30.57" gradientUnits="userSpaceOnUse"><stop offset="0" stop-color="#e05707"/><stop offset="1" stop-color="#d89f00"/></linearGradient><linearGradient id="b" x1="16.67" x2="18.85" y1="28.59" y2="28.59" gradientUnits="userSpaceOnUse"><stop offset="0" stop-color="#e05707"/><stop offset="1" stop-color="#d89f00"/></linearGradient><linearGradient id="c" x1="47.24" x2="49.36" y1="42.41" y2="42.41" gradientUnits="userSpaceOnUse"><stop offset="0" stop-color="#e05707"/><stop offset="1" stop-color="#d89f00"/></linearGradient><linearGradient id="d" x1="43.31" x2="45.38" y1="42.39" y2="42.39" gradientUnits="userSpaceOnUse"><stop offset="0" stop-color="#e05707"/><stop offset="1" stop-color="#d89f00"/></linearGradient><linearGradient id="e" x1="34.35" x2="36.54" y1="30.58" y2="30.58" gradientUnits="userSpaceOnUse"><stop offset="0" stop-color="#e05707"/><stop offset="1" stop-color="#d89f00"/></linearGradient><linearGradient id="f" x1="30.5" x2="32.59" y1="30.57" y2="30.57" gradientUnits="userSpaceOnUse"><stop offset="0" stop-color="#e05707"/><stop offset="1" stop-color="#d89f00"/></linearGradient></defs><path fill="url(#a)" d="M10.01 55.223c.78.328 1.365.64 1.99.823 1.238.363 2.49.683 3.748.965.826.185 1.283 1.024.828 1.753-.11.177-.468.275-.715.28-1.244.028-2.488.015-3.73.015-.509 0-1.017-.003-1.524-.008-.309-.003-.586-.099-.591-.452-.018-1.083-.006-2.166-.006-3.376zm-1.995-1.428c-.08.544-.18.935-.189 1.327-.023 1.041.002 2.083-.012 3.124-.01.704-.103.796-.796.808-.762.013-1.524-.004-2.286.002-.427.004-.677-.158-.676-.619.008-2.895.013-5.79.022-8.686 0-.043.04-.087.117-.246 1.061 1.715 2.397 3.111 3.82 4.29zM45.73 20.64c-1.473 0-2.948.007-4.42-.004-.714-.005-.799-.093-.812-.786a58.675 58.675 0 010-2.135c.012-.709.093-.795.794-.801 1.296-.013 2.592-.005 3.887-.005 1.703 0 3.405-.006 5.108.004.717.004.794.083.808.783.014.686.012 1.372.003 2.058-.01.804-.078.879-.87.884-1.5.008-2.999.002-4.498.002zM31.42 49.574zm0 0c.017.259.038.433.04.607.002 2.64.006 5.28 0 7.92-.002.877-.081.954-.963.955-3.553.005-7.107.004-10.66.001-.873 0-.95-.061-.995-.683-.074-1.042.033-1.25.871-1.338 2.696-.286 5.084-1.33 7.285-2.869 1.602-1.12 2.897-2.533 3.993-4.14.071-.104.136-.214.213-.314.028-.036.08-.054.216-.14zm21.884-32.25c0-2.41-.003-4.82.001-7.231.002-.935.054-.981 1-.99a95.158 95.158 0 011.752 0c.926.01.968.052.972 1.013.004 1.218.001 2.436.002 3.654l.004 10.429c0 .228-.01.457-.004.685.014.455-.219.638-.655.635-.761-.006-1.522.01-2.284-.002-.693-.013-.785-.1-.789-.808-.01-1.954-.003-3.908-.002-5.862v-1.523h.003zM46.426 9.33c0-1.421.04-2.844-.01-4.264-.054-1.548 1.076-2.806 2.785-2.917a15.861 15.861 0 012.055 0c1.59.104 2.672 1.228 2.742 2.809.019.43.005.863.01 1.294.006.439-.194.657-.644.648a34.679 34.679 0 00-1.372.005c-.789.017-.884.097-.888.88-.012 1.954-.004 3.909-.005 5.863 0 1.175-.002 1.175-1.18 1.176-.888.001-1.777.008-2.665-.002-.741-.009-.822-.086-.827-.846-.01-1.549-.003-3.097-.003-4.646h.002zM7.891 12.901c.507.023.909.049 1.31.056.372.007.569.176.573.553.002.127.007.255.007.381 0 .859-.052.91-.89.934-.3.009-.598.037-.996.063-.033.414-.09.782-.09 1.15-.004 4.014-.018 8.028.016 12.041.007.785-.276 1.3-.828 1.84-.846.83-1.564 1.793-2.329 2.705-.16.19-.29.407-.518.728-.037-.317-.079-.505-.079-.691 0-4.954 0-9.907.005-14.86.001-.828.052-.869.852-.892.203-.006.406-.008.608-.021.294-.018.485-.169.495-.472.013-.473.003-.947.003-1.482-.374-.045-.64-.1-.909-.105-.762-.013-1.524.004-2.286-.01-.637-.01-.706-.087-.736-.69-.055-1.117-.004-1.172 1.096-1.174.885-.002 1.77 0 2.678 0 .26-.7.22-1.31.055-2.026-.372-.024-.74-.053-1.11-.07-.657-.032-.726-.094-.742-.767-.01-.456.009-.914-.002-1.371-.01-.44.178-.664.63-.66.813.004 1.627-.016 2.439.005.546.015.638.119.648.708.018 1.016.001 2.032.013 3.048.003.323.05.645.087 1.079zm22.625 12.621c-2.234 0-4.468.002-6.702-.002-.954-.001-.978-.032-1.008-.98-.027-.9-.095-.97-1.034-.98-.685-.007-1.37.006-2.056-.005-.779-.014-.844-.09-.857-.9-.005-.28-.005-.56.001-.838.038-1.72 1.217-2.914 2.95-2.92 3.986-.017 7.971-.007 11.957-.007 1.244 0 2.489-.008 3.732.005.717.006.796.11.794.875-.002.753-.082.84-.808.87-1.125.047-1.177.103-1.15 1.245.018.85.096.927.984.954.944.029.976.052.975 1.011 0 1.856.152 1.665-1.685 1.67-2.031.007-4.062.002-6.093.002zm26.537 17.87v14.244c0 .23.006.458-.005.686-.03.615-.114.715-.717.729a47.61 47.61 0 01-2.36-.002c-.552-.015-.643-.127-.68-.69-.012-.176-.007-.355-.007-.532l.014-28.87c0-1.238.003-1.238 1.207-1.241.558-.001 1.117-.007 1.675.003.769.013.835.08.856.82.005.228.002.456.002.685v14.168h.015zm-16.56-13.344c0-2.082-.003-4.165.002-6.247.002-.897.062-.958.95-.96 2.894-.004 5.79-.004 8.685 0 .91.001.96.055.971.937.006.356.014.712-.006 1.067-.03.552-.123.634-.695.673-.05.003-.101.002-.152.003-1.056.039-1.113.097-1.107 1.139.006.966.064 1.025 1.037 1.056.864.027.921.072.924.91.007 2.642.01 5.284.002 7.925-.002.763-.083.849-.824.85-2.997.008-5.994.008-8.99 0-.702-.002-.794-.095-.797-.8-.01-2.184-.004-4.369-.004-6.553zm-13.745-2.332h10.367c.127 0 .254-.003.381.002.7.027.792.103.797.807.012 1.855.007 3.71.008 5.565 0 .864.011 1.728-.007 2.592-.013.61-.109.685-.723.721-1.232.073-1.319.17-1.227 1.394.047.623.156.732.787.782 1.17.093 1.172.093 1.172 1.296l.009 16.924c0 .178.005.356-.006.534-.035.604-.122.708-.73.718a103.57 103.57 0 01-3.202 0c-.64-.009-.741-.114-.75-.774-.016-1.092-.007-2.184-.006-3.277.001-2.872.005-5.743.002-8.614 0-.472-.011-.897.611-1.057.16-.041.296-.496.302-.764.034-1.244.018-2.49.019-3.735 0-.864.01-1.728-.005-2.592-.013-.71-.078-.799-.787-.82-.516-.013-.77-.224-.927-.707-1.079-3.312-3.01-6.022-5.81-8.101-.345-.256-.701-.496-1.052-.743l.026-.151zm13.74 13.007c0-1.095.037-1.134 1.095-1.136 2.82-.003 5.64-.002 8.46 0 .202 0 .431-.038.6.042a.902.902 0 01.429.445c.077.2.037.45.037.678l.01 17.15c0 .152.004.305-.006.457-.039.563-.13.663-.68.692-.381.019-.762.008-1.144.008-2.591 0-5.182.002-7.774-.002-.985 0-1.035-.05-1.036-1.033-.004-2.921-.001-5.843-.001-8.764h.008c0-2.846-.002-5.691.001-8.537zm-9.73 4.756c-.084.312-.117.535-.201.735-1.996 4.75-5.44 7.743-10.568 8.682-.075.014-.15.025-.226.032-.751.073-.913-.055-.917-.81-.01-1.907 0-3.812-.002-5.718-.001-1.157-.1-1.248-1.269-1.2-.753.031-.889.145-.895.906-.014 1.778-.005 3.557-.006 5.336 0 .228.005.457-.003.685-.028.737-.2.915-.94.788-.8-.137-1.612-.282-2.37-.557-4.056-1.464-6.88-4.208-8.412-8.253-.068-.18-.092-.377-.168-.7H26.54c.291-.723.254-1.328.04-2.002-.405-.02-.78-.055-1.155-.055-7.012-.003-14.024-.002-21.037-.002-1.254 0-1.254-.002-1.255-1.266 0-.584-.012-1.169.008-1.752.02-.603.126-.715.724-.732.76-.023 1.523 0 2.286-.016.796-.018.906-.141.928-.951a5.211 5.211 0 00-.002-.381c-.031-.727-.123-.82-.863-.838-.447-.011-.894-.002-1.416-.002.264-1.27.79-2.282 1.398-3.24 1.752-2.756 4.176-4.67 7.281-5.72 1.634-.551 1.403-.357 1.428-1.931.01-.675.09-.768.738-.775 1.397-.014 2.794-.014 4.192 0 .66.005.76.104.772.748.03 1.63-.205 1.354 1.646 2.026 3.955 1.436 6.692 4.123 8.27 8.007.093.226.145.47.248.812-.438.028-.78.068-1.122.068-6.48.004-12.958.002-19.437.004-1.272.001-1.384-.169-1.344 1.498.011.442.213.657.646.668.28.007.559.012.838.012l20.885.001c1.25 0 1.25.003 1.252 1.276.001.584.01 1.169-.004 1.753-.016.625-.095.711-.707.724-.813.018-1.626-.004-2.44.014-.706.014-.779.1-.808.797-.05 1.2.003 1.253 1.188 1.267.318.004.636.037 1.041.062zM.079 10.914c-.03.4-.07.698-.073.996a273.642 273.642 0 000 3.582c.008 1.278-.162 1.49 1.337 1.42.025 0 .05.003.076.003.375-.002.563.182.562.56 0 .202.005.405.005.608l.008 18.14c0 .177-.01.355-.003.533.016.391-.14.627-.553.67-.116.013-.226.09-.384.156-.03.306-.083.604-.084.902-.006 1.956-.003 3.912 0 5.869 0 .202-.01.415.047.604.047.151.181.383.29.392.766.055.692.597.692 1.108.002 3.863.006 7.724.006 11.586 0 .97-.026.99-.968 1.016-.946.026-1.006.085-1.01.993-.005.965.07 1.043 1.024 1.056.152.002.304 0 .457 0h58.076c.254 0 .509.008.762-.007.6-.036.704-.128.724-.733.043-1.326-.07-1.315-1.144-1.315-.749-.001-.808-.083-.827-.846-.004-.153-.001-.305-.001-.458l.015-28.81c0-.177-.006-.356.004-.533.032-.567.112-.645.677-.686l1.234-.092c.026-.45.064-.8.063-1.148-.002-.872-.066-.93-.965-.957-1.006-.032-1.006-.032-1.011-1.045v-.382c.001-5.31.004-10.619.002-15.929 0-.372-.038-.743-.06-1.165-.323-.039-.567-.085-.814-.094-.38-.016-.761-.002-1.142-.008-.847-.01-.886-.052-.898-.925-.004-.305.001-.61-.004-.915-.05-3.082-2.531-5.164-5.102-5.034-.734.038-1.473-.004-2.21.017-.968.029-1.836.361-2.605.948-1.387 1.059-2.07 2.457-2.062 4.208.013 2.896.007 5.792.003 8.689 0 .901-.035.932-.956.935-1.295.004-2.59-.002-3.886.004-.3.001-.599.035-.993.061-.036.417-.088.785-.095 1.154-.009.447-.219.651-.656.647-.255-.001-.509.006-.763.006-4.649 0-9.298-.004-13.947.006a16.71 16.71 0 00-1.974.122c-2.137.26-3.894 2.02-4.162 4.157a21.168 21.168 0 00-.124 1.67c-.035.817-.102.894-.95.906-.634.008-1.27-.01-1.905.009-.295.009-.589.076-1 .132 0 .705.026 1.36-.012 2.012-.015.253-.101.632-.275.721-.776.402-1.595.72-2.478 1.103-.02-.357-.045-.605-.046-.853-.002-2.922-.002-5.844.003-8.765.002-.966.025-.983.973-1.007.916-.023.98-.079.986-1.022.008-1.346.01-2.693-.003-4.04-.003-.293-.077-.586-.126-.926-.387-.023-.711-.048-1.036-.061-.712-.028-.78-.082-.788-.801-.012-1.067.001-2.135-.006-3.202-.007-.882-.092-.98-.95-.983-2.031-.01-4.064-.008-6.097.002-.291.002-.583.082-.917.132-.022.367-.052.666-.054.966-.007 1.067.007 2.134-.008 3.201-.008.579-.096.65-.666.682-.376.02-.752.036-1.233.058z"/><path fill="url(#b)" d="M18.854 28.59c0 1.006-.08 1.087-1.065 1.087-1.011.002-1.123-.112-1.121-1.134.002-.957.095-1.042 1.12-1.038.996.005 1.066.076 1.066 1.085z"/><path fill="url(#c)" d="M48.28 43.415c-.202 0-.41.034-.602-.01-.152-.037-.393-.16-.402-.26a9.867 9.867 0 01-.008-1.486c.006-.095.207-.245.325-.253.45-.027.902-.007 1.354 0 .047.001.107.02.14.052.44.443.222.994.217 1.5-.003.395-.32.464-.647.469-.126.002-.251 0-.377 0z"/><path fill="url(#d)" d="M45.384 42.454c-.007.922-.081.987-1.091.979-.922-.008-.986-.08-.978-1.092.007-.922.078-.986 1.091-.977.923.007.986.078.978 1.09z"/><path fill="url(#e)" d="M36.538 30.565c.002 1.067-.053 1.124-1.09 1.126-1.02 0-1.097-.08-1.094-1.128.003-1.008.078-1.085 1.059-1.088 1.063-.003 1.123.055 1.125 1.09z"/><path fill="url(#f)" d="M32.59 30.615c-.01.203.001.409-.034.607-.103.596-.593.463-.97.457-.394-.007-.944.183-1.046-.446-.069-.42-.018-.86-.013-1.291.001-.073.02-.167.067-.214.446-.444 1.002-.22 1.513-.22.401 0 .466.321.47.65.002.152 0 .304 0 .456z"/></svg>