<svg xmlns="http://www.w3.org/2000/svg" width="62" height="62"><defs><linearGradient id="a" x2="61.18" y1="23.79" y2="23.79" gradientUnits="userSpaceOnUse"><stop offset="0" stop-color="#e05707"/><stop offset="1" stop-color="#d89f00"/></linearGradient><linearGradient id="b" x1=".07" x2="57.29" y1="55.18" y2="55.18" gradientUnits="userSpaceOnUse"><stop offset="0" stop-color="#e05707"/><stop offset="1" stop-color="#d89f00"/></linearGradient><linearGradient id="c" x1="59.07" x2="61.13" y1="60.62" y2="60.62" gradientUnits="userSpaceOnUse"><stop offset="0" stop-color="#e05707"/><stop offset="1" stop-color="#d89f00"/></linearGradient><linearGradient id="d" x1="36.37" x2="38.57" y1="13.42" y2="13.42" gradientUnits="userSpaceOnUse"><stop offset="0" stop-color="#e05707"/><stop offset="1" stop-color="#d89f00"/></linearGradient><linearGradient id="e" x1="40.32" x2="42.52" y1="13.42" y2="13.42" gradientUnits="userSpaceOnUse"><stop offset="0" stop-color="#e05707"/><stop offset="1" stop-color="#d89f00"/></linearGradient><linearGradient id="f" x1="44.27" x2="46.48" y1="13.42" y2="13.42" gradientUnits="userSpaceOnUse"><stop offset="0" stop-color="#e05707"/><stop offset="1" stop-color="#d89f00"/></linearGradient><linearGradient id="g" x1="28.56" x2="30.65" y1="13.38" y2="13.38" gradientUnits="userSpaceOnUse"><stop offset="0" stop-color="#e05707"/><stop offset="1" stop-color="#d89f00"/></linearGradient><linearGradient id="h" x1="32.52" x2="34.58" y1="13.41" y2="13.41" gradientUnits="userSpaceOnUse"><stop offset="0" stop-color="#e05707"/><stop offset="1" stop-color="#d89f00"/></linearGradient></defs><path fill="url(#a)" d="M34.191 4.366c.11-.855 1.097-1.597 2.16-1.672 1.082-.076 2.257.69 2.514 1.672zM21.225 28.272c.56 0 1.118.005 1.677-.001.44-.005.66.199.657.643-.002.813-.002 1.626.001 2.439.002.436-.203.66-.647.66a807.96 807.96 0 00-3.353.002c-.44.001-.652-.203-.648-.65.008-.813.009-1.626 0-2.44-.005-.44.186-.66.637-.654.558.007 1.118.001 1.676.001zm.056-5.934c.532 0 1.065.007 1.597-.002.425-.007.68.154.679.613-.003.837 0 1.673-.003 2.51 0 .411-.225.592-.623.591-1.14-.002-2.281-.002-3.422 0-.414 0-.595-.21-.593-.615.005-.836.005-1.673.001-2.509-.002-.419.213-.592.615-.588.583.006 1.166.002 1.749.002zm-.119-2.102c-.558 0-1.115-.002-1.673 0-.372.002-.568-.172-.568-.55V17.1c0-.37.183-.572.555-.573 1.166-.005 2.332-.005 3.498 0 .365 0 .572.191.575.56.007.862.006 1.724.003 2.586-.001.424-.25.57-.641.566-.583-.006-1.166-.001-1.749-.001v-.002zm-1.673-5.941c-.37 0-.567-.174-.567-.552V11.16c0-.372.184-.564.558-.565h3.494c.421 0 .58.241.58.632 0 .81-.001 1.62.003 2.43.002.442-.204.65-.649.642-.583-.01-1.165-.002-1.748-.002v-.003h-1.67zm16.948-5.931c-1.65 0-3.3.01-4.95-.011-.251-.003-.687-.11-.716-.241-.09-.402-.045-.84-.002-1.26.008-.08.236-.17.374-.194.197-.036.405-.022.607-.022h9.444c.177 0 .355.006.533.006.38 0 .555.196.552.568-.001.102.004.204.003.305-.002.756-.071.841-.819.846-1.675.01-3.35.003-5.026.003zm-5.833 36.442H3.778c-.228 0-.457.002-.685 0-.887-.012-.97-.095-.951-.952.015-.697.1-.788.791-.815.228-.01.457-.004.686-.004h54.413c.951.01 1.319.523.978 1.414-.056.148-.274.291-.44.327-.269.058-.556.03-.836.03h-27.13zm-13.97-34.112c.024.407.065.776.065 1.146.005 8.433.006 16.867.009 25.3v.61c.004 1.28.506 1.647 1.753 1.302.385-.106.436-.384.438-.701.007-.915.006-1.83.008-2.744.001-.254.008-.508.005-.762-.005-.398.165-.626.584-.626 1.143 0 2.286-.017 3.43.006.523.01.623.137.633.732.02 1.016 0 2.033.015 3.048.006.365-.122.887.34.988.5.11 1.049.024 1.57-.03.097-.01.216-.271.24-.429.042-.299.03-.607.03-.912.005-8.56.007-17.12.01-25.681.001-1.352.002-1.354 1.316-1.354 5.588 0 11.177.014 16.765-.004 4.214-.013 7.806 1.513 10.755 4.456 2.605 2.599 4.069 5.78 4.35 9.488.294 3.84-.703 7.293-3.04 10.34a12.294 12.294 0 01-1.994 2.07c-.703.572-1.35 1.212-2.135 1.689-2.33 1.415-4.842 2.213-7.579 2.215-9.12.007-18.238.019-27.358-.008-3.234-.01-6.148-1.098-8.676-3.077-2.679-2.097-4.65-4.749-5.471-8.105-1.263-5.156-.268-9.827 3.26-13.861 2.004-2.293 4.49-3.867 7.44-4.678a11.485 11.485 0 013.238-.418zm35.903 30.112c.046-.092.056-.15.09-.173.228-.162.458-.322.694-.471 1.802-1.142 3.304-2.595 4.555-4.323 2.588-3.577 3.639-7.579 3.213-11.942a16.433 16.433 0 00-3.321-8.476c-1.998-2.631-4.503-4.595-7.572-5.826-1.592-.639-3.253-.977-4.963-1.098-.225-.016-.61-.144-.63-.268-.075-.438-.104-.922.024-1.335.049-.16.559-.23.864-.249.906-.05.978-.106.99-1.031a5.76 5.76 0 000-.305c-.026-.757-.133-.876-.904-.886a90.363 90.363 0 00-3.354.003c-.558.013-.848-.183-1.083-.716-.876-1.99-2.387-3.12-4.616-3.136-2.234-.015-3.764 1.09-4.635 3.09-.264.604-.613.777-1.215.762a73.353 73.353 0 00-3.278.001c-.694.014-.8.126-.81.809-.018 1.327-.056 1.452 1.282 1.413.201-.005.564.112.581.217.068.413.088.858-.007 1.26-.032.13-.47.183-.728.23-.196.037-.405.009-.608.009-1.239 0-1.253 0-1.338-1.253-.033-.474-.235-.692-.701-.704-1.362-.035-1.592-.018-1.523 1.276.029.552-.118.66-.682.672-.916.02-1.83.01-2.745.008-1.03-.003-1.239.125-1.211-1.157.015-.657-.109-.772-.74-.795-1.46-.055-1.497.04-1.475 1.312.01.671-.087.739-.738.784-2.414.167-4.7.77-6.818 1.97-3.685 2.087-6.416 5.014-7.94 9-1.582 4.139-1.603 8.297-.007 12.427 1.297 3.359 3.423 6.09 6.444 8.091l1.053.7a1.78 1.78 0 01-.779.153c-1.55.004-3.1.002-4.65.002-.177 0-.355-.006-.533-.009-.367-.005-.569-.178-.573-.557-.003-.254.008-.51-.022-.76-.02-.169-.085-.46-.162-.47-.515-.076-1.046-.162-1.556-.103-.424.05-.347.503-.348.82-.008 1.881-.01 3.761-.001 5.642C.069 46.939-.153 47 1.637 47c19.311-.003 38.622-.002 57.933-.002.228 0 .458.005.686-.004.77-.03.878-.126.881-.901.01-2.109.011-4.218.003-6.326-.003-.78-.11-.871-.882-.896-1.088-.035-1.168.039-1.2 1.116-.024.794-.076.857-.891.86-1.702.009-3.405.005-5.107.001-.168 0-.335-.026-.523-.042z"/><path fill="url(#b)" d="M52.08 55.252c.137 2.216-1.912 4.3-4.286 4.321-2.252.02-4.296-1.985-4.295-4.274 0-2.665 2.058-4.42 4.364-4.42 2.397-.001 4.225 1.934 4.217 4.373zM9.12 55.19c.01-2.407 1.931-4.373 4.282-4.315 2.294.058 4.283 1.78 4.3 4.413.015 2.28-2.02 4.297-4.283 4.285-2.38-.012-4.462-2.102-4.299-4.383zm-.557 4.34c-.363.033-.537.062-.71.063-2.262.003-4.523-.002-6.785.006-.915.002-.997.095-1 1.006-.002.955.08 1.039 1.035 1.052.127.002.254 0 .382 0h54.422c.203 0 .406.006.61-.005.623-.034.73-.144.768-.784.01-.153.01-.305.001-.458-.034-.677-.141-.797-.82-.808-.99-.016-1.982-.002-2.973-.01-.239-.002-.478-.035-.912-.07 1.245-1.438 1.762-2.983 1.652-4.687-.112-1.737-.795-3.233-2.115-4.42-2.212-1.991-5.474-2.287-7.747-.622-3.658 2.68-3.83 6.035-1.495 9.714-1.151.184-24.009.12-24.612-.086 1.122-1.392 1.686-2.959 1.535-4.739-.154-1.815-.957-3.297-2.346-4.463-2.234-1.876-5.53-1.96-7.842-.23-1.228.917-2.056 2.09-2.44 3.575-.561 2.168-.037 4.106 1.392 5.966z"/><path fill="url(#c)" d="M61.131 60.648c-.004.922-.103 1.015-1.07 1.008-.907-.007-1-.108-.989-1.09.01-.879.106-.97 1.034-.97.939 0 1.03.094 1.025 1.052z"/><path fill="url(#d)" d="M38.57 13.449c-.002.99-.091 1.08-1.089 1.082-1.023.002-1.116-.094-1.11-1.14.005-1 .08-1.072 1.092-1.072 1.043 0 1.11.068 1.107 1.13z"/><path fill="url(#e)" d="M41.476 12.319c.961.004 1.042.092 1.04 1.124-.001 1.005-.1 1.098-1.163 1.088-.96-.01-1.04-.1-1.036-1.135.004-1.018.074-1.083 1.16-1.077z"/><path fill="url(#f)" d="M44.269 13.375c.004-1.007.064-1.062 1.163-1.056.975.005 1.06.1 1.049 1.182-.01.941-.113 1.035-1.137 1.03-1.014-.006-1.08-.078-1.075-1.157z"/><path fill="url(#g)" d="M30.645 14.28c-.773.333-1.304.332-2.022.018-.02-.193-.055-.414-.063-.636-.043-1.318.293-1.586 1.619-1.325.291.058.459.2.464.497.008.497.002.995.002 1.445z"/><path fill="url(#h)" d="M32.578 14.307c-.018-.327-.055-.676-.054-1.025.003-.888.071-.964.95-.956.36.004.9-.162 1.02.26.144.513.06 1.094.034 1.643-.004.09-.213.228-.34.246-.523.071-1.056.153-1.61-.168z"/></svg>