<svg xmlns="http://www.w3.org/2000/svg" width="61" height="58"><defs><linearGradient id="a" x2="61.04" y1="29.03" y2="29.03" gradientUnits="userSpaceOnUse"><stop offset="0" stop-color="#fff"/><stop offset="1" stop-color="#fff"/></linearGradient><linearGradient id="b" x1="23.97" x2="37.07" y1="38.57" y2="38.57" gradientUnits="userSpaceOnUse"><stop offset="0" stop-color="#fff"/><stop offset="1" stop-color="#fff"/></linearGradient><linearGradient id="c" x1="36.2" x2="41.27" y1="31.54" y2="31.54" gradientUnits="userSpaceOnUse"><stop offset="0" stop-color="#fff"/><stop offset="1" stop-color="#fff"/></linearGradient><linearGradient id="d" x1="19.4" x2="24.42" y1="31.54" y2="31.54" gradientUnits="userSpaceOnUse"><stop offset="0" stop-color="#fff"/><stop offset="1" stop-color="#fff"/></linearGradient><linearGradient id="e" x1="28.58" x2="32.48" y1="38.56" y2="38.56" gradientUnits="userSpaceOnUse"><stop offset="0" stop-color="#fff"/><stop offset="1" stop-color="#fff"/></linearGradient></defs><path fill="url(#a)" d="M44.756 34.755c.017-.527.17-.641.716-.64.54.003.712.123.719.646.02 1.394.021 2.788-.002 4.18-.007.496-.197.6-.76.601-.421 0-.685-.137-.681-.606.006-.71.002-1.419.002-2.129h.001c0-.683-.017-1.368.005-2.052zm-29.91 2.074c0-.66-.014-1.318.004-1.976.016-.605.152-.73.708-.737.575-.009.727.113.734.7.017 1.342.018 2.685.003 4.028-.006.582-.158.7-.74.694-.563-.006-.692-.123-.708-.734-.018-.658-.004-1.317-.004-1.975h.002zm30.756-19.876c-.938.001-1.875.011-2.812-.002-.683-.01-.776-.119-.795-.812-.005-.152.003-.304.007-.455.01-.406.226-.598.624-.6.456-.002.911-.007 1.368-.008 1.444 0 2.888-.003 4.332.003.86.003.942.096.935.97 0 .077.002.153-.004.229-.04.554-.13.661-.692.671-.987.016-1.975.004-2.963.004zm-30.45 0c-.94.001-1.88.01-2.82-.001-.702-.01-.789-.108-.81-.795a4.223 4.223 0 01.001-.304c.026-.642.122-.762.763-.769 1.523-.015 3.047-.007 4.571-.008.457 0 .915.008 1.372.005.44-.003.662.202.654.647-.002.152.008.305.003.457-.025.645-.119.755-.762.765-.991.015-1.982.004-2.972.004zm30.378 29.91c-.676-.008-.78-.1-.786-.734-.015-1.32-.013-2.642.003-3.963.008-.618.103-.72.714-.723 2.109-.012 4.218-.018 6.327.005 1.002.011 1.605.521 1.678 1.508.082 1.112.04 2.233.04 3.351 0 .49-.345.559-.735.558h-3.658c-1.195.001-2.388.01-3.583-.003zm-37.18 0c-.71-.007-.806-.098-.816-.785a62.75 62.75 0 01.007-2.744c.04-1.322.621-1.886 1.947-1.895a561.06 561.06 0 015.945 0c.796.002.864.075.87.88.01 1.245.012 2.49.002 3.735-.006.708-.094.8-.79.808-1.219.014-2.439.004-3.658.004-1.169 0-2.337.01-3.506-.003zm1.966-8.985c.604-4.886 1.212-9.773 1.818-14.66.15-1.208.297-2.417.45-3.626.074-.576.185-.691.78-.698 1.245-.016 2.49.002 3.735-.008.46-.004.683.177.744.655.273 2.14.58 4.276.863 6.415.077.58.004.66-.602.834-1.288.365-1.793 1.023-1.806 2.367-.006.635.001 1.27-.002 1.906-.004.97-.007.98-.954 1.042-.76.05-1.445.242-1.958.863-.434.524-.533 1.144-.544 1.784-.017 1.092-.009 2.185-.006 3.277.006 1.65.037 1.514-1.554 1.511-.344 0-.688-.047-1.112-.079.055-.587.088-1.087.148-1.583zm35.331-24.74c-.457 0-.914-.005-1.37.002-.415.006-.605-.194-.603-.603.003-.457.006-.914-.008-1.37-.044-1.347-.806-2.086-2.162-2.138-.401-.015-.812-.051-1.197-.155-.497-.133-.732-.514-.747-1.029-.016-.54.217-.963.725-1.127.355-.114.743-.14 1.12-.165.85-.057 1.166-.368 1.202-1.234.08-1.876 1.037-2.855 2.907-2.874a567.5 567.5 0 018.456-.001c.664.003 1.315.123 1.863.554a2.627 2.627 0 01.922 2.792c-.293 1.023-1.17 1.748-2.275 1.848-.43.039-.863.024-1.294.026-.466.002-.837.167-1.084.58-.348.581-.877.811-1.54.79a9.761 9.761 0 00-1.066.013c-1.06.082-1.769.83-1.798 1.893a39.699 39.699 0 00-.005 1.6c.005.413-.183.607-.598.6-.483-.007-.965-.001-1.448-.001zM19.375 2.437c1.345 0 2.69-.012 4.035.008.4.006.814.056 1.198.168 1.116.325 1.799 1.332 1.773 2.542-.025 1.2-.7 2.105-1.861 2.374-.511.118-1.056.125-1.584.125-.55 0-.991.137-1.289.634-.334.556-.856.76-1.486.745-.33-.007-.66-.007-.99.007-1.087.049-1.857.773-1.942 1.863-.041.53-.027 1.065-.019 1.597.007.447-.186.65-.638.644-.913-.011-1.827-.011-2.74 0-.455.006-.643-.201-.633-.647a24.92 24.92 0 00-.008-1.522c-.043-1.123-.808-1.881-1.936-1.936-.253-.012-.508.002-.76-.015-.842-.057-1.391-.537-1.404-1.214-.013-.7.56-1.2 1.443-1.254.177-.01.355.001.532-.012.694-.05 1.01-.361 1.063-1.04.002-.025.002-.05.003-.076.123-2.064 1.075-2.972 3.132-2.991h4.111zM30.511 53.47h27.352c1.315 0 1.358.049 1.3 1.385-.03.725-.13.827-.857.855-.228.009-.457.003-.686.003H3.297c-1.41-.001-1.61-.246-1.412-1.674.05-.366.224-.55.588-.558.28-.006.558-.01.838-.01l27.2-.001zm-.065-1.878H5.447c-1.269 0-1.269-.002-1.27-1.253-.001-1.663-.076-1.585 1.576-1.584 3.659.002 7.317-.014 10.976.006 3.453.018 6.906.077 10.359.108.404.004.816-.02 1.21-.1.545-.112.86-.554.812-1.035-.046-.45-.395-.776-.94-.839-.276-.032-.558-.024-.837-.025h-7.774c-.178 0-.356.003-.534-.004-.732-.023-.803-.098-.823-.86-.003-.102-.001-.204-.001-.306l.012-15.777c.001-1.141.02-1.162 1.14-1.163 7.442-.002 14.887 0 22.33 0 .178 0 .356.007.534.01.402.004.612.2.61.61-.001.203.006.406.006.61l.013 15.624c0 .177.006.355-.005.533-.033.6-.12.705-.733.714-1.143.017-2.286.008-3.43.008-1.905 0-3.81-.001-5.716.002-.253.001-.512-.005-.759.043-.481.091-.773.451-.774.9 0 .453.286.815.774.896.323.054.658.044.988.044 7.444.002 14.888.001 22.331.002 1.343 0 1.344.002 1.347 1.355.003 1.58.087 1.481-1.5 1.481H30.447zm20.31-12.047H49.46c-1.244-.002-1.245-.002-1.248-1.212-.001-1.041-.033-2.085.009-3.124.082-2.045-.873-3.175-2.825-3.115-.502.015-.657-.274-.648-.73.012-.686.004-1.372.002-2.058-.008-1.572-.49-2.193-2.042-2.544-.403-.09-.572-.26-.518-.672.285-2.164.553-4.33.846-6.494.092-.674.14-.7.832-.705 1.194-.01 2.388-.012 3.583.001.634.007.77.129.849.726.322 2.415.636 4.832.955 7.248.06.453.108.91.212 1.354.114.485.473.744.931.745.45.003.788-.27.907-.77.046-.193.046-.404.023-.602a219.063 219.063 0 00-.393-3.098c-.223-1.66-.47-3.318-.663-4.982-.041-.351-.02-.85.193-1.066.76-.77.844-1.688.83-2.677-.012-1.01-.318-1.832-1.226-2.382-.188-.113-.372-.37-.402-.582-.06-.448-.025-.911-.016-1.368.007-.31.191-.456.49-.464.305-.009.61-.015.915-.014.718.003 1.393-.212 1.876-.716.51-.532 1.076-.647 1.765-.675 1.702-.068 3.398-1.435 3.905-3.067.932-2.998-1.18-5.96-4.321-5.999a497.515 497.515 0 00-8.994-.004c-2.178.011-3.854 1.249-4.491 3.332-.153.501-.365.727-.896.848-1.488.339-2.536 1.894-2.373 3.386.172 1.567 1.437 2.848 2.962 2.877 1.242.024 1.122.188 1.128 1.251.001.127-.008.255-.002.381.019.39-.127.674-.47.886-.817.501-1.146 1.252-1.075 2.2.022.303.015.61.002.914-.032.703.183 1.305.721 1.767.258.22.348.461.304.802-.293 2.292-.569 4.585-.854 6.877-.077.617-.15.695-.758.713-.686.02-1.372.018-2.058.003-.66-.014-.688-.057-.786-.747-.028-.2-.057-.408-.139-.588-.169-.37-.46-.624-.886-.609-.424.015-.708.274-.85.66a2.362 2.362 0 00-.131.67c-.026.452-.27.621-.695.617-.559-.006-1.118.011-1.676-.002-.67-.015-.705-.057-.79-.736-.086-.7-.414-1.078-.942-1.083-.53-.005-.874.377-.96 1.066-.003.025-.001.05-.004.076-.076.61-.122.66-.768.677a37.46 37.46 0 01-1.676.002c-.712-.014-.73-.039-.828-.776-.085-.644-.397-1.003-.91-1.044-.535-.043-.928.307-1.078.964a1.19 1.19 0 00-.035.226c-.016.499-.315.64-.76.633-.636-.01-1.271.007-1.906-.004-.756-.013-.855-.117-.952-.875-.279-2.166-.551-4.332-.85-6.494-.06-.438-.017-.78.333-1.093.503-.448.703-1.04.682-1.713-.01-.33-.014-.661.002-.99.047-.962-.358-1.677-1.189-2.135-.36-.199-.513-.465-.486-.862.008-.126-.001-.253-.001-.38-.003-1.22-.001-1.185 1.192-1.25.57-.03 1.28-.053 1.663-.383.859-.738 1.81-.915 2.87-1.108 2.252-.41 3.718-2.587 3.512-4.77-.227-2.398-2.11-4.155-4.461-4.18A526.358 526.358 0 0014.775.5c-2.102.013-3.773 1.248-4.382 3.26-.17.56-.434.805-1 .947-1.506.376-2.36 1.746-2.246 3.447.092 1.39 1.266 2.599 2.702 2.784 1.333.172 1.333.172 1.296 1.552-.001.051-.004.102-.003.153.013.357-.13.606-.43.83-1.175.876-1.55 3.172-.742 4.403.055.085.11.178.188.239.511.4.523.918.448 1.51-.4 3.173-.776 6.35-1.162 9.524-.392 3.226-.795 6.45-1.17 9.679-.057.508-.244.805-.718 1.043-1.142.57-1.858 1.5-1.946 2.805-.07 1.037-.07 2.079-.09 3.12-.017.997-.034 1.023-1.01 1.077-1.321.074-2.159.916-2.207 2.238-.02.533-.001 1.067-.01 1.6-.012.728-.015.728-.7.959-1.09.366-1.563 1-1.584 2.146-.01.533-.016 1.068.007 1.6.05 1.183.889 2.05 2.065 2.15.252.021.507.016.761.016H58.18c.254 0 .509.006.76-.014 1.183-.094 2.026-.948 2.088-2.129.026-.481.015-.965.011-1.448-.01-1.358-.41-1.935-1.715-2.345-.42-.131-.577-.348-.571-.76a42.56 42.56 0 00-.005-1.676c-.035-1.424-.853-2.265-2.266-2.339-.898-.047-.936-.089-.955-.976-.024-1.066-.017-2.134-.088-3.196-.09-1.334-.824-2.272-1.995-2.857-.41-.205-.61-.457-.66-.916-.172-1.539-.379-3.074-.578-4.61-.101-.78-.185-1.565-.334-2.336a.94.94 0 00-1.06-.775c-.474.058-.78.401-.8.955-.011.302.029.608.065.91.224 1.84.457 3.678.675 5.518.033.27.005.548.005.957z"/><path fill="url(#b)" d="M30.548 33.963c2.425.037 4.658 2.012 4.558 4.703-.096 2.557-2.031 4.505-4.61 4.473-2.927-.037-4.692-2.394-4.54-4.603-.134-2.65 2.29-4.61 4.592-4.573zm-.07 11.134c3.13.169 6.572-2.52 6.596-6.476.023-3.919-3.307-6.574-6.507-6.59-3.29-.019-6.605 2.656-6.595 6.575.011 3.947 3.435 6.62 6.505 6.491z"/><path fill="url(#c)" d="M38.724 30.553c.508 0 1.017-.023 1.523.006.618.035.993.396 1.02.92.028.532-.294.975-.916 1.011a26.978 26.978 0 01-3.192 0c-.646-.04-1.01-.534-.958-1.064.05-.504.44-.822 1.075-.874.05-.005.102-.006.152-.006h1.296z"/><path fill="url(#d)" d="M21.989 30.549c.455 0 .912-.019 1.366.004.651.033 1.05.404 1.068.952.016.49-.352.964-.95.995a27.829 27.829 0 01-3.18-.013.944.944 0 01-.888-.968c.01-.513.393-.885.99-.96.05-.007.101-.01.152-.01h1.442z"/><path fill="url(#e)" d="M29.612 39.682c-.205-.11-.342-.173-.468-.253-.546-.348-.715-.786-.43-1.362.383-.772.805-1.527 1.256-2.26.32-.52.784-.632 1.236-.392.475.253.645.757.426 1.303-.092.23-.21.45-.307.656.062.074.086.13.126.145 1.122.412 1.292.866.68 1.884-.404.675-.803 1.354-1.256 1.996-.332.473-.792.547-1.19.286-.444-.29-.6-.77-.397-1.255.048-.117.125-.221.176-.337.05-.112.084-.231.148-.411z"/></svg>