<svg xmlns="http://www.w3.org/2000/svg" width="94" height="38"><defs><linearGradient id="a" x1="-973.55" x2="-973.55" y1="1400.48" y2="1399.53" gradientUnits="userSpaceOnUse"><stop offset="0" stop-color="#fff"/><stop offset="1" stop-color="#fff"/></linearGradient><linearGradient id="b" x1="89.78" x2="89.78" y1="37.25" y2="26.51" gradientUnits="userSpaceOnUse"><stop offset="0" stop-color="#fff"/><stop offset="1" stop-color="#fff"/></linearGradient></defs><path fill="url(#a)" d="M57.576 34.92h-35.98V16.58h24.77l6.2 6.19c.39.4.99.52 1.51.32l20.44-7.82 1.06 1.64zm-38.51-20.66c-.2.25-.32.57-.32.9v7.01l-15.47-6.41 3.34-8.06 13.32 5.52zm66.75-5.14a1.452 1.452 0 00-1.71-.56l-30.18 11.56-5.96-5.96c-.27-.27-.63-.42-1-.42h-9.26V2.84h8.29a1.419 1.419 0 100-2.84h-19.41c-.38 0-.74.15-1.01.42-.26.27-.41.62-.41 1 0 .78.63 1.42 1.41 1.42h8.29v10.9h-6.25L6.386 4.53c-.71-.29-1.55.06-1.86.78L.106 15.98c-.14.35-.14.73 0 1.08.14.33.38.59.7.74l.08.03 17.87 7.4v11.11c0 .78.63 1.42 1.42 1.42h38c.38 0 .73-.15 1-.42l26.45-26.44c.47-.47.55-1.22.19-1.78z"/><path fill="url(#b)" d="M93.296 33.74c0 1.93-1.58 3.51-3.52 3.51a3.52 3.52 0 01-3.51-3.51c0-1.35 1.91-4.75 3.51-7.23 1.61 2.48 3.52 5.88 3.52 7.23z"/></svg>