<svg xmlns="http://www.w3.org/2000/svg" width="46" height="65"><defs><linearGradient id="a" x1="23.02" x2="23.02" y1=".08" y2="64.96" gradientUnits="userSpaceOnUse"><stop offset="0" stop-color="#e03a07"/><stop offset="1" stop-color="#d86400"/></linearGradient><linearGradient id="b" x1="23.03" x2="23.03" y1="12.64" y2="60.77" gradientUnits="userSpaceOnUse"><stop offset="0" stop-color="#e03a07"/><stop offset="1" stop-color="#d86400"/></linearGradient><linearGradient id="c" x1="21.98" x2="21.98" y1="31.51" y2="54.49" gradientUnits="userSpaceOnUse"><stop offset="0" stop-color="#e03a07"/><stop offset="1" stop-color="#d86400"/></linearGradient><linearGradient id="d" x1="24.07" x2="24.07" y1="47.17" y2="51.35" gradientUnits="userSpaceOnUse"><stop offset="0" stop-color="#e03a07"/><stop offset="1" stop-color="#d86400"/></linearGradient></defs><path fill="url(#a)" d="M38.717 62.862H7.325a5.238 5.238 0 01-5.232-5.232V15.773a5.238 5.238 0 015.232-5.232h12.124l24.5 24.501V57.63a5.238 5.238 0 01-5.232 5.232zM6.278 6.356h8.372v2.092H7.325c-.356 0-.703.035-1.047.084zM4.186 2.17h12.557v2.093H4.186zM37.67 25.804l-8.985-8.984h7.938c.578 0 1.047.47 1.047 1.046zm6.278-10.03v16.309l-4.185-4.186v-10.03a3.144 3.144 0 00-3.14-3.14h-10.03l-4.186-4.186h16.31a5.238 5.238 0 015.231 5.232zm-5.232-7.326H16.743V6.356h1.046c.579 0 1.046-.47 1.046-1.047V1.124c0-.578-.467-1.047-1.046-1.047H3.139c-.579 0-1.046.47-1.046 1.047v4.185c0 .578.467 1.047 1.046 1.047h1.047v2.81C1.716 10.343 0 12.858 0 15.772V57.63c0 4.038 3.287 7.325 7.325 7.325h31.392c4.038 0 7.325-3.287 7.325-7.325V15.773c0-4.039-3.287-7.325-7.325-7.325z"/><path fill="url(#b)" d="M39.764 56.583a2.095 2.095 0 01-2.093 2.093H8.37a2.095 2.095 0 01-2.093-2.093V16.82c0-1.154.94-2.093 2.093-2.093h8.985l22.408 22.408zM18.529 12.941a1.042 1.042 0 00-.74-.307H8.371a4.19 4.19 0 00-4.185 4.186v39.764a4.19 4.19 0 004.185 4.185h29.3a4.19 4.19 0 004.186-4.185V36.701c0-.279-.11-.545-.307-.74z"/><path fill="url(#c)" d="M17.992 42.002l3.983-7.3 3.982 7.302a10.253 10.253 0 011.25 4.898v.264c0 1.493-.64 2.918-1.758 3.911a5.203 5.203 0 01-4.115 1.283c-2.574-.304-4.591-2.7-4.591-5.458 0-1.708.432-3.402 1.249-4.9zm-3.342 4.9c0 3.863 2.769 7.104 6.44 7.536a7.346 7.346 0 005.75-1.797 7.328 7.328 0 002.46-5.475v-.264c0-2.057-.52-4.098-1.505-5.902l-4.902-8.985c-.366-.673-1.47-.673-1.837 0l-4.901 8.984a12.362 12.362 0 00-1.505 5.903z"/><path fill="url(#d)" d="M26.16 47.166h-2.092a2.095 2.095 0 01-2.093 2.093v2.092a4.19 4.19 0 004.185-4.185z"/></svg>