<svg xmlns="http://www.w3.org/2000/svg" width="26" height="26"><path fill="#023042" d="M19.969 5.027a1.504 1.504 0 10.001 3.008 1.504 1.504 0 00-.001-3.008zm-10.862 8.19a4.176 4.176 0 118.353.001 4.176 4.176 0 01-8.353-.001zm-2.257 0a6.432 6.432 0 1012.865 0 6.432 6.432 0 00-12.865 0zm6.433-10.27c3.344 0 3.74.013 5.06.073a6.94 6.94 0 012.326.432 3.887 3.887 0 011.44.937c.417.404.737.896.938 1.44.276.745.422 1.532.431 2.326.06 1.32.073 1.717.073 5.062 0 3.344-.012 3.74-.073 5.061a6.908 6.908 0 01-.431 2.327 3.87 3.87 0 01-.937 1.439 3.867 3.867 0 01-1.44.937 6.908 6.908 0 01-2.326.431c-1.32.06-1.717.074-5.061.074-3.345 0-3.741-.013-5.062-.074a6.914 6.914 0 01-2.326-.431 3.869 3.869 0 01-1.44-.936 3.888 3.888 0 01-.937-1.44 6.945 6.945 0 01-.432-2.327c-.06-1.32-.073-1.717-.073-5.061 0-3.345.013-3.741.073-5.062.01-.794.156-1.58.432-2.326a3.9 3.9 0 01.937-1.44 3.9 3.9 0 011.44-.937A6.954 6.954 0 018.22 3.02c1.32-.06 1.718-.073 5.062-.073zm0-2.257C9.88.69 9.454.705 8.117.766a9.232 9.232 0 00-3.04.582 6.161 6.161 0 00-2.219 1.445A6.16 6.16 0 001.413 5.01a9.214 9.214 0 00-.582 3.04C.771 9.389.756 9.816.756 13.218S.77 17.045.83 18.38a9.235 9.235 0 00.582 3.041A6.144 6.144 0 002.86 23.64a6.14 6.14 0 002.219 1.445 9.19 9.19 0 003.04.582c1.336.061 1.763.076 5.165.076 3.401 0 3.828-.015 5.164-.076a9.183 9.183 0 003.04-.582 6.134 6.134 0 002.219-1.445 6.126 6.126 0 001.445-2.218c.364-.973.56-2.001.582-3.04.061-1.337.075-1.763.075-5.165s-.014-3.828-.075-5.164a9.19 9.19 0 00-.582-3.04 6.14 6.14 0 00-1.445-2.22 6.155 6.155 0 00-2.219-1.444c-.973-.364-2-.56-3.04-.582C17.11.705 16.684.69 13.283.69z"/></svg>