<svg xmlns="http://www.w3.org/2000/svg" width="186" height="47"><path fill="#1a9f29" d="M48.49 21.705c.77.847 1.694 1.462 2.848 1.924 1.155.462 2.463.693 4.08.693.77 0 1.539-.077 2.155-.154a5.964 5.964 0 001.77-.462c.539-.154 1-.385 1.462-.539.385-.23.77-.384 1.078-.538l-.54-1.155-.923.462c-.308.154-.615.23-1 .385-.385.077-.77.23-1.232.23-.462.078-1 .078-1.616.078-1.155 0-2.155-.231-2.848-.693-.77-.462-1.308-1.078-1.77-1.77a9.22 9.22 0 01-.847-2.694 23.42 23.42 0 01-.23-3.387c0-.923.076-1.924.153-2.925.077-1 .308-1.847.693-2.617.385-.77.847-1.385 1.54-1.924.692-.462 1.616-.77 2.77-.77 1.078 0 2.001.308 2.771.847.77.539 1.231 1.463 1.462 2.617h1.232V5.542c-.385-.154-.77-.308-1.232-.462-.461-.154-.923-.231-1.462-.308-.539-.077-1-.077-1.54-.154-.461 0-.923-.077-1.308-.077-1.693 0-3.079.231-4.31.693a7.923 7.923 0 00-2.925 2.001c-.77.847-1.308 1.924-1.693 3.156-.385 1.231-.539 2.694-.539 4.233 0 1.462.154 2.848.539 4.002.23 1.309.77 2.31 1.462 3.08zm70.58.615a.699.699 0 01-.23-.538c0-.23-.078-.539-.078-.924v-8.004h1.617c1.462 0 2.54.385 3.155 1.154.616.77.924 2.001.924 3.695 0 1.154-.077 2-.308 2.694-.23.692-.462 1.154-.847 1.539a4.59 4.59 0 01-1.154.693c-.462.077-.924.154-1.386.154-.461-.077-.846-.077-1.077-.154-.231-.077-.462-.154-.616-.308zm4.695 1.386a6.552 6.552 0 002.54-.77c.77-.461 1.386-1.077 1.77-1.924.462-.846.693-2 .693-3.463 0-1.078-.154-1.924-.462-2.694-.307-.77-.77-1.309-1.462-1.847-.693-.462-1.54-.77-2.617-1-1.077-.232-2.386-.309-3.925-.309h-1.617V7.16c0-.463.077-.77.308-.925.231-.154.616-.154 1.232-.154h2.309c.692 0 1.308 0 1.77.077.462.077.847.154 1.078.385.307.231.538.54.692.924.154.385.385.924.54 1.616h1V4.85h-14.162v.616c.076 0 .153.077.384.077.231.077.385.154.462.23.077.078.154.232.231.462 0 .231.077.462.077.77v14.701c0 .308 0 .616-.077.77 0 .23-.077.385-.23.462-.078.077-.232.23-.463.23-.23.077-.308.077-.384.077v.616h7.158c1.154 0 2.155 0 3.155-.154zm-21.32-16.702c0-.154 0-.308.077-.462 0-.154.077-.23.154-.308.077-.077.23-.153.462-.153.23 0 .462-.077.846-.077.462 0 .924.077 1.386.153.462.154.77.385 1.154.693.308.308.54.77.77 1.309.154.538.231 1.231.231 2 0 1.617-.23 2.849-.693 3.695-.462.847-1.308 1.309-2.463 1.309h-1.924zm1.078 16.24c-.077 0-.154-.077-.385-.077-.231-.077-.385-.153-.462-.23-.077-.077-.154-.231-.231-.462 0-.231-.077-.462-.077-.77v-5.31h1.924c1 0 1.924-.078 2.848-.232a7.29 7.29 0 002.386-.846c.693-.462 1.232-1 1.616-1.848.385-.77.616-1.847.616-3.155 0-1.232-.23-2.232-.539-2.925-.384-.693-.923-1.308-1.539-1.693-.616-.385-1.385-.616-2.232-.693-.847-.077-1.693-.154-2.617-.154h-7.543v.616c.077 0 .154.077.385.077.23.077.385.154.462.23.077.078.154.232.23.462 0 .231.078.462.078.77v14.624c0 .308 0 .616-.077.77 0 .23-.077.385-.231.462-.077.077-.231.23-.462.23-.23.077-.308.077-.385.077v.616h6.235v-.539zm-8.775-3.771h-1.231a14.14 14.14 0 01-.462 1.77c-.154.462-.308.77-.616 1-.23.232-.616.386-1.077.386-.462.077-1.078.077-1.925.077-.77 0-1.385 0-1.77-.077-.462-.077-.77-.154-1-.308-.231-.154-.385-.385-.385-.616-.077-.308-.077-.616-.077-1.077v-6.004h3.31c.307 0 .615.077.923.077.308 0 .616.077.924.154.307.077.538.154.77.308V12.7c-.232.154-.463.23-.77.308-.308.077-.616.154-.924.154-.308.077-.616.077-.924.077h-3.31V6.927c0-.385.078-.693.155-.846.154-.154.384-.154.77-.154h2.077c.693 0 1.309 0 1.77.077.463.077.847.153 1.078.384.308.231.54.54.693.924.154.385.385.924.539 1.616h1V4.85H81.048v.616c.077 0 .154.077.385.077.23.077.385.154.461.23.077.078.154.232.231.462 0 .231.077.462.077.77v14.624c0 .308 0 .616-.077.77 0 .23-.077.385-.23.462-.077.077-.231.23-.462.23-.231.077-.308.077-.385.077v.616h13.7v-4.31zm-25.63 2.847a.699.699 0 01-.231-.538c0-.23-.077-.539-.077-.924v-8.004h1.616c1.463 0 2.54.385 3.156 1.154.616.77.924 2.001.924 3.695 0 1.154-.077 2-.308 2.694-.231.692-.462 1.154-.847 1.539-.385.308-.77.539-1.155.693-.461.077-.923.154-1.385.154-.462-.077-.77-.077-1.078-.154-.23-.077-.461-.154-.615-.308zm4.695 1.386a6.552 6.552 0 002.54-.77 4.944 4.944 0 001.847-1.924c.462-.846.693-2 .693-3.463 0-1.078-.154-1.924-.462-2.694-.308-.77-.77-1.309-1.462-1.847-.693-.462-1.54-.77-2.617-1-1.078-.232-2.386-.309-3.926-.309H68.81V7.16c0-.463.077-.77.308-.925.23-.154.616-.154 1.231-.154h2.31c.692 0 1.308 0 1.77.077.461.077.846.154 1.077.385.308.231.539.54.693.924.154.385.385.924.539 1.616h1V4.85H63.576v.616c.077 0 .154.077.385.077.23.077.385.154.462.23.077.078.154.232.23.462 0 .231.078.462.078.77v14.624c0 .308 0 .539-.077.77 0 .23-.077.385-.231.462-.077.077-.231.23-.462.23-.231.077-.308.077-.385.077v.693h7.158c1.155 0 2.078 0 3.079-.154zm-27.478 7.389v-1.847H185.88v1.847zm128.383-14.393c.385.539.693 1 1.078 1.463.308.461.693.923 1 1.385.308.462.616.924 1.001 1.385.385.54.693 1.001 1 1.54.308.462.54 1 .77 1.462l6.466.077c-.693-.693-1.309-1.385-2.002-2.078-.615-.693-1.154-1.308-1.539-1.693a137.933 137.933 0 01-1.616-1.848c-.539-.615-1-1.154-1.463-1.693a25.073 25.073 0 01-1.308-1.693 38.471 38.471 0 01-1.232-1.847l.308-.385c.462-.616 1-1.232 1.617-2.001.615-.77 1.231-1.54 1.924-2.233.693-.77 1.308-1.462 2.001-2.078.693-.615 1.231-1.077 1.77-1.462h-4.464c-.154.385-.385.847-.693 1.385-.307.54-.615 1.155-1.077 1.77-.385.616-.847 1.31-1.232 2.002-.461.693-.846 1.308-1.308 1.924-.462.616-.847 1.232-1.232 1.693-.384.54-.692.924-.923 1.309l1.154 1.616z"/><path fill="#1a9f29" d="M174.18 23.244c-.077 0-.154-.077-.385-.077-.231-.077-.385-.153-.462-.23-.077-.077-.154-.231-.231-.462 0-.231-.077-.462-.077-.77V7.081c0-.308 0-.616.077-.77 0-.23.077-.384.23-.461.078-.077.232-.154.463-.231.23-.077.308-.077.385-.077v-.693h-6.235v.616c.077 0 .154.077.385.077.23.077.385.154.462.23.077.078.154.232.23.462 0 .231.078.462.078.77v14.624c0 .308 0 .616-.077.77 0 .23-.077.385-.231.462-.077.077-.231.23-.462.23-.231.077-.308.077-.385.077v.616h6.235zM137.158 8.005l2.54 7.697h-5.234zM132.77 21.55c.23-1.077.692-2.617 1.308-4.541h6.08l.847 2.463c.385 1.078.693 2.001.847 2.77.23.77.385 1.31.385 1.694h4.849c-.231-.385-.462-.923-.77-1.54-.308-.615-.693-1.539-1.078-2.693l-4.387-12.469c-.23-.539-.308-1-.385-1.385-.077-.385-.077-.693-.154-.924h-5.464v.616c.077 0 .154.077.385.077.23.077.384.154.461.23.077.078.154.232.231.462v.385c0 .462-.077.924-.23 1.232l-3.08 7.543c-.538 1.385-1.077 2.617-1.462 3.54-.385.924-.77 1.77-1 2.386-.308.616-.54 1.155-.77 1.54-.23.384-.385.692-.539 1h3.464c.077-.539.23-1.308.462-2.386zm21.629 1.694h-.154c-.077 0-.154-.077-.385-.077-.231-.077-.385-.153-.462-.23-.077-.077-.154-.231-.23-.462 0-.231-.078-.462-.078-.77v-7.312h7.39v7.235c0 .308 0 .616-.078.77 0 .23-.077.385-.23.462-.078.077-.232.23-.463.23-.23.077-.307.077-.384.077v.616h6.234v-.616c-.077 0-.154-.076-.385-.076-.23-.077-.385-.154-.462-.231-.077-.077-.154-.231-.23-.462 0-.231-.077-.462-.077-.77V6.927c0-.308 0-.616.076-.77 0-.23.077-.384.231-.461.077-.077.231-.154.462-.231.231-.077.308-.077.385-.077v-.539h-6.08v.616c.077 0 .153.077.384.077.231.077.385.154.462.23.077.078.154.232.231.462 0 .231.077.462.077.77v6.08h-7.389v-6.08c0-.308 0-.616.077-.77 0-.23.077-.384.231-.461.077-.077.23-.154.462-.231.23-.077.308-.077.385-.077v-.616h-6.235v.616c.077 0 .154.077.385.077.231.077.385.154.462.23.077.078.154.232.23.462 0 .231.078.462.078.77v14.701c0 .308 0 .539-.077.77 0 .23-.077.385-.231.462-.077.077-.231.23-.462.23-.23.077-.308.077-.385.077v.616h6.235v-.616zM33.635 6.85l-1.154-1.616-21.32 12.238L.847 11.545c-.231.693-.385 1.309-.462 2.001l10.853 6.235z"/><path fill="#1a9f29" d="M11.16 22.09L.078 15.702C0 16.086 0 16.548 0 16.933c0 10.083 8.16 18.318 18.32 18.318 10.083 0 18.318-8.158 18.318-18.318 0-3.002-.693-5.85-2.001-8.313z"/><path fill="#1a9f29" d="M31.018 3.694c-.538-.538-1.077-.923-1.616-1.385L11.161 12.854 2.386 7.85a37.31 37.31 0 00-.923 1.77l9.62 5.542z"/><path fill="#1a9f29" d="M27.555 1.078C26.862.693 26.169.308 25.4 0L11.16 8.236 4.773 4.618c-.462.462-.846 1-1.308 1.54l7.62 4.387zM126.69 38.1h1.54c.923 0 1.385.384 1.385 1.154 0 .923-.693 1.54-2.001 1.54h-1.54zm-.847 3.309h1.386c1.154 0 1.77.693 1.77 1.385 0 .924-.693 1.54-1.847 1.54h-1.77zm-1.385 3.617l.015-.077h-.015zm.015-.077h2.525c1.847 0 2.77-.77 2.77-2.155 0-.77-.461-1.308-1.23-1.616 1.154-.385 1.77-.924 1.77-1.924 0-1.078-.616-1.77-2.002-1.77h-2.386zm10.53-1.308c-.462.847-1.001 1.462-2.079 1.462-1.231 0-2.078-1-2.078-2.386 0-1.693 1.078-3.155 2.54-3.155 1.078 0 1.617.615 1.925 1.54l-.693.153c-.231-.693-.616-1.078-1.232-1.078-1 0-1.847 1.078-1.847 2.617 0 1.078.539 1.617 1.462 1.617.847 0 1.155-.462 1.463-1zm4.772-1.771h-3.002c.308-1 .77-1.616 1.77-1.616.847 0 1.232.616 1.232 1.232 0 .077.077.154 0 .308zm.615.54c0-.231.077-.462.077-.693 0-1.386-.692-2.155-1.924-2.155-1.54 0-2.617 1.385-2.617 3.232 0 1.386.77 2.31 2.001 2.31 1.155 0 1.77-.616 2.386-1.54l-.615-.308c-.462.693-.924 1.232-1.694 1.232-.846 0-1.385-.616-1.385-1.694v-.384zm1.848-2.694h3.001l-.077.615h-2.309l-.923 4.695h-.693zm3.155 4.694l1.848-4.002h.154l.384 4.003zm-1.231 0l-.308 1.617h.539l.308-1h3.617l-.077 1h.539l.308-1.616h-.539l-.616-4.695h-1.077l-2.232 4.695zm8.851-.615c-.539.385-1 .693-1.54.693-.538 0-.923-.385-.923-.924 0-.77.77-1.154 2.232-1.154h.54zm-.308-1.924c-1.847 0-2.847.692-2.847 1.77 0 .847.692 1.54 1.539 1.54.616 0 1.077-.308 1.54-.693 0 .23 0 .462.076.615h.693c0-.307 0-.692.154-1.308l.385-1.77c0-.385.077-.693.077-.847 0-.847-.693-1.54-1.77-1.54-.77 0-1.309.386-1.77.77l.461.462c.308-.385.693-.616 1.154-.616.693 0 1.155.385 1.155 1.001 0 .154-.077.385-.077.616zm7.158-.77c.385-.693.924-.924 1.463-.924.77 0 1.231.54 1.231 1.54 0 1.616-.923 2.77-1.924 2.77-.693 0-1.077-.307-1.385-.769zm.077-1.462h-.615l-1.463 7.466h.693l.539-2.694c.385.385.846.692 1.54.692 1.385 0 2.54-1.385 2.54-3.31 0-1.462-.617-2.231-1.771-2.231-.616 0-1.078.308-1.54.77zm7.543 2.231h-1.54c-.615 0-.923-.23-.923-.769 0-.385.385-.847 1.155-.847h1.693zm0 .693l-.462 2.463h.693l1.078-5.31h-2.54c-1.232 0-1.847.77-1.847 1.462 0 .616.384 1.155 1.077 1.385l-1.77 2.463h.77l1.693-2.463zm2.694 1.847l1.847-4.002h.154l.385 4.003zm-1.154 0l-.308 1.617h.539l.307-1h3.618l-.077 1h.539l.308-1.616h-.54l-.615-4.695h-1.077l-2.233 4.695zm6.234-1.462c0-1.616.924-2.77 1.847-2.77.693 0 1.232.615 1.232 1.616 0 1.54-.924 2.694-1.847 2.694-.693 0-1.232-.54-1.232-1.54zm-.693-.154c0 1.463.77 2.31 1.848 2.31 1.385 0 2.54-1.463 2.54-3.233 0-1.386-.693-2.31-1.848-2.31-1.385 0-2.54 1.386-2.54 3.233zm10.545-2.463l-2.309 4.695h-.693l-.692-4.695-.924 4.695h-.693l1.078-5.31h1.154l.616 4.618 2.232-4.618h1.155l-1.078 5.31h-.693z"/></svg>