<svg xmlns="http://www.w3.org/2000/svg" width="257" height="108"><path d="M70.686 7.151c-.319 0-.638 0-.956.003-.152.05-.304.1-.456.147l-.112-.147-.042-.055c.234.008.467.018.705.022l.861.03z"/><path d="M69.273 7.3l-.111-.146h.567c-.152.05-.304.1-.456.147z"/><path fill="#fff" d="M106.319 108V90.163h-5.61v-3.53h15.282v3.53h-5.61V108zm12.757 0V86.633h13.877v3.473h-9.873v5.051h7.19v3.415h-7.19v5.783h10.303V108zm21.64-18.038h2.985c1.473 0 2.513.23 3.12.689.608.46.912 1.234.912 2.325 0 1.08-.304 1.851-.912 2.31-.607.459-1.647.689-3.12.689h-2.985zm0 18.038v-8.639h3.96c2.316 0 4.076-.542 5.281-1.628 1.206-1.086 1.808-2.671 1.808-4.757 0-2.134-.617-3.724-1.851-4.772-1.234-1.047-3.11-1.571-5.625-1.571h-7.634V108zm14.564 0V86.633h5.755l3.085 10.375c.286.928.528 1.837.725 2.726.196.89.346 1.756.451 2.598.172-.794.369-1.61.589-2.447.22-.836.488-1.777.803-2.82l3.143-10.432h5.524V108h-3.443V90.077a63.297 63.297 0 01-.589 2.368c-.21.784-.435 1.569-.674 2.353L166.746 108h-2.942l-3.789-13.202a170.734 170.734 0 01-.839-3.021 59.533 59.533 0 01-.423-1.7V108zm28.543-21.367v11.81c0 .918-.022 1.727-.064 2.425-.043.698-.113 1.34-.208 1.923.43-1.062.848-2.028 1.255-2.899a27.74 27.74 0 011.155-2.238l6.673-11.021h3.731V108h-3.731V96.506c0-.823.023-1.596.072-2.318a20.49 20.49 0 01.23-2.03 38.57 38.57 0 01-2.411 5.108L184.383 108h-4.29V86.633zM201.1 108V86.633h4.018V95.1h8.151v-8.467h4.018V108h-4.018v-9.284h-8.15V108zm27.538-17.636l2.725 9.557h-5.438zM223.6 108l1.363-4.678h7.376l1.32 4.678h4.018l-6.43-21.367h-5.02L219.782 108zm26.266-21.367L256.237 108h-4.045l-4.822-17.435L242.49 108h-4.032l6.385-21.367zM16.142 55.494c6.926.17 13.685.332 20.576.497l26.497-.024-.217-.004c4.295-6.282 8.438-12.068 12.463-17.935-.086-.202-.174-.403-.262-.606-2.696-.09-5.394-.178-8.09-.267-7.264-.243-14.523-.694-21.785-.022-12.317 1.138-21.637 7.096-28.605 16.96-.215.303-.297.702-.577 1.401zm96.976-34.434c-1.33 3.887-2.801 7.835-5.094 11.233a127.158 127.158 0 01-4.855 6.712c-.958-3.886-3.199-7.466-6.497-9.983-3.633-2.776-6.84-3.177-13.705-3.346-9.155-.227-17.77-.52-26.529-.705l-20.086.02c-6.59-.16-13.055-.313-19.678-.475.27-.67.347-1.05.55-1.342 6.665-9.43 15.578-15.13 27.356-16.217 6.946-.642 13.887-.212 20.835.02 1.235.042 2.47.082 3.705.122.015.017.027.037.042.054l.112.148c.152-.048.304-.097.456-.148.318-.002.637-.002.956-.002 5.143-.01 10.286.042 15.422.267 9.565.415 17.997 4.257 24.834 11.237.764.78 1.491 1.581 2.176 2.405zm-.67 45.47c-6.135 7.168-13.994 11.44-23.407 12.42-4.06.421-8.218.488-12.278.13-4.04-.356-6.535.998-8.819 4.357-4.239 6.234-9.323 11.803-15.808 15.858-6.568 4.105-13.805 5.739-21.5 5.517-.224-.007-.443-.172-.899-.356 2.547-3.742 5.082-7.466 7.64-11.23a40.557 40.557 0 001.653-.461c17.686-5.31 29.286-11.106 33.376-13.688.951-.6 1.979-1.122 2.948-1.72 14.713-9.077 27.72-19.814 37.681-33.445 2.542-3.478 4.84-7.065 6.638-10.85.259.862.48 1.741.664 2.638 2.378 11.489-.239 21.895-7.889 30.83zm-32.349-4.827c-9.966 7.451-21.162 13.431-33.522 18.001l.216-.319s13.752-19.213 12.764-17.747c3.707.04 2.616.044 2.206.044 6.112.01 12.223.048 18.336.02z"/><path fill="#fbb03b" d="M123.434 19.928c-.448 4.69-1.81 9.03-3.762 13.135-1.797 3.784-4.095 7.371-6.637 10.849-9.96 13.63-22.968 24.368-37.681 33.445-.97.598-1.997 1.12-2.948 1.72-4.09 2.582-15.69 8.378-33.375 13.688a46.298 46.298 0 01-17.083 1.775c-3.568-.294-7.258-.844-10.589-2.039-8.1-2.91-12.102-9.79-11.245-18.278.572-5.671 2.445-10.997 5.477-15.812 3.256-5.165 7.11-10.003 10.725-14.97.284-.393.732-.679 1.442-.759-.573.782-1.129 1.579-1.723 2.348-5.146 6.677-9.56 13.72-11.407 21.888-.568 2.52-.817 5.216-.545 7.785.662 6.249 4.884 9.438 13.097 10.357 6.32.704 12.555-.055 18.52-1.783a157.421 157.421 0 0010.862-3.568h.002c.005-.002.01-.002.013-.004 12.36-4.571 23.556-10.551 33.521-18.002a119.726 119.726 0 0023.071-22.698 127.13 127.13 0 004.855-6.712c2.293-3.398 3.764-7.346 5.094-11.232.105-.302.207-.603.308-.904.787-2.323.782-5.012.543-7.499-.413-4.312-3.299-7.065-7.603-8.639-5.2-1.902-10.618-2.193-15.928-1.396-6.13.921-12.137 2.46-18.187 3.764-.826.18-1.622.468-2.427.734-.236-.004-.47-.014-.704-.022l-.459-.597c.359-.005.762.087 1.066-.033 9.73-3.794 19.752-6.714 30.51-6.453 4.125.1 8.45.859 12.325 2.228 7.673 2.714 11.636 9.675 10.872 17.684z"/><path fill="#999" d="M69.825 7.121a1.64 1.64 0 01-.095.033c-.152.05-.304.1-.456.147l-.112-.147-.042-.055c.234.008.467.018.705.022z"/></svg>