<svg xmlns="http://www.w3.org/2000/svg" width="260" height="73"><path d="M49.117 4.97h-.664c-.106.036-.211.07-.317.103l-.077-.102c-.011-.012-.02-.026-.03-.038.163.005.325.012.49.016l.598.02z"/><path d="M48.136 5.073l-.078-.102h.395c-.106.035-.212.07-.317.102z"/><path fill="#fff" d="M11.216 38.56c4.813.118 9.51.231 14.298.346l18.412-.017c-.051 0-.1 0-.151-.002 2.984-4.365 5.863-8.386 8.66-12.462l-.182-.422-5.621-.185c-5.048-.169-10.092-.482-15.138-.016-8.559.791-15.035 4.931-19.877 11.785-.15.21-.206.488-.401.974zm67.385-23.926c-.923 2.7-1.946 5.444-3.54 7.805a88.373 88.373 0 01-3.372 4.664c-.667-2.7-2.224-5.188-4.516-6.937-2.524-1.929-4.752-2.207-9.523-2.325-6.36-.157-12.348-.361-18.434-.49l-13.957.014c-4.579-.11-9.071-.217-13.673-.33.187-.465.24-.73.382-.932C16.6 9.55 22.793 5.59 30.977 4.834c4.826-.446 9.65-.147 14.477.014.858.03 1.716.057 2.575.085l.029.038.078.102.316-.102c.222-.002.443-.002.665-.002 3.574-.007 7.147.03 10.716.185 6.647.29 12.506 2.958 17.256 7.809a27.25 27.25 0 011.512 1.671zm-.465 31.596c-4.263 4.98-9.724 7.949-16.265 8.63-2.821.293-5.71.34-8.531.09-2.808-.247-4.542.694-6.128 3.027-2.946 4.332-6.479 8.202-10.985 11.02-4.564 2.852-9.592 3.987-14.94 3.833-.155-.005-.307-.119-.624-.247l5.31-7.804c.385-.098.767-.205 1.148-.32 12.29-3.69 20.349-7.717 23.19-9.51.662-.418 1.376-.78 2.05-1.196 10.223-6.307 19.262-13.768 26.183-23.24 1.766-2.417 3.363-4.91 4.612-7.539.18.599.334 1.21.462 1.832 1.652 7.984-.166 15.215-5.482 21.423zm-22.479-3.355c-6.925 5.178-14.704 9.333-23.293 12.509l.15-.222s9.556-13.35 8.87-12.332c2.576.028 1.818.031 1.533.031 4.247.007 8.493.033 12.74.014z"/><path fill="#fbb03b" d="M85.77 13.847c-.311 3.26-1.258 6.275-2.614 9.127-1.25 2.63-2.846 5.123-4.612 7.54-6.922 9.47-15.96 16.932-26.184 23.239-.673.415-1.387.778-2.048 1.195C47.47 56.742 39.41 60.77 27.12 64.46a32.166 32.166 0 01-11.87 1.234c-2.48-.205-5.044-.587-7.359-1.417-5.628-2.022-8.408-6.802-7.814-12.7.398-3.942 1.7-7.642 3.806-10.988 2.263-3.59 4.94-6.95 7.453-10.402.197-.273.508-.472 1.001-.528-.397.543-.783 1.097-1.196 1.632-3.576 4.64-6.644 9.533-7.927 15.21-.395 1.75-.568 3.624-.379 5.409.46 4.342 3.394 6.558 9.1 7.196 4.393.49 8.725-.038 12.87-1.238a109.53 109.53 0 007.548-2.48h.001c.004-.001.007-.001.01-.003 8.588-3.176 16.367-7.331 23.292-12.509a83.182 83.182 0 0016.031-15.771 88.428 88.428 0 003.374-4.665c1.593-2.36 2.615-5.104 3.54-7.805l.214-.628c.546-1.614.543-3.482.377-5.21-.287-2.996-2.292-4.91-5.284-6.003-3.613-1.322-7.377-1.524-11.068-.97-4.259.64-8.433 1.709-12.637 2.615-.574.125-1.127.325-1.686.51-.164-.003-.327-.01-.49-.015-.105-.139-.212-.277-.318-.415.249-.004.53.06.74-.023C55.211 1.86 62.176-.17 69.65.011c2.867.07 5.872.597 8.565 1.549 5.332 1.885 8.086 6.722 7.555 12.287z"/><path fill="#999" d="M48.519 4.948a1.278 1.278 0 01-.066.023c-.106.034-.211.069-.317.102l-.077-.102c-.011-.012-.02-.026-.03-.038.163.005.325.012.49.015z"/><path fill="#fff" d="M106.837 49.347V31.22h-5.702v-3.588h15.531v3.588h-5.702v18.127zm12.965 0V27.632h14.102v3.53H123.87v5.133h7.307v3.47h-7.307v5.878h10.472v3.704zm21.992-18.331h3.033c1.497 0 2.555.233 3.172.7.617.466.926 1.254.926 2.362 0 1.099-.309 1.882-.926 2.348-.617.467-1.675.7-3.172.7h-3.033zm0 18.331v-8.78h4.025c2.353 0 4.141-.55 5.367-1.654 1.225-1.104 1.837-2.715 1.837-4.835 0-2.168-.627-3.784-1.881-4.849-1.254-1.065-3.16-1.597-5.717-1.597h-7.758v21.715zm14.802 0V27.632h5.848l3.135 10.544c.292.944.537 1.867.738 2.771.198.904.35 1.784.458 2.64.175-.807.374-1.636.598-2.487.224-.85.495-1.806.816-2.865l3.194-10.603h5.615v21.715h-3.5V31.132c-.184.807-.383 1.61-.597 2.407a72.495 72.495 0 01-.686 2.391l-3.966 13.417h-2.991l-3.85-13.417c-.399-1.4-.683-2.423-.853-3.07a60.914 60.914 0 01-.43-1.728v18.215zm29.007-21.715v12.003c0 .933-.022 1.754-.065 2.464a19.72 19.72 0 01-.211 1.954c.437-1.079.862-2.06 1.275-2.946a28.3 28.3 0 011.175-2.275l6.78-11.2h3.793v21.715h-3.792V37.666c0-.836.023-1.622.073-2.356a20.83 20.83 0 01.233-2.063 39.369 39.369 0 01-2.45 5.192l-6.242 10.908h-4.36V27.632zm17.559 21.715V27.632h4.083v8.605h8.284v-8.605h4.083v21.715h-4.083v-9.435h-8.284v9.435zm27.986-17.923l2.77 9.713h-5.526zm-5.119 17.923l1.386-4.754h7.495l1.342 4.754h4.083l-6.533-21.715h-5.104l-6.548 21.715zm26.694-21.715l6.475 21.715h-4.111l-4.901-17.718-4.959 17.718h-4.098l6.49-21.715z"/></svg>