<svg xmlns="http://www.w3.org/2000/svg" width="109" height="109"><defs><clipPath id="a"><path fill="#fff" d="M0 54.5C0 24.4 24.4 0 54.5 0S109 24.4 109 54.5 84.6 109 54.5 109 0 84.6 0 54.5z"/></clipPath></defs><path fill="#e46e33" d="M0 54.5C0 24.4 24.4 0 54.5 0S109 24.4 109 54.5 84.6 109 54.5 109 0 84.6 0 54.5z"/><path fill="none" stroke="#ddd" stroke-miterlimit="50" stroke-width="28" d="M0 54.5C0 24.4 24.4 0 54.5 0S109 24.4 109 54.5 84.6 109 54.5 109 0 84.6 0 54.5z" clip-path="url(&quot;#a&quot;)"/><path fill="#fff" d="M70 53.5L45 68V39z"/></svg>