<svg xmlns="http://www.w3.org/2000/svg" width="30" height="30"><defs><clipPath id="a"><path fill="#fff" d="M0 4c0-2 2-4 4-4h22c2 0 4 2 4 4v22c0 2-2 4-4 4H4c-2 0-4-2-4-4z"/></clipPath></defs><path fill="#fff" d="M0 4c0-2 2-4 4-4h22c2 0 4 2 4 4v22c0 2-2 4-4 4H4c-2 0-4-2-4-4z"/><path fill="none" stroke="#fbb03b" stroke-miterlimit="50" stroke-width="4" d="M0 4c0-2 2-4 4-4h22c2 0 4 2 4 4v22c0 2-2 4-4 4H4c-2 0-4-2-4-4z" clip-path="url(&quot;#a&quot;)"/><path fill="#fbb03b" d="M15.917 8.907v-.609c0-.257.209-.465.465-.464l5.324-.001c.257 0 .466.208.464.464v5.325a.463.463 0 01-.464.465h-.608a.465.465 0 01-.465-.476l.078-3.223-3.936 3.937a.464.464 0 01-.658 0l-.438-.438a.464.464 0 010-.658l3.937-3.936-3.223.078a.462.462 0 01-.476-.464zm-1.752 12.112v.608a.463.463 0 01-.464.464l-5.324.002a.463.463 0 01-.465-.465v-5.325c0-.258.209-.466.465-.465h.608c.26 0 .47.215.464.476l-.078 3.223 3.937-3.937a.464.464 0 01.657 0l.439.438a.464.464 0 010 .658l-3.937 3.936 3.223-.078a.462.462 0 01.475.465z"/></svg>