<svg xmlns="http://www.w3.org/2000/svg" width="30" height="30"><defs><clipPath id="a"><path fill="#fff" d="M30 26c0 2-2 4-4 4H4c-2 0-4-2-4-4V4c0-2 2-4 4-4h22c2 0 4 2 4 4z"/></clipPath></defs><path fill="#fff" d="M30 26c0 2-2 4-4 4H4c-2 0-4-2-4-4V4c0-2 2-4 4-4h22c2 0 4 2 4 4z"/><path fill="none" stroke="#fbb03b" stroke-miterlimit="50" stroke-width="4" d="M30 26c0 2-2 4-4 4H4c-2 0-4-2-4-4V4c0-2 2-4 4-4h22c2 0 4 2 4 4z" clip-path="url(&quot;#a&quot;)"/><path fill="#fbb03b" d="M10.057 18.7l-.43.43a.463.463 0 01-.657 0l-3.766-3.764a.463.463 0 010-.656l3.766-3.766a.463.463 0 01.657 0l.43.43a.465.465 0 01-.008.665l-2.334 2.223h5.567c.258 0 .465.208.465.465v.62a.464.464 0 01-.465.465H7.715l2.334 2.224c.19.18.194.48.008.664zm9.803-7.325l.43-.43a.463.463 0 01.657 0l3.766 3.763a.463.463 0 010 .657l-3.766 3.766a.463.463 0 01-.656 0l-.43-.43a.465.465 0 01.007-.665l2.334-2.224h-5.567a.464.464 0 01-.465-.464v-.62c0-.258.208-.465.465-.465h5.567l-2.334-2.224a.462.462 0 01-.008-.664z"/></svg>