<svg xmlns="http://www.w3.org/2000/svg" width="174" height="174"><defs><linearGradient id="a" x1="87.01" x2="87.01" y1="121.8" y2="156.6" gradientUnits="userSpaceOnUse"><stop offset="0" stop-color="#e05707"/><stop offset="1" stop-color="#d89f00"/></linearGradient><linearGradient id="b" x1="58" x2="58" y1="78.3" y2="84.1" gradientUnits="userSpaceOnUse"><stop offset="0" stop-color="#e05707"/><stop offset="1" stop-color="#d89f00"/></linearGradient><linearGradient id="c" x1="69.6" x2="69.6" y1="78.3" y2="84.1" gradientUnits="userSpaceOnUse"><stop offset="0" stop-color="#e05707"/><stop offset="1" stop-color="#d89f00"/></linearGradient><linearGradient id="d" x1="81.2" x2="81.2" y1="78.3" y2="84.1" gradientUnits="userSpaceOnUse"><stop offset="0" stop-color="#e05707"/><stop offset="1" stop-color="#d89f00"/></linearGradient><linearGradient id="e" x1="92.81" x2="92.81" y1="78.3" y2="84.1" gradientUnits="userSpaceOnUse"><stop offset="0" stop-color="#e05707"/><stop offset="1" stop-color="#d89f00"/></linearGradient><linearGradient id="f" x1="104.41" x2="104.41" y1="78.3" y2="84.1" gradientUnits="userSpaceOnUse"><stop offset="0" stop-color="#e05707"/><stop offset="1" stop-color="#d89f00"/></linearGradient><linearGradient id="g" x1="116.01" x2="116.01" y1="78.3" y2="84.1" gradientUnits="userSpaceOnUse"><stop offset="0" stop-color="#e05707"/><stop offset="1" stop-color="#d89f00"/></linearGradient><linearGradient id="h" x1="127.61" x2="127.61" y1="78.3" y2="84.1" gradientUnits="userSpaceOnUse"><stop offset="0" stop-color="#e05707"/><stop offset="1" stop-color="#d89f00"/></linearGradient><linearGradient id="i" x1="139.21" x2="139.21" y1="78.3" y2="84.1" gradientUnits="userSpaceOnUse"><stop offset="0" stop-color="#e05707"/><stop offset="1" stop-color="#d89f00"/></linearGradient><linearGradient id="j" x1="20.28" x2="20.28" y1="162.4" y2="174" gradientUnits="userSpaceOnUse"><stop offset="0" stop-color="#e05707"/><stop offset="1" stop-color="#d89f00"/></linearGradient><linearGradient id="k" x1="153.68" x2="153.68" y1="162.4" y2="174" gradientUnits="userSpaceOnUse"><stop offset="0" stop-color="#e05707"/><stop offset="1" stop-color="#d89f00"/></linearGradient></defs><g opacity=".71"><path fill="url(#a)" d="M87.005 127.597c6.407 0 11.6 5.193 11.6 11.6s-5.193 11.6-11.6 11.6-11.6-5.193-11.6-11.6 5.193-11.6 11.6-11.6zm0 29c9.61 0 17.4-7.79 17.4-17.4s-7.79-17.4-17.4-17.4-17.4 7.79-17.4 17.4c.008 9.607 7.793 17.391 17.4 17.4z" opacity=".71"/><path fill="#f8f8f8" d="M89.905 139.197a2.901 2.901 0 11-5.802 0 2.901 2.901 0 015.802 0z" opacity=".71"/><path fill="url(#b)" d="M60.903 81.195a2.9 2.9 0 11-5.8 0 2.9 2.9 0 015.8 0z" opacity=".71"/><path fill="#f8f8f8" d="M37.702 115.996a2.9 2.9 0 11-5.8-.001 2.9 2.9 0 015.8.001zm11.601 0a2.9 2.9 0 11-5.8 0 2.9 2.9 0 015.8 0zm92.805 0a2.9 2.9 0 11-5.8 0 2.9 2.9 0 015.8 0zm-11.601 0a2.9 2.9 0 11-5.8-.001 2.9 2.9 0 015.8.001z" opacity=".71"/><path fill="url(#c)" d="M72.504 81.195a2.9 2.9 0 11-5.8 0 2.9 2.9 0 015.8 0z" opacity=".71"/><path fill="url(#d)" d="M84.104 81.195a2.9 2.9 0 11-5.8 0 2.9 2.9 0 015.8 0z" opacity=".71"/><path fill="url(#e)" d="M95.706 81.195a2.9 2.9 0 11-5.8-.001 2.9 2.9 0 015.8.001z" opacity=".71"/><path fill="url(#f)" d="M107.306 81.195a2.9 2.9 0 11-5.8-.001 2.9 2.9 0 015.8.001z" opacity=".71"/><path fill="url(#g)" d="M118.907 81.195a2.9 2.9 0 11-5.8-.001 2.9 2.9 0 015.8.001z" opacity=".71"/><path fill="url(#h)" d="M130.507 81.195a2.9 2.9 0 11-5.8-.001 2.9 2.9 0 015.8.001z" opacity=".71"/><path fill="url(#i)" d="M142.108 81.195a2.9 2.9 0 11-5.8 0 2.9 2.9 0 015.8 0z" opacity=".71"/><path fill="url(#j)" d="M2.9 174a11.94 11.94 0 008.7-4.757A11.94 11.94 0 0020.303 174a11.94 11.94 0 008.7-4.757 11.94 11.94 0 008.7 4.757 2.87 2.87 0 002.863-2.837 2.928 2.928 0 00-2.802-2.963 6.672 6.672 0 01-4.904-3.533 4.587 4.587 0 00-3.858-2.269 4.583 4.583 0 00-3.854 2.271 6.763 6.763 0 01-4.784 3.53 6.67 6.67 0 01-4.904-3.53 4.587 4.587 0 00-3.858-2.271 4.592 4.592 0 00-3.86 2.271 6.699 6.699 0 01-4.84 3.53 2.9 2.9 0 100 5.8z" opacity=".71"/><path fill="url(#k)" d="M145.008 169.243a11.94 11.94 0 008.7 4.757 11.94 11.94 0 008.701-4.757 11.94 11.94 0 008.7 4.757 2.87 2.87 0 002.863-2.837 2.929 2.929 0 00-2.802-2.963 6.675 6.675 0 01-4.904-3.533 4.587 4.587 0 00-3.857-2.269 4.581 4.581 0 00-3.854 2.271 6.765 6.765 0 01-4.786 3.53 6.671 6.671 0 01-4.904-3.53 4.583 4.583 0 00-3.857-2.271 4.594 4.594 0 00-3.86 2.271 6.674 6.674 0 01-4.895 3.53 2.901 2.901 0 00.054 5.8 11.94 11.94 0 008.701-4.756z" opacity=".71"/><path fill="#f8f8f8" d="M162.52 23.191c-.084 0-.402-.043-.485-.049a2.768 2.768 0 00-2.88 1.943 5.743 5.743 0 01-9.683 2.03 2.9 2.9 0 00-4.85.969 5.799 5.799 0 01-8.248 3.021 2.902 2.902 0 00-3.88.972 5.878 5.878 0 01-1.987 1.926v-2.112a5.8 5.8 0 00-5.8-5.8h-2.108a5.862 5.862 0 013.114-2.546 2.9 2.9 0 001.944-2.88 1.79 1.79 0 00-.05-.374 5.801 5.801 0 014.35-5.583 2.898 2.898 0 002.03-1.902 10.068 10.068 0 1119.141-.137 2.899 2.899 0 004.93.955 5.711 5.711 0 014.351-2.033 5.8 5.8 0 11.11 11.6zm-49.414 31.902v-11.6h11.6v11.6zm43.503 8.7a2.9 2.9 0 01-2.901 2.9H43.502a2.901 2.901 0 010-5.8h110.206a2.9 2.9 0 012.9 2.9zm-2.901 37.702H98.605a2.9 2.9 0 000 5.8h52.204v15.308a949.996 949.996 0 01-38.919 1.763c-.098-.162-.202-.322-.304-.484-.22-.354-.429-.714-.664-1.052-.29-.421-.606-.822-.916-1.224-.188-.247-.363-.508-.56-.75l2.167-2.166a2.9 2.9 0 00-4.101-4.1l-2.167 2.166-.02-.017c-.398-.326-.817-.618-1.233-.923-.33-.24-.652-.498-.992-.725-.431-.29-.886-.548-1.337-.815-.347-.206-.683-.429-1.04-.62-.465-.25-.946-.46-1.425-.688-.365-.17-.722-.362-1.1-.519-.494-.208-1.01-.377-1.522-.559-.373-.134-.74-.29-1.119-.403-.548-.172-1.114-.29-1.675-.433-.364-.089-.717-.2-1.082-.275-.639-.127-1.29-.208-1.944-.29-.304-.04-.603-.107-.913-.139h-.038v-3.054a2.9 2.9 0 00-5.801 0v3.045h-.037c-.31.032-.61.098-.914.14-.653.086-1.305.168-1.943.289-.365.076-.718.186-1.082.276-.562.137-1.127.262-1.676.431-.38.117-.742.271-1.116.404-.511.18-1.03.35-1.526.56-.374.157-.731.345-1.093.517-.482.225-.966.44-1.43.689-.357.192-.693.415-1.041.621-.45.267-.906.524-1.337.815-.34.226-.661.485-.992.725-.415.29-.835.597-1.233.923l-.02.017-2.167-2.167a2.9 2.9 0 00-4.1 4.101l2.166 2.167c-.196.24-.372.502-.56.747-.31.404-.625.804-.916 1.224-.235.34-.444.7-.664 1.053-.102.162-.206.323-.304.485a981.445 981.445 0 01-38.918-1.763v-15.3h52.203a2.9 2.9 0 000-5.8H20.301a2.9 2.9 0 110-5.8h133.407a2.9 2.9 0 110 5.8zm-2.9 35.072h-.165c-2.9.182-5.745.354-8.536.517v-8.156c2.901-.163 5.8-.322 8.701-.51zm7.973 10.052a23 23 0 01-9.716 3.826c-.06-.093-.127-.166-.19-.267a4.586 4.586 0 00-3.867-2.28 4.573 4.573 0 00-3.823 2.228l-.035.042c-.147.238-.29.424-.452.63h-8.778c-.154-.206-.308-.392-.456-.63a4.584 4.584 0 00-3.858-2.27c-.38 0-.758.052-1.124.154a4.76 4.76 0 00-2.735 2.116c-.149.238-.29.424-.453.63h-9.703c.028-.064.046-.133.072-.2.406-.947.762-1.915 1.064-2.9.081-.262.13-.531.206-.795.206-.75.397-1.507.546-2.285.022-.118.063-.238.086-.36l1.451-.066c.91-.037 1.841-.081 2.772-.125 2.144-.097 4.287-.2 6.43-.308l1.214-.057 4.48-.235.732-.041a2239.512 2239.512 0 0033.66-2.074zm-98.363 4.179h-9.703c-.154-.206-.308-.395-.455-.632a4.585 4.585 0 00-3.857-2.268c-.38 0-.76.052-1.126.154a4.753 4.753 0 00-2.727 2.111l-.017.027c-.142.228-.29.409-.437.608h-8.782c-.154-.206-.308-.395-.455-.632-.021-.032-.05-.052-.07-.084a4.389 4.389 0 00-7.61.04.439.439 0 01-.037.046c-.064.105-.134.181-.2.277a23.03 23.03 0 01-9.713-3.826l-7.541-5.26c3.785.26 7.987.539 12.43.823l1.628.102c4.1.26 8.393.519 12.812.774l2.41.135 3.141.176 2.9.156 3.049.16 3.48.17c1.322.066 2.643.128 3.961.19 1.19.054 2.372.11 3.53.159l1.394.063c.024.122.064.24.088.36.147.777.34 1.533.545 2.285.075.264.125.534.206.795a28.5 28.5 0 001.063 2.9c.047.055.066.124.093.19zM31.902 137.1c-2.845-.166-5.737-.34-8.701-.526v-8.148c2.9.188 5.8.347 8.7.51zm11.6.647l-.87-.044-1.855-.101c-1.007-.053-2.057-.117-3.08-.171v-8.176c1.934.099 3.866.168 5.8.255zm15.902-7.424c-.131.405-.232.82-.345 1.234-.14.502-.29 1.001-.392 1.511-.09.424-.154.871-.225 1.285-.088.517-.18 1.033-.24 1.558-.048.44-.071.888-.1 1.334-.027.397-.079.788-.09 1.192l-1.883-.085c-1.56-.07-3.14-.138-4.758-.216l-2.068-.1v-8.274c3.393.13 6.78.233 10.168.328a2.542 2.542 0 01-.067.233zm65.303 7.713l-2.064.102c-1.623.079-3.19.15-4.766.218l-1.871.08c0-.403-.064-.794-.089-1.191-.03-.446-.053-.894-.102-1.334-.059-.525-.15-1.041-.238-1.558-.073-.429-.137-.87-.226-1.285a30.757 30.757 0 00-.391-1.51c-.113-.415-.215-.83-.345-1.235-.027-.076-.041-.157-.067-.233 3.387-.095 6.775-.197 10.167-.328zm8.564-.443l-1.94.102-.824.052v-8.237c1.934-.087 3.869-.156 5.8-.255v8.166zm-46.266-21.598c12.807.015 23.186 10.394 23.2 23.201a24.065 24.065 0 01-.497 4.777c-.05.223-.117.438-.171.658a23.758 23.758 0 01-.534 1.89c-.105.312-.22.616-.337.92-.193.519-.41 1.031-.652 1.538-.149.314-.29.63-.453.936a22.57 22.57 0 01-.913 1.57 23.135 23.135 0 01-39.286 0 24.02 24.02 0 01-.914-1.57c-.159-.306-.304-.622-.452-.936a25.28 25.28 0 01-.652-1.537 24.64 24.64 0 01-.337-.92 23.759 23.759 0 01-.534-1.89c-.054-.221-.12-.436-.171-.66a24.099 24.099 0 01-.498-4.776c.014-12.807 10.394-23.186 23.2-23.2zM46.403 72.494h104.405v17.4H46.403zm78.304-40.603v5.802h-11.6V31.89zm37.702-26.1a11.435 11.435 0 00-5.548 1.45 15.85 15.85 0 00-27.877 2.37 11.601 11.601 0 00-7.1 9.337 11.6 11.6 0 00-5.495 7.143h-3.283a5.8 5.8 0 00-5.8 5.8v23.202H43.502a8.68 8.68 0 00-2.9 16.867v17.935h-20.3a8.68 8.68 0 00-2.901 16.867v15.434c-1.859-.133-3.724-.248-5.577-.39a2.904 2.904 0 10-.447 5.79 545.2 545.2 0 006.024.424v8.187c-4.35-.29-8.39-.56-12-.81a4.997 4.997 0 00-5.03 3.136 5.125 5.125 0 001.659 5.943l9.879 6.902a28.03 28.03 0 006.28 3.26 2.883 2.883 0 002.113 4.86 11.68 11.68 0 007.861-3.83c.07-.064.145-.114.209-.183.215-.235.426-.479.63-.734.269.339.55.659.849.965.026.027.064.039.09.061a11.64 11.64 0 007.761 3.722 11.644 11.644 0 007.776-3.734c.022-.022.054-.031.078-.054.29-.304.58-.624.847-.962.27.338.547.658.843.962.027.027.061.035.088.061a11.641 11.641 0 007.769 3.727 2.868 2.868 0 002.862-2.837v-.064h5.905c.238.313.456.638.705.94l-2.166 2.166a2.901 2.901 0 104.1 4.101l2.167-2.166a28.857 28.857 0 0015.428 6.412v3.048a2.901 2.901 0 005.802 0v-3.048a28.86 28.86 0 0015.44-6.412l2.166 2.166a2.899 2.899 0 004.065-.035 2.899 2.899 0 00.036-4.066l-2.167-2.166c.25-.29.468-.627.705-.94h5.855a2.9 2.9 0 002.9 2.9 11.633 11.633 0 007.772-3.729c.024-.023.061-.031.085-.058.29-.304.58-.624.843-.962.274.338.553.658.847.962.024.023.056.032.079.054a11.644 11.644 0 007.775 3.734 11.632 11.632 0 007.764-3.722c.027-.025.061-.034.088-.06.29-.307.58-.627.85-.966.202.255.414.5.629.734.063.07.142.121.21.185a11.686 11.686 0 007.86 3.829 2.882 2.882 0 002.086-4.853 28.163 28.163 0 006.307-3.268l10.072-7.047a5.06 5.06 0 001.465-5.8 5.112 5.112 0 00-5.025-3.147c-3.614.253-7.658.527-12.004.809v-8.182c2.006-.142 4.022-.27 6.023-.422a2.905 2.905 0 10-.446-5.792c-1.853.142-3.719.257-5.577.391v-15.426a8.647 8.647 0 000-16.334V71.96a8.68 8.68 0 10-2.9-16.867h-23.202V40.178a11.451 11.451 0 005.31-3.014 11.679 11.679 0 0012.382-3.787c5.534 3.03 12.477 1.04 15.564-4.464a11.601 11.601 0 00-1.354-23.122z" opacity=".71"/></g></svg>