<svg xmlns="http://www.w3.org/2000/svg" width="26" height="16"><path fill="#023042" d="M5.933 2.344C6.64 4.09 7.536 5.735 8.715 7.212c.157.197.354.372.562.514.303.208.59.135.713-.212.13-.364.25-1.103.257-1.485.02-1-.003-1.655-.056-2.653-.035-.64-.263-1.201-1.203-1.37-.29-.053-.318-.292-.13-.53.388-.497.929-.576 1.516-.608.95-.051 1.905-.01 2.858 0 .388.004.778.035 1.16.118.498.11.765.459.847.945.043.251.065.509.059.763-.025 1.09-.078 2.181-.09 3.272a5.7 5.7 0 00.117 1.283c.128.581.524.727.929.307.513-.533.966-1.133 1.391-1.742.772-1.108 1.35-2.324 1.846-3.578.256-.647.453-.788 1.15-.79 1.307-.002 2.616-.004 3.924 0 .232.002.475.024.694.093.355.114.496.403.413.771-.194.862-.66 1.595-1.159 2.3-.8 1.13-1.64 2.232-2.459 3.35a4.214 4.214 0 00-.282.447c-.306.554-.285.865.162 1.326.711.734 1.473 1.42 2.162 2.174.5.549.964 1.144 1.36 1.77.503.793.193 1.539-.745 1.672-.59.083-3.47 0-3.62 0a2.82 2.82 0 01-2-.799c-.608-.585-1.16-1.228-1.745-1.839a4.875 4.875 0 00-.566-.515c-.478-.364-.946-.283-1.17.278-.19.482-.355 1.747-.363 1.855-.04.565-.4.925-1.032.96-1.828.1-3.598-.105-5.248-.988-1.398-.749-2.514-1.808-3.481-3.042-1.537-1.96-2.75-4.116-3.858-6.335C1.572 4.811.45 2.423.42 2.31c-.1-.377-.006-.738.313-.862.199-.078 3.898 0 3.96.003.59.032.992.28 1.241.893z"/></svg>