<svg xmlns="http://www.w3.org/2000/svg" width="33" height="33"><path d="M16.5 32.5a16 16 0 10-16-16 16 16 0 0016 16z" fill="#1235a6" stroke="#fff"/><path d="M16.225 6.56a.611.611 0 01.81.8.626.626 0 01-1 .193.611.611 0 01.186-.989zm-5.155.546a.478.478 0 11-.057.884.477.477 0 01.057-.884zM21.628 8a.472.472 0 01-.09-.9.524.524 0 01.7.46.528.528 0 01-.612.44zm-9.385 1.264a.74.74 0 11-.105 1.212.729.729 0 01.105-1.212zm7.43.322a.758.758 0 011.344-.032.749.749 0 11-1.344.032zM15.6 10.6a.919.919 0 01.89-.859.979.979 0 01.764.488.858.858 0 01-.41 1.178 1.188 1.188 0 01-.656.056.937.937 0 01-.588-.863zm-7.666.69a.613.613 0 01.876.7.626.626 0 01-.975.316.608.608 0 01.1-1.013zm16.462 0a.608.608 0 11.067 1.041.6.6 0 01-.067-1.04zm-6.64.851a1.5 1.5 0 011.716.59 1.458 1.458 0 01-.507 2.066 1.5 1.5 0 01-2.13-.758 1.459 1.459 0 01.92-1.9zm-3.653.073a1.511 1.511 0 011.952.642 1.453 1.453 0 01-.612 1.966 1.5 1.5 0 01-2.032-.63 1.463 1.463 0 01.692-1.978zM10.45 13.44a.932.932 0 01.895-.752.98.98 0 01.87.857.92.92 0 01-.867.886.863.863 0 01-.9-.991zm10.8-.656a.869.869 0 11-.065 1.492.861.861 0 01.067-1.492zm-8.63 2.307a1.507 1.507 0 011.683.7 1.446 1.446 0 01-.33 1.818 1.509 1.509 0 01-2.31-.48 1.466 1.466 0 01.956-2.04zm6.927 0a1.513 1.513 0 011.685.617 1.45 1.45 0 01-.426 2 1.513 1.513 0 01-2.136-.519 1.467 1.467 0 01.877-2.1zm-11.04.726a.739.739 0 11-.262 1.243.735.735 0 01.262-1.243zm14.969.782a.836.836 0 01.788-.874.786.786 0 01.716.765.745.745 0 01-1.084.647 1 1 0 01-.418-.537zM5.794 16.08a.48.48 0 11-.194.729.48.48 0 01.194-.729zm20.949-.009a.483.483 0 01.7.223.474.474 0 11-.7-.223zm-12.317 1.973a1.468 1.468 0 11.056 2.862 1.457 1.457 0 01-.056-2.862zm3.462 0a1.467 1.467 0 11.115 2.862 1.462 1.462 0 01-1.2-1.783 1.485 1.485 0 011.088-1.08zm-6.676.545a.873.873 0 01.941 1.144.885.885 0 01-1.486.278.868.868 0 01.545-1.422zm10.154.027a.868.868 0 11-.165 1.536.863.863 0 01.165-1.536zm2.838 2.8a.6.6 0 01.62-.841.754.754 0 01.516.311c.029.233.078.511-.119.69a.616.616 0 01-1.017-.16zm-16.268-.733a.617.617 0 01.918.61.627.627 0 01-.945.424.6.6 0 01.027-1.034zm8.193.883a.866.866 0 11-.163 1.528.869.869 0 01.163-1.528zm-3.794.871a.741.741 0 011.04.684.729.729 0 01-.82.712.825.825 0 01-.685-.6.816.816 0 01.465-.79zm7.686.008a.741.741 0 11-.088 1.23.735.735 0 01.088-1.23zm1.337 3.25a.515.515 0 01.38-.765c.277.055.57.26.511.574a.493.493 0 01-.891.192zm-10.611-.273c.084-.25.288-.5.587-.432a.476.476 0 01.183.875.521.521 0 01-.77-.443zm5.12.287a.611.611 0 01.888-.353c.212.09.274.322.328.52q-.043.154-.08.31a.7.7 0 01-.518.3.6.6 0 01-.619-.777z"/><path d="M16.225 6.56a.611.611 0 01.81.8.626.626 0 01-1 .193.611.611 0 01.186-.989zm-5.155.546a.478.478 0 11-.057.884.477.477 0 01.057-.884zM21.628 8a.472.472 0 01-.09-.9.524.524 0 01.7.46.528.528 0 01-.612.44zm-9.385 1.264a.74.74 0 11-.105 1.212.729.729 0 01.105-1.212zm7.43.322a.758.758 0 011.344-.032.749.749 0 11-1.344.032zM15.6 10.6a.919.919 0 01.89-.859.979.979 0 01.764.488.858.858 0 01-.41 1.178 1.188 1.188 0 01-.656.056.937.937 0 01-.588-.863zm-7.666.69a.613.613 0 01.876.7.626.626 0 01-.975.316.608.608 0 01.1-1.013zm16.462 0a.608.608 0 11.067 1.041.6.6 0 01-.067-1.04zm-6.64.851a1.5 1.5 0 011.716.59 1.458 1.458 0 01-.507 2.066 1.5 1.5 0 01-2.13-.758 1.459 1.459 0 01.92-1.9zm-3.653.073a1.511 1.511 0 011.952.642 1.453 1.453 0 01-.612 1.966 1.5 1.5 0 01-2.032-.63 1.463 1.463 0 01.692-1.978zM10.45 13.44a.932.932 0 01.895-.752.98.98 0 01.87.857.92.92 0 01-.867.886.863.863 0 01-.9-.991zm10.8-.656a.869.869 0 11-.065 1.492.861.861 0 01.067-1.492zm-8.63 2.307a1.507 1.507 0 011.683.7 1.446 1.446 0 01-.33 1.818 1.509 1.509 0 01-2.31-.48 1.466 1.466 0 01.956-2.04zm6.927 0a1.513 1.513 0 011.685.617 1.45 1.45 0 01-.426 2 1.513 1.513 0 01-2.136-.519 1.467 1.467 0 01.877-2.1zm-11.04.726a.739.739 0 11-.262 1.243.735.735 0 01.262-1.243zm14.969.782a.836.836 0 01.788-.874.786.786 0 01.716.765.745.745 0 01-1.084.647 1 1 0 01-.418-.537zM5.794 16.08a.48.48 0 11-.194.729.48.48 0 01.194-.729zm20.949-.009a.483.483 0 01.7.223.474.474 0 11-.7-.223zm-12.317 1.973a1.468 1.468 0 11.056 2.862 1.457 1.457 0 01-.056-2.862zm3.462 0a1.467 1.467 0 11.115 2.862 1.462 1.462 0 01-1.2-1.783 1.485 1.485 0 011.088-1.08zm-6.676.545a.873.873 0 01.941 1.144.885.885 0 01-1.486.278.868.868 0 01.545-1.422zm10.154.027a.868.868 0 11-.165 1.536.863.863 0 01.165-1.536zm2.838 2.8a.6.6 0 01.62-.841.754.754 0 01.516.311c.029.233.078.511-.119.69a.616.616 0 01-1.017-.16zm-16.268-.733a.617.617 0 01.918.61.627.627 0 01-.945.424.6.6 0 01.027-1.034zm8.193.883a.866.866 0 11-.163 1.528.869.869 0 01.163-1.528zm-3.794.871a.741.741 0 011.04.684.729.729 0 01-.82.712.825.825 0 01-.685-.6.816.816 0 01.465-.79zm7.686.008a.741.741 0 11-.088 1.23.735.735 0 01.088-1.23zm1.337 3.25a.515.515 0 01.38-.765c.277.055.57.26.511.574a.493.493 0 01-.891.192zm-10.611-.273c.084-.25.288-.5.587-.432a.476.476 0 01.183.875.521.521 0 01-.77-.443zm5.12.287a.611.611 0 01.888-.353c.212.09.274.322.328.52q-.043.154-.08.31a.7.7 0 01-.518.3.6.6 0 01-.619-.777z" fill="#fff"/></svg>