<svg xmlns="http://www.w3.org/2000/svg" width="32" height="32"><path d="M16 32A16 16 0 100 16a16 16 0 0016 16z" fill="#429766"/><path d="M25.198 11.185l-1.338 3.562h-2.946l-1.368-3.562z" fill="#12354b"/><path d="M12.753 20.09l-1.339 3.563H7.862l1.369-3.563zm2.008-5.343l-.669 1.781h-3.493l.684-1.781zm9.572 8.907h-3.55l-3.346-8.9-1.338-3.562h-3.448l1.539-4.015h3.817l1.54 4.008 1.368 3.562z" fill="#fff"/><path d="M16.1 11.185l-1.34 3.562H8.338L7 11.185zm3.344 8.905H8.338L7 16.528h11.106z" fill="#12354b"/><path d="M25.198 16.528L23.86 20.09h-.894l-1.368-3.562z" fill="#00af7e"/></svg>