<svg xmlns="http://www.w3.org/2000/svg" xmlns:xlink="http://www.w3.org/1999/xlink" width="278.282" height="261.433"><defs><linearGradient id="a" x1=".857" y1=".13" x2=".223" y2=".657" gradientUnits="objectBoundingBox"><stop offset="0" stop-color="#ff9085"/><stop offset="1" stop-color="#fb6fbb"/></linearGradient><linearGradient id="b" x1=".656" y1=".101" x2=".324" y2="1.022" gradientUnits="objectBoundingBox"><stop offset="0" stop-color="#aa80f9"/><stop offset=".996" stop-color="#6165d7"/></linearGradient><linearGradient id="f" x1="-.742" y1="-.333" x2="-.784" y2=".269" xlink:href="#b"/><linearGradient id="g" x1=".274" y1=".363" x2=".895" y2=".706" gradientUnits="objectBoundingBox"><stop offset="0" stop-color="#444b8c"/><stop offset=".601" stop-color="#25289d"/><stop offset=".996" stop-color="#0c0caa"/><stop offset="1" stop-color="#26264f"/></linearGradient><linearGradient id="h" x1=".707" y1=".204" x2="-.293" y2="1.635" gradientUnits="objectBoundingBox"><stop offset="0" stop-color="#13189d"/><stop offset="1" stop-color="#314eff"/></linearGradient><linearGradient id="i" x1=".761" y1=".152" x2=".453" y2=".563" xlink:href="#h"/><linearGradient id="j" x1="-.122" y1="2.096" x2=".853" y2="-.405" gradientUnits="objectBoundingBox"><stop offset=".004" stop-color="#ebeff2"/><stop offset="1" stop-color="#fff"/></linearGradient><linearGradient id="k" x1="-3.822" y1="-7.172" x2="5.971" y2="10.213" xlink:href="#a"/><linearGradient id="l" x1="-4.966" y1="-1.032" x2="10.53" y2="3.312" xlink:href="#a"/><linearGradient id="m" x1="-1.293" y1="-9.414" x2="2.407" y2="11.042" xlink:href="#a"/><linearGradient id="n" x1="0" y1=".5" x2="1" y2=".5" xlink:href="#b"/><linearGradient id="o" x1=".385" y1="-.413" x2="-.194" y2="2.44" xlink:href="#b"/><linearGradient id="p" x1=".294" y1=".137" x2="1.053" y2="1.839" gradientUnits="objectBoundingBox"><stop offset="0" stop-color="#403bd0"/><stop offset=".703" stop-color="#1334f1"/><stop offset="1" stop-color="#0031ff"/></linearGradient><linearGradient id="q" x1=".294" y1="-.016" x2="1.053" y2="1.987" xlink:href="#a"/><linearGradient id="r" x1="0" y1=".5" x2="1" y2=".5" xlink:href="#a"/><linearGradient id="s" x1="-17.703" y1="-.131" x2="-16.431" y2="-.131" gradientUnits="objectBoundingBox"><stop offset="0" stop-color="#40447e"/><stop offset=".996" stop-color="#3c3b6b"/></linearGradient><linearGradient id="t" x1="-4.381" y1="-12.848" x2="25.586" y2="17.25" gradientUnits="objectBoundingBox"><stop offset="0" stop-color="#ffc444"/><stop offset=".996" stop-color="#f36f56"/></linearGradient><linearGradient id="u" x1="-.162" y1="-.02" x2=".969" y2="1.555" gradientUnits="objectBoundingBox"><stop offset="0" stop-color="#311944"/><stop offset="1" stop-color="#6b3976"/></linearGradient><linearGradient id="v" x1="-1.828" y1=".958" x2="2.152" y2=".221" gradientUnits="objectBoundingBox"><stop offset="0" stop-color="#311944"/><stop offset="1" stop-color="#893976"/></linearGradient><linearGradient id="w" x1="1.052" y1="2.125" x2=".235" y2=".59" xlink:href="#b"/><linearGradient id="x" x1=".382" y1=".909" x2=".188" y2=".236" xlink:href="#b"/><linearGradient id="y" x1=".382" y1=".875" x2=".188" y2="-.056" xlink:href="#b"/><linearGradient id="z" x1="-.898" y1="1.005" x2="2.651" y2="-.732" xlink:href="#t"/><linearGradient id="aa" x1=".349" y1="1.312" x2=".009" y2=".207" gradientUnits="objectBoundingBox"><stop offset=".283" stop-color="#aa80f9"/><stop offset=".996" stop-color="#6165d7"/></linearGradient><linearGradient id="ab" x1="2.758" y1="1.056" x2="2.878" y2="-.636" xlink:href="#t"/><linearGradient id="ac" x1="-5.309" y1="1.362" x2="-6.156" y2="-.322" xlink:href="#u"/><linearGradient id="ad" x1="1.877" y1="-.225" x2="1.842" y2="2.938" xlink:href="#t"/><linearGradient id="ae" x1="-.361" y1=".613" x2=".693" y2=".613" xlink:href="#s"/><linearGradient id="af" x1="-6.704" y1="3.241" x2="-5.71" y2="3.241" xlink:href="#s"/><linearGradient id="ag" x1="-5.996" y1=".543" x2="59.113" y2="59.767" xlink:href="#t"/><linearGradient id="ah" x1="-4.855" y1="1.395" x2=".341" y2=".779" xlink:href="#u"/><linearGradient id="ai" x1="-.813" y1="1.064" x2=".77" y2=".489" xlink:href="#v"/><linearGradient id="aj" x1="-.487" y1="1.258" x2=".762" y2=".493" xlink:href="#u"/><clipPath id="c"><path d="M2440.792 1703.762c-2.219-8.642-4.193-21.744.059-35.864 4.883-16.214 13.514-18.954 22.228-36.056 12.439-24.412 1.433-43.414 13.1-50.357 5.691-3.386 14.252-2.825 19.282 1.282 14.352 11.717 7.146 58.163-17.947 74.819-11.349 7.533-20.713 5.934-29.525 16.069-7.783 8.956-8.04 21.43-7.197 30.107z" transform="translate(-2438.344 -1579.274)" fill="url(#a)"/></clipPath><clipPath id="e"><path d="M2252.439 1975.078c-1.957-6.838-3.875-17.649.676-28.039 7.939-18.128 26.633-14.575 41.8-34.766 12.236-16.284 6.53-27.185 20.84-38.72 2.4-1.931 15.01-12.491 25.786-8.25 6.073 2.389 8.867 8.41 9.392 9.541 7.93 17.083-6.953 46.98-29.067 62.42-12.706 8.871-17.352 6.987-40.211 18.261a135.03 135.03 0 00-29.216 19.553z" transform="translate(-2250.315 -1864.307)" fill="url(#b)"/></clipPath></defs><path d="M143.471.059C72.232-1.949 10.524 47.387 1.201 112.121c-10.189 70.778 45.911 134.461 114.942 144.661 85.869 12.688 169.149-60.712 161.669-140.331C272.18 56.462 215.887 2.1 143.471.059z" fill="#f4f7fa"/><path d="M194.507 224.214c-2.219-8.642-4.193-21.744.059-35.864 4.883-16.214 13.514-18.954 22.228-36.056 12.439-24.412 1.433-43.414 13.1-50.357 5.691-3.386 14.252-2.825 19.282 1.282 14.352 11.717 7.146 58.163-17.947 74.819-11.349 7.533-20.713 5.934-29.525 16.069-7.783 8.956-8.04 21.43-7.197 30.107z" fill="#92b2f8"/><g clip-path="url(#c)" transform="translate(192.059 99.726)"><g opacity=".5" style="mix-blend-mode:soft-light;isolation:isolate" fill="#fff"><path d="M2.189 103.102l-.33-.107a64.62 64.62 0 014.323-10.2c3.964-7.487 8.05-11.471 13.223-16.514a149.729 149.729 0 0011.631-12.368c8.356-10.067 10.976-13.621 13.491-19.447a59.1 59.1 0 004.622-27.485 57.62 57.62 0 00-6.054-21.606l.31-.156a57.971 57.971 0 016.09 21.735 59.454 59.454 0 01-4.649 27.65c-2.533 5.866-5.163 9.434-13.543 19.531a149.935 149.935 0 01-11.656 12.394c-5.15 5.023-9.219 8.99-13.158 16.428a64.31 64.31 0 00-4.3 10.145z"/><path d="M47.386 36.393l.014-.285c.8-16.653-18.809-23.677-19.007-23.747l.114-.328a38.526 38.526 0 019.919 5.619c4.437 3.505 9.63 9.492 9.333 18.178a31.783 31.783 0 008.61-6.716 28.434 28.434 0 007.24-22.625l.345-.035a28.777 28.777 0 01-7.338 22.9 31.494 31.494 0 01-8.971 6.915zm-1.302 27.895a29.582 29.582 0 01-12.667-2.935l-.128-.069.046-.138c5.36-16.052-4.962-25.144-5.067-25.235l.226-.263c.106.091 10.541 9.284 5.217 25.466 1.408.706 14.011 6.631 25.46-1.127l.195.287a23.291 23.291 0 01-13.282 4.014zM35.026 79.997a25.433 25.433 0 01-8.307-1.3 16.02 16.02 0 01-6.049-3.449l-.086-.09.057-.11c4.354-8.416.006-22.958-.039-23.1l.332-.1c.044.147 4.394 14.692.073 23.25.9.843 8.723 7.549 24.378 2.971l.1.333a37.228 37.228 0 01-10.459 1.595z"/></g></g><path d="M2252.439 1975.078c-1.957-6.838-3.875-17.649.676-28.039 7.939-18.128 26.633-14.575 41.8-34.766 12.236-16.284 6.53-27.185 20.84-38.72 2.4-1.931 15.01-12.491 25.786-8.25 6.073 2.389 8.867 8.41 9.392 9.541 7.93 17.083-6.953 46.98-29.067 62.42-12.706 8.871-17.352 6.987-40.211 18.261a135.03 135.03 0 00-29.216 19.553z" transform="translate(-2076.213 -1737.36)" fill="url(#b)"/><g clip-path="url(#e)" transform="translate(174.102 126.947)"><g opacity=".7" style="mix-blend-mode:soft-light;isolation:isolate" fill="#fff"><path d="M1.099 119.395l-.345-.031c1.547-17.076 6.842-29.041 15.734-35.562 4.356-3.194 8.018-4.042 11.894-4.94 4.159-.963 8.46-1.959 13.809-6.1 5.2-4.023 6.826-7.509 8.887-11.923a66.149 66.149 0 019.847-15.819 70.482 70.482 0 0112.1-11.679c3.612-2.858 6.464-5.116 9.482-10.186 4.932-8.284 6.842-18.4 5.677-30.061l.345-.035c1.172 11.738-.754 21.923-5.724 30.272-3.051 5.125-5.926 7.4-9.565 10.28a70.178 70.178 0 00-12.046 11.628 65.838 65.838 0 00-9.8 15.745c-2.081 4.456-3.726 7.975-8.99 12.05-5.409 4.187-9.748 5.192-13.943 6.164-3.841.889-7.469 1.73-11.767 4.881-8.81 6.462-14.052 18.343-15.595 35.316z"/><path d="M71.465 34.824l.047-.227c.049-.241 4.855-24.207-4.748-32.766l.231-.259c9.243 8.238 5.373 30.372 4.9 32.867a45.352 45.352 0 0026.713-11.741 42.818 42.818 0 008.361-10.182l.306.163a43.2 43.2 0 01-8.434 10.275 45.7 45.7 0 01-27.145 11.847z"/><path d="M69.803 54.633a52.609 52.609 0 01-14.253-1.818l-.142-.045.023-.147c1.938-12.432-2.978-29.243-3.028-29.411l.333-.1c.05.168 4.948 16.919 3.061 29.414a55.389 55.389 0 0047.025-9.262l.211.275a54.137 54.137 0 01-32.128 11.083q-.558.012-1.102.011zm-9.91 29.505a71.318 71.318 0 01-17.426-2.085 45.649 45.649 0 01-10.4-3.809l-.159-.091.1-.154c7.855-12.216 2.163-30.251 2.105-30.431l.33-.107c.059.182 5.75 18.219-2.043 30.568 1.664.882 16.1 8.072 38.437 5l.047.344a80.788 80.788 0 01-10.991.765z"/></g></g><path d="M2287.4 2457.019a75.754 75.754 0 0119.884-7.7c15.8-3.649 22.393.321 29.553-5.364 7.412-5.885 3.849-12.921 12.662-19.432.741-.547 10.18-7.332 17.588-3.558 5.182 2.64 6.588 9.029 7.248 12.027 2.56 11.635-1.62 28.442-14.527 35.494-12.236 6.686-26.141 1.246-30.552-.513-7.738-3.087-9.275-6.416-17.17-9.311a46.617 46.617 0 00-24.686-1.643z" transform="translate(-2109.76 -2239.824)" fill="url(#f)"/><g transform="translate(16.416 34.65)"><path d="M799.5 1002.788c.126 57.2-30.28 103.886-84.43 105.421-.837.024-14.656 0-15.5 0-55.317.135-100.265-46.845-100.393-104.933s44.609-105.287 99.923-105.422c1.294 0 13.436.117 14.718.165 53.534 2.001 85.552 48.039 85.682 104.769z" transform="translate(-599.174 -897.854)" fill="url(#g)"/><path d="M100.161 0c55.317 0 100.161 47.09 100.161 105.178s-44.844 105.177-100.161 105.177S0 163.265 0 105.178 44.844 0 100.161 0z" transform="translate(18.726 .94)" fill="url(#h)"/><path d="M97.637 0c53.924 0 97.637 45.9 97.637 102.528s-43.713 102.527-97.637 102.527S0 159.152 0 102.528 43.714 0 97.637 0z" transform="translate(21.249 3.59)" opacity=".3" fill="url(#i)" style="mix-blend-mode:multiply;isolation:isolate"/><ellipse cx="94.69" cy="99.433" rx="94.69" ry="99.433" transform="translate(24.196 6.685)" fill="#13189d"/><ellipse cx="92.666" cy="97.307" rx="92.666" ry="97.307" transform="translate(24.196 8.811)" fill="url(#j)"/><path d="M126.646 103.331l70.587 27.372a85.857 85.857 0 003.537-24.485c0-43.911-32.832-79.77-74.124-81.984z" fill="#92b2f8" opacity=".315"/><path d="M93.596 103.91c-7.328-23.734 19.167-40.861 14.989-68.524-1.843-12.207-9.017-22.208-17.838-30.232-41.7 12.795-72.127 53.295-72.021 101.208.128 58.088 45.076 105.068 100.393 104.933a95.75 95.75 0 0038.274-8.06c-1.708-33.57-12.005-52.533-22.956-63.957-16.877-17.609-35.253-17.271-40.841-35.368z" fill="#d8dee8" opacity=".54"/><ellipse cx="5.892" cy="6.187" rx="5.892" ry="6.187" transform="translate(110.71 101.454)" fill="url(#k)"/><path d="M1784.852 1508.706a3.82 3.82 0 00-3.723 3.91v41.705a3.728 3.728 0 107.447 0v-41.705a3.82 3.82 0 00-3.724-3.91z" transform="translate(-1668.251 -1450.369)" fill="url(#l)"/><path d="M1169.812 1832.173l-66.709-19.612a2.367 2.367 0 00-2.886 1.456 2.1 2.1 0 001.373 2.756l66.709 19.612a2.367 2.367 0 002.885-1.456 2.105 2.105 0 00-1.372-2.756z" transform="translate(-1052.248 -1725.116)" fill="url(#m)"/></g><path d="M2382.842 1065.922l-74.29 4.278c-4.014.231-7.136 4.563-7.136 9.681v22.672l-5.015 10.358 4.9.737 6.975.631 74.579 6.726a10.916 10.916 0 0011.9-11.169v-32.356a11.349 11.349 0 00-11.913-11.558z" transform="translate(-2117.897 -1015.205)" fill="url(#n)"/><path d="M2355.408 1065.922l-74.344 4.278c-4.015.231-7.19 4.563-7.19 9.681v22.672l-4.936 10.358 4.936.737 6.995.631 74.54 6.726a10.884 10.884 0 0011.862-11.169v-32.356a11.309 11.309 0 00-11.863-11.558z" transform="translate(-2093.057 -1015.205)" fill="url(#o)"/><path d="M187.84 69.989l72.863-.532v-4.57l-72.863 1.429zm0 7.151l72.863 1.215v-4.57l-72.863-.318zm24.562 8.15l48.3 1.964v-4.57l-48.3-1.369z" opacity=".54" fill="#fff"/><path d="M501.043 1847.1s-18.391-31.845-43.263 22.31c-19.367 42.17-6.85 89.084 37.955 101.957s114.785-13.125 92.819-31.448c-46.594-38.862-81.954-73.311-87.511-92.819z" transform="translate(-446.897 -1713.386)" fill="url(#p)"/><path d="M31.069 162.336c-1.309 3.856-1.606 14.845-1.053 27.481.493 11.272-.531 17.166 17.4 25.365 6.147 2.811 10.4 11.728 19.811 17.034 4.267 2.405 20.342 11.107 41.1 7.591a60.783 60.783 0 0030.851-15.342c-45.363-38.014-79.581-71.59-85.036-90.746 0 0-6.72-11.626-17.526-8.874 2.626 2.922 3.516 10.792-5.547 37.491z" fill="#fff" opacity=".35"/><path d="M567.449 2153.464c-21.19 11.7-56.579 18.842-82.945-.74-24.413-18.132-26.588-48.5-27.4-57.765a90.036 90.036 0 016.3-41.674c-1.833 3.2-3.71 6.862-5.626 11.033-19.367 42.169-6.85 89.084 37.955 101.957 44.1 12.671 112.6-12.319 93.785-30.58a83.316 83.316 0 01-22.069 17.769z" transform="translate(-446.898 -1908.289)" fill="url(#q)" opacity=".13"/><path d="M689.007 2028.67c-.628 0-1.258-.007-1.9-.021-16.365-.366-39.341-5.8-55.861-29.621-13.953-20.118-12.085-42.823-8.062-58.327a112.039 112.039 0 0112.184-29.095.291.291 0 01.49.314 111.45 111.45 0 00-12.114 28.943c-3.989 15.382-5.842 37.9 7.981 57.833 16.38 23.618 39.165 29.008 55.395 29.37a92.361 92.361 0 0031.633-4.922.291.291 0 11.209.544 92.926 92.926 0 01-29.955 4.982z" transform="translate(-601.838 -1780.021)" opacity=".3" fill="url(#r)" style="mix-blend-mode:multiply;isolation:isolate"/><path d="M2244.774 2952.141c-1.168-1.258-3.26-6.669.556-7.781 3.838-1.118 5.971-2.534 11.255-6.771s6.642-.6-.822 6.282-9.328 10.057-10.989 8.27z" transform="translate(-2069.724 -2706.503)" fill="url(#s)"/><path d="M2207.877 2995.391l3.144 2.745a1.97 1.97 0 002.348.182 1.279 1.279 0 00.148-2.054l-4.6-3.932z" transform="translate(-2037.828 -2757.656)" fill="url(#t)"/><path d="M1208.749 2653.419c-5.554 4.866 6.04 20.823 24.562 15.651 22.445-6.268 50.99-3.451 70.232 12.216 1.116-.993 3.881-2.551 2.617-3.83-17.383-17.578-33.483-27.668-46.818-30.376-20.162-4.093-34.777-7.516-50.593 6.339z" transform="translate(-1132.855 -2442.114)" fill="url(#u)"/><path d="M141.01 217.986c3.256 1.894 3.95-1.955 5.63-4.486-7.21-4.427-13.981-7.283-20.154-8.537-20.161-4.093-34.776-7.515-50.592 6.339-5.554 4.866 6.04 20.823 24.562 15.651a86.359 86.359 0 0121.32-3.063c5.933-3.729 10.788-12.29 19.234-5.904z" fill="#552d63" opacity=".24"/><path d="M1093.6 2683.034l-1.14.436s-7.375-6.963-8.689-8.737c-1.6-2.165 16.456-7.685 22.32-14.908 6.162-7.589 1.294 9.01 1.294 9.01z" transform="translate(-1020.983 -2455.108)" fill="url(#v)"/><path d="M1117.613 2206.337s6.547.9 13.726 13.628c5.4 9.572 17.117 17.5 17.117 17.5l1.2 7.531-9.727 1.708-3.479-2.291-9.491-20.194z" transform="translate(-1051.686 -2046.725)" fill="url(#w)"/><path d="M828.44 2190.5s-16.139 1.99-16.485 20.561c-.32 17.138 5.863 23.777 21.035 38.067 1.526 1.437 4 1.437 4.183 1.644q1.478 1.667 2.994 3.481a77.578 77.578 0 0128.888-17.443s-14.16-29.293-20.381-39c-6.415-10.018-16.09-8.31-20.234-7.31z" transform="translate(-775.208 -2031.698)" fill="url(#x)"/><path d="M855.235 2403.015c-6.813 3.645-16.468 3.233-20.019-1.278-2.674-3.4-3.107-4.663-6.363-10-2.619-4.292-3.894-4.98-9.615-8.593a28.835 28.835 0 01-7.013-6.3 28.9 28.9 0 00-.271 3.465c-.32 17.137 5.863 23.777 21.035 38.067 1.525 1.436 4 1.437 4.183 1.644q1.478 1.667 2.994 3.481a77.579 77.579 0 0128.889-17.443s-2.35-4.608-5.462-11.086a18.339 18.339 0 01-8.358 8.043z" transform="translate(-775.208 -2200.954)" fill="url(#y)" opacity=".2"/><path d="M1148.74 2579.44a14.878 14.878 0 005.231-.734c2.172-.875 1.994-1.076 4.494-1.394 2.43-.308 7.218-1.751 4.507-4.216-3.017-2.744-8.187-1.975-9.673-.153a12.359 12.359 0 01-3.915 2.871z" transform="translate(-1079.84 -2376.834)" fill="url(#z)"/><path d="M812.21 2293.769s-8.963 1.044-3.733 29.907c2.713 14.97 16.122 12.863 32.314 6.677 1.1-2.293-.314-7.153-.314-7.153s-20.117 8.295-20.637-3.806c-.585-13.567-2.401-27.058-7.63-25.625z" transform="translate(-770.59 -2125.713)" fill="url(#aa)"/><path d="M56.988 164.941c-3.836 0-7.734-2.841-7.921-2.979a.146.146 0 11.173-.234c.052.038 5.175 3.773 9.322 2.736a3.311 3.311 0 002.337-1.671 4.891 4.891 0 00-.111-3.589.146.146 0 01.266-.118 5.1 5.1 0 01.106 3.835 3.589 3.589 0 01-2.528 1.825 6.787 6.787 0 01-1.644.195z" fill="#9f73f8"/><path d="M62.692 218.479a.146.146 0 01-.1-.254c.145-.13 14.592-13.062 27.635-16.252a.145.145 0 01.176.107.146.146 0 01-.107.176c-12.972 3.171-27.365 16.055-27.51 16.185a.145.145 0 01-.094.038z" fill="#ae87f9"/><path d="M978.292 2122.7s.53 6.1.051 7.255 1.034 2.73 4.025 3.337.623-6.083.623-6.083z" transform="translate(-925.637 -1971.076)" fill="url(#ab)"/><path d="M979.3 2029.977c3.108-1.7 3.043-9.652 1.285-10.258-1.009-.348-1.506 2.1-4.836 3.524-2.593 1.106-4.438.533-5.384 2.059a4.114 4.114 0 00-.47 2.664 10.355 10.355 0 00.774 2.206c.438 1.024.4.985.539 1.285a14.419 14.419 0 002.365 3.509 10.065 10.065 0 01.809-1.544 8.869 8.869 0 011.45-1.734c1.368-1.206 2.581-1.225 3.468-1.711z" transform="translate(-918.033 -1877.899)" fill="url(#ac)"/><path d="M974.548 2112.522a5.443 5.443 0 004.345 3.15c2.848.27 4.277-5.984 2.693-7.615a3.6 3.6 0 00-2.724-.807c-.6.069-.838.278-1.826.371-.912.086-1.144-.051-1.444.129-.375.225-.727.868-.473 2.8a1.552 1.552 0 00-1.554-.8.974.974 0 00-.434.305c-.51.663.001 1.691 1.417 2.467z" transform="translate(-920.827 -1957.083)" fill="url(#ad)"/><path d="M71.049 206.485a.39.39 0 00-.32.268c-.005.021.052.752.05.774a.367.367 0 00.252.38l13.723 4.458 25.646-10.044-12.185.932z" fill="#26264f"/><path d="M71.043 206.386a.367.367 0 00-.061.712l13.724 4.458 25.646-10.044-12.185.932z" fill="#444b8c"/><path d="M1307.888 2441.133l2.044-26.753a.926.926 0 01.781-.845l30.713-4.807a.926.926 0 011.069.959l-1.153 24.936a.927.927 0 01-.757.868l-31.907 5.907z" transform="translate(-1223.789 -2229.777)" fill="url(#ae)"/><path d="M84.756 212.365l2.108-27.343a.928.928 0 01.781-.845l30.713-4.807a.926.926 0 011.069.958l-1.153 24.939a.927.927 0 01-.753.868z" fill="#26264f"/><path d="M84.756 212.364l32.766-6.229a.927.927 0 00.753-.868l.348-7.521c-9.761 5.543-21.993 6.248-33.393 8.472z" fill="#1f1f44"/><path d="M1891.364 2643.616c-.448-1.555-1.438-3.274 2.1-4.528 2.565-.91 7.021-1.2 11.071-1.411 5.676-.291 6.981 3.1-1.313 5.265-5.436 1.415-11.222 2.886-11.858.674z" transform="translate(-1751.111 -2436.856)" fill="url(#af)"/><path d="M1915.671 2660.893a1.508 1.508 0 01-1.225 1.657c-1.679.24-1.364-.625-1.417-1.495s-.732-1.475 1.224-1.657a1.454 1.454 0 011.418 1.495z" transform="translate(-1770.997 -2456.514)" fill="url(#ag)"/><path d="M1761.733 2620.207l1.658-.261s3.229.3 12.129 2.756c1.905.316 4.5 5.876-1.08 6.094s-12.376 4.375-12.376 4.375z" transform="translate(-1634.291 -2420.834)" fill="url(#ah)"/><path d="M1154.263 2645.05s.813 7.215 17.591 6.559 46.75-18.073 46.561-27.213-11.342-5.488-22.89-.206c-9.747 4.459-24.8 7.041-27.889 7.52-3.95.613-14.327 9.873-13.373 13.34z" transform="translate(-1084.779 -2419.806)" fill="url(#ai)"/><path d="M1252.415 2636.6c7.766-.791 9.51-6.365 19.174-7.976 6.262-1.044 8.474.805 11.666-1.333 2.52-1.688 3.806-4.631 4.426-7.827-4.283.363-10.063 2.622-15.956 5.318-9.467 4.331-23.942 6.891-27.594 7.473-.108.018-2.556-.858-2.556-.858s-1.822 1.041-3.129 1.863c5.091 2.732 11.133 3.63 13.969 3.34z" transform="translate(-1160.979 -2420.4)" fill="url(#aj)" opacity=".2"/></svg>