<svg xmlns="http://www.w3.org/2000/svg" xmlns:xlink="http://www.w3.org/1999/xlink" width="242" height="244.509"><defs><linearGradient id="c" x1=".195" y1="-.97" x2=".619" y2=".678" gradientUnits="objectBoundingBox"><stop offset=".004" stop-color="#e38ddd"/><stop offset="1" stop-color="#9571f6"/></linearGradient><linearGradient id="d" x1="1.332" y1="1.238" x2=".096" y2="-.01" gradientUnits="objectBoundingBox"><stop offset="0" stop-color="#311944"/><stop offset="1" stop-color="#893976"/></linearGradient><linearGradient id="e" x1=".501" y1=".828" x2=".498" y2="-.255" xlink:href="#c"/><linearGradient id="f" x1=".198" y1="-2.702" x2=".619" y2="1.776" xlink:href="#c"/><linearGradient id="i" x1=".195" y1="-1.004" x2=".619" y2=".703" xlink:href="#c"/><linearGradient id="r" x1=".198" y1="-2.702" x2=".619" y2="1.776" xlink:href="#c"/><linearGradient id="ar" x1=".101" y1="1.076" x2="-.62" y2="2.257" gradientUnits="objectBoundingBox"><stop offset="0" stop-color="#610caa"/><stop offset="1" stop-color="#001cc4"/></linearGradient><linearGradient id="as" x1=".52" y1=".625" x2=".115" y2="1.329" xlink:href="#ar"/><linearGradient id="at" x1=".795" y1="-.069" x2="-.3" y2="2.478" gradientUnits="objectBoundingBox"><stop offset="0" stop-color="#ffc444"/><stop offset=".996" stop-color="#f36f56"/></linearGradient><linearGradient id="au" x1=".395" y1=".743" x2=".743" y2="-.431" gradientUnits="objectBoundingBox"><stop offset=".004" stop-color="#26264f"/><stop offset="1" stop-color="#444b8c"/></linearGradient><linearGradient id="av" x1=".32" y1=".606" x2="2.588" y2="-.09" xlink:href="#at"/><linearGradient id="aw" x1=".518" y1=".371" x2=".944" y2="-1.684" xlink:href="#au"/><linearGradient id="ax" x1="1.053" y1="-4.83" x2="-2.245" y2="25.737" gradientUnits="objectBoundingBox"><stop offset="0" stop-color="#893976"/><stop offset="1" stop-color="#311944"/></linearGradient><linearGradient id="ay" x1=".605" y1="-.009" x2=".238" y2="1.684" xlink:href="#ar"/><linearGradient id="az" x1=".404" y1=".802" x2=".045" y2="1.88" gradientUnits="objectBoundingBox"><stop offset="0" stop-color="#5c26c1"/><stop offset="1" stop-color="#314eff"/></linearGradient><linearGradient id="ba" x1="5.106" y1="1.345" x2="5.139" y2="-.457" gradientUnits="objectBoundingBox"><stop offset="0" stop-color="#ff9085"/><stop offset="1" stop-color="#fb6fbb"/></linearGradient><linearGradient id="bb" x1="15.69" y1="1.506" x2="15.848" y2="-.293" xlink:href="#ba"/><linearGradient id="bc" x1=".373" y1="-1.882" x2=".568" y2="1.768" xlink:href="#at"/><linearGradient id="bd" x1=".343" y1="-3.277" x2=".592" y2="3.191" xlink:href="#at"/><linearGradient id="be" x1="1.087" y1="-.027" x2=".798" y2=".192" xlink:href="#ba"/><linearGradient id="bf" x1=".272" y1=".696" x2="-.227" y2="1.347" xlink:href="#ba"/><linearGradient id="bg" x1=".73" y1=".758" x2="-.115" y2="-.571" xlink:href="#ba"/><linearGradient id="bh" x1="0" y1=".5" x2="1" y2=".5" xlink:href="#d"/><linearGradient id="bi" x1="1.069" y1="-.986" x2=".322" y2=".94" xlink:href="#c"/><linearGradient id="bk" x1=".908" y1="-.734" x2=".034" y2="2.341" xlink:href="#c"/><clipPath id="a"><path d="M2321.642 1516.4l11.572 12.644s12.319-1.6 12.075-8.375 10.734-9.843 16.35-12.186c15.237-6.358 4.654-22.323 23.472-32.138 5-2.61 15.537-5.817 17.041-12.361 1.713-7.456-4.811-8.853-2.831-14.1 3.095-8.207.609-17.618-8.255-19.387-8.748-1.746-17.457 10.437-18.905 30.213-2.633 13.947-4.96 15.354-11.261 17.642-4.413 1.6-17.441 3.025-18.434 11.163s-3.106 15.062-9.019 15.2c-8.999.213-11.805 11.685-11.805 11.685z" transform="translate(-2321.642 -1430.328)" fill="none"/></clipPath><clipPath id="b"><path d="M2383.3 1023.792l16.917 21.305c3.866-.984 10.438-3.5 8.208-8.972-3.1-7.6 7.284-15.728 12.339-16.836 6.256-1.371 20.741-4.868 16.13-16.688-3.839-9.84-8.284-15.52 1.126-23.557s11.156-18.326 3.263-27.226c-8.306-9.366-2.1-26.928-12.586-31.808-18.27-8.5-30.027 20.692-22.963 42.538s-6.475 16.516-14.894 22.175c-11.495 7.724 3.027 21.5 1.919 28.9-.87 5.791-6.013 8.743-9.459 10.169z" transform="translate(-2383.299 -918.5)" fill="none"/></clipPath></defs><path d="M91.326 20.569C129.304 16.643 135.25-2.002 164.177.176c26.959 2.03 56.759 20.857 69.865 47.264 16.714 33.677-8.062 50.788-9.554 139.73-.5 29.684 2.118 36.319-4.777 45.382-9.626 12.652-27.529 16.552-138.536 5.374-59.923-6.034-70.205-8.732-76.433-18.511-14.306-22.463 16.475-45.078 19.108-100.916 2.747-58.251-28.05-90.953-12.54-105.1 13.083-11.925 34.401 11.887 80.016 7.17z" fill="#f4f7fa"/><path d="M173.004 163.284c-5.172.123-8.182 4.136-9.906 7.382a5.242 5.242 0 01.408 1.239c1.293 4.436 2.789 6.054 4.754 10.225a24.137 24.137 0 003.359 4.025l1.692 1.594s11.78-1.738 11.536-8.511 10.734-9.843 16.35-12.186c3.448-1.439 4.564-3.2 5.747-3.934 12.514-7.75 18.45-5.924 20.972-10.944 2.783-5.542-3.654-9.354-.945-15.543 3.059-6.988 13.322-6.819 14.739-14.079a9.68 9.68 0 00.105-4.184c-.873-4.083-4.475-5.836-2.936-9.919 3.095-8.207.609-17.618-8.255-19.387-8.748-1.746-17.457 10.437-18.905 30.214-2.634 13.947-4.961 15.354-11.261 17.642-4.414 1.6-17.441 3.025-18.434 11.163s-3.107 15.063-9.02 15.203z" fill="#92b2f8"/><g clip-path="url(#a)" transform="translate(161.2 88.897)"><g opacity=".5" style="mix-blend-mode:soft-light;isolation:isolate" fill="#fcfdfe"><path d="M5.74 91.215l.2.276a202.458 202.458 0 004.555-3.3A182.786 182.786 0 0039.589 61.4a149.251 149.251 0 0017.956-25.637 128.464 128.464 0 009.569-21.913 106.424 106.424 0 003.814-15.284c.146-.863.246-1.757.344-2.622.129-1.152.263-2.344.505-3.47l-.318-.093c-.245 1.141-.38 2.341-.51 3.5-.1.861-.2 1.75-.341 2.6a106.09 106.09 0 01-3.8 15.238 128.178 128.178 0 01-9.546 21.861 148.978 148.978 0 01-17.92 25.586 182.509 182.509 0 01-29.047 26.748 199.615 199.615 0 01-4.555 3.301z"/><path d="M50.842 46.131l.268.206c7.876-11.064 30.616-16.778 30.844-16.835l-.1-.321c-.228.057-23.073 5.797-31.012 16.95zm-24.86 28.776l.245.235c6.268-6.815 3.7-25.4 3.669-25.591l-.322.023c.031.189 2.583 18.628-3.592 25.333zm-3.904 3.531l.2.272c4.857-3.582 13.565-5.677 24.518-5.9.551-.011.551-.011.6-.046l-.2-.275.1.137-.045-.161c-.036.005-.244.01-.486.014-11.015.225-19.781 2.341-24.687 5.959zM8.509 89.202l.267.207c3.9-5.426 1.006-15.534.976-15.636l-.311.072c.03.101 2.876 10.056-.932 15.357zm-2.541 2.473c5.271-1.3 11.2-1.076 18.115.69l.057-.32c-6.972-1.78-12.948-2.007-18.27-.691zm59.341-73.628l.278.192A82.72 82.72 0 0177.27 4.255c.458-.453.62-.613.665-.679l-.271-.2c-.036.05-.3.309-.629.636a82.992 82.992 0 00-11.726 14.035zm-4.942 11.551l.315.1c1.77-7.025-5.756-20.235-6.077-20.794l-.277.15c.077.14 7.776 13.651 6.039 20.544z"/></g></g><path d="M166.03 154.819c.834.828-4.5 10.976 3.66 8.905 2.038-.517 7.875-3.856 13.435 2.76l3.238 3.853c3.855-1.182 7.271-3.011 5.275-7.907-3.1-7.6 7.284-15.728 12.339-16.836 6.256-1.371 20.74-4.868 16.129-16.688-3.839-9.84-8.284-15.52 1.126-23.557s11.156-18.326 3.262-27.226c-8.306-9.366-2.1-26.928-12.586-31.808-18.27-8.5-30.027 20.692-22.963 42.538s-6.475 16.516-14.894 22.174a17.534 17.534 0 00-2.987 2.872c-6.853 8.385-1.5 18.193-3.454 29.732-2.67 15.738-2.986 9.794-1.58 11.188z" fill="#9b8fe3"/><g clip-path="url(#b)" transform="translate(166.512 44.804)"><g opacity=".5" style="mix-blend-mode:soft-light;isolation:isolate" fill="#fcfdfe"><path d="M11.166 112.852l.445.387C38.063 82.29 48.602 37.755 39.111-2.988l-.558.1c9.45 40.57-1.045 84.92-27.387 115.74z"/><path d="M24.069 94.656l.364.463c12.715-9.726 31.6-5.916 31.784-5.876l.086-.561c-.191-.04-19.319-3.905-32.234 5.974zm-8.2 12.361l.531.247C22.7 92.18 5.008 66.437 4.828 66.179l-.465.309c.179.255 17.688 25.731 11.506 40.529zm22.792-49.879l.511.291c6.028-11.436 25.509-16.07 25.706-16.116l-.16-.559c-.199.046-19.917 4.737-26.057 16.384zm3.3-26.196l.568-.046C40.45 15.839 24.411 2.325 24.248 2.19l-.352.432c.162.133 16.019 13.497 18.065 28.32z"/></g></g><path d="M1562.565 2837.1v8.482h.012c.52 5.12 21.932 14.522 53.033 14.7 45.728.256 61.171-9.956 61.89-15.185h.017v-7.816z" transform="translate(-1466.758 -2627.01)" fill="url(#c)"/><path d="M1677.516 2738.926c0 5.273-26.385 9.436-58.406 9.3-31.454-.132-56.547-4.375-56.547-9.48s25.093-9.271 56.547-9.3c32.022-.038 58.406 4.208 58.406 9.48z" transform="translate(-1466.757 -2528.63)" fill="url(#d)"/><path d="M1681.205 2732.387c0 5.233-26.183 9.374-57.968 9.251-31.23-.121-56.15-4.327-56.15-9.4s24.92-9.211 56.15-9.253c31.785-.038 57.968 4.169 57.968 9.402z" transform="translate(-1470.891 -2522.733)" fill="url(#e)"/><path d="M1677.517 2845.091v-7.815l-114.952-.178v8.482z" transform="translate(-1466.758 -2627.011)" fill="url(#f)"/><path d="M1677.516 2738.926c0 5.273-26.385 9.436-58.406 9.3-31.454-.132-56.547-4.375-56.547-9.48s25.093-9.271 56.547-9.3c32.022-.038 58.406 4.208 58.406 9.48z" transform="translate(-1466.757 -2528.63)" fill="url(#d)"/><path d="M1681.205 2732.387c0 5.233-26.183 9.374-57.968 9.251-31.23-.121-56.15-4.327-56.15-9.4s24.92-9.211 56.15-9.253c31.785-.038 57.968 4.169 57.968 9.402z" transform="translate(-1470.891 -2522.733)" fill="url(#e)"/><path d="M1562.565 2650.487v8.482h.012c.52 5.119 21.932 14.076 53.033 13.916 49.283-.253 61.171-9.176 61.89-14.405h.017v-7.816z" transform="translate(-1466.758 -2456.476)" fill="url(#i)"/><path d="M1677.516 2552.315c0 5.272-26.385 9.436-58.406 9.3-31.454-.132-56.547-4.375-56.547-9.48s25.093-9.27 56.547-9.3c32.022-.035 58.406 4.208 58.406 9.48z" transform="translate(-1466.757 -2358.095)" fill="url(#d)"/><path d="M1681.205 2545.776c0 5.233-26.183 9.374-57.968 9.251-31.23-.121-56.15-4.326-56.15-9.4s24.92-9.211 56.15-9.253c31.785-.038 57.968 4.169 57.968 9.402z" transform="translate(-1470.891 -2352.198)" fill="url(#e)"/><path d="M1677.517 2658.481v-7.816l-114.952-.178v8.482z" transform="translate(-1466.758 -2456.476)" fill="url(#f)"/><path d="M1677.516 2552.315c0 5.272-26.385 9.436-58.406 9.3-31.454-.132-56.547-4.375-56.547-9.48s25.093-9.27 56.547-9.3c32.022-.035 58.406 4.208 58.406 9.48z" transform="translate(-1466.757 -2358.095)" fill="url(#d)"/><path d="M1681.205 2545.776c0 5.233-26.183 9.374-57.968 9.251-31.23-.121-56.15-4.326-56.15-9.4s24.92-9.211 56.15-9.253c31.785-.038 57.968 4.169 57.968 9.402z" transform="translate(-1470.891 -2352.198)" fill="url(#e)"/><path d="M1562.565 2463.418v8.482h.012c.52 5.119 21.932 14.076 53.033 13.916 49.283-.253 61.171-9.176 61.89-14.405h.017v-7.811z" transform="translate(-1466.758 -2285.523)" fill="url(#i)"/><path d="M1677.516 2365.246c0 5.273-26.385 9.436-58.406 9.3-31.454-.132-56.547-4.376-56.547-9.481s25.093-9.27 56.547-9.3c32.022-.037 58.406 4.209 58.406 9.481z" transform="translate(-1466.757 -2187.142)" fill="url(#d)"/><path d="M1681.205 2358.708c0 5.233-26.183 9.374-57.968 9.251-31.23-.121-56.15-4.327-56.15-9.4s24.92-9.211 56.15-9.253c31.785-.039 57.968 4.169 57.968 9.402z" transform="translate(-1470.891 -2181.244)" fill="url(#e)"/><path d="M1677.517 2471.412v-7.812l-114.952-.178v8.482z" transform="translate(-1466.758 -2285.523)" fill="url(#r)"/><path d="M1677.516 2365.246c0 5.273-26.385 9.436-58.406 9.3-31.454-.132-56.547-4.376-56.547-9.481s25.093-9.27 56.547-9.3c32.022-.037 58.406 4.209 58.406 9.481z" transform="translate(-1466.757 -2187.142)" fill="url(#d)"/><path d="M1681.205 2358.708c0 5.233-26.183 9.374-57.968 9.251-31.23-.121-56.15-4.327-56.15-9.4s24.92-9.211 56.15-9.253c31.785-.039 57.968 4.169 57.968 9.402z" transform="translate(-1470.891 -2181.244)" fill="url(#e)"/><path d="M1562.565 2276.348v8.482h.012c.52 5.119 21.932 14.076 53.033 13.916 49.283-.253 61.171-9.176 61.89-14.405h.017v-7.816z" transform="translate(-1466.758 -2114.568)" fill="url(#i)"/><path d="M1677.516 2178.176c0 5.272-26.385 9.436-58.406 9.3-31.454-.132-56.547-4.376-56.547-9.481s25.093-9.27 56.547-9.3c32.022-.037 58.406 4.205 58.406 9.481z" transform="translate(-1466.757 -2016.187)" fill="url(#d)"/><path d="M1681.205 2171.637c0 5.233-26.183 9.374-57.968 9.251-31.23-.121-56.15-4.326-56.15-9.4s24.92-9.212 56.15-9.253c31.785-.035 57.968 4.165 57.968 9.402z" transform="translate(-1470.891 -2010.29)" fill="url(#e)"/><path d="M1677.517 2284.341v-7.815l-114.952-.178v8.482z" transform="translate(-1466.758 -2114.568)" fill="url(#f)"/><path d="M1677.516 2178.176c0 5.272-26.385 9.436-58.406 9.3-31.454-.132-56.547-4.376-56.547-9.481s25.093-9.27 56.547-9.3c32.022-.037 58.406 4.205 58.406 9.481z" transform="translate(-1466.757 -2016.187)" fill="url(#d)"/><path d="M1681.205 2171.637c0 5.233-26.183 9.374-57.968 9.251-31.23-.121-56.15-4.326-56.15-9.4s24.92-9.212 56.15-9.253c31.785-.035 57.968 4.165 57.968 9.402z" transform="translate(-1470.891 -2010.29)" fill="url(#e)"/><path d="M1562.565 2089.278v8.482h.012c.52 5.119 21.932 14.076 53.033 13.916 49.283-.253 61.171-9.177 61.89-14.4h.017v-7.816z" transform="translate(-1466.758 -1943.614)" fill="url(#i)"/><path d="M1677.516 1991.106c0 5.272-26.385 9.436-58.406 9.3-31.454-.132-56.547-4.376-56.547-9.48s25.093-9.271 56.547-9.3c32.022-.038 58.406 4.208 58.406 9.48z" transform="translate(-1466.757 -1845.232)" fill="url(#d)"/><path d="M1681.205 1984.567c0 5.233-26.183 9.374-57.968 9.251-31.23-.121-56.15-4.326-56.15-9.4s24.92-9.211 56.15-9.253c31.785-.038 57.968 4.169 57.968 9.402z" transform="translate(-1470.891 -1839.335)" fill="url(#e)"/><path d="M1677.517 2097.272v-7.816l-114.952-.178v8.482z" transform="translate(-1466.758 -1943.614)" fill="url(#r)"/><path d="M1677.516 1991.106c0 5.272-26.385 9.436-58.406 9.3-31.454-.132-56.547-4.376-56.547-9.48s25.093-9.271 56.547-9.3c32.022-.038 58.406 4.208 58.406 9.48z" transform="translate(-1466.757 -1845.232)" fill="url(#d)"/><path d="M1681.205 1984.567c0 5.233-26.183 9.374-57.968 9.251-31.23-.121-56.15-4.326-56.15-9.4s24.92-9.211 56.15-9.253c31.785-.038 57.968 4.169 57.968 9.402z" transform="translate(-1470.891 -1839.335)" fill="url(#e)"/><path d="M1562.565 1902.209v8.482h.012c.52 5.12 21.932 14.076 53.033 13.916 49.283-.253 61.171-9.177 61.89-14.405h.017v-7.816z" transform="translate(-1466.758 -1772.66)" fill="url(#i)"/><path d="M1677.516 1804.037c0 5.273-26.385 9.436-58.406 9.3-31.454-.132-56.547-4.375-56.547-9.48s25.093-9.27 56.547-9.3c32.022-.038 58.406 4.208 58.406 9.48z" transform="translate(-1466.757 -1674.279)" fill="url(#d)"/><path d="M1681.205 1797.5c0 5.233-26.183 9.374-57.968 9.251-31.23-.121-56.15-4.326-56.15-9.4s24.92-9.212 56.15-9.253c31.785-.041 57.968 4.166 57.968 9.402z" transform="translate(-1470.891 -1668.38)" fill="url(#e)"/><path d="M1677.517 1910.2v-7.816l-114.952-.178v8.482z" transform="translate(-1466.758 -1772.66)" fill="url(#r)"/><path d="M1677.516 1804.037c0 5.273-26.385 9.436-58.406 9.3-31.454-.132-56.547-4.375-56.547-9.48s25.093-9.27 56.547-9.3c32.022-.038 58.406 4.208 58.406 9.48z" transform="translate(-1466.757 -1674.279)" fill="url(#d)"/><path d="M1681.205 1797.5c0 5.233-26.183 9.374-57.968 9.251-31.23-.121-56.15-4.326-56.15-9.4s24.92-9.212 56.15-9.253c31.785-.041 57.968 4.166 57.968 9.402z" transform="translate(-1470.891 -1668.38)" fill="url(#e)"/><path d="M1562.565 1715.139v8.482h.012c.52 5.12 21.932 14.076 53.033 13.916 49.283-.253 61.171-9.177 61.89-14.405h.017v-7.816z" transform="translate(-1466.758 -1601.706)" fill="url(#i)"/><path d="M1677.516 1616.967c0 5.273-26.385 9.436-58.406 9.3-31.454-.132-56.547-4.376-56.547-9.48s25.093-9.27 56.547-9.3c32.022-.038 58.406 4.208 58.406 9.48z" transform="translate(-1466.757 -1503.325)" fill="url(#d)"/><path d="M1681.205 1610.428c0 5.233-26.183 9.374-57.968 9.251-31.23-.121-56.15-4.326-56.15-9.4s24.92-9.212 56.15-9.253c31.785-.038 57.968 4.174 57.968 9.402z" transform="translate(-1470.891 -1497.427)" fill="url(#e)"/><path d="M1677.517 1723.133v-7.816l-114.952-.178v8.482z" transform="translate(-1466.758 -1601.706)" fill="url(#r)"/><path d="M1677.516 1616.967c0 5.273-26.385 9.436-58.406 9.3-31.454-.132-56.547-4.376-56.547-9.48s25.093-9.27 56.547-9.3c32.022-.038 58.406 4.208 58.406 9.48z" transform="translate(-1466.757 -1503.325)" fill="url(#d)"/><path d="M210.314 113.001c0 5.233-26.183 9.374-57.968 9.251-31.23-.121-56.15-4.326-56.15-9.4s24.92-9.212 56.15-9.253c31.785-.038 57.968 4.174 57.968 9.402z" fill="#997af1"/><path d="M1444.715 1485.765c8.149 2.463 18.575 12.053 24.028 17.31 12.575 12.125 36.183 53.035 22.428 67.645-9.358 9.939-25.8 5.763-33.054-4.259-5.333-7.371-2.1-14.079-.981-27.349 1.208-14.279-3.909-39.239-12.421-53.347z" transform="translate(-1359.06 -1392.092)" fill="url(#ar)"/><path d="M807.281 1447.937c5.618 6.672 7.59 6.115 11.968 15.3 6.6 13.839 1.738 29.657 1.046 46.7-.76 18.7-.012 53.5 9.385 71.485a1.28 1.28 0 01.237.848c-.288 19.068-90.382 5.71-90.239-1.254.709-34.582 23.234-110.314 17.654-135.362 2.533-.046 7.544-2.691 9.583-3.261a59.545 59.545 0 0124.924-1.734 25.5 25.5 0 016.759 1.957c3.587 1.384 5.902 3.431 8.683 5.321z" transform="translate(-714.759 -1350.331)" fill="url(#as)"/><path d="M1124.9 1225.5c.118 5.8-1.786 14.17-2.537 19.376s9.889 5.425 13.367 3.011c3.193-2.217.789-8.228-2.292-11.383s-5.39-7.771-8.538-11.004z" transform="translate(-1064.445 -1154.252)" fill="url(#at)"/><path d="M1077.764 961.707c4.9-4.329 5.8-19.687.834-22.694-2.41-1.458-6.613 6.116-9.348 7.577-3.672 1.963-13.637 4.146-15.612 8.081-1.489 2.968 1.5 9.121 2.7 11.321 1.359 2.489 1.519 1.638 3.151 3.4 2.262 2.449 5.277 5.316 7.574 8.063a37.632 37.632 0 011.244-4.785 46.793 46.793 0 014.362-7.115c.84-1.07 4.494-3.318 5.095-3.848z" transform="translate(-1001.302 -892.271)" fill="url(#au)"/><path d="M1106.035 1176.15c3.772 3.489 5.616 7.734 12.458 6.462 6.126-1.139 7.153-16.434 1.582-20.946-1.858-1.505-4.573-1.489-6.882-.8-1.364.406-2.788 1.314-4.151 1.836-1.257.481-2.319-.1-3.473 1.171-1.444 1.6-.464 5.664.363 7.63a6.882 6.882 0 00-2.175-1.595c-.584-.182-1.6-1.152-2.151-.312-.9 1.373 1.052 3.989 2.2 5.066a16.1 16.1 0 002.229 1.488z" transform="translate(-1045.298 -1094.77)" fill="url(#av)"/><path d="M1098.567 1188.308c.839.485-.654 2.034-.43 3.566.435 2.976 1.385 8.349 5.728 8.869 2.568.308 5.258-1.985 7.95-2.26a14.618 14.618 0 015.164.367c1.072 3.2 1.116 8.247-1.662 10.233-2.993 2.138-4.954 1.026-8.132.109a11.3 11.3 0 01-5.811-4.535c-1.393-2.173-2.416-4.456-3.8-6.743-.763-1.263-1.687-2.844-2.586-4.169a7.54 7.54 0 01-.793-1.413c.723-.693 3.157-4.725 4.372-4.024z" transform="translate(-1038.738 -1120.185)" fill="url(#aw)"/><path d="M1272.757 1336.472a8.521 8.521 0 01-4.121.72c-.067 0-.364-.116-.249.134.429.94 2.29 1.265 3.234.992.671-.193 1.8-1.011 1.683-1.745-.052-.31-.421-.036-.547-.101z" transform="translate(-1197.898 -1255.614)" fill="url(#ax)"/><path d="M84.613 207.866c2.419-2.731 6.264-7.073 6.492-13.136.587-15.588-23.525-21.658-22.576-34.343.738-9.86 15.5-8.749 23.9-26.25 1.442-3.005 6.718-14.426 2.892-27.359a34.344 34.344 0 00-5.915-11.386c1.036.73 2.043 1.484 3.118 2.215 5.618 6.672 7.59 6.115 11.968 15.3 6.6 13.839 1.738 29.657 1.046 46.7-.76 18.7-.013 53.5 9.385 71.485a1.341 1.341 0 01.237.848c-2.1 18.954-90.382 5.71-90.239-1.254.086-4.169.49-8.941 1.123-14.146 3.126.866 41.255 10.878 58.569-8.674z" fill="#2e52e0" opacity=".3" style="mix-blend-mode:multiply;isolation:isolate"/><path d="M1087.958 2086.178c4.929-.247 1.525-3.227 3.017-2.793.935.271 23.8 22.755 16.6 34.617-6.873 11.313-35.423 3.641-45.483.054-5.591-1.994-22.2-8.169-32.281-24.23a50.399 50.399 0 01-2.035-3.554c22.04-2.891 32.595-3.584 38.123-3.615 3.543-.02 7.12.269 22.059-.479z" transform="translate(-978.035 -1938.189)" fill="url(#ay)"/><path d="M552.023 1548.581a55.87 55.87 0 01-16.129 32.851c-2.573 2.5-20.03 18.867-44.5 14.741-19.129-3.223-36.16-17.873-40.094-36.173-7.685-35.721 37.958-67.235 48.44-61.831 7.036 3.628 9.045 29.469-1.487 42.528-2.289 2.838-6.544 6.777-5.885 11.722.633 4.749 5.44 7.746 8.163 9.394 12.844 7.771 40.983-12.286 48.427-13.932.535-.016.942-.525 3.065.7z" transform="translate(-450.43 -1402.874)" fill="url(#az)"/><path d="M764.77 1892.788c4.435-4.493 9.573-6.859 15.351-8.635 1.442-.39 2.886-.752 4.314-1.125a30.807 30.807 0 01-5.153 9.927c-2.289 2.838-6.545 6.777-5.885 11.722.633 4.749 5.44 7.746 8.163 9.394 12.844 7.771 40.983-12.286 48.427-13.932.537-.017.941-.526 3.067.7a55.782 55.782 0 01-.967 5.482c-10.562-3.382-22.019 7.214-31.151 12.393-11.738 6.639-26.343 10.932-37.787 2.163-8.578-6.424-5.468-20.717 1.621-28.089z" transform="translate(-731.461 -1755.132)" opacity=".3" fill="url(#ba)" style="mix-blend-mode:multiply;isolation:isolate"/><path d="M478.127 1591.89c2 6.732 2.244 13.551-1.769 20.054-5.783 9.167-12.245 16.822-14.6 27.079-2.107 8.708-.832 17.278 1.672 25.8a19.16 19.16 0 003.232 6c-7.659-6.463-13.309-15.041-15.369-24.619-4.836-22.499 11.475-43.326 26.834-54.314z" transform="translate(-450.43 -1489.074)" opacity=".3" fill="url(#bb)" style="mix-blend-mode:multiply;isolation:isolate"/><path d="M887.263 2147.438c-.611 1.46-3.628 2.957-5.092 2.788-2.455-.284-4.188-1.957-5.727-2.686-1.375-.651-4.445-1.535-4.629-2.627-.349-2.068 3.005-2.65 4.973-2.85a16.377 16.377 0 018.44 1.821c.68 1.196 1.444 2.369 2.035 3.554z" transform="translate(-835.491 -1991.801)" fill="url(#bc)"/><path d="M1551.995 2077.339c-9.632 1.353-11.859.688-12.126-.161-.341-1.083 2.255-3.275 5.027-3.652a7.069 7.069 0 017.099 3.813z" transform="translate(-1445.989 -1929.165)" fill="url(#bd)"/><path d="M1039.479 1176.526a10.777 10.777 0 01-5.866-1.517 113.412 113.412 0 01-20.381-15.447c-9.031-8.8-14.219-17.752-15.355-26.54l-.018-.138-.22-37.5c0-7.41 4.833-13.425 13.908-17.378 7.5-3.266 17.434-4.884 27.932-4.58 10.376.3 19.976 2.441 27.083 6.008 8.447 4.24 12.88 10.2 12.88 17.265l-.2 35.827-.016.132c-1.037 8.415-5.811 17.113-14.249 25.908a117.666 117.666 0 01-19.668 16.109 11.163 11.163 0 01-5.83 1.851z" transform="translate(-886.022 -1060.253)" fill="url(#be)"/><path d="M1067 1176.526a10.526 10.526 0 01-5.788-1.517 112.042 112.042 0 01-20.112-15.447c-8.911-8.8-14.032-17.752-15.152-26.54l-.018-.138-.217-37.5c0-7.41 4.77-13.425 13.724-17.378 7.4-3.266 17.2-4.884 27.563-4.58 10.239.3 19.713 2.441 26.725 6.008 8.336 4.24 12.709 10.2 12.709 17.265l-.2 35.827-.016.132c-1.024 8.415-5.735 17.113-14.061 25.908a116.428 116.428 0 01-19.408 16.109 10.915 10.915 0 01-5.749 1.851z" transform="translate(-911.483 -1060.253)" fill="url(#bf)"/><path d="M1052.323 1117.869l.219 37.306c2.456 19.035 24.825 34.445 34.568 40.3a8.6 8.6 0 009.131-.246c9.539-6.277 30.684-22.08 32.943-40.381l.2-35.729c.001-26.506-77.061-28.929-77.061-1.25z" transform="translate(-935.618 -1082.706)" fill="url(#bg)"/><path d="M1163.7 1257.63a1.333 1.333 0 01-.722-.191 105.892 105.892 0 01-18.553-14.163c-7.307-7.178-11.522-14.156-12.488-20.711l-.214-36.688c.009-3.52 2.8-6.533 8.258-8.944 6.1-2.691 14.758-4.1 23.72-3.891 8.873.211 17.28 2 23.1 4.887 5.152 2.556 7.756 5.57 7.765 8.968l-.2 35.418c-.9 6.343-4.857 13.18-11.8 20.368a110.018 110.018 0 01-18.145 14.721 1.381 1.381 0 01-.721.226z" transform="translate(-1007.628 -1150.611)" fill="url(#bh)"/><path d="M155.154 104.51a102.9 102.9 0 01-17.54-13.5c-6.867-6.758-10.841-13.244-11.775-19.245l-.213-36.475c.006-2.517 2.32-4.826 6.859-6.835 5.776-2.558 14.053-3.906 22.67-3.712 8.534.192 16.579 1.877 22.107 4.612 4.3 2.125 6.468 4.443 6.474 6.9l-.2 35.288c-.876 5.822-4.625 12.19-11.18 18.961a106.836 106.836 0 01-17.202 14.006z" fill="#f4f7fa"/><path d="M1318.353 1542.174l-27.28.243a3.758 3.758 0 00-3.806 3.651v17.479a3.523 3.523 0 003.792 3.438l27.184-1.113a3.661 3.661 0 003.512-3.577l.086-16.7a3.419 3.419 0 00-3.488-3.421z" transform="translate(-1148.704 -1485.419)" fill="url(#bi)"/><path d="M1446.111 1617.387a3.377 3.377 0 00-3.674-3.328 3.608 3.608 0 00-3.378 3.3 3.286 3.286 0 001.759 3.105 1.218 1.218 0 01.611 1.3l-.789 4.416a.888.888 0 00.932 1.036l2-.07a.96.96 0 00.931-1.1l-.763-4.374a1.3 1.3 0 01.651-1.324 3.487 3.487 0 001.72-2.961z" transform="translate(-1286.369 -1550.609)" fill="url(#bh)"/><path d="M1343.655 1373.78a1.456 1.456 0 01-1.478-1.454l.017-3.807a7.075 7.075 0 00-7.085-7.009l-8.9-.088a7.238 7.238 0 00-7.434 7.084v3.928a1.563 1.563 0 01-1.588 1.52 1.543 1.543 0 01-1.592-1.506v-3.944a10.3 10.3 0 0110.622-10.085l8.908.124a10.068 10.068 0 0110.041 9.978l-.018 3.792a1.488 1.488 0 01-1.493 1.467z" transform="translate(-1174.388 -1318.758)" fill="url(#bk)"/></svg>