<svg xmlns="http://www.w3.org/2000/svg" xmlns:xlink="http://www.w3.org/1999/xlink" width="279.302" height="277.919"><defs><linearGradient id="a" x1=".427" y1="-.015" x2=".75" y2="2.075" gradientUnits="objectBoundingBox"><stop offset=".004" stop-color="#e38ddd"/><stop offset="1" stop-color="#9571f6"/></linearGradient><linearGradient id="b" x1=".964" y1=".169" x2=".083" y2=".815" gradientUnits="objectBoundingBox"><stop offset="0" stop-color="#ff9085"/><stop offset="1" stop-color="#fb6fbb"/></linearGradient><linearGradient id="c" x1="1.21" y1=".022" x2=".011" y2="1.005" gradientUnits="objectBoundingBox"><stop offset="0" stop-color="#ffc444"/><stop offset=".996" stop-color="#f36f56"/></linearGradient><linearGradient id="h" y1=".5" x2="1" y2=".5" gradientUnits="objectBoundingBox"><stop offset=".494" stop-color="#ebeff2"/><stop offset="1" stop-color="#fff"/></linearGradient><linearGradient id="i" x1=".886" y1="1.223" x2=".073" y2="-.017" gradientUnits="objectBoundingBox"><stop offset="0" stop-color="#610caa"/><stop offset="1" stop-color="#001cc4"/></linearGradient><linearGradient id="j" x1=".507" y1=".732" x2=".152" y2="-.233" xlink:href="#i"/><linearGradient id="k" x1=".394" y1=".492" x2=".072" y2="-.086" gradientUnits="objectBoundingBox"><stop offset="0" stop-color="#13189d"/><stop offset="1" stop-color="#314eff"/></linearGradient><linearGradient id="l" x1=".49" y1="1.02" x2=".555" y2="-.407" xlink:href="#c"/><linearGradient id="m" x1=".689" y1=".642" x2="-.157" y2="-.471" xlink:href="#c"/><linearGradient id="n" x1="1.159" y1=".264" x2="-.013" y2=".974" gradientUnits="objectBoundingBox"><stop offset="0" stop-color="#444b8c"/><stop offset=".996" stop-color="#26264f"/></linearGradient><linearGradient id="o" x1="1.219" y1="-.079" x2="-2.301" y2="2.973" xlink:href="#c"/><linearGradient id="p" x1="1.142" y1=".381" x2="-.201" y2=".535" xlink:href="#k"/><linearGradient id="q" x1=".004" y1="1.03" x2="-5.253" y2="8.332" xlink:href="#n"/><linearGradient id="r" x1="-.777" y1=".888" x2="1.524" y2="-.718" gradientUnits="objectBoundingBox"><stop offset="0" stop-color="#7615c9"/><stop offset="1" stop-color="#001cc4"/></linearGradient><linearGradient id="s" x1=".537" y1=".511" x2="2.13" y2=".332" xlink:href="#i"/><linearGradient id="t" x1=".787" y1="1.095" x2=".269" y2="-.516" xlink:href="#i"/><linearGradient id="u" x1=".239" y1=".594" x2="1.013" y2=".292" xlink:href="#n"/><linearGradient id="v" x1=".171" y1=".623" x2="1.081" y2=".281" xlink:href="#n"/><linearGradient id="w" x1=".738" y1="-.076" x2="-.314" y2="1.767" xlink:href="#c"/><linearGradient id="x" x1=".212" y1="-.218" x2=".984" y2="1.762" xlink:href="#c"/><linearGradient id="y" x1=".823" y1="-.524" x2="-.355" y2="1.138" xlink:href="#i"/><clipPath id="d"><path d="M624.948 1434.666c2.093-.912 5.841-4.741 6.407-6.142 3.764-9.323 11.946-26.321 8.389-36.337-.608-1.71-8.854-1.069-10.408-2.35-5.357-.867-7.269-.836-11.957-4.162-13.84-9.82 2.323-40.491-27.017-41.109-21.492-.452-36.162 11.164-42.918-20.036s-47.182-79.894-73.286-49.187c-14.981 17.623 11.381 38.171 7.412 60.122-3.772 20.86 8.311 33.625 30.852 38.945s14.636 16.733 14.035 35.69c-.722 22.772 32.36 17.169 47.412 13.28 12.121-3.131 45.099-2.928 51.079 11.286z" transform="translate(-469.508 -1265.572)" fill="url(#a)"/></clipPath><clipPath id="e"><path d="M1056.444 704.736c2.389.077 7.655-1.863 8.819-2.935 7.747-7.131 23.118-19.54 24.249-30.613.193-1.891-7.9-4.986-8.792-6.9-4.679-3.225-6.5-4.054-9.444-9.305-8.686-15.5 20.375-37.266-7.108-51.022-20.13-10.076-39.225-5.671-31.611-38.223s-8.775-96.769-47.256-79.436c-22.085 9.948-6.367 41.223-19.977 60.21-12.933 18.042-7.231 35.544 11.707 50.7s6.336 22.4-2.743 40.068c-10.905 21.22 22.909 30.771 38.9 33.848 12.869 2.48 43.979 17.472 43.256 33.608z" transform="translate(-958.347 -483.391)" fill="url(#b)"/></clipPath><clipPath id="f"><path d="M2043.133 1985.45a13.164 13.164 0 01-4.482-4.3c-2.633-6.522-8.357-18.412-5.868-25.419.425-1.2 6.194-.748 7.281-1.644 3.748-.606 5.085-.585 8.364-2.911 9.681-6.869-1.625-28.325 18.9-28.757 15.034-.316 25.3 7.809 30.023-14.016s33.005-55.888 51.266-34.408c10.48 12.328-7.961 26.7-5.185 42.058 2.639 14.592-5.814 23.522-21.582 27.244s-10.239 11.705-9.818 24.967c.505 15.93-22.637 12.011-33.167 9.29-8.479-2.189-31.548-2.047-35.732 7.896z" transform="translate(-2032.171 -1867.162)" fill="#e1d1ef"/></clipPath><clipPath id="g"><path d="M2058.807 1460.009a13.782 13.782 0 01-5.916-2.7c-4.858-5.536-14.628-15.31-14.591-23.1.006-1.33 5.864-2.881 6.628-4.143 3.494-1.9 4.824-2.336 7.261-5.77 7.194-10.138-11.4-27.436 8.737-34.961 14.751-5.512 27.705-1.029 24.83-24.236s13.3-66.657 38.776-51.74c14.622 8.561 1.364 29.147 9.419 43.365 7.654 13.511 2.387 25.261-11.912 34.392s-6.073 15.111-1.071 28.074c6.008 15.571-18.222 19.7-29.571 20.652-9.139.774-31.897 8.892-32.59 20.167z" transform="translate(-2038.3 -1310.317)" fill="url(#c)"/></clipPath></defs><path d="M211.989 16.7c9.373 13.418-1.617 35.172 12.291 45.263 13.538 9.823 30.17-6.278 42.929 2.177 18.927 12.544 15.471 69.941-12.2 105.6-8.322 10.725-15.276 14.9-18.355 27.027-6.613 26.045 16.628 41.538 12.206 54.419-9.959 29-163.115 53.342-224.568-33.825-28.7-40.71-33-99.5-7.352-144.144C63.275-7.454 190.958-13.4 211.989 16.7z" fill="#f4f7fa"/><path d="M155.548 251.826c2.093-.912 5.841-4.741 6.407-6.142 3.764-9.323 11.946-26.321 8.389-36.337-.608-1.71-8.854-1.069-10.408-2.35-5.357-.867-7.269-.836-11.957-4.162-13.84-9.82 2.323-40.491-27.017-41.109-21.492-.452-36.162 11.164-42.918-20.036S30.862 61.796 4.758 92.503c-14.981 17.623 11.381 38.171 7.412 60.122-3.772 20.86 8.311 33.625 30.852 38.945s14.636 16.733 14.035 35.69c-.722 22.772 32.36 17.169 47.412 13.28 12.121-3.131 45.099-2.928 51.079 11.286z" fill="#92b2f8"/><g clip-path="url(#d)" transform="translate(.108 82.732)"><g style="mix-blend-mode:soft-light;isolation:isolate" fill="#fcfdfe"><path d="M166.024 145.741l.083-.478C92.431 132.538 34.287 77.48 10.575-2.018l-.465.139c11.238 37.676 31 71.116 57.153 96.7a186.162 186.162 0 0098.761 50.92z"/><path d="M55.563 153.957c16.884-11.538 48.049-20.763 69.47-20.563v-.485c-21.506-.2-52.795 9.062-69.748 20.647zm96.027-10.88l.212-.437c-10.018-4.862-17.193-14.6-21.326-28.948-3.031-10.52-4.385-23.226-4.026-37.765l-.485-.012c-.36 14.589 1 27.344 4.045 37.911 4.172 14.485 11.433 24.329 21.58 29.251zm-87.899-52.03l.234-.425c-18.412-10.136-40.4-7.9-55.6-4.231l.114.472c15.118-3.645 36.977-5.877 55.252 4.184zM34.207 53.028l.455-.169c-8.225-22.2-.976-45.975 4.078-58.169l-.449-.186c-5.08 12.265-12.367 36.165-4.084 58.524z"/></g></g><path d="M148.099 224.243c2.389.077 7.655-1.863 8.819-2.935 7.747-7.131 23.118-19.54 24.249-30.613.193-1.891-7.9-4.986-8.792-6.9-4.679-3.225-6.5-4.054-9.444-9.305-8.686-15.5 20.375-37.266-7.108-51.022-20.13-10.076-39.225-5.671-31.611-38.223s-8.775-96.769-47.256-79.436c-22.085 9.948-6.367 41.223-19.977 60.21-12.933 18.042-7.231 35.544 11.707 50.7s6.336 22.4-2.743 40.068c-10.905 21.22 22.909 30.771 38.9 33.848 12.869 2.48 43.979 17.472 43.256 33.608z" fill="#7461d9" stroke="#5845cd" opacity=".689"/><g clip-path="url(#e)" transform="translate(50.002 2.898)"><g style="mix-blend-mode:soft-light;isolation:isolate" fill="#fcfdfe"><path d="M118.594 204.001l.293-.415C54.893 158.473 24.599 80.281 37.851-5.578l-.5-.078c-6.28 40.691-2.593 81.2 10.663 117.148a194.95 194.95 0 0070.58 92.509z"/><path d="M10.396 162.19c21.154-3.337 54.78 1.926 74.957 11.731l.222-.457c-20.257-9.844-54.018-15.126-75.259-11.776zm95.738 32.811l.4-.318c-7.3-9.1-9.712-21.533-7.182-36.962 1.855-11.313 6.277-23.942 13.144-37.537l-.454-.229c-6.89 13.641-11.328 26.32-13.191 37.684-2.558 15.577-.107 28.148 7.283 37.362zm-59.805-88.685l.412-.3C33.871 88.161 12.063 80.41-3.966 77.052l-.1.5c15.937 3.341 37.625 11.042 50.395 28.764zM35.5 57.111l.506.045c2.184-24.7 19.715-43.935 29.971-53.2l-.341-.377C55.325 12.894 37.7 32.24 35.5 57.111z"/></g></g><path d="M170.565 262.422a13.164 13.164 0 01-4.482-4.3c-2.633-6.522-8.357-18.412-5.868-25.419.425-1.2 6.194-.748 7.281-1.644 3.748-.606 5.085-.585 8.364-2.911 9.681-6.869-1.625-28.325 18.9-28.757 15.034-.316 25.3 7.809 30.023-14.016s33.005-55.888 51.266-34.408c10.48 12.328-7.961 26.7-5.185 42.058 2.639 14.592-5.814 23.522-21.582 27.244s-10.239 11.705-9.818 24.967c.505 15.93-22.637 12.011-33.167 9.29-8.479-2.189-31.548-2.047-35.732 7.896z" fill="#e1d1ef"/><g clip-path="url(#f)" transform="translate(159.603 144.134)"><g style="mix-blend-mode:soft-light;isolation:isolate" fill="#e1d1ef"><path d="M3.559 101.951l-.058-.334c51.539-8.9 92.212-47.417 108.8-103.028l.325.1c-7.861 26.356-21.686 49.748-39.98 67.647a130.225 130.225 0 01-69.087 35.615z"/><path d="M80.831 107.7c-11.811-8.071-33.611-14.524-48.6-14.384v-.339c15.044-.14 36.931 6.339 48.791 14.443zm-67.175-7.613l-.148-.306c7.008-3.4 12.027-10.214 14.918-20.25 2.12-7.359 3.067-16.247 2.816-26.418l.34-.008c.252 10.206-.7 19.128-2.83 26.52-2.918 10.133-7.998 17.017-15.096 20.462zM75.144 63.69l-.164-.3c12.88-7.09 28.26-5.523 38.9-2.96l-.08.331c-10.58-2.548-25.872-4.109-38.656 2.929zm20.625-26.595l-.318-.118c5.754-15.531.682-32.161-2.853-40.691l.314-.13c3.554 8.576 8.652 25.297 2.857 40.939z"/></g></g><path d="M180.736 236.991a13.782 13.782 0 01-5.916-2.7c-4.858-5.536-14.628-15.31-14.591-23.1.006-1.33 5.864-2.881 6.628-4.143 3.494-1.9 4.824-2.336 7.261-5.77 7.194-10.138-11.4-27.436 8.737-34.961 14.751-5.512 27.705-1.029 24.83-24.236s13.3-66.657 38.776-51.74c14.622 8.561 1.364 29.147 9.419 43.365 7.654 13.511 2.387 25.261-11.912 34.392s-6.073 15.111-1.071 28.074c6.008 15.571-18.222 19.7-29.571 20.652-9.139.774-31.897 8.892-32.59 20.167z" fill="#7461d9"/><g clip-path="url(#g)" transform="translate(160.229 87.299)"><g style="mix-blend-mode:soft-light;isolation:isolate" fill="#fcfdfe"><path d="M7.539 136.105l-.173-.311C55.232 109.172 82.117 57.036 79.283-3.67l.355-.017c1.343 28.771-4.233 56.673-16.126 80.692a136.374 136.374 0 01-55.973 59.1z"/><path d="M85.907 115.067c-14.466-3.894-38.246-2.734-53.01 2.587l-.121-.335c14.822-5.341 38.7-6.505 53.224-2.6zm-69.032 15.705l-.252-.251c5.751-5.785 8.356-14.256 7.743-25.176-.449-8.007-2.586-17.12-6.352-27.087l.333-.126c3.778 10 5.923 19.15 6.374 27.193.619 11.026-2.021 19.583-7.846 25.447zm48.193-57.241l-.265-.237c10.279-11.463 26.025-15.232 37.424-16.377l.035.354c-11.336 1.138-26.991 4.879-37.194 16.26zm11.19-33.42l-.355-.007C76.22 22.762 65.456 8.078 59.011.869l.265-.237c6.479 7.248 17.301 22.016 16.982 39.479z"/></g></g><path d="M1626.136 1422.7l-18.606-3.1-11.126 6.663-18.754-6.158s-16.549 2.194-16.909 2.078l17.708 164.958a41.557 41.557 0 0018.577 4.883 104.488 104.488 0 0018.988-.969c5.294-12.239 20.866-49.947 29.508-89.068 10.524-47.63-19.386-79.287-19.386-79.287z" transform="translate(-1449.254 -1321.156)" fill="url(#h)"/><path d="M1036.316 1580.313s-7.559 3.73-11.444 36.621 7.148 48.26 11.863 58.993 26.912-13.615 36.448-22.928-21.539-73.299-36.867-72.686z" transform="translate(-967.349 -1465.453)" fill="url(#i)"/><path d="M2328.566 1480.051c.013-.5 4.86-8.541 4.86-8.541s13.142 5.947 24.813 34.673 13.036 56.622 8.6 65.44-33.747-8.659-39.554-20.9 1.281-70.672 1.281-70.672z" transform="translate(-2135.509 -1367.759)" fill="url(#j)"/><path d="M2118.346 1488.407c-4.038-17.8-13.859-56.51-13.859-56.51l-34.448-4.5s28.758 44.352 25.5 81.594c-2.774 31.733-20.28 76.828-25.4 89.475a100.214 100.214 0 0011.177-1.888c6.089-15.238 40.761-91.719 37.03-108.171z" transform="translate(-1906.57 -1328.147)" fill="url(#k)"/><path d="M1719.135 1135.147s-2.49 25.767-3.26 30.083l20.836 8.045 10.572-7.022-6.047-27.7z" transform="translate(-1588.555 -1065.728)" fill="url(#l)"/><path d="M1757.114 937.3c.345.256 2.608 16.814 2.415 19.577s2.723 8.987 2.723 8.987-9.269 5.372-14.193 4.434-12.512-11.426-13.877-15.433 7.175-13.3 7.175-13.3z" transform="translate(-1604.86 -888.071)" fill="url(#m)"/><path d="M1615.99 765.694s3.965 13.443 5.052 13.9c8.754 3.7 20.365 6.108 23.9-.564 2.191-4.13.357-10.223-3.621-15.284-.646.657-5.515 5.46-12.013 4.622-6.65-.857-12.3-7.271-12.684-15.521a2.187 2.187 0 011.356-2.933c2.2-.816 13.1-6.529 15.625-6.358s5.719 1.25 7.191 1.222 5.229-2.416 4.843-7.276-4.431-5.286-4.431-5.286a10.278 10.278 0 006.006-5.372c1.762-4.033.655-9.362-2.047-10.658-2.149-1.031-4.321.963-14.771 8.1-8.927 6.1-13.391 9.146-15.555 10.458-8.161 4.949-11.528 5.985-13.16 10.177a13.4 13.4 0 00-.058 8.726c2.783 9.193 13.632 11.877 14.367 12.047z" transform="translate(-1485.325 -689.302)" fill="url(#n)"/><path d="M1712.3 1144.719s-1.344-3.441-3.285-2.5 2.017 6.139 4.813 6.992z" transform="translate(-1581.933 -1071.929)" fill="url(#o)"/><path d="M2078.256 1455.58s2.885-14.037 2.931-14.549c.036-.4-16.29-20.08-23.569-28.391l-9.581-2s29.993 46.062 26.738 83.3c-2 22.888-10.654 52.725-17.807 72.327 30.165-61.483 33.9-98.929 33.9-98.929z" transform="translate(-1886.815 -1313.106)" fill="url(#p)"/><path d="M1853.137 1463.3l-4.632-9.847s5.087-2.546 12.7-.438l-2.372 9.432a3 3 0 01-2.63 2.559 3 3 0 01-3.066-1.706z" transform="translate(-1707.648 -1350.399)" fill="url(#q)"/><path d="M150.035 100.352l9.347 13.219 4.087-14.323-4.74-5.318zm-23.061-5.557l-2.972 4.739 13.861 14.8 5.828-13.3z" fill="#fff"/><path d="M1199.187 1430.206c-27.679 1.438-55.035 15.325-55.035 15.325 23.231 21.961 42.877 107.242 50.3 143.153a36.483 36.483 0 0015.611 10.5c8.537-68.984-10.876-168.978-10.876-168.978z" transform="translate(-1075.185 -1330.671)" fill="url(#r)"/><path d="M1610.128 1583.84s11.746-119.44-12.233-153.634l-9.715 27.592 12.281 15.347-8.863 14.836s20.637 37.44 18.53 95.859z" transform="translate(-1473.893 -1330.671)" fill="url(#s)"/><path d="M1089.418 1723.384c-.233-.545-12.273-27.394-2.335-39.391s54.711-30.576 71.941-48.606c0 0 4.545.793 5.6 3.581 0 0-30.4 76.375-68.559 88.695.003 0-4.222 1.388-6.647-4.279z" transform="translate(-1020.417 -1514.91)" fill="url(#t)"/><path d="M1375.816 1546.607c5.635 15.493 3.673 24.839.689 30.573-5.433 10.437-14.962 10.261-38.995 27.051-21.042 14.7-22.382 20.876-21.947 24.365.616 4.941 4.918 5.49 8.681 15.5 2.621 6.972 2.365 11.575 5.041 12.31 2.214.609 4.257-2.03 8.424-5.513a65.124 65.124 0 0114.867-9.284 37.386 37.386 0 012.413-10.5c6.911-17.665 22.777-16.838 33.008-33.019 6.176-9.768 9.426-24.356 3.961-36.777a35.3 35.3 0 00-13.095-15.016z" transform="translate(-1229.046 -1434.918)" fill="url(#u)"/><path d="M1495.106 1676.012a30.52 30.52 0 00-.965-1.979c1.52 12.259.75 26-7.609 35.578-11.143 12.774-27.022 8.134-40.245 18.417-7.787 6.055-14.956 17.526-15.913 40.747.481 1.253 1.069 2.055 2.059 2.327 2.214.609 4.257-2.03 8.424-5.513a65.121 65.121 0 0114.867-9.284 37.392 37.392 0 012.413-10.5c6.911-17.665 22.777-16.838 33.008-33.019 6.175-9.766 9.425-24.353 3.961-36.774z" transform="translate(-1332.193 -1549.612)" opacity=".3" fill="url(#v)" style="mix-blend-mode:multiply;isolation:isolate"/><path d="M1836.167 1506.4s2.031-9.851 6.3-12.312 13.65-2.92 13.65-2.92-3.453 6.788-6.439 7.483-9.073 4.051-9.364 7.237-4.147 2.046-4.147.512z" transform="translate(-1696.569 -1385.411)" fill="url(#w)"/><path d="M1983.043 1835.826s-4.144-9.594-9.382-12.441-10.741-1.681-10.825-.86-.881 5.51 2.808 6.65a27.094 27.094 0 019.687 5.987 36.624 36.624 0 005.666 4.245z" transform="translate(-1810.193 -1682.097)" fill="url(#x)"/><path d="M2125.1 1939.151l-5.128 7.56a757.627 757.627 0 0014.9 17.828c15.617 18.1 23.554 25.526 33.879 28.649 2.889.874 9.06 2.654 12.726-.495.538-.462 2.089-1.947 2.731-5.764 1.395-8.287-3.491-15.669-5.125-18.137-6.827-10.322-26.56-21.737-53.983-29.641z" transform="translate(-1951.407 -1787.67)" fill="url(#y)"/></svg>