<svg xmlns="http://www.w3.org/2000/svg" xmlns:xlink="http://www.w3.org/1999/xlink" width="310.777" height="302.922"><defs><linearGradient id="a" y1=".5" x2="1" y2=".5" gradientUnits="objectBoundingBox"><stop offset="0" stop-color="#ff9085"/><stop offset="1" stop-color="#fb6fbb"/></linearGradient><linearGradient id="b" x1=".687" y1=".115" x2=".419" y2=".779" gradientUnits="objectBoundingBox"><stop offset=".004" stop-color="#e38ddd"/><stop offset="1" stop-color="#9571f6"/></linearGradient><linearGradient id="f" y1=".5" x2="1" y2=".5" gradientUnits="objectBoundingBox"><stop offset=".494" stop-color="#ebeff2"/><stop offset="1" stop-color="#fff"/></linearGradient><linearGradient id="g" x1=".329" y1=".554" x2="-.255" y2=".738" gradientUnits="objectBoundingBox"><stop offset="0" stop-color="#13189d"/><stop offset="1" stop-color="#314eff"/></linearGradient><linearGradient id="h" x1=".727" y1=".007" x2=".207" y2="1.135" xlink:href="#g"/><linearGradient id="i" x1=".636" y1="1.231" x2=".531" y2=".666" xlink:href="#g"/><linearGradient id="j" x1=".409" y1=".31" x2=".858" y2="1.247" xlink:href="#g"/><linearGradient id="k" x1=".253" y1=".019" x2=".711" y2="1.039" xlink:href="#g"/><linearGradient id="l" x1=".464" y1=".369" x2="1.215" y2="1.306" xlink:href="#g"/><linearGradient id="v" x1=".5" y1="0" x2=".5" y2="1" xlink:href="#g"/><linearGradient id="w" x1=".253" y1=".019" x2=".711" y2="1.039" gradientUnits="objectBoundingBox"><stop offset="0" stop-color="#13189d"/><stop offset="1" stop-color="#061a93"/></linearGradient><linearGradient id="y" x1="-303.437" y1="-51.618" x2="-304.719" y2="-48.478" gradientUnits="objectBoundingBox"><stop offset=".004" stop-color="#f36f56"/><stop offset="1" stop-color="#ffc444"/></linearGradient><linearGradient id="z" x1="16.106" y1=".349" x2="16.248" y2="3.995" xlink:href="#b"/><linearGradient id="aa" x1="62.154" y1="18.085" x2="63.36" y2="18.085" xlink:href="#y"/><linearGradient id="ab" x1="33.815" y1="12.157" x2="32.173" y2="18.448" xlink:href="#b"/><linearGradient id="ac" x1="10.039" y1=".274" x2="8.84" y2=".87" gradientUnits="objectBoundingBox"><stop offset="0" stop-color="#444b8c"/><stop offset=".996" stop-color="#26264f"/></linearGradient><linearGradient id="ad" x1="27.91" y1="-35.267" x2="26.669" y2="-22.368" xlink:href="#b"/><linearGradient id="ae" x1="39.541" y1="-17.467" x2="40.509" y2="-17.467" xlink:href="#y"/><linearGradient id="af" x1="10.561" y1="3.089" x2="8.858" y2="2.569" xlink:href="#ac"/><linearGradient id="ag" x1="3.4" y1="2.582" x2="2.505" y2="3.198" xlink:href="#ac"/><linearGradient id="ah" x1="4.083" y1="2.583" x2="2.924" y2="3.193" xlink:href="#ac"/><linearGradient id="ai" x1="-111.226" y1="4.539" x2="-111.343" y2="3.445" xlink:href="#ac"/><linearGradient id="aj" x1="17.635" y1="-2.345" x2="17.834" y2="1.726" xlink:href="#y"/><linearGradient id="ak" x1="90.483" y1="31.665" x2="91.935" y2="33.251" xlink:href="#y"/><linearGradient id="al" x1="-175.216" y1="-12.202" x2="-175.991" y2="-8.9" xlink:href="#y"/><linearGradient id="am" x1="5.287" y1=".065" x2="5.33" y2="1.467" xlink:href="#b"/><linearGradient id="an" x1="7.187" y1=".5" x2="8.187" y2=".5" xlink:href="#b"/><linearGradient id="ao" x1="47.226" y1=".268" x2="47.488" y2="1.66" gradientUnits="objectBoundingBox"><stop offset="0" stop-color="#ffc444"/><stop offset=".996" stop-color="#f36f56"/></linearGradient><linearGradient id="ap" x1="-47.921" y1="27.205" x2="-47.706" y2="29.011" xlink:href="#ao"/><linearGradient id="aq" x1="-11.962" y1="2.394" x2="-11.571" y2="3.909" xlink:href="#g"/><linearGradient id="ar" x1="-195.284" y1="6.851" x2="-195.284" y2="-2.69" xlink:href="#ao"/><linearGradient id="as" x1="-32.409" y1=".361" x2="-32.58" y2="1.326" gradientUnits="objectBoundingBox"><stop offset="0" stop-color="#311944"/><stop offset="1" stop-color="#893976"/></linearGradient><linearGradient id="au" x1="-91.495" y1="4.832" x2="-92.483" y2=".858" xlink:href="#ac"/><linearGradient id="av" x1="-35.524" y1="64.82" x2="-35.524" y2="54.717" xlink:href="#ao"/><linearGradient id="aw" x1="-48.615" y1="28.681" x2="-50.651" y2="25.9" xlink:href="#ac"/><linearGradient id="ax" x1="14.626" y1=".532" x2="12.214" y2=".475" xlink:href="#as"/><linearGradient id="ay" x1="6.062" y1="-.387" x2="6.297" y2=".92" xlink:href="#g"/><linearGradient id="az" x1="10.281" y1="2.692" x2="10.744" y2="4.458" xlink:href="#a"/><linearGradient id="ba" x1="-52.843" y1="1.705" x2="-53.495" y2="2.565" xlink:href="#ao"/><linearGradient id="bb" x1="8.472" y1=".252" x2="8.82" y2="1.822" xlink:href="#g"/><linearGradient id="bc" x1="-10.619" y1="1.346" x2="-10.086" y2=".264" gradientUnits="objectBoundingBox"><stop offset="0" stop-color="#311944"/><stop offset="1" stop-color="#6b3976"/></linearGradient><clipPath id="c"><path d="M1069.844 952.186c-9.794-9.19-22.716-24.116-28.564-45.221-7.669-27.678 3.569-41.666 2.3-88.526-.8-29.63-1.659-50.3-16.6-61.355-11.706-8.664-30.657-10.386-42.158-2.356-9.563 6.677-15.1 20.879-16.784 31.016-1.376 8.262-.271 14.26-5.033 18.612-4.867 4.448-10.121 1.93-14.672 5.224-9.229 6.681-3.885 28.81-3.022 32.387 9.608 39.785 46.266 66.617 62.4 78.129a247.952 247.952 0 0062.133 32.09z" transform="translate(-942.995 -749.553)" fill="url(#a)"/></clipPath><clipPath id="e"><path d="M626.246 1299.2c-21.076 2.331-48.259 2.294-75.22-6.682-6.88-2.291-49.386-16.442-46.509-35.431 1.013-6.689 6.8-8.329 8.313-17.248 1.79-10.569-5.191-15.031-10.989-27.369-3.46-7.362-13.586-28.908-1.477-42.676 7.236-8.227 22.085-13.3 33.944-11.8 17.395 2.2 24.949 18.128 37.265 45.3 10.917 24.083 9.413 30.429 17.577 47.633 6.058 12.761 16.771 30.095 37.096 48.273z" transform="translate(-494.58 -1157.729)" fill="url(#b)"/></clipPath></defs><path d="M279.838 64.134C214.899-15.13 61.158-19.561 15.952 43.308c-24.908 34.64-14.5 86.421-9.364 111.97 9.451 47.017 32.755 77.285 37.844 83.706 12.348 15.579 42.34 53.421 87.466 62.071 77.107 14.78 173.315-60.472 178.645-145.374 3.073-48.948-25.091-84.694-30.705-91.547z" fill="#f4f7fa"/><path d="M182.079 235.105c-9.794-9.19-22.716-24.116-28.564-45.221-7.669-27.678 3.569-41.666 2.3-88.526-.8-29.63-1.659-50.3-16.6-61.355-11.706-8.664-30.657-10.386-42.158-2.356-9.563 6.677-15.1 20.879-16.784 31.016-1.376 8.262-.271 14.26-5.033 18.612-4.867 4.448-10.121 1.93-14.672 5.224-9.229 6.681-3.885 28.81-3.022 32.387 9.608 39.785 46.266 66.617 62.4 78.129a247.952 247.952 0 0062.133 32.09z" fill="#9b8fe3"/><g clip-path="url(#c)" transform="translate(55.23 32.472)"><g opacity=".5" style="mix-blend-mode:soft-light;isolation:isolate" fill="#fff"><path d="M138.05 209.958c-17.074-6.488-31.77-14.227-43.678-23-17.627-12.99-28.607-27.914-32.632-44.356-3.148-12.857-1.98-26.792-.5-44.435a248.094 248.094 0 015.341-33.916c2.5-11.717 4.474-20.971 3.1-34.353a101.99 101.99 0 00-13.33-40.182l.659-.376a102.734 102.734 0 0113.426 40.48c1.382 13.5-.6 22.806-3.116 34.588a247.425 247.425 0 00-5.326 33.817c-1.53 18.264-2.636 31.458.483 44.195 8.481 34.64 45.925 55.462 75.843 66.831z"/><path d="M62.537 87.9l-.122-.411C54.532 61.026 40.376 44.47 29.888 35.241 18.534 25.25 8.94 21.468 8.845 21.431l.274-.707c.1.037 9.817 3.868 21.27 13.948 10.507 9.246 24.668 25.79 32.627 52.181a70.185 70.185 0 0018.876-13.987c8.839-9.1 19.5-25 20.063-49l.758.018c-.574 24.267-11.356 40.333-20.3 49.537a69.477 69.477 0 01-19.484 14.311z"/><path d="M60.317 127.381l-.264-.078c-12.869-3.777-27.476-18.59-43.416-44.028A353.649 353.649 0 01-3.482 46.146l.691-.312A352.957 352.957 0 0017.284 82.88c15.505 24.743 30.269 39.815 42.72 43.618a202.175 202.175 0 0121.982-26.123c12.474-12.24 41.511-16.466 41.8-16.508l.106.751c-.289.041-29.082 4.234-41.378 16.3a201.07 201.07 0 00-22.045 26.237z"/><path d="M89.583 183.36l-.75-.089a178.074 178.074 0 01-33.517-8.38c-17.449-6.084-42.36-17.637-61.942-38.126l-37.808-39.561.548-.524 37.808 39.557c19.473 20.374 44.26 31.87 61.625 37.927a182.553 182.553 0 0032.627 8.249 35.353 35.353 0 01-4.354-22.763 46.1 46.1 0 018.113-19.279 78.748 78.748 0 0117.58-17.872l.431.624a77.908 77.908 0 00-17.4 17.7c-9.939 14.372-11.062 28.463-3.338 41.882z"/></g></g><path d="M626.246 1299.2c-21.076 2.331-48.259 2.294-75.22-6.682-6.88-2.291-49.386-16.442-46.509-35.431 1.013-6.689 6.8-8.329 8.313-17.248 1.79-10.569-5.191-15.031-10.989-27.369-3.46-7.362-13.586-28.908-1.477-42.676 7.236-8.227 22.085-13.3 33.944-11.8 17.395 2.2 24.949 18.128 37.265 45.3 10.917 24.083 9.413 30.429 17.577 47.633 6.058 12.761 16.771 30.095 37.096 48.273z" transform="translate(-488.783 -1080.26)" fill="url(#b)"/><g clip-path="url(#e)" transform="translate(5.797 77.469)"><g opacity=".5" style="mix-blend-mode:soft-light;isolation:isolate" fill="#fff"><path d="M172.408 148.067a125.878 125.878 0 01-16.757-1.116c-29.172-3.913-55.617-18.389-78.6-43.027-23.893-25.612-38.062-55.8-45.742-76.609-5.35-14.5-6.33-31.052-2.911-49.2l.745.14c-3.392 18.01-2.424 34.428 2.878 48.8 9.339 25.31 45.862 108.7 123.732 119.147 21.763 2.92 44.188.066 66.651-8.482l.269.708a140.931 140.931 0 01-50.265 9.639z"/><path d="M50.766 67.935l-.3-.155C1.955 43.096-1.092 9.234-.87-.556c0-.194.009-.32 0-.374l.753-.082a4.343 4.343 0 010 .473c-.219 9.658 2.791 43.017 50.613 67.487a87.97 87.97 0 008.549-19.353c3.3-10.735 5.94-26.937-.189-43.16l.709-.268c6.208 16.432 3.534 32.819.2 43.672a87.073 87.073 0 01-8.812 19.811z"/><path d="M49.942 107.221c-13.106 0-23-2.824-29.845-5.854C8.206 96.104 2.684 89.081 2.629 89.011l.6-.464c.053.069 5.486 6.965 17.22 12.147 10.808 4.773 29.318 9.026 56.189 2.228.822-2.477 9.046-28.547 3.069-61.7l-6.347-35.2.746-.135 6.347 35.2c6.292 34.894-3.069 62.006-3.164 62.276l-.068.191-.2.05a109.675 109.675 0 01-27.079 3.617z"/></g></g><path d="M306.955 273.671l-290.648-2.512v7.434a3.948 3.948 0 002.985 4.039l82.186 14.638a11.383 11.383 0 002.949.137l199.369-16.689a3.76 3.76 0 003.158-3.943z" fill="#bfc8d6"/><path d="M199.996 261.76l-184.73 13.6a5.6 5.6 0 01-5.993-5.776V132.019a6.111 6.111 0 015.993-6.217h184.73c2.723 0 4.925 2.516 4.925 5.62v124.355c.001 3.104-2.201 5.782-4.925 5.983z" fill="#bfc8d6"/><path d="M202.941 261.76l-184.73 13.6a5.6 5.6 0 01-5.993-5.776V132.019a6.111 6.111 0 015.993-6.217h184.73c2.723 0 4.925 2.516 4.925 5.62v124.355c.001 3.104-2.201 5.782-4.925 5.983z" fill="#fff"/><path d="M197.187 252.992L25.13 264.804a4.59 4.59 0 01-4.876-4.741V139.627a5.007 5.007 0 014.876-5.1l172.057-.742a4.346 4.346 0 014.064 4.605v109.7a4.749 4.749 0 01-4.064 4.902z" fill="#d8dee8"/><path d="M117.102 129.564a2.135 2.135 0 11-2.125-2.313 2.234 2.234 0 012.125 2.313z" fill="#fff"/><path d="M18.211 275.358l183.8-13.53.935-.069a4.96 4.96 0 003.254-1.647c-13.226-.724-21.441-5.417-26.74-10.267-10.642-9.74-8.8-19.344-20.272-25.748-14.314-7.987-25.569 2.133-36.431-7.852-6.585-6.054-3.352-10.568-11.455-19.615-8.975-10.02-14.818-6.652-23.837-15.67-11.4-11.4-5.7-20.275-15.524-28.462-11.917-9.932-24.769-.739-36.113-10.264-4.893-4.108-7.578-10.081-8.98-16.433h-8.631a6.111 6.111 0 00-5.993 6.217v137.563a5.6 5.6 0 005.987 5.777z" fill="#fff" opacity=".48" style="mix-blend-mode:soft-light;isolation:isolate"/><path d="M785.267 2822.274l-195.338 14.314 85.171 15.17a11.394 11.394 0 002.949.137l202.528-16.954-92.2-12.57a14.93 14.93 0 00-3.11-.097z" transform="translate(-573.622 -2561.269)" fill="url(#f)"/><path d="M44.81 275.441l162.625-12.094 50.331 6.806-161.224 12.928z" fill="#d8dee8"/><path d="M79.091 170.539a2.01 2.01 0 01-1.393-.541l-5.489-5.193a1.815 1.815 0 010-2.66 2.053 2.053 0 012.8-.006l3.81 3.614 8.8-12.1a2.006 2.006 0 012.716-.465 1.818 1.818 0 01.49 2.6l-10.11 13.944a2 2 0 01-1.441.807c-.066-.003-.125-.001-.183 0zm0 22.406a2.009 2.009 0 01-1.393-.541l-5.489-5.193a1.815 1.815 0 010-2.66 2.053 2.053 0 012.8-.007l3.81 3.614 8.8-12.1a2.006 2.006 0 012.716-.465 1.817 1.817 0 01.49 2.6l-10.11 13.945a2 2 0 01-1.441.807c-.066-.003-.125 0-.183 0zm0 23.242a2.01 2.01 0 01-1.393-.541l-5.489-5.193a1.815 1.815 0 010-2.66 2.053 2.053 0 012.8-.006l3.81 3.614 8.8-12.1a2.005 2.005 0 012.716-.465 1.817 1.817 0 01.49 2.6l-10.11 13.945a2 2 0 01-1.441.807c-.066-.005-.125-.002-.183-.001z" fill="#97a6b7"/><path d="M58.416 94.422v144.993c0 12.6-10.572 24-24.542 24.882l131.622-8.853c11.86-.753 21.422-10.778 21.422-22.4V99.331z" fill="#bfc8d6"/><path d="M188.017 233.507c0 11.623-9.481 21.648-21.341 22.4l-132.112 8.388c13.97-.887 25.124-11.813 25.124-24.417V94.887l128.329 4.909z" fill="#fff"/><path d="M164.082 116.631l-34.764-1.046v-3.99l34.764 1.14zm14.572 7.245l-49.336-1.249v-4.225l49.336 1.391zm0 6.579l-49.336-1.02v-3.991l49.336 1.155zm-72.165 17.341l-36.568-.3v-4.154l36.568.4zm-16.494 22.289l-17.2.12V154.11l17.2.063zm-15.182-2.087l12.611-.068v-11.591l-12.611-.029zm103.841-9.416l-81.534-.065v-4.319l81.534.3zm0 6.579l-81.534.315v-4.082l81.534-.092zm-88.659 28.553l-17.2.39V178.01l17.2-.208zm-15.182-1.849l12.611-.269v-11.591l-12.611.17zm103.841-11.052l-81.534 1.22v-4.319l81.534-.984zm0 6.579l-81.534 1.6v-4.079l81.534-1.378zm-88.659 29.95l-17.2.66v-16.095l17.2-.478zm-15.182-1.367l12.611-.471v-11.833l-12.611.371zm103.841-12.932l-81.534 2.506v-4.319l81.534-2.27zm0 6.578l-81.534 2.886v-4.079l81.534-2.663zm-88.659 31.347l-17.2.931v-16.094l17.2-.749zm-15.182-1.129l12.611-.67v-11.833l-12.611.571zm103.841-14.565l-81.534 3.791v-4.319l81.534-3.555zm0 6.578l-81.534 4.171v-4.079l81.534-3.948z" fill="#d8dee8"/><path d="M2568.911 729.265c0 14.222-11.12 25.409-25.333 24.972-14.792-.454-27.232-13.229-27.232-28.516s12.44-26.385 27.232-24.844c14.213 1.48 25.333 14.167 25.333 28.388z" transform="translate(-2290.987 -690.508)" fill="url(#g)"/><path d="M2603.75 718.142c0 14.221-11.12 25.409-25.333 24.972-14.792-.454-27.232-13.229-27.232-28.516s12.44-26.385 27.232-24.844c14.213 1.48 25.333 14.166 25.333 28.388z" transform="translate(-2321.985 -680.611)" fill="url(#h)"/><path d="M2613 727.964c0 13.6-10.64 24.272-24.218 23.832-14.1-.457-25.947-12.648-25.947-27.214s11.842-25.161 25.947-23.716c13.582 1.392 24.218 13.503 24.218 27.098z" transform="translate(-2332.355 -690.508)" fill="url(#i)"/><path d="M2619.59 734.977c0 13.147-10.3 23.458-23.419 23.018-13.615-.457-25.032-12.232-25.032-26.284s11.417-24.288 25.032-22.909c13.123 1.329 23.419 13.029 23.419 26.175z" transform="translate(-2339.74 -697.576)" fill="url(#j)"/><path d="M2700.03 750.33a1.431 1.431 0 011.263 1.4v2.421a35.6 35.6 0 014.2.728q1.549.364 3.077.866a1.415 1.415 0 01.964 1.453l-.3 3.035a1.138 1.138 0 01-1.625.944 17.516 17.516 0 00-2.064-.769 18.712 18.712 0 00-3.893-.728l-.357-.029v6.932c3.643 1.019 6.318 2.39 8.047 4.115a8.7 8.7 0 012.578 6.423 8.457 8.457 0 01-2.851 6.678q-2.87 2.529-8.065 2.84v2.672a1.215 1.215 0 01-1.265 1.234h-.022a1.343 1.343 0 01-1.269-1.34v-2.635l-.563-.025a36.973 36.973 0 01-4.672-.5 30.355 30.355 0 01-3.229-.742 1.391 1.391 0 01-1.013-1.439l.35-3.9a1.234 1.234 0 011.725-1.018 25.371 25.371 0 002.84.932 24.883 24.883 0 004.54.758l.022-7.711q-5.246-1.3-7.835-3.844a8.8 8.8 0 01-2.6-6.542 7.648 7.648 0 012.813-6.354c1.864-1.48 4.513-2.217 7.932-2.215v-2.47a1.143 1.143 0 011.272-1.17zm-1.268 9.253a4.27 4.27 0 00-2.527.891 2.6 2.6 0 00-.907 2.081 2.794 2.794 0 00.839 2.068 5.941 5.941 0 002.595 1.324zm2.238 13.963v7.071a3.912 3.912 0 002.7-.841 3.027 3.027 0 00.941-2.38 3.253 3.253 0 00-.875-2.327 6.423 6.423 0 00-2.766-1.523z" transform="translate(-2443.733 -734.631)" fill="url(#k)"/><path d="M2591.933 739.232c.791-7.815 7.974-11.123 7.036-18.311-.577-4.431-3.936-8.164-7.682-11.08-11.362 1.192-20.148 10.6-20.148 22.905 0 14.052 11.417 25.827 25.032 26.285a23.639 23.639 0 003.868-.189c-5.406-5.381-8.786-12.896-8.106-19.61z" transform="translate(-2339.74 -698.611)" opacity=".3" fill="url(#l)" style="mix-blend-mode:multiply;isolation:isolate"/><path d="M52.565 28.531c0 14.222-11.12 25.409-25.333 24.972C12.44 53.049 0 40.274 0 24.987S12.44-1.4 27.232.143c14.213 1.48 25.333 14.166 25.333 28.388z" transform="rotate(39 51.632 248.799)" fill="url(#g)"/><path d="M52.565 28.531c0 14.221-11.12 25.409-25.333 24.972C12.44 53.049 0 40.274 0 24.987S12.44-1.4 27.232.143c14.213 1.48 25.333 14.166 25.333 28.388z" transform="rotate(39 51.442 254.835)" fill="url(#h)"/><path d="M50.165 27.23c0 13.6-10.64 24.272-24.218 23.832C11.842 50.605 0 38.413 0 23.848S11.842-1.313 25.947.132C39.525 1.523 50.165 13.634 50.165 27.23z" transform="rotate(39 49.07 256.035)" fill="url(#i)"/><path d="M48.451 26.3c0 13.147-10.3 23.458-23.419 23.018C11.417 48.861 0 37.086 0 23.034S11.417-1.254 25.032.124C38.155 1.453 48.451 13.153 48.451 26.3z" transform="rotate(39 47.375 256.889)" fill="url(#j)"/><path d="M12.013.006a1.431 1.431 0 011.263 1.4v2.425a35.6 35.6 0 014.2.728q1.549.364 3.077.866a1.415 1.415 0 01.964 1.453l-.3 3.035a1.138 1.138 0 01-1.625.944 17.516 17.516 0 00-2.064-.769 18.712 18.712 0 00-3.893-.728l-.357-.029v6.932c3.643 1.019 6.318 2.39 8.047 4.115A8.7 8.7 0 0123.9 26.8a8.457 8.457 0 01-2.851 6.678q-2.87 2.529-8.065 2.84v2.672a1.215 1.215 0 01-1.265 1.234H11.7a1.343 1.343 0 01-1.269-1.34v-2.635l-.563-.025a36.973 36.973 0 01-4.672-.5 30.355 30.355 0 01-3.229-.742 1.391 1.391 0 01-1.013-1.438l.35-3.9a1.234 1.234 0 011.725-1.018 25.371 25.371 0 002.84.932 24.883 24.883 0 004.54.758l.021-7.716q-5.245-1.294-7.83-3.84A8.8 8.8 0 010 12.217a7.648 7.648 0 012.813-6.354c1.864-1.48 4.513-2.217 7.932-2.215V1.174A1.143 1.143 0 0112.013.006zm-1.268 9.253a4.27 4.27 0 00-2.527.891 2.6 2.6 0 00-.907 2.081A2.794 2.794 0 008.15 14.3a5.941 5.941 0 002.595 1.324zm2.241 13.963v7.071a3.912 3.912 0 002.7-.841 3.027 3.027 0 00.941-2.38 3.253 3.253 0 00-.875-2.327 6.423 6.423 0 00-2.766-1.523z" fill="url(#k)" transform="rotate(39 34.45 272.786)"/><path d="M20.794 29.391c.791-7.815 7.974-11.123 7.036-18.311-.577-4.431-3.935-8.165-7.682-11.08C8.786 1.192 0 10.6 0 22.905 0 36.958 11.417 48.733 25.032 49.19A23.639 23.639 0 0028.9 49c-5.406-5.38-8.785-12.895-8.106-19.609z" transform="rotate(39 47.194 256.825)" opacity=".3" fill="url(#l)" style="mix-blend-mode:multiply;isolation:isolate"/><path d="M38.133 20.7a17.764 17.764 0 01-18.378 18.113C9.024 38.484 0 29.216 0 18.127A17.714 17.714 0 0119.755.1a20.936 20.936 0 0118.378 20.6z" transform="rotate(-30 287.605 -302.466)" fill="url(#g)"/><path d="M38.133 20.7a17.764 17.764 0 01-18.378 18.113C9.025 38.484 0 29.216 0 18.127A17.715 17.715 0 0119.755.1a20.936 20.936 0 0118.378 20.6z" transform="rotate(-30 284.551 -307.22)" fill="url(#h)"/><path d="M36.391 19.753a16.952 16.952 0 01-17.568 17.289A19.853 19.853 0 010 17.3 16.907 16.907 0 0118.823.1a19.977 19.977 0 0117.568 19.653z" transform="rotate(-30 285.746 -309.404)" fill="url(#i)"/><path d="M35.148 19.079a16.372 16.372 0 01-16.989 16.7A19.178 19.178 0 010 16.709 16.33 16.33 0 0118.159.09a19.293 19.293 0 0116.989 18.989z" transform="rotate(-30 286.6 -310.96)" fill="url(#v)"/><path d="M8.715 0a1.038 1.038 0 01.917 1.019v1.76a25.8 25.8 0 013.043.528q1.123.264 2.232.629a1.027 1.027 0 01.7 1.054l-.216 2.2a.825.825 0 01-1.178.685 12.718 12.718 0 00-1.5-.558A13.575 13.575 0 009.89 6.79l-.259-.021V11.8a13.214 13.214 0 015.838 2.985 6.311 6.311 0 011.87 4.66 6.134 6.134 0 01-2.068 4.844 9.434 9.434 0 01-5.85 2.06v1.938a.881.881 0 01-.917.9h-.017a.974.974 0 01-.921-.972V26.3l-.408-.018a26.811 26.811 0 01-3.389-.361 22.045 22.045 0 01-2.342-.539 1.009 1.009 0 01-.735-1.043L.945 21.5a.9.9 0 011.255-.735 18.4 18.4 0 002.06.676 18.07 18.07 0 003.293.55l.013-5.591a12.116 12.116 0 01-5.684-2.789A6.386 6.386 0 010 8.863a5.548 5.548 0 012.041-4.61 9.051 9.051 0 015.754-1.606V.852A.829.829 0 018.715 0zm-.92 6.713a3.1 3.1 0 00-1.833.646A1.885 1.885 0 005.3 8.873a2.027 2.027 0 00.609 1.5 4.314 4.314 0 001.882.96zm1.626 10.133v5.13a2.838 2.838 0 001.962-.61 2.2 2.2 0 00.683-1.727 2.36 2.36 0 00-.634-1.688 4.66 4.66 0 00-2.011-1.105z" transform="rotate(-30 288.14 -330.068)" fill="url(#w)"/><path d="M15.085 21.321c.574-5.669 5.784-8.069 5.1-13.284C19.77 4.824 17.334 2.115 14.617 0A16.333 16.333 0 000 16.616a19.178 19.178 0 0018.159 19.068 17.149 17.149 0 002.806-.137c-3.922-3.903-6.374-9.355-5.88-14.226z" transform="rotate(-30 286.773 -311.007)" opacity=".3" fill="url(#l)" style="mix-blend-mode:multiply;isolation:isolate"/><path d="M2605.806 1705.087a25.2 25.2 0 01-1.356-2.156c-.468-.891.672-3.358 1.174-5.417s.761 1.153.824 1.88a15.882 15.882 0 00.824 4.378z" transform="translate(-2365.963 -1559.935)" fill="url(#y)"/><path d="M2594.72 1743.309s-1.991 14.827 13.632 25.281l-16.625 3.966s-5.321-9.95-1.469-26.43z" transform="translate(-2352.188 -1601.286)" fill="url(#z)"/><path d="M2640.4 2894.587l.345 5.521a2.084 2.084 0 01-2.292.252l-1.647-5.421z" transform="translate(-2394.848 -2625.646)" fill="url(#aa)"/><path d="M2620.057 2931.408s2.7 1.1 2.179 2.3a29.246 29.246 0 01-2.1 3.3 3.158 3.158 0 01-3.493 1.219 35.716 35.716 0 00-1.281-.361.857.857 0 01-.069-1.639 6.453 6.453 0 011.1-.3c.99-.153 2.352-2.491 2.511-3.428a1.412 1.412 0 011.153-1.091z" transform="translate(-2375.198 -2658.408)" fill="url(#ab)"/><path d="M2539.4 2413.929c-3.983 1.374-18.71 6.941-21.99 19.71a23.118 23.118 0 00-.645 5.673c-.085 12.888 7.41 23.8 12.861 30.142l5.155-.086a29.22 29.22 0 00.412-13.746c-1.885-8.461-6.776-10.655-5.833-14.808 1.713-7.541 19.224-6.4 20.874-13.153.595-2.439-.715-6.579-10.834-13.732z" transform="translate(-2288.039 -2197.976)" fill="url(#ac)"/><path d="M3104.645 3089.665l-7.478-.174a.5.5 0 01-.306-.882 1.893 1.893 0 011.443-.468c1.422.148 4.612-1.841 6.06-1.415.473.139.857 1.252 1.054 1.56a.9.9 0 01-.773 1.379z" transform="translate(-2804.027 -2796.551)" fill="url(#ad)"/><path d="M3116.563 3061.751l3.079 2.807a3.426 3.426 0 01-2.643.459l-3.148-2.166z" transform="translate(-2819.305 -2774.383)" fill="url(#ae)"/><path d="M2578.144 2495.439c-2.066-5.576-4.542-12.452-1.714-16.356 2.863-3.951 9.135-.616 15.426-3.8a15.647 15.647 0 006.727-7.119c3.532 3.646 4.012 6.094 3.607 7.753-1.65 6.753-19.162 5.612-20.875 13.153-.943 4.153 3.947 6.347 5.833 14.808a28.643 28.643 0 01-.061 12.264 42.459 42.459 0 00-3.021-9.255c-2.257-4.887-3.746-5.573-5.922-11.448z" transform="translate(-2339.997 -2246.233)" fill="url(#af)"/><path d="M2701.4 2396.493a133.337 133.337 0 0045.358 74.6 6.269 6.269 0 004.514-.347 42.887 42.887 0 00-4.217-12.778c-4.759-9.16-9-8.866-13.777-16.95-3.5-5.92-4.638-12.208-6.914-24.786-1.758-9.712-1.759-12.033-4.165-14.818-4.87-5.631-14.006-5.694-20.799-4.921z" transform="translate(-2452.321 -2182.151)" fill="url(#ag)"/><path d="M2843.165 2467.02c-1.7-2.681-4.712-5.472-10.656-10.979-6.143-5.691-5.907-4.662-7.116-6.344-5.414-7.529-2.482-15.574-3.82-25.284-.747-5.417-3.139-12.5-10.1-20.425a15.058 15.058 0 018.664 4.406c2.793 3.082 2.588 6.1 4.165 14.818 2.276 12.577 3.415 18.866 6.914 24.785 4.78 8.085 9.018 7.791 13.777 16.951a42.9 42.9 0 014.217 12.778 6.243 6.243 0 01-3.671.536c.39-6.362-1.512-9.882-2.374-11.242z" transform="translate(-2550.258 -2189.132)" fill="url(#ah)"/><path d="M2772.486 1815.787c-.817-1.608-1.153-1.6-1.354-2.448-.457-1.934.723-4.391 1.723-4.425.645-.022.7.981 2.064 2.543 1.673 1.914 2.688 1.663 3.672 3.325.23.389 1.267 2.138.629 3.444-.813 1.667-4.02 1.931-5.36.645-.635-.608-.369-1.104-1.374-3.084z" transform="translate(-2514.278 -1659.658)" fill="url(#ai)"/><path d="M2717.216 1886.96a19.018 19.018 0 00-.165 5.541c.368 2.246 4.529 4.579 5.326 5.248s-2.115 1.395-4.786 1.045-9.987-2.69-11.1-3.995 1.294-.662 3.317-.909 3.955-3.638 4.014-5.369 3.394-1.561 3.394-1.561z" transform="translate(-2456.604 -1729.096)" fill="url(#aj)"/><path d="M2762.666 1860.2a3.951 3.951 0 01-3.857-.55c-1.622-1.3.79-5.281 2.439-5.332a2.617 2.617 0 011.828.954c.28.341.3.568.765 1.116.432.505.622.551.688.8.083.307-.059.82-1.17 1.7a1.127 1.127 0 011.216.366.708.708 0 01.073.378c-.066.602-.848.88-1.982.568z" transform="translate(-2502.925 -1700.058)" fill="url(#ak)"/><path d="M2348.423 1752.611s-1.238-.173-.852-2.538c.3-1.854.073-2.478-.364-2.149s-.5 1.4-.5 1.4a8.763 8.763 0 01-2.254-3.146c-.657-1.784-1.08-.282-1.221.61a8.083 8.083 0 001.55 4.179 11.151 11.151 0 011.5 2.793z" transform="translate(-2133.628 -1603.097)" fill="url(#al)"/><path d="M2360.486 1793.116l4.227-2.96c1.714 10.539 5.611 14.675 8.921 16.484 7.985 4.365 15.111-3.413 30.395-.239 4.212.875 11.553 2.5 15.624 8.5 1.07 1.577 1.451 2.771 3.228 14.085 2.271 14.462 2.352 16.986 2.032 20.1-.586 5.7-.941 9.152-3.569 12.209-6.977 8.117-21.807 3.932-23.666 3.381-3.435-1.017-8.773-2.6-10.894-7.137-1-2.135-.892-4.088.642-11.9 3.038-15.47 3.426-16.471 2.578-18.165-2.862-5.717-11.93-2.446-19.591-7.762-4.481-3.104-9.53-9.878-9.927-26.596z" transform="translate(-2148.992 -1642.968)" fill="url(#am)"/><path d="M2434.2 2039.062c-1.5-3.067.514-5.893-1.69-9.579-2.81-4.7-7.865-3.1-9.767-6.574-3.253-5.936 9.551-14.215 6.95-23.666-1.242-4.512-5.58-7.778-9.2-9.016-8.045-2.747-13.307 4.255-20.849 2.066a12.955 12.955 0 01-5.914-3.826 18.858 18.858 0 006.26 7.7c7.66 5.316 16.729 2.045 19.591 7.762.848 1.694.46 2.7-2.578 18.165-1.534 7.809-1.64 9.762-.642 11.9 2.121 4.539 7.459 6.12 10.894 7.137a39.188 39.188 0 0011.3 1.553 7.719 7.719 0 01-4.355-3.622z" transform="translate(-2178.57 -1819.418)" opacity=".2" fill="url(#an)" style="mix-blend-mode:multiply;isolation:isolate"/><path d="M1163.158 1648.479a5.837 5.837 0 01-1.829-2.411c-.483-1.24-.143-1.792-.748-2.567a3.076 3.076 0 00-3.416-.925 1.381 1.381 0 00-.678.536c-.479.809.584 2.21 1.433 2.956a12.78 12.78 0 001.58 1 6.523 6.523 0 012.162 2.744z" transform="translate(-1077.614 -1511.48)" fill="url(#ao)"/><path d="M895.633 1604.525a5.839 5.839 0 002.625-1.506c.929-.954.831-1.595 1.691-2.072a3.077 3.077 0 013.506.481 1.382 1.382 0 01.415.759c.125.932-1.4 1.807-2.473 2.162a12.774 12.774 0 01-1.844.3 6.526 6.526 0 00-3.061 1.683z" transform="translate(-845.624 -1474.314)" fill="url(#ap)"/><path d="M731.5 1624.131c.472 2.247-1.957 4.245-3.709 6.208-3.515 3.937-7.194 10.961-5.843 16.99a13.1 13.1 0 006.443 8.541c3.595 1.816 5.748.164 9.487 2.321.276.159 5 2.963 5.142 6.746.169 4.667-6.693 9.633-12.567 10.012-10.743.7-23.687-13.591-23.084-27.768.657-15.433 17.239-27.683 22.01-25.606a3.935 3.935 0 012.121 2.556z" transform="translate(-678.1 -1492.767)" fill="url(#aq)"/><path d="M948.341 3095.466l.385 3.91-1.821-.33-1.224-3.673z" transform="translate(-890.154 -2804.296)" fill="url(#ar)"/><path d="M869.155 2440.87a98.4 98.4 0 002.081 17.735c1.1 5.218 1.747 6.12 2.091 9.728.749 7.852-1.782 8.976-2.246 17.851a54.06 54.06 0 003.117 20.559 56.149 56.149 0 002.538 6.152c.9.783 2.272.483 3.721.188.534-8.889 1.2-17.254 1.732-26.143l5.163-40.114z" transform="translate(-822.065 -2221.947)" fill="url(#as)"/><path d="M880.457 2513.083c.534-8.889 1.2-17.254 1.732-26.143l5.163-40.114-18.2-5.957c.013.46.036.9.054 1.354 8.51 7.39 10.176 13.245 10.093 17.238-.1 4.843-2.749 7.244-2.232 14.267.37 5.021 1.879 5.906 1.879 10.437 0 5.834-2.5 9.115-3.724 12.486-1.179 3.258-1.6 7.874.679 14.438.3.678.582 1.284.834 1.8.9.789 2.274.489 3.722.194z" transform="translate(-822.065 -2221.947)" opacity=".3" fill="url(#as)" style="mix-blend-mode:multiply;isolation:isolate"/><path d="M948.94 3116.866c-.862-1.068-1.654-.99-1.8-1.715a1.477 1.477 0 01.778-1.51 2.009 2.009 0 011.821.378c1.349.919.946 2.3 2.223 2.932a3.456 3.456 0 011.091.68c.18.177.627.614.514.906-.131.338-.944.309-1.717.281a3.374 3.374 0 01-1.831-.338c-.607-.398-.414-.789-1.079-1.614z" transform="translate(-891.437 -2820.454)" fill="url(#au)"/><path d="M944.723 2824.071l-3.405 1.333-.993-1.562 2.662-1.79z" transform="translate(-885.389 -2561.108)" fill="url(#av)"/><path d="M929.232 2835.542c.2-1.358-.394-1.887.04-2.484a1.477 1.477 0 011.637-.452c.766.306.922 1.357.958 1.594.24 1.615-1.049 2.257-.646 3.623a3.457 3.457 0 01.24 1.263c-.007.252-.025.877-.317.992-.337.133-.867-.484-1.371-1.071-.6-.7-.908-1.056-.994-1.575-.12-.719.298-.842.453-1.89z" transform="translate(-875.097 -2570.419)" fill="url(#aw)"/><path d="M973.344 2384.883a94.042 94.042 0 019.313 30.766c.524 4.529.473 7.33-.832 10.145-4.671 10.075-20.972 10.74-23.449 10.81l-2.445-5.007a25.032 25.032 0 018.6-9.461c3.446-2.167 4.794-1.7 5.654-3.16 3.452-5.844-15.184-18.5-12.4-26.924.963-2.915 4.67-5.87 15.559-7.169z" transform="translate(-899.276 -2172.132)" fill="url(#ax)"/><path d="M559.155 1959.465c6.855 1.177 12.075 2.4 14.4 5.993 2.461 3.792-1.452 6.647-2.516 14.968-1.629 12.739 5.7 17.5 3.588 30.325a32.483 32.483 0 01-1.428 5.547 13.122 13.122 0 01-5.417 6.731 33.952 33.952 0 01-6.86 3.315c-6.951 2.432-10.38 1.018-19.733 1.552-15.3.874-17.588 5.311-24.5 2.583-6.985-2.757-12.041-10.208-10.559-13.392.887-1.907 3.686-.716 7.7-3.057 5.173-3.017 4.3-7.135 8.5-10.667 6.029-5.074 11.828.05 16.985-4.362 5.216-4.463 5.839-15.316 3.622-21.777-1.448-4.22-1.475-8.81-2.55-13.14a2.785 2.785 0 01.064-1.584c.855-2.489 5.409-2.966 8.851-3.3a39.323 39.323 0 019.853.265z" transform="translate(-498.834 -1793.216)" fill="url(#ay)"/><path d="M525.59 2312.722c2.118-1.411.971-5.412 4.108-7.536 2.912-1.971 5.182.607 9.473-.708 5.5-1.687 5.216-6.986 10.49-8.677 3.793-1.216 4.937 1.2 10.407 1.309a21.751 21.751 0 0017.153-7.938 19.493 19.493 0 003.588-7.51c1.46 4.718 3.046 9.278 1.915 16.163a32.71 32.71 0 01-1.994 7.037 9.745 9.745 0 01-3.46 4.322 34.264 34.264 0 01-8.25 4.236c-6.951 2.432-10.38 1.018-19.733 1.552-15.3.874-17.588 5.311-24.5 2.583a19.839 19.839 0 01-9.816-8.7c6.047 4.399 9.082 4.892 10.619 3.867z" transform="translate(-506.927 -2080.29)" opacity=".3" fill="url(#az)" style="mix-blend-mode:multiply;isolation:isolate"/><path d="M957.063 1855.432s1.889 3.546 2.008 6.035-2.689 2.307-2.689 2.307l.105 1.57a3.4 3.4 0 002.22 2.965l1.109.408s-7.233 1.548-11.183-1.242l1.138-.111a3.4 3.4 0 003.053-3.041l.069-.672s-1.253-7.756 4.17-8.219z" transform="translate(-892.782 -1701.048)" fill="url(#ba)"/><path d="M1004.49 1688.875c-1.073 2.029.71 4.621 1.853 6.99 2.293 4.754 3.892 12.52.931 17.943a13.1 13.1 0 01-8.549 6.433c-3.956.755-5.57-1.428-9.759-.385-.309.077-5.627 1.467-6.8 5.066-1.45 4.44 3.776 11.1 9.318 13.09 10.135 3.631 26.517-6.531 29.847-20.324 3.625-15.016-8.936-31.364-14.094-30.683a3.933 3.933 0 00-2.747 1.87z" transform="translate(-922.397 -1551.169)" fill="url(#bb)"/><path d="M591.155 1814.327c-.374-.031-.682-.505-.939-.364s-.239.839-.005 1.324a1.752 1.752 0 00.678.727 4.586 4.586 0 00-.81 1.833 6.345 6.345 0 001.014 4.09c1.791 3.814-1 9.844-4.054 12.89-2.486 2.475-3.646 1.48-5.13 3.5-2.889 3.935 1.1 8.26-.4 13.556-2.272 8.053-14.988 10.449-15.515 10.541-.208.037-.347.06-.563.094-5.7.906-14.35 2.28-20.439-2.4-4.556-3.5-6.645-9.6-6.3-14.969a17.348 17.348 0 014.892-11.149c.693-.695 4.8-4.8 10.349-4.848 2.939-.026 3.532 1.009 5.779.369 3.077-.877 4.973-3.674 6.149-5.41 2.163-3.192 1.284-3.874 2.84-5.444 3.049-3.076 6.626-.66 9.883-3.375 3.21-2.676 1.274-6.306 4.372-8.622 3.2-2.389 9.312-1.555 10.615 1.29 1.121 2.44-1.271 6.462-2.416 6.367z" transform="translate(-528.004 -1656.416)" fill="url(#bc)"/></svg>