<svg xmlns="http://www.w3.org/2000/svg" xmlns:xlink="http://www.w3.org/1999/xlink" width="296.394" height="260.5"><defs><linearGradient id="a" y1=".526" x2="1" y2=".526" gradientUnits="objectBoundingBox"><stop offset="0" stop-color="#40447e"/><stop offset=".996" stop-color="#3c3b6b"/></linearGradient><linearGradient id="b" x1=".71" y1=".309" x2=".276" y2="1.135" gradientUnits="objectBoundingBox"><stop offset="0" stop-color="#aa80f9"/><stop offset=".996" stop-color="#6165d7"/></linearGradient><linearGradient id="c" y1=".5" x2="1" y2=".5" gradientUnits="objectBoundingBox"><stop offset="0" stop-color="#444b8c"/><stop offset=".996" stop-color="#26264f"/></linearGradient><linearGradient id="e" x1="1.752" y1=".5" x2="2.752" y2=".5" gradientUnits="objectBoundingBox"><stop offset="0" stop-color="#444b8c"/><stop offset=".996" stop-color="#3e4177"/></linearGradient><linearGradient id="f" x1="4.396" y1=".5" x2="5.396" y2=".5" xlink:href="#b"/><linearGradient id="g" x1="12.597" y1="-3.466" x2="11.819" y2="2.597" gradientUnits="objectBoundingBox"><stop offset="0" stop-color="#311944"/><stop offset="1" stop-color="#a03976"/></linearGradient><linearGradient id="h" x1="1.877" y1=".5" x2="2.948" y2=".5" xlink:href="#e"/><linearGradient id="i" x1="3.176" y1=".5" x2="4.176" y2=".5" xlink:href="#e"/><linearGradient id="j" x1="1.878" y1="-.107" x2="1.556" y2="1.081" gradientUnits="objectBoundingBox"><stop offset="0" stop-color="#13189d"/><stop offset="1" stop-color="#314eff"/></linearGradient><linearGradient id="k" x1="3.206" y1=".353" x2="3.502" y2="1.391" gradientUnits="objectBoundingBox"><stop offset="0" stop-color="#ffc444"/><stop offset=".996" stop-color="#f36f56"/></linearGradient><linearGradient id="l" x1="3.067" y1="-.209" x2="2.588" y2="1.155" xlink:href="#k"/><linearGradient id="m" x1="4.506" y1="-.078" x2="3.911" y2="1.623" xlink:href="#j"/><linearGradient id="n" x1="2.489" y1=".118" x2="2.83" y2="1.205" gradientUnits="objectBoundingBox"><stop offset=".494" stop-color="#ebeff2"/><stop offset="1" stop-color="#fff"/></linearGradient><linearGradient id="o" x1="3.876" y1="1.317" x2="3.37" y2=".447" xlink:href="#n"/><linearGradient id="p" x1="5.829" y1="-1.24" x2="5.677" y2="1.38" xlink:href="#k"/><linearGradient id="q" x1="8.201" y1=".5" x2="9.201" y2=".5" xlink:href="#g"/><linearGradient id="r" x1=".407" y1="14.969" x2="-.226" y2="13.03" gradientUnits="objectBoundingBox"><stop offset="0" stop-color="#311944"/><stop offset="1" stop-color="#6b3976"/></linearGradient><linearGradient id="s" x1="12.889" y1="-.993" x2="12.531" y2="-.051" xlink:href="#k"/></defs><path d="M97.692 15.657c-8.786 12.577 1.516 32.967-11.521 42.426-12.69 9.208-28.279-5.885-40.238 2.041-17.741 11.758-14.5 65.557 11.437 98.984 7.8 10.053 14.318 13.964 17.2 25.333 6.2 24.412-15.586 38.934-11.441 51.008 9.334 27.186 152.892 50 210.493-31.7 26.9-38.159 30.927-93.26 6.891-135.11C237.085-6.987 117.405-12.563 97.692 15.657z" fill="#f4f7fa"/><path d="M774.742 651.444c-12.325-5.146-25.8-3.221-36.661 3.948-3.968-19.978-16.575-37.2-35.348-45.037-30.761-12.843-66.427 4.369-79.661 38.445a72.449 72.449 0 00-4.946 26.632 30.587 30.587 0 00-5.082-2.711c-16.807-7.017-36.293 2.387-43.524 21.005s.284 40.079 17.339 46.416c9.109 3.385 23.521 3.931 23.521 3.931s140.189-5.7 144.513-5.514c17.269.729 34.289-10.513 41.515-29.118 9.035-23.262-.665-49.229-21.666-57.997z" transform="rotate(9 3954.019 -3145.609)" fill="url(#a)"/><path d="M819.9 653.14c-12.325-5.146-25.8-3.221-36.661 3.948-3.968-19.978-16.575-37.2-35.348-45.037-30.761-12.843-66.427 4.369-79.661 38.445a72.447 72.447 0 00-4.946 26.633 30.578 30.578 0 00-5.082-2.711c-16.807-7.017-36.293 2.387-43.524 21s.532 39.4 17.339 46.416c3.557 1.485 23.521 3.93 23.521 3.93s140.189-5.7 144.513-5.513c17.269.729 34.289-10.513 41.515-29.118 9.034-23.258-.666-49.225-21.666-57.993z" transform="rotate(9 3984.285 -3405.247)" fill="url(#b)"/><path d="M286.091 239.637l-223.6-1.906v5.639a3 3 0 002.3 3.064l63.227 11.1a8.877 8.877 0 002.268.1l153.373-12.652a2.863 2.863 0 002.43-2.991z" fill="#26264f"/><path d="M204.943 230.6L64.799 240.917a4.248 4.248 0 01-4.547-4.382V132.174a4.636 4.636 0 014.547-4.717h140.144a4.025 4.025 0 013.736 4.264v94.34a4.4 4.4 0 01-3.736 4.539z" fill="#26264f"/><path d="M896.824 1928.119l-140.144 10.316a4.248 4.248 0 01-4.547-4.382v-104.36a4.636 4.636 0 014.547-4.717h140.144a4.025 4.025 0 013.736 4.264v94.34a4.4 4.4 0 01-3.736 4.539z" transform="translate(-689.641 -1697.519)" fill="url(#c)"/><path d="M202.817 223.948l-130.53 8.964a3.482 3.482 0 01-3.7-3.6v-91.368a3.8 3.8 0 013.7-3.866l130.529-.563a3.3 3.3 0 013.083 3.494v83.22a3.6 3.6 0 01-3.082 3.719zm-60.757-93.637a1.62 1.62 0 11-1.612-1.755 1.695 1.695 0 011.612 1.755z" fill="#fff"/><path d="M902.409 2927.169l-150.276 10.859 65.523 11.508a8.888 8.888 0 002.268.1l155.808-12.862-70.932-9.536a11.633 11.633 0 00-2.391-.069z" transform="translate(-689.641 -2697.142)" fill="url(#c)"/><path d="M84.419 240.98l125.11-9.175 38.72 5.163-124.032 9.808z" fill="#26264f"/><path d="M124.955 229.141l-53.249 3.583a2.706 2.706 0 01-2.887-2.7v-93.259a2.706 2.706 0 012.695-2.706l53.441-.216zm68.766-50.856l-56.1 1.971v-5.673l56.1-1.758zm0 8.945l-56.1 2.321v-5.673l56.1-2.107z" fill="#d8dee8"/><path d="M119.463 179.305l-32.215 1.1v-4.24l32.215-1.01zm0 6.801l-32.215 1.243v-4.24l32.215-1.155zm0 6.801l-32.215 1.388v-4.24l32.215-1.3zm0 6.8l-32.215 1.533V197l32.215-1.444z" fill="#fff"/><path d="M162.409 197.664l-24.792 1.179v-5.673l24.792-1.085zm-3.992-44.452v8.521a4.406 4.406 0 004.622 4.341l6.32-.165a4.627 4.627 0 004.553-4.533v-8.432zm5.821 8.81l1.175-3.559a1.537 1.537 0 01-.844-1.367 1.649 1.649 0 011.637-1.615 1.571 1.571 0 011.634 1.55 1.612 1.612 0 01-.841 1.4l1.17 3.5zm7.881-9.817a1.174 1.174 0 01-1.214-1.159 4.553 4.553 0 00-4.7-4.482 4.732 4.732 0 00-4.726 4.632 1.235 1.235 0 01-1.232 1.208 1.188 1.188 0 01-1.234-1.168 7.189 7.189 0 017.193-7.038 6.918 6.918 0 017.123 6.81 1.22 1.22 0 01-1.21 1.197z" fill="#d8dee8"/><path d="M67.038 240.916l139.435-10.264.71-.052a3.762 3.762 0 002.468-1.249c-10.034-.549-16.266-4.11-20.286-7.789-8.073-7.389-6.673-14.675-15.379-19.533-10.859-6.059-19.4 1.619-27.638-5.957-5-4.593-2.543-8.018-8.69-14.881-6.809-7.6-11.241-5.046-18.084-11.888-8.652-8.651-4.325-15.381-11.777-21.592-9.041-7.535-18.791-.561-27.4-7.787-3.712-3.117-5.749-7.648-6.812-12.466h-6.546a4.636 4.636 0 00-4.547 4.717v104.361a4.248 4.248 0 004.546 4.38z" fill="#fff" opacity=".48" style="mix-blend-mode:soft-light;isolation:isolate"/><path d="M2425.666 1853.906c7.574-3.7 22.349 9.7 29.539 22.534 2.865 5.114 6.229 11.119 5.4 18.257-1.463 12.655-15.5 23.756-34.825 27.462l-1.632-5.828a180.23 180.23 0 019.31-9.017c6.2-5.591 7.477-5.964 7.775-7.729.974-5.782-13.894-10.622-19.183-20.788-4.544-8.742-2.203-22.049 3.616-24.891z" transform="translate(-2202.029 -1723.191)" fill="url(#e)"/><path d="M2583.389 2950.531s-1.244 3.068-.625 4.269 3.6.442 7.81 1.085 7.111 1.627 7.344.755-8.486-5.473-9.183-6.109-5.346 0-5.346 0z" transform="translate(-2349.801 -2718.101)" fill="url(#f)"/><path d="M2564.594 2903.991l2.942 4.586a4.11 4.11 0 01-3.66.84l-3.237-4.345z" transform="translate(-2329.892 -2676.148)" fill="url(#g)"/><path d="M2422.053 1878.854c-4.547-8.741-2.206-22.048 3.613-24.89a7.732 7.732 0 015.336-.288 10.23 10.23 0 00-.323 6.761c2.305 6.91 12.273 6.123 15.387 13.988 1.969 4.971-1.162 7.438 1.632 11.424 2.9 4.13 7.63 3.437 9.092 7.46 1.09 3-1.059 4.7-.233 7.227a4.752 4.752 0 001.447 2.081c-5.121 9.21-17.037 16.688-32.22 19.6l-1.632-5.828a180.23 180.23 0 019.31-9.017c6.2-5.591 7.477-5.964 7.775-7.729.973-5.783-13.895-10.623-19.184-20.789z" transform="translate(-2202.029 -1723.249)" opacity=".3" fill="url(#h)" style="mix-blend-mode:multiply;isolation:isolate"/><path d="M2266.993 1889.475a489.167 489.167 0 00.815 42.816 489.324 489.324 0 006.324 53.421l-3.738 1.189c-12.816-12.487-16.651-23.471-17.7-31.372-.742-5.585.381-6.065-.621-13.056-1.907-13.312-6.884-17.871-10.378-30.333a74.191 74.191 0 01-2.678-20.955z" transform="translate(-2038.188 -1756.018)" fill="url(#i)"/><path d="M2135.294 1268.98c-.233.053-1.243.389-1.642 4.61-.963 10.177 4.335 14.3 3.031 19.816-1.252 5.3-7.639 7.868-14.214 10.513-4.393 1.768-17.982 7.236-25.884 1.087-3.326-2.588-3.69-5.712-6.062-17.2-6.028-29.177-8.364-31.684-5.828-38 4.354-10.847 16.012-15.339 17.951-16.086 20.682-7.969 45.1 6.677 54.755 23.5 1.271 2.216 8.86 15.448 3.528 21.724-3.226 3.8-10.639 4.41-15.531 1.821-6.537-3.451-7.926-12.284-10.104-11.785z" transform="translate(-1897.308 -1159.25)" fill="url(#j)"/><path d="M2739.9 1582.344a.467.467 0 00.424-.66c-.177-.388-4.446-9.55-14.312-13.166a.466.466 0 00-.32.875c9.489 3.478 13.741 12.586 13.783 12.677a.466.466 0 00.425.274z" transform="translate(-2479.309 -1464.896)" fill="url(#k)"/><path d="M2098.216 1341.892c1.305 3.553-2.611 6.633-.932 10.491 2.406 5.529 11.968 2.691 15.386 8.16 4.052 6.481-5.227 17.11-1.4 20.749 1.744 1.658 3.76-.465 8.859.7 7.262 1.659 9.445 7.4 12.822 6.528 1.062-.274 2.35-1.238 3.434-4.207a9.375 9.375 0 01.3 4.906c-1.252 5.3-7.639 7.868-14.214 10.513-4.393 1.768-17.981 7.236-25.884 1.087-3.326-2.588-3.69-5.712-6.062-17.2-6.028-29.177-8.364-31.684-5.828-38a24.718 24.718 0 015.812-8.492c4.978 1.103 7.023 2.904 7.707 4.765z" transform="translate(-1897.308 -1255.061)" opacity=".3" fill="url(#l)" style="mix-blend-mode:multiply;isolation:isolate"/><path d="M1979.338 1313.718c-.558.507-6.216 5.491-13.022 3.789-5.927-1.482-9.566-7.245-10.2-12.094-1.516-11.532 13.509-21.213 11.657-23.546-1.1-1.39-7.019 1.3-10.957 3.73-4.089 2.52-15.137 9.331-17.492 22.7-.2 1.136-2.8 17.07 6.3 23.651 8.41 6.085 24.885 2.775 36.042-11.618z" transform="translate(-1765.929 -1204.594)" fill="url(#m)"/><path d="M249.888 98.589l-6.737 21.519a1.743 1.743 0 01-1.6 1.221l-36.252 1.281a1.743 1.743 0 01-1.765-2.111l4.688-21.607a1.742 1.742 0 011.649-1.373l38.3-1.193a1.743 1.743 0 011.717 2.263z" fill="#d8dee8"/><path d="M2323.929 1500.887l-6.538 20.885a1.691 1.691 0 01-1.554 1.185l-35.184 1.243a1.692 1.692 0 01-1.713-2.049l4.55-20.971a1.692 1.692 0 011.6-1.332l37.173-1.157a1.691 1.691 0 011.666 2.196z" transform="translate(-2074.364 -1401.59)" fill="url(#n)"/><path d="M2278.939 1555.728l4.343-20.017a5.621 5.621 0 002.6 3.072c2.618 1.293 4.657-1.037 10.374-.816 2.186.085 6.657.258 9.442 3.147 2.618 2.716 1.5 5.506 3.147 9.325a14.374 14.374 0 005.333 6.153l-33.523 1.184a1.691 1.691 0 01-1.716-2.048z" transform="translate(-2074.364 -1435.167)" fill="url(#o)"/><path d="M2391.2 1187.4a2.477 2.477 0 001.8 3.088 22.569 22.569 0 014.544 1.451c1.6.915-4.871-.142-10.822-.281a49.241 49.241 0 01-8.053-.805.413.413 0 01-.046-.8 35.4 35.4 0 015.948-1.453c2.53-.318 5.242-5.9 5.242-5.9l2.168 1.969z" transform="translate(-2164.548 -1115)" fill="url(#p)"/><path d="M2682.479 1560.857l-.411-.673a2.88 2.88 0 00-3.139-2.132l-2.162.267a1.163 1.163 0 00-.995 1.394c.2.965.719 2.119 2.047 2.03 2.256-.152 3.7 3.136 3.7 3.136l.866-1.22a2.545 2.545 0 00.094-2.802z" transform="translate(-2434.29 -1455.409)" fill="url(#q)"/><path d="M2500.395 1137.144c1.87-.277 3.964-1.849 3.923-3.147-.056-1.785-4.136-2.763-6.2-3.256s-2.943-.316-3.535.135a3.367 3.367 0 00-1.131 1.994 8.78 8.78 0 00-.008 1.981c.059.942.042.9.066 1.179a12.225 12.225 0 00.893 3.473 8.516 8.516 0 011.084-1 7.512 7.512 0 011.65-.973c1.351-.547 2.123-.218 3.258-.386z" transform="translate(-2268.908 -1067.603)" fill="url(#r)"/><path d="M2485.732 1173.92a4.613 4.613 0 002.575 3.748c2.2 1.024 5.114-3.564 4.312-5.316a3.053 3.053 0 00-1.946-1.417c-.5-.116-.748-.016-1.564-.222-.753-.19-.9-.365-1.189-.307-.364.073-.827.487-1.173 2.105-.18-.632-.58-1.055-1.013-1.081a.825.825 0 00-.433.12c-.595.382-.479 1.35.431 2.37z" transform="translate(-2261.229 -1103.837)" fill="url(#s)"/></svg>