<svg xmlns="http://www.w3.org/2000/svg" viewBox="-18 -18 572.009 572" fill="#ffffff" xmlns:v="https://vecta.io/nano"><path d="M279.629 143.855c-4.852-4.855-12.723-4.855-17.582 0s-4.855 12.727 0 17.582l94.164 94.164H106.02a12.48 12.48 0 0 0-12.473 12.473 12.48 12.48 0 0 0 12.473 12.473h250.066l-94.164 94.164a12.42 12.42 0 0 0 0 17.586 12.25 12.25 0 0 0 8.855 3.617 12.78 12.78 0 0 0 8.852-3.617l115.367-115.363a12.36 12.36 0 0 0 3.621-8.859c-.023-3.309-1.32-6.473-3.621-8.852zM268.156-.074C159.699-.094 61.914 65.234 20.41 165.438-21.086 265.645 1.867 380.98 78.582 457.648c104.703 104.703 274.453 104.703 379.152 0 104.699-104.695 104.699-274.445 0-379.148A266.44 266.44 0 0 0 268.156-.074zm0 511.355c-134.074 0-243.203-109.133-243.203-243.207S134.082 24.871 268.156 24.871 511.363 134 511.363 268.074 402.23 511.281 268.156 511.281zm0 0"/></svg>