<svg xmlns="http://www.w3.org/2000/svg" xmlns:xlink="http://www.w3.org/1999/xlink" width="204.02" height="348.378"><defs><linearGradient id="a" x1="-13.272" y1="23.89" x2="-10.881" y2="29.89" gradientUnits="objectBoundingBox"><stop offset="0" stop-color="#5618b8"/><stop offset="1" stop-color="#c7d7ff"/></linearGradient><linearGradient id="b" x1="-5.011" y1="5.562" x2="-4.169" y2="6.957" xlink:href="#a"/><linearGradient id="c" x1="0" y1=".5" x2="1" y2=".5" xlink:href="#a"/><linearGradient id="d" x1="-7.818" y1="1.846" x2="-5.426" y2="8.872" xlink:href="#a"/><linearGradient id="e" x1="-3.556" y1=".348" x2="-2.595" y2="1.567" xlink:href="#a"/><linearGradient id="f" x1="3.935" y1="-8.594" x2="7.027" y2="-8.521" xlink:href="#a"/><linearGradient id="g" x1="2.658" y1="-.651" x2="3.993" y2="-.64" xlink:href="#a"/><linearGradient id="h" x1=".569" y1="1.755" x2="1.455" y2="15.455" xlink:href="#a"/><linearGradient id="i" x1=".307" y1=".011" x2=".959" y2="1.066" xlink:href="#a"/></defs><g style="isolation:isolate"><path d="M140.466 213.091a37.472 37.472 0 0010.8 1.366l-1.322 2.481a37.572 37.572 0 01-10.8-1.366zm10.804 1.366c6.98-.219 11.807-2.829 13.958-6.865l-1.322 2.481c-2.151 4.037-6.978 6.646-13.958 6.865z" fill="#fff"/><path d="M113.066 193.969c5.429 8.813 16.406 16.176 27.4 19.122l-1.32 2.481c-11-2.947-21.975-10.31-27.4-19.122-3.6-5.839-4.083-11.219-1.958-15.2l1.32-2.481c-2.122 3.983-1.639 9.356 1.958 15.2z" fill="#fff"/><path d="M109.789 181.245l1.32-2.481c2.151-4.035 6.973-6.645 13.947-6.864l-1.322 2.481c-6.973.217-11.796 2.827-13.945 6.864z" fill="#e8eff9"/><path d="M757.828 478.061l1.32-2.479c2.847-5.344 9.233-8.8 18.467-9.09l-1.32 2.481c-9.233.289-15.622 3.744-18.467 9.088z" transform="translate(-652.434 -301.042)" fill="url(#a)"/><path d="M123.734 174.381c13.87-.435 30.979 8.745 38.217 20.495s1.868 21.627-12 22.062-30.964-8.738-38.2-20.488-1.879-21.632 11.983-22.069z" fill="#e8eff9"/><path d="M165.228 207.59l-1.322 2.481c2.123-3.984 1.639-9.359-1.956-15.2-7.238-11.75-24.347-20.93-38.217-20.495l1.322-2.481c13.87-.435 30.977 8.745 38.215 20.495 3.595 5.842 4.081 11.216 1.958 15.2z" fill="#e8eff9"/><path d="M823.623 513.742l-1.32 2.479c2.809-5.275 2.169-12.391-2.59-20.116-9.581-15.555-32.227-27.7-50.584-27.125l1.32-2.481c18.357-.575 41 11.57 50.584 27.125 4.76 7.727 5.401 14.843 2.59 20.118z" transform="translate(-645.267 -301.05)" fill="url(#b)"/><path d="M123.861 167.931c18.357-.575 41 11.57 50.584 27.125s2.471 28.631-15.885 29.207-40.995-11.57-50.576-27.125-2.468-28.632 15.877-29.207zm26.087 49.007c13.87-.435 19.24-10.312 12-22.062s-24.347-20.93-38.217-20.495-19.225 10.319-11.987 22.069 24.342 20.923 38.2 20.488" fill="#fff"/></g><g style="isolation:isolate"><path d="M110.361 181.321l.44-.827c-2.376 4.463-1.842 10.479 2.177 17 8.088 13.129 27.261 23.407 42.74 22.922l-.441.827c-15.478.485-34.652-9.792-42.739-22.922-4.019-6.525-4.555-12.537-2.177-17zm60.957 31.407l-.44.827c-2.407 4.52-7.807 7.446-15.6 7.689l.441-.827c7.793-.243 13.191-3.169 15.599-7.689zm-62.986-32.486l.44-.827c2.567-4.821 8.323-7.941 16.635-8.2l-.44.827c-8.312.259-14.068 3.378-16.635 8.2z" fill="#caaeff"/><path d="M173.344 213.807l-.441.827c2.535-4.759 1.963-11.173-2.322-18.13-8.63-14.01-29.084-24.981-45.613-24.463l.44-.827c16.529-.518 36.984 10.453 45.615 24.463 4.283 6.957 4.855 13.371 2.321 18.13z" fill="#caaeff"/><path d="M124.967 172.041c16.529-.518 36.983 10.453 45.613 24.463s2.206 25.816-14.322 26.334-36.974-10.453-45.6-24.456-2.211-25.823 14.309-26.341zm30.308 49.2c15.488-.485 21.513-11.554 13.425-24.682s-27.266-23.414-42.752-22.928-21.5 11.561-13.412 24.688 27.261 23.407 42.738 22.922" fill="#5618b8"/></g><g style="isolation:isolate"><path d="M123.434 197.429l.44-.827 5.036-1.38-.44.827zm17.689-.553l.44-.827 3.177 8.87-.44.827zm20.747 8.319l.44-.827 2.479 6.953-.44.827z" fill="#caaeff"/><path d="M144.3 205.745l.44-.827 17.57-.551-.44.827zm.46-14.076l.44-.827 2.215 3.6-.44.827zm-5.036 1.38l.44-.827 5.036-1.38-.44.827z" fill="#caaeff"/><path d="M134.523 178.945l5.2 14.1 5.036-1.38 2.215 3.6-5.852 1.61 3.177 8.87 17.57-.551 2.479 6.953-29.594.927-4.89-13.192-4.212 1.149-2.219-3.6 5.036-1.38-6.1-16.724z" fill="#5618b8"/><path d="M134.523 178.945l.44-.827 5.2 14.1-.44.827z" fill="#caaeff"/><path d="M122.372 179.326l.44-.827 12.151-.381-.44.827z" fill="#caaeff"/></g><g style="isolation:isolate"><path d="M108.814 240.501a12.31 12.31 0 00-.1-.311q0-1.586.008-3.17c.036.1.069.206.1.309l-.008 3.172z" fill="#fff"/><path d="M108.813 240.5a1.733 1.733 0 010-.26q0-1.456.008-2.912a12 12 0 01.552 3.519q0 1.586-.008 3.17a11.989 11.989 0 00-.552-3.517zm-58.587-10.651c-6.689 3.886-10.037 8.974-10.052 14.067l.008-3.17c.015-5.094 3.363-10.181 10.052-14.069 13.465-7.825 35.375-7.83 48.927 0 5.086 2.937 8.274 6.557 9.56 10.348q0 1.586-.008 3.17c-1.288-3.791-4.476-7.411-9.562-10.346-13.554-7.83-35.46-7.825-48.925 0z" fill="#fff"/><path d="M109.367 244.119v-.1q0-1.584.008-3.17v.1z" fill="#fff"/><path d="M109.376 240.944l-.008 3.17c-.015 5.1-3.365 10.186-10.055 14.074-13.465 7.825-35.366 7.825-48.927 0-6.82-3.938-10.225-9.106-10.211-14.267l.008-3.172c-.015 5.161 3.393 10.33 10.212 14.267 13.561 7.829 35.461 7.829 48.927 0 6.689-3.886 10.04-8.975 10.054-14.072z" fill="#e8eff9"/><path d="M99.162 226.672c13.561 7.83 13.625 20.521.16 28.346s-35.367 7.825-48.927 0-13.625-20.511-.16-28.336 35.375-7.835 48.927-.01z" fill="#e8eff9"/><path d="M816.345 513.607l-.01 3.17c-.018 6.746-4.453 13.481-13.309 18.627-17.825 10.358-46.814 10.363-64.763 0-9.028-5.213-13.536-12.056-13.517-18.887l.008-3.172c-.02 6.833 4.489 13.675 13.518 18.889 17.949 10.363 46.938 10.358 64.763 0 8.855-5.148 13.29-11.883 13.31-18.627z" transform="translate(-695.082 -271.326)" fill="url(#c)"/><path d="M107.741 223.394c17.949 10.363 18.035 27.155.212 37.512s-46.814 10.364-64.763 0-18.035-27.156-.212-37.514 46.822-10.356 64.763.002zm-57.347 31.619c13.561 7.83 35.461 7.83 48.927 0s13.4-20.516-.16-28.346-35.463-7.82-48.927 0-13.393 20.511.16 28.336" fill="#fff"/></g><g style="isolation:isolate"><path d="M113.467 242.063v1.057c.016-5.779-3.79-11.567-11.409-15.966-15.135-8.737-39.692-8.737-54.737 0-7.47 4.341-11.209 10.036-11.224 15.739v-1.056c.016-5.705 3.755-11.4 11.226-15.739 15.043-8.743 39.6-8.743 54.737-.007 7.617 4.405 11.423 10.193 11.407 15.972z" fill="#caaeff"/><path d="M116.06 242.071v1.056c-.018 6.087-4.01 12.164-11.985 16.8-16.048 9.327-42.24 9.327-58.4 0-8.129-4.694-12.188-10.866-12.17-17.03v-1.057c-.018 6.164 4.042 12.337 12.17 17.03 16.161 9.33 42.353 9.33 58.4 0 7.975-4.637 11.967-10.713 11.985-16.799z" fill="#caaeff"/><path d="M103.883 225.036c16.161 9.33 16.246 24.5.19 33.834s-42.238 9.325-58.4 0-16.238-24.5-.191-33.824 42.248-9.335 58.401-.01zm-56.384 32.766c15.143 8.743 39.7 8.743 54.737 0s14.963-22.968-.178-31.711-39.694-8.737-54.737.007-14.956 22.963.178 31.7" fill="#5618b8"/></g><g style="isolation:isolate"><path d="M67.337 246.607v1.057l-6.25-13.738v-1.057z" fill="#caaeff"/><path d="M91.073 250.18l-23.737-3.575-6.25-13.738 39.39-5.521z" fill="#5618b8"/><path d="M91.074 250.183v1.057l-23.736-3.575v-1.057zm9.403-22.835v1.057l-9.4 22.834v-1.057zm-10.472 24.971v1.057l-37.564 2.945v-1.057z" fill="#caaeff"/><path d="M64.203 248.428l25.8 3.891-37.562 2.949 4.969-21.763z" fill="#5618b8"/></g><g style="isolation:isolate"><path d="M37.128 172.291a37.541 37.541 0 0010.58 2.491l-1.572 2.322a37.456 37.456 0 01-10.579-2.491z" fill="#fff"/><path d="M11.923 150.427c4.465 9.318 14.6 17.782 25.2 21.864l-1.566 2.324c-10.611-4.082-20.742-12.546-25.206-21.864-2.958-6.177-2.873-11.565-.346-15.3l1.572-2.324c-2.527 3.734-2.612 9.124.346 15.3zm35.788 24.355c6.95.515 12.018-1.57 14.577-5.354l-1.577 2.324c-2.559 3.783-7.627 5.869-14.577 5.352z" fill="#fff"/><path d="M10.004 137.452l1.572-2.324c2.559-3.783 7.625-5.869 14.576-5.352L24.58 132.1c-6.951-.517-12.017 1.569-14.576 5.352z" fill="#e8eff9"/><path d="M708.12 449.373l1.572-2.322c3.388-5.007 10.091-7.767 19.289-7.084l-1.572 2.324c-9.198-.684-15.901 2.076-19.289 7.082z" transform="translate(-705.626 -317.931)" fill="url(#d)"/><path d="M62.285 169.427l-1.572 2.324c2.527-3.733 2.61-9.119-.345-15.29-5.955-12.433-21.982-23.339-35.788-24.362l1.572-2.324c13.806 1.025 29.833 11.928 35.788 24.362 2.955 6.176 2.872 11.558.345 15.29z" fill="#e8eff9"/><path d="M21.783 124.359c18.277 1.356 39.485 15.793 47.365 32.242s-.554 28.686-18.831 27.329-39.485-15.793-47.363-32.242.552-28.686 18.829-27.329zm24.353 52.745c13.808 1.025 20.185-8.217 14.233-20.642S38.387 133.123 24.581 132.1s-20.184 8.217-14.229 20.65 21.979 23.33 35.785 24.353" fill="#fff"/><path d="M24.58 132.099c13.806 1.023 29.833 11.928 35.788 24.362s-.425 21.667-14.233 20.642-29.833-11.928-35.785-24.353.423-21.676 14.23-20.651z" fill="#e8eff9"/><path d="M769.318 492.414l-1.572 2.324c3.344-4.944 3.456-12.075-.458-20.247-7.88-16.449-29.088-30.885-47.365-32.242l1.572-2.324c18.277 1.356 39.485 15.793 47.365 32.242 3.914 8.172 3.801 15.305.458 20.247z" transform="translate(-698.141 -317.891)" fill="url(#e)"/></g><g style="isolation:isolate"><path d="M6.68 136.624l.525-.775c-2.827 4.179-2.925 10.206.377 17.1 6.65 13.884 24.6 26.109 40.029 27.254l-.525.775c-15.425-1.146-33.378-13.371-40.027-27.254-3.302-6.895-3.203-12.922-.379-17.1zm57.226 37.585l-.525.775c-2.865 4.234-8.529 6.571-16.293 6l.525-.775c7.767.573 13.428-1.766 16.293-6zM4.781 135.337l.523-.775c3.058-4.519 9.1-7.014 17.382-6.4l-.525.775c-8.281-.614-14.324 1.881-17.38 6.4z" fill="#caaeff"/><path d="M65.807 175.487l-.525.775c3.018-4.46 3.125-10.892-.4-18.248-7.094-14.809-26.26-27.859-42.717-29.08l.525-.775c16.455 1.222 35.623 14.27 42.717 29.08 3.52 7.359 3.412 13.792.4 18.248z" fill="#caaeff"/><path d="M22.161 128.938c16.457 1.221 35.623 14.27 42.717 29.08s-.526 25.868-16.983 24.647-35.623-14.268-42.716-29.078.527-25.87 16.982-24.649zm24.925 52.042c15.427 1.144 22.567-9.219 15.917-23.1s-24.607-26.1-40.032-27.248-22.562 9.212-15.913 23.095 24.6 26.109 40.027 27.254" fill="#5618b8"/></g><g style="isolation:isolate"><path d="M36.197 168.116l-.525.775c.881-1.3.922-3.175-.114-5.337a11.529 11.529 0 00-1.75-2.531l.525-.775a11.565 11.565 0 011.75 2.531c1.036 2.16.995 4.036.114 5.337zm-18.245-11.212l.525-.775c.891-1.316 2.649-2.051 5.087-1.87a16.153 16.153 0 017.817 3.17l-.525.775a16.153 16.153 0 00-7.815-3.17c-2.44-.183-4.198.552-5.089 1.87z" fill="#caaeff"/><path d="M34.391 155.542l-.525.775c-.342.505-1.306.863-3.01 1.886l.525-.775c1.7-1.023 2.668-1.381 3.01-1.886zm1.048-3.822l.523-.775c2.912 6.081.694 3.9 8.037 7.419l-.525.775c-7.34-3.523-5.123-1.338-8.035-7.419z" fill="#caaeff"/><path d="M43.58 158.975l.523-.775c.93-1.374 2.7-2.219 5.254-2.03 4.757.353 10.345 4.223 12.4 8.511 1.049 2.192 1.023 4.087.141 5.391l-.523.775c.883-1.3.907-3.2-.142-5.391-2.054-4.288-7.642-8.158-12.4-8.511-2.556-.19-4.323.655-5.253 2.03zm-22.449-21.038l.523-.775c.9-1.332 2.687-2.061 5.094-1.883l-.523.775c-2.409-.182-4.194.547-5.094 1.883z" fill="#caaeff"/><path d="M39.384 149.126l-.525.775c.879-1.3.905-3.182-.123-5.329a16.561 16.561 0 00-12.517-8.521l.523-.775a16.564 16.564 0 0112.518 8.521c1.034 2.151 1.008 4.03.124 5.329z" fill="#caaeff"/><path d="M26.225 136.049a16.561 16.561 0 0112.517 8.521c1.814 3.788.346 6.754-3.3 7.148 2.912 6.081.694 3.9 8.035 7.419.9-1.471 2.7-2.391 5.359-2.193 4.757.353 10.345 4.223 12.4 8.511 2.1 4.38-.1 7.584-4.859 7.231a16.562 16.562 0 01-12.517-8.521 6.832 6.832 0 01-.753-2.456c-3.4-1.647-4.69-2.44-5.645-2.512s-1.577.582-3.651 1.822a11.526 11.526 0 011.75 2.531c2.1 4.38-.219 7.575-4.976 7.222a16.559 16.559 0 01-12.517-8.521c-2.054-4.288.1-7.584 4.976-7.222a16.153 16.153 0 017.815 3.17c3.979-2.391 3.93-1.151 1.309-6.622-4.424-1-9.055-4.421-10.917-8.307-2.104-4.385.216-7.574 4.974-7.221z" fill="#5618b8"/></g><g style="isolation:isolate"><path d="M186.022 117.857c2.6-6.331 2.208-11.706-.528-15.292l1.7 2.231c2.736 3.584 3.126 8.959.528 15.292-5.233 12.745-20.611 24.546-34.337 26.357l-1.7-2.231c13.725-1.811 29.103-13.612 34.337-26.357zm-49.197 21.842c2.772 3.631 7.949 5.426 14.858 4.514l1.7 2.231c-6.91.91-12.088-.882-14.86-4.514-.507-.669-1.188-1.561-1.698-2.231z" fill="#fff"/><path d="M185.492 102.568l1.7 2.231c-2.77-3.631-7.947-5.426-14.854-4.514l-1.7-2.231c6.907-.913 12.082.879 14.854 4.514z" fill="#e8eff9"/><path d="M808.631 429.62l1.7 2.231c-3.667-4.8-10.518-7.178-19.661-5.971l-1.7-2.231c9.143-1.207 15.993 1.166 19.661 5.971z" transform="translate(-609.329 -333.383)" fill="url(#f)"/><path d="M172.34 100.281c13.726-1.811 20.616 7.06 15.383 19.805s-20.611 24.547-34.337 26.357-20.619-7.053-15.386-19.8 20.614-24.551 34.34-26.362z" fill="#e8eff9"/><path d="M138.528 141.93l-1.7-2.229c-2.734-3.584-3.126-8.956-.528-15.285 5.233-12.745 20.614-24.554 34.34-26.365l1.7 2.231c-13.726 1.811-29.107 13.62-34.34 26.363-2.6 6.331-2.208 11.703.528 15.285z" fill="#e8eff9"/><path d="M764.458 480.89l-1.7-2.231c-3.622-4.743-4.14-11.858-.7-20.238 6.928-16.872 27.277-32.5 45.448-34.893l1.7 2.231c-18.169 2.4-38.519 18.019-45.446 34.891-3.44 8.382-2.922 15.495.698 20.24z" transform="translate(-627.867 -333.262)" fill="url(#g)"/><path d="M181.342 92.497c18.171-2.4 27.287 9.338 20.359 26.21s-27.277 32.5-45.448 34.893-27.285-9.34-20.358-26.211 27.277-32.497 45.447-34.892zm-27.955 53.948c13.726-1.811 29.1-13.611 34.337-26.357s-1.657-21.616-15.383-19.805-29.107 13.618-34.34 26.363 1.66 21.609 15.386 19.8" fill="#fff"/></g><g style="isolation:isolate"><path d="M194.87 103.238l.567.744c3.063 4.012 3.505 10.026.6 17.1-5.844 14.233-23.069 27.463-38.4 29.486l-.567-.744c15.336-2.023 32.56-15.254 38.4-29.486 2.905-7.072 2.462-13.088-.6-17.1zm-53.849 42.275l-.567-.744c3.1 4.064 8.892 6.076 16.61 5.058l.567.744c-7.718 1.019-13.508-.994-16.61-5.058zm55.67-43.664l.567.742c-3.308-4.334-9.482-6.478-17.713-5.393l-.567-.742c8.236-1.086 14.406 1.058 17.713 5.393z" fill="#caaeff"/><path d="M139.199 146.902l-.567-.744c-3.265-4.278-3.739-10.69-.642-18.235 6.24-15.2 24.63-29.31 40.988-31.467l.567.742c-16.359 2.159-34.747 16.27-40.988 31.469-3.096 7.543-2.623 13.956.642 18.235z" fill="#caaeff"/><path d="M179.546 97.198c16.359-2.157 24.594 8.442 18.352 23.641s-24.617 29.3-40.977 31.459-24.6-8.441-18.364-23.631 24.63-29.31 40.989-31.469zm-21.913 53.372c15.336-2.023 32.56-15.254 38.4-29.486s-1.865-24.18-17.2-22.157-32.567 15.254-38.414 29.493 1.876 24.172 17.213 22.149" fill="#5618b8"/></g><g style="isolation:isolate"><path d="M174.509 129.604l-.567-.743 9.245-12.626.567.743zm18.592-20.458l.567.742c-.562-.737-1.714-1.046-3.437-.819l-.569-.744c1.724-.227 2.876.084 3.439.821zM151.4 132.653l-.568-.743 23.109-3.048.567.743z" fill="#caaeff"/><path d="M145.655 140.561l-.567-.743 5.745-7.908.567.743zm14.99-20.535l-.567-.743 5.7-7.807.568.743zm5.704-7.807l-.568-.743 23.881-3.15.567.743z" fill="#caaeff"/><path d="M190.23 109.069c2.087-.275 3.336.237 3.715 1.343s-.119 2.822-1.536 4.746l-10.42 14.233a22.855 22.855 0 01-5.829 5.313 16.8 16.8 0 01-6.623 2.708l-23.881 3.149 5.746-7.908 23.108-3.048 9.245-12.626-23.108 3.048 5.7-7.807z" fill="#5618b8"/></g><path d="M154.241 122.985l15.814-2.706-4.476 8.178-16.183 2.341z" fill="#5618b8" fill-rule="evenodd"/><g style="isolation:isolate"><path d="M62.307 53.382c5.539 9.588 13.2 17.967 21.675 22.86l-3.429 1.992c-8.473-4.893-16.136-13.27-21.675-22.86zm-8.921-30.126c-.028 9.737 3.384 20.537 8.921 30.125l-3.429 1.992c-5.537-9.588-8.949-20.387-8.921-30.124.028-9.681 3.445-16.489 8.954-19.691l3.429-1.992c-5.509 3.203-8.926 10.011-8.954 19.69z" fill="#fff"/><path d="M83.983 76.237c8.531 4.924 16.262 5.382 21.846 2.138l-3.429 1.994c-5.584 3.244-13.316 2.786-21.846-2.139z" fill="#fff"/><path d="M58.912 5.561l3.429-1.992C67.923.323 75.653.783 84.184 5.707l-3.429 1.992c-8.53-4.925-16.26-5.382-21.843-2.138z" fill="#e8eff9"/><path d="M736.01 369.988l3.429-1.994c7.387-4.293 17.615-3.688 28.906 2.83l-3.429 1.992c-11.291-6.516-21.516-7.121-28.906-2.828z" transform="translate(-676.964 -365.252)" fill="url(#h)"/><path d="M80.754 7.702c16.947 9.786 30.652 33.51 30.6 53s-13.849 27.323-30.8 17.539-30.652-33.51-30.6-52.983 13.854-27.343 30.8-17.556z" fill="#e8eff9"/><path d="M105.829 78.38l-3.429 1.994c5.507-3.2 8.923-10.006 8.951-19.678.056-19.487-13.649-43.211-30.6-53l3.429-1.992c16.947 9.786 30.652 33.51 30.6 53-.028 9.671-3.444 16.476-8.951 19.676z" fill="#e8eff9"/><path d="M785.768 464.855l-3.429 1.994c7.292-4.239 11.815-13.25 11.852-26.056.073-25.78-18.058-57.185-40.493-70.138l3.429-1.992c22.435 12.953 40.567 44.356 40.493 70.136-.036 12.807-4.56 21.818-11.852 26.056z" transform="translate(-665.746 -363.089)" fill="url(#i)"/><path d="M87.952 7.564c22.435 12.957 40.567 44.357 40.493 70.138s-18.323 36.179-40.758 23.226S47.12 56.572 47.194 30.792 65.516-5.389 87.952 7.564zm-7.4 70.669c16.949 9.784 30.742 1.937 30.8-17.539s-13.649-43.211-30.6-53-30.742-1.935-30.8 17.552 13.649 43.2 30.6 52.983" fill="#fff"/></g><g style="isolation:isolate"><path d="M62.191 13.644l1.144-.665c-6.169 3.586-10 11.2-10.029 22.007-.062 21.747 15.293 48.344 34.229 59.277l-1.142.664C67.457 83.994 52.102 57.398 52.164 35.652c.028-10.81 3.859-18.424 10.027-22.008z" fill="#caaeff"/><path d="M111.949 96.63l-1.142.664c-6.246 3.63-14.89 3.128-24.417-2.373l1.142-.664c9.531 5.506 18.174 6.008 24.417 2.373zM60.564 10.843l1.142-.664c6.668-3.875 15.895-3.337 26.061 2.531l-1.142.666c-10.167-5.87-19.393-6.408-26.061-2.533z" fill="#caaeff"/><path d="M113.591 99.435l-1.144.665c6.579-3.824 10.663-11.941 10.7-23.469.067-23.221-16.321-51.593-36.52-63.255l1.144-.665c20.2 11.662 36.586 40.034 36.52 63.256-.036 11.527-4.122 19.645-10.7 23.468z" fill="#caaeff"/><path d="M86.623 13.375c20.2 11.662 36.587 40.034 36.52 63.255s-16.56 32.6-36.759 20.936-36.586-40.034-36.52-63.243 16.561-32.61 36.759-20.948zm-.23 81.55c18.936 10.933 34.381 2.12 34.443-19.627s-15.283-48.35-34.219-59.282S52.225 13.89 52.164 35.65s15.293 48.343 34.229 59.275" fill="#5618b8"/></g><g style="isolation:isolate"><path d="M64.716 60.84l1.143-.664 6.636 3.831-1.143.664zm18.631 19.634l1.143-.664-.019 6.6-1.143.664z" fill="#caaeff"/><path d="M93.527 85.707l1.143-.664-.02 7.245-1.143.664z" fill="#5618b8"/><path d="M80.774 70.039l1.143-.664 6.357 3.67-1.143.664z" fill="#caaeff"/><path d="M80.812 56.728l1.143-.664-.038 13.312-1.143.664z" fill="#5618b8"/><path d="M94.193 74.335l-1.142.664a2.664 2.664 0 01-.4.185c-1.2.412-3.038-.075-5.522-1.474l1.142-.663c2.484 1.4 4.319 1.886 5.524 1.472a2.5 2.5 0 00.398-.184zM80.836 48.15l1.143-.664 5.466 3.156-1.143.664z" fill="#caaeff"/><path d="M80.868 36.801l1.143-.664-.032 11.349-1.143.664zm5.435 14.501l1.142-.663c.311.18.6.335.891.49 2.092 1.113 3.646 1.557 4.662 1.358l-1.142.664c-1.016.2-2.572-.245-4.662-1.358-.291-.152-.58-.308-.891-.491z" fill="#caaeff"/><path d="M96.376 60.852l1.143-.664v.357l-1.143.664zm-2.865-8.561l-1.142.664a1.8 1.8 0 01-.513.2l1.142-.664a1.83 1.83 0 00.513-.2z" fill="#5618b8"/><path d="M64.836 18.655l1.143-.664 12.248 7.071-1.144.668zm37.379 66.263l-1.142.663c2.139-1.244 3.229-3.855 3.239-7.826a21.187 21.187 0 00-1.852-8.982l1.144-.664a21.2 21.2 0 011.852 8.98c-.01 3.974-1.1 6.585-3.241 7.829z" fill="#caaeff"/><path d="M96.375 61.209l1.142-.665a21.9 21.9 0 016.088 7.566l-1.144.664a21.873 21.873 0 00-6.086-7.565zM83.492 29.426l1.143-.664 1.8 1.04-1.143.664zm1.801 1.041l1.144-.665c.672.389 1.324.778 1.956 1.177l-1.142.665a50.183 50.183 0 00-1.958-1.177zm-8.191-11.332l1.143-.664 6.409 3.7-1.143.664z" fill="#caaeff"/><path d="M83.511 22.835l1.143-.664-.019 6.591-1.143.664zm18.177 37.326l-1.142.664a4.026 4.026 0 00.811-.626c1.258-1.216 1.886-3.378 1.894-6.413a19.7 19.7 0 00-4.237-12.3 32.676 32.676 0 00-5.346-5.35l1.142-.664a32.623 32.623 0 015.347 5.35 19.715 19.715 0 014.237 12.3c-.01 3.033-.637 5.2-1.9 6.413a4.041 4.041 0 01-.806.626zm-8-31.45l1.143-.664-.021 7.423-1.143.664z" fill="#caaeff"/><path d="M87.269 25.005l1.143-.664 6.419 3.706-1.143.664z" fill="#caaeff"/><path d="M102.46 68.774a21.186 21.186 0 011.852 8.982c-.013 4.651-1.5 7.437-4.43 8.344a10.519 10.519 0 01-6.356-.392l-.021 7.245-6.418-3.7.018-6.6-3.759-2.169-.018 6.6-6.408-3.7.018-6.6-12.249-7.071.026-8.864 6.637 3.832.093-33.311-6.635-3.831.024-8.876 12.249 7.071.018-6.591 6.408 3.7-.018 6.591 1.8 1.041c.673.387 1.325.776 1.958 1.177l.018-6.638 6.419 3.706-.021 7.423a32.677 32.677 0 015.346 5.35 19.7 19.7 0 014.237 12.3c-.008 3.035-.636 5.2-1.894 6.413-1.249 1.234-2.909 1.456-4.979.652v.358a21.872 21.872 0 016.085 7.558zm-8.9 5.8a5.253 5.253 0 00.964-3.554 9.434 9.434 0 00-.941-4.177q-1.67-3.557-6.411-6.431c-.176-.114-.342-.209-.528-.317l-5.829-3.365-.038 13.313 6.357 3.669c2.484 1.4 4.318 1.886 5.522 1.474a2.053 2.053 0 00.9-.611m-12.69-37.77l-.031 11.348 5.467 3.156c.31.18.6.335.891.49 2.09 1.113 3.646 1.557 4.662 1.358 1.141-.258 1.726-1.435 1.731-3.517a8.213 8.213 0 00-1.873-5.3 18.061 18.061 0 00-4.487-3.822c-.435-.286-.91-.574-1.407-.86l-4.95-2.857" fill="#5618b8"/></g><g style="isolation:isolate"><path d="M96.293 297.928c-4.423 6.003-7.524 12.567-8.259 18.27l-2.154-.892c.733-5.702 3.835-12.267 8.259-18.271z" fill="#fff"/><path d="M112.476 283.028a55.168 55.168 0 00-16.183 14.9l-2.154-.892a55.16 55.16 0 0116.182-14.9c5.983-3.437 11.105-4.265 14.566-2.832l2.154.893c-3.462-1.435-8.585-.606-14.565 2.83zm-24.438 33.168c-.738 5.738 1.067 9.516 4.574 10.969l-2.155-.892c-3.508-1.454-5.311-5.229-4.573-10.969z" fill="#fff"/><path d="M124.886 279.304l2.154.893c3.509 1.452 5.31 5.227 4.573 10.967l-2.154-.892c.737-5.74-1.066-9.515-4.573-10.968z" fill="#e8eff9"/><path d="M736.01 368.627l1.85-1.421c3.985-3.059 9.5-2.628 15.6 2.017l-1.85 1.419c-6.096-4.642-11.61-5.074-15.6-2.015z" transform="rotate(60 508.276 -204.928)" fill="url(#h)"/><path d="M129.458 290.272c-1.467 11.405-12.41 26.26-24.448 33.176s-20.596 3.263-19.133-8.139 12.41-26.26 24.44-33.171 20.607-3.272 19.141 8.134z" fill="#e8eff9"/><path d="M92.609 327.168l-2.156-.891c3.46 1.432 8.582.604 14.557-2.829 12.04-6.916 22.982-21.772 24.448-33.176l2.154.893c-1.467 11.404-12.41 26.26-24.448 33.176-5.978 3.434-11.095 4.26-14.555 2.827z" fill="#e8eff9"/><path d="M771 437.2l-1.85 1.421c3.934-3.021 6.375-9.441 6.394-18.566.04-18.369-9.743-40.746-21.847-49.975l1.85-1.419c12.1 9.229 21.886 31.605 21.847 49.974-.019 9.127-2.46 15.547-6.394 18.565z" transform="rotate(60 508.836 -207.02)" fill="url(#i)"/><path d="M131.483 293.586c-1.943 15.093-16.429 34.757-32.356 43.908s-27.268 4.327-25.327-10.77 16.427-34.756 32.355-43.907 27.269-4.328 25.328 10.769zm-45.607 21.723c-1.465 11.404 7.098 15.054 19.133 8.14s22.982-21.772 24.449-33.176-7.1-15.054-19.139-8.137-22.973 21.767-24.44 33.171" fill="#fff"/></g><g style="isolation:isolate"><path d="M120.783 283.717l.718.297c-3.876-1.604-9.607-.682-16.284 3.154-13.44 7.72-25.706 24.369-27.344 37.111l-.718-.297c1.638-12.742 13.908-29.391 27.343-37.11 6.677-3.837 12.409-4.76 16.285-3.155zm-37.789 52.817l-.717-.297c-3.925-1.625-5.947-5.842-5.122-12.254l.717.297c-.825 6.41 1.198 10.629 5.122 12.254zm39.081-54.577l.717.297c4.191 1.737 6.347 6.237 5.471 13.076l-.719-.297c.874-6.837-1.282-11.34-5.47-13.076z" fill="#caaeff"/><path d="M81.71 338.297l-.72-.298c4.136 1.712 10.246.728 17.368-3.363 14.346-8.241 27.433-26.007 29.182-39.596l.719.298c-1.746 13.594-14.835 31.356-29.184 39.596-7.12 4.09-13.233 5.075-17.365 3.363z" fill="#caaeff"/><path d="M127.54 295.036c-1.747 13.594-14.835 31.357-29.183 39.596s-24.583 3.877-22.835-9.716 14.834-31.357 29.175-39.592 24.59-3.88 22.842 9.712zm-50.384 28.946c-1.638 12.742 7.967 16.818 21.403 9.1s25.712-24.366 27.35-37.108-7.966-16.827-21.409-9.103-25.705 24.368-27.343 37.11" fill="#5618b8"/></g><g style="isolation:isolate"><path d="M92.34 301.71l.719.298-.574 4.466-.718-.298zm-7.089 15.7l.718.299-4.075 2.34-.718-.297z" fill="#caaeff"/><path d="M84.767 324.03l.718.298-4.476 2.572-.718-.298z" fill="#5618b8"/><path d="M90.996 312.49l.718.298-.55 4.278-.718-.298z" fill="#caaeff"/><path d="M99.22 307.765l.718.298-8.224 4.725-.718-.298z" fill="#5618b8"/><path d="M91.965 320.29l-.718-.296a1.314 1.314 0 01-.221-.12c-.58-.416-.773-1.446-.58-3.104l.717.297c-.196 1.66.001 2.69.582 3.105a1.231 1.231 0 00.22.119zm12.555-15.569l.718.298-.473 3.678-.718-.297z" fill="#caaeff"/><path d="M111.532 300.692l.718.298-7.012 4.03-.718-.299zm-7.485 7.708l.717.297c-.027.21-.045.4-.061.59-.123 1.375.022 2.26.419 2.663l-.718-.297c-.397-.404-.542-1.29-.419-2.662.017-.191.035-.382.062-.591z" fill="#caaeff"/><path d="M100.874 316.507l.719.298-.22.127-.719-.298zm4.51-4.389l-.718-.297a.85.85 0 01-.261-.169l.718.297a.86.86 0 00.261.17z" fill="#5618b8"/><path d="M118.404 286.738l.718.298-1.059 8.241-.717-.297zm-30.805 41.071l-.718-.297c1.344.556 3.25.135 5.703-1.275a19.313 19.313 0 005.042-4.066l.718.298a19.325 19.325 0 01-5.042 4.066c-2.453 1.41-4.357 1.833-5.703 1.274z" fill="#caaeff"/><path d="M100.653 316.634l.719.296a15.651 15.651 0 01-3.027 5.54l-.718-.298a15.632 15.632 0 003.026-5.538zm16.137-17.342l.718.298-.156 1.212-.718-.298z" fill="#caaeff"/><path d="M116.633 300.505l.72.297c-.06.452-.123.895-.199 1.333l-.718-.297c.076-.438.14-.881.197-1.333zm4.784-7.865l.718.297-.554 4.313-.718-.298zm-.555 4.312l.718.298-4.075 2.342-.718-.298zm-18.129 21.79l-.718-.297a2.376 2.376 0 00.605.156c1.09.155 2.594-.322 4.468-1.4a17.112 17.112 0 006.448-6.362 21.49 21.49 0 001.859-4.404l.718.297a21.453 21.453 0 01-1.86 4.405 17.127 17.127 0 01-6.447 6.362c-1.874 1.076-3.376 1.552-4.468 1.399a2.383 2.383 0 01-.605-.156z" fill="#caaeff"/><path d="M119.982 303.8l.718.298-4.586 2.635-.718-.298z" fill="#caaeff"/><path d="M120.536 299.482l.718.298-.555 4.32-.719-.298z" fill="#caaeff"/><path d="M97.627 322.173a19.313 19.313 0 01-5.042 4.066c-2.874 1.65-4.996 1.947-6.345.903a4.385 4.385 0 01-1.473-3.11l-4.476 2.572.556-4.318 4.08-2.344.323-2.529-4.075 2.342.554-4.312 4.076-2.341 1.06-8.243 5.476-3.145-.574 4.466 20.58-11.824.573-4.465 5.484-3.15-1.06 8.242 4.075-2.342-.554 4.312-4.076 2.341-.156 1.213c-.058.453-.122.896-.198 1.334l4.101-2.357-.555 4.32-4.586 2.635a21.49 21.49 0 01-1.86 4.404 17.111 17.111 0 01-6.447 6.362c-1.873 1.08-3.376 1.553-4.468 1.4a1.924 1.924 0 01-1.746-2.094l-.22.127a15.631 15.631 0 01-3.027 5.535zm-5.977-2.092a4.638 4.638 0 002.453-.816 8.558 8.558 0 002.324-1.928 10.333 10.333 0 002.238-5.286c.021-.128.037-.234.053-.36l.506-3.924L91 312.492l-.549 4.278c-.196 1.66 0 2.689.58 3.105a1.151 1.151 0 00.622.204m19.875-19.385l-7.01 4.029-.474 3.678c-.027.209-.045.4-.062.59-.123 1.374.022 2.259.42 2.662.466.442 1.35.296 2.636-.444a7.1 7.1 0 002.765-2.762 11.138 11.138 0 001.146-3.458c.056-.304.109-.63.15-.964l.427-3.33" fill="#5618b8"/></g></svg>