<svg xmlns="http://www.w3.org/2000/svg" width="67.958" height="37.761"><g transform="rotate(90 33.979 33.979)"><rect width="15" height="32" rx="1" transform="translate(13.828 1.979)" fill="#aca2e4"/><path d="M36.433 21.536a1.327 1.327 0 00-1.327 1.327 1.327 1.327 0 101.327-1.331z" fill="#020688"/><path d="M34.176 0h-23.63a3.589 3.589 0 00-3.585 3.585v27.409c-.21.286-.561.749-.9 1.2-1.269 1.677-3.187 4.21-4.331 6.011-2.255 3.556-2.3 7.109-.145 11.882q.022.05.049.1s2.7 4.877 2.812 5.09c.681 1.258 1.82 3.363 1.748 5.017v3.982a3.687 3.687 0 003.682 3.682h11.99a3.687 3.687 0 003.682-3.682l-.011-3.438a9.029 9.029 0 01.454-2.9 16.338 16.338 0 00.509-2.211c0-.024.007-.048.009-.072a17.143 17.143 0 00-.894-6.089c-.318-1.182-.658-2.444-.9-3.84h9.461a3.589 3.589 0 003.585-3.585V28.823a1.327 1.327 0 00-2.655 0v13.315a.931.931 0 01-.93.93h-3.13V2.655h3.131a.931.931 0 01.93.93V16.9a1.327 1.327 0 102.655 0V3.585A3.589 3.589 0 0034.176 0zm-12.31 65.3H9.872a1.042 1.042 0 01-1.028-1.028v-3.9c.091-2.379-1.259-4.873-2.067-6.366l-2.8-5.066c-1.765-3.933-1.767-6.549-.011-9.318.769-1.21 1.935-2.808 2.993-4.221v6.73a3.589 3.589 0 003.585 3.585H14.8v4.429a1.327 1.327 0 102.655 0V36.174a2.172 2.172 0 013.719-1.524 2.121 2.121 0 01.628 1.516c0 .455-.01 3.448-.063 4.837a23.837 23.837 0 00.118 3.438c0 .077.106.864.153 1.172a41.165 41.165 0 001.042 4.639 15.207 15.207 0 01.818 5.11 13.808 13.808 0 01-.431 1.84 11.639 11.639 0 00-.557 3.642v.014l.011 3.417a1.042 1.042 0 01-1.027 1.025zm6.525-22.236H24.41c-.034-.627.046-6.434.048-6.886a4.758 4.758 0 00-1.4-3.4 4.826 4.826 0 00-8.257 3.4v6.893h-4.255a.931.931 0 01-.93-.93V3.585a.931.931 0 01.93-.93h17.845z" fill="#020688"/></g></svg>