<svg xmlns="http://www.w3.org/2000/svg" width="32" height="32"><path d="M16 32A16 16 0 100 16a16 16 0 0016 16z" fill="#f7931a"/><path d="M23.032 14.02c.314-2.1-1.283-3.223-3.465-3.975l.708-2.84-1.728-.43-.69 2.765c-.454-.114-.92-.22-1.385-.326l.695-2.783L15.439 6l-.708 2.839c-.376-.086-.746-.17-1.1-.26V8.57l-2.384-.595-.46 1.846s1.283.294 1.256.312a.92.92 0 01.8 1.006l-.806 3.235a1.537 1.537 0 01.18.057l-.183-.045-1.13 4.532a.63.63 0 01-.793.41c.018.025-1.256-.313-1.256-.313L8 20.993l2.25.561c.418.1.828.215 1.231.318l-.715 2.872 1.727.43.708-2.84c.472.127.93.245 1.378.357l-.706 2.828 1.728.43.715-2.866c2.948.558 5.164.333 6.1-2.333.752-2.146-.037-3.385-1.588-4.192a2.755 2.755 0 002.207-2.538zm-3.95 5.538c-.533 2.147-4.148.986-5.32.695l.95-3.805c1.172.293 4.929.872 4.37 3.11zm.535-5.569c-.487 1.953-3.5.96-4.47.717l.86-3.45c.975.244 4.118.696 3.61 2.733z" fill="#fff"/></svg>