<svg xmlns="http://www.w3.org/2000/svg" width="10.406" height="19.248"><defs><clipPath id="a"><path d="M32.092 0H29.6a4.384 4.384 0 00-4.617 4.737v2.184h-2.51a.393.393 0 00-.392.393v3.165a.392.392 0 00.392.392h2.51v7.985a.392.392 0 00.392.392h3.274a.392.392 0 00.392-.392v-7.985h2.934a.392.392 0 00.392-.392V7.314a.393.393 0 00-.393-.393h-2.935V5.07c0-.89.212-1.342 1.371-1.342h1.681a.392.392 0 00.392-.392V.4a.393.393 0 00-.391-.4z" transform="translate(-22.077)" fill="#130ec4"/></clipPath></defs><g clip-path="url(#a)"><path d="M10.015 0H7.523a4.384 4.384 0 00-4.617 4.737v2.184H.396a.393.393 0 00-.392.393v3.165a.392.392 0 00.392.392h2.51v7.985a.392.392 0 00.392.392h3.274a.392.392 0 00.392-.392v-7.985h2.934a.392.392 0 00.392-.392V7.314a.393.393 0 00-.393-.393H6.962V5.07c0-.89.212-1.342 1.371-1.342h1.681a.392.392 0 00.392-.392V.4a.393.393 0 00-.391-.4z" fill="#130ec4"/></g></svg>