<svg xmlns="http://www.w3.org/2000/svg" width="32" height="32"><path d="M16 32A16 16 0 100 16a16 16 0 0016 16z" fill="#64d1ff"/><path d="M11 15.238h1.764V7h4.547a8.427 8.427 0 012.31.3 4.941 4.941 0 011.789.9 4.175 4.175 0 011.168 1.536A5.347 5.347 0 0123 11.958a5.271 5.271 0 01-.447 2.247 4.479 4.479 0 01-1.218 1.588 5.113 5.113 0 01-1.813.943 7.909 7.909 0 01-2.261.31h-2.51v2.608h4v1.7h-4V25h-1.987v-3.641H11v-1.7h1.764v-2.613H11zm6.31 0a4.1 4.1 0 002.7-.813 3.023 3.023 0 00.982-2.467 2.829 2.829 0 00-.982-2.4 4.341 4.341 0 00-2.695-.75h-2.56v6.431z" fill="#fff" fill-rule="evenodd"/></svg>