<svg xmlns="http://www.w3.org/2000/svg" width="21.048" height="14.571"><g fill="#130ec4"><path d="M20.875 1.786l-5.444 5.545a.1.1 0 000 .142l3.81 4.058a.657.657 0 010 .931.66.66 0 01-.931 0l-3.795-4.043a.1.1 0 00-.147 0l-.926.941a4.074 4.074 0 01-2.9 1.224 4.155 4.155 0 01-2.965-1.26l-.89-.906a.1.1 0 00-.147 0l-3.798 4.043a.66.66 0 01-.931 0 .657.657 0 010-.931l3.814-4.057a.108.108 0 000-.142L.172 1.786A.1.1 0 000 1.857v11.1a1.624 1.624 0 001.619 1.614h17.806a1.624 1.624 0 001.619-1.619v-11.1a.1.1 0 00-.169-.066z"/><path d="M10.523 9.264a2.751 2.751 0 001.978-.83l7.938-8.08a1.59 1.59 0 00-1-.354H1.614a1.58 1.58 0 00-1 .354l7.938 8.08a2.751 2.751 0 001.971.83z"/></g></svg>