<svg xmlns="http://www.w3.org/2000/svg" width="32" height="32"><path d="M16 32A16 16 0 100 16a16 16 0 0016 16z" fill="#8dc351"/><path d="M21.23 10.523c-.776-1.972-2.722-2.15-4.988-1.71L15.435 6l-1.712.491.786 2.74c-.45.128-.908.27-1.363.41l-.79-2.758-1.711.49.8 2.813c-.368.114-.73.226-1.085.328v-.01L8 11.181l.525 1.83s1.258-.388 1.243-.358a.919.919 0 011.2.468l.92 3.2a1.522 1.522 0 01.184-.04l-.181.052 1.287 4.49a.629.629 0 01-.48.752c.027.013-1.246.356-1.246.356l.247 2.143 2.228-.64c.415-.117.825-.227 1.226-.34l.817 2.845 1.71-.49-.807-2.815q.688-.183 1.372-.38l.8 2.8 1.713-.491-.814-2.84c2.831-.991 4.638-2.294 4.113-5.07-.422-2.234-1.724-2.912-3.471-2.836a2.754 2.754 0 00.642-3.3zm-.65 6.77c.61 2.127-3.1 2.929-4.26 3.263l-1.081-3.77c1.16-.333 4.7-1.71 5.34.508zM18.258 12.2c.554 1.935-2.547 2.58-3.514 2.857l-.98-3.419c.966-.277 3.915-1.455 4.494.563z" fill="#fff"/></svg>