<svg xmlns="http://www.w3.org/2000/svg" width="32" height="32"><path d="M16 32A16 16 0 100 16a16 16 0 0016 16z" fill="#6cde07"/><path d="M23 19.154c0 2.57-2.086 4.276-5.166 4.533V26h-2.11v-2.336A11.5 11.5 0 0110 21.35l1.552-2.126a8.949 8.949 0 004.269 2.01v-4.58c-3.541-.888-5.19-2.173-5.19-4.813 0-2.523 2.061-4.252 5.093-4.486V6h2.11v1.4a9.49 9.49 0 014.56 1.776l-1.359 2.2a8.492 8.492 0 00-3.3-1.495v4.439c3.689.886 5.265 2.311 5.265 4.834zm-7.18-5.327V9.715c-1.527.117-2.327.935-2.327 1.963 0 .98.46 1.612 2.328 2.15zm4.318 5.49c0-1.05-.51-1.681-2.4-2.219v4.23c1.528-.118 2.4-.889 2.4-2.01z" fill="#fff" fill-rule="evenodd"/></svg>