<svg xmlns="http://www.w3.org/2000/svg" width="23.538" height="23.538"><path d="M17.17 14.032l-.009.074c-2.157-1.075-2.382-1.218-2.661-.8-.193.289-.756.945-.926 1.14s-.342.206-.634.074a7.96 7.96 0 01-2.355-1.458 8.9 8.9 0 01-1.628-2.03c-.287-.5.314-.567.861-1.6a.539.539 0 00-.025-.514c-.074-.15-.659-1.592-.908-2.166s-.478-.5-.659-.5a1.46 1.46 0 00-1.341.337c-1.583 1.74-1.184 3.535.171 5.443 2.662 3.484 4.08 4.125 6.673 5.015a4.058 4.058 0 001.844.119 3.018 3.018 0 001.977-1.4 2.428 2.428 0 00.177-1.4c-.073-.132-.265-.206-.559-.338z" fill="#130ec4"/><path d="M20.125 3.383C12.584-3.907.1 1.38.1 11.664a11.608 11.608 0 001.564 5.83L0 23.538l6.213-1.62A11.74 11.74 0 0023.538 11.67a11.567 11.567 0 00-3.428-8.249zm1.453 8.255a9.764 9.764 0 01-14.723 8.34l-.353-.21-3.678.956.986-3.575-.234-.368a9.727 9.727 0 0115.149-12 9.6 9.6 0 012.853 6.855z" fill="#130ec4"/></svg>