<svg xmlns="http://www.w3.org/2000/svg" width="32" height="32"><path d="M16 32A16 16 0 100 16a16 16 0 0016 16z" fill="#008ce7"/><path d="M19.129 8h-7.276l-.6 3.367 6.562.01c3.231 0 4.19 1.173 4.159 3.12a14.132 14.132 0 01-.633 3.23c-.5 1.46-1.521 3.122-5.359 3.117H9.604L9 24.211h7.257a10.106 10.106 0 004.8-.83c2.554-1.178 4.075-3.7 4.686-6.994.906-4.9-.224-8.387-6.615-8.387z" fill="#fff"/><path d="M15.8 15.38c.237-.985.312-1.38.312-1.38H8.669a2.144 2.144 0 00-2.357 1.99C6.075 16.971 6 17.371 6 17.371h7.447A2.144 2.144 0 0015.8 15.38z" fill="#fff"/></svg>