<svg xmlns="http://www.w3.org/2000/svg" width="32" height="32"><path d="M16 32A16 16 0 100 16a16 16 0 0016 16z" fill="#328332"/><path d="M15.989 16.553l-6.721-.577 6.72-3.8v4.379zm0 4.46v6.94C13.652 24.315 11.076 20.311 9 17.07c2.45 1.38 5.008 2.823 6.989 3.944zm0-10.068L9 14.845 15.989 4v6.945z" fill="#fff"/><path d="M22.721 15.976L16 16.553v-4.379l6.72 3.8zM16 21.014c1.98-1.12 4.537-2.564 6.988-3.944-2.076 3.242-4.652 7.246-6.988 10.882v-6.938zm0-10.069V4l6.988 10.845-6.988-3.9z" fill="rgba(255,255,255,0.6)"/><path d="M16 16.577L22.72 16 16 19.775z" fill="#fff" fill-rule="evenodd" opacity=".2"/><path d="M15.721 16.577L9 16l6.721 3.775z" fill="#fff" fill-rule="evenodd" opacity=".603"/></svg>