<svg xmlns="http://www.w3.org/2000/svg" width="21.749" height="21.749"><path d="M10.878 5.29a5.58 5.58 0 105.58 5.58 5.58 5.58 0 00-5.58-5.58zm0 9.2a3.622 3.622 0 113.622-3.622 3.621 3.621 0 01-3.622 3.624z" fill="#130ec4"/><path d="M15.358.068c-2-.093-6.957-.089-8.96 0a6.5 6.5 0 00-4.563 1.759C-.256 3.918.011 6.737.011 10.87c0 4.23-.236 6.983 1.824 9.043 2.1 2.1 4.959 1.824 9.043 1.824 4.19 0 5.637 0 7.118-.571 2.014-.782 3.535-2.583 3.684-5.817.094-2 .089-6.957 0-8.96C21.5 2.572 19.452.256 15.358.068zm3.167 18.461c-1.371 1.371-3.273 1.249-7.674 1.249-4.531 0-6.348.067-7.674-1.262-1.527-1.52-1.251-3.96-1.251-7.66 0-5.007-.514-8.613 4.511-8.87 1.154-.041 1.494-.054 4.4-.054l.041.027c4.829 0 8.618-.506 8.845 4.518.052 1.146.063 1.491.063 4.392 0 4.478.084 6.306-1.263 7.66z" fill="#130ec4"/><circle cx="1.304" cy="1.304" r="1.304" transform="translate(15.376 3.766)" fill="#130ec4"/></svg>