<svg xmlns="http://www.w3.org/2000/svg" width="27.144" height="15.835"><path d="M22.525 9.08c-.439-.554-.313-.8 0-1.3.006-.006 3.628-5.012 4-6.709.185-.619 0-1.073-.9-1.073h-2.961a1.274 1.274 0 00-1.291.827 24.275 24.275 0 01-3.649 5.962c-.69.677-1.009.895-1.386.895-.185 0-.474-.217-.474-.836V1.073c0-.742-.212-1.073-.837-1.073h-4.666a.71.71 0 00-.756.668c0 .7 1.069.865 1.18 2.845v4.295c0 .941-.171 1.114-.55 1.114-1.009 0-3.458-3.632-4.909-7.788C5.034.327 4.748 0 3.987 0H1.018C.171 0 0 .391 0 .828 0 1.6 1.009 5.435 4.692 10.5c2.454 3.459 5.911 5.333 9.055 5.333 1.89 0 2.121-.416 2.121-1.132 0-3.3-.171-3.617.776-3.617.439 0 1.194.217 2.959 1.885 2.017 1.978 2.348 2.864 3.477 2.864h2.968c.846 0 1.275-.416 1.028-1.237-.566-1.726-4.376-5.279-4.551-5.516z" fill="#130ec4"/></svg>