<svg xmlns="http://www.w3.org/2000/svg" width="184" height="39.724"><g fill="#fff"><path d="M17.606 11.065l.006.019a9.828 9.828 0 1013.537 9.1h-3.731a6.1 6.1 0 11-10.4-4.315 5.98 5.98 0 01.444-.4l.022-.02 2.619-2.367 3.2-2.89-5.7-.963zM134.285 24.6a3.486 3.486 0 002.73-1.211 4.905 4.905 0 00-.014-6.172 3.647 3.647 0 00-5.445 0 4.975 4.975 0 00-.018 6.184 3.49 3.49 0 002.746 1.2m-54.394 0h1.3a4.427 4.427 0 002-.346 1.182 1.182 0 00.536-1.1 1.382 1.382 0 00-.493-1.208 4.179 4.179 0 00-1.979-.353h-1.361zm0-6h.676a4.82 4.82 0 002.026-.315 1.108 1.108 0 00.5-1.036 1.2 1.2 0 00-.465-1.079 4.545 4.545 0 00-1.992-.322h-.74zm94.736 4.251a7.393 7.393 0 001.779 1.531 3.405 3.405 0 001.709.5 1.912 1.912 0 001.264-.41 1.255 1.255 0 00.48-1.011 1.335 1.335 0 00-.409-1.05 6.363 6.363 0 00-2.021-.812 7.168 7.168 0 01-3.223-1.6 3.832 3.832 0 01-.965-2.745 4.809 4.809 0 011.5-3.659 5.447 5.447 0 013.879-1.413 8.413 8.413 0 012.422.342 7.92 7.92 0 012.174 1.041l.1.07-1.429 3.271-.155-.131a5.306 5.306 0 00-1.406-.88 3.673 3.673 0 00-1.406-.293 1.811 1.811 0 00-1.118.327.954.954 0 00-.407.795.981.981 0 00.353.8 4.584 4.584 0 001.52.621l.185.053a8.363 8.363 0 013.4 1.543 3.866 3.866 0 01.854 1.394 5.254 5.254 0 01.288 1.786 5.189 5.189 0 01-1.632 3.989 6.163 6.163 0 01-4.331 1.507 7.654 7.654 0 01-2.945-.549 8.293 8.293 0 01-2.546-1.72l-.087-.084 2.04-3.37zm-15.91-4.574q.04.383.071.766c.035.438.057.878.057 1.317v7.642h-4.29V12.532h4.215l5.782 7.863a10.281 10.281 0 01.55.976c.152.289.3.581.44.874-.027-.252-.051-.5-.07-.756a16.531 16.531 0 01-.057-1.317v-7.641h4.269v15.468h-4.19l-5.774-7.89a7.727 7.727 0 01-.568-.979q-.226-.423-.434-.856zM145.993 28V12.532h4.48V28zm-3.451-7.7a8.013 8.013 0 01-.613 3.123 7.846 7.846 0 01-1.784 2.609 8.367 8.367 0 01-2.7 1.757 8.3 8.3 0 01-8.982-1.757 7.927 7.927 0 010-11.465 8.238 8.238 0 015.832-2.372 8.372 8.372 0 013.167.615 8.2 8.2 0 012.682 1.757 7.9 7.9 0 012.4 5.732zm-18.963-7.115v5.006l-.263-.293a6.09 6.09 0 00-1.651-1.349 3.707 3.707 0 00-1.737-.425 3.567 3.567 0 00-2.772 1.167 4.408 4.408 0 00-1.064 3.069 4.109 4.109 0 001.084 2.919 3.6 3.6 0 002.753 1.154 3.718 3.718 0 001.737-.422 5.97 5.97 0 001.65-1.352l.264-.3v5.008l-.084.042a9.917 9.917 0 01-1.986.728 8.354 8.354 0 01-2 .242 8.66 8.66 0 01-2.332-.3 6.808 6.808 0 01-1.974-.918 7.818 7.818 0 01-2.637-2.923 8.558 8.558 0 01-.908-3.965 8.693 8.693 0 01.576-3.219 7.98 7.98 0 011.732-2.634 7.283 7.283 0 012.48-1.692 8.108 8.108 0 013.062-.559 8.4 8.4 0 012 .242 9.978 9.978 0 011.986.728zm-21.526 3.236h-3.394v-3.886h11.226v3.886h-3.392v11.581h-4.438zM91.304 28.002v-15.47h4.48V28zm-6.266-8.369a3.546 3.546 0 011.965 1.088 4.054 4.054 0 01.951 2.8 4.483 4.483 0 01-.532 2.205 3.686 3.686 0 01-1.525 1.488 6.167 6.167 0 01-1.96.606 25.73 25.73 0 01-3.748.18h-4.436V12.532h4.312a24.118 24.118 0 013.612.168 5.52 5.52 0 011.8.586 3.364 3.364 0 011.338 1.306 3.788 3.788 0 01.458 1.884 3.215 3.215 0 01-.694 2.156 3.8 3.8 0 01-1.544.999zM32.123 9.5l7.32-7.32a7.5 7.5 0 0110.57 0l12.4 12.4a7.5 7.5 0 010 10.571l-12.4 12.4a7.5 7.5 0 01-10.57 0l-6.387-6.387h14.757a6.73 6.73 0 002.636-.514 7.077 7.077 0 002.14-1.38 6.551 6.551 0 001.452-2 5.6 5.6 0 00.53-2.406 5.08 5.08 0 00-.778-2.76 6.1 6.1 0 00-2.088-2.017 5.484 5.484 0 001.592-1.876 5.165 5.165 0 00.566-2.406 5.632 5.632 0 00-.531-2.389 6.459 6.459 0 00-1.45-2.016 7.1 7.1 0 00-2.141-1.381 6.726 6.726 0 00-2.636-.513H32.123z" fill-rule="evenodd"/><path d="M47.815 27.193a2.46 2.46 0 001.787-.708 2.435 2.435 0 000-3.468 2.46 2.46 0 00-1.787-.708H41.09v4.884zm-.708-8.847a2.458 2.458 0 001.787-.708 2.434 2.434 0 000-3.467 2.458 2.458 0 00-1.787-.708H41.09v4.883z"/><path d="M9.698 30.014H5.967V17.903a8.807 8.807 0 01-5.751 2.284h-.217v-3.73c3.239-.237 5.275-2.071 5.967-5.691v-.4h3.731zm23.358-.698a9.829 9.829 0 005.954-7.367v-.019l.035-.213v-.013c.008-.056.017-.111.024-.167l.01-.072c.006-.049.011-.1.018-.148s.008-.07.012-.105l.008-.1c0-.05.01-.1.014-.149v-.078c0-.058.008-.118.011-.176v-.051c0-.066.006-.131.007-.2v-.717c0-.07-.007-.141-.012-.211v-.008a9.826 9.826 0 00-19.63.674h3.73a6.1 6.1 0 1110.4 4.316 5.779 5.779 0 01-.445.4l-.022.019-2.619 2.367-3.192 2.898 5.7.962v-1.84z" fill-rule="evenodd"/></g></svg>