<svg xmlns="http://www.w3.org/2000/svg" width="33" height="33"><path d="M16.5 32.5a16 16 0 10-16-16 16 16 0 0016 16z" fill="#fff" stroke="#f4f8fa"/><path d="M16.508 26.426l-.107-.053a18.614 18.614 0 01-8.58-11.242 18.314 18.314 0 01-.462-2.309 20.963 20.963 0 01-.16-2.362c0-.133-.018-.115.107-.178a18.528 18.528 0 016.917-2.291 19.952 19.952 0 012.726-.133c.515.009 1.021.044 1.527.1a18.64 18.64 0 017.176 2.289c.036.018.062.036.1.053a.089.089 0 01.053.089v.133a24.31 24.31 0 01-.062 1.376 18.115 18.115 0 01-.266 1.954 18.1 18.1 0 01-1.269 4.023 18.387 18.387 0 01-3.747 5.479 18.492 18.492 0 01-3.809 2.975c-.053.036-.1.062-.151.1zM8.051 10.913v.107a15.774 15.774 0 00.125 1.944 16.584 16.584 0 00.3 1.74 1.89 1.89 0 00.1.293 3.954 3.954 0 007.388-.586 5.17 5.17 0 00.16-1.163 5.7 5.7 0 01.084-.772 4.691 4.691 0 012.8-3.464c.08-.036.169-.062.249-.1.009-.009.027-.009.027-.027a16.064 16.064 0 00-2.433-.24 16.687 16.687 0 00-5.213.71 16.927 16.927 0 00-3.587 1.558zm13.1 10.638a.279.279 0 00.089-.089c.355-.444.693-.906 1-1.385a16.8 16.8 0 002.328-5.586 16.25 16.25 0 00.311-2.06c.044-.471.062-.941.062-1.421a.364.364 0 00-.009-.1l-.133-.08c-.364-.2-.737-.4-1.11-.577a14.394 14.394 0 00-1.681-.672 3.836 3.836 0 00-2.12-.071 3.925 3.925 0 00-2.948 4.537 3.883 3.883 0 001.8 2.646c.062.044.133.08.2.124a4.585 4.585 0 011.678 1.767 4.5 4.5 0 01.559 2.486 3 3 0 01-.027.48zm-4.643 3.969a.811.811 0 00.115-.071 17.178 17.178 0 003.09-2.327.614.614 0 00.142-.2c.062-.115.124-.24.178-.355a3.893 3.893 0 00.249-2.877 3.949 3.949 0 00-4.283-2.783 3.812 3.812 0 00-1.483.5 4.7 4.7 0 01-2.833.6 4.6 4.6 0 01-1.421-.373 4.685 4.685 0 01-.995-.595.565.565 0 00-.089-.053.36.36 0 00.03.089 17.275 17.275 0 001.465 2.886 16.849 16.849 0 004.848 4.964c.444.284.861.542.986.595z" fill="#fff"/><path d="M8.052 10.912a16.574 16.574 0 013.579-1.545 16.989 16.989 0 015.213-.71 14.969 14.969 0 012.433.24c.009.018-.009.027-.027.027-.08.036-.169.062-.249.1a4.691 4.691 0 00-2.806 3.463 5.7 5.7 0 00-.08.773 4.324 4.324 0 01-.16 1.163 3.954 3.954 0 01-7.388.586 1.263 1.263 0 01-.1-.293 16.584 16.584 0 01-.3-1.74 15.886 15.886 0 01-.124-1.948.506.506 0 00.009-.116z" fill="#f7a800"/><path d="M21.15 21.551c.018-.169.036-.32.044-.48a4.687 4.687 0 00-2.238-4.253c-.062-.044-.133-.08-.2-.124a3.836 3.836 0 01-1.8-2.646 3.946 3.946 0 015.07-4.467 12.987 12.987 0 011.678.675c.382.178.746.373 1.11.577.044.027.08.044.133.08 0 .036.009.062.009.1 0 .471-.027.95-.062 1.421a17.73 17.73 0 01-.311 2.06 16.62 16.62 0 01-2.327 5.585c-.311.48-.648.941-1 1.385-.035.025-.053.06-.106.087z" fill="#67b2e8"/><path d="M16.505 25.518a8.573 8.573 0 01-.977-.595 16.94 16.94 0 01-2.682-2.229 16.486 16.486 0 01-2.167-2.735 16.029 16.029 0 01-1.465-2.886.552.552 0 01-.027-.089l.089.053a4.541 4.541 0 00.995.595 4.6 4.6 0 001.421.373 4.728 4.728 0 002.833-.6 4.185 4.185 0 011.483-.5 3.949 3.949 0 014.28 2.788 3.858 3.858 0 01-.249 2.877c-.062.124-.115.24-.178.355a.614.614 0 01-.142.2 17.178 17.178 0 01-3.09 2.327c-.041.024-.088.05-.124.066z" fill="#00c4b3"/></svg>