<svg xmlns="http://www.w3.org/2000/svg" width="32" height="32"><g transform="translate(.036 .319)"><circle cx="16" cy="16" r="16" transform="translate(-.036 -.319)" fill="#61b5e0"/><path d="M10.979 24.184V7.497h5.405a19.616 19.616 0 014.006.25 4.375 4.375 0 012.4 1.634 5.181 5.181 0 01.967 3.25 5.442 5.442 0 01-.558 2.584 4.573 4.573 0 01-1.415 1.644 4.876 4.876 0 01-1.747.791 19.228 19.228 0 01-3.494.239h-2.2v6.295h-3.364zm3.369-13.864v4.731h1.844a8.7 8.7 0 002.664-.262 2.212 2.212 0 001.053-.819 2.246 2.246 0 00.381-1.3 2.155 2.155 0 00-.535-1.5 2.33 2.33 0 00-1.354-.74 16.171 16.171 0 00-2.425-.114z" fill="#fff"/></g></svg>