<svg xmlns="http://www.w3.org/2000/svg" xmlns:xlink="http://www.w3.org/1999/xlink" width="314.828" height="282.745"><defs><linearGradient id="a" y1=".5" x2="1" y2=".5" gradientUnits="objectBoundingBox"><stop offset="0" stop-color="#ffc444"/><stop offset=".996" stop-color="#f36f56"/></linearGradient><linearGradient id="b" x1=".68" y1=".118" x2=".419" y2=".784" gradientUnits="objectBoundingBox"><stop offset="0" stop-color="#aa80f9"/><stop offset=".996" stop-color="#6165d7"/></linearGradient><linearGradient id="f" x1=".104" y1=".52" x2=".271" y2=".496" gradientUnits="objectBoundingBox"><stop offset=".004" stop-color="#26264f"/><stop offset="1" stop-color="#444b8c"/></linearGradient><linearGradient id="g" x1=".224" y1="1.168" x2=".333" y2=".92" gradientUnits="objectBoundingBox"><stop offset="0" stop-color="#444b8c"/><stop offset=".996" stop-color="#26264f"/></linearGradient><linearGradient id="h" x1=".544" y1="1.144" x2=".375" y2="-.313" xlink:href="#g"/><linearGradient id="i" x1=".69" y1=".085" x2=".96" y2="-.45" xlink:href="#g"/><linearGradient id="j" x1=".574" y1=".133" x2=".226" y2="1.688" xlink:href="#g"/><linearGradient id="k" x1=".596" y1=".113" x2=".23" y2="1.443" gradientUnits="objectBoundingBox"><stop offset="0" stop-color="#610caa"/><stop offset="1" stop-color="#001cc4"/></linearGradient><linearGradient id="l" x1=".499" y1=".59" x2=".478" y2="3.084" xlink:href="#b"/><linearGradient id="m" x1="-15.892" y1=".327" x2="-14.895" y2=".327" xlink:href="#g"/><linearGradient id="n" x1="-6.547" y1="-1.622" x2="-5.584" y2="-1.622" xlink:href="#g"/><linearGradient id="o" x1="-4.126" y1=".836" x2="-4.927" y2=".171" xlink:href="#b"/><linearGradient id="p" x1="-9.487" y1=".854" x2="-10.621" y2=".205" xlink:href="#b"/><linearGradient id="q" x1="-4.172" y1="1.627" x2="-3.919" y2=".675" xlink:href="#a"/><linearGradient id="r" x1="-3.578" y1="3.338" x2="-3.699" y2=".667" gradientUnits="objectBoundingBox"><stop offset="0" stop-color="#311944"/><stop offset="1" stop-color="#893976"/></linearGradient><linearGradient id="s" x1="-2.177" y1=".691" x2="-2.366" y2=".249" xlink:href="#g"/><linearGradient id="t" x1="-3.1" y1=".5" x2="-2.1" y2=".5" gradientUnits="objectBoundingBox"><stop offset="0" stop-color="#4600de"/><stop offset="1" stop-color="#0e142f"/></linearGradient><linearGradient id="u" x1="-15.726" y1=".156" x2="-16.404" y2="-1.387" gradientUnits="objectBoundingBox"><stop offset="0" stop-color="#311944"/><stop offset="1" stop-color="#6b3976"/></linearGradient><linearGradient id="v" x1="-18.464" y1="-.305" x2="-19.249" y2="-2.495" xlink:href="#u"/><linearGradient id="w" x1=".861" y1="-.292" x2=".164" y2="1.25" xlink:href="#r"/><linearGradient id="x" x1="2.234" y1="-3.826" x2=".474" y2="1.046" xlink:href="#r"/><linearGradient id="y" x1=".861" y1="-.291" x2=".164" y2="1.248" xlink:href="#b"/><linearGradient id="z" x1="2.231" y1="-3.836" x2=".474" y2="1.047" xlink:href="#b"/><linearGradient id="aa" x1=".66" y1=".41" x2=".268" y2="1.363" gradientUnits="objectBoundingBox"><stop offset="0" stop-color="#8129cc"/><stop offset=".97" stop-color="#273edb"/><stop offset="1" stop-color="#001cc4"/></linearGradient><clipPath id="c"><path d="M841.692 2116.913c-4.893-5.17-11.261-13.474-13.692-24.824-3.187-14.886 3.2-21.933 4-46.767.507-15.7.7-26.666-6.853-32.985-5.921-4.952-15.894-6.459-22.232-2.572-5.27 3.232-8.643 10.573-9.855 15.883-.988 4.328-.592 7.537-3.248 9.69-2.715 2.2-5.416.7-7.927 2.3-5.093 3.245-2.961 15.122-2.617 17.041 3.833 21.352 22.385 36.7 30.559 43.3a131.415 131.415 0 0031.865 18.934z" transform="translate(-778.534 -2007.562)" fill="url(#a)"/></clipPath><clipPath id="e"><path d="M615.876 2474.549c-11.14 1.492-25.544 1.8-39.94-2.623-3.674-1.13-26.37-8.11-25.078-18.207.455-3.557 3.5-4.5 4.194-9.241.82-5.622-2.934-7.9-6.157-14.369-1.923-3.859-7.552-15.153-1.3-22.6 3.734-4.448 11.54-7.32 17.843-6.668 9.244.955 13.441 9.3 20.3 23.547 6.079 12.628 5.359 16.009 9.9 25.026 3.362 6.696 9.246 15.751 20.238 25.135z" transform="translate(-544.725 -2400.753)" fill="url(#b)"/></clipPath></defs><path d="M174.217.063C99.917-2.101 35.55 51.069 25.826 120.834c-10.632 76.279 47.885 144.911 119.887 155.9 89.559 13.677 176.425-65.422 168.625-151.234C308.463 60.85 249.748 2.263 174.217.063z" fill="#f4f7fa"/><path d="M122.524 193.85c-6.318 3.278-16.056 7.11-27.636 6.319-15.188-1.04-20.201-9.122-43.853-16.736-14.952-4.815-25.44-8.023-33.596-2.505-6.392 4.327-10.59 13.498-8.6 20.662 1.654 5.957 7.78 11.223 12.551 13.852 3.888 2.142 7.082 2.646 8.42 5.793 1.366 3.216-.82 5.399.025 8.253 1.716 5.79 13.72 7.015 15.66 7.213 21.581 2.201 41.448-11.402 50.046-17.44a131.415 131.415 0 0026.983-25.412z" fill="#e1d1ef"/><g clip-path="url(#c)" transform="rotate(-74 148.908 112.21)"><g opacity=".5" style="mix-blend-mode:soft-light;isolation:isolate" fill="#fff"><path d="M68.839 113.622l.2-.455c-15.462-6.951-34.606-19.135-38-37.709-1.249-6.83-.249-13.773 1.134-23.383a131.153 131.153 0 013.88-17.72c1.7-6.159 3.045-11.024 2.738-18.218a54.5 54.5 0 00-5.836-21.86l-.447.221a54.006 54.006 0 015.785 21.66c.3 7.116-1.031 11.947-2.72 18.063a131.55 131.55 0 00-3.893 17.781c-1.338 9.293-2.394 16.634-1.131 23.544 1.615 8.837 6.961 17.088 15.888 24.523a97.377 97.377 0 0022.402 13.553z"/><path d="M32.702 46.687l.264-.1a36.881 36.881 0 0010.775-6.969 38.219 38.219 0 0012.313-25.6l-.5-.041a37.729 37.729 0 01-12.153 25.277 37.221 37.221 0 01-10.348 6.765 59.162 59.162 0 00-15.623-28.6A42.736 42.736 0 006.601 9.361l-.207.453a42.266 42.266 0 0110.7 7.975 58.732 58.732 0 0115.538 28.627z"/><path d="M30.339 67.5l.111-.143a106.577 106.577 0 0112.482-13.183c6.875-5.988 22.224-7.3 22.378-7.311l-.04-.5c-.156.013-15.668 1.338-22.665 7.432a107.213 107.213 0 00-12.436 13.11C14.506 61.041-.311 22.68-.46 22.291l-.466.178a187.634 187.634 0 009.481 20.284c7.64 13.971 14.912 22.275 21.614 24.682z"/><path d="M44.136 98.046l-.222-.445c-3.656-7.324-2.621-14.727 3.076-22a41.238 41.238 0 019.751-8.807l-.258-.426a41.792 41.792 0 00-9.877 8.915c-5.634 7.189-6.79 14.816-3.357 22.09a97.142 97.142 0 01-16.9-5.369c-8.992-3.749-21.737-10.606-31.393-21.99l-18.761-22.118-.38.322 18.761 22.119C4.299 81.8 17.124 88.7 26.17 92.47a94.477 94.477 0 0017.481 5.49z"/></g></g><path d="M615.876 2474.549c-11.14 1.492-25.544 1.8-39.94-2.623-3.674-1.13-26.37-8.11-25.078-18.207.455-3.557 3.5-4.5 4.194-9.241.82-5.622-2.934-7.9-6.157-14.369-1.923-3.859-7.552-15.153-1.3-22.6 3.734-4.448 11.54-7.32 17.843-6.668 9.244.955 13.441 9.3 20.3 23.547 6.079 12.628 5.359 16.009 9.9 25.026 3.362 6.696 9.246 15.751 20.238 25.135z" transform="rotate(-74 -1133.534 1669.837)" fill="url(#b)"/><g clip-path="url(#e)" transform="rotate(-74 187.057 108.023)"><g opacity=".5" style="mix-blend-mode:soft-light;isolation:isolate" fill="#fff"><path d="M91.269 76.861a74.239 74.239 0 0028.087-5.743l-.188-.461a71.683 71.683 0 01-35.191 5.3c-41.363-4.582-61.724-48.3-66.979-61.6-2.982-7.541-3.694-16.22-2.118-25.8l-.492-.081c-1.591 9.666-.869 18.435 2.146 26.061 4.325 10.938 12.2 26.767 25.184 40.053 12.487 12.783 26.687 20.136 42.2 21.855a66.63 66.63 0 007.351.416z"/><path d="M27.404 35.879l.118-.191a46.227 46.227 0 004.433-10.617c1.637-5.8 2.856-14.526-.64-23.171l-.462.187c3.44 8.509 2.239 17.114.626 22.834a46.7 46.7 0 01-4.267 10.313C1.638 22.864-.362 5.264-.364.153A2.284 2.284 0 00-.37-.104l-.494.064v.193c0 5.2 2.032 23.128 28.064 35.628z"/><path d="M26.332 56.703a57.253 57.253 0 0015.417-2.26l.128-.036.042-.126a71.3 71.3 0 00.918-33.063L39.045 2.644l-.488.1 3.792 18.575a71.163 71.163 0 01-.864 32.682c-14.125 3.916-23.965 1.894-29.739-.5a24.986 24.986 0 01-9.26-6.215l-.387.314c.121.15 3.049 3.7 9.426 6.349a38.388 38.388 0 0014.807 2.754z"/></g></g><g fill="#97a6b7"><path d="M200.404 78.095l-8.229.014a58.636 58.636 0 00-3.818-15.556l6.958-4.035a4.115 4.115 0 001.456-5.561l-2.924-5.258a4.011 4.011 0 00-5.473-1.621l-6.871 3.9a60.48 60.48 0 00-11.338-12l3.952-6.789a4.273 4.273 0 00-1.506-5.732l-5.26-3.264a4.068 4.068 0 00-5.695 1.309l-3.961 6.719a61.559 61.559 0 00-16.39-5v-7.968a4.535 4.535 0 00-4.326-4.454l-6.4-.292a4.121 4.121 0 00-4.394 4.1v8.056a62.292 62.292 0 00-17.163 3.922l-4.275-7.283a4.791 4.791 0 00-6.236-1.847l-5.856 3a4.2 4.2 0 00-1.694 5.963l4.429 7.451a61.858 61.858 0 00-12.855 12.195l-8.012-4.533a4.873 4.873 0 00-6.506 1.5l-3.522 5.641a4.373 4.373 0 001.758 6.162l8.29 4.588a59.2 59.2 0 00-4.527 16.9l-9.944.017a4.709 4.709 0 00-4.853 4.531v6.642a4.629 4.629 0 004.853 4.462l10.208-.127a58.625 58.625 0 004.983 16.432l-9.01 5.114a4.411 4.411 0 00-1.758 6.186l3.522 5.591a4.837 4.837 0 006.506 1.4l9.113-5.285a60.771 60.771 0 0012.576 11.24l-5.254 8.913a4.164 4.164 0 001.694 5.939l5.856 2.921a4.837 4.837 0 006.236-1.935l5.211-8.951a61.826 61.826 0 0016.227 3.364v9.978a4.053 4.053 0 004.394 4.04l6.4-.383a4.615 4.615 0 004.326-4.515v-9.87a62.24 62.24 0 0015.517-4.8l4.835 8.133a4.039 4.039 0 005.695 1.228l5.26-3.338a4.31 4.31 0 001.506-5.753l-4.693-8a61.728 61.728 0 0011.122-11.424l7.827 4.332a4.05 4.05 0 005.473-1.7l2.924-5.3a4.08 4.08 0 00-1.456-5.54l-7.569-4.282a59.2 59.2 0 004.208-15.261l8.45-.105a4.06 4.06 0 003.939-4.11v-5.959a3.991 3.991 0 00-3.936-4.052zM133.783 127.2c-24.35.9-44.727-17.994-44.727-42.239s20.377-43.4 44.727-42.81c23.522.572 42.012 19.483 42.012 42.256s-18.489 41.92-42.012 42.793z"/><path d="M106.537 19.151l-5.861-.2-2.021 5.255zm58.117 2.425l6.758.067v4.985zm25.753 24.048l6.737.272-1.684 3.773zm10.58 32.541l6.8.539-2.223 3.3zm-11.318 46.687l6.6.943.808-5.389zm-25.263 24.319l5.928 1.078.472-4.379zm-29.641 10.509l-5.322-.943 4.581-6.8zm-28.834-5.726l-6.2-1.28 4.783-5.794zM71.102 42.932l6.467.2-2.56 4.716zM58.235 93.66l5.928.876-.472-4.851zm12.733 35.502l5.794.943.472-3.84z"/></g><path d="M207.052 78.629l-8.294.018a59.1 59.1 0 00-3.85-15.682l7.015-4.068a4.149 4.149 0 001.468-5.606l-2.948-5.3a4.045 4.045 0 00-5.518-1.634l-6.928 3.932a60.983 60.983 0 00-11.439-12.101l3.985-6.844a4.308 4.308 0 00-1.519-5.779l-5.3-3.29a4.1 4.1 0 00-5.742 1.319l-3.994 6.774a62.068 62.068 0 00-16.526-5.039v-8.032a4.572 4.572 0 00-4.362-4.49l-6.457-.295a4.155 4.155 0 00-4.43 4.135v8.121a62.815 62.815 0 00-17.305 3.954l-4.31-7.342a4.831 4.831 0 00-6.288-1.862l-5.905 3.028a4.235 4.235 0 00-1.708 6.012l4.466 7.512a62.361 62.361 0 00-12.959 12.282l-8.078-4.57a4.914 4.914 0 00-6.56 1.507l-3.551 5.687a4.409 4.409 0 001.772 6.212l8.359 4.625a59.676 59.676 0 00-4.564 17.04l-10.027.017a4.748 4.748 0 00-4.893 4.568v6.7a4.667 4.667 0 004.893 4.5l10.293-.128a59.1 59.1 0 005.024 16.566l-9.085 5.155a4.447 4.447 0 00-1.772 6.237l3.551 5.637a4.877 4.877 0 006.56 1.415l9.189-5.328a61.278 61.278 0 0012.68 11.332l-5.3 8.985a4.2 4.2 0 001.708 5.988l5.9 2.944a4.878 4.878 0 006.288-1.951l5.254-9.024a62.342 62.342 0 0016.362 3.392v10.06a4.086 4.086 0 004.431 4.073l6.457-.386a4.653 4.653 0 004.362-4.552v-9.951a62.762 62.762 0 0015.645-4.837l4.875 8.2a4.073 4.073 0 005.742 1.238l5.3-3.365a4.345 4.345 0 001.518-5.8l-4.732-8.061a62.236 62.236 0 0011.215-11.517l7.892 4.367a4.083 4.083 0 005.518-1.712l2.948-5.342a4.113 4.113 0 00-1.468-5.585l-7.632-4.317a59.667 59.667 0 004.243-15.385l8.521-.106a4.094 4.094 0 003.972-4.144v-6.014a4.024 4.024 0 00-3.962-4.093zm-67.173 49.506c-24.552.911-45.1-18.141-45.1-42.583s20.546-43.756 45.1-43.159c23.717.577 42.36 19.642 42.36 42.6s-18.642 42.261-42.359 43.141z" fill="#d8dee8"/><path d="M621.9 1192.972c-5.043.295-9.166-3.231-9.166-7.86v-166.856c0-4.63 4.123-8.246 9.166-8.063l238.063 8.639a7.47 7.47 0 016.982 7.548v144.98a7.675 7.675 0 01-6.982 7.7z" transform="translate(-570.473 -954.123)" fill="url(#f)"/><path d="M1650.07 2668.129a11.623 11.623 0 01-7.451-8.877l-5.538-28.758-47.375 1.765-5.83 29.96c-.817 4.2 2.452 8.406 6.217 9.951l19.821 8.136a24.668 24.668 0 0011.588 1.762l41.888-3.76a2.662 2.662 0 002.349-2.415c.142-1.3 1-2.75-.167-3.157z" transform="translate(-1443.431 -2410.812)" fill="url(#g)"/><path d="M1664.76 2655.02a11.512 11.512 0 01-7.444-8.765l-5.532-28.4-46.22 1.745-5.825 29.583a8.741 8.741 0 005.1 9.823l19.8 8.035a24.9 24.9 0 0011.576 1.74l41.846-3.713a2.642 2.642 0 002.347-2.385 2.716 2.716 0 00-1.76-2.888z" transform="translate(-1457.652 -2399.452)" fill="url(#h)"/><path d="M640.57 1192.972c-5.043.295-9.166-3.231-9.166-7.86v-166.856c0-4.63 4.123-8.246 9.166-8.063l238.063 8.639a7.47 7.47 0 016.982 7.548v144.98a7.675 7.675 0 01-6.982 7.7z" transform="translate(-587.254 -954.123)" fill="url(#i)"/><path d="M916.719 1056.9l-238.063-8.159a4.51 4.51 0 00-4.888 4.31v166.487a4.394 4.394 0 004.888 4.2l238.063-13.429a4.1 4.1 0 003.739-4.118v-145.253a3.987 3.987 0 00-3.739-4.038z" transform="translate(-625.339 -988.784)" fill="url(#j)"/><path d="M53.316 220.773a1.729 1.729 0 01-1.905-1.652V64.365a1.762 1.762 0 011.905-1.682l238.063 7.823a1.558 1.558 0 011.461 1.575v135.415a1.589 1.589 0 01-1.461 1.6z" fill="#fff"/><path d="M1045.1 1419.719l-219.514 9.64v-124.578l219.514 4.608z" transform="translate(-761.83 -1218.97)" fill="url(#k)"/><path d="M1045.1 1173.009l-219.514-5.094v-10.64l219.514 6.311z" transform="translate(-761.83 -1086.359)" fill="url(#l)"/><path d="M266.6 81.505a1.165 1.165 0 01-1.184 1.188 1.24 1.24 0 01-1.185-1.25 1.165 1.165 0 011.185-1.188 1.241 1.241 0 011.184 1.25zm4.858.127a1.161 1.161 0 01-1.177 1.185 1.236 1.236 0 01-1.179-1.246 1.16 1.16 0 011.179-1.185 1.236 1.236 0 011.177 1.246zm4.827.125a1.156 1.156 0 01-1.171 1.182 1.23 1.23 0 01-1.172-1.242 1.155 1.155 0 011.172-1.182 1.231 1.231 0 011.171 1.242z" fill="#fff"/><path d="M238.844 180.866l-170.3 5.352V89.051l170.3 3.3z" fill="#fff" opacity=".615"/><g fill="#fff"><path d="M280.928 118.078l-39.1-.184V92.401l39.1.757z" opacity=".68"/><path d="M280.928 122.643l-39.1-.079v-1.909l39.1.122zm-14.547 3.224h-24.555v-1.909l24.555.03z"/></g><g fill="#fff"><path d="M280.928 154.635l-39.1.656v-25.493l39.1-.083z" opacity=".68"/><path d="M280.928 159.201l-39.1.76v-1.909l39.1-.718zm-14.547 3.533l-24.555.524v-1.913l24.555-.5z"/></g><g fill="#fff"><path d="M280.928 191.189l-39.1 1.5v-25.493l39.1-.923z" opacity=".68"/><path d="M280.928 195.757l-39.1 1.6v-1.909l39.1-1.557zm-14.547 3.847l-24.555 1.051v-1.909l24.555-1.024z"/></g><path d="M186.398 192.787L68.544 197.16v-6.387l117.851-3.981zm52.446-1.947l-16.814.625v-5.876l16.814-.568zm-19.411.721l-17.192.638v-5.942l17.192-.581zm-96.969 11.101l-53.92 2.219v-3.194l53.917-2.129z" fill="#fff"/><path d="M238.807 168.195c-2.678-2.859 4.735-13.6 8.7-18.308 3.467-4.112 7.03-8.338 11.4-7.8 3.841.47 7.579 4.521 7.8 8.4.614 10.446-24.093 21.773-27.9 17.708z" fill="#2131cb"/><path d="M2801.214 3212.468c.5.409.6 1.433.657 2.1a1.646 1.646 0 01.008.553c-.244.77-1.737.851-4.078 1.091-3.7.378-4.8.669-5.09.118-.271-.516.385-1.361.459-1.454a3.389 3.389 0 011.829-.993c1.746-.574 2.925-.889 3.282-.985 2.229-.598 2.602-.698 2.933-.43z" transform="translate(-2530.252 -2933.892)" fill="url(#m)"/><path d="M268.761 275.195l-.37 4.216a2.289 2.289 0 002.354.29l.951-4.144z" fill="#d8dee8"/><path d="M2501.225 3202.829a2.083 2.083 0 01.217 2.5c-.516.595-1.293.149-3.5.215-2.359.07-2.975.627-4.578.185-.648-.179-1.792-.613-1.77-1.076.015-.325.6-.493 2.543-1.145a25.277 25.277 0 013.335-1.072c1.476-.243 2.955-.488 3.753.393z" transform="translate(-2259.605 -2924.796)" fill="url(#n)"/><path d="M240.108 274.186l-1.183 3.936a2.289 2.289 0 002.325.469l1.757-3.82z" fill="#d8dee8"/><path d="M2572.353 2316.6a368.7 368.7 0 01-11.65 87.347l4.529 1.218a38.408 38.408 0 0010.993-17.137c1.447-4.93.965-7.465 1.883-13.529 1.461-9.656 4.421-14.716 7.481-22.5a128.133 128.133 0 007.741-30.999z" transform="translate(-2321.732 -2128.615)" fill="url(#o)"/><path d="M2811.023 2303.563q1.386 25.235 2.26 51.4.648 19.63.96 38.758l4.626.571a53.864 53.864 0 004.825-12.452c1.647-6.6 1.266-10.523 1.988-17.366.81-7.675 1.987-9.347 4.072-19.029 4.231-19.649 6.347-29.473 1.627-35.584-1.532-1.985-6.336-6.961-20.358-6.298z" transform="translate(-2546.774 -2116.84)" fill="url(#p)"/><path d="M286.723 144.444a71.813 71.813 0 00-15.386-2.569c-9.245-.523-13.868-.784-17.143 1.418-7.566 5.085-1.708 16.821-4.805 45.912-.442 4.154-.541 8.339-.862 12.5-.53 6.9-.651 7.272-.171 7.971 3.01 4.383 14.238-2.228 30.695.385 9.208 1.462 13.384 4.83 15.907 2.4 2.942-2.833.418-10.454-1.754-17.014-2.494-7.53-4.034-7.627-5.449-13.3-1.479-5.928-.585-8.98-.354-18.327a165.549 165.549 0 00-.678-19.376z" fill="#2131cb"/><path d="M2684.929 2034.424c4.3-.336 7.092 2.1 10.8.2 5.092-2.6 6.728-10.684 6.4-16.407-.493-8.695-5.458-10.987-4.6-16.607.463-3.04 2.633-7.075 10.424-11.2.1 3.47.084 6.427.026 8.777-.23 9.348-1.125 12.4.354 18.327 1.416 5.671 2.956 5.768 5.449 13.3 2.172 6.56 4.7 14.181 1.754 17.015-2.523 2.429-6.7-.939-15.907-2.4-14.18-2.252-24.473 2.339-28.976.85 5.447-8.992 10.384-11.55 14.276-11.855z" transform="translate(-2420.585 -1835.366)" fill="url(#q)" opacity=".3"/><path d="M280.856 145.038c3.072-2.524 9.249.333 10.9 1.1 9.208 4.259 17.475 15.736 15.427 27.865-.307 1.819-1.731 10.327-8.936 14.45-6.5 3.72-15.279 2.763-22.312-2.505l-2.883-2.559-2.837-3.066a22.77 22.77 0 017.559-4.164c4.677-1.509 8.081 1.2 10.251-.86 1.5-1.421 1.5-3.93 1.131-5.451-.745-3.065-3.447-3.927-5.7-6.1-5.302-5.117-6.278-15.687-2.6-18.71z" fill="#2131cb"/><path d="M2537.362 2277.951l41.176-.615-10.949 5.284-30.332-1.985z" transform="translate(-2300.653 -2093.317)" fill="url(#r)"/><path d="M279.338 185.115a1.832 1.832 0 01-1.206 1.722l-13.157 5.158-.06-3.576 12.97-4.4a1.139 1.139 0 011.453 1.096z" fill="#b6b8c0"/><path d="M272.998 182.678c.253-.057-1.231-3.013-2.4-2.672s-6.862 3.643-7.38 5l-.518 1.36a12.747 12.747 0 004.027-.324c1.545-.515 4.216-2.906 6.271-3.364z" fill="#fff"/><path d="M2374.8 2049.422l2.9 26.426a2.493 2.493 0 01-2.093 2.227l-42.578-2.614a1.493 1.493 0 01-1.4-1.239l-5.344-25.523c-.159-.929 1.51-1.888 2.452-1.862l44.619 1.255a1.492 1.492 0 011.444 1.33z" transform="translate(-2110.976 -1886.093)" fill="url(#s)"/><path d="M262.849 164.1l2.9 26.427a1.493 1.493 0 01-1.555 1.654l-43.116-2.041a1.493 1.493 0 01-1.4-1.239l-4.405-25.64a1.493 1.493 0 011.513-1.745l44.619 1.255a1.492 1.492 0 011.444 1.329z" fill="#fff"/><path d="M2382.1 2087.266c3.765-1.6 2.436-4.638 6.882-8.43 5.865-5 11.843-2.833 13.935-6.709.652-1.208.963-3.087-.172-6.128l3.231.091a1.493 1.493 0 011.442 1.329l2.9 26.427a1.493 1.493 0 01-1.555 1.654l-43.116-2.041a1.494 1.494 0 01-1.4-1.239l-.608-3.538a16.288 16.288 0 014.7-1.76c6.327-1.283 9.431 2.178 13.761.344z" transform="translate(-2144.573 -1903.32)" opacity=".3" fill="url(#t)" style="mix-blend-mode:multiply;isolation:isolate"/><path d="M218.364 186.443a.336.336 0 01.3-.443 8.513 8.513 0 014.192.649c1.516.928 3.475 2.623 1.825 3.478l-1.541.8a.329.329 0 01-.226.031c-.548-.12-2.852-.632-3.1-.759a23.185 23.185 0 01-1.45-3.756z" fill="#d8dee8"/><path d="M270.647 131.772a32.013 32.013 0 00.572 6.4 4.959 4.959 0 00.875 2.5c.458.538 1.154.99 5.081 1.964 2.137.53 2.412.516 2.459.728.23 1.035-5.6 4.561-11.618 3.711-3.685-.52-7.037-2.622-6.831-3.726s3.888-.515 4.985-2.525c.763-1.4-.092-3.383-1.1-5.027.975-1.83 4.598-2.19 5.577-4.025z" fill="#fff"/><path d="M2800.756 1718.676a3.876 3.876 0 01.079-4.447 4.222 4.222 0 013.031-1.347c2.354-.272 5.324.711 6.357 2.878.613 1.284-.712 3.952-.919 4.432-.235.542-.66.728-1.054 1.139-.546.569-1.4 1.473-2.8 2.985a9.732 9.732 0 00-.535-1.6 8.566 8.566 0 00-1.118-1.877c-1.221-1.495-2.216-1.068-3.041-2.163z" transform="translate(-2536.949 -1585.821)" fill="url(#u)"/><path d="M270.496 137.219a5.26 5.26 0 01-4.629 2.339c-2.759-.18-3.163-6.367-1.4-7.679a3.482 3.482 0 012.722-.352c.565.158.757.393 1.686.634.857.223 1.1.127 1.358.345.323.272.561.94.02 2.748a1.5 1.5 0 011.606-.526.943.943 0 01.367.358c.386.71-.259 1.613-1.73 2.133z" fill="#fff"/><path d="M2808.817 1763.432c-.133.1.274.6.3 1.3a3.377 3.377 0 01-2.73 3.14c-.832.082-1.061-.42-2.437-.565a6.3 6.3 0 00-2.008.116 3.317 3.317 0 00.974 3.679 3.455 3.455 0 003.026.1 3.948 3.948 0 002.261-1.659c.671-1.177.013-1.887.782-2.684.389-.4.9-.576 1.4-1.354a3.894 3.894 0 00.279-.524c-.711-.752-1.654-1.692-1.847-1.549z" transform="translate(-2538.46 -1631.293)" fill="url(#v)"/><path d="M264.488 136.682a3.359 3.359 0 001.625.253c.05 0 .105.012.112.038a1.265 1.265 0 01-1.246.365c-.432-.122-.768-.531-.71-.635.025-.044.123-.038.219-.021z" fill="#fff"/><path d="M1844.286 939.336l-.427 44.614a12.713 12.713 0 01-12.768 12.568h-94.664c-7.529 0-13.551-5.825-13.418-13.131l.083-4.516.018-.9.757-41.181a13.207 13.207 0 0112.843-12.751c.323-.014.653-.015.984-.008l.125.005 94.007 2.412a12.808 12.808 0 0112.46 12.888z" transform="translate(-1568.626 -876.664)" fill="url(#w)"/><path d="M1518.772 1437.779h-47.007a.892.892 0 01-.531-1.665l23.646-15.053 1.45-.9 7.145-4.552 1.03-.754z" transform="translate(-1341.864 -1317.926)" fill="url(#x)"/><path d="M1830.066 939.306l-.427 44.718a12.705 12.705 0 01-12.578 12.564c-.061 0-.126-.1-.187-.1h-94.664c-7.529 0-13.554-5.825-13.418-13.131l.068-3.587.014-.9.775-42.106A13.247 13.247 0 011723.474 924l.455.014 1.4.038 92.277 2.369a12.805 12.805 0 0112.46 12.885z" transform="translate(-1555.846 -876.634)" fill="url(#y)"/><path d="M1504.531 1438.646h-47a.891.891 0 01-.531-1.666l25.1-15.982 1.453-.9 6.721-4.282.406.559z" transform="translate(-1329.062 -1318.793)" fill="url(#z)"/><path d="M202.158 79.158v-4.553l-9.185 5.412-6.831 4.044v2.673l16.016 8.311v-4.54l-11.234-5.315 3.988-2.146zm12.758-8.178l-6.517 19.77-2.7 8.182 4.665.047 2.444-7.389 6.84-20.674zm8.239 3.405v4.637l11.932 6.1-11.932 5.448v4.615l5.557-2.7 11.884-5.77v-2.8z" fill="#fff"/><path d="M1589.948 996.634v-.2h-132.42a.891.891 0 01-.531-1.665l25.1-15.982.775-42.094a13.241 13.241 0 0113.823-12.755l.455.017c.323-.014.653-.015.984-.008l.126.005.294.044c7.03 1.123 15.191 4.766 17.71 15.266 1.679 6.994 3.144 12.783 5.745 17.333a21.737 21.737 0 002.063 3.032c2.921 3.6 7.048 6.18 13.393 7.7q2.045.5 4.414.84a84.073 84.073 0 0010.292.782q1.362.027 2.8.029c.951 0 1.694.032 2.57.093 19.81 1.373 21.017 17.848 32.407 27.563z" transform="translate(-1327.624 -876.781)" opacity=".3" fill="url(#aa)" style="mix-blend-mode:multiply;isolation:isolate"/></svg>