<svg xmlns="http://www.w3.org/2000/svg" xmlns:xlink="http://www.w3.org/1999/xlink" width="290.218" height="233.619"><defs><linearGradient id="a" x1="7.943" y1="-2.469" x2="7.39" y2=".776" gradientUnits="objectBoundingBox"><stop offset="0" stop-color="#aa80f9"/><stop offset=".996" stop-color="#6165d7"/></linearGradient><linearGradient id="b" x1="-10.067" y1=".377" x2="-9.098" y2=".377" gradientUnits="objectBoundingBox"><stop offset="0" stop-color="#444b8c"/><stop offset=".996" stop-color="#26264f"/></linearGradient><linearGradient id="c" x1="-16.722" y1="-.187" x2="-17.573" y2=".894" gradientUnits="objectBoundingBox"><stop offset="0" stop-color="#ffc444"/><stop offset=".996" stop-color="#f36f56"/></linearGradient><linearGradient id="d" x1="-3.632" y1="1.033" x2="-3.008" y2=".112" xlink:href="#a"/><linearGradient id="e" x1="-7.495" y1=".5" x2="-6.495" y2=".5" xlink:href="#b"/><linearGradient id="f" x1="-22.222" y1="1.151" x2="-21.078" y2="-.562" xlink:href="#c"/><linearGradient id="g" x1="-4.723" y1="1.033" x2="-3.951" y2=".113" xlink:href="#a"/><linearGradient id="h" x1="-4.748" y1=".613" x2="-3.272" y2=".054" xlink:href="#a"/><linearGradient id="i" x1="-.883" y1="-.866" x2="2.827" y2="2.853" gradientUnits="objectBoundingBox"><stop offset="0" stop-color="#610caa"/><stop offset="1" stop-color="#001cc4"/></linearGradient><linearGradient id="j" x1="-3.152" y1="-.15" x2="-2.499" y2="1.079" gradientUnits="objectBoundingBox"><stop offset="0" stop-color="#311944"/><stop offset="1" stop-color="#893976"/></linearGradient><linearGradient id="k" x1="-8.016" y1=".645" x2="-5.621" y2=".084" xlink:href="#a"/><linearGradient id="m" x1="-25.409" y1="1.317" x2="-25.318" y2="-.325" xlink:href="#c"/><linearGradient id="n" x1="-4.535" y1=".459" x2="-3.841" y2="1.245" xlink:href="#b"/><linearGradient id="o" x1="-20.377" y1="2.932" x2="-20.413" y2="6.094" xlink:href="#c"/><linearGradient id="p" x1="-71.907" y1="29.954" x2="-71.72" y2="34.085" gradientUnits="objectBoundingBox"><stop offset="0" stop-color="#ffc444"/><stop offset="1" stop-color="#f36f56"/></linearGradient><linearGradient id="q" x1="-3.628" y1="-1.04" x2="-2.95" y2=".886" xlink:href="#j"/><linearGradient id="s" x1="-12.161" y1="1.377" x2="-12.106" y2="-.408" xlink:href="#c"/><linearGradient id="t" x1="-11.19" y1="1.373" x2="-11.146" y2="-.41" xlink:href="#c"/><linearGradient id="u" x1="1.354" y1=".493" x2="2.385" y2=".493" xlink:href="#b"/><linearGradient id="v" x1=".5" x2=".5" y2="1" gradientUnits="objectBoundingBox"><stop offset="0" stop-color="#b2aadb"/><stop offset=".513" stop-color="#8c859b"/><stop offset=".537" stop-color="#5929c9"/><stop offset="1" stop-color="#9b8ab5"/></linearGradient><linearGradient id="w" x1="-2.067" y1="-1.492" x2="-1.664" y2="-.235" xlink:href="#a"/><linearGradient id="x" x1="-16.534" y1="-17.781" x2="-13.256" y2="-4.918" xlink:href="#a"/><linearGradient id="y" x1="-16.289" y1="-24.641" x2="-13.415" y2="-8.38" xlink:href="#a"/><linearGradient id="z" x1="-12.438" y1="-18.317" x2="-9.554" y2="-1.892" xlink:href="#a"/><linearGradient id="aa" x1="-17.684" y1="-16.923" x2="-14.427" y2="-4.117" xlink:href="#a"/><linearGradient id="ab" x1="-8.985" y1="-4.779" x2="-8.676" y2="-3.958" xlink:href="#a"/><linearGradient id="ac" x1="-2.413" y1="-1.735" x2="-1.436" y2="-1.735" xlink:href="#a"/><linearGradient id="ad" x1="-5.012" y1="-1.651" x2="-6.217" y2="-1.746" xlink:href="#j"/><linearGradient id="ae" x1="-6.045" y1="-1.725" x2="-4.355" y2="-1.672" xlink:href="#a"/><linearGradient id="af" x1="-41.813" y1="-20.537" x2="-38.358" y2="-18.495" gradientUnits="objectBoundingBox"><stop offset="0" stop-color="#f57e53"/><stop offset=".005" stop-color="#f58152"/><stop offset=".042" stop-color="#f8994d"/><stop offset=".084" stop-color="#fbac49"/><stop offset=".133" stop-color="#fdb946"/><stop offset=".196" stop-color="#fec144"/><stop offset=".318" stop-color="#ffc444"/><stop offset=".455" stop-color="#fdb946"/><stop offset=".694" stop-color="#f99c4c"/><stop offset=".996" stop-color="#f36f56"/></linearGradient><linearGradient id="ag" x1="-46.287" y1="-21.969" x2="-45.422" y2="-21.969" gradientUnits="objectBoundingBox"><stop offset="0" stop-color="#ff9085"/><stop offset="1" stop-color="#fb6fbb"/></linearGradient><linearGradient id="ah" x1="-139.894" y1="-29.739" x2="-137.525" y2="-29.739" xlink:href="#ag"/><linearGradient id="ai" x1="-140.701" y1="-29.554" x2="-138.328" y2="-29.554" xlink:href="#ag"/><linearGradient id="aj" x1="-141.512" y1="-29.37" x2="-139.134" y2="-29.37" xlink:href="#ag"/><linearGradient id="ak" x1="-63.644" y1="-35.848" x2="-62.963" y2="-35.848" xlink:href="#ag"/><linearGradient id="al" x1="-10.104" y1="-2.052" x2="-7.525" y2="-1.989" gradientUnits="objectBoundingBox"><stop offset="0" stop-color="#fb6fbb"/><stop offset="1" stop-color="#ff9085"/></linearGradient><linearGradient id="am" x1="-50.434" y1="-11.227" x2="-48.647" y2="-11.227" xlink:href="#al"/><linearGradient id="an" x1="-40.457" y1="-7.409" x2="-38.528" y2="-7.409" xlink:href="#al"/><linearGradient id="ao" x1="-34.635" y1="-18.181" x2="-33.595" y2="-18.181" xlink:href="#ag"/><linearGradient id="ap" x1=".561" y1=".868" x2="-.601" y2=".709" xlink:href="#j"/><linearGradient id="aq" x1="-.471" y1=".768" x2="1.056" y2=".854" gradientUnits="objectBoundingBox"><stop offset="0" stop-color="#5c26c1"/><stop offset="1" stop-color="#5131ff"/></linearGradient><linearGradient id="ar" x1="-5.585" y1=".848" x2="-1.394" y2="3.327" xlink:href="#af"/><linearGradient id="as" x1="-4.703" y1="2.137" x2="-3.777" y2="2.137" xlink:href="#ag"/><linearGradient id="at" x1="-5.233" y1="38.741" x2="-4.238" y2="38.741" xlink:href="#ag"/><linearGradient id="au" x1="-5.267" y1="36.387" x2="-4.271" y2="36.387" xlink:href="#ag"/><linearGradient id="av" x1="-5.3" y1="34.316" x2="-4.303" y2="34.316" xlink:href="#ag"/><linearGradient id="aw" x1="-8.191" y1="2.585" x2="-7.302" y2="2.585" xlink:href="#ag"/><linearGradient id="ax" x1="-.541" y1="1.17" x2="1.043" y2="1.377" xlink:href="#al"/><linearGradient id="ay" x1="-2.603" y1="3.573" x2="-1.616" y2="3.573" xlink:href="#al"/><linearGradient id="az" x1="-2.126" y1="3.672" x2="-1.135" y2="3.672" xlink:href="#al"/><linearGradient id="ba" x1="-3.873" y1="2.365" x2="-2.88" y2="2.365" xlink:href="#ag"/><linearGradient id="bb" x1=".329" y1=".554" x2="-.255" y2=".738" xlink:href="#i"/><linearGradient id="bc" x1=".727" y1=".007" x2=".207" y2="1.135" gradientUnits="objectBoundingBox"><stop offset="0" stop-color="#13189d"/><stop offset="1" stop-color="#314eff"/></linearGradient><linearGradient id="bd" x1=".636" y1="1.231" x2=".531" y2=".666" xlink:href="#bc"/><linearGradient id="be" x1=".409" y1=".31" x2=".858" y2="1.247" xlink:href="#i"/><linearGradient id="bf" x1=".253" y1=".019" x2=".711" y2="1.039" xlink:href="#bc"/><linearGradient id="bg" x1=".464" y1=".369" x2="1.215" y2="1.306" xlink:href="#bc"/><linearGradient id="bh" x1=".329" y1=".554" x2="-.255" y2=".738" xlink:href="#bc"/><linearGradient id="bq" x1=".5" y1="0" x2=".5" y2="1" xlink:href="#i"/><linearGradient id="br" x1=".253" y1=".019" x2=".711" y2="1.039" gradientUnits="objectBoundingBox"><stop offset="0" stop-color="#13189d"/><stop offset="1" stop-color="#061a93"/></linearGradient></defs><path d="M147.703 231.342c-60.68-9.19-109.994-66.562-101.034-130.329 7.643-54.384 55.323-96.706 112.5-100.7q6.21-.435 12.555-.257a124.944 124.944 0 0181.2 32.986c20.862 19.214 34.416 44.913 36.884 71.874 6.57 71.731-66.632 137.856-142.105 126.426z" fill="#f4f7fa"/><path d="M90.756 228.046c-14.19-1.823-32.182-6.613-39.408-20.121-1.719-3.213-3.444-9.456.895-11.807 3.966-2.149 9.095.121 12.043 2.917 2.167 2.056 3.859 6.644 6.294 8.1 3.564 2.124 5.483-3.671 5.408-6.063-.168-5.347-6.745-7.536-11.116-8.7-7.256-1.927-15.7-3.579-15.249-11.756s8.427-13.081 14.56-9.5c5.053 2.948 4.342 9.239 7.794 13.014 3.067 3.354 4.135-2.09 3.93-4.758-.445-5.8-5.541-9.989-9.291-13.873-4.24-4.391-8.924-13.227-4.4-19.033 2.6-3.341 9.207-4.124 13.112-3.56 19.113 2.76 6.439 27.494 9.914 30.254s6.763-2.071 6.755-9.417 1.116-12.762 8.781-10.412 9.125 21.537.372 28.911.549 15.418 2.9 10.134c1.7-3.815 3.188-13.808 8.091-14.9 8.169-1.822 8.048 14.859 5.7 18.741-3.3 5.442-10.748 6.625-14.91 11.32-1.209 1.364-3.939 4.743-2.878 6.736 1.479 2.781 5.6-.194 7.121-1.483 3.408-2.9 8.125-12.744 12.926-6.2 5.918 8.061-3.996 20.031-29.344 21.456z" fill="#9b8fe3"/><path d="M88.711 226.844a.722.722 0 00.613-.716c.006-.29.4-29.435-12.3-64.03a.629.629 0 00-.787-.393.6.6 0 00-.364.772c12.625 34.382 12.233 63.347 12.228 63.635a.711.711 0 00.6.732z" fill="#fff" opacity=".8"/><path d="M685.211 2560.853c.476-2.982 6.179-3.833 8.477-4.267 1.333-.251 3.23-.511 3.915-1.888.719-1.446-.375-2.564-1.777-2.82-2.51-.458-5.211 1.136-7.544 1.862-2.506.78-5.106 1.146-7.591.07a7.848 7.848 0 01-4.442-5.043c-1.193-5.938 4.757-5.6 8.634-4.763 1.881.4 5.581.71 5.913-1.949.353-2.829-3.246-4.255-5.47-4.339-2.906-.111-5.762.528-8.644.737-2.6.189-5.676-.094-6.4-3.085a6.5 6.5 0 012.623-6.337c4.343-3.169 10.066 2.235 14.7 2.224 1.639 0 4.344-1.207 4.8-2.967.46-1.793-1.869-3-3.146-3.654-3.785-1.938-21.168-4.42-14.941-11.925a10.619 10.619 0 017.039-3.544c4.611-.126 9.792 3 13.344 5.7a48.688 48.688 0 0113.65 16.352c7.015 13.839 3.617 23.119 3.617 23.119a24.961 24.961 0 01-8.647 8.731c-4.075 2.221-10.385 3.2-14.817 1.47-1.431-.556-3.588-1.837-3.293-3.684z" transform="translate(-605.746 -2335.204)" fill="url(#a)"/><path d="M2774.536 3050.45c1.77 1.431 1.87 2.447 1.813 2.943-.092.8-.694 1.108-2.135 2.616-1.948 2.039-1.65 2.312-2.643 3.049-2.19 1.627-5.288 1.52-5.475.966-.131-.388 1.27-.705 2.864-2.552a10.04 10.04 0 002.1-3.887 9.329 9.329 0 00.317-2.218z" transform="translate(-2518.581 -2829.208)" fill="url(#b)"/><path d="M2794.929 2977.469l3.486 6.073c.839.372 1.642.184 2.386-.9l-1.36-7.384z" transform="translate(-2544.903 -2760.585)" fill="url(#c)"/><path d="M2639.814 2094.947a73.121 73.121 0 00-10.014 31.753 72.116 72.116 0 004.185 30.216 90.386 90.386 0 0010.961 20.056c1.992-.833 3.165-2.139 5.156-2.972-.3-1.084-1.223-4.663-1.8-6.795-.45-1.652-1.281-4.708-1.452-5.361-1.43-5.469-.3-9.573-.695-16.336-.459-7.888-2.266-6.971-1.994-11.707.406-7.072 4.413-8.722 9.013-18.958 3.149-7.006 6.456-14.365 3.416-18.388-3.834-5.062-15.476-1.878-16.776-1.508z" transform="translate(-2394.013 -1955.966)" fill="url(#d)"/><path d="M2899.265 3110.147a2.911 2.911 0 011.219 3.291c-.476.993-1.687.679-4.632 1.584-3.154.969-3.777 1.949-6.1 1.946-.939 0-2.642-.163-2.784-.794-.1-.444.622-.886 3-2.485 3.379-2.27 3.344-2.334 4.1-2.682 1.893-.874 3.795-1.752 5.197-.86z" transform="translate(-2628.892 -2883.349)" fill="url(#e)"/><path d="M2970.105 3058.974l1.294 5.912a3.2 3.2 0 003.315 0l-.476-5.912z" transform="translate(-2704.776 -2836.987)" fill="url(#f)"/><path d="M2713.156 2096.458c-3.826-5.064-15.468-1.88-16.768-1.511a73.807 73.807 0 00-4.8 9.68c4.127-.811 5.917-.075 6.752.9 3.239 3.8-6.9 12.185-4.817 24.911.816 4.977 2.945 7.217 2.555 13.3-.29 4.523-1.7 6.813-2.667 10.125a26.7 26.7 0 00-1.056 7.384 92.831 92.831 0 009.164 15.727c1.991-.833 3.164-2.139 5.156-2.972-.3-1.084-1.222-4.663-1.8-6.795-.45-1.652-1.281-4.708-1.452-5.361-1.43-5.469-.3-9.573-.695-16.336-.459-7.888-2.266-6.971-1.995-11.707.406-7.072 4.413-8.722 9.013-18.958 3.142-7.006 6.454-14.365 3.41-18.387z" transform="translate(-2450.586 -1955.966)" opacity=".3" fill="url(#g)" style="mix-blend-mode:multiply;isolation:isolate"/><path d="M2849.687 2094.707a296.7 296.7 0 009.507 82.271 5.27 5.27 0 003.523.6 5.175 5.175 0 002.449-1.208 47.945 47.945 0 01-.366-9.629c.441-6.971 2.082-8.391 2.786-15.605a59.816 59.816 0 00-.349-13.89c-.97-7.376-2.289-7.528-2.316-11.945-.04-6.8 3.07-9.238 4.78-15.718 1.141-4.323 1.745-10.777-1.123-19.628z" transform="translate(-2594.793 -1952.619)" fill="url(#h)"/><path d="M2595.278 1541.887a32.233 32.233 0 00-8.519 6.879c-6.905 7.908-11.176 20.92-6.738 25.178 3.02 2.9 10.181 2.019 12.648-1.418 1.814-2.528.508-5.634-.118-10.048-.674-4.749-.651-11.637 2.727-20.591z" transform="translate(-2347.114 -1452.431)" fill="url(#i)"/><path d="M2763.411 1574.567c-2.557-33.7-10.709-47.5-10-51.6-1.026-.738-5.08-1.91-14.263-.7a15.228 15.228 0 00-4.956 3.031 14.857 14.857 0 00-1.142 1.213c6.451 1.218 13.023 4.892 15.388 10.1 4.1 9.952-3.513 21.075 0 29.856a41.424 41.424 0 008.324 12.529c4.038-1.006 6.797-2.486 6.649-4.429z" transform="translate(-2488.432 -1434.052)" fill="url(#j)"/><path d="M2952.943 2089.953l-5.53 1.391a29.6 29.6 0 01.777 13.966c-1.537 7.815-5.51 9.529-6.094 16.576-.526 6.34 2.468 7.633 3.9 16.089 1.468 8.666-.754 12.741-1.219 19.989a45.4 45.4 0 003.216 19.347 5.271 5.271 0 001.537-.942 47.915 47.915 0 01-.365-9.629c.44-6.971 2.082-8.391 2.786-15.605a59.834 59.834 0 00-.349-13.89c-.971-7.376-2.29-7.528-2.316-11.945-.04-6.8 3.07-9.238 4.78-15.718 1.14-4.324 1.745-10.782-1.123-19.629z" transform="translate(-2679.157 -1952.619)" opacity=".3" fill="url(#k)" style="mix-blend-mode:multiply;isolation:isolate"/><path d="M2684.263 1525.3a17.971 17.971 0 00-3.868 5.49c-2.146 4.921.166 9.146.859 17.182.761 8.816-.315 23.5-2.8 28.763a1.254 1.254 0 00-.107.685c.671 5.085 35.643 3.933 35.128-2.854-2.557-33.7-10.709-47.5-10-51.6-1.026-.738-5.079-1.91-14.263-.7a15.23 15.23 0 00-4.949 3.034z" transform="translate(-2438.499 -1434.052)" fill="url(#i)"/><path d="M2824.349 1430.837s2.258 7.089 2.99 7.942-2.936 3.083-5.747 2.077c-2.581-.923 0-4.857 0-4.857z" transform="translate(-2568.19 -1351.082)" fill="url(#m)"/><path d="M2778.923 1345.827a4.432 4.432 0 01.5-5.062 4.827 4.827 0 013.58-1.257c2.708-.094 6 1.3 6.983 3.864.58 1.52-1.175 4.439-1.456 4.967-.317.6-.82.77-1.306 1.2-.675.6-1.732 1.55-3.461 3.146a11.117 11.117 0 00-.463-1.87 9.8 9.8 0 00-1.1-2.242c-1.265-1.817-2.438-1.422-3.277-2.746z" transform="translate(-2529.772 -1267.728)" fill="url(#n)"/><path d="M2784.845 1402.37a6.013 6.013 0 01-5.491 2.24c-3.128-.458-3.021-7.547-.891-8.882a3.984 3.984 0 013.136-.15c.63.232.826.518 1.864.878.956.332 1.24.246 1.515.518.344.34.552 1.123-.229 3.135a1.716 1.716 0 011.879-.452 1.076 1.076 0 01.386.442c.374.84-.445 1.809-2.169 2.271z" transform="translate(-2528.472 -1318.678)" fill="url(#o)"/><path d="M2787.016 1462.254a3.843 3.843 0 001.829.438c.058 0 .119.023.124.053a1.446 1.446 0 01-1.453.3c-.481-.178-.827-.675-.752-.789.036-.046.144-.031.252-.002z" transform="translate(-2537.442 -1379.73)" fill="url(#p)"/><path d="M2765.285 1777.653c-3.817 1.34-8.881 5.105-9.221 9.929-.521 7.41 10.513 11.475 9.043 16.667-.4 1.416-1.668 2.692-9.929 5.674a146.555 146.555 0 01-9.267 3c10.108 1.49 29.621-.433 29.235-5.515a195.534 195.534 0 00-4.585-30.519 14.185 14.185 0 00-5.276.764z" transform="translate(-2500.166 -1666.897)" opacity=".3" fill="url(#q)" style="mix-blend-mode:multiply;isolation:isolate"/><path d="M2830.146 1569.123c6.208 6.3 15.07 8.287 21.884 5.135 9.462-4.379 10.926-16.793 8.719-24.563-3.684-12.971-19.736-20.535-24.793-17.08-3.657 2.5-3.622 12.167.736 17.006 3.917 4.35 9.935 3.251 11.572 7.683 1.226 3.319-1.143 6.664-1.346 6.943-2.635 3.607-8.377 4.83-13.807 2.354z" transform="translate(-2577.043 -1443.206)" fill="url(#i)"/><path d="M2687.647 1806.914a4.152 4.152 0 013.44-2.636c1.265-.176 3.349.111 4.179 1.765a3.928 3.928 0 01-1.618 4.882 2.716 2.716 0 00-1.494-1.691c-1.457-.457-2.72 1.442-3.8.946-.854-.396-1.078-2.075-.707-3.266z" transform="translate(-2446.835 -1691.858)" fill="url(#s)"/><path d="M246.773 124.898l4.777.83a1.325 1.325 0 001.522-1.584l-1.738-8.082a1.325 1.325 0 00-1.225-1.045l-5.719-.306a1.326 1.326 0 00-1.32 1.766l2.68 7.557a1.324 1.324 0 001.023.864z" fill="#fff"/><path d="M2761.237 1898.136c-.392-2.814-1.578-3.551-2.007-3.76-.72-.351-1.075-.078-3.588-.118-2.245-.036-2.777-.266-3.061.118-.538.727.567 2.639 1.82 3.76a7.3 7.3 0 004.829 1.708z" transform="translate(-2506.126 -1773.927)" fill="url(#t)"/><path d="M833.646 539.228l20.672 207.9a5.337 5.337 0 01-4.745 6.016l-100.721 8.436c-6.14.216-9.453-3.092-9.787-6.368l-22.4-220.068c-.337-3.306 2.731-6.232 8.934-6.105l102.093 4.3a6.571 6.571 0 015.954 5.889z" transform="translate(-648.173 -528.065)" fill="url(#u)"/><path d="M880.872 538.919L901.631 747.9a5.365 5.365 0 01-4.764 6.048L792.445 761.6a6.214 6.214 0 01-6.544-5.553L763.4 534.811a5.133 5.133 0 015.419-5.811l106.081 4.008a6.6 6.6 0 015.972 5.911z" transform="translate(-690.819 -528.021)" fill="url(#v)"/><path d="M187.855 22.43l19.253 193.687a5 5 0 01-4.459 5.641l-98.213 6.984a5.8 5.8 0 01-6.085-5.184L77.583 19.217a4.807 4.807 0 015.03-5.445l99.656 3.172a6.123 6.123 0 015.586 5.486z" fill="#f4f4f4"/><path d="M135.029 9.622a1.7 1.7 0 01-1.764 1.958 2.359 2.359 0 01-2.175-2.094 1.7 1.7 0 011.767-1.958 2.359 2.359 0 012.172 2.094z" fill="#fff"/><path d="M125.361 111.625c-10.378-30.664 7.686-46.112-2.544-74.513-5.565-15.453-16.707-26.965-28.963-35.538L78 .974a5.133 5.133 0 00-5.416 5.815l22.5 221.235a6.213 6.213 0 006.544 5.553l90.153-6.608c-.283-23.1-6.152-39.541-12.679-51.228-17.937-32.115-42.995-32.362-53.741-64.116z" fill="#081e34" opacity=".998"/><path d="M1258.558 953.859L1305.2 992.5c-40.11 18.037-35.442 73.167-75.552 91.2l-46.643-38.639c40.111-18.035 35.443-73.161 75.553-91.202z" transform="translate(-1073.795 -915.772)" fill="url(#w)"/><path d="M223.543 76.067c-34.026 19.173-32.744 67.6-66.77 86.769l-39.7-32.886c34.026-19.173 32.744-67.6 66.77-86.769z" fill="#fff"/><path d="M1197.925 1920.579c.175.145.328.282.487.434l.04.039a7.431 7.431 0 012.45 6.05 6.714 6.714 0 01-3.069 4.9 9.626 9.626 0 01-.886.534 12.626 12.626 0 01-3.978 1.291l-9.962-8.252a53.451 53.451 0 0011.38-6.92 10.318 10.318 0 013.538 1.924z" transform="translate(-1073.795 -1796.284)" fill="url(#x)"/><path d="M1619.344 2298.224a9.238 9.238 0 012.427 3.1 53.458 53.458 0 01-11.327 6.878l-10.193-8.444a13.168 13.168 0 012.968-2.128c.313-.168.633-.327.957-.476 4.842-2.221 10.778-2.22 14.737.729l.047.034c.129.099.263.206.384.307z" transform="translate(-1454.59 -2140.275)" fill="url(#y)"/><path d="M1928.965 953.859l9.962 8.252a13.171 13.171 0 01-2.968 2.128c-.313.168-.633.327-.957.476-4.792 2.2-10.641 2.232-14.6-.627a8.433 8.433 0 01-.511-.392 8.106 8.106 0 01-2.306-2.917 53.464 53.464 0 0111.38-6.92z" transform="translate(-1744.202 -915.772)" fill="url(#z)"/><path d="M2382.1 1299.5l10.194 8.444a53.462 53.462 0 00-11.327 6.878 11.8 11.8 0 01-3.766-2.026 8.524 8.524 0 01-.366-.319l-.042-.038a7.642 7.642 0 01-2.636-5.7 6.642 6.642 0 013.093-5.4 9.513 9.513 0 01.879-.54 12.6 12.6 0 013.971-1.299z" transform="translate(-2160.888 -1231.22)" fill="url(#aa)"/><path d="M1725.733 1475.125c7.446 6.168 9.646 18.214 5.355 27.27s-14.216 11.058-21.729 4.835c-7.445-6.168-9.645-18.213-5.355-27.27s14.217-11.06 21.729-4.835z" transform="translate(-1547.295 -1388.217)" fill="url(#ab)"/><path d="M172.981 97.718a8.312 8.312 0 00-4.233 3.023l-3.312-2.743.13-.227a11.051 11.051 0 011.441-1.964 9.3 9.3 0 01.949-.888.915.915 0 00.009-1.308l-1.365-1.374a.662.662 0 00-.964-.024c-.448.45-.888.957-1.293 1.453a20.173 20.173 0 00-1.533 2.155l-1.157-.959a.643.643 0 00-1.007.139.916.916 0 00.219 1.161l1.182.979a10.033 10.033 0 00-1.159 5.425 6.03 6.03 0 002.24 4.122 4.3 4.3 0 003.859 1.106 8.118 8.118 0 004.029-2.974l3.678 3.065a14.735 14.735 0 01-1.629 2.308 13.376 13.376 0 01-1.243 1.258.991.991 0 000 1.389l1.766 1.744a.654.654 0 00.974-.009 16.851 16.851 0 001.262-1.556 23.083 23.083 0 001.552-2.5l.178-.333 1.259 1.043a.6.6 0 00.973-.162l.006-.012a.984.984 0 00-.254-1.176l-1.277-1.057a12.013 12.013 0 00.993-4.13 8.478 8.478 0 00-.081-1.651 6.613 6.613 0 00-2.389-4.26 4.25 4.25 0 00-3.803-1.063zm-.976 5.916a3.3 3.3 0 011.51-1.008 1.59 1.59 0 011.36.409 2.387 2.387 0 01.868 1.5 3.157 3.157 0 01-.359 1.9zm-5.593-.788a1.352 1.352 0 01-1.221-.337 2.057 2.057 0 01-.742-1.343 3.749 3.749 0 01.278-1.8l3.041 2.519a2.783 2.783 0 01-1.355.961z" fill="#fff"/><path d="M1315.352 1383.353l.152.126c-40.11 18.037-35.442 73.167-75.552 91.2l-45.657-37.822a58.483 58.483 0 017.182-.331 54.645 54.645 0 019.728 1.042 65.934 65.934 0 0112.941 4.049c23.441 9.947 30.178 1.572 34.24-12.573 1.116-3.75 2.079-7.878 3.247-12.074a94.935 94.935 0 011.729-5.552 68.256 68.256 0 014.593-10.495c5.97-11.327 16.45-18.993 29.411-18.65a36.461 36.461 0 017.223.839 18.833 18.833 0 001.995.315 50.146 50.146 0 008.768-.074z" transform="translate(-1084.097 -1306.753)" opacity=".2" fill="url(#ac)" style="mix-blend-mode:multiply;isolation:isolate"/><path d="M1206.119 1269.976a2.574 2.574 0 011.6 3.276l-32.223 79.234a3.258 3.258 0 01-3.918 1.719l-52.493-21.827a3.155 3.155 0 01-1.409-3.939l32.493-77.988a2.669 2.669 0 013.448-1.244z" transform="translate(-1013.971 -1185.131)" fill="url(#ad)"/><path d="M1208.379 1250.715a2.592 2.592 0 011.611 3.3l-32.82 80.243a2.75 2.75 0 01-3.637 1.375l-52.821-21.952a2.657 2.657 0 01-1.512-3.481l32.843-79.121a2.69 2.69 0 013.473-1.258z" transform="translate(-1015.373 -1167.439)" fill="url(#ae)"/><path d="M153.361 138.178l-5.56 13.022a1.268 1.268 0 01-1.539.692l-3.279-1.1a1.043 1.043 0 01-.633-1.422l5.6-13.016a1.256 1.256 0 011.527-.677l3.251 1.1a1.036 1.036 0 01.633 1.401zm7.315-17.137l-5.459 12.784a1.248 1.248 0 01-1.519.675l-3.247-1.1a1.031 1.031 0 01-.631-1.4l5.5-12.777a1.237 1.237 0 011.508-.66l3.219 1.09a1.023 1.023 0 01.629 1.388zm7.184-16.826l-5.36 12.553a1.229 1.229 0 01-1.5.657l-3.215-1.089a1.018 1.018 0 01-.629-1.38l5.4-12.546a1.219 1.219 0 011.49-.643l3.188 1.085a1.011 1.011 0 01.626 1.363zm7.054-16.522l-5.263 12.327a1.211 1.211 0 01-1.483.641l-3.184-1.084a1.006 1.006 0 01-.626-1.359l5.3-12.321a1.2 1.2 0 011.472-.627l3.157 1.079a1 1 0 01.627 1.344z" opacity=".7" fill="#f4f7fa"/><path d="M1365.5 2049.21l-2.622 6.176a2.332 2.332 0 01-3.055 1.14l-6.55-2.708a2.258 2.258 0 01-1.3-2.937l2.646-6.151a2.329 2.329 0 013.041-1.128l6.526 2.682a2.259 2.259 0 011.314 2.926z" transform="translate(-1227.847 -1910.146)" fill="url(#af)"/><path d="M1373.333 2057.642l-2.254 5.3a2.148 2.148 0 01-2.819 1.051l-5.625-2.325a2.08 2.08 0 01-1.2-2.71l2.272-5.284a2.147 2.147 0 012.808-1.042l5.607 2.305a2.082 2.082 0 011.211 2.705zm-11.623 1.436a1.792 1.792 0 001.037 2.333l5.625 2.324a1.849 1.849 0 002.427-.906l2.254-5.3a1.792 1.792 0 00-1.046-2.326l-5.608-2.306a1.848 1.848 0 00-2.418.9z" transform="translate(-1236.492 -1918.401)" fill="url(#ag)"/><path d="M126.896 143.428l3.762-8.779z" fill="#f4f7fa"/><path d="M1387.9 2058.664l-3.761 8.78-.28-.115 3.762-8.779z" transform="translate(-1257.105 -1923.957)" fill="url(#ah)"/><path d="M129.01 144.302l3.755-8.786z" fill="#f4f7fa"/><path d="M1412.1 2068.585l-3.755 8.786-.28-.115 3.755-8.786z" transform="translate(-1279.193 -1933.011)" fill="url(#ai)"/><path d="M131.126 145.177l3.749-8.793z" fill="#f4f7fa"/><path d="M1436.313 2078.514l-3.748 8.794-.28-.116 3.749-8.792z" transform="translate(-1301.299 -1942.074)" fill="url(#aj)"/><path d="M135.084 140.185l-1.046 2.458a1.3 1.3 0 01-1.7.634l-4.91-2.027a1.258 1.258 0 01-.728-1.635l1.053-2.451a1.3 1.3 0 011.7-.63l4.9 2.018a1.26 1.26 0 01.731 1.633z" fill="#fec045"/><path d="M1389.193 2081.905l-1.046 2.458a1.445 1.445 0 01-1.9.707l-4.91-2.026a1.4 1.4 0 01-.811-1.822l1.053-2.452a1.445 1.445 0 011.892-.7l4.9 2.017a1.4 1.4 0 01.822 1.818zm-8.384-.569a1.111 1.111 0 00.644 1.447l4.909 2.026a1.147 1.147 0 001.505-.561l1.046-2.458a1.113 1.113 0 00-.649-1.445l-4.9-2.018a1.147 1.147 0 00-1.5.558z" transform="translate(-1253.969 -1941.663)" fill="url(#ak)"/><path d="M1521.883 1487.585c-1.914 6.963-3.609 11.2-7.241 15.27a33.3 33.3 0 01-15.086 9.33l21.3 8.85a2.75 2.75 0 003.637-1.374l32.82-80.243a2.592 2.592 0 00-1.611-3.3l-8.463-3.352c-12.906 8.8-17.777 17.768-19.806 24.494-2.456 8.125-1.004 13.785-5.55 30.325z" transform="translate(-1362.692 -1352.84)" opacity=".15" fill="url(#al)" style="mix-blend-mode:multiply;isolation:isolate"/><g opacity=".42" style="mix-blend-mode:multiply;isolation:isolate"><path d="M1700.134 2079.513l-7.412 17.962a.7.7 0 01-.922.347l-3.013-1.246a.7.7 0 01-.407-.9l7.439-17.933a.7.7 0 01.913-.341l2.993 1.224a.689.689 0 01.409.887z" transform="translate(-1534.977 -1941.116)" fill="url(#am)"/><path d="M1838.469 1685.53l-9.863 23.894a.7.7 0 01-.921.348l-3.014-1.226a.691.691 0 01-.408-.888l9.9-23.856a.7.7 0 01.91-.341l2.988 1.2a.679.679 0 01.408.869z" transform="translate(-1658.991 -1581.586)" fill="url(#an)"/></g><path d="M1534.385 1372.8a7.038 7.038 0 013.746 9.353 7.216 7.216 0 01-9.252 4.026 7.04 7.04 0 01-3.777-9.23 7.216 7.216 0 019.283-4.149z" transform="translate(-1385.519 -1297.666)" opacity=".26" fill="url(#ao)" style="mix-blend-mode:multiply;isolation:isolate"/><g opacity=".53" fill="#f4f7fa"><path d="M135.307 131.101a1.154 1.154 0 01-.624 1.5 1.124 1.124 0 01-1.489-.61 1.154 1.154 0 01.636-1.49 1.125 1.125 0 011.477.6zm5.516-1.614a.411.411 0 01-.224.23.431.431 0 01-.56-.228 6.517 6.517 0 00-8.383-3.423.429.429 0 01-.558-.228.418.418 0 01.246-.542 7.389 7.389 0 019.471 3.867.422.422 0 01.008.324z"/><path d="M139.262 130.145a.422.422 0 01-.228.233.432.432 0 01-.563-.23 4.776 4.776 0 00-6.185-2.528.43.43 0 01-.562-.229.425.425 0 01.246-.551 5.646 5.646 0 017.287 2.977.426.426 0 01.005.328z"/><path d="M137.682 130.811a.432.432 0 01-.8 0 3.038 3.038 0 00-3.961-1.62.426.426 0 11-.32-.79 3.929 3.929 0 012.976 0 3.841 3.841 0 012.1 2.077.431.431 0 01.005.333z"/></g><path d="M1657.171 1392.921a2.563 2.563 0 01-2.127 3.095l-95.606 7.062a4.255 4.255 0 01-4.226-3.207l-8.865-67.02c-.24-1.81 1.61-3.391 3.4-3.367l96.181-.453a3.3 3.3 0 012.939 2.934z" transform="translate(-1436.826 -1181.409)" fill="url(#ap)"/><path d="M1672.47 1390.373a2.577 2.577 0 01-2.139 3.111l-96.71 6.961a3.56 3.56 0 01-3.68-3.089l-8.913-67.365a2.781 2.781 0 012.831-3.264l97.3-.573a3.32 3.32 0 012.956 2.949z" transform="translate(-1450.279 -1178.772)" fill="url(#aq)"/><path d="M148.116 198.416l-16.743.649a1.669 1.669 0 01-1.65-1.271l-.815-4a1.118 1.118 0 011.114-1.37l16.8-.512a1.622 1.622 0 011.581 1.255l.776 3.9a1.092 1.092 0 01-1.063 1.349zm21.332-.827l-15.842.614a1.589 1.589 0 01-1.56-1.237l-.771-3.887a1.078 1.078 0 011.053-1.331l15.893-.484a1.546 1.546 0 011.5 1.223l.735 3.8a1.055 1.055 0 01-1.008 1.302zm20.211-.783l-15.01.582a1.515 1.515 0 01-1.477-1.206l-.729-3.783a1.041 1.041 0 011-1.294l15.058-.459a1.478 1.478 0 011.419 1.192l.7 3.7a1.021 1.021 0 01-.961 1.268zm19.175-.742l-14.243.552a1.448 1.448 0 01-1.4-1.175l-.692-3.685a1.007 1.007 0 01.945-1.259l14.287-.435a1.413 1.413 0 011.347 1.162l.662 3.6a.988.988 0 01-.906 1.24z" opacity=".7" fill="#f4f7fa"/><path d="M1754.474 1597.773l-8.011.217a3.113 3.113 0 01-3.042-2.689l-1.1-8.28a2.369 2.369 0 012.314-2.788l8.025-.088a3.11 3.11 0 012.975 2.688l1.085 8.152a2.364 2.364 0 01-2.246 2.788z" transform="translate(-1616.5 -1415.306)" fill="url(#ar)"/><path d="M1763.289 1605.739l-6.882.18a2.868 2.868 0 01-2.8-2.482l-.943-7.106a2.183 2.183 0 012.132-2.574l6.892-.082a2.866 2.866 0 012.75 2.481l.933 7.009a2.179 2.179 0 01-2.082 2.574zm-8.451-11.63a1.88 1.88 0 00-1.835 2.217l.943 7.1a2.469 2.469 0 002.413 2.137l6.883-.177a1.876 1.876 0 001.79-2.217l-.933-7.012a2.468 2.468 0 00-2.369-2.137z" transform="translate(-1625.98 -1424.044)" fill="url(#as)"/><path d="M126.969 173.164l11.434-.181z" fill="#f4f7fa"/><path d="M1767.585 1632.24l-11.433.184-.047-.353 11.434-.179z" transform="translate(-1629.16 -1459.083)" fill="url(#at)"/><path d="M127.324 175.834l11.43-.217z" fill="#f4f7fa"/><path d="M1771.845 1663.937l-11.43.219-.047-.353 11.43-.214z" transform="translate(-1633.068 -1488.144)" fill="url(#au)"/><path d="M127.678 178.507l11.427-.253z" fill="#f4f7fa"/><path d="M1776.106 1695.641l-11.426.255-.047-.353 11.427-.25z" transform="translate(-1636.979 -1517.211)" fill="url(#av)"/><path d="M135.283 180.297l-3.192.078a1.731 1.731 0 01-1.685-1.5l-.822-6.186a1.317 1.317 0 011.279-1.552l3.2-.043a1.738 1.738 0 011.669 1.5l.817 6.142a1.321 1.321 0 01-1.266 1.561z" fill="#fec045"/><path d="M1791.5 1618.755l-3.192.079a1.927 1.927 0 01-1.879-1.668l-.822-6.188a1.466 1.466 0 011.427-1.73l3.2-.043a1.934 1.934 0 011.86 1.673l.817 6.141a1.471 1.471 0 01-1.411 1.736zm-4.419-9.156a1.163 1.163 0 00-1.132 1.373l.821 6.185a1.529 1.529 0 001.491 1.324l3.192-.077a1.167 1.167 0 001.117-1.378l-.817-6.143a1.535 1.535 0 00-1.477-1.328z" transform="translate(-1656.196 -1438.282)" fill="url(#aw)"/><path d="M1664.411 1868.548c-8.172 1.469-13.516 1.825-19.88.077a45.2 45.2 0 01-19-11.257l3.575 27.025a3.561 3.561 0 003.68 3.089l96.71-6.961a2.577 2.577 0 002.139-3.111l-1.321-9.742c-14.7-8.546-25.64-9.205-33.1-8.081-9.144 1.378-13.836 5.551-32.803 8.961z" transform="translate(-1509.441 -1665.81)" opacity=".15" fill="url(#ax)" style="mix-blend-mode:multiply;isolation:isolate"/><g opacity=".42" style="mix-blend-mode:multiply;isolation:isolate"><path d="M1823.107 2028.641l-22.8 1.4a.9.9 0 01-.916-.784l-.5-3.778a.753.753 0 01.695-.878l22.814-1.256a.872.872 0 01.87.768l.49 3.67a.728.728 0 01-.653.858z" transform="translate(-1668.381 -1817.983)" fill="url(#ay)"/><path d="M2260.611 2001.618l-28.386 1.744a.861.861 0 01-.863-.761l-.49-3.656a.718.718 0 01.647-.848l28.406-1.563a.824.824 0 01.807.739l.475 3.525a.686.686 0 01-.596.82z" transform="translate(-2064.438 -1793.399)" fill="url(#az)"/></g><path d="M2544.5 1449.876a6.785 6.785 0 01-6.687 7.9 8.852 8.852 0 01-8.743-7.525 6.786 6.786 0 016.66-7.9 8.848 8.848 0 018.77 7.525z" transform="translate(-2337.781 -1285.306)" opacity=".26" fill="url(#ba)" style="mix-blend-mode:multiply;isolation:isolate"/><g opacity=".53" fill="#f4f7fa"><path d="M144.799 176.197a1.369 1.369 0 01-1.9.053 1.3 1.3 0 01-.249-1.855 1.373 1.373 0 011.9-.035 1.3 1.3 0 01.249 1.837zm4.866 5.003a.525.525 0 01-.365-.124.5.5 0 01-.093-.692c2.446-2.964 1.829-7.552-1.395-10.384a.462.462 0 11.6-.686c3.623 3.2 4.318 8.374 1.575 11.725a.447.447 0 01-.322.161z"/><path d="M148.087 179.884a.541.541 0 01-.37-.128.5.5 0 01-.094-.7 5.525 5.525 0 00-1.03-7.672.5.5 0 01-.094-.7.5.5 0 01.706 0c2.818 2.46 3.355 6.458 1.213 9.033a.453.453 0 01-.331.167z"/><path d="M146.485 178.549a.557.557 0 01-.376-.131.5.5 0 01-.094-.7 3.513 3.513 0 00-.66-4.919.5.5 0 01-.094-.7.513.513 0 01.716 0 5.025 5.025 0 011.74 3.12 4.023 4.023 0 01-.895 3.181.459.459 0 01-.337.149z"/></g><path d="M2571.427 730.631c0 14.9-11.653 26.625-26.546 26.168-15.5-.476-28.535-13.862-28.535-29.881s13.036-27.647 28.535-26.034c14.894 1.55 26.546 14.844 26.546 29.747z" transform="translate(-2421.035 -683.726)" fill="url(#bb)"/><path d="M2606.266 719.508c0 14.9-11.653 26.625-26.546 26.168-15.5-.476-28.535-13.862-28.535-29.881s13.036-27.648 28.535-26.034c14.894 1.55 26.546 14.844 26.546 29.747z" transform="translate(-2451.849 -673.888)" fill="url(#bc)"/><path d="M2615.4 729.267c0 14.246-11.149 25.434-25.377 24.973-14.78-.479-27.189-13.254-27.189-28.517s12.409-26.365 27.189-24.851c14.232 1.458 25.377 14.149 25.377 28.395z" transform="translate(-2462.157 -683.727)" fill="url(#bd)"/><path d="M2621.909 736.236c0 13.776-10.789 24.581-24.54 24.12-14.267-.479-26.23-12.818-26.23-27.542s11.963-25.45 26.23-24.006c13.751 1.392 24.54 13.652 24.54 27.428z" transform="translate(-2469.499 -690.752)" fill="url(#be)"/><path d="M2700.6 750.33a1.5 1.5 0 011.324 1.471v2.536a37.294 37.294 0 014.4.763q1.623.381 3.224.908a1.483 1.483 0 011.01 1.522l-.311 3.181a1.193 1.193 0 01-1.7.989 18.328 18.328 0 00-2.163-.806 19.6 19.6 0 00-4.08-.762l-.374-.031v7.264c3.817 1.068 6.621 2.5 8.433 4.312a9.116 9.116 0 012.7 6.731 8.862 8.862 0 01-2.987 7q-3.007 2.65-8.451 2.975v2.8a1.273 1.273 0 01-1.325 1.293h-.023a1.407 1.407 0 01-1.33-1.4v-2.762l-.59-.027a38.749 38.749 0 01-4.9-.522 31.806 31.806 0 01-3.383-.778 1.458 1.458 0 01-1.062-1.507l.367-4.089a1.293 1.293 0 011.807-1.067 26.579 26.579 0 002.976.977 26.069 26.069 0 004.757.795l.023-8.08q-5.5-1.36-8.21-4.028a9.224 9.224 0 01-2.719-6.855 8.014 8.014 0 012.948-6.658c1.953-1.551 4.729-2.323 8.311-2.321v-2.593a1.2 1.2 0 011.328-1.231zm-1.329 9.7a4.473 4.473 0 00-2.647.933 2.722 2.722 0 00-.95 2.18 2.928 2.928 0 00.879 2.167 6.226 6.226 0 002.719 1.387zm2.348 14.631v7.41a4.1 4.1 0 002.834-.881 3.172 3.172 0 00.986-2.494 3.409 3.409 0 00-.916-2.439 6.731 6.731 0 00-2.898-1.599z" transform="translate(-2572.875 -727.588)" fill="url(#bf)"/><path d="M2592.928 740.639c.829-8.189 8.355-11.655 7.373-19.188-.6-4.643-4.124-8.555-8.05-11.61-11.906 1.249-21.113 11.107-21.113 24 0 14.725 11.963 27.063 26.23 27.543a24.777 24.777 0 004.054-.2c-5.665-5.635-9.206-13.51-8.494-20.545z" transform="translate(-2469.499 -691.781)" opacity=".3" fill="url(#bg)" style="mix-blend-mode:multiply;isolation:isolate"/><path d="M55.081 29.9c0 14.9-11.653 26.625-26.546 26.168C13.036 55.588 0 42.2 0 26.183S13.036-1.464 28.535.15C43.429 1.7 55.081 14.994 55.081 29.9z" transform="rotate(39 -25.199 65)" fill="url(#bh)"/><path d="M55.081 29.9c0 14.9-11.653 26.625-26.546 26.168C13.036 55.588 0 42.2 0 26.183S13.036-1.464 28.535.15C43.429 1.7 55.081 14.994 55.081 29.9z" transform="rotate(39 -25.397 71.326)" fill="url(#bc)"/><path d="M52.566 28.533c0 14.246-11.149 25.434-25.377 24.973C12.409 53.027 0 40.252 0 24.989S12.409-1.376 27.189.138C41.417 1.6 52.566 14.287 52.566 28.533z" transform="rotate(39 -27.884 72.584)" fill="url(#bd)"/><path d="M50.77 27.559c0 13.776-10.789 24.581-24.54 24.12C11.963 51.2 0 38.861 0 24.136S11.963-1.314 26.23.13c13.751 1.393 24.54 13.653 24.54 27.429z" transform="rotate(39 -29.658 73.48)" fill="url(#be)"/><path d="M12.588.006a1.5 1.5 0 011.324 1.471v2.537a37.305 37.305 0 014.4.763q1.623.381 3.224.908a1.483 1.483 0 011.01 1.522l-.311 3.181a1.192 1.192 0 01-1.7.989 18.355 18.355 0 00-2.163-.806 19.608 19.608 0 00-4.08-.762l-.374-.031v7.264c3.817 1.068 6.621 2.5 8.433 4.312a9.116 9.116 0 012.7 6.731 8.862 8.862 0 01-2.987 7q-3.007 2.65-8.451 2.975v2.8a1.273 1.273 0 01-1.325 1.293h-.024a1.407 1.407 0 01-1.33-1.4v-2.769l-.59-.027a38.742 38.742 0 01-4.9-.522 31.809 31.809 0 01-3.383-.778A1.458 1.458 0 011 35.15l.367-4.088a1.293 1.293 0 011.807-1.067 26.585 26.585 0 002.976.977 26.074 26.074 0 004.757.795l.024-8.08q-5.5-1.36-8.21-4.028A9.225 9.225 0 010 12.8a8.014 8.014 0 012.948-6.656c1.952-1.551 4.73-2.323 8.311-2.321V1.23A1.2 1.2 0 0112.588.006zM11.259 9.7a4.474 4.474 0 00-2.648.933 2.722 2.722 0 00-.95 2.18 2.927 2.927 0 00.879 2.167 6.225 6.225 0 002.719 1.387zm2.348 14.631v7.41a4.1 4.1 0 002.834-.881 3.172 3.172 0 00.986-2.494 3.409 3.409 0 00-.916-2.439 6.73 6.73 0 00-2.903-1.594z" transform="rotate(39 -43.202 90.137)" fill="url(#bf)"/><path d="M21.789 30.8c.829-8.189 8.355-11.655 7.373-19.188C28.557 6.967 25.038 3.055 21.113 0 9.207 1.249 0 11.107 0 24c0 14.727 11.963 27.065 26.23 27.544a24.77 24.77 0 004.054-.2c-5.666-5.636-9.207-13.511-8.495-20.544z" transform="rotate(39 -29.85 73.412)" opacity=".3" fill="url(#bg)" style="mix-blend-mode:multiply;isolation:isolate"/><path d="M39.958 21.688A18.614 18.614 0 0120.7 40.671C9.456 40.326 0 30.615 0 18.994A18.562 18.562 0 0120.7.109a21.938 21.938 0 0119.258 21.579z" transform="rotate(-30 242.695 -50.996)" fill="url(#bh)"/><path d="M39.958 21.688A18.614 18.614 0 0120.7 40.671C9.457 40.325 0 30.615 0 18.994A18.563 18.563 0 0120.7.108a21.938 21.938 0 0119.258 21.58z" transform="rotate(-30 239.496 -55.977)" fill="url(#bc)"/><path d="M38.133 20.7a17.764 17.764 0 01-18.409 18.115C9 38.467 0 29.2 0 18.128A17.716 17.716 0 0119.724.1a20.933 20.933 0 0118.409 20.6z" transform="rotate(-30 240.747 -58.266)" fill="url(#bd)"/><path d="M36.83 19.992a17.156 17.156 0 01-17.8 17.5A20.1 20.1 0 010 17.509 17.112 17.112 0 0119.028.095 20.216 20.216 0 0136.83 19.992z" transform="rotate(-30 241.641 -59.898)" fill="url(#bq)"/><path d="M9.132 0a1.088 1.088 0 01.961 1.067v1.84a27.038 27.038 0 013.189.553q1.177.277 2.339.659a1.076 1.076 0 01.733 1.1l-.226 2.307a.864.864 0 01-1.234.717 13.327 13.327 0 00-1.569-.584 14.225 14.225 0 00-2.96-.553l-.271-.022v5.269a13.847 13.847 0 016.116 3.137 6.613 6.613 0 011.96 4.883A6.428 6.428 0 0116 25.449a9.886 9.886 0 01-6.13 2.159v2.031a.924.924 0 01-.961.938h-.016a1.021 1.021 0 01-.965-1.018v-2l-.428-.024a28.1 28.1 0 01-3.551-.379 23.1 23.1 0 01-2.454-.564 1.058 1.058 0 01-.77-1.092l.266-2.966a.938.938 0 011.309-.775 19.282 19.282 0 002.159.709 18.934 18.934 0 003.451.577l.017-5.862a12.7 12.7 0 01-5.954-2.923A6.692 6.692 0 010 9.287a5.814 5.814 0 012.139-4.83 9.484 9.484 0 016.029-1.684V.892A.869.869 0 019.132 0zm-.964 7.038a3.247 3.247 0 00-1.921.677A1.975 1.975 0 005.558 9.3a2.124 2.124 0 00.642 1.569 4.52 4.52 0 001.972 1.006zm1.7 10.614v5.375a2.973 2.973 0 002.056-.639 2.3 2.3 0 00.716-1.809 2.473 2.473 0 00-.665-1.769 4.883 4.883 0 00-2.104-1.158z" fill="url(#br)" transform="rotate(-30 243.257 -79.919)"/><path d="M15.807 22.342c.6-5.94 6.061-8.455 5.349-13.919-.44-3.369-2.993-6.207-5.84-8.423A17.114 17.114 0 000 17.412a20.1 20.1 0 0019.028 19.98 17.971 17.971 0 002.94-.144c-4.11-4.09-6.678-9.803-6.161-14.906z" transform="rotate(-30 241.822 -59.946)" opacity=".3" fill="url(#bg)" style="mix-blend-mode:multiply;isolation:isolate"/></svg>