<svg xmlns="http://www.w3.org/2000/svg" xmlns:xlink="http://www.w3.org/1999/xlink" width="315.439" height="273.089"><defs><linearGradient id="c" x1=".13" y1=".378" x2="1.406" y2=".662" gradientUnits="objectBoundingBox"><stop offset="0" stop-color="#ab316d"/><stop offset="1" stop-color="#792d3d"/></linearGradient><linearGradient id="d" y1=".5" x2="1" y2=".5" gradientUnits="objectBoundingBox"><stop offset="0" stop-color="#ffc444"/><stop offset=".996" stop-color="#f36f56"/></linearGradient><linearGradient id="e" y1=".5" x2="1" y2=".5" gradientUnits="objectBoundingBox"><stop offset=".004" stop-color="#e38ddd"/><stop offset="1" stop-color="#9571f6"/></linearGradient><linearGradient id="g" y1=".5" x2="1" y2=".5" gradientUnits="objectBoundingBox"><stop offset="0" stop-color="#ff9085"/><stop offset="1" stop-color="#fb6fbb"/></linearGradient><linearGradient id="h" x1=".5" x2=".5" y2="1" gradientUnits="objectBoundingBox"><stop offset="0" stop-color="#5c26c1"/><stop offset="1" stop-color="#314eff"/></linearGradient><linearGradient id="i" x1=".375" y1="-2.634" x2="2.469" y2="2.267" gradientUnits="objectBoundingBox"><stop offset="0" stop-color="#610caa"/><stop offset="1" stop-color="#001cc4"/></linearGradient><linearGradient id="j" x1=".841" y1=".696" x2="-.404" y2="-.245" gradientUnits="objectBoundingBox"><stop offset="0" stop-color="#aa80f9"/><stop offset=".996" stop-color="#6165d7"/></linearGradient><linearGradient id="l" x1=".261" y1=".066" x2=".945" y2="1.035" xlink:href="#e"/><linearGradient id="n" x1=".244" y1=".137" x2="1.004" y2="1.839" xlink:href="#h"/><linearGradient id="o" x1=".181" y1=".111" x2="1.18" y2="2.117" xlink:href="#h"/><linearGradient id="p" x1=".244" y1="-.016" x2="1.004" y2="1.987" xlink:href="#h"/><linearGradient id="r" x1="-43.603" y1="3.38" x2="-42.33" y2="3.38" gradientUnits="objectBoundingBox"><stop offset="0" stop-color="#40447e"/><stop offset=".996" stop-color="#3c3b6b"/></linearGradient><linearGradient id="s" x1="5.592" y1="-12.572" x2="35.559" y2="17.525" xlink:href="#d"/><linearGradient id="t" x1="-.515" y1=".432" x2=".616" y2="2.006" xlink:href="#j"/><linearGradient id="u" x1=".5" y1="0" x2=".5" y2="1" xlink:href="#j"/><linearGradient id="v" x1="-3.197" y1="1.624" x2=".782" y2=".887" gradientUnits="objectBoundingBox"><stop offset="0" stop-color="#2a0089"/><stop offset=".303" stop-color="#4f0caa"/><stop offset=".481" stop-color="#6d39d0"/><stop offset="1" stop-color="#b5bffa"/></linearGradient><linearGradient id="w" x1="-.04" y1="2.547" x2="-.856" y2="1.013" xlink:href="#j"/><linearGradient id="x" x1="-.23" y1="1.174" x2="-.425" y2=".501" xlink:href="#j"/><linearGradient id="y" x1="-.23" y1="1.241" x2="-.425" y2=".309" xlink:href="#j"/><linearGradient id="z" x1="-.669" y1="1.724" x2="-1.009" y2=".619" gradientUnits="objectBoundingBox"><stop offset=".283" stop-color="#aa80f9"/><stop offset=".996" stop-color="#6165d7"/></linearGradient><linearGradient id="aa" x1="1.923" y1="1" x2="-3.516" y2=".748" gradientUnits="objectBoundingBox"><stop offset="0" stop-color="#ffc444"/><stop offset="1" stop-color="#f36f56"/></linearGradient><linearGradient id="ab" x1="-1.871" y1="1.962" x2="-1.384" y2=".763" gradientUnits="objectBoundingBox"><stop offset="0" stop-color="#311944"/><stop offset="1" stop-color="#6b3976"/></linearGradient><linearGradient id="ac" x1="-2.041" y1="1.244" x2="-2.08" y2="4.477" xlink:href="#d"/><linearGradient id="ad" x1="-12.535" y1="3.24" x2="-9.125" y2=".87" xlink:href="#ab"/><linearGradient id="ae" x1="-6.777" y1="16.147" x2="-5.331" y2="6.308" xlink:href="#ab"/><linearGradient id="af" x1="-1.372" y1="1.135" x2="-.318" y2="1.135" xlink:href="#r"/><linearGradient id="ag" x1="-17.878" y1="13.894" x2="-16.884" y2="13.894" xlink:href="#r"/><linearGradient id="ah" x1="-18.477" y1="5.882" x2="46.635" y2="65.105" xlink:href="#d"/><linearGradient id="ai" x1="-7.03" y1="2.686" x2="-1.834" y2="2.07" xlink:href="#v"/><linearGradient id="aj" x1="-1.357" y1="1.583" x2=".226" y2="1.008" xlink:href="#v"/><linearGradient id="ak" x1="-1.197" y1="2.251" x2=".052" y2="1.486" xlink:href="#ab"/><linearGradient id="al" x1=".548" y1=".543" x2="-.659" y2="1.216" xlink:href="#d"/><linearGradient id="am" x1=".28" y1=".548" x2="-1.288" y2="1.481" xlink:href="#d"/><linearGradient id="an" x1="-.113" y1="-.802" x2="1.065" y2="1.421" xlink:href="#j"/><linearGradient id="ao" x1=".5" y1="1.152" x2=".5" y2="-.027" xlink:href="#d"/><linearGradient id="ap" x1=".5" y1=".734" x2=".5" y2="-.116" xlink:href="#d"/><linearGradient id="aq" x1="-3.75" y1="-1.079" x2="-2.83" y2=".83" xlink:href="#j"/><linearGradient id="ar" y1=".5" x2="1" y2=".5" gradientUnits="objectBoundingBox"><stop offset="0" stop-color="#311944"/><stop offset="1" stop-color="#893976"/></linearGradient><linearGradient id="as" x1="-.032" y1=".129" x2=".689" y2=".731" gradientUnits="objectBoundingBox"><stop offset="0" stop-color="#4600de"/><stop offset="1" stop-color="#0e142f"/></linearGradient><linearGradient id="at" x1=".252" y1=".047" x2=".972" y2=".677" xlink:href="#ar"/><linearGradient id="au" x1="-.325" y1="-.38" x2=".89" y2=".962" xlink:href="#j"/><linearGradient id="av" x1="-.37" y1="-.615" x2=".817" y2="1.106" xlink:href="#g"/><linearGradient id="aw" x1=".86" y1=".292" x2=".114" y2="1.155" xlink:href="#d"/><linearGradient id="ax" x1="0" y1=".5" x2="1" y2=".5" xlink:href="#ab"/><linearGradient id="ay" x1="-47.474" y1="-7.866" x2="-50.907" y2="-2.147" xlink:href="#d"/><linearGradient id="az" x1=".158" y1="-1.351" x2=".692" y2="1.091" xlink:href="#e"/><linearGradient id="ba" x1="-.195" y1="-.508" x2="1.353" y2="1.694" xlink:href="#g"/><linearGradient id="bb" x1=".421" y1=".95" x2=".691" y2="-.004" xlink:href="#v"/><linearGradient id="bc" x1="-6.743" y1="5.136" x2="-5.692" y2="6.585" gradientUnits="objectBoundingBox"><stop offset="0" stop-color="#444b8c"/><stop offset=".996" stop-color="#26264f"/></linearGradient><linearGradient id="bd" x1="-29.785" y1="3.942" x2="-29.785" y2="2.59" xlink:href="#d"/><linearGradient id="be" x1="-9.043" y1="5.877" x2="-7.71" y2="7.665" xlink:href="#bc"/><linearGradient id="bf" x1="-.232" y1="-.515" x2=".863" y2=".793" xlink:href="#bc"/><linearGradient id="bg" x1="-12.12" y1="-15.514" x2="-11.159" y2="-14.915" xlink:href="#d"/><linearGradient id="bh" x1="-27.628" y1="1.222" x2="-27.628" y2="-.193" xlink:href="#d"/><linearGradient id="bi" x1="-.217" y1=".072" x2="1.256" y2=".961" xlink:href="#v"/><linearGradient id="bj" x1=".174" y1=".299" x2="1.173" y2=".91" xlink:href="#c"/><linearGradient id="bk" x1="-.781" y1="-1.298" x2=".579" y2=".479" xlink:href="#bc"/><linearGradient id="bl" x1=".421" y1=".29" x2="1.456" y2="1.505" xlink:href="#v"/><linearGradient id="bm" x1="-.134" y1="-.003" x2="1.214" y2="1.837" xlink:href="#d"/><linearGradient id="bn" x1="-3.538" y1="-2.784" x2="12.465" y2="10.461" xlink:href="#d"/><clipPath id="f"><path d="M3269.889 674.325l-18.065 5.99c-1.9-2.208-4.808-6.481-1.415-8.9 4.719-3.359 1.7-12.642-.851-15.421-3.159-3.439-10.351-11.6-3.138-16.906 6.005-4.419 10.783-6.043 8.306-14.867s.413-15.84 8.446-18c8.454-2.271 11.489-15.586 19.516-14.21 13.987 2.4 9.79 25.131-2.683 35.548s-2.478 12.787.322 19.746c3.823 9.5-9.968 11.885-12.13 16.864-1.697 3.909.203 7.852 1.692 10.156z" transform="translate(-3243.316 -591.917)" fill="none"/></clipPath><clipPath id="k"><path d="M1660.276 1055.385h18.171s7.246-15.359.973-19.9-1.947-17.349-.433-24.445c4.11-19.253-17.149-20.265-13.845-45.428.879-6.692 4.793-19.162-.144-25.238-5.625-6.922-11.1-1.586-14.566-7.211-5.41-8.791-15.515-13.024-22.844-5.683-7.233 7.246-1.862 24.283 15.059 39.644 10.891 12.4 10.657 15.644 8.65 23.365-1.406 5.408-8.545 19.036-1.839 25.742s11.592 13.64 7.9 19.469c-5.627 8.868 2.918 19.685 2.918 19.685z" transform="translate(-1624.451 -923.723)" fill="none"/></clipPath><clipPath id="m"><path d="M1621.311 1356.362h17.415c1.015-2.465 2.31-7.013-1.333-8.134-5.066-1.559-5.118-10.49-3.7-13.638 1.753-3.9 5.65-13.053-2.143-15.586-6.487-2.109-11.1-2.143-11.495-10.521s-4.919-13.638-12.518-13.2c-8 .461-14.466-10.229-21.041-6.722-11.457 6.11-1.266 24.646 12.566 30.1s5.834 10.392 5.406 17.242c-.584 9.352 12.079 7.452 15.392 11.154 2.594 2.904 2.077 6.876 1.451 9.305z" transform="translate(-1581.541 -1287.854)" fill="none"/></clipPath><filter id="a" x="220.679" y="48.692" width="63.828" height="63.828" filterUnits="userSpaceOnUse"><feOffset dy="3"/><feGaussianBlur stdDeviation="3" result="b"/><feFlood flood-opacity=".161"/><feComposite operator="in" in2="b"/><feComposite in="SourceGraphic"/></filter><filter id="bo" x="87.549" y="12.06" width="63.786" height="63.786" filterUnits="userSpaceOnUse"><feOffset dy="3"/><feGaussianBlur stdDeviation="3" result="bp"/><feFlood flood-opacity=".161"/><feComposite operator="in" in2="bp"/><feComposite in="SourceGraphic"/></filter><filter id="bq" x="142.789" y="0" width="58.331" height="58.331" filterUnits="userSpaceOnUse"><feOffset dy="3"/><feGaussianBlur stdDeviation="3" result="br"/><feFlood flood-opacity=".161"/><feComposite operator="in" in2="br"/><feComposite in="SourceGraphic"/></filter></defs><g transform="translate(-.001 .003)" filter="url(#a)"><circle cx="22.914" cy="22.914" r="22.914" transform="translate(229.68 54.69)" fill="#fff"/></g><path d="M246.659 76.494l-2.158 5.85h-1.315l-1.512-4.031-1.536 4.031h-1.313l-2.147-5.85h1.293l1.545 4.312 1.61-4.312h1.15l1.578 4.339 1.584-4.339zm9.959 0l-2.158 5.85h-1.315l-1.512-4.031-1.534 4.031h-1.315l-2.146-5.85h1.293l1.543 4.312 1.611-4.317h1.153l1.578 4.339 1.589-4.339zm9.959 0l-2.159 5.85h-1.314l-1.512-4.031-1.534 4.031h-1.315l-2.147-5.85h1.293l1.549 4.312 1.611-4.317h1.15l1.578 4.339 1.589-4.339zm1.019 5.927a.875.875 0 01-.635-.257.874.874 0 01-.263-.652.879.879 0 01.257-.657.88.88 0 01.641-.252.88.88 0 01.641.252.879.879 0 01.257.657.874.874 0 01-.263.652.875.875 0 01-.636.257zm2.728 0a.875.875 0 01-.635-.257.874.874 0 01-.263-.652.879.879 0 01.257-.657.88.88 0 01.641-.252.88.88 0 01.641.252.879.879 0 01.257.657.874.874 0 01-.263.652.875.875 0 01-.636.257zm2.739 0a.875.875 0 01-.635-.257.874.874 0 01-.263-.652.879.879 0 01.257-.657.88.88 0 01.641-.252.88.88 0 01.641.252.879.879 0 01.257.657.874.874 0 01-.263.652.875.875 0 01-.636.257z" fill="#5213c7" stroke="rgba(0,0,0,0)" opacity=".613"/><path d="M10.761 211.338c-.023-.842-18.919-28.344 5.76-30.107 43.2-3.086 64.8-4.621 84.758-7.9 59.971-9.84 114.457-1.233 165.669-.112 9.64.211 30.433-1.509 41.412 11.566a32.055 32.055 0 016.4 26.591c-1.851 8.466-7.555 15.766-51.322 39.119-23.221 12.391-34.269 19.26-50.927 21.7-12.6 1.849-19.618.384-23-.528-15.694-4.228-23.934-15.588-30.506-22.61-26.2-28-72.82-37.139-101.233-36.232-22.921.736-46.632 12.219-47.011-1.487z" fill="#f4f7fa" style="mix-blend-mode:multiply;isolation:isolate"/><path d="M267.855 159.188c11.09 4 23.169 9.35 22.61 14-.611 5.079-15.782 4.832-39.479 11.126-37.742 10.024-39.522 21.345-58.5 19.739-21.847-1.849-21.443-17.018-47.374-21.175-9.752-1.563-23.728.513-51.68 4.666-18.842 2.8-33.57 5.982-42.349-2.512-.437-.422-4.849-4.691-4.6-7.668.742-9.001 45.042-17.586 221.372-18.176z" fill="#6165d7" opacity=".139" style="mix-blend-mode:multiply;isolation:isolate"/><g transform="translate(256.847 60.264)"><path d="M3296.087 1091.489a2.123 2.123 0 01-1.083 1.795 19.033 19.033 0 01-10.688-.013 2.09 2.09 0 01-1.072-1.723l-3.741-27.265h19.727z" transform="translate(-3273.208 -982.096)" fill="url(#c)"/><ellipse cx="9.881" cy="1.588" rx="9.881" ry="1.588" transform="translate(6.296 80.474)" fill="url(#d)"/><path d="M3250.089 673.608a6.711 6.711 0 003.175 1.508c10.079.794 14.315-1.285 14.682-1.587.063-.052-.313-4.354-.253-4.408a8.4 8.4 0 01.5-4.946c2.163-4.979 15.953-7.364 12.13-16.864-2.8-6.959-12.8-9.329-.322-19.746s16.67-33.15 2.683-35.548c-8.028-1.376-11.062 11.938-19.516 14.21-8.033 2.159-10.923 9.174-8.446 18s-2.3 10.449-8.306 14.867c-7.213 5.308-.021 13.467 3.138 16.906 2.546 2.767 5.187 14.221.535 17.608z" transform="translate(-3243.316 -591.917)" fill="url(#e)"/><g fill="#fcfdfe" clip-path="url(#f)"><path d="M16.741 82.435C12.96 52.529 23.711 20.935 44.8-.019l.253.254C24.042 21.112 13.33 52.592 17.098 82.39z"/><path d="M16.094 66.024C12.31 54.778-.259 49.257-.386 49.202l.142-.329c.128.055 12.844 5.64 16.678 17.037zm.458 10.84l-.354-.061c2.032-11.825 22.23-20.2 22.434-20.282l.136.332c-.202.08-20.217 8.378-22.216 20.011zm5.578-39.965l-.357-.03c.807-9.5-8.9-20.448-9-20.557l.267-.24c.102.108 9.911 11.167 9.09 20.827zm8.04-17.398l-.276-.23c6.949-8.331 21.521-9.922 21.667-9.937l.037.357c-.146.015-14.575 1.591-21.428 9.81z"/></g></g><path d="M195.686 113.553l-56.906.287a2.828 2.828 0 01-2.871-2.669l-1.323-40.867a2.562 2.562 0 012.7-2.621l57.01 1.366a2.761 2.761 0 012.665 2.644l1.222 39.268a2.5 2.5 0 01-2.497 2.592z" fill="#d8dee8"/><path d="M196.703 113.224l-56.906.287a2.829 2.829 0 01-2.871-2.669l-1.323-40.867a2.562 2.562 0 012.7-2.621l57.01 1.366a2.761 2.761 0 012.665 2.645l1.222 39.268a2.5 2.5 0 01-2.497 2.591z" fill="#f4f7fa"/><path d="M199.238 98.371l-62.736-.291.038 1.184 62.733.245z" fill="#fff"/><path d="M173.267 67.905l.986 31.174h1.172l-.984-31.151z" fill="#fff"/><path d="M166.596 105.22h-22.193a.192.192 0 01-.194-.182l-.065-1.995a.178.178 0 01.183-.181l22.2.037a.189.189 0 01.188.179l.063 1.966a.174.174 0 01-.182.176z" fill="#c281e8"/><path d="M172.652 109.624l-28.106.075a.192.192 0 01-.194-.181l-.064-1.994a.178.178 0 01.182-.182l28.108-.033a.187.187 0 01.187.178l.062 1.958a.174.174 0 01-.175.179zm22.327-30.528l-17-.292-.21-6.645 17 .365zm.494 15.816l-16.988-.117-.415-13.161 17 .261z" fill="#d8dee8"/><path d="M154.539 78.75a5.056 5.056 0 014.974 4.777 4.445 4.445 0 01-.414 2.022l5.7 2.636a10.207 10.207 0 00.906-4.571 11.6 11.6 0 00-11.365-10.957h-.048l.195 6.094z" fill="#fff"/><path d="M2530.1 687.525a4.589 4.589 0 01-4.26 2.62 5.055 5.055 0 01-5-4.777 4.521 4.521 0 014.656-4.641l-.195-6.094a10.373 10.373 0 00-10.783 10.647 11.592 11.592 0 0011.521 10.955 10.529 10.529 0 009.768-6.074z" transform="translate(-2370.998 -601.977)" fill="url(#g)"/><path d="M274.345 165.797a4.751 4.751 0 01-4.385 4.964L52.277 181.473c-6.26.388-9.1-2.96-9.2-6L39.039 56.854l.777-10.971c-.1-3.056 1.285-8.809 4.629-8.672l221.853 9.1a5.1 5.1 0 014.688 4.97z" fill="#d8dee8"/><path d="M2143.721 493.97l-.362-12.344c-.077-2.631-2.183-4.867-1.9-5.891l-221.673-8.886c-7.784.319-9.034 4.835-8.93 7.891l.547 12.46 4.165-.722z" transform="translate(-1872.373 -430.345)" fill="url(#h)"/><path d="M280.903 166.262a4.8 4.8 0 01-4.426 5.018L53.611 181.371a5.818 5.818 0 01-6.309-5.308l-4.1-119.93 1.2-14.025c-.106-3.089 1.262-4.75 4.641-4.611l223.715 8a5.154 5.154 0 014.734 5.023z" fill="#fff"/><path d="M2170.256 492.23l-.369-12.476a5.153 5.153 0 00-4.734-5.023l-224.087-9.225c-3.379-.139-6.068 2.274-5.962 5.363l.5 14.495z" transform="translate(-1892.402 -429.231)" fill="url(#i)"/><path d="M58.082 46.891a2.677 2.677 0 01-2.927 2.667 3.162 3.162 0 01-3.127-2.879 2.678 2.678 0 012.938-2.667 3.162 3.162 0 013.116 2.879zm12.993.453a2.645 2.645 0 01-2.882 2.647 3.123 3.123 0 01-3.079-2.856 2.646 2.646 0 012.893-2.647 3.122 3.122 0 013.068 2.856zm12.792.451a2.614 2.614 0 01-2.838 2.627 3.084 3.084 0 01-3.031-2.833 2.615 2.615 0 012.848-2.627 3.084 3.084 0 013.021 2.833z" fill="#9c73f4"/><path d="M1657.356 1035.7c-3.234 5.1-1.555 10.849.261 14.81a5.575 5.575 0 011.383.478c4.842 1.879 10.041 2.824 15.078 3.865 1.084.224 2.148.276 3.248.418l1.121.115s7.246-15.359.973-19.9-1.947-17.349-.433-24.445c4.11-19.253-17.149-20.265-13.845-45.428.879-6.692 4.793-19.162-.144-25.238-5.625-6.922-11.1-1.586-14.566-7.211-5.41-8.791-15.515-13.024-22.844-5.683-7.233 7.246-1.862 24.283 15.059 39.644 10.891 12.4 10.657 15.644 8.65 23.365-1.406 5.408-8.545 19.036-1.839 25.742s11.594 13.639 7.898 19.468z" transform="rotate(1 48010.37 -92000.421)" fill="url(#j)"/><g clip-path="url(#k)" transform="rotate(1 -5725.942 609.54)"><g fill="#fcfdfe"><path d="M44.565 129.732h-.391c.017-2.243.006-4.508-.032-6.732a236 236 0 00-5.372-47.026 189.678 189.678 0 00-11.516-35.422 158.434 158.434 0 00-13.568-24.679 126.727 126.727 0 00-11.3-14.439C1.708.692.97-.033.256-.734c-.964-.946-1.96-1.923-2.833-2.967l.3-.251c.86 1.029 1.849 2 2.806 2.939.718.7 1.46 1.433 2.145 2.183a127.14 127.14 0 0111.335 14.484 158.8 158.8 0 0113.6 24.74 190.026 190.026 0 0111.541 35.5 236.4 236.4 0 015.382 47.1c.04 2.223.05 4.492.033 6.738z"/><path d="M32.625 54.205c-4.938-15.567 4.651-41.759 4.748-42.022l.367.136c-.1.262-9.64 26.328-4.742 41.767zm9.919 44.397c-2.068-10.71-20.365-21.25-20.549-21.355l.193-.339c.186.106 18.638 10.734 20.74 21.62zm.656 6.276c-.094-7.31 3.665-17.3 10.587-28.135.151-.236.281-.44.3-.479l.149.073h.227c0 .073 0 .073-.347.616-6.881 10.77-10.618 20.686-10.525 27.92zm.948 20.749c-2.324-7.428-13.151-11.7-13.26-11.738l.141-.365c.111.043 11.112 4.376 13.492 11.986zm.602 4.209l-.367-.136c2.253-6.086 6.323-11.719 12.439-17.22l.261.291c-6.068 5.457-10.102 11.039-12.333 17.065zM16.619 20.365c-3.218-8.476-4.631-18.109-5.1-21.275-.081-.55-.144-.985-.167-1.055l.371-.123c.031.091.071.36.182 1.121.463 3.155 1.871 12.757 5.074 21.193zm7.236 12.945c-5.1-6.548-22.275-8.621-22.448-8.641l.045-.388c.713.083 17.511 2.113 22.711 8.789z"/></g></g><path d="M1621.72 1351.209c.068.03.134.062.2.089 4.87 1.879 10.041 2.824 15.078 3.865.678.14 1.362.258 2.047.361.91-2.544 1.606-6.292-1.655-7.3-5.066-1.559-5.118-10.49-3.7-13.638 1.753-3.9 5.65-13.053-2.143-15.586-6.487-2.109-11.1-2.143-11.495-10.521s-4.919-13.638-12.518-13.2c-8 .461-14.466-10.229-21.041-6.722-11.457 6.11-1.266 24.646 12.566 30.1s5.834 10.392 5.406 17.242c-.584 9.352 12.079 7.452 15.392 11.154a7.688 7.688 0 011.863 4.156z" transform="rotate(1 65225.463 -89819.293)" fill="url(#l)"/><g clip-path="url(#m)" transform="rotate(1 -9352.033 150.104)"><g fill="#fcfdfe"><path d="M47.963 65.77C42.656 38.814 24.294 14.57.043 2.49l.175-.35c24.357 12.13 42.8 36.483 48.129 63.554z"/><path d="M44.185 51.261h-.391c.049-11.017 9.495-19.538 9.59-19.622l.259.292c-.097.082-9.41 8.491-9.458 19.33zm2.663 9.557c-5.078-9.512-24.833-10.952-25.032-10.966l.027-.39c.2.013 20.171 1.471 25.35 11.172zM30.495 27.716c-3.5-8.166 1.841-20.606 1.9-20.73l.358.156c-.053.123-5.327 12.41-1.894 20.42zM18.517 14.933c-8.312-5.159-21.283-2.375-21.413-2.346l-.084-.381c.131-.03 13.258-2.846 21.7 2.395z"/></g></g><path d="M62.695 232.624l.118.634c-10.952-.268-24.118-5.778-24.246-5.834-.1-.04.142-.718.183-.814a.186.186 0 01.245-.095c.127.054 12.827 5.471 23.703 5.737a.187.187 0 01-.006.373z" fill="#5a2f71"/><path d="M1916.88 1183.9s-11.959-20.708-28.132 14.507c-12.594 27.421-4.454 57.927 24.681 66.3s74.64-8.535 60.356-20.449c-30.298-25.273-53.293-47.674-56.905-60.358z" transform="translate(-1849.381 -1017.642)" fill="url(#n)"/><path d="M1988.981 1202.58a59.034 59.034 0 00-1.806 17.818c.32 7.33-.345 11.162 11.317 16.494 4 1.828 6.762 7.626 12.882 11.076a41.013 41.013 0 0026.727 4.936 39.522 39.522 0 0020.061-9.976c-29.5-24.719-51.748-46.552-55.3-59.008 0 0-4.369-7.56-11.4-5.771a16.441 16.441 0 014.133 8.66c.791 5.485-3.995 7.483-6.614 15.771z" transform="translate(-1935.367 -1017.661)" fill="url(#o)" opacity=".35"/><path d="M1960.061 1319.906c-13.779 7.608-36.791 12.252-53.936-.482-15.874-11.79-17.289-31.536-17.818-37.562a58.547 58.547 0 014.1-27.1c-1.192 2.084-2.413 4.462-3.658 7.174-12.594 27.421-4.454 57.927 24.681 66.3 28.678 8.24 73.216-8.01 60.985-19.885a54.184 54.184 0 01-14.354 11.555z" transform="translate(-1849.381 -1081.172)" fill="url(#p)" opacity=".13"/><path d="M1988.656 1280.2q-.611 0-1.233-.014c-10.652-.238-25.605-3.776-36.358-19.279-9.082-13.1-7.867-27.872-5.248-37.963a72.917 72.917 0 017.928-18.931.232.232 0 11.39.25 72.432 72.432 0 00-7.873 18.811c-2.591 9.993-3.795 24.623 5.184 37.569 10.638 15.338 25.433 18.841 35.971 19.08a60.036 60.036 0 0020.57-3.2.232.232 0 01.166.432 60.451 60.451 0 01-19.497 3.245z" transform="translate(-1899.683 -1039.161)" fill="url(#h)"/><path d="M2524.463 1580.386c-.76-.818-2.12-4.337.362-5.06s3.883-1.648 7.319-4.4 4.319-.389-.535 4.085-6.066 6.538-7.146 5.375z" transform="translate(-2378.345 -1341.352)" fill="url(#r)"/><path d="M2510.815 1591.921l2.044 1.785a1.282 1.282 0 001.528.118.832.832 0 00.1-1.336l-2.988-2.557z" transform="translate(-2367.949 -1358.025)" fill="url(#s)"/><path d="M2154.612 1471.883c-3.612 3.164 3.927 13.54 15.971 10.177 14.595-4.076 33.157-2.244 45.669 7.943.726-.646 2.523-1.659 1.7-2.49-11.3-11.43-21.772-17.991-30.443-19.752-13.109-2.661-22.609-4.887-32.897 4.122z" transform="translate(-2072.971 -1255.174)" fill="url(#t)"/><path d="M2196.955 1476.229c2.117 1.231 2.569-1.271 3.661-2.917a41.318 41.318 0 00-13.105-5.551c-13.11-2.662-22.614-4.887-32.9 4.122-3.612 3.164 3.927 13.54 15.971 10.177a56.147 56.147 0 0113.864-1.992c3.859-2.426 7.016-7.993 12.509-3.839z" transform="translate(-2072.972 -1255.174)" fill="url(#u)" opacity=".24"/><path d="M2116.016 1486.927l-.742.283s-4.8-4.528-5.65-5.681c-1.042-1.408 10.7-5 14.514-9.694 4.007-4.935.841 5.859.841 5.859z" transform="translate(-2036.507 -1259.409)" fill="url(#v)"/><path d="M2121.674 1309.392s4.257.583 8.926 8.862c3.51 6.224 11.13 11.38 11.13 11.38l.783 4.9-6.325 1.111-2.262-1.49-6.172-13.131z" transform="translate(-2046.513 -1126.296)" fill="url(#w)"/><path d="M2023.3 1303.965s-10.494 1.294-10.719 13.37c-.208 11.144 3.813 15.461 13.678 24.753.992.934 2.6.935 2.72 1.069q.961 1.084 1.947 2.263a50.449 50.449 0 0118.785-11.343s-9.207-19.048-13.253-25.362c-4.172-6.509-10.463-5.397-13.158-4.75z" transform="translate(-1956.395 -1121.398)" fill="url(#x)"/><path d="M2040.724 1387.266c-4.43 2.37-10.708 2.1-13.017-.831-1.739-2.209-2.02-3.033-4.137-6.5-1.7-2.791-2.532-3.238-6.252-5.588a18.745 18.745 0 01-4.561-4.094 18.546 18.546 0 00-.176 2.253c-.208 11.144 3.813 15.461 13.678 24.753.992.934 2.6.935 2.72 1.069q.961 1.084 1.947 2.264a50.447 50.447 0 0118.785-11.343s-1.528-3-3.552-7.209a11.928 11.928 0 01-5.435 5.226z" transform="translate(-1956.395 -1176.567)" fill="url(#y)" opacity=".2"/><path d="M77.094 211.053a9.679 9.679 0 003.4-.477 7.688 7.688 0 012.922-.906c1.581-.2 4.693-1.139 2.931-2.742-1.961-1.784-5.324-1.284-6.29-.1a8.034 8.034 0 01-2.546 1.867z" fill="#fdb647"/><path d="M2014.244 1340.629s-5.829.679-2.427 19.448c1.764 9.734 10.483 8.364 21.012 4.342.713-1.491-.2-4.651-.2-4.651s-13.081 5.394-13.419-2.475c-.385-8.823-1.566-17.593-4.966-16.664z" transform="translate(-1954.89 -1152.042)" fill="url(#z)"/><path d="M69.348 186.582a10.233 10.233 0 01-5.163-1.94.116.116 0 11.138-.187c.033.025 3.358 2.445 6.044 1.776a2.132 2.132 0 001.505-1.073 3.163 3.163 0 00-.072-2.317.116.116 0 11.212-.093 3.341 3.341 0 01.069 2.511 2.355 2.355 0 01-1.658 1.2 4.425 4.425 0 01-1.075.123z" fill="#9f73f8"/><path d="M73.056 221.396a.116.116 0 01-.077-.2c.094-.085 9.493-8.5 17.979-10.573a.118.118 0 01.14.085.116.116 0 01-.085.14c-8.43 2.061-17.785 10.436-17.879 10.52a.115.115 0 01-.078.028z" fill="#ae87f9"/><path d="M2058.189 1264.406s1.488 6.021 1.191 7.252 1.463 2.57 4.551 2.707-.332-6.185-.332-6.185z" transform="translate(-1994.074 -1089.137)" fill="url(#aa)"/><path d="M2054.957 1199.917c1.923-3.177-.521-7.751-4.515-6.166-2.724 1.081-4.452.316-6.255.982-3.212 1.186-2.863 3.469-2.122 5.792.645 4.606.62 6.423 5.548 9.115 1.877-6.521 4.998-5.846 7.344-9.723z" transform="translate(-1980.341 -1030.508)" fill="url(#ab)"/><path d="M2050.4 1240.113a6.782 6.782 0 005.957 3.038c3.974-.243 2.843-9.375 1.844-9.894-1.159-.6-2.782.171-5.423-.249-1.112-.177-2.139-1.477-2.612.015a11.545 11.545 0 00-.14 4.266s-1.225-1.061-1.845.066c-.499.908.329 2.075 2.219 2.758z" transform="translate(-1985.691 -1062.629)" fill="url(#ac)"/><path d="M2054.772 1225.147s-.189 5.446 1.16 7.134c.614 1.059-.183 1.083-.854.3a13.108 13.108 0 01-1.4-3.28z" transform="translate(-1990.35 -1056.709)" fill="url(#ad)"/><path d="M2063.989 1192.387h-.026a.109.109 0 01-.012-.217h.008c.179-.011 3.646-.244 4.4-1.687a.109.109 0 01.193.1c-.801 1.533-4.204 1.782-4.563 1.804z" transform="translate(-1998.748 -1028.029)" fill="url(#ae)"/><path d="M78.492 213.575a.253.253 0 00-.208.174c0 .013.034.489.032.5a.24.24 0 00.165.247l8.924 2.9 16.677-6.531-7.924.606z" fill="#26264f"/><path d="M78.487 213.51a.239.239 0 00-.039.463l8.924 2.9 16.677-6.531-7.924.606z" fill="#444b8c"/><path d="M2189.588 1402.7l1.329-17.4a.6.6 0 01.508-.55l19.971-3.126a.6.6 0 01.7.623l-.75 16.215a.6.6 0 01-.492.565l-20.747 3.841z" transform="translate(-2102.611 -1185.962)" fill="url(#af)"/><path d="M87.404 217.399l1.371-17.78a.6.6 0 01.508-.549l19.971-3.126a.6.6 0 01.7.624l-.75 16.217a.6.6 0 01-.49.564z" fill="#26264f"/><path d="M87.404 217.398l21.306-4.05a.6.6 0 00.49-.565l.226-4.891c-6.347 3.6-14.3 4.063-21.714 5.509z" fill="#1f1f44"/><path d="M2397.984 1467.214c-.292-1.011-.936-2.129 1.363-2.944a30.35 30.35 0 017.2-.917c3.69-.189 4.539 2.019-.854 3.423-3.533.924-7.293 1.877-7.709.438z" transform="translate(-2274.493 -1253.461)" fill="url(#ag)"/><path d="M2407.341 1472.073a.982.982 0 01-.8 1.077c-1.092.156-.887-.406-.922-.972s-.476-.959.8-1.077a.946.946 0 01.922.972z" transform="translate(-2280.974 -1259.868)" fill="url(#ah)"/><path d="M2351.575 1457.188l1.078-.17a55.144 55.144 0 017.887 1.792c1.239.206 2.928 3.821-.7 3.963s-8.048 2.845-8.048 2.845z" transform="translate(-2236.414 -1248.237)" fill="url(#ai)"/><path d="M2134.773 1473.676s.529 4.692 11.438 4.265 30.4-11.753 30.277-17.7-7.375-3.569-14.885-.134c-6.338 2.9-16.128 4.579-18.135 4.89-2.568.403-9.315 6.425-8.695 8.679z" transform="translate(-2057.3 -1247.903)" fill="url(#aj)"/><path d="M2173.885 1467.989c5.05-.514 6.184-4.138 12.468-5.186 4.072-.679 5.51.524 7.586-.867a7.6 7.6 0 002.878-5.089c-2.785.236-6.544 1.7-10.376 3.458-6.156 2.816-15.568 4.481-17.943 4.86-.071.011-1.663-.558-1.663-.558s-1.185.677-2.034 1.212a18.427 18.427 0 009.084 2.17z" transform="translate(-2082.137 -1248.096)" fill="url(#ak)" opacity=".2"/><path d="M2620.269 769.755l-1.436-1.436a3.654 3.654 0 01-.359-3.365c.718-1.974 1.7-1.436 1.7-1.436l-.269 1.391a2.723 2.723 0 00.673 2.019 7.273 7.273 0 01.9 2.378z" transform="translate(-2477.464 -665.16)" fill="url(#al)"/><path d="M2972.347 812.228l1.615-1.465.718-2.662s1.974.778.9 3.29c-.688.837-2.377 2.093-3.1 3.32s-.133-2.483-.133-2.483z" transform="translate(-2769.786 -702.04)" fill="url(#am)"/><path d="M2860.661 847.406s7.746-4.785 9.63-6.49a84.263 84.263 0 007.582-9.421c.448-.808-1.391-2.423-1.391-2.423s-9 11.245-20.308 7.926c1.796 4.037 4.487 10.408 4.487 10.408z" transform="translate(-2674.011 -719.362)" fill="url(#an)"/><path d="M2888.406 1312.545s1.421 3.574 1.047 5.159a16 16 0 002.512-.224 17.257 17.257 0 01-.733-2.437 23.974 23.974 0 01-.149-2.856z" transform="translate(-2700.634 -1118.42)" fill="url(#ao)"/><path d="M172.112 202.484a1.125 1.125 0 01.268.657 1.065 1.065 0 01-.081.44c-.242.637-.623.721-1.033 1.4-.251.413-.2.538-.433.724a1.507 1.507 0 01-.987.264 17.549 17.549 0 01-2.282-.129q.765-.986 1.629-2 .379-.443.757-.866l1.5-.507z" fill="#26264f"/><path d="M2777.715 1320.463s-.857 4.471.233 5.723c.929 1.252-.449.359-.449.359l-1.645 1.435-.987 1.705s.908-4.376.666-6.113-.364-2.908-.364-2.908z" transform="translate(-2606.851 -1125.257)" fill="url(#ap)"/><path d="M2657.8 805.446c-4.171-.7-10.144 1.408-17.048-2.243a37.06 37.06 0 01-13.145-12.292l-3.049 1.508c1.727 2.98 5.793 9.365 11.181 13.81 6.783 5.6 13.42 5.923 17.035 10.493 1.699-1.685 7.058-10.932 5.026-11.276z" transform="translate(-2482.692 -687.84)" fill="url(#aq)"/><path d="M2761.734 1035.194s-2.3 2.059-2.3 10.54 1.091 26.9 1.091 26.9l1.745 13.185a11.54 11.54 0 003.021-.3c1.09-4.967 2.867-13.37 2.019-20.4-.363-7.633 3.029-17.2 3.029-17.2s2.908 9.692 4.968 14.538 5.98 20.028 6.344 21.118a5.97 5.97 0 003.439-.419s-1.545-16.338-3-22.517-1.333-21.081-3.756-25.321c-5.454-2.183-16.6-.124-16.6-.124z" transform="translate(-2594.1 -888.894)" fill="url(#ar)"/><path d="M2761.734 1035.194s-2.3 2.059-2.3 10.54 1.091 26.9 1.091 26.9l1.745 13.185a11.54 11.54 0 003.021-.3c1.09-4.967 2.867-13.37 2.019-20.4-.363-7.633 3.029-17.2 3.029-17.2s2.908 9.692 4.968 14.538 5.981 20.028 6.344 21.118a5.97 5.97 0 003.439-.419s-1.545-16.338-3-22.517-1.333-21.081-3.756-25.321c-5.454-2.183-16.6-.124-16.6-.124z" transform="translate(-2594.1 -888.894)" fill="url(#as)"/><path d="M2773.692 1050.734c.718 4.666 2.154 7.178 5.742 10.408 2.871 2.154.718 6.819 1.794 10.408.359 1.077 1.435 2.153 1.794 3.23 1.336 2.671.088 5.938.694 8.766a3.831 3.831 0 001.369-.392s-1.545-16.338-3-22.517-1.333-21.081-3.756-25.321c-5.452-2.181-16.6-.121-16.6-.121s-2.3 2.059-2.3 10.54c0 .688.008 1.443.021 2.246a8.728 8.728 0 0010.292.241 1.42 1.42 0 01.576-.261l.016-.045.012.042c1.374-.251 3.034 1.531 3.346 2.776z" transform="translate(-2594.1 -888.894)" opacity=".25" fill="url(#at)" style="mix-blend-mode:multiply;isolation:isolate"/><path d="M188.445 200.644s-.354 0-.325.458-.159 2.031 1.641 2.1a5.509 5.509 0 002.136-.128 14.719 14.719 0 00-.472-1.5l-.575-.737-1.549-.162z" fill="#26264f"/><path d="M192.431 202.219a5.7 5.7 0 00-.465-1.459c-.318-.715-.057-.982-.361-1.634a1.938 1.938 0 00-.429-.65 1.859 1.859 0 00-1.271-.484 1.285 1.285 0 00-.6.14 1.4 1.4 0 00-.539.568 6.315 6.315 0 00-.434 1.286 3.231 3.231 0 00-.113.438 3.071 3.071 0 00-.047.393 8.408 8.408 0 012.67.354 1.5 1.5 0 01.575 1.225c0 .472.236.693.472.678a.774.774 0 00.542-.855zm-21.796-1.918c.405.006.7.329.927 1.107s1.3 1.465.045 1.3-2.168 1.615-2.617 2.273-1.653 1.243-1.623.6.561-.943.711-1.6 1.632-3.695 2.557-3.68z" fill="#444b8c"/><path d="M2773.1 872.435c-2.034-.06-7.209-.625-9.631 1.794-2.475 2.474.031 5.444-.415 9.521-.3 2.764-.194 4.393-.719 8.912a27.934 27.934 0 01-.573 3.2c-.691 2.946-1.893 8.739-2.54 10.186a24.133 24.133 0 0013.778 2.026 21.488 21.488 0 006.866-2.261 31.935 31.935 0 01-.731-14.308 51.471 51.471 0 014.889-13.776c.94-1.93-1.292-.849-2.722-2.542-2.202-2.597-6.147-2.687-8.202-2.752z" transform="translate(-2593.93 -755.099)" fill="url(#au)"/><path d="M2723.915 901.434a7.609 7.609 0 00-.539-4.262 6.547 6.547 0 00-1.435-1.974c-1.8-1.656-4.132-1.547-6.789-1.737a41.337 41.337 0 01-8.162-1.442c5.1 3.2 9.857 4.189 12.972 7.225a9.158 9.158 0 01-.052.765c-.3 2.764-.194 4.393-.719 8.912a27.976 27.976 0 01-.573 3.2c-.691 2.946-1.894 8.739-2.54 10.186a24.134 24.134 0 0013.771 2.022 21.487 21.487 0 006.865-2.262 24.438 24.438 0 01-1.01-4.917 20.658 20.658 0 01-9.278-2.171c-1.971-1-2.957-1.5-3.544-2.6-1.127-2.116.243-4.088 1.033-10.945z" transform="translate(-2550.783 -771.357)" opacity=".25" fill="url(#av)" style="mix-blend-mode:multiply;isolation:isolate"/><path d="M2814.158 811.251a6.547 6.547 0 012.483-4.039c1.641-1.3 1.975-1.436 2.539-1.543l.77-.117h.084a7.659 7.659 0 012.046.727c.785.552.207 4.458-2.171 9.315l-.28 1.234c2.072.364 2.585.738 2.6 1.037.036.647-2.234 1.471-4.337 1.525-2.637.067-5.436-1.067-5.383-1.914.022-.343.519-.766 2.434-1.181l.9-1.262c-.273-.324-1.902-2.108-1.685-3.782z" transform="translate(-2637.942 -699.934)" fill="url(#aw)"/><path d="M2837.283 793.472a3.576 3.576 0 00-.786 3.226c.146.605.336.669.309 1.066-.076 1.114-2.1 1.6-1.991 2.16.081.4 1.136.254 1.318.757.2.551-.96 1.026-1.458 2.412-.078.216-.549 1.528.056 2.3.565.721 1.828.55 3.254.365a11.415 11.415 0 003.029-.813 7.523 7.523 0 003.085-2.076 6.321 6.321 0 001.4-4.151 6.532 6.532 0 00-5.189-5.918 3.606 3.606 0 00-3.027.672z" transform="translate(-2656.046 -689.336)" fill="url(#ax)"/><path d="M2834.905 832.957c.6-.358 1.054.412.772 1.084a1.329 1.329 0 01-1.8.692c-.577-.4.223-1.294 1.028-1.776z" transform="translate(-2655.429 -722.496)" fill="url(#ay)"/><path d="M2806.066 871.292l1.459-.449s.381 1.974 5.069 2.221a7 7 0 004.284-1.458l1.122.516a7.933 7.933 0 01-5.787 2.871 6.976 6.976 0 01-6.147-3.701z" transform="translate(-2632.621 -753.865)" fill="url(#az)"/><path d="M219.977 116.285a.776.776 0 00-.536.98l4.423 14.08a.776.776 0 00.957.512l10.272-3a.775.775 0 00.529-.956l-3.982-14.012a.775.775 0 00-.95-.536z" fill="#26264f"/><path d="M1988.325 1472.424a.692.692 0 00-.478.874l3.945 12.556a.691.691 0 00.853.457l9.16-2.672a.692.692 0 00.472-.853l-3.552-12.5a.691.691 0 00-.847-.478z" transform="translate(-1767.531 -1355.454)" fill="url(#ba)"/><path d="M222.164 117.669a.535.535 0 00-.371.672l1.248 4.1a.536.536 0 00.651.361l7.31-1.961a.535.535 0 00.376-.661l-1.16-4.157a.536.536 0 00-.657-.373zm1.853 6.534a.553.553 0 00-.383.694l1.288 4.226a.553.553 0 00.672.372l7.542-2.023a.552.552 0 00.389-.682l-1.2-4.289a.552.552 0 00-.677-.385z" fill="#f4f7fa" opacity=".75"/><path d="M2664.154 1611.387c.578.218 9.392 3.724 11.2 12.923.146.743 1.563 8.647-3.8 14.23-6.01 6.261-17.583 6.105-22.177.872a9.39 9.39 0 01-1.953-3.71l1.21-3.216a7.882 7.882 0 014.562-2.47c2.647-.653 4.646.527 6.163-.75a3.993 3.993 0 001.155-2.631c.507-3.094-1.239-5-1.366-6.905-.1-1.426-.594-4.551 1.267-6.588a6.01 6.01 0 013.739-1.755z" transform="translate(-2384.402 -1487.878)" fill="url(#bb)"/><path d="M2958.471 3183.406c.1-.566 1.932-1.079 2.837-.32.449.377.759 1.14.5 1.485-.095.125.293.346-.078.351-1.23.014-3.361-.953-3.259-1.516z" transform="translate(-2675.285 -2957.375)" fill="url(#bc)"/><path d="M2976.135 3129.521l1.881-.266c-.871-1.049-.71-4.391-.71-4.391l-2 .447s.228.917.615 2.27a8.891 8.891 0 01.214 1.94z" transform="translate(-2691.033 -2903.283)" fill="url(#bd)"/><path d="M2985.064 3189.465s2.264-.522 2.509-.072.436 1.652-1 1.613-1.637-1.16-1.509-1.541z" transform="translate(-2700.127 -2963.459)" fill="url(#be)"/><path d="M2560.079 3219.153c.181-.546 2.063-.8 2.854.08.393.436.592 1.235.287 1.54-.111.111.242.384-.127.336-1.222-.158-3.193-1.409-3.014-1.956z" transform="translate(-2302.701 -2990.999)" fill="url(#bf)"/><path d="M2011.575 1665.667l-1.719-.823a3.8 3.8 0 01-.986-1.173 4.49 4.49 0 01-.495-1.992s-.078-1.391.512-1.627a.5.5 0 01.27-.024l.612 1.61s.1.7 1.2 1.428a6.816 6.816 0 011.537 1.826z" transform="translate(-1786.757 -1533.36)" fill="url(#bg)"/><path d="M2585.742 3169.429h1.9c-.716-1.161-.089-4.447-.089-4.447l-2.043.162s.1.94.292 2.334a8.884 8.884 0 01-.06 1.951z" transform="translate(-2326.495 -2940.802)" fill="url(#bh)"/><path d="M254.32 156.793a87.842 87.842 0 00-2.946 13.48c-2.308 16.784 2.6 17.319 1.681 35.918-.293 5.937 5.143 19.626 5.622 19.929a5.869 5.869 0 00.752.029 7.481 7.481 0 001.915-.319c.861-.148 3.965-8.557 3.246-13.556-.509-3.539-.361-7.336-.066-14.931.047-1.231 3.2-23.942 3.2-23.942a371.705 371.705 0 003.014 21.088c3.068 17.793 13.043 28.562 13.563 28.735a2.107 2.107 0 001.8-.123 1.245 1.245 0 00.457-.514c.267-.209-.079-17.763-3.121-30.976-4.417-19.176-2.493-23.663-3.892-32.229-1.208-7.412-25.225-2.589-25.225-2.589z" fill="#353b79"/><path d="M2501.078 1585.516c-2.932-.086-8.611-1.044-12.323 2.3a15.35 15.35 0 00-.739.826 24.264 24.264 0 00-2.62 3.761 25.245 25.245 0 00-2.2 5.448 46.825 46.825 0 00-1.739 9.506c-.678 8.924-.006 13.041.6 15.84a30.885 30.885 0 0017.621 2.588 27.5 27.5 0 008.785-2.894c-2.112-6.395-.455-9.816.327-12.97 1.115-4.5 1.132-4.157 2.051-7.73 1.514-5.894 1.762-11.918.722-13.15-2.805-3.328-7.863-3.448-10.485-3.525z" transform="translate(-2228.916 -1463.504)" fill="url(#bi)"/><path d="M2512.312 1597.483a10.086 10.086 0 00-6.024-3.128c1.015 4.53-1.291 10.078-4.419 13.023-2.92 2.748-5.605.923-7.54 3.214-1.6 1.892-1.65 4.967-.844 7.075 1.09 2.852 3.442 3.129 3.32 4.739-.162 2.134-4.452 3.722-7.608 4.019a13.746 13.746 0 01-7.227-1.364 36.56 36.56 0 00.837 6.577 30.885 30.885 0 0017.621 2.588 27.5 27.5 0 008.784-2.894c-2.112-6.395-.455-9.816.327-12.97 1.115-4.5 1.133-4.157 2.05-7.73 1.511-5.894 1.763-11.917.723-13.149z" transform="translate(-2229.664 -1471.95)" opacity=".13" fill="url(#bj)" style="mix-blend-mode:multiply;isolation:isolate"/><path d="M2585.953 3229.106s2.315-.2 2.495.279.2 1.7-1.218 1.457-1.457-1.377-1.277-1.736z" transform="translate(-2326.839 -3000.732)" fill="url(#bk)"/><path d="M2052.706 1598.929c-3.207-2.087-11.593 4.451-14.131 6.254-9.844 6.991-8.664 11.352-13.135 9.175-3.023-1.472-3.434-5.909-8.6-7.578a11.053 11.053 0 00-2.205-.469c-.007 0-1.706.908-1.713.91a3.841 3.841 0 00-1.714.91 13.407 13.407 0 00-1.181 3.753 19.434 19.434 0 00.386 2.425c.194.862 2.464 10.3 10.353 13.2a13.969 13.969 0 003.261.761c2.592.314 4.942-.07 8.959-1.454 6.8-2.345 12-4.544 16.593-9.92a7.267 7.267 0 00.572-.778c3.416-5.236 5.649-15.175 2.555-17.189z" transform="translate(-1788.302 -1475.847)" fill="url(#bl)"/><path d="M2634.925 1437.613a5.094 5.094 0 01-.412-3.669c.382-1.587.524-1.828.818-2.164l.417-.44.053-.038a5.958 5.958 0 011.6-.535c.746-.038 2.263 2.637 3.132 6.758q.106.221.21.446c.431.935.8 1.854 1.118 2.751 5.039.426 5.739 1.018 5.761 1.359.047.719-2.825 1.549-4.984 1.866-4.709.69-9.551-.553-9.529-1.431.009-.382.945-.881 4.938-1.4l-.28-1.982c-.319-.076-2.173-.39-2.842-1.521z" transform="translate(-2371.015 -1318.962)" fill="url(#bm)"/><path d="M262.963 111.618a4.9 4.9 0 001.651 2.58 2.162 2.162 0 01.59.376.683.683 0 01.111.13c.487.72-.526 1.99-.187 2.28.245.211 1.011-.363 1.172-.167s-.445.808-.269 1.029c.133.167.525-.123.879.094.176.108.167.233.43.636a4.135 4.135 0 00.468.6c.632.623 1.936.565 2.094.206.044-.1-.031-.154-.037-.449a2.293 2.293 0 01.093-.617 5.952 5.952 0 011.179-1.571 4.225 4.225 0 001.084-2.187c.01-.094.014-.163.017-.214a4.847 4.847 0 00-.951-3.1c-1.073-1.218-2.472-.131-4.133-1.178-1.917-1.208-1.615-3.639-2.488-3.666-.963-.034-2.331 2.888-1.703 5.218z" fill="#26264f"/><path d="M2682.771 1500.252c.2-.506.844-.252.993.3a1.035 1.035 0 01-.775 1.289c-.544.025-.481-.907-.218-1.589z" transform="translate(-2417.269 -1383.689)" fill="url(#bn)"/><path d="M265.507 115.579l-.467 1.122s-.468 1.347-1.085.842c-.5-.413-.6-.376-.614-.349v.012s-.013-.268-.019-.505a4.319 4.319 0 00-.261 1.478 2.408 2.408 0 00.486 1.8 1.849 1.849 0 001.272.542 4.89 4.89 0 001.347-.505 6.5 6.5 0 01-1.534-.767c-.2-.559.508-1.081.785-2.413a4.889 4.889 0 00.09-1.257z" fill="#26264f"/><g transform="translate(-.001)" filter="url(#bo)"><circle cx="22.893" cy="22.893" r="22.893" transform="translate(96.55 18.06)" fill="#fff"/></g><g filter="url(#bq)"><circle cx="20.165" cy="20.165" r="20.165" transform="translate(151.79 6)" fill="#fff"/></g><path d="M161.293 26.198l5.828-3.039v1.295a.511.511 0 01-.074.269.6.6 0 01-.243.21l-2.671 1.369a2.438 2.438 0 01-.357.151c-.125.042-.259.08-.4.114.142.034.276.073.4.115a2.437 2.437 0 01.357.151l2.671 1.376a.6.6 0 01.243.21.51.51 0 01.074.268v1.3l-5.828-3.047zm9.119 5.351a1.079 1.079 0 01-.169.294 1 1 0 01-.235.21 1.112 1.112 0 01-.279.128.989.989 0 01-.287.044h-.765l4.3-10.994a1.035 1.035 0 01.361-.474.961.961 0 01.567-.166h.773zm5.777-1.568v-1.3a.507.507 0 01.073-.268.594.594 0 01.243-.21l2.671-1.376a3.5 3.5 0 01.758-.265q-.214-.051-.4-.114a2.425 2.425 0 01-.357-.151l-2.671-1.369a.594.594 0 01-.243-.21.509.509 0 01-.073-.269v-1.295l5.828 3.039v.736z" fill="#91b3fa"/><path d="M113.362 37.539l-2.158 5.85h-1.315l-1.512-4.031-1.536 4.031h-1.313l-2.147-5.85h1.293l1.545 4.312 1.61-4.312h1.15l1.578 4.339 1.584-4.339zm9.959 0l-2.158 5.85h-1.315l-1.512-4.031-1.534 4.031h-1.315l-2.146-5.85h1.293l1.543 4.312 1.611-4.317h1.153l1.578 4.339 1.589-4.339zm9.959 0l-2.159 5.85h-1.314l-1.512-4.031-1.534 4.031h-1.315l-2.147-5.85h1.293l1.549 4.312 1.611-4.317h1.15l1.578 4.339 1.589-4.339zm1.019 5.927a.875.875 0 01-.635-.257.874.874 0 01-.263-.652.879.879 0 01.257-.657.88.88 0 01.641-.252.88.88 0 01.641.252.879.879 0 01.257.657.874.874 0 01-.263.652.875.875 0 01-.636.257zm2.728 0a.875.875 0 01-.635-.257.874.874 0 01-.263-.652.879.879 0 01.257-.657.88.88 0 01.641-.252.88.88 0 01.641.252.879.879 0 01.257.657.874.874 0 01-.263.652.875.875 0 01-.636.257zm2.739 0a.875.875 0 01-.635-.257.874.874 0 01-.263-.652.879.879 0 01.257-.657.88.88 0 01.641-.252.88.88 0 01.641.252.879.879 0 01.257.657.874.874 0 01-.263.652.875.875 0 01-.636.257z" fill="#5213c7" stroke="rgba(0,0,0,0)"/><g fill="#5213c7"><path d="M82.669 76.635v.012a6.464 6.464 0 108.9 5.988h-2.446a4.01 4.01 0 11-6.843-2.838c.093-.093.191-.181.292-.264l.015-.013 1.723-1.557 2.1-1.9-3.748-.634zm76.749 8.907a2.293 2.293 0 001.8-.8 3.227 3.227 0 00-.009-4.06 2.4 2.4 0 00-3.581 0 3.272 3.272 0 00-.012 4.068 2.3 2.3 0 001.807.792m-35.779 0h.854a2.912 2.912 0 001.316-.228.778.778 0 00.352-.724.909.909 0 00-.324-.794 2.749 2.749 0 00-1.3-.232h-.9zm0-3.948h.445a3.171 3.171 0 001.333-.207.729.729 0 00.326-.682.791.791 0 00-.306-.71 2.99 2.99 0 00-1.31-.212h-.487zm62.316 2.8a4.861 4.861 0 001.17 1.007 2.24 2.24 0 001.124.326 1.258 1.258 0 00.831-.27.825.825 0 00.316-.665.878.878 0 00-.269-.691 4.186 4.186 0 00-1.329-.534 4.714 4.714 0 01-2.12-1.055 2.521 2.521 0 01-.635-1.806 3.163 3.163 0 01.989-2.407 3.583 3.583 0 012.552-.929 5.534 5.534 0 011.593.225 5.21 5.21 0 011.43.685l.068.046-.94 2.152-.1-.086a3.49 3.49 0 00-.925-.579 2.417 2.417 0 00-.925-.193 1.191 1.191 0 00-.735.215.627.627 0 00-.268.523.645.645 0 00.232.524 3.017 3.017 0 001 .408l.122.035a5.5 5.5 0 012.234 1.015 2.543 2.543 0 01.562.917 3.456 3.456 0 01.189 1.175 3.413 3.413 0 01-1.074 2.624 4.054 4.054 0 01-2.849.992 5.035 5.035 0 01-1.937-.361 5.454 5.454 0 01-1.675-1.132l-.057-.055 1.337-2.206zm-10.465-3.009q.027.252.047.5c.023.288.038.578.038.866v5.027h-2.822V77.599h2.772l3.8 5.172a6.778 6.778 0 01.362.642c.1.19.2.382.29.575a16.28 16.28 0 01-.046-.5 10.884 10.884 0 01-.038-.866v-5.026h2.808V87.77h-2.759l-3.8-5.19a5.084 5.084 0 01-.374-.644q-.147-.275-.284-.559zm-8.371 6.4V77.599h2.947v10.174zm-2.27-5.066a5.271 5.271 0 01-.4 2.054 5.161 5.161 0 01-1.174 1.716 5.5 5.5 0 01-1.776 1.156 5.461 5.461 0 01-5.908-1.156 5.215 5.215 0 010-7.541 5.419 5.419 0 013.836-1.561 5.506 5.506 0 012.083.4 5.4 5.4 0 011.764 1.156 5.2 5.2 0 011.576 3.771zm-12.473-4.68v3.293l-.173-.193a4.006 4.006 0 00-1.086-.887 2.439 2.439 0 00-1.142-.279 2.346 2.346 0 00-1.824.768 2.9 2.9 0 00-.7 2.019 2.7 2.7 0 00.713 1.92 2.368 2.368 0 001.811.759 2.447 2.447 0 001.142-.278 3.93 3.93 0 001.085-.889l.173-.194v3.294l-.055.027a6.522 6.522 0 01-1.306.479 5.5 5.5 0 01-1.318.159 5.7 5.7 0 01-1.534-.2 4.478 4.478 0 01-1.3-.6 5.142 5.142 0 01-1.735-1.923 5.629 5.629 0 01-.6-2.608 5.718 5.718 0 01.379-2.118 5.249 5.249 0 011.139-1.733 4.791 4.791 0 011.631-1.113 5.333 5.333 0 012.014-.368 5.525 5.525 0 011.318.159 6.559 6.559 0 011.306.479zm-14.159 2.128h-2.233v-2.556h7.384v2.556h-2.233v7.618h-2.919zm-7.071 7.618V77.599h2.947v10.174zm-4.122-5.5a2.333 2.333 0 011.293.716 2.667 2.667 0 01.626 1.843 2.948 2.948 0 01-.35 1.45 2.425 2.425 0 01-1 .979 4.057 4.057 0 01-1.289.4 16.924 16.924 0 01-2.466.118h-2.918V77.599h2.836a15.864 15.864 0 012.376.111 3.629 3.629 0 011.186.385 2.212 2.212 0 01.88.859 2.491 2.491 0 01.3 1.239 2.115 2.115 0 01-.456 1.418 2.5 2.5 0 01-1.025.658zm-34.811-6.68l4.815-4.815a4.931 4.931 0 016.953 0l8.154 8.154a4.931 4.931 0 010 6.953l-8.154 8.154a4.931 4.931 0 01-6.953 0l-4.2-4.2h9.708a4.427 4.427 0 001.734-.338 4.656 4.656 0 001.408-.908 4.309 4.309 0 00.955-1.315 3.686 3.686 0 00.349-1.583 3.341 3.341 0 00-.512-1.816 4.014 4.014 0 00-1.374-1.327 3.607 3.607 0 001.048-1.234 3.4 3.4 0 00.373-1.582 3.7 3.7 0 00-.349-1.572 4.248 4.248 0 00-.954-1.326 4.67 4.67 0 00-1.408-.908 4.423 4.423 0 00-1.734-.337h-9.859z" fill-rule="evenodd"/><path d="M102.54 87.243a1.618 1.618 0 001.175-.466 1.6 1.6 0 000-2.281 1.618 1.618 0 00-1.175-.466h-4.425v3.213zm-.466-5.819a1.617 1.617 0 001.175-.466 1.6 1.6 0 000-2.281 1.617 1.617 0 00-1.175-.466h-3.959v3.212z"/><path d="M77.467 89.103h-2.454v-7.967a5.793 5.793 0 01-3.783 1.5h-.142v-2.453c2.13-.156 3.47-1.362 3.925-3.743v-.261h2.454zm15.364-.464a6.465 6.465 0 003.917-4.846v-.012l.023-.14v-.009l.016-.11.007-.047c0-.032.007-.065.012-.1l.008-.069.005-.065c0-.033.007-.066.009-.1v-.051c0-.038.005-.077.007-.116v-.634c0-.046 0-.092-.008-.139v-.005a6.464 6.464 0 00-12.912.443h2.453a4.01 4.01 0 116.843 2.839 4.095 4.095 0 01-.293.265l-.015.013-1.723 1.557-2.1 1.9 3.748.633v-1.21z" fill-rule="evenodd"/></g></svg>