<svg xmlns="http://www.w3.org/2000/svg" width="32" height="32"><path d="M16 32A16 16 0 100 16a16 16 0 0016 16z" fill="#48b254"/><path d="M22.681 7.368l.945.858-11.932 6.812-5.776-3.325.54-1.073 5.236 2.977 10.987-6.25zM20.279 6l1.268.644-9.853 5.632-4.588-2.6.782-.938 3.806 2.172L20.28 6zm4.184 3.111l.7.939-13.47 7.7-6.505-3.7.3-1.18 6.208 3.54 12.769-7.3zm1.943 3.46A10.284 10.284 0 0127 16.057a10.743 10.743 0 01-.594 3.54l-.27.725a11.142 11.142 0 01-2.348 3.486 10.85 10.85 0 01-3.51 2.307 10.844 10.844 0 01-4.291.885 10.729 10.729 0 01-4.293-.885 11.342 11.342 0 01-3.482-2.307 10.568 10.568 0 01-2.348-3.486A10.946 10.946 0 015 16.057v-.724l6.694 3.782 14.118-8.046.594 1.5z" fill="#fff" fill-rule="evenodd"/></svg>