<svg xmlns="http://www.w3.org/2000/svg" width="47.413" height="47.419"><defs><linearGradient id="a" y1=".5" x2="1" y2=".5" gradientUnits="objectBoundingBox"><stop offset="0" stop-color="#9dd6fc"/><stop offset="1" stop-color="#d17ff7"/></linearGradient></defs><path d="M46.727.388a1.851 1.851 0 00-1.891-.226L1.122 19.713a1.858 1.858 0 00-.27 3.233L15.4 32.628v12.938a1.852 1.852 0 003.346 1.1l5.817-7.935 12.594 8.382a1.852 1.852 0 002.853-1.233l7.409-43.718a1.852 1.852 0 00-.692-1.774zM19.1 39.907v-4.813l2.371 1.578zm17.729 2.537L20.164 31.348 36.339 15.3a1.852 1.852 0 00-2.609-2.63L17.016 29.253 5.7 21.723 43.187 4.957z" transform="translate(-.031)" fill="url(#a)"/></svg>