<svg xmlns="http://www.w3.org/2000/svg" width="32" height="32"><g fill="#fff" stroke="#fcfcfc"><circle cx="16" cy="16" r="16" stroke="none"/><circle cx="16" cy="16" r="15.5" fill="none"/></g><path d="M29.055 15.386l.353-1.122-1.167.036a2.761 2.761 0 01-1.511-.521c.052.005.1.012.157.012a1.882 1.882 0 001.686-1.041l.5-1.106a9.17 9.17 0 01-1.2-.071 1.874 1.874 0 01-.983-.591 1.863 1.863 0 00-1.346-.584 1.946 1.946 0 00-.588.093 2.083 2.083 0 00.066-.275 2.471 2.471 0 00-.51-1.824l-.877-1.08-.544 1.269a1.134 1.134 0 01-.385.447 2.355 2.355 0 00-.646-1.193 2.9 2.9 0 00-2.1-.868 2.658 2.658 0 00-.409.029l-1.058.208a3.6 3.6 0 01.429-1.013l.585-.905-1.471.167-.469-.99-.907.465-.838-.824-.837.823-.91-.465-.468.989-1.47-.167.586.905a3.557 3.557 0 01.424 1.015l-1.01-.2-.035-.006a2.674 2.674 0 00-.422-.031 2.9 2.9 0 00-2.093.868 2.355 2.355 0 00-.64 1.193 1.116 1.116 0 01-.38-.436l-.545-1.276-.895 1.088a2.492 2.492 0 00-.5 1.816 2.293 2.293 0 00.066.274 1.934 1.934 0 00-.587-.093 1.867 1.867 0 00-1.347.584 1.9 1.9 0 01-.97.59 6.939 6.939 0 01-1.215.072l.5 1.106a1.881 1.881 0 001.686 1.041c.054 0 .106-.007.159-.012a2.766 2.766 0 01-1.5.522l-1.189-.038.36 1.121a2.326 2.326 0 001.945 1.639 1.853 1.853 0 01-1.02 1.367l-.885.363.483.835a2.143 2.143 0 001.823.978 2.845 2.845 0 00.57-.059 6.2 6.2 0 00.175.616 2.049 2.049 0 01.035 1.368l-.437.91.976.256a2.745 2.745 0 00.676.084 2.084 2.084 0 00.478-.053 2.164 2.164 0 00.327-.1 2.931 2.931 0 00.459.614 3.535 3.535 0 002.633.961l.8-.01-1.655.683 1.257.6a16.568 16.568 0 001.549.683l-.157.426.433.2a6.827 6.827 0 002.256.467s.334.015.518.015.514-.016.514-.016a6.791 6.791 0 002.241-.466l.434-.2-.159-.427a16.757 16.757 0 001.566-.69l1.233-.6-1.65-.684.8.01a3.53 3.53 0 002.634-.962 2.965 2.965 0 00.459-.613 2.172 2.172 0 00.328.1 2.07 2.07 0 00.477.053 2.852 2.852 0 00.669-.082l.98-.258-.427-.893a2.041 2.041 0 01.027-1.385 6.369 6.369 0 00.174-.616 2.809 2.809 0 00.574.059 2.131 2.131 0 001.824-.987l.478-.826-.885-.362a1.848 1.848 0 01-1.019-1.367 2.339 2.339 0 001.954-1.632zm-15.827-7.8h-.012l.01-.013z" fill="#fff"/><path d="M15.823 7.54c-.937 0-1.64.306-1.793.665l1.793.7 1.793-.7c-.152-.355-.854-.664-1.793-.665zm.018 18.613h-.036a7.389 7.389 0 01-1.727-.221l-.453 1.219a7.992 7.992 0 004.4 0l-.452-1.219a7.347 7.347 0 01-1.732.221zm3.432-1.212a9.96 9.96 0 01-1.529.607l.368 1.007a9.21 9.21 0 001.7-.629l-.763-.253zm-6.898 0l.226.732-.764.253a9.256 9.256 0 001.7.629l.368-1.007a10.13 10.13 0 01-1.53-.607zm3.448-18.567a4.077 4.077 0 011.933.463 4.636 4.636 0 01.209-.566l-.2.024-.211.022-.089-.191-.269-.566-.491.255-.191.1-.152-.15-.534-.525-.533.525-.153.15-.191-.1-.494-.255-.266.566-.092.191-.211-.022-.2-.024a4.906 4.906 0 01.209.566 4.073 4.073 0 011.926-.463zm10.788 6.538a.855.855 0 00.278.045 1.054 1.054 0 00.919-.551 2.6 2.6 0 01-1.521-.84 1.015 1.015 0 00-.744-.334 1.184 1.184 0 00-.619.186c.951.504 1.145 1.312 1.687 1.494zm-21.852.045a.834.834 0 00.275-.045c.544-.182.739-.99 1.691-1.493a1.187 1.187 0 00-.618-.186 1.018 1.018 0 00-.746.334 2.591 2.591 0 01-1.52.84 1.05 1.05 0 00.918.55z" fill="#fff"/><path d="M26.865 16.196h.048a1.525 1.525 0 001.336-1.062h-.019a3.622 3.622 0 01-2.711-1.361 4.53 4.53 0 00-2.373-1.938l-.11-.019-.024-.111c-.03-.17.086-.328.352-.5a1.484 1.484 0 00.5-2.282 1.711 1.711 0 01-1.425 1.023h-.073a2.09 2.09 0 01-.328-.033l-.182-.035a1.449 1.449 0 00-.4-1.456 2.055 2.055 0 00-1.49-.615 1.643 1.643 0 00-.3.023c.341.442.587 1.176.193 1.628-.34.389-1.169.408-1.169.988 0 .245.231.532.646.79a6.938 6.938 0 013 3.2 2.728 2.728 0 01-1.116 3.539 1.458 1.458 0 00.8.334c.1.009.189.013.277.013a2.342 2.342 0 001.507-.463 2.606 2.606 0 01-2.659 2.118 1.09 1.09 0 00.392.821 2.1 2.1 0 00.9.319s-1.17.235-1.3 1.953a2.619 2.619 0 01-.309 1.254h.021a2.33 2.33 0 002.645-2.314 1.313 1.313 0 00.947.864 1.113 1.113 0 00.283.033 1.976 1.976 0 00.455-.057 2.821 2.821 0 010-1.994 4.693 4.693 0 00.273-1.68 1.532 1.532 0 001.273.555h.009a1.277 1.277 0 001.085-.569c-1.811-.747-1.632-3.157-1.632-3.157a1.314 1.314 0 00.678.191zm-.545 2.517a3.157 3.157 0 01-1.314-1.664 7.405 7.405 0 01-2.146 4.486 4.048 4.048 0 00-.764 1.3 3 3 0 01.6-1.314 7.678 7.678 0 002.057-4.476 5.286 5.286 0 00-.759-3.026 2.711 2.711 0 01-.7 2.861s1.863-2.219-.742-4.495a21.638 21.638 0 00-2.771-1.779c2.123.688 3.159-.07 3.159-.07a2.593 2.593 0 01-2.1.49c.147.072.3.146.467.234a6.525 6.525 0 013.672 4.756v-.017c.419 2.16 1.345 2.715 1.345 2.715zM9.219 21.118a2.081 2.081 0 00.9-.319 1.1 1.1 0 00.392-.821 2.584 2.584 0 01-2.061-.884 2.617 2.617 0 01-.6-1.234 2.34 2.34 0 001.506.463c.09 0 .182 0 .278-.013a1.463 1.463 0 00.8-.334 2.731 2.731 0 01-1.118-3.54 6.949 6.949 0 013-3.2c.415-.258.646-.544.646-.79 0-.58-.829-.6-1.168-.988-.393-.453-.146-1.187.193-1.628a1.609 1.609 0 00-.295-.023 2.054 2.054 0 00-1.489.615 1.446 1.446 0 00-.4 1.456l-.182.035a2.1 2.1 0 01-.328.033h-.072a1.707 1.707 0 01-1.425-1.022 1.484 1.484 0 00.494 2.282c.265.172.381.33.351.5l-.024.111-.112.019a4.536 4.536 0 00-2.378 1.937 3.618 3.618 0 01-2.712 1.366h-.02a1.525 1.525 0 001.336 1.062h.048a1.31 1.31 0 00.694-.191s.177 2.409-1.632 3.157a1.277 1.277 0 001.085.569h.009a1.53 1.53 0 001.273-.555 4.7 4.7 0 00.272 1.68 2.829 2.829 0 010 1.994 1.973 1.973 0 00.454.057 1.1 1.1 0 00.282-.033 1.316 1.316 0 00.946-.864 2.331 2.331 0 002.646 2.314h.019a2.624 2.624 0 01-.307-1.254c-.131-1.722-1.301-1.957-1.301-1.957zm-.436.418a7.412 7.412 0 01-2.142-4.486 3.154 3.154 0 01-1.312 1.664s.925-.555 1.341-2.715v.017a6.528 6.528 0 013.673-4.756c.164-.089.319-.164.466-.234a2.593 2.593 0 01-2.1-.49s1.036.758 3.158.07a21.643 21.643 0 00-2.77 1.779c-2.607 2.275-.742 4.495-.742 4.495a2.709 2.709 0 01-.7-2.861 5.272 5.272 0 00-.758 3.026 7.681 7.681 0 002.044 4.474 3 3 0 01.6 1.314 4.087 4.087 0 00-.758-1.297zm5.033-8.879c.045.047.088.1.13.151l.029.037c.039.052.078.106.116.162l.025.037c.046.069.088.139.131.212a1.692 1.692 0 003.151 0c.044-.075.087-.147.133-.215l.02-.029c.039-.058.079-.114.122-.169l.025-.032c.044-.054.088-.106.134-.155l.021-.021a1.626 1.626 0 01.748-.443l-.138-.08h-.008l-.551-.318-.566-.322-1.513.818-1.514-.818-.565.321-.552.318h-.006l-.14.08a1.627 1.627 0 01.749.442.064.064 0 00.019.024zm1.395-.066h1.28v.436a.542.542 0 00-.443-.145v.629a.954.954 0 00.12.444h-.633a.932.932 0 00.121-.444v-.631a.545.545 0 00-.444.145z" fill="#fff"/><path d="M15.692 11.744V9.189l-1.637-.552.432 2.476zm-.352-1.927v.41l-.079-.036a1.017 1.017 0 01-.323-.189.738.738 0 01-.342-.5zm1.821 1.297l.43-2.476-1.636.552v2.555zm-.854-1.3l.744-.311a.737.737 0 01-.343.5 1.009 1.009 0 01-.323.189l-.079.036v-.411zm-2.93 7.854a1.451 1.451 0 00.451.07c0-.012.009-.027.014-.046a.789.789 0 00.023-.09 2.551 2.551 0 00.04-.405.565.565 0 01-.215-.225.284.284 0 00-.275-.186.888.888 0 00-.417.144.724.724 0 00.379.738zm3.621-1.356c-.3.328-.9.9-.928.929l-.036.036-1.88-.029a1.886 1.886 0 01-.061.458l-.015.06 2.237.4a85.38 85.38 0 001.121-.808 1.076 1.076 0 01-.158-.793 1.135 1.135 0 01-.28-.253z" fill="#fff"/><path d="M17.252 14.065a1.924 1.924 0 01-1.424.632h-.006a1.982 1.982 0 01-.205-.011 1.631 1.631 0 01-.2-.031.756.756 0 00.033.487.771.771 0 00.471.386l.078.03v.084a.776.776 0 00.615.719c.1-.1.186-.19.251-.265a.611.611 0 01.119-.718.99.99 0 00.49 1.008l.095.044-.028.1a.786.786 0 00.5.977l.123.046-.055.119a.769.769 0 00.358 1.008h1.4v-1.1a.881.881 0 01-.76-.738.805.805 0 01-.532-.3.654.654 0 01-.038-.753.944.944 0 00.232.607.719.719 0 00.457.216l.1.009.009.1a.683.683 0 00.531.607v-2.241a2.933 2.933 0 01.226-1.022h-2.84zm-3.756 1.026l-.038 1.432.164.024.4-1.374-.2-.422zm4.416 6.574a.184.184 0 01.04.005c.249.071.312.964.749 1.044a.552.552 0 00.117.011.344.344 0 00.283-.148s-.22-.344-.384-.575c-.219-.3-.388-.67-.8-.67h-.031a.41.41 0 00-.216.072.846.846 0 00-.458-.138 3.161 3.161 0 00-.552.116l-.909-.089a.479.479 0 01-.295-.211l-.015-.024v-.072a1.068 1.068 0 00-.81-1.06s.024-.14-.031-.194l-.2.241-.658-.328.469.544-.4.443a.123.123 0 00-.023.148l.172.151.217-.131a.1.1 0 01.055-.01c.06 0 .151.015.232.015s.166-.019.175-.1c-.027.274-.283.75-.115 1.123l.124.282-.8-.115-.376.631a.5.5 0 00-.022.561l.14.175a1.339 1.339 0 00.242-.344l-.064-.07a.135.135 0 01-.018-.175l.236-.389.949.222.05-.085a.278.278 0 01.258-.138.829.829 0 01.129.012 4.12 4.12 0 00.755.081 1.086 1.086 0 00.8-.243c.344.506 1.04.587.985.844l-.183.867c.121-.005.238-.013.349-.028l.174-.9c.019-.1.038-.23.038-.23a1.674 1.674 0 01-.321-.385c-.123-.234-.056-.357-.171-.662a.158.158 0 01.114-.074zm-3.548-1.267a.081.081 0 01-.078-.087.082.082 0 01.087-.076.082.082 0 11-.009.163z" fill="#fff"/><path d="M13.069 22.486s.314-.128.343-.22l-.042-.1a.143.143 0 01.032-.182l.34-.233.567.108a.473.473 0 01-.092-.3l-.541-.114-.51.309a.491.491 0 00-.163.586zm4.01 1.468c.1 0 .213-.006.337-.006 0 0 .292-.848.308-.875a7.106 7.106 0 01-.634-.332c.086.128.3.276.255.389z" fill="#fff"/><path d="M19.857 18.927h-8.065v3.016a1.993 1.993 0 002.222 2c1.107 0 1.4.042 1.811.449a1.366 1.366 0 011-.425l.011-.046.254-.781-.43-.487a1.561 1.561 0 01-.536.064 4.4 4.4 0 01-.8-.082.357.357 0 00-.084-.009c-.036 0-.039 0-.048.02l-.051.083-.092.152-.174-.039-.774-.181-.106.174.016.018.095.1-.042.134a1.394 1.394 0 01-.3.437l-.193.206-.176-.221-.132-.165a.65.65 0 01-.094-.64.012.012 0 01-.008 0l-.219.09-.1-.212-.069-.151a.729.729 0 01.245-.885l.623-.35.593.116c.014-.057.036-.259.053-.31h-.034l-.342.126-.329-.226a.173.173 0 01-.012-.246l.319-.48-.808-1.008 1.242.507.082-.1.168-.2.19.18a.36.36 0 01.1.179 1.528 1.528 0 011.009 1.159l-.192.077v.005a.232.232 0 00.092.075l.886.087c.022 0 .051-.014.082-.023a1.438 1.438 0 01.472-.091 1.092 1.092 0 01.462.105.714.714 0 01.2-.04h.043a1.1 1.1 0 01.9.633c.031.048.063.095.1.14.166.232.382.573.391.587l.1.151-.12.138a.593.593 0 01-.469.23.857.857 0 01-.161-.016.7.7 0 01-.141-.042l-.025.149-.156.806a1.886 1.886 0 001.521-1.923zm-8.065-.242h6.271a.994.994 0 01-.229-.993 1.068 1.068 0 01-.234-.153c-.245.18-.993.721-1.189.857l-.042.028-2.461-.442h-.05a2.073 2.073 0 01-.24-.013.239.239 0 01-.232.186.181.181 0 01-.04 0 .238.238 0 01-.158-.1.232.232 0 01-.043-.18l.009-.053a.974.974 0 01-.384-.993l.01-.044.036-.025c.005 0 .048-.032.111-.069l-.179-.027a.123.123 0 01-.1-.139.121.121 0 01.14-.1l.426.067.039-1.491.634-.667.4.827-.418 1.435.376.059a.121.121 0 01-.019.24h-.019l-.306-.049c0 .009.01.014.014.024a.33.33 0 00.147.135l1.877.029c.079-.077.277-.269.479-.472a1.008 1.008 0 01-.658-.832.976.976 0 01-.535-.486 1.017 1.017 0 01-.046-.656 2.2 2.2 0 01-.782-.521h-2.826a2.977 2.977 0 01.224 1.022z" fill="#ffdd2d"/><path d="M14.375 20.236a.081.081 0 00-.087.076.08.08 0 00.078.087.083.083 0 00.088-.076.084.084 0 00-.079-.087zm5.47 5.466l-.465-.177.128-.477.141-.52a11.057 11.057 0 01-1.983.777c-.329.094-.578.136-.578.136v.354a8.392 8.392 0 01-1.247.107h-.036a8.391 8.391 0 01-1.247-.107v-.354s-.25-.042-.578-.136a11.024 11.024 0 01-1.982-.777l.139.52.131.477-.466.177-.516.192a13.62 13.62 0 002.164.9l-.177.481a6.714 6.714 0 002.539.435h.022a6.71 6.71 0 002.541-.435l-.178-.481a13.488 13.488 0 002.163-.9zm-8.009.224l.764-.253-.226-.732a9.946 9.946 0 001.529.607l-.369 1.007a9.414 9.414 0 01-1.698-.629zm3.988 1.533a8.555 8.555 0 01-2.2-.308l.453-1.219a7.382 7.382 0 001.727.221h.041a7.4 7.4 0 001.727-.221l.452 1.219a8.5 8.5 0 01-2.2.309zm2.287-.9l-.368-1.007a9.946 9.946 0 001.529-.607l-.225.732.763.253a9.366 9.366 0 01-1.698.625zm-2.287-19.89a3.5 3.5 0 012.12.644 4.168 4.168 0 01.548-1.4l-.761.086-.4-.842-.766.392-.742-.729-.74.729-.767-.392-.4.842-.761-.086a4.17 4.17 0 01.548 1.4 3.494 3.494 0 012.121-.644zm-1.939-.374l.212.022.091-.191.266-.566.494.254.191.1.153-.15.533-.525.534.525.152.15.191-.1.491-.254.269.566.089.191.211-.022.2-.024a4.73 4.73 0 00-.209.566 4.263 4.263 0 00-3.863 0 4.863 4.863 0 00-.209-.566zm13.031 10.228a1.841 1.841 0 001.649-1.289l.136-.435-.458.014a3.289 3.289 0 01-2.467-1.244l-.09-.112a4.8 4.8 0 00-2.277-1.883 1.06 1.06 0 01.134-.1 1.983 1.983 0 00.972-1.332 1.963 1.963 0 00-.4-1.426l-.341-.418-.212.5a1.373 1.373 0 01-1.124.825h-.064c-.052 0-.1-.005-.149-.009a1.8 1.8 0 00-.539-1.417 2.392 2.392 0 00-1.725-.712 2.172 2.172 0 00-.358.027l-.514.1.317.415c.249.32.475.911.207 1.22a1.434 1.434 0 01-.43.258c-.347.159-.819.379-.819.94a1.41 1.41 0 00.8 1.067 6.473 6.473 0 012.868 3.041 2.41 2.41 0 01-.986 3.154l-.357.228.312.285a1.807 1.807 0 00.988.419c.107.007.209.013.3.013a3.164 3.164 0 00.92-.132 2.324 2.324 0 01-.26.366 2.252 2.252 0 01-1.818.774l-.3.005-.023.3a1.4 1.4 0 00.5 1.082 1.2 1.2 0 00.28.182 2.59 2.59 0 00-.79 1.827 2.514 2.514 0 01-.252 1.092l-.33.5.6.008a3.028 3.028 0 002.265-.806 2.551 2.551 0 00.591-.992 1.6 1.6 0 001.041.38 2.394 2.394 0 00.538-.065l.381-.1-.169-.354a2.5 2.5 0 01.012-1.75 5.707 5.707 0 00.259-1.135 2.1 2.1 0 00.977.228 1.62 1.62 0 001.379-.729l.186-.321-.345-.141a2.665 2.665 0 01-1.423-2.384 2.215 2.215 0 00.349.041zm.892 2.641a1.277 1.277 0 01-1.085.569h-.009a1.532 1.532 0 01-1.273-.555 4.682 4.682 0 01-.274 1.68 2.822 2.822 0 000 1.994 1.975 1.975 0 01-.455.057 1.113 1.113 0 01-.283-.033 1.313 1.313 0 01-.946-.864 2.33 2.33 0 01-2.645 2.315h-.021a2.627 2.627 0 00.31-1.254c.129-1.717 1.3-1.953 1.3-1.953a2.078 2.078 0 01-.895-.319 1.094 1.094 0 01-.393-.821 2.57 2.57 0 002.058-.885 2.6 2.6 0 00.6-1.233 2.342 2.342 0 01-1.507.463c-.087 0-.181 0-.276-.013a1.462 1.462 0 01-.795-.334 2.73 2.73 0 001.116-3.54 6.954 6.954 0 00-3-3.2c-.415-.258-.646-.543-.646-.79 0-.58.83-.6 1.17-.988.392-.453.146-1.187-.194-1.628a1.644 1.644 0 01.3-.023 2.059 2.059 0 011.49.615 1.447 1.447 0 01.4 1.456l.182.035a1.977 1.977 0 00.328.032h.073a1.711 1.711 0 001.425-1.023 1.483 1.483 0 01-.494 2.282c-.265.172-.382.33-.352.5l.024.111.11.019a4.531 4.531 0 012.373 1.938 3.621 3.621 0 002.714 1.367h.019a1.525 1.525 0 01-1.336 1.062h-.047a1.3 1.3 0 01-.7-.2s-.177 2.412 1.633 3.159z"/><path d="M24.768 11.706a3 3 0 01.955.852 1.8 1.8 0 00.786.662 1.168 1.168 0 00.379.061 1.372 1.372 0 001.217-.739l.2-.43-.473-.028a2.268 2.268 0 01-1.307-.743 1.358 1.358 0 00-.978-.43 1.552 1.552 0 00-.808.242l-.435.3zm.775-.473a1.015 1.015 0 01.744.334 2.594 2.594 0 001.521.84 1.055 1.055 0 01-.919.551.859.859 0 01-.278-.046c-.542-.182-.736-.99-1.689-1.493a1.19 1.19 0 01.62-.186zm-.562 4.765v.016a6.529 6.529 0 00-3.672-4.756 11.982 11.982 0 00-.467-.234 2.592 2.592 0 002.1-.49s-1.036.758-3.159.07a21.568 21.568 0 012.771 1.779c2.606 2.275.741 4.495.741 4.495a2.711 2.711 0 00.7-2.861 5.294 5.294 0 01.759 3.026 7.679 7.679 0 01-2.057 4.476 3.008 3.008 0 00-.6 1.314 4.045 4.045 0 01.763-1.3 7.4 7.4 0 002.145-4.486 3.156 3.156 0 001.314 1.664s-.923-.552-1.338-2.713zm-13.886 8.144a2.584 2.584 0 01-.251-1.092 2.591 2.591 0 00-.791-1.827 1.1 1.1 0 00.28-.182 1.4 1.4 0 00.5-1.082l-.02-.3-.3-.005a2.259 2.259 0 01-1.817-.774 2.4 2.4 0 01-.26-.366 3.152 3.152 0 00.919.132c.1 0 .2-.006.3-.013a1.808 1.808 0 00.989-.419l.312-.285-.357-.228a2.409 2.409 0 01-.987-3.154 6.465 6.465 0 012.869-3.041 1.406 1.406 0 00.8-1.067c0-.562-.472-.783-.818-.94a1.434 1.434 0 01-.43-.258c-.268-.308-.042-.9.206-1.22l.319-.415-.516-.1a2.173 2.173 0 00-.358-.027 2.392 2.392 0 00-1.724.712 1.8 1.8 0 00-.542 1.417c-.049 0-.1.006-.148.009h-.055a1.371 1.371 0 01-1.125-.825l-.212-.5-.344.418a1.794 1.794 0 00.571 2.759.986.986 0 01.134.1 4.8 4.8 0 00-2.275 1.884l-.09.112a3.291 3.291 0 01-2.469 1.244l-.461-.014.14.435a1.836 1.836 0 001.644 1.292h.059a2.155 2.155 0 00.349-.041 2.669 2.669 0 01-1.425 2.384l-.344.141.186.321a1.619 1.619 0 001.381.729 2.108 2.108 0 00.975-.228 5.7 5.7 0 00.259 1.134 2.5 2.5 0 01.011 1.75l-.169.354.382.1a2.391 2.391 0 00.538.065 1.57 1.57 0 00.358-.039 1.593 1.593 0 00.683-.34 2.549 2.549 0 00.59.992 3.03 3.03 0 002.265.806l.6-.008zm-.289.185a2.331 2.331 0 01-2.646-2.314 1.313 1.313 0 01-.947.864 1.1 1.1 0 01-.282.033 1.963 1.963 0 01-.454-.057 2.829 2.829 0 000-1.994 4.705 4.705 0 01-.272-1.68 1.529 1.529 0 01-1.273.555h-.004a1.277 1.277 0 01-1.085-.569c1.81-.747 1.632-3.157 1.632-3.157a1.315 1.315 0 01-.694.191h-.053a1.523 1.523 0 01-1.336-1.062h.02a3.619 3.619 0 002.716-1.368A4.54 4.54 0 018.5 11.831l.112-.019.024-.111c.031-.17-.085-.328-.351-.5a1.483 1.483 0 01-.494-2.282 1.707 1.707 0 001.425 1.023h.072a2.088 2.088 0 00.328-.033l.182-.035a1.446 1.446 0 01.4-1.456 2.054 2.054 0 011.489-.615 1.614 1.614 0 01.295.023c-.34.442-.586 1.176-.193 1.629.34.389 1.168.408 1.168.988 0 .245-.231.532-.646.79a6.944 6.944 0 00-3 3.2 2.73 2.73 0 001.118 3.54 1.463 1.463 0 01-.8.334c-.1.009-.188.013-.278.013a2.34 2.34 0 01-1.506-.463 2.616 2.616 0 00.6 1.234 2.581 2.581 0 002.061.885 1.091 1.091 0 01-.392.821 2.1 2.1 0 01-.9.319s1.171.235 1.3 1.953a2.641 2.641 0 00.307 1.254z"/><path d="M4.758 13.281a1.17 1.17 0 00.38-.061 1.791 1.791 0 00.787-.662 3.006 3.006 0 01.954-.852l.47-.251-.436-.3a1.535 1.535 0 00-.806-.242 1.352 1.352 0 00-.979.43 2.274 2.274 0 01-1.306.744l-.473.027.194.431a1.375 1.375 0 001.215.736zm.6-1.712a1.018 1.018 0 01.746-.334 1.187 1.187 0 01.618.186c-.952.5-1.147 1.311-1.691 1.493a.835.835 0 01-.276.045 1.051 1.051 0 01-.918-.551 2.609 2.609 0 001.523-.839zm1.535 5.474a5.27 5.27 0 01.758-3.026 2.709 2.709 0 00.7 2.861s-1.864-2.219.742-4.495a21.705 21.705 0 012.77-1.779c-2.122.688-3.158-.07-3.158-.07a2.587 2.587 0 002.1.489c-.147.072-.3.147-.466.234a6.529 6.529 0 00-3.674 4.756v-.017c-.416 2.161-1.341 2.716-1.341 2.716a3.151 3.151 0 001.313-1.664 7.411 7.411 0 002.146 4.486 4.08 4.08 0 01.766 1.3 3.007 3.007 0 00-.6-1.314 7.673 7.673 0 01-2.056-4.477zm8.317-4.452v.436a.544.544 0 01.444-.145v.629a.934.934 0 01-.121.444h.633a.952.952 0 01-.12-.444v-.629a.542.542 0 01.443.145v-.436h-1.28zm-.272-2.588a1 1 0 00.323.189l.079.036v-.411l-.744-.311a.741.741 0 00.342.497zm1.771 0a.737.737 0 00.343-.5l-.744.311v.411l.078-.036a.992.992 0 00.323-.186z"/><path d="M18.049 8.329c0-.623-1.056-1.184-2.222-1.184h-.007c-1.166 0-2.222.561-2.222 1.184l.023.154.466 2.656-.468.27-1.21.7s-.272.138-.4.224c-.461.318-.558.782-.291.974a.912.912 0 01.93-.774 1.214 1.214 0 01.965.52 2.531 2.531 0 01.182.254c.07.114.14.214.21.311h-3.116a3.334 3.334 0 01.446 1.469v6.855a2.433 2.433 0 002.673 2.451c1.074 0 1.218-.048 1.811.537.59-.587.734-.537 1.809-.537a2.432 2.432 0 002.672-2.451v-6.854a3.323 3.323 0 01.447-1.469H17.63c.069-.1.139-.2.209-.311a2.871 2.871 0 01.181-.254 1.216 1.216 0 01.966-.52.912.912 0 01.93.774c.267-.192.171-.656-.293-.974-.124-.086-.4-.224-.4-.224l-1.21-.7-.466-.27.466-2.656zm-3.993.309l1.637.552v2.555l-1.2-.631zm.339 5.427a2.184 2.184 0 00.782.521 1 1 0 00.046.657.982.982 0 00.535.485 1.008 1.008 0 00.658.832c-.2.2-.4.394-.48.472l-1.876-.029a.334.334 0 01-.147-.136.179.179 0 01-.013-.024l.306.049h.019a.121.121 0 00.019-.24l-.376-.059.418-1.434-.4-.827-.634.667-.039 1.491-.426-.067a.122.122 0 00-.14.1.123.123 0 00.1.139l.179.027a1.223 1.223 0 00-.111.069l-.037.025-.01.044a.976.976 0 00.384.993l-.009.053a.242.242 0 00.2.277.268.268 0 00.04 0 .241.241 0 00.233-.186 2.093 2.093 0 00.24.013h.05l2.461.441.042-.027c.2-.136.943-.678 1.188-.857a1.041 1.041 0 00.234.154 1 1 0 00.23.993h-6.272v-3.6a2.977 2.977 0 00-.224-1.022h2.826zm3.042 3.291c-.249.182-.89.647-1.121.808l-2.237-.4.015-.06a1.934 1.934 0 00.061-.458l1.88.03.036-.036c.028-.028.624-.6.928-.929a1.155 1.155 0 00.281.252 1.074 1.074 0 00.156.793zm-3.744-.385a.572.572 0 00.215.225 2.551 2.551 0 01-.04.405.848.848 0 01-.023.09.887.887 0 01-.014.045 1.447 1.447 0 01-.451-.07.723.723 0 01-.377-.738.892.892 0 01.417-.144.282.282 0 01.272.187zm-.233-.444l.038-1.432.323-.34.2.422-.4 1.374zm3.957 7.421c-.122 0-.235 0-.337.006l.266-.823c.042-.114-.169-.261-.255-.389a7.11 7.11 0 00.634.332c-.018.028-.309.875-.309.875zm.836-.936l-.174.9a3.818 3.818 0 01-.35.028l.183-.867c.055-.258-.642-.337-.985-.844a1.082 1.082 0 01-.8.243 4.118 4.118 0 01-.755-.081.833.833 0 00-.129-.012.276.276 0 00-.258.138l-.051.085-.948-.222-.236.388a.134.134 0 00.018.175l.064.07a1.3 1.3 0 01-.241.345l-.141-.175a.5.5 0 01.023-.561l.376-.631.8.115-.125-.283c-.168-.374.087-.85.115-1.123-.009.083-.085.1-.175.1s-.172-.015-.232-.015a.1.1 0 00-.055.01l-.218.131-.172-.15a.121.121 0 01.023-.148l.4-.442-.47-.545.658.328.2-.241c.055.054.032.194.032.194a1.067 1.067 0 01.811 1.059v.072l.015.024a.479.479 0 00.295.211l.909.089a3.2 3.2 0 01.552-.116.848.848 0 01.457.138.41.41 0 01.217-.072h.032c.408 0 .576.366.795.67.165.231.384.575.384.575a.341.341 0 01-.283.148.634.634 0 01-.117-.011c-.437-.08-.5-.973-.749-1.044a.138.138 0 00-.04-.005.136.136 0 00-.116.071c.114.3.048.427.17.662a1.677 1.677 0 00.321.385s-.012.137-.032.236zm-4.882-.85l.042.1c-.027.091-.343.22-.343.22l-.068-.147a.489.489 0 01.163-.586l.51-.309.541.114a.474.474 0 00.092.3l-.567-.108-.34.233a.14.14 0 00-.03.183zm4.966 1.7l.156-.806c.008-.047.018-.1.025-.149a.676.676 0 00.141.042.857.857 0 00.161.016.593.593 0 00.469-.23l.12-.138-.1-.152a14.701 14.701 0 00-.391-.587l-.1-.14a1.1 1.1 0 00-.9-.633h-.043a.7.7 0 00-.2.04 1.081 1.081 0 00-.463-.105 1.438 1.438 0 00-.472.091c-.032.009-.06.019-.082.023l-.887-.087a.23.23 0 01-.092-.076l.192-.077a1.529 1.529 0 00-1.011-1.159.359.359 0 00-.1-.179l-.191-.18-.168.2-.082.1-1.242-.507.808 1.008-.319.48a.173.173 0 00.012.247l.329.225.342-.126a.325.325 0 01.034 0c-.016.051-.038.254-.052.31l-.593-.116-.623.35a.73.73 0 00-.245.885l.069.151.1.212.218-.09a.02.02 0 00.008 0 .649.649 0 00.094.64l.132.166.176.221.193-.206a1.377 1.377 0 00.3-.437l.042-.134-.095-.1-.015-.018.106-.174.774.181.174.039.093-.152.051-.083c.009-.017.012-.02.048-.02a.412.412 0 01.084.009 4.406 4.406 0 00.8.082 1.568 1.568 0 00.536-.064s.416.469.43.487l-.254.78-.011.047a1.358 1.358 0 00-1 .425c-.412-.406-.7-.449-1.811-.449a1.993 1.993 0 01-2.222-2v-3.018h8.064v3.014a1.884 1.884 0 01-1.517 1.921zm1.744-9.8a2.932 2.932 0 00-.226 1.022v2.249a.682.682 0 01-.531-.607l-.009-.1-.1-.009a.719.719 0 01-.457-.217.944.944 0 01-.232-.607.653.653 0 00.038.753.808.808 0 00.532.3.881.881 0 00.76.737v1.1h-1.395a.768.768 0 01-.358-1.008l.055-.119-.123-.046a.785.785 0 01-.5-.977l.028-.1-.095-.044a.992.992 0 01-.49-1.008.611.611 0 00-.119.718c-.066.075-.155.166-.251.265a.777.777 0 01-.614-.72v-.082l-.078-.03a.776.776 0 01-.471-.387.75.75 0 01-.033-.487 1.46 1.46 0 00.2.031 1.976 1.976 0 00.205.011h.009a1.958 1.958 0 00.2-.011 1.986 1.986 0 001.22-.621h2.823zm-2.174-2.273l.551.318h.008l.138.08a1.626 1.626 0 00-.748.443l-.021.021c-.046.049-.092.1-.134.155l-.025.032c-.043.055-.082.11-.121.169a.3.3 0 01-.02.029c-.046.068-.089.14-.133.215a1.692 1.692 0 01-3.15 0 4.448 4.448 0 00-.131-.212l-.025-.037a4.222 4.222 0 00-.146-.199c-.043-.052-.086-.1-.13-.151-.009-.007-.015-.016-.024-.024a1.617 1.617 0 00-.749-.441l.14-.08h.006l.551-.318.566-.322 1.513.818 1.513-.818zm-.746-.678l-1.206.631V9.19l1.636-.552zm-1.337-2.205l-1.793-.7c.153-.359.856-.664 1.793-.665s1.642.306 1.793.665z"/></svg>