<svg xmlns="http://www.w3.org/2000/svg" width="17.356" height="17.063" viewBox="0 0 17.356 17.063"><g transform="translate(0 -4.315)"><g transform="translate(0 4.315)"><path d="M14.355,151.568H12.924a.508.508,0,0,0,0,1.017h.032a7.525,7.525,0,0,1-10.7-2.281H4.329a.508.508,0,0,0,.508-.508v-6.729a.508.508,0,0,0-.508-.508H.508a.508.508,0,0,0-.508.508V149.8a.508.508,0,0,0,.508.508H1.09a8.543,8.543,0,0,0,7.48,4.631h.113a8.478,8.478,0,0,0,5.164-1.741v.312a.508.508,0,0,0,1.017,0v-1.431A.509.509,0,0,0,14.355,151.568ZM1.017,143.575h2.8v5.712h-2.8Z" transform="translate(0 -137.872)"/><path d="M87.863,9.285h-.418A8.536,8.536,0,0,0,74.524,6.055V5.743a.508.508,0,1,0-1.017,0V7.173a.508.508,0,0,0,.508.508h1.431a.508.508,0,0,0,0-1.017h-.033a7.523,7.523,0,0,1,10.9,2.62H84.042a.508.508,0,0,0-.508.508v6.39a.508.508,0,0,0,.508.508h3.821a.508.508,0,0,0,.508-.508V9.794A.508.508,0,0,0,87.863,9.285Zm-.508,6.39h-2.8V10.3h2.8Z" transform="translate(-71.015 -4.315)"/></g><path d="M204.135,150.612a4.938,4.938,0,0,1-1.254-.583.422.422,0,0,1-.1-.4.576.576,0,0,1,.379-.454,1.014,1.014,0,0,1,.917.135.508.508,0,1,0,.609-.815,2.028,2.028,0,0,0-.757-.34v-.207a.508.508,0,0,0-1.017,0v.24l-.045.013a1.581,1.581,0,0,0-1.085,1.239,1.411,1.411,0,0,0,.468,1.389,5.373,5.373,0,0,0,1.543.741.655.655,0,0,1,.475.769.857.857,0,0,1-.85.723,1.423,1.423,0,0,1-1.022-.268.508.508,0,0,0-.557.851,2.265,2.265,0,0,0,1.074.414v.232a.508.508,0,1,0,1.017,0v-.281a1.821,1.821,0,0,0,.754-.418,1.908,1.908,0,0,0,.588-1.084A1.675,1.675,0,0,0,204.135,150.612Z" transform="translate(-194.777 -138.274)"/></g></svg>