<svg xmlns="http://www.w3.org/2000/svg" width="15.814" height="15.061" viewBox="0 0 15.814 15.061"><path d="M18.12,192.895H14.543v-2.024a3.328,3.328,0,0,0-.36-1.721A2.621,2.621,0,0,0,11.719,188a.565.565,0,0,0-.565.565v2.9l-1.011,1.643-1.248.815v-.463a.565.565,0,0,0-.565-.565H4.565A.565.565,0,0,0,4,193.46V202.5a.565.565,0,0,0,.565.565H8.33a.564.564,0,0,0,.482-.272,2.057,2.057,0,0,0,1.024.272h7.531a1.693,1.693,0,0,0,1.419-2.619,1.742,1.742,0,0,0,.156-.137,1.692,1.692,0,0,0,.221-2.122,1.739,1.739,0,0,0,.156-.137,1.692,1.692,0,0,0,.064-2.327,1.694,1.694,0,0,0-1.262-2.825ZM7.765,201.932H5.13v-7.907H7.765Zm10-.166a.563.563,0,0,1-.4.166H9.836a.942.942,0,0,1-.941-.941v-5.719l2.05-1.339a.572.572,0,0,0,.248-.376L12.2,191.92a.565.565,0,0,0,.084-.3v-2.452c1.034.176,1.13.876,1.13,1.7v2.589a.565.565,0,0,0,.565.565H18.12a.565.565,0,0,1,0,1.13H16.99a.565.565,0,0,0,0,1.13h1.13a.565.565,0,0,1,0,1.13H16.99a.565.565,0,0,0,0,1.13h.753a.565.565,0,0,1,0,1.13H16.99a.565.565,0,0,0,0,1.13h.377a.565.565,0,0,1,.4.964Z" transform="translate(-4 -188)"/><circle cx="0.545" cy="0.545" r="0.545" transform="translate(2.178 12.487)"/></svg>