<svg xmlns="http://www.w3.org/2000/svg" width="17.546" height="15.702" viewBox="0 0 17.546 15.702"><g transform="translate(0 -26.656)"><path d="M15.817,28.841a2.372,2.372,0,0,0-2.362-2.185H2.37A2.372,2.372,0,0,0,0,29.025V39.989a2.372,2.372,0,0,0,2.37,2.369H15.177a2.372,2.372,0,0,0,2.37-2.369V31.122a2.373,2.373,0,0,0-1.729-2.281ZM2.37,27.763H13.456a1.265,1.265,0,0,1,1.232.989H2.37a2.355,2.355,0,0,0-1.263.366v-.093A1.264,1.264,0,0,1,2.37,27.763ZM15.177,41.251H2.37a1.264,1.264,0,0,1-1.263-1.263V31.122A1.264,1.264,0,0,1,2.37,29.859H15.177a1.264,1.264,0,0,1,1.263,1.263v1.931H12.91a2.536,2.536,0,0,0,0,5.073h3.529v1.863a1.264,1.264,0,0,1-1.263,1.263Zm1.263-4.232H12.91a1.429,1.429,0,0,1,0-2.859h3.529Z"/><circle cx="0.576" cy="0.576" r="0.576" transform="translate(12.539 35.055)"/></g></svg>