<svg xmlns="http://www.w3.org/2000/svg" width="18.112" height="16.97" viewBox="0 0 18.112 16.97"><g transform="translate(-292.863 -403.83)"><g transform="translate(300.054 413.037)"><path d="M303.21,415.4v-.144a.432.432,0,0,0-.433-.433h-1.156a.43.43,0,0,0-.366.385.384.384,0,0,0,.1.318.422.422,0,0,0,.289.164h1.136a1.291,1.291,0,1,1,0,2.581h-.144v.578h-.867v-.578h-.144a1.3,1.3,0,0,1-1.291-1.291v-.144h.857v.144a.438.438,0,0,0,.433.433h1.156a.44.44,0,0,0,.376-.385.448.448,0,0,0-.395-.482l-1.136.01a1.3,1.3,0,0,1,0-2.591h.144v-.578h.867v.578h.144a1.305,1.305,0,0,1,1.3,1.291v.144Z" transform="translate(-300.33 -413.39)"/></g><g transform="translate(292.863 403.83)"><path d="M309.213,405.034a5.023,5.023,0,0,0-7.291.819,5.032,5.032,0,1,0-4.652,8,5.022,5.022,0,0,0,7.57,6l.125-.077-.5-.7-.125.077a4.17,4.17,0,0,1-6.53-4.083,4.17,4.17,0,1,1,7.281,3.4l-.087.106.655.568.087-.116a4.991,4.991,0,0,0,.828-5.172,4.916,4.916,0,0,0,2.3-.9l.116-.087-.5-.7-.125.087a4.131,4.131,0,0,1-2.225.771,5.108,5.108,0,0,0-3.583-2.254,4.948,4.948,0,0,0-.144-4.112,4.166,4.166,0,1,1,6.7,4.9l-.1.106.664.568.087-.116A5.032,5.032,0,0,0,309.213,405.034Zm-7.6,5.721a5,5,0,0,0-3.9,2.273,4.168,4.168,0,0,1,.183-8.331H298a4.173,4.173,0,0,1,4.064,4.276A4.281,4.281,0,0,1,301.615,410.755Z" transform="translate(-292.863 -403.83)"/></g><g transform="translate(303.791 406.151)"><path d="M307.09,409.958h.867v.144a1.584,1.584,0,0,1-1.541,1.541h-.048a1.585,1.585,0,0,1-1.579-1.541v-.144h-.578v-.867h.578V408.8h-.578v-.867h.578v-.144a1.571,1.571,0,0,1,1.541-1.541.058.058,0,0,1,.039-.01,1.579,1.579,0,0,1,1.579,1.541l.01.154h-.886l.01-.164a.363.363,0,0,0,0-.144.721.721,0,1,0-1.435.144v.164h.578v.867h-.578v.289h.578v.867h-.578v.144a.722.722,0,1,0,1.445,0Z" transform="translate(-304.21 -406.24)"/></g><g transform="translate(295.749 405.891)"><path d="M298.441,409.09h.578v.867h-.578v.289h.578v.867h-.578v.289h-.867v-.289H297v-.867h.578v-.289H297v-.867h.578v-.559l-1.714-2,.655-.559,1.493,1.734,1.493-1.734.655.559-1.714,2Z" transform="translate(-295.86 -405.97)"/></g></g></svg>