<svg xmlns="http://www.w3.org/2000/svg" width="17.537" height="13.063" viewBox="0 0 17.537 13.063"><g transform="translate(-271.75 -411.08)"><g transform="translate(271.75 411.08)"><path d="M289.277,416.2a.2.2,0,0,0,.01-.082.227.227,0,0,0-.01-.082v-.895a1.842,1.842,0,0,0-1.841-1.821h-.4v-.391a1.769,1.769,0,0,0-.525-1.3,1.829,1.829,0,0,0-1.3-.555H273.581a1.853,1.853,0,0,0-1.831,1.851v7.149a1.824,1.824,0,0,0,1.821,1.821h.381v.391a1.859,1.859,0,0,0,1.831,1.851h11.643a1.864,1.864,0,0,0,1.851-1.851v-4.176a.335.335,0,0,0,0-.165Zm-15.326-1.059v5.739h-.381a.815.815,0,0,1-.8-.792v-7.159a.837.837,0,0,1,.813-.823h11.643a.828.828,0,0,1,.8.823v.391H275.772A1.824,1.824,0,0,0,273.951,415.143Zm14.3,7.138a.825.825,0,0,1-.823.823H275.782a.819.819,0,0,1-.823-.823v-3.754h13.289Zm0-4.773H274.969v-.854h13.279Zm.01-1.872H274.969v-.494a.806.806,0,0,1,.813-.8h11.664a.812.812,0,0,1,.813.8Z" transform="translate(-271.75 -411.08)"/><path d="M286.654,419.378a1.56,1.56,0,0,0-1.707-.041,1.526,1.526,0,0,0-.813-.237h-.01a1.574,1.574,0,0,0,0,3.147,1.534,1.534,0,0,0,.823-.237,1.578,1.578,0,0,0,2.119-.5,1.6,1.6,0,0,0,.247-.843A1.571,1.571,0,0,0,286.654,419.378Zm-1.317,1.656a.494.494,0,0,0-.381-.175.478.478,0,0,0-.391.185.548.548,0,0,1-.422.2h-.01a.553.553,0,0,1-.391-.946.544.544,0,0,1,.391-.165.526.526,0,0,1,.422.206.518.518,0,0,0,.72.072.475.475,0,0,0,.072-.072.551.551,0,0,1,.874.669l-.041.041a.551.551,0,0,1-.771.062A.476.476,0,0,1,285.337,421.034Z" transform="translate(-271.441 -410.851)"/></g></g></svg>