<svg xmlns="http://www.w3.org/2000/svg" width="13.295" height="17.914" viewBox="0 0 13.295 17.914"><g transform="translate(-66)"><path d="M77.651,6.858V5A5,5,0,1,0,67.644,5V6.858H66v4.408a6.648,6.648,0,1,0,13.3,0V6.858ZM68.694,5A3.954,3.954,0,1,1,76.6,5V6.858H68.694Zm9.552,6.263a5.6,5.6,0,0,1-11.2,0V7.907h11.2Z"/><path d="M202.4,269.776v1.635h1.05v-1.635a1.924,1.924,0,1,0-1.05,0Zm.525-2.726a.875.875,0,1,1-.875.875A.876.876,0,0,1,202.924,267.05Z" transform="translate(-130.277 -256.693)"/></g></svg>