<svg xmlns="http://www.w3.org/2000/svg" width="16.864" height="16.864" viewBox="0 0 16.864 16.864"><path d="M8.432,0a8.432,8.432,0,1,0,8.432,8.432A8.432,8.432,0,0,0,8.432,0Zm0,15.81A7.378,7.378,0,1,1,15.81,8.432,7.378,7.378,0,0,1,8.432,15.81Z"/><g transform="translate(5.226 5.225)"><g transform="translate(0 0)"><circle cx="1.045" cy="1.045" r="1.045"/></g></g><g transform="translate(10.45 5.225)"><g transform="translate(0 0)"><circle cx="1.045" cy="1.045" r="1.045"/></g></g><g transform="translate(3.689 8.432)"><path d="M120.432,256a3.689,3.689,0,1,1-7.378,0H112a4.743,4.743,0,1,0,9.486,0Z" transform="translate(-112 -256)"/></g></svg>