<svg xmlns="http://www.w3.org/2000/svg" width="18.112" height="14.081" viewBox="0 0 18.112 14.081"><g transform="translate(-287.183 -407.409)"><path d="M305.18,412.2l-.48-.83a.437.437,0,0,0-.26-.22.474.474,0,0,0-.35.04.441.441,0,0,0-.21.27.463.463,0,0,0,.04.36l.47.81c.01.01,0,.03-.01.04l-1.24.72a.037.037,0,0,1-.05-.02l-2.48-4.3a.014.014,0,0,1,0-.02.037.037,0,0,1,.01-.03l1.24-.71a.044.044,0,0,1,.05.01l.44.77a.465.465,0,0,0,.61.18.532.532,0,0,0,.22-.27.463.463,0,0,0-.05-.36l-.44-.77a.951.951,0,0,0-1.28-.34l-1.23.71a.939.939,0,0,0-.4.46h-3.44a1.932,1.932,0,0,0-1.36.57l-.32.32a4.218,4.218,0,0,0-.93-.11h-1.01a.984.984,0,0,0-.42-.5l-1.23-.7a.925.925,0,0,0-1.28.34l-2.48,4.29a.933.933,0,0,0,.34,1.28l1.23.71a.882.882,0,0,0,.59.12l.94.94a1.491,1.491,0,0,0-.02.21,1.36,1.36,0,0,0,1.19,1.35v.04a1.351,1.351,0,0,0,1.28,1.35,60.933,60.933,0,0,0,2.64,2.58,1.347,1.347,0,0,0,.96-.4l.5-.5a1.6,1.6,0,0,1,2.08-.78,1.557,1.557,0,0,0,.16-.28,1.363,1.363,0,0,0,.91.12,1.311,1.311,0,0,0,.86-.59,1.488,1.488,0,0,0,.17-.36,1.357,1.357,0,0,0,1.28-2.28l-.74-.74,1.38-1.39a.945.945,0,0,0,.53-.12l1.24-.71a.948.948,0,0,0,.43-.57A.911.911,0,0,0,305.18,412.2Zm-15.8,1.91a.022.022,0,0,1-.02.02h-.02l-1.24-.72a.022.022,0,0,1-.02-.02.031.031,0,0,1,.01-.02l2.48-4.31a.035.035,0,0,1,.02-.01l1.26.72a.04.04,0,0,1,.02.04Zm2.69,2.38a.422.422,0,0,1-.32.13.46.46,0,0,1-.33-.13.507.507,0,0,1-.13-.33.463.463,0,0,1,.13-.32l.31-.3a.459.459,0,0,1,.65-.03.448.448,0,0,1,.14.32.437.437,0,0,1-.12.33Zm1.18,1.39a.448.448,0,0,1-.32.14.453.453,0,0,1-.33-.14.471.471,0,0,1,0-.65l.5-.5a.463.463,0,0,1,.34-.15.432.432,0,0,1,.31.13.459.459,0,0,1,.03.65c-.01,0-.02.01-.03.02Zm1.28,1.29a.445.445,0,0,1-.32.13.438.438,0,0,1-.32-.13.448.448,0,0,1-.14-.32.437.437,0,0,1,.14-.33l.5-.5a.441.441,0,0,1,.32-.15h.02a.465.465,0,0,1,.31.12.448.448,0,0,1,.14.32.414.414,0,0,1-.12.33c-.01.01-.01.02-.03.03Zm.64,1.31a.459.459,0,0,1-.02-.65l.53-.53a.471.471,0,0,1,.33-.14.49.49,0,0,1,.32.12.431.431,0,0,1,.14.32.451.451,0,0,1-.12.33c-.01.01-.02.01-.02.02l-.51.51A.468.468,0,0,1,295.17,420.48Zm6.61-3.42a.459.459,0,0,1,0,.65.447.447,0,0,1-.64,0l-3.34-3.34a.447.447,0,0,0-.64,0,.453.453,0,0,0,0,.63l3,3a.468.468,0,0,1,.02.65.482.482,0,0,1-.32.15h-.02a.477.477,0,0,1-.31-.13c-.01,0-.01-.01-.02-.02l-3.6-3.6a.438.438,0,0,0-.32-.13.422.422,0,0,0-.32.13.435.435,0,0,0,0,.63l3,3a.431.431,0,0,1,.14.32.451.451,0,0,1-.12.33.459.459,0,0,1-.65.02l-.69-.68a1.278,1.278,0,0,0-.88-.39,81.192,81.192,0,0,0-2.64-2.58h-.03a1.377,1.377,0,0,0-1.35-1.19h-.07a1.38,1.38,0,0,0-.89.4l-.23.23-.65-.65,2.36-4.1h1.29l-.25.24a1.361,1.361,0,0,0,1.92,1.93l.88-.88Zm-.74-2.02-2.39-2.39a2.115,2.115,0,0,0,.77-1.62.455.455,0,0,0-.45-.45h-.01a.4.4,0,0,0-.31.13.422.422,0,0,0-.13.32,1.208,1.208,0,0,1-.52.97l-1.27-1.27a.447.447,0,0,0-.64,0l-1.19,1.19a.46.46,0,1,1-.68-.62l1.39-1.39a1.031,1.031,0,0,1,.73-.31h3.53l2.42,4.19Z"/><path d="M303.97,410.23a.448.448,0,0,1-.45.45.439.439,0,0,1-.31-.13.431.431,0,0,1-.14-.32.45.45,0,1,1,.9,0Z"/></g></svg>