<svg xmlns="http://www.w3.org/2000/svg" width="32" height="32"><g fill="#fff" stroke="#e5e6ed"><circle cx="16" cy="16" r="16" stroke="none"/><circle cx="16" cy="16" r="15.5" fill="none"/></g><g fill="#1b206d"><path d="M14.625 14.34h-1.806l1.13-6.985h1.806zm6.551-6.815a4.451 4.451 0 00-1.62-.3c-1.784 0-3.04.951-3.047 2.311-.015 1 .9 1.561 1.583 1.9.7.342.936.565.936.87-.007.468-.565.684-1.085.684a3.6 3.6 0 01-1.695-.372l-.238-.112-.253 1.568a5.5 5.5 0 002.014.372c1.9 0 3.129-.936 3.144-2.386.007-.8-.476-1.4-1.516-1.9-.632-.32-1.019-.535-1.019-.862.007-.3.327-.6 1.04-.6a3.069 3.069 0 011.345.267l.163.074.246-1.508zm2.397 4.341c.149-.4.721-1.954.721-1.954s.148-.409.238-.669l.126.6s.342 1.672.416 2.021zm2.23-4.511h-1.4a.891.891 0 00-.944.58l-2.683 6.406h1.9l.379-1.048h2.319c.052.245.216 1.048.216 1.048h1.667L25.8 7.356zm-14.493 0l-1.769 4.763-.193-.966a5.346 5.346 0 00-2.5-2.928l1.62 6.109h1.91l2.839-6.978z"/><path d="M7.897 7.355h-2.9l-.03.141a6.044 6.044 0 014.385 3.656l-.632-3.21a.747.747 0 00-.818-.587z"/></g><path fill="#ff5f00" d="M13.398 17.064h5.427v8.865h-5.427z"/><path d="M13.958 21.497a5.628 5.628 0 012.153-4.431 5.637 5.637 0 100 8.865 5.628 5.628 0 01-2.153-4.433z" fill="#eb001b"/><path d="M24.693 24.99v-.179h.082v-.04h-.186v.04h.074v.182zm.362 0v-.219h-.056l-.066.157-.066-.157h-.056v.219h.041v-.166l.061.142h.042l.061-.142v.166zm.176-3.493a5.637 5.637 0 01-9.121 4.431 5.637 5.637 0 000-8.865 5.637 5.637 0 019.121 4.431z" fill="#f79e1b"/></svg>