<svg xmlns="http://www.w3.org/2000/svg" width="32" height="32"><g transform="translate(.012 .342)"><circle cx="16" cy="16" r="16" transform="translate(-.012 -.342)" fill="#0a2f76"/><path d="M20.092 15.903H7.516a8.422 8.422 0 00.819 1.838h11.19a10.9 10.9 0 013.157 4.6H10.92a13.528 13.528 0 01-4.347-6.438q.152-.468.336-.918h13.177a14.491 14.491 0 002.049-1.839H7.831q.285-.472.606-.918h14.446a19.07 19.07 0 001.148-1.839h-14a13.466 13.466 0 011.058-.918H24.46a17.292 17.292 0 00.628-1.839H10.563a15.142 15.142 0 00-5.814 8.271 15.2 15.2 0 005.807 8.275h14.493s-.254-4.401-4.957-8.275z" fill="#fff"/></g></svg>