<svg xmlns="http://www.w3.org/2000/svg" width="47.318" height="55.873"><path d="M46.999 17.424a1.091 1.091 0 000-1.545l-5.812-5.8a1.092 1.092 0 00-1.542 0l-2.988 2.983a23.161 23.161 0 00-8.84-3.56 5.667 5.667 0 10-8.315 0 23.161 23.161 0 00-8.84 3.56l-2.988-2.983a1.092 1.092 0 00-1.542 0l-5.812 5.8a1.091 1.091 0 000 1.545L3.506 20.6a23.408 23.408 0 1040.311 0zm-6.583-5.031l4.267 4.259-2.1 2.093a23.839 23.839 0 00-4.155-4.372zM23.66 2.183a3.476 3.476 0 011.091 6.779V6.439a1.091 1.091 0 10-2.183 0v2.522a3.476 3.476 0 011.091-6.779zM2.636 16.652l4.27-4.259 1.985 1.981a23.839 23.839 0 00-4.155 4.372zM23.66 53.691A21.186 21.186 0 1144.885 32.5 21.23 21.23 0 0123.66 53.691z" fill="#020288"/><ellipse cx="16.696" cy="16.666" rx="16.696" ry="16.666" fill="#aca3e5" transform="translate(6.964 15.839)"/><path d="M23.66 21.37a1.091 1.091 0 01-1.091-1.091v-.377a1.091 1.091 0 012.183 0v.372a1.091 1.091 0 01-1.092 1.096zm0 24.825a1.091 1.091 0 01-1.091-1.091v-.372a1.091 1.091 0 112.183 0v.372a1.091 1.091 0 01-1.092 1.091zm12.601-12.598h-.372a1.091 1.091 0 010-2.183h.372a1.091 1.091 0 010 2.183zm-24.827 0h-.372a1.091 1.091 0 010-2.183h.372a1.091 1.091 0 110 2.183zm20.872-8.645a1.091 1.091 0 01-.772-1.863l.263-.263a1.091 1.091 0 111.543 1.543l-.263.263a1.089 1.089 0 01-.771.32zM14.751 42.506a1.091 1.091 0 01-.772-1.863l.263-.263a1.091 1.091 0 011.543 1.543l-.263.263a1.088 1.088 0 01-.771.32zm17.818 0a1.088 1.088 0 01-.772-.32l-.263-.263a1.091 1.091 0 011.543-1.543l.263.263a1.091 1.091 0 01-.772 1.863zM15.015 24.952a1.088 1.088 0 01-.772-.32l-.263-.263a1.091 1.091 0 011.543-1.543l.263.263a1.091 1.091 0 01-.772 1.863zm15.171 6.298h-2.759a3.782 3.782 0 00-2.514-2.513V25.32a1.091 1.091 0 00-2.183 0v3.417a3.766 3.766 0 104.7 4.7h2.759a1.091 1.091 0 100-2.183zm-6.363 2.675a1.584 1.584 0 111.584-1.584 1.585 1.585 0 01-1.584 1.584z" fill="#020288"/></svg>