<svg xmlns="http://www.w3.org/2000/svg" width="58.013" height="32.234"><g transform="rotate(90 29.006 29.007)"><rect width="13" height="27" rx="1" transform="translate(12.072 2.006)" fill="#aca2e4"/><path d="M31.102 18.384a1.133 1.133 0 00-1.133 1.133 1.133 1.133 0 101.133-1.133z" fill="#020688"/><path d="M29.175 0H9a3.064 3.064 0 00-3.06 3.06v23.4c-.18.244-.478.639-.771 1.026-1.083 1.431-2.72 3.594-3.7 5.131-1.92 3.034-1.957 6.067-.119 10.141q.019.043.042.084l2.4 4.345c.581 1.074 1.554 2.871 1.492 4.283v3.399a3.147 3.147 0 003.144 3.144h10.238a3.147 3.147 0 003.144-3.144l-.01-2.935a7.708 7.708 0 01.388-2.478 13.948 13.948 0 00.435-1.887c0-.02.006-.041.008-.061a14.634 14.634 0 00-.763-5.2c-.272-1.009-.561-2.086-.769-3.278h8.077a3.064 3.064 0 003.06-3.06V24.6a1.133 1.133 0 00-2.266 0v11.371a.8.8 0 01-.794.794H26.5V2.266h2.673a.8.8 0 01.794.794v11.367a1.133 1.133 0 102.266 0V3.06A3.064 3.064 0 0029.175 0zM18.666 55.747H8.427a.889.889 0 01-.877-.877v-3.328c.078-2.031-1.074-4.16-1.764-5.434L3.4 41.784c-1.507-3.358-1.508-5.591-.009-7.954.656-1.033 1.652-2.4 2.555-3.6v5.745A3.064 3.064 0 009 39.031h3.633v3.781a1.133 1.133 0 102.266 0V30.881a1.854 1.854 0 013.175-1.3 1.811 1.811 0 01.536 1.294c0 .388-.008 2.943-.054 4.129a20.349 20.349 0 00.1 2.935c0 .066.09.737.13 1a35.14 35.14 0 00.889 3.96 12.981 12.981 0 01.7 4.362 11.786 11.786 0 01-.368 1.571 9.936 9.936 0 00-.475 3.109v.012l.01 2.917a.889.889 0 01-.877.878zm5.57-18.982h-3.4c-.029-.535.039-5.493.041-5.878a4.061 4.061 0 00-1.195-2.905 4.12 4.12 0 00-7.048 2.9v5.885H9a.8.8 0 01-.794-.794V3.06A.8.8 0 019 2.266h15.236z" fill="#020688"/></g></svg>