<svg xmlns="http://www.w3.org/2000/svg" width="45.876" height="46.008"><path d="M41.228 14.59V9.333A22.735 22.735 0 0017.683.597a21.259 21.259 0 00-.772 3.164c-2.033 2.674-.976 6.767 2.308 6.064.747-.16 5.966-1.283 9.568 2.545a18.247 18.247 0 008.107 4.95zM25.489 37.696a1.714 1.714 0 003.061.245s3.232-4.691 3.232-5.146v-2.246a1.712 1.712 0 01.376-1.071l1.245-1.557a1.714 1.714 0 00-.457-2.54l-10.718-7.285a6.759 6.759 0 00-5.324.582 2.042 2.042 0 00-.479 3.308c4.582 4.317 1.066 7.382 2.72 7.97 1.282.456 3.6-.686 4.018.608zm-14.63-8.56l-.031.264a6.328 6.328 0 01-1.464 3.368 6.329 6.329 0 00-1.344 2.676l-.838 3.637A22.623 22.623 0 01.188 22.695 22.918 22.918 0 01.42 19.44a4.356 4.356 0 013.82 1.634l1.561 1.972a4.361 4.361 0 002.074 1.441 4.358 4.358 0 012.984 4.649z" fill="#aca3e5"/><g fill="none"><path d="M22.938.133A22.938 22.938 0 110 23.071 22.938 22.938 0 0122.938.133z"/><path d="M22.938 2.133A20.87 20.87 0 008.133 8.266 20.87 20.87 0 002 23.07a20.87 20.87 0 006.133 14.805 20.871 20.871 0 0014.805 6.133 20.871 20.871 0 0014.805-6.133 20.871 20.871 0 006.133-14.805 20.871 20.871 0 00-6.133-14.805 20.87 20.87 0 00-14.805-6.133m0-2c12.668 0 22.938 10.27 22.938 22.938s-10.27 22.938-22.938 22.938S0 35.739 0 23.07 10.27.133 22.938.133z" fill="#020688"/></g></svg>