<svg xmlns="http://www.w3.org/2000/svg" width="49.4" height="46.294"><circle cx="15.345" cy="15.345" r="15.345" fill="#7461d9" transform="translate(9.355 7.802)" opacity=".535"/><path d="M46.662 26.422a.964.964 0 00-1.13.765A21.22 21.22 0 014 27.813l.252.252a.965.965 0 001.364-1.364l-1.984-1.984a.965.965 0 00-1.364 0L.283 26.7a.965.965 0 001.365 1.364L2 27.707a23.15 23.15 0 0045.422-.155.965.965 0 00-.76-1.13zm2.456-8.192a.965.965 0 00-1.364 0l-.357.357a23.15 23.15 0 00-45.422.155.965.965 0 001.895.365 21.22 21.22 0 0141.532-.625l-.252-.252a.966.966 0 00-1.369 1.364l1.984 1.984a.965.965 0 001.364 0l1.984-1.984a.964.964 0 000-1.364z" fill="#020288"/></svg>