<svg xmlns="http://www.w3.org/2000/svg" width="54.271" height="43.094"><path d="M26.282 1.06h1.707a6.829 6.829 0 016.829 6.829c0 3.772-1.03.778-4.8.778l-2.789 1.577c-3.447 0-7.128 2.941-7.776 0-.01.016 0-2.03 0-2.355a6.829 6.829 0 016.829-6.829z" fill="#aca3e5"/><path d="M27.857 41.285a1.059 1.059 0 10.311.749 1.068 1.068 0 00-.311-.749z" fill="#020688"/><path d="M48.606 23.493l-3.536-.845v-1.4a7 7 0 003.27-5.917v-3.95a6.992 6.992 0 00-12.23-4.635A9.345 9.345 0 0027.146.002a9.345 9.345 0 00-8.969 6.762A6.992 6.992 0 005.931 11.38v3.95a7 7 0 003.27 5.917v1.4l-3.536.845A7.355 7.355 0 000 30.67v7.125a1.06 1.06 0 001.06 1.06h8.476v3.18a1.06 1.06 0 001.06 1.06h11.628a1.06 1.06 0 000-2.12h-4.732V36.31a1.06 1.06 0 00-2.12 0v4.665h-3.716v-4.782a7.717 7.717 0 015.937-7.528l5.213-1.249 3.354 7.631a1.06 1.06 0 00.97.633 1.06 1.06 0 00.97-.633l3.351-7.62 5.2 1.242a7.716 7.716 0 015.943 7.529v1.183a1.062 1.062 0 000 .829v2.765H38.9V36.31a1.06 1.06 0 00-2.12 0v4.665h-5.193a1.06 1.06 0 000 2.12h12.066a1.06 1.06 0 001.06-1.06v-3.18h8.5a1.06 1.06 0 001.06-1.06V30.67a7.355 7.355 0 00-5.667-7.177zm-7.262-16.99a4.882 4.882 0 014.876 4.876v.369h-3.032a13.1 13.1 0 01-6.524-1.741 4.885 4.885 0 014.68-3.504zm-4.876 8.653l.006-2.85a15.217 15.217 0 006.714 1.562h3.032v1.461a4.876 4.876 0 01-9.752 0zm-16.53-5.828a7.208 7.208 0 0114.416 0v.138L30.42 7.155a1.06 1.06 0 00-1.349.233 8 8 0 01-6.15 2.87h-2.983zM8.051 11.641v-.263a4.876 4.876 0 019.556-1.372 13.1 13.1 0 01-6.524 1.741H8.051zm0 3.688v-1.466h3.032a15.217 15.217 0 006.72-1.565v3.026a4.876 4.876 0 01-9.752 0zm1.485 20.863v.543H6.36v-4.709a1.06 1.06 0 10-2.12 0v4.709H2.12V30.67a5.242 5.242 0 014.037-5.115l3.36-.8 2.193 5.253a9.84 9.84 0 00-2.174 6.184zm3.391-8.775l-1.61-3.854v-1.424a6.95 6.95 0 003.206 0v1.339c0 .02 0 .067.006.1zm4.172-.814a9.964 9.964 0 00-1.792.616l1.032-2.472 3.36.805a5.251 5.251 0 01.76.245zm5.261-2.209a7.36 7.36 0 00-2.166-.9l-3.548-.85v-1.39a7.046 7.046 0 002.191-2.184 9.4 9.4 0 003.524 3.768zm7.418 1.574l-2.647 6.019-2.651-6.031V23.77a9.335 9.335 0 005.3.01v2.183zm-2.632-3.929a7.216 7.216 0 01-7.208-7.208v-2.452h2.983a10.116 10.116 0 007.164-2.962l4.263 2.5v3.158a7.215 7.215 0 01-7.202 6.963zm4.752.816a9.394 9.394 0 003.548-3.769 7.05 7.05 0 002.179 2.166v1.39l-3.548.85a7.362 7.362 0 00-2.178.911v-1.55zm5.245 3.753l-3.352-.8a5.26 5.26 0 01.78-.253l3.352-.8 1.037 2.483a9.965 9.965 0 00-1.817-.632zm2.595-3.013a1.059 1.059 0 00.007-.116V22.14a6.948 6.948 0 003.206 0v1.405l-1.618 3.875zm12.413 13.142h-2.12v-4.709a1.06 1.06 0 10-2.12 0v4.709h-3.2V36.2a9.84 9.84 0 00-2.167-6.18l2.2-5.267 3.368.8a5.242 5.242 0 014.037 5.115z" fill="#020688"/><path d="M24.329 13.647a1.059 1.059 0 10.311.749 1.068 1.068 0 00-.311-.749zm7.088 0a1.059 1.059 0 10.311.749 1.068 1.068 0 00-.311-.749zm-2.241 3.568a1.06 1.06 0 00-1.5 0 .8.8 0 01-1.137 0 1.06 1.06 0 10-1.5 1.5 2.927 2.927 0 004.135 0 1.06 1.06 0 00.002-1.5z" fill="#020688"/></svg>