<svg xmlns="http://www.w3.org/2000/svg" width="51.255" height="35.164"><path d="M51.248 3.048A3.049 3.049 0 0048.2.004H7.747a3.041 3.041 0 00-3.041 3.043v1.742H3.041A3.041 3.041 0 000 7.827l.007 24.29a3.049 3.049 0 003.044 3.044h40.453a3.041 3.041 0 003.041-3.043v-1.742h1.668a3.041 3.041 0 003.041-3.043zm-7.009 29.811a1.032 1.032 0 01-.735.3H3.051a1.044 1.044 0 01-1.042-1.042L2 7.827a1.039 1.039 0 011.04-1.04h40.452a1.044 1.044 0 011.045 1.05l.007 24.29a1.033 1.033 0 01-.3.736zm4.709-4.784a1.033 1.033 0 01-.735.3h-1.668l-.006-20.538A3.049 3.049 0 0043.5 4.788H6.716V3.042a1.039 1.039 0 011.04-1.04h40.453a1.044 1.044 0 011.042 1.042l.007 24.29a1.033 1.033 0 01-.3.736z" fill="#020288"/><path d="M38.565 29.68a2.494 2.494 0 012.5-2.5V12.764a2.5 2.5 0 01-2.5-2.5H7.981a2.494 2.494 0 01-2.5 2.5V27.18a2.5 2.5 0 012.5 2.5z" fill="#aca2e4"/><path d="M24.553 19.158l-.417-.149v-2.933a1.34 1.34 0 01.664.445 1.001 1.001 0 101.639-1.15 3.52 3.52 0 00-2.3-1.354v-.155a1 1 0 00-2 0v.229q-.2.045-.4.106a3.255 3.255 0 00-2.22 2.855 3.037 3.037 0 001.852 3.025c.17.08.434.19.768.321v3.535a2.355 2.355 0 01-1.13-.712 1.001 1.001 0 10-1.559 1.256 4.573 4.573 0 002.689 1.52v.09a1 1 0 102 0v-.014a3.378 3.378 0 003.161-2.882 3.87 3.87 0 00-2.747-4.033zm-3.043-1.957a1.3 1.3 0 01.623-1.01v2.037a1.023 1.023 0 01-.623-1.027zm3.8 5.738a1.351 1.351 0 01-1.174 1.1v-2.892a1.82 1.82 0 011.174 1.792zm10.301-3.903h-3.272a1 1 0 000 2h3.272a1 1 0 000-2zm-21.262 0h-3.272a1 1 0 000 2h3.272a1 1 0 000-2z" fill="#020288"/></svg>