<svg xmlns="http://www.w3.org/2000/svg" width="32" height="32"><path d="M16 32A16 16 0 100 16a16 16 0 0016 16z" fill="#006ae3"/><path d="M16 22.606V10h1.372v12.606z" fill="#fff"/><path d="M22.7 13.954l-4.24 1.124-.945-4.4 1.26-.284.5 2.084a3.435 3.435 0 00-.382-3.824 3.01 3.01 0 00-2.336-1.2 3.233 3.233 0 00-3.567 2.582c-.26 1.552.033 2.7 2.033 4.2l-.112 1.673a11.937 11.937 0 01-2.811-2.673 4.8 4.8 0 01.17-5 4.979 4.979 0 014.785-2.23 4.641 4.641 0 013.972 5.342 8.34 8.34 0 01-.445 1.618l1.74-.387.378 1.372zm-2.421 9.864a4.99 4.99 0 01-4.843 2.1 4.64 4.64 0 01-3.83-5.446 8.29 8.29 0 01.488-1.6l-1.749.34L10 17.833l4.27-1.012.83 4.424-1.27.252-.442-2.1a3.437 3.437 0 00.279 3.833 3 3 0 002.306 1.26A3.233 3.233 0 0019.606 22c.3-1.543.036-2.7-1.921-4.258l.157-1.67a11.9 11.9 0 012.737 2.749 4.83 4.83 0 01-.303 4.997z" fill="#fff"/></svg>