<svg xmlns="http://www.w3.org/2000/svg" width="2561.415" height="690.82" preserveAspectRatio="none"><path d="M534.291 218.422L628.363 4.76h79.22v8.76h-9.521q-19.043 0-24.946 3.142t-7.9 11.711q-2 8.569-2 40.752v126.636q0 30.469 1.523 39.9t7.712 14q6.189 4.57 23.708 4.57h11.424v8.752h-123.4v-8.76h9.141q16.377 0 22.756-4.189t8.188-13.044q1.809-8.855 1.809-41.228V31.421L523.818 262.983h-8.95L411.845 31.421v151.2q0 31.04 1.9 42.275t11.811 19.711q9.9 8.474 27.8 9.617v8.759H361v-8.76q16.567-.952 26.946-9.045t12.664-19.9q2.285-11.807 2.285-43.8V69.126q0-30.85-1.809-39.8t-7.617-12.378q-5.808-3.428-25.422-3.428H361V4.76h78.648zm200.713-86.265q0-59.795 39.99-95.977T874.783 0q60.366 0 100.833 35.8t40.466 97.69q0 59.985-38.752 97.119t-101.979 37.135q-61.509 0-100.928-37.134t-39.419-98.452zm43.608 1.333q0 62.271 24.851 93.5t74.553 31.23q43.608 0 68.936-31.23t25.327-93.12q0-60.176-24.946-92.263T874.97 9.52q-46.655 0-71.506 31.326t-24.852 92.645zm279.742 126.827V177.29h9.521q16.187 81.123 76.743 81.123 27.231 0 42.18-15.52t14.949-34.753q0-19.424-13.14-32.563-13.14-12.949-47.988-27.8-31.04-13.33-46.846-23.328a71.137 71.137 0 01-24.661-25.994 69.308 69.308 0 01-8.855-34.087q0-27.612 19.138-45.989T1127.859.003a88.526 88.526 0 0130.85 5.332q14.473 5.332 29.707 22.09 8.76-10.474 9.9-22.661h8.379v67.6h-8.379q-7.236-29.517-25.613-46.465t-42.561-16.948q-23.042 0-33.8 12.473t-10.759 27.326q0 17.9 13.521 30.278 13.33 12.568 48.179 28.184 33.325 14.854 48.464 23.9a67.651 67.651 0 0124.28 25.042q9.141 16 9.141 36.943 0 33.135-22.09 53.892t-59.032 20.755q-42.466 0-70.84-32.563-6.284 8.95-9.331 25.137zM1458.637 4.76l2.095 64.365h-8.95q-2.667-21.142-11.899-34.942t-19.329-17.234q-10.093-3.428-34.087-3.428H1336v109.5h24.183q23.423 0 31.135-7.9t7.712-31.707h9.521v91.019h-9.521q0-16.567-3.333-26.184t-9.9-13.14q-6.57-3.523-25.613-3.523H1336v64.175q0 30.469 1.523 39.9t7.712 14q6.189 4.57 23.9 4.57h8.76v8.752h-119.971v-8.76h8q16.567 0 22.947-4.189t8.188-13.044q1.809-8.855 1.809-41.228V69.126q0-30.85-1.809-39.8t-7.617-12.378q-5.808-3.428-25.422-3.428h-4.57V4.76zm13.9 8.76V4.76h118.066v8.76h-5.52q-19.043 0-24.946 3.142t-7.9 11.711q-2 8.569-2 40.752v126.636q0 30.469 1.428 39.9t7.617 14q6.189 4.57 23.708 4.57h7.617v8.752h-118.069v-8.76h7.617q16.567 0 22.947-4.189t8.093-13.044q1.714-8.855 1.714-41.228V69.126q0-30.85-1.714-39.8t-7.617-12.378q-5.9-3.428-25.518-3.428zm350.581 169.1h9.141l-5.522 80.363h-213.854v-8.76h5.332q19.233 0 24.851-5.142a23.1 23.1 0 007.141-13.044q1.523-7.9 1.523-40.276V69.126q0-29.517-1.619-38.848t-7.428-13.045q-5.808-3.713-24.47-3.713V4.76h184.53l6.094 64.365h-8.95q-6.094-27.041-14.949-38.372t-21.042-14.282q-12.187-2.952-39.229-2.952h-35.8v108.354h27.422q18.853 0 26.375-3.237t9.9-9.807q2.38-6.57 2.38-25.613h8.95v88.359h-8.95q0-21.519-3.618-28.85t-10.569-9.521q-6.951-2.19-23.518-2.19h-28.374v61.129q0 45.894 5.9 53.987t31.8 8.093h19.233q20.376 0 33.516-5.237t25.042-21.519q11.908-16.284 18.763-44.845zm43.608 77.7v-83.03h9.521q16.189 81.123 76.745 81.123 27.231 0 42.18-15.52t14.949-34.753q0-19.424-13.14-32.563-13.14-12.949-47.988-27.8-31.04-13.33-46.846-23.328a71.137 71.137 0 01-24.661-25.994 69.308 69.308 0 01-8.855-34.087q0-27.612 19.138-45.989T1936.233.003a88.526 88.526 0 0130.85 5.332q14.473 5.332 29.707 22.09 8.76-10.474 9.9-22.661h8.379v67.6h-8.379q-7.236-29.517-25.613-46.465t-42.561-16.948q-23.042 0-33.8 12.473t-10.759 27.327q0 17.9 13.521 30.278 13.33 12.568 48.179 28.184 33.325 14.854 48.464 23.9a67.651 67.651 0 0124.28 25.042q9.141 16 9.141 36.943 0 33.135-22.09 53.892t-59.032 20.754q-42.466 0-70.84-32.563-6.284 8.95-9.331 25.137zm207.378-193.477h-8.76l1.333-62.08h250.606l1.333 62.08h-8.188q-4.38-25.518-12-36.848t-16.377-13.9q-8.76-2.571-29.9-2.571h-41.514v182.237q0 30.278 1.428 39.8t7.718 14.092q6.284 4.57 23.613 4.57h12.568v8.76h-128.73v-8.76h13.33q16.567 0 22.947-4.189t8.188-13.044q1.809-8.855 1.809-41.228V13.52h-38.276q-24.946 0-33.516 2.38t-16.091 14.377q-7.52 11.998-11.519 36.563zm389.05 100.925h-98.071l-6.665 16.377q-14.854 35.61-14.854 46.465 0 11.616 7.9 17.615t20.281 6v8.758h-76.743v-8.76q17.139-2.666 25.518-12.092t20.186-39.7q.952-2.856 9.141-22.09l75.029-179.194h7.427l86.265 205.093 11.807 27.041a35.95 35.95 0 0010.759 14.377q6.76 5.237 20.281 6.57v8.755h-101.5v-8.76q18.662 0 25.232-2.761t6.57-10.95q0-4.189-8.76-24.946zm-3.237-8.569l-45.7-110.068-45.513 110.068zM173.291 641.498l94.072-213.662h79.22v8.76h-9.521q-19.043 0-24.946 3.142t-7.9 11.711q-2 8.569-2 40.752v126.636q0 30.469 1.523 39.9t7.712 14q6.189 4.57 23.708 4.57h11.424v8.752h-123.4v-8.76h9.141q16.377 0 22.756-4.189t8.188-13.044q1.809-8.855 1.809-41.228V454.497L162.818 686.059h-8.95L50.845 454.497v151.2q0 31.04 1.9 42.275t11.811 19.711q9.9 8.474 27.8 9.617v8.759H0v-8.76q16.567-.952 26.946-9.045t12.664-19.9q2.285-11.807 2.285-43.8V492.202q0-30.85-1.809-39.8t-7.617-12.378q-5.808-3.428-25.422-3.428H0v-8.76h78.648zm200.713-86.265q0-59.795 39.99-95.977t99.789-36.18q60.366 0 100.833 35.8t40.466 97.69q0 59.985-38.752 97.119T514.351 690.82q-61.509 0-100.928-37.134t-39.419-98.452zm43.608 1.333q0 62.271 24.851 93.5t74.553 31.23q43.608 0 68.936-31.23t25.327-93.12q0-60.176-24.946-92.263t-72.363-32.087q-46.655 0-71.506 31.326t-24.852 92.645zm279.742 126.827v-83.027h9.521q16.187 81.123 76.743 81.123 27.231 0 42.18-15.52t14.949-34.753q0-19.424-13.14-32.563-13.14-12.949-47.988-27.8-31.04-13.33-46.846-23.328a71.137 71.137 0 01-24.661-25.994 69.308 69.308 0 01-8.855-34.087q0-27.612 19.138-45.989t48.464-18.376a88.526 88.526 0 0130.85 5.332q14.473 5.332 29.707 22.09 8.76-10.474 9.9-22.661h8.379v67.6h-8.379q-7.236-29.517-25.613-46.465t-42.561-16.948q-23.042 0-33.8 12.473t-10.759 27.326q0 17.9 13.521 30.278 13.33 12.568 48.179 28.184 33.325 14.854 48.464 23.9a67.651 67.651 0 0124.28 25.042q9.141 16 9.141 36.943 0 33.135-22.09 53.892t-59.032 20.755q-42.466 0-70.84-32.563-6.284 8.95-9.331 25.137zm400.283-255.557l2.095 64.365h-8.95q-2.667-21.142-11.899-34.942t-19.329-17.234q-10.093-3.428-34.087-3.428H975v109.5h24.183q23.423 0 31.135-7.9t7.712-31.707h9.521v91.019h-9.521q0-16.567-3.333-26.184t-9.9-13.14q-6.57-3.523-25.613-3.523H975v64.175q0 30.469 1.523 39.9t7.712 14q6.189 4.57 23.9 4.57h8.76v8.752H896.924v-8.76h8q16.567 0 22.947-4.189t8.188-13.044q1.809-8.855 1.809-41.228V492.202q0-30.85-1.809-39.8t-7.617-12.378q-5.808-3.428-25.422-3.428h-4.57v-8.76zm13.9 8.76v-8.76h118.066v8.76h-5.52q-19.043 0-24.946 3.142t-7.9 11.711q-2 8.569-2 40.752v126.636q0 30.469 1.428 39.9t7.617 14q6.189 4.57 23.708 4.57h7.617v8.752h-118.069v-8.76h7.617q16.567 0 22.947-4.189t8.093-13.044q1.714-8.855 1.714-41.228V492.202q0-30.85-1.714-39.8t-7.617-12.378q-5.9-3.428-25.518-3.428zm350.581 169.1h9.141l-5.522 80.363h-213.854v-8.76h5.332q19.233 0 24.851-5.142a23.1 23.1 0 007.141-13.044q1.523-7.9 1.523-40.276V492.202q0-29.517-1.619-38.848t-7.428-13.045q-5.808-3.713-24.47-3.713v-8.76h184.53l6.094 64.365h-8.95q-6.094-27.041-14.949-38.372t-21.042-14.282q-12.187-2.952-39.229-2.952h-35.8v108.354h27.422q18.853 0 26.375-3.237t9.9-9.807q2.38-6.57 2.38-25.613h8.95v88.359h-8.95q0-21.519-3.618-28.85t-10.569-9.521q-6.951-2.19-23.518-2.19h-28.374v61.129q0 45.894 5.9 53.987t31.8 8.093h19.233q20.376 0 33.516-5.237t25.042-21.519q11.908-16.284 18.763-44.845zm43.608 77.7v-83.03h9.521q16.189 81.123 76.745 81.123 27.231 0 42.18-15.52t14.949-34.753q0-19.424-13.14-32.563-13.14-12.949-47.988-27.8-31.04-13.33-46.846-23.328a71.137 71.137 0 01-24.661-25.994 69.308 69.308 0 01-8.855-34.087q0-27.612 19.138-45.989t48.464-18.376a88.526 88.526 0 0130.85 5.332q14.473 5.332 29.707 22.09 8.76-10.474 9.9-22.661h8.379v67.6h-8.379q-7.236-29.517-25.613-46.465t-42.561-16.948q-23.042 0-33.8 12.473t-10.759 27.327q0 17.9 13.521 30.278 13.33 12.568 48.179 28.184 33.325 14.854 48.464 23.9a67.651 67.651 0 0124.28 25.042q9.141 16 9.141 36.943 0 33.135-22.09 53.892t-59.032 20.754q-42.466 0-70.84-32.563-6.284 8.95-9.331 25.137zm207.378-193.477h-8.76l1.333-62.08h250.606l1.333 62.08h-8.188q-4.38-25.518-12-36.848t-16.377-13.9q-8.76-2.571-29.9-2.571h-41.514v182.237q0 30.278 1.428 39.8t7.718 14.092q6.284 4.57 23.613 4.57h12.568v8.76h-128.73v-8.76h13.33q16.567 0 22.947-4.189t8.188-13.044q1.809-8.855 1.809-41.228V436.596h-38.276q-24.946 0-33.516 2.38t-16.091 14.377q-7.52 11.998-11.519 36.563zm389.05 100.925h-98.071l-6.665 16.377q-14.854 35.61-14.854 46.465 0 11.616 7.9 17.615t20.281 6v8.758h-76.743v-8.76q17.139-2.666 25.518-12.092t20.186-39.7q.952-2.856 9.141-22.09l75.029-179.194h7.427l86.265 205.093 11.807 27.041a35.95 35.95 0 0010.759 14.377q6.76 5.237 20.281 6.57v8.755h-101.5v-8.76q18.662 0 25.232-2.761t6.57-10.95q0-4.189-8.76-24.946zm-3.237-8.569l-45.7-110.068-45.513 110.068z" opacity=".075" fill="#707070"/></svg>