<svg xmlns="http://www.w3.org/2000/svg" width="98.303" height="19.502" preserveAspectRatio="none"><path d="M15.958 3.225h-3.647l-4.332 7.09-4.332-7.09H0v15.958h3.648V9.904l4.126 6.771h.41l4.126-6.771v9.279h3.648zm8.093 16.277a5.975 5.975 0 006.041-6.019 5.975 5.975 0 00-6.041-6.017 5.975 5.975 0 00-6.041 6.019 5.975 5.975 0 006.041 6.018zm0-3.328a2.557 2.557 0 01-2.622-2.69 2.557 2.557 0 012.622-2.69 2.557 2.557 0 012.622 2.69 2.557 2.557 0 01-2.622 2.69zm10.989-5.061c0-.41.365-.638.957-.638a1.655 1.655 0 011.527 1l2.918-1.573A4.987 4.987 0 0036 7.466c-2.371 0-4.468 1.254-4.468 3.739 0 3.944 5.608 3.283 5.608 4.537 0 .456-.41.707-1.231.707a1.872 1.872 0 01-1.938-1.345L31 16.79c.889 1.847 2.622 2.713 4.9 2.713 2.462 0 4.742-1.117 4.742-3.739.006-4.218-5.602-3.351-5.602-4.651zm17.691-3.328h-6.338c0-1.322.844-1.6 2.12-1.6a26.214 26.214 0 012.85.182V3.221a13.818 13.818 0 00-2.85-.319c-3.784 0-5.54 1.687-5.54 4.879h-1.527v3.285h1.527v8.116h3.42v-8.116h2.918v8.116h3.42zm5.563 7.067h8.093a6.627 6.627 0 00.137-1.368 5.755 5.755 0 00-5.792-6.018 5.844 5.844 0 00-6.064 6.019c0 3.4 2.417 6.019 6.315 6.019a5.784 5.784 0 004.97-2.348l-2.736-1.573a2.976 2.976 0 01-2.189.866 2.594 2.594 0 01-2.735-1.597zm-.068-2.553a2.353 2.353 0 012.485-1.8 2.347 2.347 0 012.417 1.8zm13.017-1.185c0-.41.365-.638.957-.638a1.655 1.655 0 011.527 1l2.918-1.573A4.987 4.987 0 0072.2 7.466c-2.371 0-4.468 1.254-4.468 3.739 0 3.944 5.608 3.283 5.608 4.537 0 .456-.41.707-1.231.707a1.872 1.872 0 01-1.938-1.345l-2.964 1.687c.889 1.847 2.622 2.713 4.9 2.713 2.462 0 4.742-1.117 4.742-3.739.001-4.219-5.607-3.352-5.607-4.652zm13.657-.048V7.783h-2.35V4.591l-3.42 1.026v2.166h-1.824v3.283h1.824v4.035c0 3.192 1.3 4.537 5.768 4.081v-3.1c-1.5.091-2.348 0-2.348-.98v-4.036zm9.985-3.283v1.071a4.282 4.282 0 00-3.399-1.388 5.724 5.724 0 00-5.449 6.019 5.724 5.724 0 005.449 6.019 4.282 4.282 0 003.4-1.391v1.071h3.42v-11.4zm-2.715 8.483a2.6 2.6 0 01-2.713-2.781 2.6 2.6 0 012.713-2.781 2.6 2.6 0 012.713 2.781 2.6 2.6 0 01-2.713 2.781z"/><g fill="#fff"><path d="M51.91 8.001L54.195 1.5h4.218v4.218L51.911 8z"/><path d="M56.912 3h-1.655l-.896 2.55 2.551-.895V3m3-3v6.78L49.46 10.453 53.13 0h6.781z" fill="#cd1012"/></g></svg>