<svg xmlns="http://www.w3.org/2000/svg" width="304" height="36" preserveAspectRatio="none"><g fill="none"><path d="M33.138 34.054l-.084-29.4h-5.586l-10.836 18.27-11-18.27H0v29.4h6.384V16.792l8.61 14.154h3.066l8.654-14.532.04 17.64h6.384zm17.262.336c7.182 0 12.39-4.83 12.39-11.634S57.582 11.122 50.4 11.122s-12.432 4.832-12.432 11.632S43.214 34.39 50.4 34.39zm0-5.376c-3.276 0-5.8-2.352-5.8-6.258s2.52-6.258 5.8-6.258 5.754 2.356 5.754 6.256-2.478 6.26-5.754 6.26zm24.36 5.376c6.762 0 10.668-2.982 10.668-7.182 0-8.9-13.65-5.166-13.65-9.03 0-1.176 1.26-2.1 4.2-2.1 2.28-.022 4.525.558 6.51 1.68l2.184-4.662a18.58 18.58 0 00-8.694-1.974c-6.594 0-10.458 3.024-10.458 7.308 0 9.03 13.65 5.25 13.65 8.946 0 1.26-1.134 2.058-4.158 2.058a15.46 15.46 0 01-7.854-2.18l-2.184 4.7a19.4 19.4 0 009.786 2.436zm37.59-26.082a3.767 3.767 0 004.074-3.78c0-2.016-1.638-3.528-4.074-3.528s-4.074 1.6-4.074 3.654 1.638 3.654 4.074 3.654zM99.624 7.72a4.59 4.59 0 012.646.8l1.722-4.746a9.29 9.29 0 00-5-1.218c-5.628 0-8.736 3.318-8.736 8.4v1.008h-3.484v5.04h3.486v17.05h6.556V17.002h5.628v-5.04h-5.8v-.966c0-2.226 1.05-3.276 2.982-3.276zm9.45 26.334h6.552v-22.6h-6.552v22.6zM143.85 22.84c0-7.266-5.124-11.718-11.76-11.718-6.888 0-12.054 4.872-12.054 11.634 0 6.72 5.082 11.634 12.894 11.634 4.074 0 7.224-1.26 9.324-3.654l-3.486-3.782a7.66 7.66 0 01-5.67 2.184c-3.444 0-5.838-1.722-6.468-4.536h17.094c.042-.548.126-1.258.126-1.762zm-11.718-6.762a5.37 5.37 0 015.544 4.7h-11.13a5.35 5.35 0 015.586-4.7zM155.82 34.39c6.762 0 10.668-2.982 10.668-7.182 0-8.9-13.65-5.166-13.65-9.03 0-1.176 1.26-2.1 4.2-2.1 2.28-.022 4.525.558 6.51 1.68l2.184-4.662a18.58 18.58 0 00-8.694-1.974c-6.594 0-10.458 3.024-10.458 7.308 0 9.03 13.65 5.25 13.65 8.946 0 1.26-1.134 2.058-4.158 2.058a15.46 15.46 0 01-7.858-2.18l-2.18 4.7a19.4 19.4 0 009.786 2.436zm27.51-6.048a4.417 4.417 0 01-2.646.84c-1.764 0-2.814-1.05-2.814-2.982V17h5.628v-5.04h-5.628v-5.5h-6.556v5.5h-3.486V17h3.486v9.284c0 5.376 3.108 8.106 8.442 8.106a9.366 9.366 0 005.334-1.428l-1.76-4.62zm14.574-17.22a17.37 17.37 0 00-9.744 2.73l2.354 4.578a10.862 10.862 0 016.51-2.1c3.528 0 5.208 1.638 5.208 4.452h-5.208c-6.888 0-9.7 2.772-9.7 6.762 0 3.906 3.15 6.846 8.442 6.846 3.318 0 5.67-1.092 6.888-3.15v2.814h6.132V21.16c-.004-6.846-3.994-10.038-10.882-10.038zm-.5 18.858c-2.31 0-3.7-1.092-3.7-2.73 0-1.512.966-2.646 4.032-2.646h4.494v2.31a4.83 4.83 0 01-4.83 3.066h.004zm28.346-5.126h11.886v-5.25H225.75v5.25zm32.214-16.546a3.767 3.767 0 004.074-3.78c0-2.016-1.638-3.528-4.074-3.528s-4.074 1.6-4.074 3.654 1.638 3.654 4.074 3.654zm-3.276 25.746h6.552v-22.6h-6.552v22.6zm25.452-5.712a4.417 4.417 0 01-2.646.84c-1.764 0-2.814-1.05-2.814-2.982V17h5.628v-5.04h-5.628v-5.5h-6.552v5.5h-3.486V17h3.486v9.284c0 5.376 3.108 8.106 8.442 8.106a9.366 9.366 0 005.334-1.428l-1.764-4.62zm13.062 6.048c6.762 0 10.668-2.982 10.668-7.182 0-8.9-13.65-5.166-13.65-9.03 0-1.176 1.26-2.1 4.2-2.1 2.28-.022 4.525.558 6.51 1.68l2.184-4.662a18.58 18.58 0 00-8.694-1.974c-6.594 0-10.458 3.024-10.458 7.308 0 9.03 13.65 5.25 13.65 8.946 0 1.26-1.134 2.058-4.158 2.058a15.46 15.46 0 01-7.854-2.18l-2.186 4.7a19.4 19.4 0 009.788 2.436z" fill="#000"/><path fill="#000" d="M112.866 18.397l5.915-16.84h10.925v10.925z"/><path d="M128.206 3.057h-8.362l-4.527 12.889 12.889-4.527V3.057m3-3v13.488l-20.79 7.303L117.718.057h13.488z" fill="#ff5086"/></g></svg>