<svg width="1921" height="630" xmlns="http://www.w3.org/2000/svg" preserveAspectRatio="none"><defs><linearGradient x1="50%" y1="100%" x2="50%" y2="9.3%" id="linearGradient-1"><stop stop-color="#DA98E0" offset="0%"/><stop stop-color="#80347D" offset="66.2%"/><stop stop-color="#F5ACFF" offset="100%"/></linearGradient></defs><g id="Page-1" stroke="none" stroke-width="1" fill="none" fill-rule="evenodd"><g id="promo-layer-4" fill="url(#linearGradient-1)" fill-rule="nonzero"><path d="M1768.884 116.85c-61.034 22.757-120.747 52.483-198.931 53.661-98.827 1.493-169.223-42.667-219.083-82.367-49.86-39.7-113.915-84.868-212.613-87.53-70.95-1.921-134.982 19.969-181.736 44.854-46.754 24.885-83.888 54.018-138.707 75.044-54.8 21.037-136.323 32.307-197.058 15.149-67.672-19.127-82.866-64.822-150.645-83.871-61.862-17.385-143.686-5.461-201.973 14.428-58.287 19.889-104.552 47.012-166.286 64.496C70.761 139.519 36.22 145.297.5 148.16v481.143h1920V75.343c-54.416 10.425-105.691 24.384-151.616 41.507z" id="Path"/></g></g></svg>