<svg width="1920" height="710" xmlns="http://www.w3.org/2000/svg" preserveAspectRatio="none"><defs><linearGradient x1="50%" y1="100%" x2="50%" y2="0%" id="linearGradient-1"><stop stop-color="#D8CCFF" offset="0%"/><stop stop-color="#FFD2CC" offset="78.8%"/><stop stop-color="#958CFF" offset="100%"/></linearGradient></defs><g id="Page-1" stroke="none" stroke-width="1" fill="none" fill-rule="evenodd"><g id="promo-layer-2" fill="url(#linearGradient-1)" fill-rule="nonzero"><path d="M1920 0v709.554H0V3.1a375.687 375.687 0 0116.768-.618c98.528-1.457 162.592 34.539 247.76 51.773 112.544 22.776 255.36 11.083 377.744-4.45 122.384-15.533 251.376-34.622 378.464-24.622 94.352 7.434 171.968 29.909 258.432 44.959 86.464 15.05 201.168 21.339 272.624-1.283 41.088-13 58.864-32.975 98.9-46.369 54.912-18.38 138.48-20.61 214.752-21.8C1883.472.409 1901.712.145 1920 0z" id="Path"/></g></g></svg>