<svg xmlns="http://www.w3.org/2000/svg" width="52" height="67" preserveAspectRatio="none"><defs><linearGradient x1="119.3%" y1="100%" x2="-48.4%" y2="0%" id="A"><stop stop-color="#9152e5" offset="0%"/><stop stop-color="#00a592" offset="100%"/><stop offset="100%"/></linearGradient></defs><path d="M34.12 26.5c5.702.93 10.072 3.053 13.109 6.368a17.56 17.56 0 014.556 12.319 19.44 19.44 0 01-2.975 10.456 20.728 20.728 0 01-9.065 7.67A34.737 34.737 0 0124.823 66.2c-4.569 0-9.117-.611-13.523-1.818A34.84 34.84 0 010 59.222l5.857-11.528a28.391 28.391 0 008.6 4.323 33.151 33.151 0 009.994 1.534c3.781 0 6.756-.728 8.925-2.185a7.02 7.02 0 003.254-6.183c0-5.333-4.06-8-12.179-8h-6.88v-9.948l13.388-15.154H3.254V0H48.81v9.762L34.12 26.5z" fill="url(#A)"/></svg>