<svg xmlns="http://www.w3.org/2000/svg" width="53" height="68" preserveAspectRatio="none"><defs><linearGradient x1="119.3%" y1="100%" x2="-48.4%" y2="0%" id="A"><stop stop-color="#9152e5" offset="0%"/><stop stop-color="#00a592" offset="100%"/><stop offset="100%"/></linearGradient></defs><path d="M52.157 54.923V67.2H2.975v-9.762l25.1-23.708a26.655 26.655 0 005.392-6.554 11.923 11.923 0 001.395-5.439 7.19 7.19 0 00-2.65-6c-1.767-1.395-4.354-2.092-7.763-2.092a17.816 17.816 0 00-7.717 1.627 14.772 14.772 0 00-5.764 4.881L0 13.086a25.74 25.74 0 0110.506-8.879A35.088 35.088 0 0125.846.999 31.54 31.54 0 0138.537 3.37a19.56 19.56 0 018.46 6.694 17.32 17.32 0 013.022 10.18c.02 3.442-.742 6.844-2.231 9.948s-4.369 6.633-8.646 10.6l-14.97 14.131h27.985z" fill="url(#A)"/></svg>