<?xml version="1.0" encoding="utf-8"?><svg viewBox="0 0 492 492" xmlns="http://www.w3.org/2000/svg" xmlns:xlink="http://www.w3.org/1999/xlink"><style>:root>svg{display:none}:root>svg:target{display:block}</style><svg viewBox="0 0 13.503 23.619" id="arrow-next" xmlns="http://www.w3.org/2000/svg"><path d="M9.432 11.806L.495 2.876A1.688 1.688 0 012.886.492l10.125 10.114a1.685 1.685 0 01.049 2.327L2.893 23.127a1.688 1.688 0 01-2.391-2.384z"/></svg><svg viewBox="0 0 13.503 23.619" id="arrow-prev" xmlns="http://www.w3.org/2000/svg"><path d="M4.07 11.806l8.937-8.93A1.688 1.688 0 0010.616.492L.491 10.606a1.685 1.685 0 00-.049 2.327l10.167 10.193A1.688 1.688 0 0013 20.742z"/></svg><svg viewBox="0 0 492 492" id="cross" xmlns="http://www.w3.org/2000/svg"><path d="M300.188 246L484.14 62.04c5.06-5.064 7.852-11.82 7.86-19.024 0-7.208-2.792-13.972-7.86-19.028L468.02 7.872C462.952 2.796 456.196.016 448.984.016c-7.2 0-13.956 2.78-19.024 7.856L246.008 191.82 62.048 7.872C56.988 2.796 50.228.016 43.02.016c-7.2 0-13.96 2.78-19.02 7.856L7.872 23.988c-10.496 10.496-10.496 27.568 0 38.052L191.828 246 7.872 429.952C2.808 435.024.02 441.78.02 448.984c0 7.204 2.788 13.96 7.852 19.028l16.124 16.116c5.06 5.072 11.824 7.856 19.02 7.856 7.208 0 13.968-2.784 19.028-7.856l183.96-183.952 183.952 183.952c5.068 5.072 11.824 7.856 19.024 7.856h.008c7.204 0 13.96-2.784 19.028-7.856l16.12-16.116c5.06-5.064 7.852-11.824 7.852-19.028 0-7.204-2.792-13.96-7.852-19.028L300.188 246z"/></svg><svg viewBox="0 0 30.929 13.797" id="double-line" xmlns="http://www.w3.org/2000/svg"><path d="M13.089.707L.707 13.089M30.222.707L17.84 13.089"/></svg><svg viewBox="0 0 15.538 15.538" id="facebook" xmlns="http://www.w3.org/2000/svg"><path d="M14.68 0H.857A.858.858 0 000 .857v13.824a.858.858 0 00.858.857H8.3V9.529H6.282V7.177H8.3V5.446a2.825 2.825 0 013.016-3.1 16.6 16.6 0 011.809.092v2.1h-1.234c-.974 0-1.163.463-1.163 1.142v1.5h2.329l-.3 2.352h-2.029v6.009h3.952a.857.857 0 00.858-.857V.857A.857.857 0 0014.68 0zm0 0"/></svg><svg viewBox="0 0 16.376 16.379" id="instagram" xmlns="http://www.w3.org/2000/svg"><path d="M16.334 4.816a5.985 5.985 0 00-.383-1.987 4.2 4.2 0 00-2.4-2.4A6 6 0 0011.57.051C10.693.01 10.415 0 8.191 0s-2.5.01-3.376.048a5.987 5.987 0 00-1.987.381 4 4 0 00-1.453.947 4.033 4.033 0 00-.943 1.449 6 6 0 00-.381 1.987C.009 5.689 0 5.967 0 8.191s.01 2.5.048 3.376a5.985 5.985 0 00.381 1.987 4.2 4.2 0 002.4 2.4 6 6 0 001.987.381c.873.038 1.152.048 3.376.048s2.5-.009 3.376-.048a5.984 5.984 0 001.983-.384 4.19 4.19 0 002.4-2.4 6.005 6.005 0 00.381-1.987c.038-.874.048-1.152.048-3.376s0-2.5-.042-3.376zM14.859 11.5a4.489 4.489 0 01-.282 1.52 2.717 2.717 0 01-1.555 1.555 4.505 4.505 0 01-1.52.281c-.864.038-1.123.048-3.308.048s-2.443-.004-3.308-.045a4.487 4.487 0 01-1.52-.281 2.52 2.52 0 01-.941-.611 2.547 2.547 0 01-.611-.941 4.506 4.506 0 01-.281-1.52c-.038-.864-.048-1.123-.048-3.309s.009-2.448.048-3.308a4.487 4.487 0 01.281-1.52 2.49 2.49 0 01.614-.941 2.543 2.543 0 01.941-.611 4.508 4.508 0 011.52-.282c.862-.035 1.123-.047 3.308-.047s2.448.01 3.309.048a4.489 4.489 0 011.52.282 2.519 2.519 0 01.941.611 2.546 2.546 0 01.611.941 4.508 4.508 0 01.282 1.52c.038.864.048 1.123.048 3.308s-.01 2.441-.048 3.305zm0 0"/><path d="M8.192 3.984A4.208 4.208 0 1012.4 8.192a4.209 4.209 0 00-4.208-4.208zm0 6.937a2.729 2.729 0 112.729-2.729 2.73 2.73 0 01-2.729 2.729zm5.355-7.104a.982.982 0 11-.982-.982.982.982 0 01.982.982zm0 0"/></svg><svg viewBox="0 0 27 27" id="toggle" xmlns="http://www.w3.org/2000/svg"><path d="M9.323 0h-6.2A3.126 3.126 0 000 3.122v6.2a3.126 3.126 0 003.122 3.122h6.2a3.126 3.126 0 003.122-3.122v-6.2A3.126 3.126 0 009.323 0zm1.013 9.323a1.014 1.014 0 01-1.013 1.013h-6.2a1.014 1.014 0 01-1.014-1.013v-6.2a1.014 1.014 0 011.013-1.014h6.2a1.014 1.014 0 011.013 1.013zM23.836 0h-6.117a3.168 3.168 0 00-3.164 3.164v6.117a3.168 3.168 0 003.164 3.164h6.117A3.168 3.168 0 0027 9.281V3.164A3.168 3.168 0 0023.836 0zm1.055 9.281a1.056 1.056 0 01-1.055 1.055h-6.117a1.056 1.056 0 01-1.055-1.055V3.164a1.056 1.056 0 011.055-1.055h6.117a1.056 1.056 0 011.055 1.055zM9.323 14.555h-6.2A3.126 3.126 0 000 17.677v6.2a3.126 3.126 0 003.122 3.122h6.2a3.126 3.126 0 003.122-3.122v-6.2a3.126 3.126 0 00-3.121-3.122zm1.013 9.323a1.014 1.014 0 01-1.013 1.013h-6.2a1.014 1.014 0 01-1.013-1.013v-6.2a1.014 1.014 0 011.013-1.013h6.2a1.014 1.014 0 011.013 1.013zm13.5-9.323h-6.117a3.168 3.168 0 00-3.164 3.164v6.117A3.168 3.168 0 0017.719 27h6.117A3.168 3.168 0 0027 23.836v-6.117a3.168 3.168 0 00-3.164-3.164zm1.055 9.281a1.056 1.056 0 01-1.055 1.055h-6.117a1.056 1.056 0 01-1.055-1.055v-6.117a1.056 1.056 0 011.055-1.055h6.117a1.056 1.056 0 011.055 1.055z"/></svg><svg viewBox="0 0 18.031 14.654" id="twitter" xmlns="http://www.w3.org/2000/svg"><path d="M5.67 14.654a10.454 10.454 0 0010.526-10.53q0-.24-.01-.478a7.528 7.528 0 001.845-1.912 7.381 7.381 0 01-2.124.583A3.713 3.713 0 0017.534.271a7.419 7.419 0 01-2.349.9 3.7 3.7 0 00-2.7-1.169 3.7 3.7 0 00-3.7 3.7 3.7 3.7 0 00.1.844A10.5 10.5 0 011.254.677a3.691 3.691 0 00-.5 1.859A3.7 3.7 0 002.4 5.616a3.67 3.67 0 01-1.676-.463V5.2a3.7 3.7 0 002.968 3.624 3.713 3.713 0 01-.976.13 3.677 3.677 0 01-.7-.067 3.7 3.7 0 003.461 2.573 7.422 7.422 0 01-4.595 1.583A7.529 7.529 0 010 12.992a10.472 10.472 0 005.67 1.662"/></svg></svg>