<svg xmlns="http://www.w3.org/2000/svg" width="110.407" height="110.407" preserveAspectRatio="none"><circle cx="2.905" cy="2.905" fill="#ccc" r="2.905"/><circle cx="2.905" cy="2.905" transform="translate(0 69.731)" fill="#ccc" r="2.905"/><circle cx="2.905" cy="2.905" transform="translate(0 34.865)" fill="#ccc" r="2.905"/><circle cx="2.905" cy="2.905" transform="translate(0 104.596)" fill="#ccc" r="2.905"/><circle cx="2.905" cy="2.905" transform="translate(69.731)" fill="#ccc" r="2.905"/><circle cx="2.905" cy="2.905" transform="translate(69.731 69.731)" fill="#ccc" r="2.905"/><circle cx="2.905" cy="2.905" transform="translate(69.731 34.865)" fill="#ccc" r="2.905"/><circle cx="2.905" cy="2.905" transform="translate(69.731 104.596)" fill="#ccc" r="2.905"/><circle cx="2.905" cy="2.905" transform="translate(34.865)" fill="#ccc" r="2.905"/><circle cx="2.905" cy="2.905" transform="translate(34.865 69.731)" fill="#ccc" r="2.905"/><circle cx="2.905" cy="2.905" transform="translate(34.865 34.865)" fill="#ccc" r="2.905"/><circle cx="2.905" cy="2.905" transform="translate(34.865 104.596)" fill="#ccc" r="2.905"/><circle cx="2.905" cy="2.905" transform="translate(104.596)" fill="#ccc" r="2.905"/><circle cx="2.905" cy="2.905" transform="translate(104.596 69.731)" fill="#ccc" r="2.905"/><circle cx="2.905" cy="2.905" transform="translate(104.596 34.865)" fill="#ccc" r="2.905"/><circle cx="2.905" cy="2.905" transform="translate(104.596 104.596)" fill="#ccc" r="2.905"/></svg>