<svg xmlns="http://www.w3.org/2000/svg" width="79.123" height="79.123" preserveAspectRatio="none"><path d="M2.082 0A2.082 2.082 0 110 2.082 2.082 2.082 0 012.082 0z" fill="#fff"/><path d="M2.082 49.972A2.082 2.082 0 110 52.054a2.082 2.082 0 012.082-2.082z" fill="#f89808"/><path d="M2.082 24.986A2.082 2.082 0 110 27.068a2.082 2.082 0 012.082-2.082z" fill="#fff"/><path d="M2.082 74.959A2.082 2.082 0 110 77.041a2.082 2.082 0 012.082-2.082zM52.054 0a2.082 2.082 0 11-2.082 2.082A2.082 2.082 0 0152.054 0zm0 49.972a2.082 2.082 0 11-2.082 2.082 2.082 2.082 0 012.082-2.082zm0-24.986a2.082 2.082 0 11-2.082 2.082 2.082 2.082 0 012.082-2.082zm0 49.973a2.082 2.082 0 11-2.082 2.082 2.082 2.082 0 012.082-2.082z" fill="#f89808"/><path d="M27.068 0a2.082 2.082 0 11-2.082 2.082A2.082 2.082 0 0127.068 0z" fill="#fff"/><path d="M27.068 49.972a2.082 2.082 0 11-2.082 2.082 2.082 2.082 0 012.082-2.082z" fill="#f89808"/><path d="M27.068 24.986a2.082 2.082 0 11-2.082 2.082 2.082 2.082 0 012.082-2.082z" fill="#fff"/><path d="M27.068 74.959a2.082 2.082 0 11-2.082 2.082 2.082 2.082 0 012.082-2.082zM77.041 0a2.082 2.082 0 11-2.082 2.082A2.082 2.082 0 0177.041 0zm0 49.972a2.082 2.082 0 11-2.082 2.082 2.082 2.082 0 012.082-2.082zm0-24.986a2.082 2.082 0 11-2.082 2.082 2.082 2.082 0 012.082-2.082zm0 49.973a2.082 2.082 0 11-2.082 2.082 2.082 2.082 0 012.082-2.082z" fill="#f89808"/></svg>