<svg xmlns="http://www.w3.org/2000/svg" width="768" height="614.502"><defs><filter id="b" x="315" y="114.166" width="356" height="145" filterUnits="userSpaceOnUse"><feOffset dy="25"/><feGaussianBlur stdDeviation="15" result="c"/><feFlood flood-opacity=".102"/><feComposite operator="in" in2="c"/><feComposite in="SourceGraphic"/></filter><filter id="d" x="0" y="204.166" width="341" height="145" filterUnits="userSpaceOnUse"><feOffset dy="25"/><feGaussianBlur stdDeviation="15" result="e"/><feFlood flood-opacity=".102"/><feComposite operator="in" in2="e"/><feComposite in="SourceGraphic"/></filter><filter id="f" x="34" y="350.166" width="341" height="145" filterUnits="userSpaceOnUse"><feOffset dy="25"/><feGaussianBlur stdDeviation="15" result="g"/><feFlood flood-opacity=".102"/><feComposite operator="in" in2="g"/><feComposite in="SourceGraphic"/></filter><filter id="h" x="366" y="295.166" width="402" height="145" filterUnits="userSpaceOnUse"><feOffset dy="25"/><feGaussianBlur stdDeviation="15" result="i"/><feFlood flood-opacity=".102"/><feComposite operator="in" in2="i"/><feComposite in="SourceGraphic"/></filter><filter id="j" x="349" y="433.166" width="245" height="145" filterUnits="userSpaceOnUse"><feOffset dy="25"/><feGaussianBlur stdDeviation="15" result="k"/><feFlood flood-opacity=".102"/><feComposite operator="in" in2="k"/><feComposite in="SourceGraphic"/></filter><clipPath id="a"><path d="M8.759 0A8.759 8.759 0 110 8.759 8.759 8.759 0 018.759 0z" fill="#826af9"/></clipPath></defs><path d="M356.47 0h1.136v6.041a2.5 2.5 0 01-.735 1.916 2.745 2.745 0 01-1.965.691 2.821 2.821 0 01-1.98-.65 2.349 2.349 0 01-.709-1.822h1.125a1.564 1.564 0 00.4 1.143 1.555 1.555 0 001.164.412 1.509 1.509 0 001.128-.439 1.7 1.7 0 00.437-1.23zm6.791 8.531a2.277 2.277 0 01-.152-.668 2.419 2.419 0 01-1.8.785 2.238 2.238 0 01-1.538-.53 1.716 1.716 0 01-.6-1.345 1.792 1.792 0 01.748-1.542 3.55 3.55 0 012.118-.548h1.055v-.5a1.217 1.217 0 00-.34-.905 1.366 1.366 0 00-1-.337 1.581 1.581 0 00-.973.293.863.863 0 00-.393.709h-1.091a1.5 1.5 0 01.337-.917 2.3 2.3 0 01.914-.7 3.075 3.075 0 011.269-.258 2.506 2.506 0 011.717.548 1.976 1.976 0 01.644 1.515v2.918a3.567 3.567 0 00.223 1.389v.093zm-1.8-.826a1.905 1.905 0 00.967-.264 1.6 1.6 0 00.662-.686v-1.3h-.85q-1.992 0-1.992 1.166a.987.987 0 00.34.8 1.306 1.306 0 00.875.284zm5.438-5.514l.035.8a2.31 2.31 0 011.9-.914q2.01 0 2.027 2.268v4.186h-1.084v-4.2a1.459 1.459 0 00-.313-1.014 1.256 1.256 0 00-.958-.328 1.564 1.564 0 00-.926.281 1.91 1.91 0 00-.621.738v4.523h-1.084v-6.34zM566.49 69.188h-3.585v3.768h-1.125v-8.531h5.285v.926h-4.16v2.918h3.585zm4.389 3.885a2.77 2.77 0 01-2.1-.847 3.142 3.142 0 01-.809-2.265v-.2a3.8 3.8 0 01.36-1.685 2.811 2.811 0 011.008-1.16 2.534 2.534 0 011.4-.419 2.374 2.374 0 011.922.814 3.526 3.526 0 01.686 2.332v.451h-4.294a2.254 2.254 0 00.548 1.515 1.722 1.722 0 001.333.577 1.888 1.888 0 00.972-.23 2.444 2.444 0 00.7-.621l.662.516a2.662 2.662 0 01-2.393 1.222zm-.14-5.683a1.446 1.446 0 00-1.1.478 2.321 2.321 0 00-.549 1.338h3.176v-.082a2.065 2.065 0 00-.445-1.28 1.361 1.361 0 00-1.082-.454zm9.229 2.466a3.77 3.77 0 01-.668 2.335 2.134 2.134 0 01-1.793.882 2.21 2.21 0 01-1.857-.85l-.053.733h-1v-9h1.084v3.357a2.2 2.2 0 011.811-.814 2.147 2.147 0 011.813.873 3.883 3.883 0 01.659 2.391zm-1.084-.123a2.929 2.929 0 00-.428-1.711 1.416 1.416 0 00-1.23-.6 1.591 1.591 0 00-1.541 1v2.734a1.636 1.636 0 001.553 1 1.408 1.408 0 001.213-.6 3.115 3.115 0 00.433-1.823zm89.8 232.368l2.789 6.961 2.789-6.961h1.459v8.531h-1.125v-3.322l.105-3.586-2.8 6.908h-.86l-2.8-6.891.111 3.568v3.323h-1.121v-8.531zm12.768 8.531a2.277 2.277 0 01-.152-.668 2.419 2.419 0 01-1.8.785 2.238 2.238 0 01-1.538-.53 1.716 1.716 0 01-.6-1.345 1.792 1.792 0 01.747-1.542 3.55 3.55 0 012.118-.548h1.055v-.5a1.217 1.217 0 00-.34-.905 1.366 1.366 0 00-1-.337 1.581 1.581 0 00-.973.293.863.863 0 00-.393.709h-1.09a1.5 1.5 0 01.337-.917 2.3 2.3 0 01.914-.7 3.075 3.075 0 011.269-.258 2.506 2.506 0 011.717.548 1.976 1.976 0 01.643 1.515v2.918a3.567 3.567 0 00.223 1.389v.093zm-1.8-.826a1.905 1.905 0 00.967-.264 1.6 1.6 0 00.662-.686v-1.3h-.85q-1.992 0-1.992 1.166a.987.987 0 00.34.8 1.306 1.306 0 00.874.284zm7.477-4.541a3.248 3.248 0 00-.533-.041 1.428 1.428 0 00-1.447.908v4.5h-1.084v-6.34h1.055l.018.732a1.688 1.688 0 011.512-.85 1.107 1.107 0 01.48.082zm-96.028 221.909h-3.573l-.803 2.227h-1.16l3.258-8.531h.984l3.264 8.531h-1.154zm-3.233-.925h2.9l-1.453-3.991zm11.533.052a3.8 3.8 0 01-.662 2.332 2.122 2.122 0 01-1.793.885 2.325 2.325 0 01-1.816-.732v3.053h-1.081v-8.778h.99l.053.7a2.233 2.233 0 011.84-.82 2.162 2.162 0 011.808.861 3.838 3.838 0 01.661 2.399zm-1.08-.123a2.8 2.8 0 00-.457-1.693 1.472 1.472 0 00-1.254-.621 1.593 1.593 0 00-1.477.873v3.029a1.6 1.6 0 001.488.867 1.465 1.465 0 001.239-.618 3.058 3.058 0 00.461-1.837zm5.525-2.145a3.248 3.248 0 00-.533-.041 1.428 1.428 0 00-1.447.908v4.501h-1.084v-6.34h1.055l.018.732a1.688 1.688 0 011.512-.85 1.107 1.107 0 01.48.082zm-249.497 79.378l2.789 6.961 2.789-6.961h1.459v8.531h-1.125v-3.322l.105-3.586-2.8 6.908h-.86l-2.8-6.891.111 3.568v3.323h-1.121v-8.531zm12.768 8.531a2.277 2.277 0 01-.152-.668 2.419 2.419 0 01-1.8.785 2.238 2.238 0 01-1.538-.53 1.716 1.716 0 01-.6-1.345 1.792 1.792 0 01.747-1.542 3.55 3.55 0 012.118-.548h1.055v-.5a1.217 1.217 0 00-.34-.905 1.366 1.366 0 00-1-.337 1.581 1.581 0 00-.973.293.863.863 0 00-.393.709h-1.09a1.5 1.5 0 01.337-.917 2.3 2.3 0 01.914-.7 3.075 3.075 0 011.269-.258 2.506 2.506 0 011.717.548 1.976 1.976 0 01.643 1.515v2.918a3.567 3.567 0 00.223 1.389v.093zm-1.8-.826a1.905 1.905 0 00.967-.264 1.6 1.6 0 00.662-.686v-1.3h-.85q-1.992 0-1.992 1.166a.987.987 0 00.34.8 1.306 1.306 0 00.874.284zm6.486-.762l1.478-4.752h1.16l-2.549 7.318q-.592 1.582-1.881 1.582l-.205-.018-.4-.076v-.879l.293.023a1.442 1.442 0 00.858-.223 1.611 1.611 0 00.507-.814l.24-.645-2.265-6.268h1.184zM111.472 520.87h1.136v6.041a2.5 2.5 0 01-.735 1.916 2.745 2.745 0 01-1.965.691 2.821 2.821 0 01-1.98-.65 2.349 2.349 0 01-.709-1.822h1.125a1.564 1.564 0 00.4 1.143 1.555 1.555 0 001.164.412 1.509 1.509 0 001.128-.439 1.7 1.7 0 00.437-1.23zm6.791 7.9a2.3 2.3 0 01-1.857.744 1.971 1.971 0 01-1.544-.589 2.549 2.549 0 01-.536-1.743v-4.121h1.082v4.1q0 1.44 1.174 1.44a1.623 1.623 0 001.652-.926v-4.614h1.084v6.34h-1.031zm3.727-5.709l.035.8a2.31 2.31 0 011.9-.914q2.01 0 2.027 2.268v4.186h-1.085v-4.2a1.459 1.459 0 00-.313-1.014 1.256 1.256 0 00-.958-.328 1.564 1.564 0 00-.926.281 1.91 1.91 0 00-.621.738v4.523h-1.084v-6.34zm-79.572-220.96h1.131v6.041a2.5 2.5 0 01-.735 1.916 2.745 2.745 0 01-1.96.691 2.821 2.821 0 01-1.98-.65 2.349 2.349 0 01-.709-1.822h1.125a1.414 1.414 0 001.564 1.555 1.509 1.509 0 001.128-.439 1.7 1.7 0 00.437-1.23zm6.791 7.9a2.3 2.3 0 01-1.857.744 1.971 1.971 0 01-1.544-.589 2.549 2.549 0 01-.536-1.743v-4.121h1.084v4.1q0 1.441 1.172 1.441a1.623 1.623 0 001.652-.926v-4.615h1.084v6.34h-1.032zm3.879.631H52v-9h1.084zm73.52-235.903h-3.573l-.803 2.227h-1.16l3.258-8.531h.984l3.264 8.531h-1.154zm-3.233-.925h2.9l-1.453-3.991zm10.033 2.525a2.3 2.3 0 01-1.857.744 1.971 1.971 0 01-1.543-.589 2.549 2.549 0 01-.536-1.743v-4.125h1.081v4.1q0 1.441 1.172 1.441a1.623 1.623 0 001.652-.926v-4.615h1.084v6.34h-1.032zm2.443-2.6a3.726 3.726 0 01.686-2.358 2.363 2.363 0 013.627-.056l.053-.7h.99v6.188a2.579 2.579 0 01-.729 1.939 2.692 2.692 0 01-1.96.709 3.261 3.261 0 01-1.342-.293 2.31 2.31 0 01-1-.8l.563-.65a2.12 2.12 0 001.705.861 1.661 1.661 0 001.233-.445 1.7 1.7 0 00.442-1.254v-.545a2.228 2.228 0 01-1.775.75 2.166 2.166 0 01-1.8-.9 3.918 3.918 0 01-.695-2.442zm1.09.123a2.843 2.843 0 00.439 1.685 1.428 1.428 0 001.23.612 1.588 1.588 0 001.506-.932v-2.89a1.606 1.606 0 00-1.494-.908 1.441 1.441 0 00-1.236.615 3.1 3.1 0 00-.447 1.822z" fill="#212529"/><g fill="none" stroke-miterlimit="10"><path d="M360.919 46.197l185.8 76.96 76.96 185.8-76.96 185.8-185.8 76.96-185.8-76.96-76.957-185.803 76.96-185.797z"/><path d="M360.919 47.28l-185.032 76.642-76.643 185.032 76.643 185.032 185.032 76.643 185.032-76.643 76.643-185.032-76.643-185.032L360.919 47.28m0-1.082l185.797 76.96 76.96 185.797-76.96 185.797-185.797 76.96-185.797-76.96-76.96-185.797 76.96-185.797 185.797-76.96z" fill="#e9ebf1"/></g><g fill="none" stroke-miterlimit="10"><path d="M360.919 96.246l150.407 62.3 62.3 150.407-62.3 150.407-150.407 62.3-150.408-62.299-62.3-150.407 62.3-150.408z"/><path d="M360.92 97.328l-149.643 61.984-61.984 149.642 61.984 149.642L360.92 520.58l149.642-61.984 61.984-149.642-61.984-149.642L360.92 97.328m0-1.082l150.407 62.3 62.301 150.408-62.3 150.407-150.408 62.301-150.407-62.3-62.301-150.408 62.3-150.407L360.92 96.246z" fill="#e9ebf1"/></g><g fill="none" stroke-miterlimit="10"><path d="M360.919 146.295l115.017 47.642 47.642 115.017-47.642 115.017-115.017 47.642-115.017-47.642-47.642-115.017 47.642-115.017z"/><path d="M360.92 147.377l-114.253 47.325-47.325 114.252 47.325 114.252 114.252 47.325 114.252-47.325 47.325-114.252-47.325-114.252-114.252-47.325m0-1.082l115.017 47.642 47.642 115.017-47.642 115.017-115.017 47.642-115.017-47.642-47.642-115.017 47.642-115.017 115.017-47.642z" fill="#e9ebf1"/></g><g fill="none" stroke-miterlimit="10"><path d="M360.919 196.344l79.627 32.983 32.983 79.627-32.983 79.627-79.627 32.983-79.627-32.982-32.983-79.628 32.983-79.627z"/><path d="M360.92 197.426l-78.863 32.666-32.666 78.862 32.666 78.862 78.862 32.666 78.862-32.666 32.666-78.862-32.666-78.862-78.862-32.666m0-1.082l79.628 32.983 32.982 79.627-32.982 79.628-79.628 32.982-79.627-32.982-32.983-79.628 32.983-79.627 79.627-32.983z" fill="#e9ebf1"/></g><g fill="none" stroke-miterlimit="10"><path d="M360.919 246.393l44.239 18.324 18.324 44.237-18.324 44.239-44.239 18.322-44.237-18.322-18.324-44.239 18.324-44.237z"/><path d="M360.92 247.475l-43.473 18.007-18.007 43.472 18.007 43.472 43.472 18.007 43.472-18.007 18.007-43.472-18.007-43.472-43.472-18.007m0-1.082l44.238 18.324 18.323 44.237-18.323 44.238-44.238 18.323-44.237-18.323-18.324-44.238 18.324-44.237 44.237-18.324z" fill="#e9ebf1"/></g><g fill="none" stroke-miterlimit="10"><path d="M360.419 46.197h1v180.52h-1z"/><path d="M360.419 46.197h1.003v180.52h-1.003V46.197z" fill="#e9ebf1"/><path d="M623.676 308.454v1H98.162v-1z"/><path d="M623.676 308.454v1.003H98.162v-1.003h525.514z" fill="#e9ebf1"/><path d="M546.362 122.803l.707.707-371.594 371.595-.708-.707z"/><path d="M546.362 122.803l.71.71-371.595 371.594-.71-.71 371.595-371.594z" fill="#e9ebf1"/><path d="M547.07 494.397l-.707.707L174.768 123.51l.707-.708z"/><path d="M547.07 494.397l-.71.71-371.594-371.595.71-.71L547.07 494.397z" fill="#e9ebf1"/></g><path d="M356.935 436.155l138.156 7.1 96.471-134.3-105.23-128.459-126.477-4.581-54.133 78.072-44.067 54.968 2.92 97z" fill="#964fff" opacity=".422"/><path d="M361.987 489.966l49.568-128.854 63.226-52.046-22.666-93.442-90.128-99.358-95.968 99.358-124.064 93.442 81.119 134.844z" fill="#02c5d7" opacity=".448"/><path d="M360.924 279.759a29.2 29.2 0 11-29.2 29.2 29.2 29.2 0 0129.2-29.2z" fill="#fff"/><path d="M360.92 300.196a8.759 8.759 0 11-8.759 8.759 8.759 8.759 0 018.759-8.759z" fill="#826af9"/><g transform="translate(0 -.004)" filter="url(#b)"><path d="M370 134.17h246a10 10 0 0110 10v35a10 10 0 01-10 10H370a10 10 0 01-10-10v-35a10 10 0 0110-10z" fill="#fff"/></g><path d="M390.25 161.572q-.6.125-1.109.2t-.895.109q-.387.035-.648.047t-.371.012a6.369 6.369 0 01-1.445-.141 3.47 3.47 0 01-.982-.375 1.956 1.956 0 01-.609-.547 2.454 2.454 0 01-.328-.648 2.8 2.8 0 01-.133-.68q-.03-.344-.03-.649v-4.219h2.3v3.641a3.193 3.193 0 00.109.918 1.147 1.147 0 00.352.559 1.358 1.358 0 00.639.277 5.087 5.087 0 00.941.074q.227 0 .52-.02t.594-.059q.3-.039.586-.1t.509-.125v-5.164h2.4v11.484h-2.4zm11.359 2.914a3.771 3.771 0 00.043.629 1.5 1.5 0 00.113.391.561.561 0 00.16.211.635.635 0 00.191.1v.349h-2.444a4.118 4.118 0 01-.137-.395 2.091 2.091 0 01-.074-.6q-.258.266-.5.492a2.817 2.817 0 01-.551.395 2.863 2.863 0 01-.7.266 4.09 4.09 0 01-.961.1 3.165 3.165 0 01-1.058-.168 2.33 2.33 0 01-.832-.5 2.225 2.225 0 01-.547-.82 3.078 3.078 0 01-.2-1.141 2.814 2.814 0 01.164-.973 2.441 2.441 0 01.465-.789 2.483 2.483 0 01.734-.562 3.081 3.081 0 01.973-.3l2.164-.32q.117-.016.254-.047a.807.807 0 00.254-.105.609.609 0 00.2-.2.668.668 0 00.078-.348 1.086 1.086 0 00-.066-.387.723.723 0 00-.223-.3 1.1 1.1 0 00-.418-.2 2.56 2.56 0 00-.652-.07 2.321 2.321 0 00-.715.09 1.044 1.044 0 00-.426.25.955.955 0 00-.227.375 2.492 2.492 0 00-.1.457h-2.212a2.571 2.571 0 01.051-.434 2.993 2.993 0 01.188-.605 3.239 3.239 0 01.383-.664 2.671 2.671 0 01.648-.613 3.6 3.6 0 01.98-.457 4.85 4.85 0 011.383-.187 6.1 6.1 0 011.848.23 2.9 2.9 0 011.1.6 1.868 1.868 0 01.531.828 3.162 3.162 0 01.137.91zm-2.209-2.476q-.2.109-.406.2a2.492 2.492 0 01-.539.152l-.586.109a5.3 5.3 0 00-.672.164 1.515 1.515 0 00-.48.246.978.978 0 00-.289.371 1.343 1.343 0 00-.1.547 1.188 1.188 0 00.086.473.877.877 0 00.238.328 1 1 0 00.355.191 1.481 1.481 0 00.438.063 2.4 2.4 0 00.32-.027 2.1 2.1 0 00.414-.105 2.263 2.263 0 00.438-.215 1.523 1.523 0 00.391-.355 1.822 1.822 0 00.281-.535 2.287 2.287 0 00.111-.751zm9.219-1.352a2.778 2.778 0 00-.172-.59 1.361 1.361 0 00-.285-.43 1.131 1.131 0 00-.43-.266 1.847 1.847 0 00-.613-.09 1.408 1.408 0 00-.887.258 1.715 1.715 0 00-.512.648 2.9 2.9 0 00-.238.852 6.9 6.9 0 00-.059.867 8.851 8.851 0 00.047.887 2.767 2.767 0 00.219.852 1.58 1.58 0 00.508.637 1.514 1.514 0 00.922.25 1.374 1.374 0 00.664-.152 1.571 1.571 0 00.469-.379 1.565 1.565 0 00.277-.484 1.438 1.438 0 00.09-.469h2.3a2.652 2.652 0 01-.074.547 3.562 3.562 0 01-.246.711 4.1 4.1 0 01-.457.754 3.166 3.166 0 01-.711.68 3.823 3.823 0 01-1 .492 4.149 4.149 0 01-1.32.191 4.636 4.636 0 01-1.723-.3 3.216 3.216 0 01-1.25-.871 3.843 3.843 0 01-.766-1.418 6.515 6.515 0 01-.262-1.93 5.981 5.981 0 01.29-1.923 3.955 3.955 0 01.811-1.416 3.4 3.4 0 011.262-.871 4.372 4.372 0 011.645-.3 5.468 5.468 0 01.809.063 4.046 4.046 0 01.824.215 3.969 3.969 0 01.777.395 2.858 2.858 0 01.664.605 3.213 3.213 0 01.484.852 4.03 4.03 0 01.246 1.129zm5.75-1.211h-2.58v-1.8h7.359v1.8h-2.578v6.719h-2.2zm5.648 2.461a5.273 5.273 0 01.3-1.812 4.058 4.058 0 01.867-1.43 3.969 3.969 0 011.371-.934 4.665 4.665 0 011.813-.336 4.737 4.737 0 011.832.34 3.881 3.881 0 011.367.934 4.072 4.072 0 01.855 1.426 5.336 5.336 0 01.3 1.813 5.336 5.336 0 01-.3 1.813 4.113 4.113 0 01-.855 1.43 3.856 3.856 0 01-1.367.936 4.737 4.737 0 01-1.832.336 4.665 4.665 0 01-1.812-.336 3.943 3.943 0 01-1.371-.937 4.1 4.1 0 01-.867-1.43 5.273 5.273 0 01-.302-1.813zm2.3 0a4.381 4.381 0 00.105.957 2.541 2.541 0 00.348.844 1.856 1.856 0 00.633.6 1.888 1.888 0 00.961.227 1.989 1.989 0 00.988-.223 1.768 1.768 0 00.629-.586 2.435 2.435 0 00.332-.836 4.834 4.834 0 00.1-.98 4.852 4.852 0 00-.1-.977 2.435 2.435 0 00-.332-.84 1.768 1.768 0 00-.629-.586 1.989 1.989 0 00-.988-.223 1.888 1.888 0 00-.961.227 1.856 1.856 0 00-.633.6 2.541 2.541 0 00-.348.844 4.381 4.381 0 00-.102.952zm9.836-2.461h-2.575v-1.8h7.359v1.8h-2.578v6.719h-2.2zm6.156-1.8h2.211v3.078h3.25v-3.075h2.2v8.516h-2.2v-3.648h-3.25v3.648h-2.207zm9.266 4.258a5.273 5.273 0 01.3-1.812 4.058 4.058 0 01.871-1.427 3.969 3.969 0 011.371-.934 4.665 4.665 0 011.813-.336 4.737 4.737 0 011.832.336 3.881 3.881 0 011.367.934 4.072 4.072 0 01.855 1.426 5.336 5.336 0 01.3 1.813 5.336 5.336 0 01-.3 1.813 4.112 4.112 0 01-.855 1.43 3.856 3.856 0 01-1.367.938 4.737 4.737 0 01-1.832.338 4.665 4.665 0 01-1.812-.336 3.943 3.943 0 01-1.371-.937 4.1 4.1 0 01-.867-1.43 5.273 5.273 0 01-.302-1.813zm2.3 0a4.381 4.381 0 00.105.957 2.541 2.541 0 00.348.844 1.856 1.856 0 00.633.6 1.888 1.888 0 00.961.227 1.989 1.989 0 00.988-.223 1.768 1.768 0 00.629-.586 2.435 2.435 0 00.332-.836 4.834 4.834 0 00.1-.98 4.852 4.852 0 00-.1-.977 2.435 2.435 0 00-.332-.84 1.768 1.768 0 00-.629-.586 1.989 1.989 0 00-.988-.223 1.888 1.888 0 00-.961.227 1.856 1.856 0 00-.633.6 2.541 2.541 0 00-.348.844 4.381 4.381 0 00-.097.955zm12.984-1.25a2.778 2.778 0 00-.159-.589 1.361 1.361 0 00-.285-.43 1.131 1.131 0 00-.43-.266 1.847 1.847 0 00-.613-.09 1.408 1.408 0 00-.887.258 1.715 1.715 0 00-.512.648 2.9 2.9 0 00-.238.852 6.9 6.9 0 00-.059.867 8.851 8.851 0 00.047.887 2.767 2.767 0 00.219.852 1.58 1.58 0 00.508.637 1.514 1.514 0 00.922.25 1.374 1.374 0 00.664-.152 1.571 1.571 0 00.469-.379 1.565 1.565 0 00.277-.484 1.438 1.438 0 00.09-.469h2.3a2.652 2.652 0 01-.074.547 3.562 3.562 0 01-.246.711 4.1 4.1 0 01-.457.754 3.166 3.166 0 01-.711.68 3.823 3.823 0 01-1 .492 4.149 4.149 0 01-1.32.191 4.636 4.636 0 01-1.723-.3 3.216 3.216 0 01-1.25-.871 3.843 3.843 0 01-.766-1.418 6.515 6.515 0 01-.262-1.93 5.981 5.981 0 01.285-1.926 3.955 3.955 0 01.813-1.411 3.4 3.4 0 011.262-.871 4.372 4.372 0 011.645-.3 5.468 5.468 0 01.809.063 4.046 4.046 0 01.823.22 3.969 3.969 0 01.777.395 2.858 2.858 0 01.664.605 3.213 3.213 0 01.484.852 4.031 4.031 0 01.246 1.129zm5.75-1.211h-2.57v-1.8h7.361v1.8h-2.58v6.722h-2.2zm6.141-1.8h2.211v2.961h2.258a5.534 5.534 0 011.41.164 2.805 2.805 0 011.051.508 2.215 2.215 0 01.656.871 3.141 3.141 0 01.227 1.246 2.942 2.942 0 01-.187 1.109 2.436 2.436 0 01-.48.77 2.275 2.275 0 01-.646.493 3.779 3.779 0 01-.7.266 3.7 3.7 0 01-.637.113q-.296.021-.452.021h-4.7zm2.211 6.852h1.867a3.061 3.061 0 00.512-.043 1.351 1.351 0 00.461-.164.913.913 0 00.332-.336 1.1 1.1 0 00.125-.559 1.079 1.079 0 00-.129-.555.928.928 0 00-.352-.344 1.606 1.606 0 00-.516-.176 3.635 3.635 0 00-.621-.051h-1.68zm18.406-9.852h2.5l-3.922 11.522h-2.273l-3.891-11.516h2.57l2.5 8.742zm6.336 2v3.094h2.727a3.039 3.039 0 001.219-.187 1.283 1.283 0 00.719-1.3 1.431 1.431 0 00-.7-1.406 2.628 2.628 0 00-1.172-.2zm3.3-2a5.262 5.262 0 011.863.3 2.911 2.911 0 011.105.8 3.566 3.566 0 01.594.969 3.157 3.157 0 01.219 1.211 3.45 3.45 0 01-.414 1.613 2.314 2.314 0 01-1.362 1.129 2.15 2.15 0 011.129.91 3.789 3.789 0 01.332 1.8v.773a5.916 5.916 0 00.063 1.07.961.961 0 00.438.656v.291h-2.65q-.109-.383-.156-.617a5.671 5.671 0 01-.1-.992l-.016-1.07a2.091 2.091 0 00-.4-1.469 2.135 2.135 0 00-1.449-.367h-2.484v4.515h-2.352V154.65zm10.133 3h7.664v8.522h-2.2v-6.719h-3.25v6.719h-2.211zm9.266 4.258a5.273 5.273 0 01.3-1.812 4.058 4.058 0 01.867-1.426 3.969 3.969 0 011.371-.934 4.665 4.665 0 011.813-.336 4.737 4.737 0 011.832.336 3.881 3.881 0 011.367.934 4.072 4.072 0 01.855 1.426 5.335 5.335 0 01.3 1.813 5.335 5.335 0 01-.3 1.813 4.113 4.113 0 01-.855 1.43 3.856 3.856 0 01-1.367.938 4.737 4.737 0 01-1.832.336 4.665 4.665 0 01-1.812-.336 3.943 3.943 0 01-1.371-.937 4.1 4.1 0 01-.867-1.43 5.273 5.273 0 01-.297-1.809zm2.3 0a4.381 4.381 0 00.105.957 2.541 2.541 0 00.348.844 1.856 1.856 0 00.633.6 1.888 1.888 0 00.961.227 1.989 1.989 0 00.988-.223 1.768 1.768 0 00.629-.586 2.435 2.435 0 00.332-.836 4.834 4.834 0 00.1-.98 4.852 4.852 0 00-.1-.977 2.435 2.435 0 00-.332-.84 1.768 1.768 0 00-.629-.586 1.989 1.989 0 00-.988-.223 1.888 1.888 0 00-.961.227 1.856 1.856 0 00-.633.6 2.541 2.541 0 00-.348.844 4.381 4.381 0 00-.096.958zm12.998-1.244a2.778 2.778 0 00-.172-.59 1.361 1.361 0 00-.285-.43 1.131 1.131 0 00-.43-.266 1.847 1.847 0 00-.613-.09 1.408 1.408 0 00-.887.258 1.715 1.715 0 00-.512.648 2.9 2.9 0 00-.238.852 6.9 6.9 0 00-.059.867 8.851 8.851 0 00.047.887 2.767 2.767 0 00.219.852 1.58 1.58 0 00.508.637 1.514 1.514 0 00.922.25 1.374 1.374 0 00.664-.152 1.571 1.571 0 00.469-.379 1.565 1.565 0 00.277-.484 1.438 1.438 0 00.09-.469h2.3a2.652 2.652 0 01-.074.547 3.563 3.563 0 01-.246.711 4.1 4.1 0 01-.457.754 3.166 3.166 0 01-.711.68 3.823 3.823 0 01-1 .492 4.149 4.149 0 01-1.32.191 4.636 4.636 0 01-1.723-.3 3.216 3.216 0 01-1.25-.871 3.843 3.843 0 01-.766-1.418 6.514 6.514 0 01-.262-1.93 5.981 5.981 0 01.285-1.926 3.955 3.955 0 01.809-1.414 3.4 3.4 0 011.262-.871 4.372 4.372 0 011.645-.3 5.467 5.467 0 01.808.072 4.046 4.046 0 01.824.215 3.969 3.969 0 01.777.395 2.859 2.859 0 01.664.605 3.214 3.214 0 01.484.852 4.03 4.03 0 01.251 1.125zm5.492 1.938a2.758 2.758 0 00.023.313 2.4 2.4 0 00.094.422 2.257 2.257 0 00.2.457 1.575 1.575 0 00.355.418 1.778 1.778 0 00.547.3 2.293 2.293 0 00.777.117 1.671 1.671 0 00.465-.066 1.544 1.544 0 00.426-.2 1.438 1.438 0 00.34-.312 1.144 1.144 0 00.207-.418h2.289a1.7 1.7 0 01-.1.535 2.583 2.583 0 01-.309.609 3.636 3.636 0 01-.52.605 3.409 3.409 0 01-.742.527 4.369 4.369 0 01-.973.371 4.815 4.815 0 01-1.207.141 4.926 4.926 0 01-1.6-.254 3.39 3.39 0 01-1.3-.8 3.8 3.8 0 01-.879-1.426 6.209 6.209 0 01-.32-2.125 6 6 0 01.23-1.668 4 4 0 01.719-1.41 3.507 3.507 0 011.25-.973 4.225 4.225 0 011.832-.363 4.388 4.388 0 011.906.371 3.144 3.144 0 011.246 1.051 4.454 4.454 0 01.672 1.648 10.336 10.336 0 01.2 2.133zm3.539-1.469a2.3 2.3 0 00-.168-.937 1.708 1.708 0 00-.422-.6 1.473 1.473 0 00-.559-.312 2.07 2.07 0 00-.586-.09 2.046 2.046 0 00-.578.09 1.473 1.473 0 00-.559.313 1.708 1.708 0 00-.422.6 2.3 2.3 0 00-.168.938zm3.769-3.477h2.211v6.727h2.3v-6.727h2.2v6.727h2.3v-6.727h2.211v6.727h1.016v3.836h-2.016v-2.047H552.5zm14.914 4.946a2.758 2.758 0 00.023.313 2.4 2.4 0 00.094.422 2.257 2.257 0 00.2.457 1.575 1.575 0 00.355.418 1.778 1.778 0 00.547.3 2.293 2.293 0 00.777.117 1.671 1.671 0 00.465-.066 1.544 1.544 0 00.426-.2 1.438 1.438 0 00.34-.312 1.144 1.144 0 00.207-.418h2.289a1.7 1.7 0 01-.1.535 2.583 2.583 0 01-.309.609 3.636 3.636 0 01-.52.605 3.409 3.409 0 01-.742.527 4.369 4.369 0 01-.973.371 4.815 4.815 0 01-1.207.141 4.926 4.926 0 01-1.6-.254 3.39 3.39 0 01-1.3-.8 3.8 3.8 0 01-.879-1.426 6.209 6.209 0 01-.32-2.125 6 6 0 01.23-1.668 4 4 0 01.719-1.41 3.507 3.507 0 011.25-.973 4.225 4.225 0 011.832-.363 4.388 4.388 0 011.906.371 3.144 3.144 0 011.246 1.051 4.454 4.454 0 01.676 1.641 10.336 10.336 0 01.2 2.133zm3.539-1.469a2.3 2.3 0 00-.168-.937 1.708 1.708 0 00-.422-.6 1.473 1.473 0 00-.559-.312 2.07 2.07 0 00-.586-.09 2.046 2.046 0 00-.578.09 1.473 1.473 0 00-.559.313 1.708 1.708 0 00-.422.6 2.3 2.3 0 00-.168.938zm3.773-3.477h2.211v3.078h3.25v-3.078h2.2v8.516h-2.2v-3.648h-3.25v3.648h-2.211zm9.773 0h2.211v5.25h.031l3.1-5.25h2.32v8.516h-2.2v-5.133h-.039l-3.008 5.133H584.5zm16.281-3.562a2.49 2.49 0 01-.2 1.055 1.909 1.909 0 01-.559.715 2.312 2.312 0 01-.848.406 4.216 4.216 0 01-1.07.129 4.249 4.249 0 01-1.078-.129 2.35 2.35 0 01-.852-.406 1.858 1.858 0 01-.559-.715 2.532 2.532 0 01-.2-1.055h1.6a2.026 2.026 0 00.055.41.818.818 0 00.168.336.8.8 0 00.328.227 1.472 1.472 0 00.535.082 1.838 1.838 0 00.535-.066.766.766 0 00.34-.2.71.71 0 00.172-.328 1.77 1.77 0 00.039-.461zm-6.508 3.563h2.211v5.25h.031l3.1-5.25h2.32v8.515h-2.2v-5.133h-.034l-3.012 5.133h-2.414z"/><g transform="translate(0 -.004)" filter="url(#d)"><path d="M55 224.17h231a10 10 0 0110 10v35a10 10 0 01-10 10H55a10 10 0 01-10-10v-35a10 10 0 0110-10z" fill="#fff"/></g><path d="M63.117 245.682h9.313v11.484h-2.4v-9.508h-4.507v9.508h-2.406zm10.983 7.226a5.273 5.273 0 01.3-1.812 4.058 4.058 0 01.87-1.43 3.969 3.969 0 011.371-.934 4.665 4.665 0 011.813-.336 4.737 4.737 0 011.832.336 3.881 3.881 0 011.367.934 4.072 4.072 0 01.855 1.426 5.336 5.336 0 01.3 1.813 5.336 5.336 0 01-.3 1.813 4.112 4.112 0 01-.855 1.43 3.856 3.856 0 01-1.367.938 4.737 4.737 0 01-1.832.336 4.665 4.665 0 01-1.812-.336 3.943 3.943 0 01-1.371-.937 4.1 4.1 0 01-.867-1.43 5.273 5.273 0 01-.304-1.811zm2.3 0a4.381 4.381 0 00.105.957 2.541 2.541 0 00.348.844 1.856 1.856 0 00.633.6 1.888 1.888 0 00.961.227 1.989 1.989 0 00.988-.223 1.768 1.768 0 00.629-.586 2.435 2.435 0 00.332-.836 4.834 4.834 0 00.1-.98 4.852 4.852 0 00-.1-.977 2.435 2.435 0 00-.332-.84 1.768 1.768 0 00-.629-.586 1.989 1.989 0 00-.988-.223 1.888 1.888 0 00-.961.227 1.856 1.856 0 00-.633.6 2.541 2.541 0 00-.348.844 4.381 4.381 0 00-.099.952zm8-4.258h7.664v8.516h-2.2v-6.719h-3.25v6.719H84.4zm14.459 8.375q-.25.734-.453 1.277a9.434 9.434 0 01-.4.938 3.1 3.1 0 01-.422.648 1.692 1.692 0 01-.52.4 2.3 2.3 0 01-.7.207 6.6 6.6 0 01-.945.059q-.219 0-.41-.012t-.457-.035v-1.786q.133.016.328.031t.328.016a1.22 1.22 0 00.594-.133 1.245 1.245 0 00.387-.316 1.21 1.21 0 00.211-.38 1.115 1.115 0 00.063-.328l-3.119-8.961h2.476l1.828 6.273h.031l1.742-6.273h2.367zm12.329.141h-2.2v-6.719h-2.613l-.047 1.586a23.407 23.407 0 01-.172 2.344 6.148 6.148 0 01-.434 1.684 2.326 2.326 0 01-.812 1.02 2.3 2.3 0 01-1.31.343 4.4 4.4 0 01-.656-.043 1.89 1.89 0 01-.461-.121v-1.852a1.688 1.688 0 00.277.086 1.841 1.841 0 00.41.039.7.7 0 00.445-.152 1.191 1.191 0 00.336-.555 5.255 5.255 0 00.219-1.113q.078-.711.1-1.836l.063-3.227h6.852zm10 0h-2.219v-3.133h-1.446a8.092 8.092 0 00-.816.035 1.373 1.373 0 00-.559.164.817.817 0 00-.332.379 1.841 1.841 0 00-.129.68l-.031.82-.043.469a1.99 1.99 0 01-.152.586h-2.336a2.3 2.3 0 00.164-.332 2.256 2.256 0 00.1-.312 3.058 3.058 0 00.055-.309q.02-.156.035-.328l.107-1.019a5.982 5.982 0 01.094-.6 1.228 1.228 0 01.18-.434 1.093 1.093 0 01.344-.316 2.549 2.549 0 01.586-.242 2.247 2.247 0 01-.262-.09 2.121 2.121 0 01-.3-.156 1.917 1.917 0 01-.32-.25 1.908 1.908 0 01-.3-.379 1.339 1.339 0 01-.16-.316 2.382 2.382 0 01-.09-.328 2.219 2.219 0 01-.039-.3q-.008-.141-.008-.242a2.749 2.749 0 01.109-.809 2.48 2.48 0 01.281-.621 2.078 2.078 0 01.391-.453 2.337 2.337 0 01.445-.3 2.175 2.175 0 01.555-.215 5.124 5.124 0 01.594-.109q.289-.035.539-.043t.391-.008h4.578zm-2.219-6.852h-1.781q-.281 0-.562.016a1.34 1.34 0 00-.5.121.837.837 0 00-.359.328 1.206 1.206 0 00-.137.629 1.124 1.124 0 00.137.609.844.844 0 00.352.313 1.291 1.291 0 00.48.117q.266.016.531.016h1.844zm4.25-1.664h2.109v1.216h.031a4.108 4.108 0 01.477-.66 2.358 2.358 0 01.555-.457 2.376 2.376 0 01.676-.266 3.736 3.736 0 01.84-.086 3.639 3.639 0 01.8.094 3.308 3.308 0 01.809.3 3.363 3.363 0 01.746.539 3.281 3.281 0 01.617.816 4.591 4.591 0 01.421 1.133 6.277 6.277 0 01.156 1.473 7.531 7.531 0 01-.223 1.891 4.325 4.325 0 01-.672 1.477 3.109 3.109 0 01-1.133.961 3.532 3.532 0 01-1.605.344 3.46 3.46 0 01-.643-.059 2.64 2.64 0 01-.641-.211 2.4 2.4 0 01-.59-.4 2.468 2.468 0 01-.488-.637h-.031v4.348h-2.211zm4.031 1.735a1.659 1.659 0 00-.895.227 1.8 1.8 0 00-.586.586 2.616 2.616 0 00-.324.813 4.1 4.1 0 00-.1.9q0 .242.027.527a3.562 3.562 0 00.105.578 2.981 2.981 0 00.215.566 1.849 1.849 0 00.348.484 1.624 1.624 0 00.508.34 1.756 1.756 0 00.7.129 1.756 1.756 0 00.7-.129 1.624 1.624 0 00.508-.34 1.849 1.849 0 00.348-.484 2.981 2.981 0 00.215-.566 3.561 3.561 0 00.105-.578q.027-.285.027-.527a4.1 4.1 0 00-.1-.9 2.616 2.616 0 00-.324-.812 1.787 1.787 0 00-.59-.586 1.664 1.664 0 00-.887-.228zm5.8-1.734h2.211v3.078h3.25v-3.079h2.2v8.516h-2.2v-3.648h-3.25v3.648h-2.206zm9.27 4.257a5.273 5.273 0 01.3-1.812 4.058 4.058 0 01.868-1.43 3.969 3.969 0 011.371-.934 4.665 4.665 0 011.813-.336 4.737 4.737 0 011.828.34 3.881 3.881 0 011.367.934 4.072 4.072 0 01.855 1.426 5.336 5.336 0 01.3 1.813 5.336 5.336 0 01-.3 1.813 4.112 4.112 0 01-.855 1.43 3.856 3.856 0 01-1.367.936 4.737 4.737 0 01-1.832.336 4.665 4.665 0 01-1.812-.336 3.943 3.943 0 01-1.371-.937 4.1 4.1 0 01-.867-1.43 5.273 5.273 0 01-.298-1.813zm2.3 0a4.381 4.381 0 00.105.957 2.541 2.541 0 00.348.844 1.856 1.856 0 00.633.6 1.888 1.888 0 00.961.227 1.989 1.989 0 00.988-.223 1.768 1.768 0 00.629-.586 2.435 2.435 0 00.332-.836 4.834 4.834 0 00.1-.98 4.852 4.852 0 00-.1-.977 2.435 2.435 0 00-.332-.84 1.768 1.768 0 00-.629-.586 1.989 1.989 0 00-.988-.223 1.888 1.888 0 00-.961.227 1.856 1.856 0 00-.633.6 2.541 2.541 0 00-.348.844 4.381 4.381 0 00-.1.952zm12.984-1.25a2.778 2.778 0 00-.172-.59 1.361 1.361 0 00-.285-.43 1.131 1.131 0 00-.43-.266 1.847 1.847 0 00-.613-.09 1.408 1.408 0 00-.887.258 1.715 1.715 0 00-.512.648 2.9 2.9 0 00-.238.852 6.9 6.9 0 00-.059.867 8.851 8.851 0 00.047.887 2.767 2.767 0 00.219.852 1.58 1.58 0 00.508.637 1.514 1.514 0 00.922.25 1.374 1.374 0 00.664-.152 1.571 1.571 0 00.469-.379 1.565 1.565 0 00.277-.484 1.438 1.438 0 00.09-.469h2.3a2.652 2.652 0 01-.074.547 3.562 3.562 0 01-.246.711 4.1 4.1 0 01-.457.754 3.166 3.166 0 01-.711.68 3.823 3.823 0 01-1 .492 4.149 4.149 0 01-1.32.191 4.636 4.636 0 01-1.723-.3 3.216 3.216 0 01-1.25-.871 3.843 3.843 0 01-.766-1.418 6.515 6.515 0 01-.262-1.93 5.981 5.981 0 01.285-1.926 3.955 3.955 0 01.82-1.413 3.4 3.4 0 011.262-.871 4.372 4.372 0 011.645-.3 5.468 5.468 0 01.809.063 4.046 4.046 0 01.824.215 3.969 3.969 0 01.777.395 2.858 2.858 0 01.664.605 3.213 3.213 0 01.484.852 4.031 4.031 0 01.246 1.129zm5.75-1.211h-2.573v-1.8h7.359v1.8h-2.578v6.719h-2.2zm6.141-1.8h2.211v2.961h2.258a5.534 5.534 0 011.41.164 2.805 2.805 0 011.051.508 2.215 2.215 0 01.656.871 3.141 3.141 0 01.227 1.246 2.942 2.942 0 01-.187 1.109 2.436 2.436 0 01-.48.77 2.275 2.275 0 01-.652.484 3.779 3.779 0 01-.7.266 3.7 3.7 0 01-.637.113q-.293.027-.452.027h-4.7zm2.211 6.852h1.867a3.061 3.061 0 00.512-.043 1.351 1.351 0 00.461-.164.913.913 0 00.332-.336 1.1 1.1 0 00.125-.559 1.079 1.079 0 00-.129-.555.928.928 0 00-.352-.344 1.606 1.606 0 00-.516-.176 3.635 3.635 0 00-.621-.051h-1.68zm11.5-6.852h7.664v8.519h-2.2v-6.719h-3.25v6.719h-2.211zm17.894 8.519h-2.2v-6.719h-2.609l-.047 1.586a23.407 23.407 0 01-.172 2.344 6.148 6.148 0 01-.434 1.684 2.326 2.326 0 01-.812 1.02 2.3 2.3 0 01-1.309.344 4.4 4.4 0 01-.656-.043 1.89 1.89 0 01-.461-.122v-1.852a1.688 1.688 0 00.277.086 1.841 1.841 0 00.41.039.7.7 0 00.445-.152 1.191 1.191 0 00.336-.555 5.255 5.255 0 00.219-1.113q.078-.711.1-1.836l.063-3.227h6.85zm9.2-1.68a3.772 3.772 0 00.043.629 1.5 1.5 0 00.113.391.561.561 0 00.16.211.635.635 0 00.191.1v.349h-2.445a4.118 4.118 0 01-.137-.395 2.091 2.091 0 01-.074-.6q-.258.266-.5.492a2.817 2.817 0 01-.551.395 2.863 2.863 0 01-.7.266 4.09 4.09 0 01-.961.1 3.165 3.165 0 01-1.052-.168 2.33 2.33 0 01-.832-.5 2.225 2.225 0 01-.547-.82 3.078 3.078 0 01-.2-1.141 2.814 2.814 0 01.164-.973 2.441 2.441 0 01.465-.789 2.483 2.483 0 01.734-.562 3.081 3.081 0 01.973-.3l2.164-.32q.117-.016.254-.047a.807.807 0 00.254-.105.609.609 0 00.2-.2.668.668 0 00.078-.348 1.086 1.086 0 00-.066-.387.723.723 0 00-.223-.3 1.1 1.1 0 00-.418-.2 2.56 2.56 0 00-.652-.07 2.321 2.321 0 00-.715.09 1.044 1.044 0 00-.426.25.955.955 0 00-.227.375 2.491 2.491 0 00-.1.457h-2.211a2.571 2.571 0 01.051-.434 2.994 2.994 0 01.188-.605 3.239 3.239 0 01.383-.664 2.671 2.671 0 01.648-.613 3.6 3.6 0 01.98-.457 4.85 4.85 0 011.383-.187 6.1 6.1 0 011.848.23 2.9 2.9 0 011.1.6 1.868 1.868 0 01.531.828 3.163 3.163 0 01.137.91zm-2.211-2.477q-.2.109-.406.2a2.492 2.492 0 01-.539.152l-.586.109a5.3 5.3 0 00-.672.164 1.515 1.515 0 00-.48.246.978.978 0 00-.289.371 1.343 1.343 0 00-.1.547 1.188 1.188 0 00.086.473.877.877 0 00.238.328 1 1 0 00.355.191 1.481 1.481 0 00.438.063 2.4 2.4 0 00.32-.027 2.1 2.1 0 00.414-.105 2.263 2.263 0 00.438-.215 1.523 1.523 0 00.391-.355 1.823 1.823 0 00.281-.535 2.287 2.287 0 00.109-.746zm4.227-4.359h2.211v3.078h3.25v-3.078h2.2v8.516h-2.2v-3.648h-3.25v3.648h-2.207zm9.773 0h2.211v5.25h.031l3.1-5.25h2.32v8.516h-2.2v-5.133h-.039l-3.004 5.133h-2.414zm9.711 0h2.109v1.216h.031a4.108 4.108 0 01.477-.66 2.358 2.358 0 01.555-.457 2.377 2.377 0 01.676-.266 3.736 3.736 0 01.84-.086 3.639 3.639 0 01.8.094 3.307 3.307 0 01.809.3 3.364 3.364 0 01.746.539 3.281 3.281 0 01.617.816 4.592 4.592 0 01.422 1.129 6.277 6.277 0 01.156 1.473 7.531 7.531 0 01-.223 1.891 4.325 4.325 0 01-.672 1.477 3.109 3.109 0 01-1.133.961 3.532 3.532 0 01-1.605.344 3.46 3.46 0 01-.639-.055 2.64 2.64 0 01-.641-.211 2.4 2.4 0 01-.59-.4 2.468 2.468 0 01-.488-.637h-.031v4.348H231.8zm4.031 1.734a1.659 1.659 0 00-.895.227 1.8 1.8 0 00-.586.586 2.616 2.616 0 00-.324.813 4.1 4.1 0 00-.1.9q0 .242.027.527a3.563 3.563 0 00.105.578 2.981 2.981 0 00.215.566 1.849 1.849 0 00.348.484 1.623 1.623 0 00.508.34 1.756 1.756 0 00.7.129 1.756 1.756 0 00.7-.129 1.623 1.623 0 00.508-.34 1.849 1.849 0 00.348-.484 2.981 2.981 0 00.215-.566 3.563 3.563 0 00.105-.578q.027-.285.027-.527a4.1 4.1 0 00-.1-.9 2.616 2.616 0 00-.324-.812 1.787 1.787 0 00-.59-.586 1.664 1.664 0 00-.882-.227zm5.3 2.523a5.273 5.273 0 01.3-1.812 4.058 4.058 0 01.869-1.429 3.969 3.969 0 011.371-.934 4.665 4.665 0 011.813-.336 4.737 4.737 0 011.832.336 3.881 3.881 0 011.367.934 4.072 4.072 0 01.855 1.426 5.335 5.335 0 01.3 1.813 5.335 5.335 0 01-.3 1.813 4.113 4.113 0 01-.855 1.43 3.856 3.856 0 01-1.367.938 4.737 4.737 0 01-1.832.336 4.665 4.665 0 01-1.812-.336 3.943 3.943 0 01-1.371-.937 4.1 4.1 0 01-.867-1.43 5.273 5.273 0 01-.301-1.811zm2.3 0a4.381 4.381 0 00.105.957 2.541 2.541 0 00.348.844 1.856 1.856 0 00.633.6 1.888 1.888 0 00.961.227 1.989 1.989 0 00.988-.223 1.768 1.768 0 00.629-.586 2.435 2.435 0 00.332-.836 4.834 4.834 0 00.1-.98 4.852 4.852 0 00-.1-.977 2.435 2.435 0 00-.332-.84 1.768 1.768 0 00-.629-.586 1.989 1.989 0 00-.988-.223 1.888 1.888 0 00-.961.227 1.856 1.856 0 00-.633.6 2.541 2.541 0 00-.348.844 4.381 4.381 0 00-.098.953zm10.269-.913h1.7a2.8 2.8 0 00.625-.059 1.008 1.008 0 00.395-.172.6.6 0 00.2-.281 1.2 1.2 0 00.059-.395 1 1 0 00-.059-.348.621.621 0 00-.2-.273 1.049 1.049 0 00-.375-.18 2.187 2.187 0 00-.586-.066H253.7zm-2.211-3.344h4.411a6.129 6.129 0 011.129.1 2.8 2.8 0 01.957.355 1.88 1.88 0 01.66.688 2.2 2.2 0 01.246 1.1 2.386 2.386 0 01-.082.664 1.607 1.607 0 01-.223.48 1.475 1.475 0 01-.324.336 2.3 2.3 0 01-.379.23 1.9 1.9 0 01.977.723 2.06 2.06 0 01.336 1.184 2.766 2.766 0 01-.207 1.09 2.38 2.38 0 01-.586.836 2.644 2.644 0 01-.922.539 3.637 3.637 0 01-1.216.191h-4.773zm2.211 6.946h1.7a2.4 2.4 0 00.77-.1 1.206 1.206 0 00.453-.258.755.755 0 00.211-.344 1.348 1.348 0 00.051-.352 1.421 1.421 0 00-.082-.52.726.726 0 00-.258-.332 1.094 1.094 0 00-.461-.172 4.285 4.285 0 00-.684-.047h-1.7zm7.328-6.945h2.211v3.234l3.188-3.234h2.938l-3.516 3.539 3.667 4.976h-2.883l-2.5-3.594-.891.9v2.694h-2.211zm9.711 0h2.211v5.25h.031l3.1-5.25h2.32v8.515h-2.2v-5.133h-.039l-3.006 5.133h-2.414z"/><g transform="translate(0 -.004)" filter="url(#f)"><path d="M89 370.17h231a10 10 0 0110 10v35a10 10 0 01-10 10H89a10 10 0 01-10-10v-35a10 10 0 0110-10z" fill="#fff"/></g><path d="M91.391 390.682h2.4v4.672l4.389-4.672h3.1l-4.687 4.7 4.962 6.784h-3.039l-3.555-5.086-1.172 1.2v3.886h-2.4zm10.709 7.226a5.273 5.273 0 01.3-1.812 4.058 4.058 0 01.87-1.43 3.969 3.969 0 011.371-.934 4.665 4.665 0 011.813-.336 4.737 4.737 0 011.832.336 3.881 3.881 0 011.367.934 4.072 4.072 0 01.855 1.426 5.336 5.336 0 01.3 1.813 5.336 5.336 0 01-.3 1.813 4.112 4.112 0 01-.855 1.43 3.856 3.856 0 01-1.367.938 4.737 4.737 0 01-1.832.336 4.665 4.665 0 01-1.812-.336 3.943 3.943 0 01-1.371-.937 4.1 4.1 0 01-.867-1.43 5.273 5.273 0 01-.304-1.811zm2.3 0a4.381 4.381 0 00.105.957 2.541 2.541 0 00.348.844 1.856 1.856 0 00.633.6 1.888 1.888 0 00.961.227 1.989 1.989 0 00.988-.223 1.768 1.768 0 00.629-.586 2.435 2.435 0 00.332-.836 4.834 4.834 0 00.1-.98 4.852 4.852 0 00-.1-.977 2.435 2.435 0 00-.332-.84 1.768 1.768 0 00-.629-.586 1.989 1.989 0 00-.988-.223 1.888 1.888 0 00-.961.227 1.856 1.856 0 00-.633.6 2.541 2.541 0 00-.348.844 4.381 4.381 0 00-.099.952zm16.116 4.258h-2.2v-6.719H115.7l-.047 1.586a23.407 23.407 0 01-.172 2.344 6.148 6.148 0 01-.434 1.684 2.326 2.326 0 01-.812 1.02 2.3 2.3 0 01-1.305.343 4.4 4.4 0 01-.656-.043 1.89 1.89 0 01-.461-.121v-1.852a1.688 1.688 0 00.277.086 1.841 1.841 0 00.41.039.7.7 0 00.445-.152 1.191 1.191 0 00.336-.555 5.255 5.255 0 00.219-1.113q.078-.711.1-1.836l.063-3.227h6.852zm1.633-5.516h4.484v2.109h-4.485zm8.289.344h1.7a2.8 2.8 0 00.625-.059 1.008 1.008 0 00.397-.169.6.6 0 00.2-.281 1.2 1.2 0 00.059-.395 1 1 0 00-.059-.348.621.621 0 00-.2-.273 1.049 1.049 0 00-.375-.18 2.187 2.187 0 00-.586-.066h-1.761zm-2.211-3.344h4.406a6.129 6.129 0 011.129.1 2.8 2.8 0 01.957.355 1.88 1.88 0 01.66.688 2.2 2.2 0 01.246 1.1 2.386 2.386 0 01-.082.664 1.607 1.607 0 01-.223.48 1.475 1.475 0 01-.32.336 2.3 2.3 0 01-.379.23 1.9 1.9 0 01.977.723 2.06 2.06 0 01.336 1.184 2.766 2.766 0 01-.207 1.09 2.38 2.38 0 01-.586.836 2.644 2.644 0 01-.922.539 3.637 3.637 0 01-1.219.191h-4.773zm2.211 6.946h1.7a2.4 2.4 0 00.77-.1 1.206 1.206 0 00.453-.258.755.755 0 00.211-.344 1.348 1.348 0 00.051-.352 1.421 1.421 0 00-.082-.52.726.726 0 00-.258-.332 1.094 1.094 0 00-.461-.172 4.285 4.285 0 00-.684-.047h-1.7zm6.762-2.688a5.273 5.273 0 01.3-1.812 4.058 4.058 0 01.863-1.43 3.969 3.969 0 011.371-.934 4.665 4.665 0 011.813-.336 4.737 4.737 0 011.832.336 3.881 3.881 0 011.367.934 4.072 4.072 0 01.854 1.43 5.336 5.336 0 01.3 1.813 5.336 5.336 0 01-.3 1.813 4.113 4.113 0 01-.855 1.43 3.856 3.856 0 01-1.367.938 4.737 4.737 0 01-1.832.336 4.665 4.665 0 01-1.812-.336 3.943 3.943 0 01-1.371-.937 4.1 4.1 0 01-.867-1.43 5.273 5.273 0 01-.296-1.815zm2.3 0a4.381 4.381 0 00.105.957 2.541 2.541 0 00.348.844 1.856 1.856 0 00.633.6 1.888 1.888 0 00.961.227 1.989 1.989 0 00.988-.223 1.768 1.768 0 00.629-.586 2.435 2.435 0 00.332-.836 4.834 4.834 0 00.1-.98 4.852 4.852 0 00-.1-.977 2.435 2.435 0 00-.332-.84 1.768 1.768 0 00-.629-.586 1.989 1.989 0 00-.988-.223 1.888 1.888 0 00-.961.227 1.856 1.856 0 00-.633.6 2.541 2.541 0 00-.348.844 4.381 4.381 0 00-.105.952zm12.5-7.226h9.313v11.484h-2.4v-9.508h-4.507v9.508H152zm10.984 7.226a5.273 5.273 0 01.3-1.812 4.058 4.058 0 01.868-1.43 3.969 3.969 0 011.371-.934 4.665 4.665 0 011.813-.336 4.737 4.737 0 011.832.336 3.881 3.881 0 011.367.934 4.072 4.072 0 01.855 1.426 5.336 5.336 0 01.3 1.813 5.336 5.336 0 01-.3 1.813 4.112 4.112 0 01-.855 1.43 3.856 3.856 0 01-1.367.938 4.737 4.737 0 01-1.832.336 4.665 4.665 0 01-1.812-.336 3.943 3.943 0 01-1.371-.937 4.1 4.1 0 01-.867-1.43 5.273 5.273 0 01-.302-1.811zm2.3 0a4.381 4.381 0 00.105.957 2.541 2.541 0 00.348.844 1.856 1.856 0 00.633.6 1.888 1.888 0 00.961.227 1.989 1.989 0 00.988-.223 1.768 1.768 0 00.629-.586 2.435 2.435 0 00.332-.836 4.834 4.834 0 00.1-.98 4.852 4.852 0 00-.1-.977 2.435 2.435 0 00-.332-.84 1.768 1.768 0 00-.629-.586 1.989 1.989 0 00-.988-.223 1.888 1.888 0 00-.961.227 1.856 1.856 0 00-.633.6 2.541 2.541 0 00-.348.844 4.381 4.381 0 00-.1.952zm12.984-1.25a2.778 2.778 0 00-.168-.592 1.361 1.361 0 00-.285-.43 1.131 1.131 0 00-.43-.266 1.847 1.847 0 00-.613-.09 1.408 1.408 0 00-.887.258 1.715 1.715 0 00-.512.648 2.9 2.9 0 00-.238.852 6.9 6.9 0 00-.059.867 8.851 8.851 0 00.047.887 2.767 2.767 0 00.219.852 1.58 1.58 0 00.508.637 1.514 1.514 0 00.922.25 1.374 1.374 0 00.664-.152 1.571 1.571 0 00.469-.379 1.565 1.565 0 00.277-.484 1.438 1.438 0 00.09-.469h2.3a2.652 2.652 0 01-.074.547 3.562 3.562 0 01-.246.711 4.1 4.1 0 01-.457.754 3.166 3.166 0 01-.711.68 3.823 3.823 0 01-1 .492 4.149 4.149 0 01-1.32.191 4.636 4.636 0 01-1.723-.3 3.216 3.216 0 01-1.241-.866 3.843 3.843 0 01-.766-1.418 6.515 6.515 0 01-.262-1.93 5.981 5.981 0 01.285-1.926 3.955 3.955 0 01.81-1.416 3.4 3.4 0 011.262-.871 4.372 4.372 0 011.645-.3 5.468 5.468 0 01.809.063 4.046 4.046 0 01.824.215 3.969 3.969 0 01.777.395 2.858 2.858 0 01.664.605 3.213 3.213 0 01.484.852 4.031 4.031 0 01.246 1.129zm5.498 1.938a2.758 2.758 0 00.023.313 2.4 2.4 0 00.094.422 2.258 2.258 0 00.2.457 1.575 1.575 0 00.355.418 1.778 1.778 0 00.547.3 2.293 2.293 0 00.777.117 1.671 1.671 0 00.465-.066 1.544 1.544 0 00.426-.2 1.437 1.437 0 00.347-.304 1.144 1.144 0 00.207-.418h2.289a1.7 1.7 0 01-.1.535 2.583 2.583 0 01-.309.609 3.636 3.636 0 01-.52.605 3.409 3.409 0 01-.742.527 4.369 4.369 0 01-.973.371 4.814 4.814 0 01-1.207.141 4.926 4.926 0 01-1.602-.257 3.39 3.39 0 01-1.3-.8 3.8 3.8 0 01-.879-1.426 6.209 6.209 0 01-.32-2.125 6 6 0 01.23-1.668 4 4 0 01.719-1.41 3.507 3.507 0 011.25-.973 4.225 4.225 0 011.832-.363 4.388 4.388 0 011.906.371 3.144 3.144 0 011.246 1.051 4.454 4.454 0 01.673 1.643 10.336 10.336 0 01.2 2.133zm3.534-1.469a2.3 2.3 0 00-.168-.937 1.708 1.708 0 00-.422-.6 1.473 1.473 0 00-.559-.312 2.07 2.07 0 00-.586-.09 2.046 2.046 0 00-.578.09 1.473 1.473 0 00-.559.313 1.708 1.708 0 00-.422.6 2.3 2.3 0 00-.168.938zm3.773-3.477h2.211v6.727h2.3v-6.727h2.2v6.727h2.3v-6.727h2.211v6.727h1.016v3.836h-2.016v-2.047h-10.217zm14.919 4.946a2.758 2.758 0 00.023.313 2.4 2.4 0 00.094.422 2.258 2.258 0 00.2.457 1.575 1.575 0 00.355.418 1.778 1.778 0 00.547.3 2.293 2.293 0 00.777.117 1.671 1.671 0 00.465-.066 1.544 1.544 0 00.426-.2 1.437 1.437 0 00.34-.312 1.144 1.144 0 00.207-.418h2.289a1.7 1.7 0 01-.1.535 2.583 2.583 0 01-.309.609 3.636 3.636 0 01-.52.605 3.409 3.409 0 01-.742.527 4.369 4.369 0 01-.973.371 4.814 4.814 0 01-1.207.141 4.926 4.926 0 01-1.594-.249 3.39 3.39 0 01-1.3-.8 3.8 3.8 0 01-.879-1.426 6.209 6.209 0 01-.32-2.125 6 6 0 01.229-1.669 4 4 0 01.719-1.41 3.507 3.507 0 011.25-.973 4.225 4.225 0 011.832-.363 4.388 4.388 0 011.906.371 3.144 3.144 0 011.246 1.051 4.454 4.454 0 01.676 1.641 10.336 10.336 0 01.2 2.133zm3.539-1.469a2.3 2.3 0 00-.168-.937 1.708 1.708 0 00-.422-.6 1.473 1.473 0 00-.559-.312 2.07 2.07 0 00-.586-.09 2.046 2.046 0 00-.578.09 1.473 1.473 0 00-.559.313 1.708 1.708 0 00-.422.6 2.3 2.3 0 00-.168.938zm3.769-3.477h2.211v3.078h3.25v-3.078h2.2v8.516h-2.2v-3.648h-3.25v3.648H213.3zm9.773 0h2.211v5.25h.031l3.1-5.25h2.32v8.516h-2.2v-5.133h-.035l-3.008 5.133h-2.414zm16.281-3.562a2.49 2.49 0 01-.2 1.055 1.909 1.909 0 01-.559.715 2.312 2.312 0 01-.848.406 4.216 4.216 0 01-1.07.129 4.249 4.249 0 01-1.077-.127 2.35 2.35 0 01-.852-.406 1.858 1.858 0 01-.559-.715 2.532 2.532 0 01-.2-1.055h1.6a2.026 2.026 0 00.055.41.818.818 0 00.168.336.8.8 0 00.328.227 1.472 1.472 0 00.535.082 1.838 1.838 0 00.535-.066.766.766 0 00.34-.2.71.71 0 00.172-.328 1.77 1.77 0 00.039-.461zm-6.508 3.563h2.211v5.25h.031l3.1-5.25h2.32v8.515h-2.2v-5.133h-.039l-3.003 5.133h-2.414zm14.219 0h7.664v8.515h-2.2v-6.719h-3.25v6.719h-2.209zm9.711 0h2.109v1.215h.031a4.108 4.108 0 01.477-.66 2.358 2.358 0 01.555-.457 2.377 2.377 0 01.676-.266 3.736 3.736 0 01.84-.086 3.639 3.639 0 01.8.094 3.307 3.307 0 01.809.3 3.364 3.364 0 01.746.539 3.281 3.281 0 01.617.816 4.592 4.592 0 01.422 1.129 6.277 6.277 0 01.156 1.473 7.531 7.531 0 01-.223 1.891 4.325 4.325 0 01-.672 1.477 3.109 3.109 0 01-1.119.964 3.532 3.532 0 01-1.605.344 3.46 3.46 0 01-.653-.058 2.64 2.64 0 01-.641-.211 2.4 2.4 0 01-.59-.4 2.468 2.468 0 01-.488-.637h-.031v4.348h-2.211zm4.031 1.734a1.659 1.659 0 00-.895.227 1.8 1.8 0 00-.586.586 2.616 2.616 0 00-.324.813 4.1 4.1 0 00-.1.9q0 .242.027.527a3.563 3.563 0 00.105.578 2.981 2.981 0 00.215.566 1.849 1.849 0 00.348.484 1.623 1.623 0 00.508.34 1.756 1.756 0 00.7.129 1.756 1.756 0 00.7-.129 1.623 1.623 0 00.508-.34 1.849 1.849 0 00.348-.484 2.981 2.981 0 00.215-.566 3.563 3.563 0 00.105-.578q.027-.285.027-.527a4.1 4.1 0 00-.1-.9 2.616 2.616 0 00-.324-.812 1.787 1.787 0 00-.59-.586 1.664 1.664 0 00-.881-.228zm5.3 2.523a5.273 5.273 0 01.3-1.812 4.058 4.058 0 01.867-1.426 3.969 3.969 0 011.371-.934 4.665 4.665 0 011.813-.336 4.737 4.737 0 011.832.336 3.881 3.881 0 011.367.934 4.072 4.072 0 01.855 1.426 5.335 5.335 0 01.3 1.813 5.335 5.335 0 01-.3 1.813 4.113 4.113 0 01-.855 1.43 3.856 3.856 0 01-1.367.938 4.737 4.737 0 01-1.832.336 4.665 4.665 0 01-1.812-.336 3.943 3.943 0 01-1.371-.937 4.1 4.1 0 01-.867-1.43 5.273 5.273 0 01-.299-1.815zm2.3 0a4.381 4.381 0 00.105.957 2.541 2.541 0 00.348.844 1.856 1.856 0 00.633.6 1.888 1.888 0 00.961.227 1.989 1.989 0 00.988-.223 1.768 1.768 0 00.629-.586 2.435 2.435 0 00.332-.836 4.834 4.834 0 00.1-.98 4.852 4.852 0 00-.1-.977 2.435 2.435 0 00-.332-.84 1.768 1.768 0 00-.629-.586 1.989 1.989 0 00-.988-.223 1.888 1.888 0 00-.961.227 1.856 1.856 0 00-.633.6 2.541 2.541 0 00-.348.844 4.381 4.381 0 00-.098.952zm12.492 3.43h-.031a2.258 2.258 0 01-.3.4 2.1 2.1 0 01-.418.348 2.224 2.224 0 01-.539.246 2.238 2.238 0 01-.668.094 2.421 2.421 0 01-1.143-.295 2.9 2.9 0 01-.973-.867 4.625 4.625 0 01-.676-1.422 6.866 6.866 0 01-.254-1.965 7.708 7.708 0 01.145-1.582 5.1 5.1 0 01.387-1.18 3.208 3.208 0 01.563-.828 2.926 2.926 0 01.668-.527 2.674 2.674 0 01.7-.277 2.877 2.877 0 01.66-.082 2.7 2.7 0 01.523.051 1.877 1.877 0 01.5.176 1.825 1.825 0 01.453.336 2.3 2.3 0 01.383.523h.031v-3.8h2.2v3.8h.031a2.3 2.3 0 01.383-.523 1.825 1.825 0 01.453-.336 1.871 1.871 0 01.5-.176 2.8 2.8 0 01.535-.051 2.848 2.848 0 01.652.082 2.615 2.615 0 01.691.277 2.966 2.966 0 01.664.527 3.208 3.208 0 01.563.828 5.1 5.1 0 01.387 1.18 7.708 7.708 0 01.145 1.582 6.866 6.866 0 01-.254 1.965 4.625 4.625 0 01-.672 1.424 2.9 2.9 0 01-.973.867 2.421 2.421 0 01-1.152.293 2.238 2.238 0 01-.668-.094 2.224 2.224 0 01-.539-.246 2.1 2.1 0 01-.418-.348 2.258 2.258 0 01-.3-.4h-.031v4.128h-2.2zm5.015-3.372a6.6 6.6 0 00-.074-1 3.05 3.05 0 00-.254-.859 1.574 1.574 0 00-.488-.6 1.292 1.292 0 00-.785-.227 1.257 1.257 0 00-.559.113.973.973 0 00-.375.32 1.357 1.357 0 00-.207.492 2.941 2.941 0 00-.062.629v2.016a4.051 4.051 0 00.055.7 1.473 1.473 0 00.191.531.9.9 0 00.375.336 1.391 1.391 0 00.613.117 1.3 1.3 0 00.582-.121 1.325 1.325 0 00.422-.324 1.715 1.715 0 00.285-.465 3.182 3.182 0 00.172-.547 4.31 4.31 0 00.086-.57q.023-.286.023-.541zm-7.812 0a6.768 6.768 0 00.055.82 2.91 2.91 0 00.227.832 1.811 1.811 0 00.477.648 1.2 1.2 0 00.813.262 1.391 1.391 0 00.613-.117.9.9 0 00.375-.336 1.473 1.473 0 00.191-.531 4.051 4.051 0 00.055-.7v-2.006a2.941 2.941 0 00-.062-.629 1.357 1.357 0 00-.207-.492.973.973 0 00-.375-.32 1.257 1.257 0 00-.559-.113 1.292 1.292 0 00-.785.227 1.607 1.607 0 00-.492.6 2.888 2.888 0 00-.254.859 6.955 6.955 0 00-.074.996zm11.617-4.32h2.211v5.25h.031l3.1-5.25h2.32v8.52h-2.2v-5.133h-.039l-3.009 5.133h-2.414zm17.89 8.52h-2.2v-6.719H302.8l-.047 1.586a23.407 23.407 0 01-.172 2.344 6.148 6.148 0 01-.434 1.684 2.326 2.326 0 01-.812 1.02 2.3 2.3 0 01-1.309.344 4.4 4.4 0 01-.656-.043 1.89 1.89 0 01-.461-.121v-1.853a1.688 1.688 0 00.277.086 1.841 1.841 0 00.41.039.7.7 0 00.445-.152 1.191 1.191 0 00.336-.555 5.255 5.255 0 00.219-1.113q.078-.711.1-1.836l.063-3.227h6.852zm10 0h-2.219v-3.133h-1.445a8.092 8.092 0 00-.816.035 1.373 1.373 0 00-.559.164.817.817 0 00-.332.379 1.841 1.841 0 00-.129.68l-.031.82-.043.469a1.991 1.991 0 01-.152.586h-2.336a2.3 2.3 0 00.164-.332 2.256 2.256 0 00.1-.312 3.057 3.057 0 00.055-.309q.02-.156.035-.328l.109-1.023a5.984 5.984 0 01.09-.596 1.228 1.228 0 01.18-.434 1.093 1.093 0 01.344-.316 2.548 2.548 0 01.586-.242 2.248 2.248 0 01-.262-.09 2.12 2.12 0 01-.3-.156 1.917 1.917 0 01-.32-.25 1.908 1.908 0 01-.3-.379 1.34 1.34 0 01-.16-.316 2.382 2.382 0 01-.09-.328 2.219 2.219 0 01-.039-.3q-.008-.141-.008-.242a2.749 2.749 0 01.109-.809 2.481 2.481 0 01.281-.621 2.078 2.078 0 01.391-.453 2.337 2.337 0 01.445-.3 2.175 2.175 0 01.555-.215 5.124 5.124 0 01.594-.109q.289-.035.539-.043t.391-.008h4.578zm-2.219-6.852h-1.781q-.281 0-.562.016a1.34 1.34 0 00-.5.121.837.837 0 00-.359.328 1.206 1.206 0 00-.137.629 1.124 1.124 0 00.137.609.844.844 0 00.352.313 1.291 1.291 0 00.48.117q.266.016.531.016h1.844z"/><g transform="translate(0 -.004)" filter="url(#h)"><path d="M421 315.17h292a10 10 0 0110 10v35a10 10 0 01-10 10H421a10 10 0 01-10-10v-35a10 10 0 0110-10z" fill="#fff"/></g><path d="M427.313 335.682h5.632a5.17 5.17 0 011.238.133 3.538 3.538 0 01.926.359 2.665 2.665 0 01.656.523 2.675 2.675 0 01.422.621 2.741 2.741 0 01.223.66 3.306 3.306 0 01.066.641 3.594 3.594 0 01-.078.785 2.179 2.179 0 01-.246.633 2.04 2.04 0 01-.437.516 3.164 3.164 0 01-.645.413 2.878 2.878 0 01.93.539 2.41 2.41 0 01.539.691 2.588 2.588 0 01.25.766 4.869 4.869 0 01.063.762 3.4 3.4 0 01-.3 1.477 2.956 2.956 0 01-.864 1.078 3.9 3.9 0 01-1.348.66 6.4 6.4 0 01-1.762.227h-5.265zm2.3 9.5h2.996a2.725 2.725 0 00.734-.094 1.665 1.665 0 00.582-.285 1.3 1.3 0 00.383-.484 1.621 1.621 0 00.137-.691 1.674 1.674 0 00-.164-.8 1.207 1.207 0 00-.433-.462 1.619 1.619 0 00-.609-.215 4.672 4.672 0 00-.691-.051h-2.931zm0-4.977h2.965a2.536 2.536 0 00.6-.07 1.455 1.455 0 00.512-.23 1.178 1.178 0 00.355-.41 1.267 1.267 0 00.133-.6 1.333 1.333 0 00-.121-.605.978.978 0 00-.332-.379 1.337 1.337 0 00-.492-.2 3.107 3.107 0 00-.594-.055h-3.022zm17.535-1.555h2.211v8.516h-2.211zm-8.539 0h2.211v2.961h2.008a5.534 5.534 0 011.41.164 2.805 2.805 0 011.051.508 2.215 2.215 0 01.656.871 3.141 3.141 0 01.227 1.246 2.942 2.942 0 01-.187 1.109 2.436 2.436 0 01-.48.77 2.275 2.275 0 01-.652.484 3.779 3.779 0 01-.7.266 3.7 3.7 0 01-.637.113q-.297.024-.453.024h-4.454zm2.211 6.852h1.617a3.061 3.061 0 00.512-.043 1.351 1.351 0 00.461-.164.913.913 0 00.332-.336 1.1 1.1 0 00.125-.559 1.079 1.079 0 00-.129-.555.928.928 0 00-.352-.344 1.606 1.606 0 00-.516-.176 3.635 3.635 0 00-.621-.051h-1.429zm18.086-9.953a2.128 2.128 0 01-.227 1.074 1.9 1.9 0 01-.621.672 2.676 2.676 0 01-.891.367 7.081 7.081 0 01-1.035.152q-.367.031-.758.1a4.368 4.368 0 00-.766.2 3.376 3.376 0 00-.711.359 2.671 2.671 0 00-.6.551 2.82 2.82 0 00-.437.781 3.659 3.659 0 00-.212 1.061 2.5 2.5 0 01.4-.77 2.7 2.7 0 01.682-.63 3.567 3.567 0 01.949-.43 4.188 4.188 0 011.2-.16 4.068 4.068 0 011.574.29 3.375 3.375 0 011.2.824 3.606 3.606 0 01.747 1.285 5.024 5.024 0 01.262 1.664 5.369 5.369 0 01-.3 1.844 4.037 4.037 0 01-.862 1.418 3.81 3.81 0 01-1.363.914 4.813 4.813 0 01-1.812.324 4.5 4.5 0 01-2.43-.6 3.8 3.8 0 01-1.477-1.961 5.716 5.716 0 01-.266-.977q-.094-.516-.137-.969t-.051-.789q-.008-.336-.008-.445a8.313 8.313 0 01.281-2.23 4.758 4.758 0 01.895-1.762 4.515 4.515 0 011.578-1.211 6.861 6.861 0 012.34-.586 1.625 1.625 0 00.621-.145.517.517 0 00.23-.215zm-5.625 7.359a4.381 4.381 0 00.105.957 2.541 2.541 0 00.348.844 1.856 1.856 0 00.633.6 1.888 1.888 0 00.961.227 2.007 2.007 0 001-.223 1.768 1.768 0 00.629-.586 2.379 2.379 0 00.328-.836 5.029 5.029 0 00.094-.98 3.856 3.856 0 00-.109-.937 2.193 2.193 0 00-.344-.762 1.613 1.613 0 00-.609-.508 2.045 2.045 0 00-.906-.184 2.249 2.249 0 00-.973.191 1.817 1.817 0 00-.66.52 2.107 2.107 0 00-.375.762 3.5 3.5 0 00-.122.915zm7.453 0a5.273 5.273 0 01.3-1.812 4.058 4.058 0 01.866-1.43 3.969 3.969 0 011.371-.934 4.665 4.665 0 011.813-.336 4.737 4.737 0 011.832.336 3.881 3.881 0 011.367.934 4.072 4.072 0 01.855 1.426 5.336 5.336 0 01.3 1.813 5.336 5.336 0 01-.3 1.813 4.113 4.113 0 01-.855 1.43 3.856 3.856 0 01-1.367.938 4.737 4.737 0 01-1.832.336 4.665 4.665 0 01-1.812-.336 3.943 3.943 0 01-1.372-.936 4.1 4.1 0 01-.867-1.43 5.273 5.273 0 01-.299-1.812zm2.3 0a4.381 4.381 0 00.105.957 2.541 2.541 0 00.348.844 1.856 1.856 0 00.633.6 1.888 1.888 0 00.961.227 1.989 1.989 0 00.988-.223 1.768 1.768 0 00.629-.586 2.435 2.435 0 00.332-.836 4.834 4.834 0 00.1-.98 4.852 4.852 0 00-.1-.977 2.435 2.435 0 00-.332-.84 1.768 1.768 0 00-.629-.586 1.989 1.989 0 00-.988-.223 1.888 1.888 0 00-.961.227 1.856 1.856 0 00-.633.6 2.541 2.541 0 00-.348.844 4.381 4.381 0 00-.1.952zm7.93-4.258h2.109v1.216h.031a4.108 4.108 0 01.477-.66 2.358 2.358 0 01.555-.457 2.376 2.376 0 01.676-.266 3.736 3.736 0 01.84-.086 3.639 3.639 0 01.8.094 3.307 3.307 0 01.809.3 3.364 3.364 0 01.746.539 3.281 3.281 0 01.617.816 4.591 4.591 0 01.422 1.129 6.277 6.277 0 01.156 1.473 7.531 7.531 0 01-.223 1.891 4.325 4.325 0 01-.672 1.477 3.109 3.109 0 01-1.133.961 3.532 3.532 0 01-1.605.344 3.46 3.46 0 01-.639-.055 2.64 2.64 0 01-.641-.211 2.4 2.4 0 01-.59-.4 2.468 2.468 0 01-.488-.637h-.031v4.348h-2.211zm4.036 1.735a1.659 1.659 0 00-.895.227 1.8 1.8 0 00-.586.586 2.616 2.616 0 00-.324.813 4.1 4.1 0 00-.1.9q0 .242.027.527a3.562 3.562 0 00.105.578 2.981 2.981 0 00.215.566 1.849 1.849 0 00.348.484 1.624 1.624 0 00.508.34 1.756 1.756 0 00.7.129 1.756 1.756 0 00.7-.129 1.624 1.624 0 00.508-.34 1.849 1.849 0 00.348-.484 2.981 2.981 0 00.215-.566 3.562 3.562 0 00.105-.578q.027-.285.027-.527a4.1 4.1 0 00-.1-.9 2.616 2.616 0 00-.324-.812 1.787 1.787 0 00-.59-.586 1.664 1.664 0 00-.887-.228zm10.25-1.735h2.211v6.727h3.25v-6.727h2.2v6.727h1.039v3.836h-2.044v-2.047h-6.656zm12.05 3.344h1.7a2.8 2.8 0 00.625-.059 1.008 1.008 0 00.395-.169.6.6 0 00.2-.281 1.2 1.2 0 00.059-.395 1 1 0 00-.059-.348.621.621 0 00-.2-.273 1.049 1.049 0 00-.375-.18 2.187 2.187 0 00-.586-.066H497.3zm-2.214-3.344h4.406a6.129 6.129 0 011.129.1 2.8 2.8 0 01.957.355 1.88 1.88 0 01.66.688 2.2 2.2 0 01.246 1.1 2.386 2.386 0 01-.082.664 1.607 1.607 0 01-.223.48 1.475 1.475 0 01-.324.336 2.3 2.3 0 01-.379.23 1.9 1.9 0 01.977.723 2.06 2.06 0 01.336 1.184 2.766 2.766 0 01-.207 1.09 2.38 2.38 0 01-.582.836 2.644 2.644 0 01-.922.539 3.637 3.637 0 01-1.219.191h-4.773zm2.214 6.946h1.7a2.4 2.4 0 00.77-.1 1.206 1.206 0 00.453-.258.755.755 0 00.211-.344 1.348 1.348 0 00.051-.352 1.421 1.421 0 00-.082-.52.726.726 0 00-.258-.332 1.094 1.094 0 00-.461-.172 4.285 4.285 0 00-.684-.052h-1.7zm8.852-2a2.758 2.758 0 00.023.313 2.4 2.4 0 00.094.422 2.258 2.258 0 00.2.457 1.575 1.575 0 00.355.418 1.778 1.778 0 00.547.3 2.293 2.293 0 00.777.117 1.671 1.671 0 00.465-.066 1.544 1.544 0 00.426-.2 1.437 1.437 0 00.34-.312 1.144 1.144 0 00.207-.418h2.289a1.7 1.7 0 01-.1.535 2.583 2.583 0 01-.309.609 3.636 3.636 0 01-.52.605 3.409 3.409 0 01-.742.527 4.369 4.369 0 01-.973.371 4.814 4.814 0 01-1.207.141 4.926 4.926 0 01-1.598-.249 3.39 3.39 0 01-1.3-.8 3.8 3.8 0 01-.879-1.426 6.209 6.209 0 01-.32-2.125 6 6 0 01.23-1.668 4 4 0 01.719-1.41 3.507 3.507 0 011.25-.973 4.225 4.225 0 011.832-.363 4.388 4.388 0 011.906.371 3.144 3.144 0 011.246 1.051 4.454 4.454 0 01.671 1.643 10.336 10.336 0 01.2 2.133zm3.539-1.469a2.3 2.3 0 00-.168-.937 1.708 1.708 0 00-.422-.6 1.473 1.473 0 00-.559-.312 2.07 2.07 0 00-.586-.09 2.046 2.046 0 00-.578.09 1.473 1.473 0 00-.559.313 1.708 1.708 0 00-.422.6 2.3 2.3 0 00-.168.938zm5.609-1.68h-2.573v-1.8h7.359v1.8h-2.578v6.719H515.3zm5.648 2.461a5.273 5.273 0 01.3-1.812 4.058 4.058 0 01.873-1.43 3.969 3.969 0 011.371-.934 4.665 4.665 0 011.808-.332 4.737 4.737 0 011.832.336 3.881 3.881 0 011.368.93 4.072 4.072 0 01.855 1.426 5.336 5.336 0 01.3 1.813 5.336 5.336 0 01-.3 1.813 4.112 4.112 0 01-.855 1.43 3.856 3.856 0 01-1.367.938 4.737 4.737 0 01-1.833.338 4.665 4.665 0 01-1.812-.336 3.943 3.943 0 01-1.371-.937 4.1 4.1 0 01-.867-1.43 5.273 5.273 0 01-.297-1.813zm2.3 0a4.381 4.381 0 00.105.957 2.541 2.541 0 00.348.844 1.856 1.856 0 00.633.6 1.888 1.888 0 00.961.227 1.989 1.989 0 00.988-.223 1.768 1.768 0 00.629-.586 2.435 2.435 0 00.332-.836 4.834 4.834 0 00.1-.98 4.852 4.852 0 00-.1-.977 2.435 2.435 0 00-.332-.84 1.768 1.768 0 00-.629-.586 1.989 1.989 0 00-.988-.223 1.888 1.888 0 00-.961.227 1.856 1.856 0 00-.633.6 2.541 2.541 0 00-.348.844 4.381 4.381 0 00-.095.952zm10.266-.914h1.7a2.8 2.8 0 00.625-.059 1.008 1.008 0 00.395-.172.6.6 0 00.2-.281 1.2 1.2 0 00.059-.395 1 1 0 00-.059-.348.621.621 0 00-.2-.273 1.049 1.049 0 00-.375-.18 2.187 2.187 0 00-.586-.066h-1.766zm-2.211-3.344h4.406a6.129 6.129 0 011.129.1 2.8 2.8 0 01.957.355 1.88 1.88 0 01.66.688 2.2 2.2 0 01.246 1.1 2.386 2.386 0 01-.082.664 1.607 1.607 0 01-.223.48 1.475 1.475 0 01-.324.336 2.3 2.3 0 01-.379.23 1.9 1.9 0 01.977.723 2.06 2.06 0 01.336 1.184 2.766 2.766 0 01-.207 1.09 2.38 2.38 0 01-.586.836 2.644 2.644 0 01-.922.539 3.637 3.637 0 01-1.205.191h-4.773zm2.211 6.945h1.7a2.4 2.4 0 00.77-.1 1.206 1.206 0 00.453-.258.755.755 0 00.211-.344 1.348 1.348 0 00.051-.352 1.421 1.421 0 00-.082-.52.726.726 0 00-.258-.332 1.094 1.094 0 00-.461-.172 4.285 4.285 0 00-.684-.047h-1.7zm15.8-6.945h2.211v8.516h-2.211zm-8.539 0H543v2.961h2.008a5.534 5.534 0 011.41.164 2.805 2.805 0 011.051.508 2.215 2.215 0 01.656.871 3.141 3.141 0 01.227 1.246 2.942 2.942 0 01-.187 1.109 2.436 2.436 0 01-.48.77 2.275 2.275 0 01-.652.484 3.779 3.779 0 01-.7.266 3.7 3.7 0 01-.637.113q-.296.024-.454.024h-4.453zm2.225 6.852h1.617a3.061 3.061 0 00.512-.043 1.351 1.351 0 00.461-.164.913.913 0 00.332-.336 1.1 1.1 0 00.125-.559 1.079 1.079 0 00-.129-.555.928.928 0 00-.352-.344 1.606 1.606 0 00-.516-.176 3.635 3.635 0 00-.621-.051H543zm9.961-6.852h2.719l1.391 2.484 1.43-2.484h2.641l-2.789 4.18 2.897 4.336h-2.766l-1.414-2.562-1.531 2.562h-2.7l2.891-4.336zm13.969 0h2.109v1.216h.031a4.108 4.108 0 01.477-.66 2.358 2.358 0 01.555-.457 2.377 2.377 0 01.676-.266 3.736 3.736 0 01.84-.086 3.639 3.639 0 01.8.094 3.307 3.307 0 01.809.3 3.364 3.364 0 01.746.539 3.281 3.281 0 01.617.816 4.592 4.592 0 01.422 1.129 6.277 6.277 0 01.156 1.473 7.531 7.531 0 01-.223 1.891 4.325 4.325 0 01-.672 1.477 3.109 3.109 0 01-1.133.961 3.532 3.532 0 01-1.605.344 3.46 3.46 0 01-.644-.055 2.64 2.64 0 01-.641-.211 2.4 2.4 0 01-.59-.4 2.468 2.468 0 01-.488-.637h-.031v4.348h-2.211zm4.031 1.734a1.659 1.659 0 00-.895.227 1.8 1.8 0 00-.586.586 2.616 2.616 0 00-.324.813 4.1 4.1 0 00-.1.9q0 .242.027.527a3.563 3.563 0 00.105.578 2.981 2.981 0 00.215.566 1.849 1.849 0 00.348.484 1.623 1.623 0 00.508.34 1.756 1.756 0 00.7.129 1.756 1.756 0 00.7-.129 1.623 1.623 0 00.508-.34 1.849 1.849 0 00.348-.484 2.981 2.981 0 00.215-.566 3.563 3.563 0 00.105-.578q.027-.285.027-.527a4.1 4.1 0 00-.1-.9 2.616 2.616 0 00-.324-.812 1.787 1.787 0 00-.59-.586 1.664 1.664 0 00-.887-.227zm7.391 3.211a2.758 2.758 0 00.023.313 2.4 2.4 0 00.094.422 2.257 2.257 0 00.2.457 1.575 1.575 0 00.355.418 1.778 1.778 0 00.547.3 2.293 2.293 0 00.777.117 1.671 1.671 0 00.465-.066 1.544 1.544 0 00.426-.2 1.438 1.438 0 00.34-.312 1.144 1.144 0 00.207-.418h2.289a1.7 1.7 0 01-.1.535 2.583 2.583 0 01-.309.609 3.636 3.636 0 01-.52.605 3.409 3.409 0 01-.742.527 4.369 4.369 0 01-.973.371 4.815 4.815 0 01-1.207.141 4.926 4.926 0 01-1.6-.254 3.39 3.39 0 01-1.3-.8 3.8 3.8 0 01-.879-1.426 6.209 6.209 0 01-.32-2.125 6 6 0 01.23-1.668 4 4 0 01.719-1.41 3.507 3.507 0 011.25-.973 4.225 4.225 0 011.832-.363 4.388 4.388 0 011.906.371 3.144 3.144 0 011.246 1.051 4.454 4.454 0 01.676 1.641 10.336 10.336 0 01.2 2.133zm3.539-1.469a2.3 2.3 0 00-.168-.937 1.708 1.708 0 00-.422-.6 1.473 1.473 0 00-.559-.312 2.07 2.07 0 00-.586-.09 2.046 2.046 0 00-.578.09 1.473 1.473 0 00-.559.313 1.708 1.708 0 00-.422.6 2.3 2.3 0 00-.168.938zm3.773-3.477h2.211v6.727h2.3v-6.726h2.2v6.727h2.3v-6.727h2.225v8.516h-11.236zm14.93 4.945a2.758 2.758 0 00.023.313 2.4 2.4 0 00.094.422 2.257 2.257 0 00.2.457 1.575 1.575 0 00.355.418 1.778 1.778 0 00.547.3 2.293 2.293 0 00.777.117 1.671 1.671 0 00.465-.066 1.544 1.544 0 00.426-.2 1.438 1.438 0 00.34-.312 1.144 1.144 0 00.207-.418h2.289a1.7 1.7 0 01-.1.535 2.583 2.583 0 01-.309.609 3.636 3.636 0 01-.52.605 3.409 3.409 0 01-.742.527 4.369 4.369 0 01-.973.371 4.815 4.815 0 01-1.207.141 4.926 4.926 0 01-1.6-.254 3.39 3.39 0 01-1.3-.8 3.8 3.8 0 01-.879-1.426 6.209 6.209 0 01-.32-2.125 6 6 0 01.23-1.668 4 4 0 01.719-1.41 3.507 3.507 0 011.25-.973 4.225 4.225 0 011.832-.363 4.388 4.388 0 011.906.371 3.144 3.144 0 011.246 1.051 4.454 4.454 0 01.676 1.641 10.336 10.336 0 01.2 2.133zm3.539-1.469a2.3 2.3 0 00-.168-.937 1.708 1.708 0 00-.422-.6 1.473 1.473 0 00-.559-.312 2.07 2.07 0 00-.586-.09 2.046 2.046 0 00-.578.09 1.473 1.473 0 00-.559.313 1.708 1.708 0 00-.422.6 2.3 2.3 0 00-.168.938zm3.773-3.477h2.211v3.078h3.25v-3.076h2.2v8.516h-2.2v-3.648h-3.25v3.648h-2.211zm9.773 0h2.211v5.25h.031l3.1-5.25h2.32v8.518h-2.2v-5.133h-.041l-3.006 5.133h-2.414zm16.281-3.562a2.49 2.49 0 01-.2 1.055 1.909 1.909 0 01-.559.715 2.312 2.312 0 01-.848.406 4.216 4.216 0 01-1.07.129 4.249 4.249 0 01-1.083-.125 2.35 2.35 0 01-.852-.406 1.858 1.858 0 01-.559-.715 2.532 2.532 0 01-.2-1.055h1.6a2.026 2.026 0 00.055.41.818.818 0 00.168.336.8.8 0 00.328.227 1.472 1.472 0 00.535.082 1.838 1.838 0 00.535-.066.766.766 0 00.34-.2.71.71 0 00.172-.328 1.77 1.77 0 00.039-.461zm-6.508 3.563h2.211v5.25h.031l3.1-5.25h2.32v8.517h-2.2v-5.133h-.039l-3.008 5.133h-2.414zm13.711 4.258a5.273 5.273 0 01.3-1.812 4.058 4.058 0 01.867-1.426 3.969 3.969 0 011.37-.933 4.665 4.665 0 011.813-.336 4.737 4.737 0 011.832.336 3.881 3.881 0 011.367.934 4.072 4.072 0 01.855 1.426 5.335 5.335 0 01.3 1.813 5.335 5.335 0 01-.3 1.813 4.113 4.113 0 01-.855 1.43 3.856 3.856 0 01-1.367.938 4.737 4.737 0 01-1.832.336 4.665 4.665 0 01-1.813-.338 3.943 3.943 0 01-1.371-.937 4.1 4.1 0 01-.867-1.43 5.273 5.273 0 01-.298-1.813zm2.3 0a4.381 4.381 0 00.105.957 2.541 2.541 0 00.348.844 1.856 1.856 0 00.633.6 1.888 1.888 0 00.961.227 1.989 1.989 0 00.988-.223 1.768 1.768 0 00.629-.586 2.435 2.435 0 00.332-.836 4.834 4.834 0 00.1-.98 4.852 4.852 0 00-.1-.977 2.435 2.435 0 00-.332-.84 1.768 1.768 0 00-.629-.586 1.989 1.989 0 00-.988-.223 1.888 1.888 0 00-.961.227 1.856 1.856 0 00-.633.6 2.541 2.541 0 00-.348.844 4.381 4.381 0 00-.099.953zm9.837-2.46h-2.578v-1.8h7.359v1.8h-2.578v6.719h-2.2zm5.422 4.93h.883a7.451 7.451 0 00.52-1.23 10.949 10.949 0 00.332-1.3 12.792 12.792 0 00.18-1.285q.055-.629.078-1.184t.02-1v-.727h6.665v6.727h1.07v3.835h-2.078v-2.047H660.8v2.047h-2.078zm6.469 0v-4.93h-2.531v.578q0 .344-.031.762-.027.418-.078.887t-.148.938q-.1.469-.234.922a4.878 4.878 0 01-.34.844zm6.078-1.781a2.758 2.758 0 00.023.313 2.4 2.4 0 00.094.422 2.257 2.257 0 00.2.457 1.575 1.575 0 00.355.418 1.778 1.778 0 00.547.3 2.293 2.293 0 00.777.117 1.671 1.671 0 00.465-.066 1.544 1.544 0 00.426-.2 1.438 1.438 0 00.34-.312 1.144 1.144 0 00.207-.418H677a1.7 1.7 0 01-.1.535 2.583 2.583 0 01-.309.609 3.636 3.636 0 01-.52.605 3.409 3.409 0 01-.742.527 4.369 4.369 0 01-.973.371 4.815 4.815 0 01-1.207.141 4.926 4.926 0 01-1.6-.254 3.39 3.39 0 01-1.3-.8 3.8 3.8 0 01-.879-1.426 6.209 6.209 0 01-.32-2.125 6 6 0 01.23-1.668 4 4 0 01.72-1.406 3.507 3.507 0 011.25-.973 4.225 4.225 0 011.832-.363 4.388 4.388 0 011.906.371 3.144 3.144 0 011.246 1.051 4.454 4.454 0 01.676 1.641 10.336 10.336 0 01.2 2.133zm3.539-1.469a2.3 2.3 0 00-.168-.937 1.708 1.708 0 00-.422-.6 1.473 1.473 0 00-.559-.312 2.07 2.07 0 00-.586-.09 2.046 2.046 0 00-.578.09 1.473 1.473 0 00-.559.313 1.708 1.708 0 00-.422.6 2.3 2.3 0 00-.168.938zm11.892 5.039h-2.2v-6.719h-2.609l-.047 1.586a23.407 23.407 0 01-.172 2.344 6.148 6.148 0 01-.434 1.684 2.326 2.326 0 01-.812 1.02 2.3 2.3 0 01-1.309.344 4.4 4.4 0 01-.656-.043 1.89 1.89 0 01-.461-.122v-1.852a1.688 1.688 0 00.277.086 1.841 1.841 0 00.41.039.7.7 0 00.445-.152 1.191 1.191 0 00.336-.555 5.255 5.255 0 00.219-1.113q.078-.711.1-1.836l.063-3.227h6.85zm2.383-8.516h2.217v3.234l3.188-3.234h2.938l-3.516 3.539 3.66 4.977h-2.883l-2.5-3.594-.891.9v2.694h-2.211zm9.711 0h2.211v5.25h.031l3.1-5.25h2.32v8.516h-2.2v-5.133h-.039l-3.006 5.133H698.8z"/><g transform="translate(0 -.004)" filter="url(#j)"><path d="M404 453.17h135a10 10 0 0110 10v35a10 10 0 01-10 10H404a10 10 0 01-10-10v-35a10 10 0 0110-10z" fill="#fff"/></g><path d="M413.117 473.682h9.313v11.484h-2.4v-9.508h-4.507v9.508h-2.406zm19.61 11.484h-2.2v-6.719h-2.613l-.047 1.586a23.407 23.407 0 01-.167 2.344 6.148 6.148 0 01-.434 1.684 2.326 2.326 0 01-.812 1.02 2.3 2.3 0 01-1.309.344 4.4 4.4 0 01-.656-.043 1.89 1.89 0 01-.461-.121v-1.853a1.688 1.688 0 00.277.086 1.841 1.841 0 00.41.039.7.7 0 00.445-.152 1.191 1.191 0 00.336-.555 5.255 5.255 0 00.219-1.113q.078-.711.1-1.836l.063-3.227h6.852zm9.2-1.68a3.771 3.771 0 00.043.629 1.5 1.5 0 00.113.391.561.561 0 00.16.211.635.635 0 00.191.1v.349h-2.442a4.118 4.118 0 01-.137-.395 2.091 2.091 0 01-.074-.6q-.258.266-.5.492a2.817 2.817 0 01-.551.395 2.863 2.863 0 01-.7.266 4.09 4.09 0 01-.961.1 3.165 3.165 0 01-1.057-.168 2.33 2.33 0 01-.832-.5 2.225 2.225 0 01-.547-.82 3.078 3.078 0 01-.2-1.141 2.814 2.814 0 01.167-.969 2.441 2.441 0 01.465-.789 2.483 2.483 0 01.734-.562 3.081 3.081 0 01.973-.3l2.164-.32q.117-.016.254-.047a.807.807 0 00.254-.105.609.609 0 00.2-.2.668.668 0 00.078-.348 1.086 1.086 0 00-.066-.387.723.723 0 00-.223-.3 1.1 1.1 0 00-.418-.2 2.56 2.56 0 00-.652-.07 2.321 2.321 0 00-.715.09 1.044 1.044 0 00-.426.25.955.955 0 00-.227.375 2.492 2.492 0 00-.1.457h-2.215a2.572 2.572 0 01.051-.434 2.993 2.993 0 01.188-.605 3.24 3.24 0 01.383-.664 2.671 2.671 0 01.648-.613 3.6 3.6 0 01.98-.457 4.85 4.85 0 011.383-.187 6.1 6.1 0 011.848.23 2.9 2.9 0 011.1.6 1.868 1.868 0 01.531.828 3.162 3.162 0 01.137.91zm-2.208-2.476q-.2.109-.406.2a2.492 2.492 0 01-.539.152l-.586.109a5.3 5.3 0 00-.672.164 1.515 1.515 0 00-.48.246.978.978 0 00-.289.371 1.343 1.343 0 00-.1.547 1.188 1.188 0 00.086.473.877.877 0 00.238.328 1 1 0 00.355.191 1.481 1.481 0 00.438.063 2.4 2.4 0 00.32-.027 2.1 2.1 0 00.414-.105 2.263 2.263 0 00.438-.215 1.523 1.523 0 00.391-.355 1.822 1.822 0 00.281-.535 2.287 2.287 0 00.109-.746zm6.07-2.562h-2.578v-1.8h7.359v1.8h-2.578v6.718h-2.2zm6.156-1.8h2.211v3.078h3.25v-3.076h2.2v8.516h-2.2v-3.648h-3.25v3.648h-2.211zm16.655 6.838a3.771 3.771 0 00.043.629 1.5 1.5 0 00.113.391.561.561 0 00.16.211.635.635 0 00.191.1v.349h-2.443a4.118 4.118 0 01-.137-.395 2.091 2.091 0 01-.074-.6q-.258.266-.5.492a2.817 2.817 0 01-.551.395 2.863 2.863 0 01-.7.266 4.09 4.09 0 01-.961.1 3.165 3.165 0 01-1.057-.168 2.33 2.33 0 01-.832-.5 2.225 2.225 0 01-.547-.82 3.078 3.078 0 01-.2-1.141 2.814 2.814 0 01.164-.973 2.441 2.441 0 01.465-.789 2.483 2.483 0 01.734-.562 3.081 3.081 0 01.973-.3l2.164-.32q.117-.016.254-.047a.807.807 0 00.254-.105.609.609 0 00.2-.2.668.668 0 00.078-.348 1.086 1.086 0 00-.066-.387.723.723 0 00-.223-.3 1.1 1.1 0 00-.418-.2 2.56 2.56 0 00-.652-.07 2.321 2.321 0 00-.715.09 1.044 1.044 0 00-.426.25.955.955 0 00-.227.375 2.492 2.492 0 00-.1.457h-2.212a2.571 2.571 0 01.051-.434 2.993 2.993 0 01.188-.605 3.239 3.239 0 01.383-.664 2.671 2.671 0 01.648-.613 3.6 3.6 0 01.98-.457 4.85 4.85 0 011.383-.187 6.1 6.1 0 011.848.23 2.9 2.9 0 011.1.6 1.868 1.868 0 01.531.828 3.162 3.162 0 01.137.91zm-2.209-2.476q-.2.109-.406.2a2.492 2.492 0 01-.539.152l-.586.109a5.3 5.3 0 00-.672.164 1.515 1.515 0 00-.48.246.978.978 0 00-.289.371 1.343 1.343 0 00-.1.547 1.188 1.188 0 00.086.473.877.877 0 00.238.328 1 1 0 00.357.191 1.481 1.481 0 00.438.063 2.4 2.4 0 00.32-.027 2.1 2.1 0 00.414-.105 2.263 2.263 0 00.438-.215 1.523 1.523 0 00.39-.357 1.822 1.822 0 00.281-.535 2.287 2.287 0 00.109-.746zm11.909 4.156h-2.222v-3.133h-1.445a8.092 8.092 0 00-.816.035 1.373 1.373 0 00-.559.164.817.817 0 00-.332.379 1.841 1.841 0 00-.129.68l-.031.82-.043.469a1.99 1.99 0 01-.153.586h-2.336a2.3 2.3 0 00.166-.332 2.256 2.256 0 00.1-.312 3.058 3.058 0 00.055-.309q.02-.156.035-.328l.11-1.019a5.982 5.982 0 01.094-.594 1.228 1.228 0 01.18-.434 1.093 1.093 0 01.344-.316 2.549 2.549 0 01.586-.242 2.247 2.247 0 01-.262-.09 2.121 2.121 0 01-.3-.156 1.917 1.917 0 01-.32-.25 1.908 1.908 0 01-.3-.379 1.339 1.339 0 01-.16-.316 2.382 2.382 0 01-.09-.328 2.219 2.219 0 01-.039-.3q-.008-.141-.008-.242a2.749 2.749 0 01.109-.809 2.48 2.48 0 01.281-.621 2.078 2.078 0 01.391-.453 2.337 2.337 0 01.445-.3 2.175 2.175 0 01.555-.215 5.124 5.124 0 01.594-.109q.289-.035.539-.043t.391-.008h4.57zm-2.222-6.852H474.3q-.281 0-.562.016a1.34 1.34 0 00-.5.121.837.837 0 00-.359.328 1.206 1.206 0 00-.137.629 1.124 1.124 0 00.137.609.844.844 0 00.352.313 1.291 1.291 0 00.48.117q.266.016.531.016h1.844zm16.2-4.766a2.128 2.128 0 01-.227 1.074 1.9 1.9 0 01-.621.672 2.676 2.676 0 01-.891.367 7.081 7.081 0 01-1.035.152q-.367.031-.758.1a4.368 4.368 0 00-.766.2 3.376 3.376 0 00-.711.359 2.671 2.671 0 00-.6.551 2.82 2.82 0 00-.437.781 3.658 3.658 0 00-.216 1.062 2.5 2.5 0 01.4-.77 2.7 2.7 0 01.684-.63 3.567 3.567 0 01.949-.43 4.188 4.188 0 011.2-.16 4.068 4.068 0 011.571.29 3.375 3.375 0 011.2.824 3.606 3.606 0 01.754 1.281 5.024 5.024 0 01.262 1.664 5.369 5.369 0 01-.3 1.844 4.037 4.037 0 01-.859 1.418 3.81 3.81 0 01-1.363.914 4.813 4.813 0 01-1.814.328 4.5 4.5 0 01-2.43-.6 3.8 3.8 0 01-1.477-1.961 5.716 5.716 0 01-.266-.977q-.094-.516-.137-.969t-.051-.789q-.008-.336-.008-.445a8.313 8.313 0 01.281-2.23 4.758 4.758 0 01.888-1.763 4.515 4.515 0 011.578-1.211 6.861 6.861 0 012.34-.586 1.625 1.625 0 00.621-.145.517.517 0 00.23-.215zm-5.63 7.36a4.381 4.381 0 00.105.957 2.541 2.541 0 00.348.844 1.856 1.856 0 00.633.6 1.888 1.888 0 00.961.227 2.007 2.007 0 001-.223 1.768 1.768 0 00.629-.586 2.379 2.379 0 00.328-.836 5.029 5.029 0 00.094-.98 3.856 3.856 0 00-.109-.937 2.193 2.193 0 00-.344-.762 1.613 1.613 0 00-.609-.508 2.045 2.045 0 00-.906-.184 2.249 2.249 0 00-.973.191 1.817 1.817 0 00-.66.52 2.107 2.107 0 00-.375.762 3.5 3.5 0 00-.122.915zm7.9-4.258h2.109v1.216h.031a4.108 4.108 0 01.477-.66 2.358 2.358 0 01.555-.457 2.376 2.376 0 01.676-.266 3.736 3.736 0 01.84-.086 3.639 3.639 0 01.8.094 3.308 3.308 0 01.809.3 3.363 3.363 0 01.746.539 3.281 3.281 0 01.617.816 4.591 4.591 0 01.422 1.129 6.277 6.277 0 01.156 1.473 7.531 7.531 0 01-.223 1.891 4.325 4.325 0 01-.672 1.477 3.109 3.109 0 01-1.133.961 3.532 3.532 0 01-1.605.344 3.46 3.46 0 01-.645-.055 2.64 2.64 0 01-.641-.211 2.4 2.4 0 01-.59-.4 2.467 2.467 0 01-.488-.637h-.031v4.348h-2.211zm4.031 1.734a1.659 1.659 0 00-.895.227 1.8 1.8 0 00-.586.586 2.616 2.616 0 00-.324.813 4.1 4.1 0 00-.1.9q0 .242.027.527a3.561 3.561 0 00.105.578 2.981 2.981 0 00.215.566 1.849 1.849 0 00.348.484 1.624 1.624 0 00.508.34 1.756 1.756 0 00.7.129 1.756 1.756 0 00.7-.129 1.624 1.624 0 00.508-.34 1.849 1.849 0 00.348-.484 2.981 2.981 0 00.215-.566 3.561 3.561 0 00.105-.578q.027-.285.027-.527a4.1 4.1 0 00-.1-.9 2.616 2.616 0 00-.324-.812 1.787 1.787 0 00-.59-.586 1.664 1.664 0 00-.888-.227zm5.3 2.523a5.273 5.273 0 01.3-1.812 4.058 4.058 0 01.864-1.429 3.969 3.969 0 011.371-.934 4.665 4.665 0 011.813-.336 4.737 4.737 0 011.832.336 3.881 3.881 0 011.367.934 4.072 4.072 0 01.855 1.426 5.336 5.336 0 01.3 1.813 5.336 5.336 0 01-.3 1.813 4.112 4.112 0 01-.855 1.43 3.856 3.856 0 01-1.367.938 4.737 4.737 0 01-1.832.336 4.665 4.665 0 01-1.812-.336 3.943 3.943 0 01-1.371-.937 4.1 4.1 0 01-.867-1.43 5.273 5.273 0 01-.302-1.811zm2.3 0a4.381 4.381 0 00.105.957 2.541 2.541 0 00.348.844 1.856 1.856 0 00.633.6 1.888 1.888 0 00.961.227 1.989 1.989 0 00.988-.223 1.768 1.768 0 00.629-.586 2.435 2.435 0 00.332-.836 4.834 4.834 0 00.1-.98 4.852 4.852 0 00-.1-.977 2.435 2.435 0 00-.332-.84 1.768 1.768 0 00-.629-.586 1.989 1.989 0 00-.988-.223 1.888 1.888 0 00-.961.227 1.856 1.856 0 00-.633.6 2.541 2.541 0 00-.348.844 4.381 4.381 0 00-.104.953zm7.992-4.258h2.211v3.078h3.25v-3.077h2.2v8.516h-2.2v-3.648h-3.25v3.648h-2.211zm9.758 0h2.211v2.961h2.26a5.534 5.534 0 011.41.164 2.805 2.805 0 011.051.508 2.215 2.215 0 01.656.871 3.141 3.141 0 01.227 1.246 2.942 2.942 0 01-.187 1.109 2.436 2.436 0 01-.48.77 2.275 2.275 0 01-.652.484 3.779 3.779 0 01-.7.266 3.7 3.7 0 01-.637.113q-.293.023-.449.023h-4.7zm2.211 6.852h1.867a3.061 3.061 0 00.512-.043 1.351 1.351 0 00.461-.164.913.913 0 00.332-.336 1.1 1.1 0 00.125-.559 1.079 1.079 0 00-.129-.555.928.928 0 00-.352-.344 1.606 1.606 0 00-.516-.176 3.635 3.635 0 00-.621-.051h-1.68z"/></svg>