<?xml version="1.0" encoding="utf-8"?><svg viewBox="0 0 682.667 682.667" xmlns="http://www.w3.org/2000/svg" xmlns:xlink="http://www.w3.org/1999/xlink"><style>:root>svg{display:none}:root>svg:target{display:block}</style><svg viewBox="0 0 492 492" id="cross" xmlns="http://www.w3.org/2000/svg"><path d="M300.188 246L484.14 62.04c5.06-5.064 7.852-11.82 7.86-19.024 0-7.208-2.792-13.972-7.86-19.028L468.02 7.872C462.952 2.796 456.196.016 448.984.016c-7.2 0-13.956 2.78-19.024 7.856L246.008 191.82 62.048 7.872C56.988 2.796 50.228.016 43.02.016c-7.2 0-13.96 2.78-19.02 7.856L7.872 23.988c-10.496 10.496-10.496 27.568 0 38.052L191.828 246 7.872 429.952C2.808 435.024.02 441.78.02 448.984c0 7.204 2.788 13.96 7.852 19.028l16.124 16.116c5.06 5.072 11.824 7.856 19.02 7.856 7.208 0 13.968-2.784 19.028-7.856l183.96-183.952 183.952 183.952c5.068 5.072 11.824 7.856 19.024 7.856h.008c7.204 0 13.96-2.784 19.028-7.856l16.12-16.116c5.06-5.064 7.852-11.824 7.852-19.028 0-7.204-2.792-13.96-7.852-19.028L300.188 246z"/></svg><svg viewBox="-21 0 512 512" id="share" xmlns="http://www.w3.org/2000/svg"><path d="M453.332 85.332c0 38.293-31.039 69.336-69.332 69.336s-69.332-31.043-69.332-69.336S345.707 16 384 16s69.332 31.043 69.332 69.332zm0 0"/><path d="M384 170.668c-47.062 0-85.332-38.273-85.332-85.336S336.938 0 384 0s85.332 38.273 85.332 85.332-38.27 85.336-85.332 85.336zM384 32c-29.418 0-53.332 23.938-53.332 53.332s23.914 53.336 53.332 53.336 53.332-23.937 53.332-53.336S413.418 32 384 32zm69.332 394.668C453.332 464.957 422.293 496 384 496s-69.332-31.043-69.332-69.332 31.039-69.336 69.332-69.336 69.332 31.043 69.332 69.336zm0 0"/><path d="M384 512c-47.062 0-85.332-38.273-85.332-85.332s38.27-85.336 85.332-85.336 85.332 38.273 85.332 85.336S431.063 512 384 512zm0-138.668c-29.418 0-53.332 23.938-53.332 53.336S354.582 480 384 480s53.332-23.937 53.332-53.332-23.914-53.336-53.332-53.336zM154.668 256c0 38.293-31.043 69.332-69.336 69.332S16 294.293 16 256s31.043-69.332 69.332-69.332 69.336 31.039 69.336 69.332zm0 0"/><path d="M85.332 341.332C38.273 341.332 0 303.063 0 256s38.273-85.332 85.332-85.332 85.336 38.27 85.336 85.332-38.273 85.332-85.336 85.332zm0-138.664C55.914 202.668 32 226.602 32 256s23.914 53.332 53.332 53.332 53.336-23.934 53.336-53.332-23.914-53.332-53.336-53.332zm0 0"/><path d="M135.703 245.762c-7.426 0-14.637-3.863-18.562-10.773-5.824-10.219-2.238-23.254 7.98-29.102L323.07 93.035c10.219-5.867 23.254-2.281 29.102 7.977 5.824 10.219 2.238 23.254-7.98 29.102L146.238 242.965a21.2 21.2 0 01-10.535 2.797zm197.93 176a21.2 21.2 0 01-10.539-2.797L125.141 306.113c-10.219-5.824-13.801-18.859-7.977-29.102 5.801-10.238 18.855-13.844 29.098-7.977l197.953 112.852c10.219 5.824 13.801 18.859 7.977 29.102-3.945 6.91-11.156 10.773-18.559 10.773zm0 0"/></svg><svg viewBox="0 0 22 22" id="toggle" xmlns="http://www.w3.org/2000/svg"><path d="M2 0a2 2 0 11-2 2 2 2 0 012-2zm0 18a2 2 0 11-2 2 2 2 0 012-2zm0-9a2 2 0 11-2 2 2 2 0 012-2zm9 0a2 2 0 11-2 2 2 2 0 012-2zm0-9a2 2 0 11-2 2 2 2 0 012-2zm0 18a2 2 0 11-2 2 2 2 0 012-2zm9-18a2 2 0 11-2 2 2 2 0 012-2zm0 18a2 2 0 11-2 2 2 2 0 012-2zm0-9a2 2 0 11-2 2 2 2 0 012-2z"/></svg></svg>