<svg xmlns="http://www.w3.org/2000/svg" width="136.5" height="1172.626"><path id="Path_1140" data-name="Path 1140" d="M72.072 187.64a65.762 65.762 0 01-20.93-3.276 62.373 62.373 0 01-17.836-9.282 61.478 61.478 0 01-13.741-14.287 65.534 65.534 0 01-8.827-18.564 78.81 78.81 0 01.091-44.044 70.941 70.941 0 019.009-19.11A64.89 64.89 0 0133.67 64.153a60.692 60.692 0 0117.745-9.646 62.764 62.764 0 0120.657-3.367A64.32 64.32 0 0191 53.87a57.263 57.263 0 0116.2 7.83 56.114 56.114 0 0112.647 12.19 51.094 51.094 0 018.1 16.016l-26.208 6.552a35.412 35.412 0 00-12.195-15.015 30.777 30.777 0 00-17.836-5.369 31.865 31.865 0 00-14.287 3.276 34.166 34.166 0 00-11.466 9.191 44.531 44.531 0 00-7.555 13.923 57.613 57.613 0 00-.091 34.762 40.424 40.424 0 007.553 13.559 33.5 33.5 0 0026.208 11.921 32.617 32.617 0 0018.291-5.187q7.917-5.187 12.649-15.2l26.208 6.552a53.281 53.281 0 01-12.1 20.566 56.62 56.62 0 01-19.748 13.471 65.7 65.7 0 01-25.298 4.732zm136.136 0a70.355 70.355 0 01-21.658-3.276 63.886 63.886 0 01-18.473-9.373 62.216 62.216 0 01-14.2-14.56 68.823 68.823 0 01-9.191-18.837 72.712 72.712 0 01-3.276-22.022 73.6 73.6 0 013.276-22.113 67.082 67.082 0 019.282-18.928 63.823 63.823 0 0114.287-14.56 65.66 65.66 0 0118.473-9.464 69.2 69.2 0 0121.84-3.367 70.355 70.355 0 0121.658 3.276 63.886 63.886 0 0118.474 9.373 62.215 62.215 0 0114.2 14.56 68.823 68.823 0 019.191 18.837 72.713 72.713 0 013.276 22.022 73.6 73.6 0 01-3.276 22.113 67.081 67.081 0 01-9.282 18.928 63.823 63.823 0 01-14.287 14.56 65.66 65.66 0 01-18.473 9.464 69.2 69.2 0 01-21.841 3.367zm.182-24.934a37.98 37.98 0 0015.561-3.185 35.791 35.791 0 0012.376-9.009 42.444 42.444 0 008.1-13.741 53.327 53.327 0 000-34.762 42.444 42.444 0 00-8.1-13.741 35.791 35.791 0 00-12.376-9.009 39.606 39.606 0 00-31.122 0 35.791 35.791 0 00-12.376 9.009 42.445 42.445 0 00-8.1 13.741 53.327 53.327 0 000 34.762 42.444 42.444 0 008.1 13.741 35.791 35.791 0 0012.376 9.009 37.98 37.98 0 0015.561 3.185zM294.84 184V54.78h23.478l59.882 85.54V54.78h26.2V184h-23.474l-59.878-85.54V184zm173.082 2.73a54.617 54.617 0 01-21.385-4.1 46.074 46.074 0 01-16.562-11.648 40.779 40.779 0 01-9.373-18.109l25.3-5.46a21.907 21.907 0 008.281 11.648 26.04 26.04 0 0024.388 2.093 16.638 16.638 0 006.916-5.733 14.61 14.61 0 002.457-8.372 11.993 11.993 0 00-4.55-9.737q-4.55-3.731-14.742-6.1l-5.824-1.274q-20.02-4.368-29.484-14.105a32.8 32.8 0 01-9.464-23.751 36.849 36.849 0 013.458-16.016 38.978 38.978 0 019.555-12.649 44.607 44.607 0 0114.287-8.372 50.89 50.89 0 0117.654-3 50 50 0 0120.02 4A42.293 42.293 0 01504.5 67.52a39.423 39.423 0 018.554 17.654l-24.934 5.46a20.116 20.116 0 00-20.02-15.106 19.853 19.853 0 00-8.827 1.911 15.5 15.5 0 00-6.188 5.278 13.186 13.186 0 00-2.275 7.553 11.075 11.075 0 004.914 9.737q4.914 3.367 14.56 5.551l5.824 1.274q19.838 4.368 29.393 13.832t9.555 24.206a39.706 39.706 0 01-3.549 16.926 40.179 40.179 0 01-9.919 13.286 44.437 44.437 0 01-14.924 8.645 56.246 56.246 0 01-18.742 3.003zm118.118.91a63.574 63.574 0 01-22.932-3.913 48.782 48.782 0 01-17.472-11.284 50.159 50.159 0 01-11.193-17.654 64.315 64.315 0 01-3.913-23.023V54.78h27.118v75.712a39.5 39.5 0 003.458 17.108 25.513 25.513 0 009.919 11.193 28.765 28.765 0 0015.2 3.913 28.29 28.29 0 0015.106-3.913 26.274 26.274 0 009.919-11.193 38.634 38.634 0 003.549-17.108V54.78h27.118v76.986A64.315 64.315 0 01638 154.789a48.731 48.731 0 01-28.938 28.938 64.314 64.314 0 01-23.022 3.913zm77.714-3.64V54.78h27.118v105.2h52.78V184zm138.866 2.73a54.617 54.617 0 01-21.385-4.1 46.074 46.074 0 01-16.562-11.648 40.78 40.78 0 01-9.373-18.109l25.3-5.46a21.907 21.907 0 008.281 11.648 26.04 26.04 0 0024.388 2.093 16.638 16.638 0 006.916-5.733 14.61 14.61 0 002.457-8.372 11.993 11.993 0 00-4.55-9.737q-4.55-3.731-14.742-6.1l-5.824-1.274q-20.02-4.368-29.484-14.105a32.8 32.8 0 01-9.464-23.751 36.848 36.848 0 013.458-16.016 38.979 38.979 0 019.555-12.649 44.608 44.608 0 0114.287-8.372 50.89 50.89 0 0117.654-3 50 50 0 0120.02 4A42.292 42.292 0 01839.2 67.52a39.423 39.423 0 018.554 17.654l-24.934 5.46a20.116 20.116 0 00-20.02-15.106 19.853 19.853 0 00-8.827 1.911 15.5 15.5 0 00-6.188 5.278 13.186 13.186 0 00-2.275 7.553 11.075 11.075 0 004.914 9.737q4.914 3.367 14.56 5.551l5.824 1.274q19.838 4.368 29.393 13.832t9.555 24.206a39.705 39.705 0 01-3.549 16.926 40.179 40.179 0 01-9.919 13.286 44.437 44.437 0 01-14.924 8.645 56.247 56.247 0 01-18.744 3.003zM896.9 184V78.8h-36.4V54.78h99.918V78.8h-36.4V184zm57.876 0L1006.1 54.78h28.756L1086.358 184h-27.846l-10.556-28.392h-55.874L981.526 184zm45.864-51.324h38.76l-19.472-51.506zM1101.1 184V54.78h79.17v23.66h-52.78v31.85h46.956v23.478h-46.956V184z" transform="rotate(90 97.642 89.998)" fill="#034e6f" opacity=".09"/></svg>