<svg xmlns="http://www.w3.org/2000/svg" width="450" height="394"><defs><filter id="a" x="0" y="0" width="450" height="394" filterUnits="userSpaceOnUse"><feOffset dy="30"/><feGaussianBlur stdDeviation="15" result="b"/><feFlood flood-color="#989898" flood-opacity=".161"/><feComposite operator="in" in2="b"/><feComposite in="SourceGraphic"/></filter></defs><g transform="translate(.002)" filter="url(#a)"><path fill="#fff" d="M45 15h360v304H45z"/></g><path d="M130.306 44.129l-4.3-7.477-4.3-7.477-4.328 7.459-4.327 7.459 5.961.012-.057 28.825 5.325.011.057-28.825zm-16.979 18.959l-2.6-4.52-2.6-4.52-2.616 4.51-2.616 4.51 3.6.007-.035 17.426 3.219.006.035-17.426z" fill="#e0e0e0"/><path fill="#fff" d="M141.658 54.842h218.848v170.291H141.658z"/><path d="M360.507 225.134c0-1.275-.061-67.5-.153-170.291l.153.153-218.829.032h-.019l.185-.185-.019 170.291-.166-.167 218.848.167-218.848.167h-.167v-.167l-.019-170.291v-.185h.2l218.829.032h.153v.153c-.088 102.795-.147 169.017-.148 170.291z" fill="#263238"/><path d="M201.835 210.832c-.1 0-.186-18.512-.186-41.341s.083-41.344.186-41.344.185 18.507.185 41.344-.083 41.341-.185 41.341zm94.975 0c-.1 0-.185-18.512-.185-41.341s.083-41.344.185-41.344.186 18.507.186 41.344-.083 41.341-.186 41.341zm-62.551 0c-.1 0-.185-23.665-.185-52.85s.083-52.855.185-52.855.186 23.659.186 52.855-.083 52.85-.186 52.85zm-65.724 0c-.1 0-.186-23.665-.186-52.85s.083-52.855.186-52.855.185 23.659.185 52.855-.083 52.85-.185 52.85zm165.554 0c-.1 0-.186-23.665-.186-52.85s.083-52.855.186-52.855.185 23.659.185 52.855-.083 52.85-.185 52.85zm-71.398-.001c-.1 0-.185-27.324-.185-61.023s.083-61.028.185-61.028.185 27.318.185 61.028-.082 61.023-.185 61.023z" fill="#263238"/><path d="M202.611 128.146a.776.776 0 11-.775-.775.775.775 0 01.775.775z" fill="#263238"/><circle cx=".776" cy=".776" r=".776" fill="#263238" transform="translate(233.483 104.351)"/><path d="M234.259 107.846a2.72 2.72 0 112.721-2.72 2.723 2.723 0 01-2.721 2.72zm0-5.262a2.542 2.542 0 102.546 2.543 2.546 2.546 0 00-2.546-2.542z" fill="#263238"/><circle cx=".776" cy=".776" r=".776" fill="#263238" transform="translate(261.916 88.005)"/><circle cx=".776" cy=".776" r=".776" fill="#263238" transform="translate(296.035 128.147)"/><circle cx=".776" cy=".776" r=".776" fill="#263238" transform="translate(333.332 104.351)"/><path d="M169.309 105.902a.776.776 0 11-.775-.775.775.775 0 01.775.775z" fill="#263238"/><path d="M341.433 142.537a2.736 2.736 0 01-.61.2 13.175 13.175 0 00-1.761.6 16.954 16.954 0 00-5.651 4.29c-2.116 2.291-4.234 5.482-6.894 9.069a43.954 43.954 0 01-4.684 5.436 25.943 25.943 0 01-3.042 2.515 21.161 21.161 0 01-3.663 2 20.658 20.658 0 01-8.776 1.477 23.586 23.586 0 01-4.721-.592 12.322 12.322 0 01-4.568-2.011 14.8 14.8 0 01-3.566-3.72c-.985-1.426-1.869-2.934-2.724-4.469-1.7-3.083-3.473-6.187-5.487-9.3-1.976-3.158-3.808-6.484-5.853-9.757a46.732 46.732 0 00-7.166-9.245 20.823 20.823 0 00-4.813-3.448 15.984 15.984 0 00-5.719-1.675 20.122 20.122 0 00-11.86 2.536 30.056 30.056 0 00-9.028 8.419 93.377 93.377 0 00-6.452 10.376 105.745 105.745 0 01-6.251 10.151 49.9 49.9 0 01-7.568 8.627c-.719.607-1.426 1.219-2.2 1.747a25.154 25.154 0 01-2.325 1.519 20.222 20.222 0 01-5.042 2.075 16.717 16.717 0 01-2.637.491 9.055 9.055 0 01-1.324.078c-.441 0-.88.033-1.316.016a20.024 20.024 0 01-5.05-.936 34.208 34.208 0 01-8.536-4.46c-2.534-1.744-4.852-3.552-7.118-5.183a38.042 38.042 0 00-6.76-4.1 22.347 22.347 0 00-6.729-1.912 16.57 16.57 0 00-6.047.391 9.936 9.936 0 00-1.307.422 8.27 8.27 0 00-1.222.481 15.676 15.676 0 00-2.137 1.185 22.711 22.711 0 00-3.214 2.572l-1.118 1.225a10.173 10.173 0 00-.9 1.042l-1.132 1.491a2.8 2.8 0 01-.419.489 2.7 2.7 0 01.325-.552l1.048-1.564a9.732 9.732 0 01.864-1.087l1.093-1.276a22.2 22.2 0 013.211-2.7 16 16 0 012.171-1.26 8.654 8.654 0 011.251-.52 10.425 10.425 0 011.344-.458 17.013 17.013 0 016.25-.5 22.857 22.857 0 016.951 1.884 38.4 38.4 0 016.93 4.1c2.3 1.623 4.625 3.408 7.144 5.114a33.527 33.527 0 008.334 4.291 19.161 19.161 0 004.807.864c.413.014.829-.018 1.246-.023a8.392 8.392 0 001.252-.079 15.776 15.776 0 002.491-.478 22.663 22.663 0 009.137-5.166 49.092 49.092 0 007.376-8.471 105.4 105.4 0 006.168-10.069 93.724 93.724 0 016.516-10.506 31.078 31.078 0 019.368-8.726 21.188 21.188 0 0112.52-2.669 17.07 17.07 0 016.1 1.794 21.9 21.9 0 015.064 3.636 47.558 47.558 0 017.321 9.476c2.056 3.311 3.878 6.646 5.821 9.777 2 3.116 3.8 6.3 5.471 9.367 1.707 3.028 3.371 6.073 5.974 7.917a11.426 11.426 0 004.257 1.908 22.82 22.82 0 004.541.6 19.91 19.91 0 008.444-1.346 20.411 20.411 0 003.539-1.893 25.329 25.329 0 002.977-2.411 43.944 43.944 0 004.676-5.3 113.028 113.028 0 017.073-8.988 16.489 16.489 0 015.883-4.2 10.389 10.389 0 011.82-.507 2.77 2.77 0 01.632-.091z" fill="#e8505b"/><path fill="#263238" d="M167.759 73.957h38.158v2.123h-38.158zm0 4.969h18.856v2.123h-18.856zm-21.855-37.977h210.094a4.506 4.506 0 014.506 4.506v9.387H141.398v-9.387a4.506 4.506 0 014.506-4.506z"/><path d="M152.753 48.163a1.494 1.494 0 11-1.494-1.494 1.494 1.494 0 011.494 1.494zm6.525 0a1.495 1.495 0 11-1.494-1.494 1.494 1.494 0 011.494 1.494zm6.524 0a1.494 1.494 0 11-1.495-1.494 1.494 1.494 0 011.495 1.494z" fill="#fff"/><g transform="translate(68.108 170.23)"><rect width="89.863" height="25.195" rx="3.23" fill="#e6e6e6"/><path d="M18.941 16.799a5.476 5.476 0 11-.847-7.7 5.476 5.476 0 01.847 7.7z" fill="#fff"/><path d="M17.747 11.515a25.287 25.287 0 01-2.963 3.148l-.723.7-.13.125-.124-.127a17.545 17.545 0 01-2.215-2.476 17.542 17.542 0 012.471 2.216h-.253l.716-.706a25.372 25.372 0 013.221-2.88zm63.346-.764c0 .1-11.424.186-25.511.186s-25.513-.083-25.513-.186 11.421-.185 25.513-.185 25.511.083 25.511.185zm-20.928 4.983c0 .1-6.6.186-14.749.186s-14.75-.083-14.75-.186 6.6-.185 14.75-.185 14.749.083 14.749.185z" fill="#263238"/></g><g transform="translate(85.959 105.187)"><rect width="88.593" height="36.792" rx="2.616" fill="#e0e0e0"/><path d="M18.406 11.628a4.13 4.13 0 11-4.13-4.13 4.13 4.13 0 014.13 4.13zm4.13-2.853h28.777v1.598H22.536z" fill="#e8505b"/><path fill="#fff" d="M22.536 12.406h55.981v1.598H22.536z"/><path d="M18.406 24.326a4.13 4.13 0 11-4.13-4.13 4.13 4.13 0 014.13 4.13zm4.13-2.853h14.695v1.598H22.536z" fill="#e8505b"/><path fill="#fff" d="M22.536 25.104h55.981v1.598H22.536z"/></g><rect width="114.303" height="48.585" rx="3.958" fill="#e0e0e0" transform="translate(108.077 218.858)"/><path d="M128.989 242.337l-.064-9.855a12.573 12.573 0 00-8.13 3.17 11.653 11.653 0 00-3.917 10.206 13.806 13.806 0 00.23 1.432c0 .012 0 .023.006.035l11.874-2.672zm12.238-3.034a11.692 11.692 0 00-9.584-6.709c-.125-.012-.25-.023-.376-.033-.08-.006-.159-.014-.239-.019a15.231 15.231 0 00-.716-.021h-.064l.064 9.855.015 2.316 11.878 2.591h.014a11.685 11.685 0 00.263-2.555 12.778 12.778 0 00-1.255-5.425z" fill="#e8505b"/><path d="M141.227 239.303a11.692 11.692 0 00-9.584-6.709c-.125-.012-.25-.023-.376-.033-.08-.006-.159-.014-.239-.019a15.231 15.231 0 00-.716-.021h-.064l.064 9.855.015 2.316 11.878 2.591h.014a11.685 11.685 0 00.263-2.555 12.778 12.778 0 00-1.255-5.425z" opacity=".2"/><path d="M129.625 245.883l-11.875 2.671a12.172 12.172 0 0023.768-.08l-11.878-2.592" fill="#e8505b"/><path d="M129.625 245.883l-11.875 2.671a12.172 12.172 0 0023.768-.08l-11.878-2.592" opacity=".1"/><path fill="#fff" d="M150.439 235.429h60.332v2.733h-60.332zm0 7.206h60.332v2.733h-60.332zm0 7.967h32.607v2.733h-32.607z"/><g transform="translate(243.919 195.251)"><rect width="119.186" height="114.753" rx="8.41" fill="#e6e6e6"/><path fill="#263238" d="M8.329 78.612h3.912v1.127H8.329zm8.849 6.026h5.002v1.127h-5.002zm17.414 0h5.002v1.127h-5.002zm17.414 0h5.002v1.127h-5.002zm17.414 0h5.002v1.127H69.42zm17.414 0h5.002v1.127h-5.002zm17.414 0h5.002v1.127h-5.002zM8.329 63.558h3.912v1.127H8.329zm0-28.335h3.912v1.127H8.329zm0-14.239h3.912v1.127H8.329zm.198 28.407h3.912v1.127H8.527zm100.587 30.348s-.142.013-.419.019l-1.231.018-4.733.034-17.406.059-57.429.054H14.104v-.183l.063-48.217.055-14.239.032-3.833.016-.993c.004-.238.017-.337.017-.337s.011.114.017.337.009.566.016.993l.031 3.833.056 14.239.063 48.217-.183-.183h13.609l57.429.054 17.406.059 4.733.035 1.231.018c.273.004.419.016.419.016z"/><path d="M110.21 49.954c0 .1-20.629.186-46.071.186s-46.076-.083-46.076-.186 20.625-.185 46.076-.185 46.071.083 46.071.185zm0-14.167c0 .1-20.629.185-46.071.185s-46.076-.083-46.076-.185 20.625-.186 46.076-.186 46.071.083 46.071.186zm0-14.24c0 .1-20.629.186-46.071.186s-46.076-.083-46.076-.186 20.625-.185 46.076-.185 46.071.083 46.071.185zm0 42.575c0 .1-20.629.185-46.071.185s-46.076-.083-46.076-.185 20.625-.186 46.076-.186 46.071.083 46.071.186z" fill="#263238"/><path d="M19.014 76.691V64.122l7.834-12.163 5.317 4.079 10.912-16.95 6.436 4.532 8.953-15.636 7.275 5.926 10.912-20.739 11.752 23.184 9.513-11.6 11.192-3.2v55.136z" fill="#e8505b"/><path d="M110.211 17.084a.975.975 0 01-.2.014l-.583.014-2.271.026-8.588.048.082-.04-9.2 12.029-.044.057h-.073l-23.041.032.153-.086-9.688 16.127-9.511 15.808-.139.231-.158-.219-12.481-17.162.249-.008-11.386 17.739c-1.365 2.108-2.436 3.762-3.176 4.9l-.842 1.28c-.192.288-.3.429-.3.429s.083-.158.262-.454l.805-1.3 3.106-4.948 11.277-17.809.119-.187.131.179 12.525 17.13-.3.013 9.5-15.814 9.7-16.12.053-.087h.1l23.041.032-.116.057 9.271-11.976.032-.041h.05l8.588.048 2.271.026.583.014a1.127 1.127 0 01.199.018z" fill="#263238"/><path d="M38.369 47.905a.885.885 0 11-.884-.851.869.869 0 01.884.851zm26.577-15.106a.885.885 0 11-.884-.851.868.868 0 01.884.851zm20.659-3.711a.885.885 0 11-.884-.852.868.868 0 01.884.852z" fill="#263238"/><ellipse cx="5.717" cy="5.504" rx="5.717" ry="5.504" fill="#fff" transform="translate(17.179 94.196)"/><path fill="#fff" d="M37.094 96.014h67.154v2.06H37.094zm0 5.145h27.883v2.06H37.094z"/></g><g transform="translate(313.028 90.937)"><rect width="79.134" height="65.634" rx="4.937" fill="#e6e6e6"/><path fill="#e8505b" d="M13.81 26.279h4.266v32.205H13.81zm19.389-2.613h4.266v34.818h-4.266zm20.082-4.422h4.266v39.24h-4.266zm-9.433 23.559h4.266v15.681h-4.266z"/><path d="M43.848 42.803h4.266v15.681h-4.266z" opacity=".2"/><path fill="#e8505b" d="M18.782 22.829h4.266v35.655h-4.266z"/><path d="M18.782 22.829h4.266v35.655h-4.266z" opacity=".1"/><path fill="#e8505b" d="M38.518 15.359h4.266v43.125h-4.266z"/><path d="M38.518 15.359h4.266v43.125h-4.266z" opacity=".1"/><path fill="#e8505b" d="M64.284 15.359h4.266v43.125h-4.266z"/><path d="M64.284 15.359h4.266v43.125h-4.266z" opacity=".2"/><path fill="#e8505b" d="M58.716 6.842h4.266v51.642h-4.266z"/><path d="M58.716 6.842h4.266v51.642h-4.266z" opacity=".1"/><path fill="#e8505b" d="M24 35.854h4.266v22.63H24z"/><path d="M24 35.854h4.266v22.63H24z" opacity=".2"/><path d="M74.653 60.438c0 .1-15.221.185-33.994.185s-34-.083-34-.185 15.218-.185 34-.185 33.994.083 33.994.185zM4.684 52.755h2.603v.858H4.684zm0-11.46h2.603v.858H4.684zm0-21.569h2.603v.858H4.684zm0-10.84h2.603v.858H4.684zm.132 21.624h2.603v.858H4.816z" fill="#263238"/></g><path d="M225.567 62.181h74.708a3.23 3.23 0 013.23 3.23v16.3a3.23 3.23 0 01-3.23 3.23h-74.707a3.231 3.231 0 01-3.231-3.233V65.411a3.23 3.23 0 013.23-3.23z" fill="#e8505b"/><path d="M239.446 77.356a4.946 4.946 0 11-.765-6.953 4.946 4.946 0 01.765 6.953z" fill="#fff"/><path d="M235.576 79.226a4.965 4.965 0 113.882-1.859 4.98 4.98 0 01-3.882 1.859zm.019-9.893a4.928 4.928 0 103.835 8.012 4.929 4.929 0 00-3.835-8.012z" fill="#263238"/><path d="M238.367 72.582a20.665 20.665 0 01-2.664 2.857l-.654.63-.13.125-.124-.126a14.337 14.337 0 01-1.989-2.245 14.358 14.358 0 012.244 1.989h-.253l.646-.637a20.77 20.77 0 012.924-2.593z" fill="#e8505b"/><path d="M295.583 71.893c0 .1-10.318.185-23.043.185s-23.045-.083-23.045-.185 10.316-.186 23.045-.186 23.043.083 23.043.186zm-18.903 4.5c0 .1-5.965.185-13.322.185s-13.323-.083-13.323-.185 5.964-.186 13.323-.186 13.322.083 13.322.186z" fill="#fff"/></svg>