<svg xmlns="http://www.w3.org/2000/svg" width="274.532" height="503.946"><g id="Group_2440" data-name="Group 2440" transform="translate(-1645.446 -2207.193)"><path id="Path_1192" data-name="Path 1192" d="M1016.595 1315.054H526.808s-54.3-144.517 49.778-202.725 219.479 36.823 271.521 43.613 81.294-66.862 168.487-43.613z" transform="rotate(-90 1914.356 1309.431)" fill="#fcf1db"/><path id="Path_1193" data-name="Path 1193" d="M767.682 1345.218c-5.808-52.288-13.249-77.722-48.667-116.624-14.822-16.277-34.054-28.851-45.276-47.79-13.952-23.549-13.839-54.288-31.205-75.444-10.046-12.24-24.687-19.617-38.916-26.571-13.936-6.81-32.224-13.017-43.511-2.377-7.483 7.051-8.149 18.582-7.671 28.853 3.927 84.289 49.672 155.892 42.323 239.954z" transform="rotate(-90 1815.1 1240.34)" fill="#1d262d"/></g></svg>