<svg xmlns="http://www.w3.org/2000/svg" width="131.077" height="183.746"><g id="Group_2439" data-name="Group 2439" transform="translate(1.758 1.51)" opacity=".35" fill="none" stroke="#002bff" stroke-linecap="round" stroke-linejoin="round" stroke-width="3"><path id="Path_70" data-name="Path 70" d="M641.936 998.269s19.813-7.076 25.473 9.566c4.729 13.9-16.982 22.039-16.982 22.039" transform="translate(-571.051 -920.605)"/><path id="Path_71" data-name="Path 71" d="M648.377 1043.885s19.813-4.246 24.058 11.321-15.567 23.35-15.567 23.35" transform="translate(-570.484 -916.502)"/><path id="Path_72" data-name="Path 72" d="M611.956 1019.607s21.133-7.251 27.6 8.276-17.273 24.573-17.273 24.573" transform="translate(-573.692 -918.743)"/><path id="Path_73" data-name="Path 73" d="M619.009 1060.675s21.935-5.72 27.6 8.433-17.218 26.18-17.218 26.18" transform="translate(-573.07 -915.077)"/><path id="Path_74" data-name="Path 74" d="M671.036 1022.069s19.54-7.327 24.424 7.327-13.84 21.955-13.84 21.955" transform="translate(-568.488 -918.538)"/><path id="Path_75" data-name="Path 75" d="M604.752 928.265s19.813-7.076 25.473 9.566c4.729 13.9-16.982 22.039-16.982 22.039" transform="translate(-574.326 -926.771)"/><path id="Path_76" data-name="Path 76" d="M617.108 970.891s19.813-4.246 24.058 11.321-15.567 23.35-15.567 23.35" transform="translate(-573.238 -922.931)"/><path id="Path_77" data-name="Path 77" d="M576.789 944.876s21.936-4.246 26.18 12.029-20.52 21.935-20.52 21.935" transform="translate(-576.789 -925.22)"/><path id="Path_78" data-name="Path 78" d="M586.544 990.5s21.935-5.72 27.6 8.432-17.219 26.18-17.219 26.18" transform="translate(-575.93 -921.258)"/><path id="Path_79" data-name="Path 79" d="M636.512 945.3s19.54-7.327 24.424 7.327-13.84 21.955-13.84 21.955" transform="translate(-571.529 -925.3)"/></g></svg>