<svg xmlns="http://www.w3.org/2000/svg" width="20.603" height="95.545"><g id="Group_2247" data-name="Group 2247" transform="translate(-167.971 -4522.28)"><path id="Path_1934" data-name="Path 1934" d="M3002.657-2494.536v10.874c-2.626-2.63-5.044-5.068-7.639-7.682v-10.243c.16-.069.312-.154.472-.223 2.386 2.41 4.764 4.836 7.167 7.274z" transform="translate(-2826.799 7043.34)" fill="#003242"/><path id="Path_1935" data-name="Path 1935" d="M2995.734-2510.941a2.55 2.55 0 012.717 2.521l4.221-4.027v-10.684c.006.388-5.14 5.517-7.67 8.262v4.006a3.568 3.568 0 01.732-.078z" transform="translate(-2826.797 7045.412)" fill="#f1af40"/><path id="Path_1936" data-name="Path 1936" d="M3002.43-2474.548v33.937c-2.739-2.584-5.148-4.861-7.687-7.26v-34.136c2.378 2.315 4.9 4.752 7.687 7.459z" transform="translate(-2826.771 7041.417)" fill="#003242"/><path id="Path_1937" data-name="Path 1937" d="M3002.671-2513.305H2995v5.708l7.671 7.786z" transform="translate(-2826.797 7044.457)" fill="#f1af40"/><path id="Path_1938" data-name="Path 1938" d="M3016.737-2501.41v9.735c-2.53 2.746-4.845 5.26-7.167 7.775a11.364 11.364 0 00-.5-.347v-9.851a4398.3 4398.3 0 017.667-7.312z" transform="translate(-2828.163 7043.302)" fill="#004f6f"/><path id="Path_1939" data-name="Path 1939" d="M3016.383-2482.032v34.512q-3.664 3.253-7.663 6.813v-33.927c2.82-2.723 5.238-5.06 7.663-7.398z" transform="translate(-2828.13 7041.418)" fill="#004f6f"/><path id="Path_1940" data-name="Path 1940" d="M3015.605-2510.941a2.55 2.55 0 00-2.717 2.521c-1.371-1.306-2.764-2.636-4.221-4.027v-10.684c-.006.388 5.14 5.517 7.671 8.262v4.006a3.572 3.572 0 00-.733-.078z" transform="translate(-2828.125 7045.412)" fill="#f1af40"/><path id="Path_1941" data-name="Path 1941" d="M3008.668-2513.305h7.671v5.708l-7.671 7.786z" transform="translate(-2828.125 7044.457)" fill="#f1af40"/><path id="Rectangle_3512" data-name="Rectangle 3512" transform="translate(176.315 4602.131)" fill="#004f6f" d="M0 0h3.631v15.694H0z"/></g></svg>