<svg xmlns="http://www.w3.org/2000/svg" width="146.377" height="167.049"><defs><linearGradient id="a" x1=".854" y1=".854" x2=".146" y2=".146" gradientUnits="objectBoundingBox"><stop offset="0" stop-color="#e8eced"/><stop offset=".454" stop-color="#eff2f2"/><stop offset="1" stop-color="#fff"/></linearGradient></defs><path d="M735.319 406.11a73.188 73.188 0 1173.191 73.19 73.189 73.189 0 01-73.191-73.19z" transform="translate(-735.319 -312.248)" fill="url(#a)"/><path d="M132.212 29.031V8.75l-14.343 20.281zm.094 15.844V33.938h-19.625v-5.5l20.5-28.437h4.75v29.031h6.594v4.906h-6.594v10.937z" fill="#004f6f"/><path d="M115.44 71.024a3.518 3.518 0 00-6.445-.844l-.589 1.02a1.172 1.172 0 00-1.594.422l-2.977 5.074-1.02-.586a1.171 1.171 0 10-1.172 2.027l1.02.586-9.957 17.261-2.461 6.574-1.172 2.191a3.516 3.516 0 00.188 3.8l-2.637 3.234-.738-1.851a2.344 2.344 0 00-4.184-.328l-.422.715-.4-4.687a2.344 2.344 0 00-4.559-.55l-2.883 8.648a1.172 1.172 0 00.738 1.477 1.015 1.015 0 00.363.093 1.172 1.172 0 001.113-.8l2.871-8.648.41 4.757a2.344 2.344 0 004.347 1.008l.434-.715.727 1.84a2.343 2.343 0 004.008.6l2.73-3.457a3.61 3.61 0 00.926.117 3.516 3.516 0 003.058-1.735l1.172-1.957 4.465-5.425 10.066-17.472 1.02.586a1.175 1.175 0 01.434 1.606l-4.687 8.121a1.163 1.163 0 101.98 1.219l4.693-8.125a3.514 3.514 0 00-1.289-4.8l-1.02-.586 2.93-5.074a1.172 1.172 0 00-.422-1.594l.586-1.02a3.514 3.514 0 00.349-2.722zm-4.418.328a1.172 1.172 0 01.715-.55 1.23 1.23 0 01.89.117 1.173 1.173 0 01.551.715 1.231 1.231 0 01-.117.89l-.586 1.02-2.039-1.172zM95.05 104.07l-.586-.34-1.734-1.008 1.664-4.453 3.691 2.131zm-3.515 3.386a1.171 1.171 0 01-.351-1.535l.586-1.019 2.039 1.172-.586 1.008a1.171 1.171 0 01-1.687.375zm7.886-8.976l-4.054-2.344 9.375-16.242 4.055 2.344zm10.546-18.269l-4.054-2.344 2.344-4.054 4.055 2.344zM63.739 106.87l-4.144 4.137-2.484-2.484a1.173 1.173 0 10-1.652 1.664l2.484 2.484a2.362 2.362 0 003.316 0l4.136-4.149a1.172 1.172 0 00-1.652-1.652zm0 0"/><path d="M49.935 110.021a9.961 9.961 0 0019.921 0 1.172 1.172 0 10-2.344 0 7.618 7.618 0 11-3.047-6.093 1.172 1.172 0 001.406-1.875 9.961 9.961 0 00-15.936 7.968zm37.5-46.286a1.172 1.172 0 000-2.344H56.967a1.172 1.172 0 00-1.172 1.172v4.689a1.172 1.172 0 001.172 1.172h30.468a1.172 1.172 0 000-2.344h-29.3v-2.345zm-26.953 7.031a1.172 1.172 0 000 2.344h23.437a1.172 1.172 0 000-2.344zm30.467 8.202h-25.78a1.172 1.172 0 100 2.344h25.78a1.172 1.172 0 100-2.344zm-11.718 8.203a1.172 1.172 0 00-1.172-1.172H54.623a1.172 1.172 0 100 2.344h23.436a1.172 1.172 0 001.172-1.172zm11.719-1.172h-8.2a1.172 1.172 0 000 2.344h8.2a1.172 1.172 0 100-2.344zm-24.609 8.204a1.172 1.172 0 100-2.344H54.623a1.172 1.172 0 100 2.344zm4.687 0h8.2a1.172 1.172 0 100-2.344h-8.2a1.172 1.172 0 100 2.344zm0 0"/><path d="M97.981 108.264a1.172 1.172 0 00-1.172 1.172v11.719a1.172 1.172 0 01-1.172 1.172H48.764a1.172 1.172 0 01-1.172-1.172V57.876a1.172 1.172 0 011.172-1.172h46.873a1.172 1.172 0 011.172 1.172v22.007a1.172 1.172 0 102.344 0V57.876a3.516 3.516 0 00-3.516-3.516H48.764a3.516 3.516 0 00-3.516 3.516v63.279a3.515 3.515 0 003.516 3.515h46.873a3.515 3.515 0 003.511-3.515v-11.719a1.172 1.172 0 00-1.167-1.172zm0 0"/></svg>