<svg xmlns="http://www.w3.org/2000/svg" width="400.945" height="268.986"><path d="M383.661 242.713v-106.07a8.988 8.988 0 00-8.989-8.989A118.8 118.8 0 01256.007 8.991a8.989 8.989 0 00-8.989-8.99H0V17.98h247.018a8.989 8.989 0 01-8.989-8.989c0 75.343 61.3 136.641 136.643 136.641a8.989 8.989 0 01-8.989-8.989v106.07z" fill="#004f6f"/><path d="M400.945 242.715a26.273 26.273 0 11-26.274-26.274 26.274 26.274 0 0126.274 26.274z" fill="#444"/><path d="M357.509 238.738l17.162 17.162 17.162-17.162-4.131-4.131-13.029 13.031-13.033-13.033z" fill="#f1af40"/></svg>