<svg xmlns="http://www.w3.org/2000/svg" width="146.1" height="166.128"><defs><linearGradient id="a" x1=".854" y1=".854" x2=".146" y2=".146" gradientUnits="objectBoundingBox"><stop offset="0" stop-color="#e8eced"/><stop offset=".454" stop-color="#eff2f2"/><stop offset="1" stop-color="#fff"/></linearGradient></defs><path d="M318.522 405.971a73.05 73.05 0 1173.051 73.047 73.051 73.051 0 01-73.051-73.047z" transform="translate(-318.522 -312.89)" fill="url(#a)"/><path d="M112.908 46.31a26.914 26.914 0 012.465-10.377q2.143-4.415 8.363-8.024l6.188-3.577a29.131 29.131 0 005.832-4.122 8.474 8.474 0 002.643-6.123 8.547 8.547 0 00-2.417-6.4 8.811 8.811 0 00-6.445-2.369q-5.962 0-8.25 4.512a16.152 16.152 0 00-1.354 6.7h-5.898a20.714 20.714 0 012.224-9.829q3.771-6.7 13.31-6.7 7.928 0 11.585 4.286a14.339 14.339 0 013.658 9.539 12.967 12.967 0 01-3.9 9.475 38.176 38.176 0 01-8.089 5.543l-4.415 2.449a28.6 28.6 0 00-4.963 3.317 12.091 12.091 0 00-4.06 6.221h25.2v5.479z" fill="#004f6f"/><path d="M54.703 73.98v-4.324c.917.3 1.493.905 1.493 1.466a1.244 1.244 0 102.489 0c0-1.984-1.671-3.6-3.982-4.033v-.197a1.244 1.244 0 10-2.489 0v.2c-2.31.432-3.982 2.049-3.982 4.033 0 2.772 2.214 3.937 3.982 4.608v4.324c-.917-.3-1.493-.905-1.493-1.466a1.244 1.244 0 10-2.489 0c0 1.984 1.671 3.6 3.982 4.033v.2a1.244 1.244 0 002.489 0v-.2c2.31-.432 3.982-2.049 3.982-4.033 0-2.775-2.213-3.94-3.982-4.611zm-2.488-.964c-1.24-.608-1.493-1.139-1.493-1.893 0-.561.576-1.166 1.493-1.466zm2.488 7.038v-3.362c1.24.608 1.493 1.139 1.493 1.893 0 .564-.576 1.169-1.493 1.469zm18.664-11.752H62.749a1.244 1.244 0 100 2.489h10.617a1.244 1.244 0 100-2.489zM64.076 78.92h-1.327a1.244 1.244 0 100 2.489h1.327a1.244 1.244 0 000-2.489zm22.563 9.29H49.477a1.244 1.244 0 100 2.489h37.161a1.244 1.244 0 100-2.489zm-25.217 7.963H57.44a1.244 1.244 0 000 2.489h3.982a1.244 1.244 0 000-2.489zm-9.29 0h-2.655a1.244 1.244 0 100 2.489h2.654a1.244 1.244 0 100-2.489zm9.29 5.309H57.44a1.244 1.244 0 100 2.489h3.982a1.244 1.244 0 100-2.489zm-9.29 0h-2.655a1.244 1.244 0 100 2.489h2.654a1.244 1.244 0 100-2.489zm9.29 5.309H57.44a1.244 1.244 0 000 2.489h3.982a1.244 1.244 0 000-2.489zm-9.29 0h-2.655a1.244 1.244 0 100 2.489h2.654a1.244 1.244 0 100-2.489zm9.29 5.308H57.44a1.244 1.244 0 000 2.489h3.982a1.244 1.244 0 000-2.489zm-9.29 0h-2.655a1.244 1.244 0 100 2.489h2.654a1.244 1.244 0 100-2.489zm9.29 5.309H57.44a1.244 1.244 0 100 2.489h3.982a1.244 1.244 0 100-2.489zm-9.29 0h-2.655a1.244 1.244 0 100 2.489h2.654a1.244 1.244 0 100-2.489zM77.348 78.92h-1.327a1.244 1.244 0 000 2.489h1.327a1.244 1.244 0 100-2.489zm6.636 0h-1.327a1.244 1.244 0 000 2.489h1.327a1.244 1.244 0 100-2.489zm-13.273 0h-1.327a1.244 1.244 0 100 2.489h1.327a1.244 1.244 0 000-2.489zm5.31-5.309H62.749a1.244 1.244 0 000 2.489h13.272a1.244 1.244 0 000-2.489z"/><path d="M99.911 93.519h-5.392V73.528a1.244 1.244 0 00-.364-.88L80.882 59.376a1.244 1.244 0 00-.879-.364H45.491a3.9 3.9 0 00-3.9 3.9v63.7a3.9 3.9 0 003.9 3.9h20v2.74a5.232 5.232 0 005.226 5.226h29.2a5.232 5.232 0 005.226-5.226V98.745a5.232 5.232 0 00-5.232-5.226zM81.247 63.26l9.024 9.024h-6.287a2.74 2.74 0 01-2.737-2.737zM65.491 98.745v29.281h-20a1.412 1.412 0 01-1.41-1.41V62.912a1.412 1.412 0 011.41-1.41h33.267v8.046a5.232 5.232 0 005.226 5.226h8.046v18.745H70.712a5.232 5.232 0 00-5.221 5.226zm37.157 34.507a2.74 2.74 0 01-2.737 2.737h-29.2a2.74 2.74 0 01-2.737-2.737V98.745a2.74 2.74 0 012.738-2.733h29.2a2.74 2.74 0 012.737 2.737z"/><path d="M97.256 98.827H73.363a2.574 2.574 0 00-2.571 2.571v5.309a2.574 2.574 0 002.571 2.572h23.889a2.574 2.574 0 002.571-2.571v-5.314a2.574 2.574 0 00-2.567-2.567zm.083 7.88a.083.083 0 01-.083.083H73.363a.083.083 0 01-.083-.083v-5.313a.083.083 0 01.083-.083h23.889a.083.083 0 01.083.083v5.309zm-21.318 6.724h-2.658a2.574 2.574 0 00-2.571 2.571v2.654a2.574 2.574 0 002.571 2.568h2.654a2.574 2.574 0 002.571-2.571v-2.654a2.574 2.574 0 00-2.567-2.568zm.083 5.226a.083.083 0 01-.083.083h-2.658a.083.083 0 01-.083-.083v-2.654a.083.083 0 01.083-.083h2.654a.083.083 0 01.083.083v2.654zm21.152-5.226h-2.654a2.574 2.574 0 00-2.571 2.571v2.654a2.574 2.574 0 002.571 2.571h2.654a2.574 2.574 0 002.571-2.571v-2.654a2.574 2.574 0 00-2.571-2.571zm.083 5.226a.083.083 0 01-.083.083h-2.654a.083.083 0 01-.083-.083v-2.654a.083.083 0 01.083-.083h2.654a.083.083 0 01.083.083zm-10.7-5.226h-2.654a2.574 2.574 0 00-2.571 2.571v2.654a2.574 2.574 0 002.571 2.571h2.654a2.574 2.574 0 002.571-2.571v-2.654a2.574 2.574 0 00-2.571-2.571zm.083 5.226a.083.083 0 01-.083.083h-2.654a.083.083 0 01-.083-.083v-2.654a.083.083 0 01.083-.083h2.654a.083.083 0 01.083.083zm-10.701 5.387h-2.658a2.574 2.574 0 00-2.571 2.571v2.654a2.574 2.574 0 002.571 2.569h2.654a2.574 2.574 0 002.571-2.571v-2.654a2.574 2.574 0 00-2.567-2.569zm.083 5.226a.083.083 0 01-.083.083h-2.658a.083.083 0 01-.083-.083v-2.654a.083.083 0 01.083-.083h2.654a.083.083 0 01.083.083v2.654zm21.152-5.226h-2.654a2.574 2.574 0 00-2.571 2.571v2.654a2.574 2.574 0 002.571 2.571h2.654a2.574 2.574 0 002.571-2.571v-2.654a2.574 2.574 0 00-2.571-2.571zm.083 5.226a.083.083 0 01-.083.083h-2.654a.083.083 0 01-.083-.083v-2.654a.083.083 0 01.083-.083h2.654a.083.083 0 01.083.083zm-10.7-5.226h-2.654a2.574 2.574 0 00-2.571 2.571v2.654a2.574 2.574 0 002.571 2.571h2.654a2.574 2.574 0 002.571-2.571v-2.654a2.574 2.574 0 00-2.571-2.571zm.083 5.226a.083.083 0 01-.083.083h-2.654a.083.083 0 01-.083-.083v-2.654a.083.083 0 01.083-.083h2.654a.083.083 0 01.083.083z"/></svg>