<svg xmlns="http://www.w3.org/2000/svg" width="190.856" height="217.049"><defs><linearGradient id="a" x1=".854" y1=".854" x2=".146" y2=".146" gradientUnits="objectBoundingBox"><stop offset="0" stop-color="#e8eced"/><stop offset=".454" stop-color="#eff2f2"/><stop offset="1" stop-color="#fff"/></linearGradient></defs><path d="M526.922 428.349a95.428 95.428 0 1195.431 95.425 95.428 95.428 0 01-95.431-95.425z" transform="translate(-526.922 -306.725)" fill="url(#a)"/><path d="M146.935 17.099v-5.728q8.093-.789 11.289-2.635T163-.001h5.89v59.185h-7.968V17.099z" fill="#004f6f" style="mix-blend-mode:multiply;isolation:isolate"/><path d="M86.271 78.048a36.309 36.309 0 1036.309 36.309 36.309 36.309 0 00-36.309-36.309zm0 3.458a32.816 32.816 0 0126.828 13.953l-4.319 4.323a6.823 6.823 0 00-3.486-.986 6.916 6.916 0 00-6.916 6.916 6.824 6.824 0 00.98 3.491l-11.325 11.322a6.705 6.705 0 00-6.982 0l-7.864-7.864a6.824 6.824 0 00.98-3.491 6.9 6.9 0 00-13.587-1.728h-6.413a32.9 32.9 0 0132.104-25.936zm22.477 24.206a3.458 3.458 0 11-3.458-3.458 3.458 3.458 0 013.458 3.458zM88 126.46a3.458 3.458 0 11-3.458-3.458A3.458 3.458 0 0188 126.46zm-17.29-17.29a3.458 3.458 0 11-3.458-3.458 3.458 3.458 0 013.458 3.458zm31.523 33.912a32.845 32.845 0 01-48.628-32.183h6.975a6.916 6.916 0 006.671 5.187 6.824 6.824 0 003.491-.98l7.864 7.864a6.824 6.824 0 00-.98 3.491 6.916 6.916 0 1013.832 0 6.824 6.824 0 00-.98-3.491l11.322-11.322a6.824 6.824 0 003.491.98 6.916 6.916 0 006.916-6.916 6.824 6.824 0 00-.98-3.491l3.769-3.768a32.822 32.822 0 01-12.763 44.629z"/><path d="M129.497 88.422a6.916 6.916 0 006.671-5.187h10.62v-3.458h-10.62a6.9 6.9 0 00-13.587 1.729 6.824 6.824 0 00.98 3.491l-3.038 3.038a43.225 43.225 0 10-10.792 62.6l5.218 5.218 2.445 2.445 13.919 13.919a9.064 9.064 0 1012.819-12.819l-13.919-13.919-2.445-2.445-5.218-5.218a43.082 43.082 0 000-46.918l3.457-3.458a6.826 6.826 0 003.49.982zm0-10.376a3.458 3.458 0 11-3.458 3.458 3.458 3.458 0 013.458-3.458zm12.19 83.8a5.607 5.607 0 11-7.839 8.019l-.09-.09-13.919-13.922 7.929-7.929zm-16.364-16.367l-7.929 7.929-4.787-4.785c.244-.187.472-.392.712-.584s.519-.422.776-.638c.379-.318.752-.64 1.119-.97.188-.173.368-.346.553-.519q1.063-1 2.059-2.059c.173-.185.346-.365.519-.553.33-.367.652-.74.97-1.119q.325-.384.638-.776c.19-.239.4-.467.583-.711zm-6.705-8.033a40.668 40.668 0 01-1.7 2.224c-.173.209-.358.411-.536.617q-.794.923-1.639 1.791-.368.38-.749.749-.865.845-1.791 1.639c-.206.173-.408.361-.617.536a40.668 40.668 0 01-2.224 1.7 39.829 39.829 0 119.256-9.256z"/></svg>