<svg xmlns="http://www.w3.org/2000/svg" width="146.24" height="165.911"><defs><linearGradient id="a" x1=".854" y1=".854" x2=".146" y2=".146" gradientUnits="objectBoundingBox"><stop offset="0" stop-color="#e8eced"/><stop offset=".454" stop-color="#eff2f2"/><stop offset="1" stop-color="#fff"/></linearGradient></defs><path d="M526.922 406.041a73.12 73.12 0 1173.122 73.118 73.12 73.12 0 01-73.122-73.118z" transform="translate(-526.922 -313.248)" fill="url(#a)"/><path d="M128.351 48.189q-8.31 0-12.055-4.564a16.936 16.936 0 01-3.745-11.107h6.15q.393 4.547 1.7 6.608 2.29 3.7 8.277 3.7a10.852 10.852 0 007.463-2.489 8.164 8.164 0 002.81-6.412q0-4.842-2.961-6.772t-8.228-1.93q-.589 0-1.194.016t-1.227.049v-5.2q.916.1 1.538.131t1.341.033a12.294 12.294 0 005.431-1.048q3.729-1.832 3.729-6.543a6.389 6.389 0 00-2.486-5.4 9.277 9.277 0 00-5.791-1.9q-5.889 0-8.146 3.926a13.608 13.608 0 00-1.406 6.154h-5.819a17.67 17.67 0 012.094-8.9q3.6-6.543 12.661-6.543 7.165 0 11.09 3.19t3.926 9.242a10.314 10.314 0 01-2.323 7 9.756 9.756 0 01-3.729 2.62 10.165 10.165 0 015.774 3.909 11.83 11.83 0 012.077 7.083 14.436 14.436 0 01-4.417 10.927q-4.416 4.22-12.534 4.22z" fill="#004f6f"/><path d="M103.613 67.483l-2.65-7.949a1.325 1.325 0 00-1.855-.767l-7.949 3.977a1.326 1.326 0 001.184 2.372l4.33-2.165C85.279 83.785 64.5 97.044 42.73 97.044v2.65c23.024 0 44.964-14.155 56.717-36.315l1.647 4.936a1.326 1.326 0 102.517-.837z"/><path d="M111.626 53.328H34.783a1.325 1.325 0 00-1.327 1.325v59.619a1.325 1.325 0 001.325 1.325h23.381l-4.77 15.509a1.325 1.325 0 002.533.779l2.564-8.339H87.92l2.566 8.339a1.325 1.325 0 102.533-.779l-4.772-15.509h23.379a1.325 1.325 0 001.325-1.325V54.653a1.325 1.325 0 00-1.325-1.325zm-52.322 67.569l1.631-5.3h24.539l1.631 5.3zm51-7.949H36.108v-56.97h74.193z"/><path d="M49.356 102.348h-5.3a1.325 1.325 0 00-1.326 1.325v5.3a1.325 1.325 0 001.325 1.325h5.3a1.325 1.325 0 001.325-1.325v-5.3a1.325 1.325 0 00-1.324-1.325zm-1.326 5.3h-2.65v-2.65h2.65zm14.575-7.949h-5.3a1.325 1.325 0 00-1.326 1.325v7.949a1.325 1.325 0 001.325 1.325h5.3a1.325 1.325 0 001.325-1.325v-7.949a1.325 1.325 0 00-1.324-1.325zm-1.325 7.949h-2.65v-5.3h2.65zm14.574-13.249h-5.3a1.325 1.325 0 00-1.326 1.325v13.249a1.325 1.325 0 001.325 1.325h5.3a1.325 1.325 0 001.325-1.325V95.724a1.325 1.325 0 00-1.324-1.325zm-1.326 13.249h-2.65v-10.6h2.65zM89.102 86.45h-5.3a1.325 1.325 0 00-1.326 1.325v21.2a1.325 1.325 0 001.325 1.325h5.3a1.325 1.325 0 001.325-1.325v-21.2a1.325 1.325 0 00-1.324-1.325zm-1.326 21.2h-2.65V89.1h2.65zm14.575-35.774h-5.3a1.325 1.325 0 00-1.326 1.325v35.775a1.325 1.325 0 001.325 1.325h5.3a1.325 1.325 0 001.325-1.325V73.201a1.325 1.325 0 00-1.324-1.325zm-1.326 35.772h-2.65V74.526h2.65z"/></svg>