<svg id="bank" xmlns="http://www.w3.org/2000/svg" width="53.786" height="53.786"><path id="Path_2307" data-name="Path 2307" d="M53.185 25.15L37.65 19.713V8.068a.9.9 0 00-.221-.59L31.154.306A.9.9 0 0030.479 0H.9a.9.9 0 00-.9.9v47.507a.9.9 0 00.9.9h17.029V51.1a2.689 2.689 0 002.689 2.689H49.3a2.689 2.689 0 002.693-2.689v-2.693a.9.9 0 00-.9-.9h-.9v-2.685a.9.9 0 00-.9-.9v-7.168a.9.9 0 00.9-.9v-2.686h.9a.9.9 0 00.9-.9v-1.789h.9a.9.9 0 00.9-.9V26a.9.9 0 00-.608-.85zM31.375 3.283l3.406 3.889h-3.406zM1.793 47.511V1.793h27.789v6.275a.9.9 0 00.9.9h5.379v10.117l-.6-.21a.9.9 0 00-.592 0L16.736 25.15a.9.9 0 00-.6.846v3.586a.9.9 0 00.9.9h.9v1.793a.9.9 0 00.9.9h.9v2.689a.9.9 0 00.9.9v7.171a.9.9 0 00-.9.9v2.689zm28.686-14.343v2.689a.9.9 0 00.9.9v7.171a.9.9 0 00-.9.9v2.689h-1.793v-2.695a.9.9 0 00-.9-.9v-7.168a.9.9 0 00.9-.9v-2.686zm10.757 0v2.689a.9.9 0 00.9.9v7.171a.9.9 0 00-.9.9v2.689h-1.793v-2.695a.9.9 0 00-.9-.9v-7.168a.9.9 0 00.9-.9v-2.686zm-8.068 3.586h3.586v7.171h-3.586zm-.9 8.964h5.382v1.793h-5.378zm5.382-10.757h-5.378v-1.793h5.378zm-15.239 1.793H26v7.171h-3.589zm-.9 8.964h5.379v1.793h-5.376zm5.379-10.757h-5.376v-1.793h5.379zM50.2 51.1a.9.9 0 01-.9.9H20.618a.9.9 0 01-.9-.9v-1.8H50.2zm-7.171-3.586v-1.796h5.379v1.793zm4.482-3.586h-3.586v-7.174h3.586zm.9-8.964h-5.382v-1.796h5.379zm1.789-3.589H19.722v-.9H50.2zm1.793-2.689H17.929v-2.053l17.032-5.961 17.032 5.961zm0 0" fill="#f86c3b"/><path id="Path_2308" data-name="Path 2308" d="M288 202.689a2.689 2.689 0 102.689-2.689 2.689 2.689 0 00-2.689 2.689zm3.586 0a.9.9 0 11-.9-.9.9.9 0 01.9.9zm0 0" transform="translate(-255.728 -177.589)" fill="#f86c3b"/><path id="Path_2309" data-name="Path 2309" d="M48.068 56.136A8.068 8.068 0 1040 48.068a8.068 8.068 0 008.068 8.068zm-4.334-3.542a2.667 2.667 0 012.541-1.837h3.586a2.667 2.667 0 012.539 1.837 6.245 6.245 0 01-8.666 0zm2.541-5.422a1.793 1.793 0 111.793 1.793 1.793 1.793 0 01-1.793-1.794zm1.793-5.379a6.269 6.269 0 015.538 9.218 4.432 4.432 0 00-2.549-1.867 3.586 3.586 0 10-5.979 0 4.433 4.433 0 00-2.549 1.868 6.269 6.269 0 015.538-9.219zm0 0" transform="translate(-35.518 -35.518)" fill="#f86c3b"/><path id="Path_2310" data-name="Path 2310" d="M240 96h1.793v1.793H240zm0 0" transform="translate(-213.107 -85.243)" fill="#f86c3b"/><path id="Path_2311" data-name="Path 2311" d="M272 96h3.586v1.793H272zm0 0" transform="translate(-241.521 -85.243)" fill="#f86c3b"/><path id="Path_2312" data-name="Path 2312" d="M240 128h7.171v1.793H240zm0 0" transform="translate(-213.107 -113.657)" fill="#f86c3b"/><path id="Path_2313" data-name="Path 2313" d="M32 200h2.689v1.793H32zm0 0" transform="translate(-28.414 -177.589)" fill="#f86c3b"/><path id="Path_2314" data-name="Path 2314" d="M72 200h6.275v1.793H72zm0 0" transform="translate(-63.932 -177.589)" fill="#f86c3b"/><path id="Path_2315" data-name="Path 2315" d="M32 232h10.757v1.793H32zm0 0" transform="translate(-28.414 -206.003)" fill="#f86c3b"/><path id="Path_2316" data-name="Path 2316" d="M32 264h10.757v1.793H32zm0 0" transform="translate(-28.414 -234.418)" fill="#f86c3b"/><path id="Path_2317" data-name="Path 2317" d="M32 296h1.793v1.793H32zm0 0" transform="translate(-28.414 -262.832)" fill="#f86c3b"/><path id="Path_2318" data-name="Path 2318" d="M64 296h7.171v1.793H64zm0 0" transform="translate(-56.829 -262.832)" fill="#f86c3b"/><path id="Path_2319" data-name="Path 2319" d="M32 328h3.586v1.793H32zm0 0" transform="translate(-28.414 -291.246)" fill="#f86c3b"/><path id="Path_2320" data-name="Path 2320" d="M80 328h5.379v1.793H80zm0 0" transform="translate(-71.036 -291.246)" fill="#f86c3b"/></svg>