<svg id="idea" xmlns="http://www.w3.org/2000/svg" width="57.372" height="56.253"><g id="Group_2522" data-name="Group 2522" transform="translate(0 5.998)"><g id="Group_2521" data-name="Group 2521"><path id="Path_2330" data-name="Path 2330" d="M56.533 101.036h-1.024V70.812a4.2 4.2 0 00-4.193-4.193H40.838a12.941 12.941 0 00-24.007 0H6.056a4.2 4.2 0 00-4.193 4.193v30.224H.839a.839.839 0 00-.839.839 6.9 6.9 0 006.895 6.895h43.582a6.9 6.9 0 006.895-6.895.839.839 0 00-.839-.839zM3.54 70.812A2.519 2.519 0 016.056 68.3h10.22c-.016.065-.031.13-.046.2l-.029.121-.045.207-.032.157a10.999 10.999 0 00-.069.378l-.029.172q-.026.171-.048.343l-.015.127-.027.246c0 .049-.009.1-.013.147q-.01.116-.018.233c0 .048-.006.1-.009.144 0 .084-.009.169-.012.253v.256H7.211a.839.839 0 00-.839.839v21.01a.839.839 0 001.677 0v-20.18h7.9c.041.377.1.751.174 1.122v.005a12.974 12.974 0 00.5 1.806l.009.024q.06.168.125.334l.012.03q.182.465.4.916l.06.125a10.128 10.128 0 00.206.393c.035.062.064.117.1.176q.064.114.131.227l.081.138c.074.122.149.243.226.363l.016.025.052.079.05.076a.839.839 0 001.5-.231v-.008a.55.55 0 00.017-.07v-.018l.009-.061c.002-.02 0-.017 0-.026v-.136c0-.014 0-.034-.007-.051s0-.02 0-.03-.009-.04-.015-.061 0-.013 0-.019a1.176 1.176 0 00-.027-.077.846.846 0 00-.081-.15 4.571 4.571 0 01-.076-.115l-.01-.015-.021-.032q-.106-.164-.206-.331l-.087-.15c-.029-.05-.071-.121-.1-.182s-.072-.134-.108-.2l-.07-.133a8.693 8.693 0 01-.117-.237l-.048-.1q-.062-.133-.121-.267l-.03-.069q-.064-.147-.123-.3l-.015-.039q-.064-.162-.123-.327v-.005a11.361 11.361 0 01-.651-3.282 11.388 11.388 0 01-.015-.555c0-.145 0-.29.009-.434v-.085q.009-.206.026-.41c0-.032.006-.064.009-.1.012-.131.025-.262.041-.392 0-.025.007-.05.01-.075.016-.119.034-.237.053-.355l.02-.123q.032-.181.069-.36l.032-.148c.023-.1.048-.208.074-.312l.049-.185c.021-.077.042-.153.065-.229s.05-.168.077-.251.046-.143.071-.214a11.268 11.268 0 0121.349 0 15.298 15.298 0 01.211.693c.02.076.034.124.049.187q.039.155.074.311l.032.148q.037.179.069.359l.02.123c.019.118.037.236.053.355 0 .025.007.05.01.075.016.13.03.261.041.392 0 .032.006.064.009.1q.017.2.026.41v.085a11.354 11.354 0 01-.006.989 11.353 11.353 0 01-.65 3.278v.014c-.039.107-.079.214-.121.32l-.018.046q-.058.146-.121.291l-.033.075q-.058.132-.119.263l-.05.1q-.056.117-.115.233l-.072.137-.106.2c-.036.067-.07.123-.106.185l-.086.149c-.067.111-.136.222-.207.332l-.017.026-.084.128-.006.009-.106.145-.243.374-.138.215-.191.3-.139.219-.179.283-.137.219-.169.272-.132.215-.164.269-.124.205-.161.268-.116.194-.161.272-.106.179-.168.288-.087.15-.209.365-.036.063q-.121.212-.236.419l-.056.1-.168.3-.077.14-.138.252-.079.147-.126.234-.077.144-.118.224-.074.14-.113.218-.068.131-.111.216-.06.119-.063.124v-9.09a.833.833 0 00-.082-.36v-.011l-2.234-4.672-1.955-4.088a.839.839 0 00-1.513 0l-1.955 4.088-2.239 4.675v.011a.833.833 0 00-.082.36v9.093l-.041-.081-.065-.129-.074-.146-.069-.135-.078-.151-.07-.135-.085-.161-.071-.134-.095-.178-.068-.127-.12-.223-.049-.09-.175-.32-.052-.095-.131-.237-.072-.129-.118-.21-.082-.145-.117-.206-.085-.148-.124-.215-.085-.147-.133-.227-.083-.142-.151-.255-.072-.121-.231-.385a.839.839 0 10-1.436.867l.269.45.011.018.242.411.046.079.2.34.058.1.176.308.062.109.161.287.064.114.152.274.06.109.146.268.057.1.141.262.052.1.138.262.044.084.14.268.034.066.146.285.019.036q.327.642.582 1.179l.017.036.1.219.027.058.085.183.032.069.073.16.032.071.065.145.031.069.059.133.029.065.053.122.027.063.048.111.024.057.044.1.022.052.038.091.02.048.033.08.018.045.025.062.048.121.005.013.026.067v.01l.041.107v6.339a2.866 2.866 0 002.862 2.862H31a2.866 2.866 0 002.862-2.862v-6.328l.062-.162c.1-.264.31-.768.638-1.486l.06-.131q.134-.291.293-.624l.119-.247a52.861 52.861 0 01.537-1.073l.126-.244a71.598 71.598 0 012.5-4.408l.014-.023.305-.494.048-.076.288-.458.1-.152.256-.4.283-.435.088-.135.1-.151.021-.037c.078-.12.153-.241.226-.362l.08-.136c.044-.076.088-.151.131-.228l.1-.175q.051-.088.1-.185l.106-.207.059-.123q.22-.454.4-.923l.009-.022q.066-.17.127-.341l.005-.015a12.99 12.99 0 00.675-2.937h7.607v4.6a.839.839 0 001.677 0v-5.44a.839.839 0 00-.839-.839h-8.37v-.256c0-.084-.007-.169-.012-.253q0-.072-.009-.144a9.13 9.13 0 00-.018-.233c0-.049-.008-.1-.013-.147a10.27 10.27 0 00-.027-.246c0-.042-.009-.085-.015-.127q-.022-.172-.048-.343l-.028-.172-.032-.185-.037-.193-.032-.157-.045-.207a5.307 5.307 0 00-.029-.121c-.016-.065-.03-.13-.046-.2h9.924a2.519 2.519 0 012.516 2.516v30.224H51V80.909a.839.839 0 10-1.677 0v20.127H8.05v-4.549a.839.839 0 00-1.677 0v4.548H3.54zm21.94 21.132v-2h6.71v2zm6.71 1.677v2.055A1.186 1.186 0 0131 96.861h-4.34a1.186 1.186 0 01-1.185-1.185v-2.055h6.71zm-6.71-5.353V77.014h6.71v11.254h-6.71zm.5-12.941l1.432-2.995h2.853l1.432 2.995zm8.769 27.386a1.925 1.925 0 01-1.73 1.084h-8.662a1.925 1.925 0 01-1.73-1.084zm15.732 4.379H6.895a5.226 5.226 0 01-5.15-4.379h19.111a3.606 3.606 0 003.5 2.761h8.658a3.605 3.605 0 003.5-2.761h19.113a5.226 5.226 0 01-5.15 4.379z" transform="translate(0 -58.513)" fill="#f86c3b"/></g></g><g id="Group_2524" data-name="Group 2524" transform="translate(27.996)"><g id="Group_2523" data-name="Group 2523"><path id="Path_2331" data-name="Path 2331" d="M250.679 4.989a.839.839 0 00-.839.839v3.135a.839.839 0 101.677 0V5.828a.839.839 0 00-.838-.839z" transform="translate(-249.84 -4.989)" fill="#f86c3b"/></g></g><g id="Group_2526" data-name="Group 2526" transform="translate(40.724 6.859)"><g id="Group_2525" data-name="Group 2525"><path id="Path_2332" data-name="Path 2332" d="M367.717 66.621a.838.838 0 00-1.144-.311l-2.721 1.557a.839.839 0 10.833 1.456l2.722-1.557a.839.839 0 00.31-1.145z" transform="translate(-363.428 -66.199)" fill="#f86c3b"/></g></g><g id="Group_2528" data-name="Group 2528" transform="translate(35.234 2.012)"><g id="Group_2527" data-name="Group 2527"><path id="Path_2333" data-name="Path 2333" d="M317.7 23.115a.839.839 0 00-1.176.156l-1.906 2.489a.839.839 0 001.332 1.02l1.906-2.49a.839.839 0 00-.156-1.175z" transform="translate(-314.441 -22.942)" fill="#f86c3b"/></g></g><g id="Group_2530" data-name="Group 2530" transform="translate(12.249 6.859)"><g id="Group_2529" data-name="Group 2529"><path id="Path_2334" data-name="Path 2334" d="M113.291 67.866l-2.721-1.557a.839.839 0 00-.833 1.456l2.721 1.557a.839.839 0 10.833-1.456z" transform="translate(-109.314 -66.198)" fill="#f86c3b"/></g></g><g id="Group_2532" data-name="Group 2532" transform="translate(18.553 2.012)"><g id="Group_2531" data-name="Group 2531"><path id="Path_2335" data-name="Path 2335" d="M168.987 25.76l-1.906-2.489a.839.839 0 10-1.332 1.02l1.906 2.49a.839.839 0 001.332-1.02z" transform="translate(-165.576 -22.942)" fill="#f86c3b"/></g></g></svg>