<svg id="money" xmlns="http://www.w3.org/2000/svg" width="53.786" height="53.786"><g id="Group_2500" data-name="Group 2500" transform="translate(46.614 3.606)"><g id="Group_2499" data-name="Group 2499"><path id="Path_2296" data-name="Path 2296" d="M422.992 36.1l-2.692-3.584a.929.929 0 00-1.434 0l-2.687 3.584a.9.9 0 00-.179.538v42.134a3.586 3.586 0 107.171 0V36.64a.9.9 0 00-.179-.54zm-1.614 42.67a1.793 1.793 0 11-3.586 0v-1.79h3.586zm0-3.586h-3.586v-1.79h3.586zm0-3.586h-3.586V39.329h3.586zm0-34.064h-3.586v-.6l1.793-2.39 1.793 2.39z" transform="translate(-416 -32.178)" fill="#f86c3b"/></g></g><g id="Group_2502" data-name="Group 2502"><g id="Group_2501" data-name="Group 2501"><path id="Path_2297" data-name="Path 2297" d="M43.929 0H4.482a.9.9 0 00-.9.9v15.325A4.49 4.49 0 000 20.618V49.3a4.488 4.488 0 004.482 4.482h32.272a.9.9 0 00.634-.263l7.171-7.171a.9.9 0 00.179-.263c.013-.028.02-.055.03-.083a.9.9 0 00.047-.233c0-.019.011-.036.011-.055V.9a.9.9 0 00-.897-.9zM26.893 49.3a2.689 2.689 0 01-2.693 2.693H4.482A2.689 2.689 0 011.793 49.3V20.618a2.689 2.689 0 012.689-2.689H24.2a2.689 2.689 0 012.689 2.689zM15.239 10.757v5.379H8.964v-5.379zM8.964 8.964V5.379h6.275v3.585zm14.343 1.793v5.379h-6.275v-5.379zm-6.275-1.793V5.379h6.275v3.585zm8.068 7.261v-5.468h6.275v12.55h-2.689v-2.689a4.49 4.49 0 00-3.586-4.393zm0-7.261V5.379h6.275v3.585zm12.55 41.762v-4.111h4.111zm5.379-5.9h-6.275a.9.9 0 00-.9.9v6.275h-8.088a4.436 4.436 0 00.92-2.689V25.1h11.653a.9.9 0 00.9-.9V4.482a.9.9 0 00-.9-.9H8.068a.9.9 0 00-.9.9v11.654H5.379V1.793h37.65zm-3.586-34.069v12.55h-6.275v-12.55zm-6.275-1.793V5.379h6.275v3.585z" fill="#f86c3b"/></g></g><g id="Group_2504" data-name="Group 2504" transform="translate(3.586 20.618)"><g id="Group_2503" data-name="Group 2503"><path id="Path_2298" data-name="Path 2298" d="M52.618 184H32.9a.9.9 0 00-.9.9v5.379a.9.9 0 00.9.9h19.718a.9.9 0 00.9-.9V184.9a.9.9 0 00-.9-.9zm-.9 5.379H33.793v-3.586h17.929z" transform="translate(-32 -184)" fill="#f86c3b"/></g></g><g id="Group_2506" data-name="Group 2506" transform="translate(18.825 36.754)"><g id="Group_2505" data-name="Group 2505"><path id="Path_2299" data-name="Path 2299" d="M174.275 328H168.9a.9.9 0 00-.9.9v10.757a.9.9 0 00.9.9h5.379a.9.9 0 00.9-.9V328.9a.9.9 0 00-.904-.9zm-.9 10.757h-3.586v-8.964h3.586z" transform="translate(-168 -328)" fill="#f86c3b"/></g></g><g id="Group_2508" data-name="Group 2508" transform="translate(18.825 29.582)"><g id="Group_2507" data-name="Group 2507"><path id="Path_2300" data-name="Path 2300" d="M174.275 264H168.9a.9.9 0 00-.9.9v3.586a.9.9 0 00.9.9h5.379a.9.9 0 00.9-.9V264.9a.9.9 0 00-.904-.9zm-.9 3.586h-3.586v-1.793h3.586z" transform="translate(-168 -264)" fill="#f86c3b"/></g></g><g id="Group_2510" data-name="Group 2510" transform="translate(10.757 36.754)"><g id="Group_2509" data-name="Group 2509"><path id="Path_2301" data-name="Path 2301" d="M102.275 328H96.9a.9.9 0 00-.9.9v3.586a.9.9 0 00.9.9h5.379a.9.9 0 00.9-.9V328.9a.9.9 0 00-.904-.9zm-.9 3.586h-3.582v-1.793h3.586z" transform="translate(-96 -328)" fill="#f86c3b"/></g></g><g id="Group_2512" data-name="Group 2512" transform="translate(10.757 29.582)"><g id="Group_2511" data-name="Group 2511"><path id="Path_2302" data-name="Path 2302" d="M102.275 264H96.9a.9.9 0 00-.9.9v3.586a.9.9 0 00.9.9h5.379a.9.9 0 00.9-.9V264.9a.9.9 0 00-.904-.9zm-.9 3.586h-3.582v-1.793h3.586z" transform="translate(-96 -264)" fill="#f86c3b"/></g></g><g id="Group_2514" data-name="Group 2514" transform="translate(2.689 36.754)"><g id="Group_2513" data-name="Group 2513"><path id="Path_2303" data-name="Path 2303" d="M30.275 328H24.9a.9.9 0 00-.9.9v3.586a.9.9 0 00.9.9h5.379a.9.9 0 00.9-.9V328.9a.9.9 0 00-.904-.9zm-.9 3.586h-3.582v-1.793h3.586z" transform="translate(-24 -328)" fill="#f86c3b"/></g></g><g id="Group_2516" data-name="Group 2516" transform="translate(2.689 29.582)"><g id="Group_2515" data-name="Group 2515"><path id="Path_2304" data-name="Path 2304" d="M30.275 264H24.9a.9.9 0 00-.9.9v3.586a.9.9 0 00.9.9h5.379a.9.9 0 00.9-.9V264.9a.9.9 0 00-.904-.9zm-.9 3.586h-3.582v-1.793h3.586z" transform="translate(-24 -264)" fill="#f86c3b"/></g></g><g id="Group_2518" data-name="Group 2518" transform="translate(10.757 43.925)"><g id="Group_2517" data-name="Group 2517"><path id="Path_2305" data-name="Path 2305" d="M102.275 392H96.9a.9.9 0 00-.9.9v3.586a.9.9 0 00.9.9h5.379a.9.9 0 00.9-.9V392.9a.9.9 0 00-.904-.9zm-.9 3.586h-3.582v-1.793h3.586z" transform="translate(-96 -392)" fill="#f86c3b"/></g></g><g id="Group_2520" data-name="Group 2520" transform="translate(2.689 43.925)"><g id="Group_2519" data-name="Group 2519"><path id="Path_2306" data-name="Path 2306" d="M30.275 392H24.9a.9.9 0 00-.9.9v3.586a.9.9 0 00.9.9h5.379a.9.9 0 00.9-.9V392.9a.9.9 0 00-.904-.9zm-.9 3.586h-3.582v-1.793h3.586z" transform="translate(-24 -392)" fill="#f86c3b"/></g></g></svg>