<svg id="foreign" xmlns="http://www.w3.org/2000/svg" width="55.579" height="55.579"><path id="Path_2290" data-name="Path 2290" d="M49.194 22.8A11.639 11.639 0 0032.783 6.384a11.64 11.64 0 00-22.026 5.269c0 .323.022.642.049.959a23.3 23.3 0 0012.5 42.966 23.128 23.128 0 0019.66-10.805c.317.026.636.049.959.049A11.64 11.64 0 0049.194 22.8zM40.339 5.379a9.861 9.861 0 11-9.861 9.861 9.872 9.872 0 019.861-9.861zM28.686 35.857h-5.379a.9.9 0 110-1.793h4.482a2.689 2.689 0 000-5.379h-8.067a.9.9 0 010-1.793h14.4a11.492 11.492 0 00-1.853 6.275 11.647 11.647 0 005.472 9.861h-9.952a.9.9 0 010-1.793h.9a2.689 2.689 0 000-5.379zM22.411 1.793a9.9 9.9 0 019.03 5.939 11.615 11.615 0 00-2.214 11.015 9.739 9.739 0 01-6.816 2.767 9.861 9.861 0 010-19.722zm-19.944 25.1H12.55a.9.9 0 110 1.793H8.068a2.689 2.689 0 000 5.379h8.068a.9.9 0 110 1.793H2.1a21.524 21.524 0 01-.3-3.586 21.8 21.8 0 01.667-5.379zm2.22 16.136h15.931a.9.9 0 010 1.793h-3.586a2.689 2.689 0 000 5.379h10.757a.9.9 0 01.9.9v2.015a21.8 21.8 0 01-5.379.674A21.522 21.522 0 014.687 43.029zm25.791 9.537V51.1a2.693 2.693 0 00-2.689-2.689H17.032a.9.9 0 010-1.793h3.586a2.689 2.689 0 000-5.379H3.757a21.368 21.368 0 01-1.284-3.589h13.663a2.689 2.689 0 000-5.379H8.068a.9.9 0 010-1.793h4.482a2.689 2.689 0 000-5.379H3.013a21.348 21.348 0 018.12-10.565 11.665 11.665 0 0011.278 8.772 11.5 11.5 0 007.551-2.794 11.727 11.727 0 004.2 4.587h-14.44a2.689 2.689 0 000 5.379h8.068a.9.9 0 010 1.793h-4.483a2.689 2.689 0 000 5.379h5.379a.9.9 0 010 1.793h-.9a2.689 2.689 0 000 5.379h12.988a21.318 21.318 0 01-10.295 7.744zm13.446-9.537a9.872 9.872 0 01-9.861-9.861 9.739 9.739 0 012.767-6.816 11.615 11.615 0 0011.015-2.214 9.85 9.85 0 01-3.922 18.891zm0 0" fill="#f86c3b"/><path id="Path_2291" data-name="Path 2291" d="M331.586 76.55a1.8 1.8 0 01-1.793-1.793H328a3.581 3.581 0 002.689 3.458v1.92h1.793v-1.792h2.689v-3.586a3.589 3.589 0 00-3.586-3.586 1.8 1.8 0 01-1.793-1.793v-1.792h1.793a1.8 1.8 0 011.793 1.793h1.793a3.581 3.581 0 00-2.689-3.458V64h-1.793v1.793H328v3.586a3.589 3.589 0 003.586 3.586 1.8 1.8 0 011.793 1.793v1.792zm0 0" transform="translate(-291.246 -56.829)" fill="#f86c3b"/><path id="Path_2292" data-name="Path 2292" d="M400 128h1.793v1.793H400zm0 0" transform="translate(-355.178 -113.657)" fill="#f86c3b"/><path id="Path_2293" data-name="Path 2293" d="M304 128h1.793v1.793H304zm0 0" transform="translate(-269.936 -113.657)" fill="#f86c3b"/><path id="Path_2294" data-name="Path 2294" d="M131.586 43.654a4.482 4.482 0 108.964 0h-1.793a2.689 2.689 0 11-5.379 0v-.9h3.586v-1.79h-3.586v-1.793h3.586v-1.792h-3.586v-.9a2.689 2.689 0 115.379 0h1.793a4.482 4.482 0 10-8.964 0v.9H128v1.793h3.586v1.793H128v1.793h3.586zm0 0" transform="translate(-113.657 -28.414)" fill="#f86c3b"/><path id="Path_2295" data-name="Path 2295" d="M356.191 244.02l-1.379-1.149-3.793 4.553-3.793-4.553-1.379 1.149 4.275 5.129v.571h-3.586v1.793h3.586v1.793h-3.586v1.794h3.586v1.793h1.793V255.1h3.585v-1.793h-3.586v-1.793h3.586v-1.793h-3.586v-.571zm0 0" transform="translate(-307.094 -215.656)" fill="#f86c3b"/></svg>