<svg xmlns="http://www.w3.org/2000/svg" xmlns:xlink="http://www.w3.org/1999/xlink" width="688" height="619.699"><defs><linearGradient id="linear-gradient" x1=".371" y1="1.485" x2=".756" y2="-.022" gradientUnits="objectBoundingBox"><stop offset="0" stop-color="#f2d05f"/><stop offset="1" stop-color="#e79d5a"/></linearGradient><linearGradient id="linear-gradient-2" x1=".041" y1=".736" x2="1.031" y2=".395" gradientUnits="objectBoundingBox"><stop offset="0" stop-color="#81d3e4"/><stop offset="1" stop-color="#6076fa"/></linearGradient><linearGradient id="linear-gradient-3" x1="-33.53" y1="-.241" x2="-32.494" y2="-.241" gradientUnits="objectBoundingBox"><stop offset=".005" stop-color="#4a612f"/><stop offset="1" stop-color="#769a42"/></linearGradient><linearGradient id="linear-gradient-4" x1="-42.568" y1="7.409" x2="-42.568" y2="6.258" xlink:href="#linear-gradient-3"/><linearGradient id="linear-gradient-5" x1="-71.514" y1="-.239" x2="-70.467" y2="-.239" xlink:href="#linear-gradient-3"/><linearGradient id="linear-gradient-6" x1="-76.81" y1="7.087" x2="-76.81" y2="5.949" xlink:href="#linear-gradient-3"/><linearGradient id="linear-gradient-7" x1="-10.394" y1=".5" x2="-12.317" y2=".5" gradientUnits="objectBoundingBox"><stop offset="0" stop-color="#eebe63"/><stop offset="1" stop-color="#dc3b57"/></linearGradient><linearGradient id="linear-gradient-8" x1="-9.545" y1=".5" x2="-11.324" y2=".5" xlink:href="#linear-gradient-7"/><linearGradient id="linear-gradient-9" x1="-15.252" y1=".5" x2="-17.994" y2=".5" xlink:href="#linear-gradient-7"/><linearGradient id="linear-gradient-10" x1="-21.432" y1=".5" x2="-20.432" y2=".5" xlink:href="#linear-gradient-2"/><linearGradient id="linear-gradient-11" x1="-22.182" y1=".5" x2="-21.182" y2=".5" xlink:href="#linear-gradient-2"/><linearGradient id="linear-gradient-12" x1="-29.659" y1=".5" x2="-28.659" y2=".5" xlink:href="#linear-gradient-2"/><linearGradient id="linear-gradient-13" x1="-25.946" y1=".5" x2="-24.946" y2=".5" xlink:href="#linear-gradient-2"/><linearGradient id="linear-gradient-14" x1="-28.698" y1=".5" x2="-27.698" y2=".5" gradientUnits="objectBoundingBox"><stop offset="0" stop-color="#e59148"/><stop offset="1" stop-color="#f1cc52"/></linearGradient><linearGradient id="linear-gradient-15" x1="-28.698" y1=".5" x2="-27.698" y2=".5" gradientUnits="objectBoundingBox"><stop offset="0" stop-color="#b37239"/><stop offset="1" stop-color="#f1cc52"/></linearGradient><linearGradient id="linear-gradient-16" x1="-10.479" y1=".5" x2="-9.479" y2=".5" xlink:href="#linear-gradient-2"/><linearGradient id="linear-gradient-17" x1="-29.615" y1=".5" x2="-28.615" y2=".5" xlink:href="#linear-gradient-2"/><linearGradient id="linear-gradient-18" x1="-32.352" y1=".5" x2="-31.352" y2=".5" xlink:href="#linear-gradient-2"/><linearGradient id="linear-gradient-19" x1="-37.549" y1=".5" x2="-36.549" y2=".5" xlink:href="#linear-gradient-2"/><linearGradient id="linear-gradient-20" x1="-20.797" y1=".5" x2="-19.797" y2=".5" gradientUnits="objectBoundingBox"><stop offset="0" stop-color="#d3d8de"/><stop offset="1" stop-color="#fff"/></linearGradient><linearGradient id="linear-gradient-21" x1="-31.448" y1=".5" x2="-30.448" y2=".5" gradientUnits="objectBoundingBox"><stop offset="0" stop-color="#72acfb"/><stop offset="1" stop-color="#5286d4"/></linearGradient><linearGradient id="linear-gradient-22" x1="-40.405" y1=".5" x2="-39.405" y2=".5" xlink:href="#linear-gradient-21"/></defs><g id="Group_2384" data-name="Group 2384" transform="translate(8374.183 -15898.61)"><path id="Path_1867" data-name="Path 1867" d="M324.015 129.987c.146-.849 14.121 102.469-56.806 143.4s-117.442 49.159-218.052 33.92S32.13 112.761 40.742 96.181c59.292-114.267 1.366-17.209 95.787-45.529 82.614-24.78 99.851-81.592 130.68-29.109 3.371 5.732 56.659 109.292 56.806 108.444z" transform="rotate(5.13 -189771.29 -83345.803)" opacity=".95" fill="url(#linear-gradient)"/><path id="Path_1868" data-name="Path 1868" d="M1687.893 702.888c-47.647 40.547-81.572 94.925-87.281 156.632-2.879 31.031-80.46 44.554-79.959 44.677s-43.035 18.454-141.573-31.649-136.075-56.028-186.319-129.275c-43.286-63.1-17.3-148.7-1.041-179.225 27.775-52.133 67.9-89.206 142.782-77.164 70.6 11.363 150.378-12.515 202.351-59.476 142.954-129.191 221.181-21.81 240.183 61s-23.545 158.684-89.143 214.48z" transform="translate(-9543.191 15580.486)" opacity=".95" fill="url(#linear-gradient-2)"/><g id="Group_2168" data-name="Group 2168" transform="translate(-8331.647 15898.61)"><g id="Group_2167" data-name="Group 2167"><g id="Group_2058" data-name="Group 2058" transform="translate(409.305 120.265)"><path id="Path_1880" data-name="Path 1880" d="M2487.272 599.355c-10 21.813-15.613 42.451-8.251 51.657a12.143 12.143 0 001.424 1.5c5.669 4.993 16.819 5.106 35.643-2.329 50.1-19.79 52.476-53.943 62.607-87.294 9.99-32.934 44.883-27.368 45.771-27.221-81.302-28.319-120.236 26.707-137.194 63.687z" transform="translate(-2475.659 -527.856)" fill="url(#linear-gradient-3)"/><g id="Group_2057" data-name="Group 2057" transform="translate(3.362 30.399)"><path id="Path_1881" data-name="Path 1881" d="M2483.258 689.325a12.146 12.146 0 001.423 1.5c9.411-5.669 27.429-17.688 35.926-31.184 4.008-6.369 7.374-13.528 10.948-21.1 6.74-14.329 13.724-29.143 25.91-40.505l-1.359-1.466c-12.464 11.634-19.522 26.623-26.352 41.124-3.541 7.523-6.883 14.626-10.833 20.885-8.285 13.162-26.49 25.227-35.663 30.746z" transform="translate(-2483.258 -596.568)" fill="url(#linear-gradient-4)"/></g></g><g id="Group_2060" data-name="Group 2060" transform="translate(419.951 73.719)"><path id="Path_1882" data-name="Path 1882" d="M2509.393 549.6c.59 1.451.971 2.271 1.013 2.365.153-.8.3-1.6.455-2.365 6.683-34.244 15.62-37.821 42.419-67.776 27.4-30.637 11.643-59.182 11.643-59.182-91.811 26.533-61.768 111.652-55.53 126.958z" transform="translate(-2499.721 -422.647)" fill="url(#linear-gradient-5)"/><g id="Group_2059" data-name="Group 2059" transform="translate(9.37 35.768)"><path id="Path_1883" data-name="Path 1883" d="M2521.2 594.684c.59 1.451.971 2.271 1.013 2.365.153-.8.3-1.6.456-2.365-2.974-29.6 14.885-64.341 20.5-70.575 5.806-6.455 9.385-15.331 10.734-18.676.23-.554.442-1.083.511-1.206l-1.294-.732c-.113.2-.261.57-.592 1.382-1.322 3.276-4.833 11.977-10.467 18.23-7.111 7.906-23.588 42.811-20.861 71.577z" transform="translate(-2520.899 -503.495)" fill="url(#linear-gradient-6)"/></g></g><path id="Rectangle_3414" data-name="Rectangle 3414" d="M46.714 0h351.224a46.718 46.718 0 0146.718 46.718v71.661a46.715 46.715 0 01-46.715 46.715H46.717A46.717 46.717 0 010 118.377V46.714A46.714 46.714 0 0146.714 0z" transform="rotate(180 222.328 94.193)" fill="#f4f4f4" style="mix-blend-mode:hard-light;isolation:isolate"/><path id="Rectangle_3415" data-name="Rectangle 3415" transform="rotate(180 210.685 193.475)" fill="#fff" d="M0 0h166.715v5.575H0z"/><path id="Rectangle_3416" data-name="Rectangle 3416" transform="rotate(180 210.685 180.464)" fill="url(#linear-gradient-7)" d="M0 0h123.814v5.576H0z"/><path id="Rectangle_3417" data-name="Rectangle 3417" transform="rotate(180 210.685 186.97)" fill="url(#linear-gradient-8)" d="M0 0h133.784v5.577H0z"/><path id="Rectangle_3418" data-name="Rectangle 3418" transform="rotate(180 210.685 193.475)" fill="url(#linear-gradient-9)" d="M0 0h86.806v5.575H0z"/><g id="Group_2072" data-name="Group 2072" transform="translate(243.95 197.332)"><path id="Rectangle_3419" data-name="Rectangle 3419" d="M34.659 0h210.11a34.659 34.659 0 0134.659 34.659v186.549a34.662 34.662 0 01-34.662 34.662H34.658A34.658 34.658 0 010 221.213V34.659A34.659 34.659 0 0134.659 0z" transform="rotate(180 139.714 127.935)" fill="#f4f4f4" style="mix-blend-mode:hard-light;isolation:isolate"/><g id="Group_2065" data-name="Group 2065" transform="translate(173.563 24.952)"><g id="Group_2061" data-name="Group 2061"><path id="Path_1884" data-name="Path 1884" d="M2546.765 834.781a39.306 39.306 0 10-26.472-74.02c-.831.3-1.65.621-2.449.968a39.307 39.307 0 0028.922 73.053zm-40.984-27.087a29.438 29.438 0 0115.988-36.944c.6-.259 1.214-.5 1.837-.727a29.469 29.469 0 11-17.825 37.672z" transform="translate(-2494.211 -758.455)" fill="#90c1fc"/></g><g id="Group_2062" data-name="Group 2062" transform="translate(48.102 1.794)"><path id="Path_1885" data-name="Path 1885" d="M2602.937 771.9l2.933-9.389a39.346 39.346 0 0127.581 36.348l-9.832.293a29.519 29.519 0 00-20.682-27.252z" transform="translate(-2602.937 -762.51)" fill="#4372bd"/></g><g id="Group_2063" data-name="Group 2063" transform="translate(23.632)"><path id="Path_1886" data-name="Path 1886" d="M2551.552 770.75l-3.925-9.021c.8-.346 1.617-.67 2.449-.968a39.143 39.143 0 0124.953-.512l-2.933 9.389a29.37 29.37 0 00-18.708.385c-.622.224-1.236.467-1.836.727z" transform="translate(-2547.627 -758.455)" fill="#4e85de"/></g><g id="Group_2064" data-name="Group 2064" transform="translate(13.847 3.274)"><path id="Path_1887" data-name="Path 1887" d="M2525.51 771.948a39.053 39.053 0 019.785-6.093l3.926 9.021a29.285 29.285 0 00-7.338 4.568z" transform="translate(-2525.51 -765.855)" fill="#72acfb"/></g></g><g id="Group_2066" data-name="Group 2066" transform="translate(50.764 157.299)"><path id="Rectangle_3420" data-name="Rectangle 3420" transform="rotate(180 6.82 23.361)" fill="#72acfb" d="M0 0h13.641v46.722H0z"/></g><g id="Group_2067" data-name="Group 2067" transform="translate(71.043 170.403)"><path id="Rectangle_3421" data-name="Rectangle 3421" transform="rotate(180 6.821 16.809)" fill="#72acfb" d="M0 0h13.642v33.618H0z"/></g><g id="Group_2068" data-name="Group 2068" transform="translate(31.092 135.645)"><path id="Rectangle_3422" data-name="Rectangle 3422" transform="rotate(180 6.82 34.188)" fill="#72acfb" d="M0 0h13.641v68.376H0z"/></g><g id="Group_2069" data-name="Group 2069" transform="translate(33.291 100.01)"><path id="Path_1888" data-name="Path 1888" d="M2177.148 929.585l.242-1.476 36 5.9 11.671 24.873 38.813 2.636 12.572 18.543 29.673-.735.036 1.492-30.488.758-12.623-18.618-38.963-2.645-11.71-24.957z" transform="translate(-2177.148 -928.109)" fill="#72acfb"/></g><path id="Path_1889" data-name="Path 1889" d="M2222.11 779.535h-38.793a4.434 4.434 0 01-4.433-4.434 4.433 4.433 0 014.433-4.436h38.793a4.435 4.435 0 014.435 4.436 4.435 4.435 0 01-4.435 4.434z" transform="translate(-2144.825 -740.311)" fill="#4e85de"/><path id="Path_1890" data-name="Path 1890" d="M2222.11 814.507h-38.793a4.433 4.433 0 01-4.433-4.434 4.434 4.434 0 014.433-4.435h38.793a4.436 4.436 0 014.435 4.435 4.435 4.435 0 01-4.435 4.434z" transform="translate(-2144.825 -759.811)" fill="#72acfb"/><path id="Path_1891" data-name="Path 1891" d="M2222.11 849.479h-38.793a4.434 4.434 0 01-4.433-4.434 4.432 4.432 0 014.433-4.434h38.793a4.434 4.434 0 014.435 4.434 4.436 4.436 0 01-4.435 4.434z" transform="translate(-2144.825 -779.311)" fill="#72acfb"/><g id="Group_2070" data-name="Group 2070" transform="translate(121.868 34.361)"><path id="Path_1892" data-name="Path 1892" d="M2403 792.254h22.188v-.854h-21.836l-11.681-11.681h-14.307v.852h13.954z" transform="translate(-2377.362 -779.722)" fill="#72acfb"/></g><g id="Group_2071" data-name="Group 2071" transform="translate(126.477 75.795)"><path id="Path_1893" data-name="Path 1893" d="M2387.781 883.232h28.553l9.25-9.251-.6-.6-9 9h-28.2z" transform="translate(-2387.781 -873.377)" fill="#72acfb"/></g><path id="Rectangle_3423" data-name="Rectangle 3423" transform="rotate(180 67.032 21.816)" fill="#4e85de" d="M0 0h29.597v3.632H0z"/><path id="Rectangle_3424" data-name="Rectangle 3424" transform="rotate(180 71.545 40.331)" fill="#4e85de" d="M0 0h23.824v3.632H0z"/></g><g id="Group_2077" data-name="Group 2077" transform="translate(451.865 291.395)"><path id="Path_1894" data-name="Path 1894" d="M2775.452 915.033c-7.454-3.565-14.876 20.169-14.876 20.169-12.673 16.749-30.382-5.532-28.651 19.5 3.03 43.8-50.419 13.775-25.763 59.506s-21.772 25.859-6.448 62.735-4.538 80.857 18.52 62.783c0 0 20.3-44.523 41.242-58.3s-12.545-30.12-6-48.831c9.518-27.173 32.442-26.107 15.911-55.309s31.413-50.13 6.065-62.253z" transform="translate(-2641.378 -914.668)" fill="url(#linear-gradient-10)"/><g id="Group_2073" data-name="Group 2073" transform="translate(68.603 46.441)"><path id="Path_1895" data-name="Path 1895" d="M2727.875 1181.507c10-7.027 21.693-56.014 22.391-85.189.357-14.944 4.775-21.171 8.674-26.663 3.724-5.252 6.942-9.787 5.068-20.2-3.583-19.9 5.835-28.489 5.931-28.573l-1.09-1.242c-.42.366-10.229 9.226-6.468 30.108 1.751 9.73-1.135 13.8-4.789 18.948-3.835 5.406-8.609 12.131-8.979 27.583-.749 31.31-12.707 77.558-21.688 83.873z" transform="translate(-2726.924 -1019.64)" fill="#fff"/></g><g id="Group_2074" data-name="Group 2074" transform="translate(0 113.82)"><path id="Path_1896" data-name="Path 1896" d="M2620.462 1252.138c-.942-2.137-1.918-4.349-3.023-6.681-5.711-12.052-10.768-14.037-19.148-17.326-2.047-.8-4.369-1.715-6.914-2.859-12-5.4-9.679-13.344-7.628-20.356.286-.983.571-1.96.819-2.928 1.057-4.125-.972-6.195-4.043-9.328a34.949 34.949 0 01-7.31-9.8c-2.4-5.007-1.176-7.691.272-9.062 3.046-2.887 10.065-2.355 16.7 1.265a24.053 24.053 0 015.548 4.778c4.227 4.426 9.488 9.932 22.788 9.993 7.585.036 11.74 1.084 13.89 3.5 2.442 2.742 1.982 6.85 1.344 12.537-.219 1.965-.47 4.194-.621 6.6a38.509 38.509 0 007.66 24.832c5.065 6.033 11.309 18.551 8.615 26.255-1.128 3.232-3.655 5.263-7.507 6.041a21.384 21.384 0 01-4.227.461c-9.307-.002-12.714-7.717-17.215-17.922zm-31.072-75.628c-5.921-3.234-12.27-3.884-14.766-1.517-1.9 1.8-1 4.88.083 7.15a33.127 33.127 0 007 9.36c3.214 3.277 5.75 5.867 4.463 10.9-.252.986-.543 1.983-.834 2.98-2.042 6.984-3.973 13.583 6.72 18.388 2.51 1.128 4.811 2.029 6.842 2.826 8.459 3.319 14.044 5.514 20.036 18.158 1.114 2.352 2.094 4.576 3.043 6.723 5.17 11.72 8.29 18.792 19.6 16.508 3.241-.655 5.352-2.326 6.275-4.967 2.374-6.789-3.307-18.677-8.323-24.648a39.481 39.481 0 01-8.041-26c.154-2.447.406-4.7.628-6.683.589-5.26 1.016-9.059-.938-11.255-1.782-2-5.688-2.913-12.661-2.944-14.006-.066-19.533-5.855-23.976-10.507a22.575 22.575 0 00-5.145-4.469z" transform="translate(-2571.858 -1171.94)" fill="url(#linear-gradient-11)"/></g><g id="Group_2075" data-name="Group 2075" transform="translate(12.822 127.02)"><path id="Path_1897" data-name="Path 1897" d="M2657.88 1296.237l1.651-.086c-.081-1.552-2.165-38.106-16.841-48.807-16.1-11.736-21.18-24.351-23.6-32.817-2.85-9.976-17.351-12.641-17.967-12.751l-.287 1.628c.14.026 14.1 2.6 16.665 11.577 2.483 8.7 7.7 21.663 24.211 33.7 14.051 10.24 16.149 47.185 16.168 47.556z" transform="translate(-2600.839 -1201.777)" fill="url(#linear-gradient-12)"/></g><path id="Path_1898" data-name="Path 1898" d="M2638.856 998.348c10.434-3.575 8.267 16.53 12.674 31.409s49.04 6.489 30.3 43.741 23.694 12.461 11.021 44.97-1.1 67.277-14.878 58.431-7.739-49.78-22.065-54.644-16.663-10.54-2.478-23.762-37.168-26.351-24.5-53.054-2.125-42.957 9.926-47.091z" transform="translate(-2602.554 -961.093)" fill="url(#linear-gradient-13)"/><g id="Group_2076" data-name="Group 2076" transform="translate(41.549 83.888)"><path id="Path_1899" data-name="Path 1899" d="M2693.258 1234.643c1.313-5.564 12.515-54.541 2.061-60.46-9.213-5.218-8.986-25.513-7.549-44.677 1.271-16.963-20.514-24.893-21.443-25.221l-.554 1.559c.217.075 21.526 7.838 20.348 23.541-1.477 19.68-1.635 40.563 8.384 46.236 7.938 4.5.63 43.856-2.856 58.645z" transform="translate(-2665.773 -1104.284)" fill="#fff"/></g><path id="Path_1900" data-name="Path 1900" d="M2674.293 1359.524l14.9 56.507h33.287l14.893-56.507z" transform="translate(-2628.974 -1162.714)" fill="url(#linear-gradient-14)"/><path id="Path_1901" data-name="Path 1901" d="M2674.293 1359.523s32.79 6.155 32.79 56.507h15.392l14.893-56.507z" transform="translate(-2628.974 -1162.714)" fill="url(#linear-gradient-15)"/></g><g id="Group_2078" data-name="Group 2078" transform="translate(498.858)"><path id="Path_1902" data-name="Path 1902" d="M2470.742 257.868v4.793h46.713v46.716h4.8v-51.509z" transform="translate(-2470.742 -257.868)" fill="#bfd4fc"/></g><g id="Group_2123" data-name="Group 2123" transform="translate(287.073 322.902)"><g id="Group_2079" data-name="Group 2079" transform="translate(116.962 91.896)"><path id="Rectangle_3430" data-name="Rectangle 3430" transform="rotate(180 23.462 1.393)" fill="#dcd0c8" d="M0 0h46.924v2.785H0z"/></g><g id="Group_2080" data-name="Group 2080" transform="translate(153.485 101.931)"><path id="Rectangle_3431" data-name="Rectangle 3431" fill="#6d6865" d="M0 0h4.113v126.68H0z"/></g><g id="Group_2081" data-name="Group 2081" transform="translate(91.689 91.105)"><path id="Rectangle_3432" data-name="Rectangle 3432" transform="rotate(180 16.309 1.99)" fill="#c6bbb5" d="M0 0h32.618v3.98H0z"/></g><g id="Group_2082" data-name="Group 2082" transform="translate(101.821 57.165)"><path id="Rectangle_3433" data-name="Rectangle 3433" transform="rotate(180 6.175 18.758)" fill="#948c87" d="M0 0h12.351v37.516H0z"/></g><g id="Group_2083" data-name="Group 2083" transform="translate(0 94.729)"><path id="Rectangle_3434" data-name="Rectangle 3434" transform="rotate(180 90.36 3.601)" fill="#a98e75" d="M0 0h180.719v7.202H0z"/></g><g id="Group_2086" data-name="Group 2086" transform="translate(134.42 67.627)"><g id="Group_2085" data-name="Group 2085"><g id="Group_2084" data-name="Group 2084"><path id="Path_1903" data-name="Path 1903" d="M2503.259 1138.747a.05.05 0 01.022 0c-.089.035-.101.04-.022 0z" transform="translate(-2503.206 -1138.744)" fill="#363957"/></g></g></g><g id="Group_2088" data-name="Group 2088" transform="translate(186.391 207.243)"><g id="Group_2087" data-name="Group 2087"><path id="Path_1904" data-name="Path 1904" d="M2667.147 1471.485l-1.074 3.024-45.393-14.066 2.175-6.121z" transform="translate(-2620.68 -1454.322)" fill="#8c8581"/></g></g><g id="Group_2090" data-name="Group 2090" transform="translate(184.834 161.858)"><g id="Group_2089" data-name="Group 2089"><path id="Rectangle_3435" data-name="Rectangle 3435" transform="rotate(180 2.58 24.677)" fill="#8c8581" d="M0 0h5.159v49.353H0z"/></g></g><g id="Group_2092" data-name="Group 2092" transform="translate(172.198 159.236)"><g id="Group_2091" data-name="Group 2091"><path id="Rectangle_3436" data-name="Rectangle 3436" transform="rotate(180 15.216 1.455)" fill="#5d5955" d="M0 0h30.431v2.909H0z"/></g></g><g id="Group_2094" data-name="Group 2094" transform="translate(141.57 206.86)"><g id="Group_2093" data-name="Group 2093"><path id="Path_1905" data-name="Path 1905" d="M2519.368 1471l1.074 3.024 45.393-14.066-1.995-6.5z" transform="translate(-2519.368 -1453.458)" fill="#8c8581"/></g></g><g id="Group_2096" data-name="Group 2096" transform="translate(173.551 206.86)"><g id="Group_2095" data-name="Group 2095"><path id="Path_1906" data-name="Path 1906" d="M2591.657 1473.7v3.516l14.485-17.257-1.995-6.5z" transform="translate(-2591.657 -1453.458)" fill="#8c8581"/></g></g><g id="Group_2098" data-name="Group 2098" transform="translate(137.327 224.367)"><g id="Group_2097" data-name="Group 2097"><path id="Path_1907" data-name="Path 1907" d="M2509.778 1497.272a4.242 4.242 0 104.243-4.243 4.243 4.243 0 00-4.243 4.243z" transform="translate(-2509.778 -1493.029)" fill="#b9afaa"/></g></g><g id="Group_2100" data-name="Group 2100" transform="translate(173.192 224.367)"><g id="Group_2099" data-name="Group 2099"><path id="Path_1908" data-name="Path 1908" d="M2590.846 1497.272a4.242 4.242 0 104.242-4.243 4.242 4.242 0 00-4.242 4.243z" transform="translate(-2590.846 -1493.029)" fill="#b9afaa"/></g></g><g id="Group_2102" data-name="Group 2102" transform="translate(228.616 224.367)"><g id="Group_2101" data-name="Group 2101"><path id="Path_1909" data-name="Path 1909" d="M2716.121 1497.272a4.242 4.242 0 104.242-4.243 4.243 4.243 0 00-4.242 4.243z" transform="translate(-2716.121 -1493.029)" fill="#b9afaa"/></g></g><g id="Group_2103" data-name="Group 2103" transform="translate(151.168 148.221)"><path id="Rectangle_3437" data-name="Rectangle 3437" d="M5.507 0h61.077a5.507 5.507 0 015.507 5.507 5.506 5.506 0 01-5.506 5.506H5.507A5.507 5.507 0 010 5.507 5.507 5.507 0 015.507 0z" transform="rotate(180 36.045 5.508)" fill="#dcd0c8"/></g><g id="Group_2104" data-name="Group 2104" transform="translate(23.122 101.931)"><path id="Rectangle_3438" data-name="Rectangle 3438" transform="rotate(180 2.056 63.34)" fill="#6d6865" d="M0 0h4.112v126.68H0z"/></g><g id="Group_2105" data-name="Group 2105" transform="translate(54.671)"><path id="Rectangle_3439" data-name="Rectangle 3439" d="M11.044 0h84.563a11.047 11.047 0 0111.047 11.047v53.147A11.044 11.044 0 0195.61 75.238H11.047A11.047 11.047 0 010 64.191V11.044A11.044 11.044 0 0111.044 0z" transform="rotate(180 53.327 37.619)" fill="#b2a8a3"/></g><g id="Group_2106" data-name="Group 2106" transform="translate(58.847 4.065)"><path id="Rectangle_3440" data-name="Rectangle 3440" transform="rotate(180 49.15 29.692)" fill="#f4f6ff" d="M0 0h98.3v59.383H0z"/></g><g id="Group_2107" data-name="Group 2107" transform="translate(63.216 65.991)"><path id="Path_1910" data-name="Path 1910" d="M2342.263 1138.1c0 1.687 1.774 3.055 3.961 3.055s3.962-1.368 3.962-3.055-1.774-3.059-3.962-3.059-3.961 1.376-3.961 3.059z" transform="translate(-2342.263 -1135.046)" fill="#8c8480"/></g><g id="Group_2108" data-name="Group 2108" transform="translate(85.918 85.157)"><path id="Path_1911" data-name="Path 1911" d="M2393.576 1188.036v-1.336s1.884-8.33 15.2-8.33 13.044 9.669 13.044 9.669z" transform="translate(-2393.576 -1178.367)" fill="#948c87"/></g><g id="Group_2109" data-name="Group 2109" transform="translate(190.386 71.647)"><path id="Rectangle_3441" data-name="Rectangle 3441" d="M21.26 0h7.2a21.26 21.26 0 0121.26 21.26V47.6a21.26 21.26 0 01-21.26 21.26h-7.193A21.267 21.267 0 010 47.59V21.26A21.26 21.26 0 0121.26 0z" transform="rotate(180 24.857 34.428)" fill="#dcd0c8"/></g><g id="Group_2110" data-name="Group 2110" transform="translate(196.429 115.607)"><path id="Path_1912" data-name="Path 1912" d="M2646.134 1288.083c7.331 0 13.276-2.463 17.673-7.318 9.938-10.973 8.152-30.262 8.07-31.074a2.766 2.766 0 10-5.506.543c.024.219 1.605 17.7-6.676 26.832-3.349 3.689-7.784 5.486-13.562 5.486a2.766 2.766 0 000 5.533z" transform="translate(-2643.369 -1247.195)" fill="#dcd0c8"/></g><g id="Group_2113" data-name="Group 2113" transform="translate(121.383 8.796)"><g id="Group_2112" data-name="Group 2112"><g id="Group_2111" data-name="Group 2111"><path id="Rectangle_3442" data-name="Rectangle 3442" d="M1.562 0h25.663a1.569 1.569 0 011.569 1.569 1.568 1.568 0 01-1.568 1.568H1.565A1.565 1.565 0 010 1.572v-.01A1.562 1.562 0 011.562 0z" transform="rotate(180 14.397 1.569)" fill="#dedfe6"/></g></g></g><g id="Group_2116" data-name="Group 2116" transform="translate(121.383 15.524)"><g id="Group_2115" data-name="Group 2115"><g id="Group_2114" data-name="Group 2114"><path id="Rectangle_3443" data-name="Rectangle 3443" d="M1.567 0h25.66a1.567 1.567 0 011.567 1.567 1.57 1.57 0 01-1.57 1.57H1.57A1.57 1.57 0 010 1.567 1.567 1.567 0 011.567 0z" transform="rotate(180 14.397 1.569)" fill="#dedfe6"/></g></g></g><g id="Group_2119" data-name="Group 2119" transform="translate(121.383 23.241)"><g id="Group_2118" data-name="Group 2118"><g id="Group_2117" data-name="Group 2117"><path id="Rectangle_3444" data-name="Rectangle 3444" d="M5.326 0h18.145a5.323 5.323 0 015.323 5.323v24.83a5.323 5.323 0 01-5.323 5.323H5.327A5.327 5.327 0 010 30.15V5.326A5.326 5.326 0 015.326 0z" transform="rotate(180 14.397 17.738)" fill="#dedfe6"/></g></g></g><g id="Group_2122" data-name="Group 2122" transform="translate(64.291 8.796)"><g id="Group_2121" data-name="Group 2121"><g id="Group_2120" data-name="Group 2120"><path id="Rectangle_3445" data-name="Rectangle 3445" d="M8.429 0H42.85a8.428 8.428 0 018.428 8.428v33.067a8.428 8.428 0 01-8.428 8.428H8.432A8.432 8.432 0 010 41.491V8.429A8.429 8.429 0 018.429 0z" transform="rotate(180 25.639 24.962)" fill="#dedfe6"/></g></g></g></g><g id="Group_2132" data-name="Group 2132" transform="translate(308.547 52.034)"><g id="Group_2125" data-name="Group 2125"><g id="Group_2124" data-name="Group 2124"><path id="Path_1913" data-name="Path 1913" d="M2286.229 485.779a57.7 57.7 0 0072.4-31.335c.51-1.174.984-2.377 1.421-3.6a57.749 57.749 0 10-73.824 34.935zm-21.321-68.963a43.3 43.3 0 1181.537 29.162 43.65 43.65 0 01-1.067 2.7 43.3 43.3 0 01-80.471-31.862z" transform="translate(-2247.911 -373.632)" fill="#72acfb"/></g></g><g id="Group_2127" data-name="Group 2127" transform="translate(59.062 .026)"><g id="Group_2126" data-name="Group 2126"><path id="Path_1914" data-name="Path 1914" d="M2421.446 418.525l13.8-4.307a57.841 57.841 0 00-53.4-40.528l-.432 14.448a43.374 43.374 0 0140.036 30.387z" transform="translate(-2381.41 -373.69)" fill="#385988"/></g></g><g id="Group_2129" data-name="Group 2129" transform="translate(97.468 40.554)"><g id="Group_2128" data-name="Group 2128"><path id="Path_1915" data-name="Path 1915" d="M2468.221 499.79l13.253 5.766a58.783 58.783 0 001.421-3.6 57.487 57.487 0 00.753-36.659l-13.8 4.307a43.11 43.11 0 01-.562 27.485c-.326.916-.686 1.82-1.065 2.701z" transform="translate(-2468.221 -465.297)" fill="#4772b0"/></g></g><g id="Group_2131" data-name="Group 2131" transform="translate(90.758 75.047)"><g id="Group_2130" data-name="Group 2130"><path id="Path_1916" data-name="Path 1916" d="M2464.064 563.407a57.426 57.426 0 008.953-14.378l-13.253-5.766a43.182 43.182 0 01-6.71 10.78z" transform="translate(-2453.054 -543.262)" fill="#5886c7"/></g></g></g><g id="Group_2156" data-name="Group 2156" transform="translate(22.335 85.784)"><g id="Group_2147" data-name="Group 2147" transform="translate(104.191)"><g id="Group_2133" data-name="Group 2133" transform="translate(152.35 8.098)"><path id="Rectangle_3446" data-name="Rectangle 3446" fill="#dedede" d="M0 0h10.227v72.839H0z"/></g><g id="Group_2134" data-name="Group 2134" transform="translate(126.959 22.899)"><path id="Rectangle_3447" data-name="Rectangle 3447" fill="#dedede" d="M0 0h10.226v58.039H0z"/></g><g id="Group_2135" data-name="Group 2135" transform="translate(101.567 12.01)"><path id="Rectangle_3448" data-name="Rectangle 3448" fill="#dedede" d="M0 0h10.226v68.928H0z"/></g><g id="Group_2136" data-name="Group 2136" transform="translate(76.176 33.511)"><path id="Rectangle_3449" data-name="Rectangle 3449" fill="#dedede" d="M0 0h10.225v47.427H0z"/></g><g id="Group_2137" data-name="Group 2137" transform="translate(50.783 14.243)"><path id="Rectangle_3450" data-name="Rectangle 3450" fill="#dedede" d="M0 0h10.227v66.695H0z"/></g><g id="Group_2138" data-name="Group 2138" transform="translate(25.392 4.19)"><path id="Rectangle_3451" data-name="Rectangle 3451" fill="#dedede" d="M0 0h10.226v76.748H0z"/></g><g id="Group_2139" data-name="Group 2139"><path id="Rectangle_3452" data-name="Rectangle 3452" fill="#dedede" d="M0 0h10.225v80.938H0z"/></g><g id="Group_2140" data-name="Group 2140" transform="translate(152.35 35.24)"><path id="Rectangle_3453" data-name="Rectangle 3453" fill="#df655a" d="M0 0h10.227v45.698H0z"/></g><g id="Group_2141" data-name="Group 2141" transform="translate(126.959 44.526)"><path id="Rectangle_3454" data-name="Rectangle 3454" fill="#df655a" d="M0 0h10.226v36.412H0z"/></g><g id="Group_2142" data-name="Group 2142" transform="translate(101.567 37.692)"><path id="Rectangle_3455" data-name="Rectangle 3455" fill="#df655a" d="M0 0h10.226v43.245H0z"/></g><g id="Group_2143" data-name="Group 2143" transform="translate(76.176 51.183)"><path id="Rectangle_3456" data-name="Rectangle 3456" fill="#df655a" d="M0 0h10.225v29.754H0z"/></g><g id="Group_2144" data-name="Group 2144" transform="translate(50.783 39.094)"><path id="Rectangle_3457" data-name="Rectangle 3457" fill="#df655a" d="M0 0h10.227v41.843H0z"/></g><g id="Group_2145" data-name="Group 2145" transform="translate(25.392 32.789)"><path id="Rectangle_3458" data-name="Rectangle 3458" fill="#df655a" d="M0 0h10.226v48.149H0z"/></g><g id="Group_2146" data-name="Group 2146" transform="translate(0 30.16)"><path id="Rectangle_3459" data-name="Rectangle 3459" fill="#df655a" d="M0 0h10.225v50.778H0z"/></g></g><g id="Group_2148" data-name="Group 2148" transform="translate(76.174 8.098)"><path id="Rectangle_3460" data-name="Rectangle 3460" fill="#dedede" d="M0 0h10.226v72.839H0z"/></g><g id="Group_2149" data-name="Group 2149" transform="translate(50.783 22.899)"><path id="Rectangle_3461" data-name="Rectangle 3461" fill="#dedede" d="M0 0h10.227v58.039H0z"/></g><g id="Group_2150" data-name="Group 2150" transform="translate(25.392 12.01)"><path id="Rectangle_3462" data-name="Rectangle 3462" fill="#dedede" d="M0 0h10.226v68.928H0z"/></g><g id="Group_2151" data-name="Group 2151" transform="translate(0 33.511)"><path id="Rectangle_3463" data-name="Rectangle 3463" fill="#dedede" d="M0 0h10.225v47.427H0z"/></g><g id="Group_2152" data-name="Group 2152" transform="translate(76.174 35.24)"><path id="Rectangle_3464" data-name="Rectangle 3464" fill="#df655a" d="M0 0h10.226v45.698H0z"/></g><g id="Group_2153" data-name="Group 2153" transform="translate(50.783 44.526)"><path id="Rectangle_3465" data-name="Rectangle 3465" fill="#df655a" d="M0 0h10.227v36.412H0z"/></g><g id="Group_2154" data-name="Group 2154" transform="translate(25.392 37.692)"><path id="Rectangle_3466" data-name="Rectangle 3466" fill="#df655a" d="M0 0h10.226v43.245H0z"/></g><g id="Group_2155" data-name="Group 2155" transform="translate(0 51.183)"><path id="Rectangle_3467" data-name="Rectangle 3467" fill="#df655a" d="M0 0h10.225v29.754H0z"/></g></g><path id="Rectangle_3468" data-name="Rectangle 3468" d="M5.2 0h262.038a5.2 5.2 0 015.2 5.2 5.2 5.2 0 01-5.2 5.2H5.2A5.2 5.2 0 010 5.2 5.2 5.2 0 015.2 0z" transform="translate(22.335 47.504)" fill="#72acfb"/><path id="Rectangle_3469" data-name="Rectangle 3469" d="M5.2 0h262.037a5.2 5.2 0 015.2 5.2 5.2 5.2 0 01-5.2 5.2H5.2A5.2 5.2 0 010 5.205 5.2 5.2 0 015.2 0z" transform="translate(22.335 65.653)" fill="#bfd4fc"/><g id="Group_2157" data-name="Group 2157" transform="translate(114.259 197.517)" style="mix-blend-mode:hard-light;isolation:isolate"><path id="Rectangle_3470" data-name="Rectangle 3470" d="M21.82 0h80.42a21.82 21.82 0 0121.82 21.82v166.9a21.819 21.819 0 01-21.819 21.819H21.819A21.819 21.819 0 010 188.722V21.82A21.82 21.82 0 0121.82 0z" transform="rotate(180 62.03 105.27)" fill="#f4f4f4"/></g><g id="Group_2163" data-name="Group 2163" transform="translate(123.594 323.1)"><g id="Group_2158" data-name="Group 2158" transform="translate(105.543)"><path id="Rectangle_3471" data-name="Rectangle 3471" fill="#72acfb" d="M0 0h.541v69.6H0z"/></g><g id="Group_2159" data-name="Group 2159" transform="translate(79.157)"><path id="Rectangle_3472" data-name="Rectangle 3472" fill="#72acfb" d="M0 0h.543v69.6H0z"/></g><g id="Group_2160" data-name="Group 2160" transform="translate(52.771)"><path id="Rectangle_3473" data-name="Rectangle 3473" fill="#72acfb" d="M0 0h.541v69.6H0z"/></g><g id="Group_2161" data-name="Group 2161" transform="translate(26.386)"><path id="Rectangle_3474" data-name="Rectangle 3474" fill="#72acfb" d="M0 0h.543v69.6H0z"/></g><g id="Group_2162" data-name="Group 2162"><path id="Rectangle_3475" data-name="Rectangle 3475" fill="#72acfb" d="M0 0h.543v69.6H0z"/></g></g><path id="Path_1917" data-name="Path 1917" d="M1936.01 1033.985s-10.752 9.053-21.143-1.671-22.375-14.307-32.972-5.276-14.719-3.363-25.313-13.522-10.426-15.936-26.114-15.936v64.62h105.542z" transform="translate(-1706.602 -669.504)" fill="url(#linear-gradient-16)"/><path id="Rectangle_3476" data-name="Rectangle 3476" transform="rotate(180 101.511 159.919)" fill="#72acfb" d="M0 0h6.556v2.535H0z"/><path id="Rectangle_3477" data-name="Rectangle 3477" transform="rotate(180 114.838 159.919)" fill="#72acfb" d="M0 0h8.921v2.535H0z"/><path id="Rectangle_3478" data-name="Rectangle 3478" transform="rotate(180 88.317 159.919)" fill="#72acfb" d="M0 0h8.079v2.535H0z"/><path id="Rectangle_3479" data-name="Rectangle 3479" transform="rotate(180 75.261 159.919)" fill="#72acfb" d="M0 0h8.08v2.535H0z"/><path id="Rectangle_3480" data-name="Rectangle 3480" transform="rotate(180 65.973 159.919)" fill="#72acfb" d="M0 0h8.081v2.535H0z"/><path id="Rectangle_3481" data-name="Rectangle 3481" transform="rotate(180 81.881 138.001)" fill="url(#linear-gradient-17)" d="M0 0h35.283v4.462H0z"/><path id="Rectangle_3482" data-name="Rectangle 3482" transform="rotate(180 81.881 147.356)" fill="url(#linear-gradient-18)" d="M0 0h32.389v4.463H0z"/><path id="Rectangle_3483" data-name="Rectangle 3483" transform="rotate(180 81.881 142.68)" fill="url(#linear-gradient-19)" d="M0 0h28.022v4.463H0z"/><path id="Path_1918" data-name="Path 1918" d="M1992.146 847.621a6.169 6.169 0 106.169-6.169 6.169 6.169 0 00-6.169 6.169z" transform="translate(-1796.753 -582.449)" fill="#72acfb"/><path id="Path_1919" data-name="Path 1919" d="M1980.936 886.758v11.732a27.138 27.138 0 0022.364 0v-11.732a11.182 11.182 0 10-22.364 0z" transform="translate(-1790.502 -601.476)" fill="#72acfb"/><g id="Group_2164" data-name="Group 2164" transform="translate(173.827 244.578)"><path id="Path_1920" data-name="Path 1920" d="M1959.7 861.951a27.791 27.791 0 1122.972 0 27.881 27.881 0 01-22.972 0zm-14.839-25.315a26.394 26.394 0 0015.446 23.979 26.4 26.4 0 0021.757 0 26.327 26.327 0 10-37.2-23.979z" transform="translate(-1943.397 -808.846)" fill="url(#linear-gradient-20)"/></g><g id="Group_2165" data-name="Group 2165" transform="translate(129.692 227.048)"><path id="Path_1921" data-name="Path 1921" d="M1843.638 786.012a16.79 16.79 0 1116.79 16.79 16.809 16.809 0 01-16.79-16.79zm3.362 0a13.427 13.427 0 1013.428-13.428A13.443 13.443 0 001847 786.012z" transform="translate(-1843.638 -769.223)" fill="#72acfb"/></g><path id="Rectangle_3484" data-name="Rectangle 3484" transform="rotate(180 101.438 107.204)" fill="#72acfb" d="M0 0h25.298v4.033H0z"/><path id="Rectangle_3485" data-name="Rectangle 3485" transform="rotate(180 99.573 112.403)" fill="#72acfb" d="M0 0h21.568v4.037H0z"/><path id="Rectangle_3486" data-name="Rectangle 3486" transform="rotate(180 106.128 117.6)" fill="#72acfb" d="M0 0h34.679v4.033H0z"/><g id="Group_2166" data-name="Group 2166" transform="translate(22.335 197.08)" style="mix-blend-mode:hard-light;isolation:isolate"><path id="Rectangle_3487" data-name="Rectangle 3487" d="M5.5 0h73.066a5.5 5.5 0 015.5 5.5v48.935a5.5 5.5 0 01-5.5 5.5H5.5a5.5 5.5 0 01-5.5-5.5V5.5A5.5 5.5 0 015.5 0z" transform="rotate(180 42.035 29.969)" fill="#f4f4f4"/></g><path id="Rectangle_3488" data-name="Rectangle 3488" d="M2.136 0H27.2a2.137 2.137 0 012.137 2.137A2.136 2.136 0 0127.2 4.273H2.136A2.136 2.136 0 010 2.137 2.136 2.136 0 012.136 0z" transform="rotate(180 49.806 108.58)" fill="url(#linear-gradient-21)"/><path id="Rectangle_3489" data-name="Rectangle 3489" d="M2.134 0h18.72a2.136 2.136 0 012.136 2.136 2.138 2.138 0 01-2.138 2.138H2.136A2.136 2.136 0 010 2.138 2.134 2.134 0 012.134 0z" transform="rotate(180 49.807 103.746)" fill="url(#linear-gradient-22)"/><path id="Path_1922" data-name="Path 1922" d="M1686.56 762.842l-17-17-5.083 5.081-18.656-18.659-8.28 8.279-21.667-21.664v43.964z" transform="translate(-1586.946 -514.103)" fill="#72acfb"/><path id="Path_1923" data-name="Path 1923" d="M1616.322 775.76v-33.714l22.343 22.344 8-8 13.344 13.343 10.11-4.02 16.69 10.049z" transform="translate(-1587.197 -527.021)" fill="#558ad8"/></g></g></g></svg>