<svg xmlns="http://www.w3.org/2000/svg" width="8.895" height="16.04"><path d="M4.896 12.313a2.251 2.251 0 001.011-.316 1.618 1.618 0 00.554-1.4 1.485 1.485 0 00-.519-1.2 3.765 3.765 0 00-1.046-.52zm-.835-9.185a1.542 1.542 0 00-1.134.409 1.493 1.493 0 00-.369 1.068 1.4 1.4 0 00.554 1.169 3.139 3.139 0 00.949.439zm.853 12.912h-.853v-1.749a5.994 5.994 0 01-2.579-.756A3.791 3.791 0 01.001 10.09h2.373a4.305 4.305 0 00.343 1.485 1.81 1.81 0 001.345.765V8.587l-.712-.211A4.553 4.553 0 01.982 7.005a3.326 3.326 0 01-.691-2.118 3.955 3.955 0 01.268-1.485 3.4 3.4 0 01.751-1.151 3.363 3.363 0 011.389-.861 6.365 6.365 0 011.362-.22V.001h.835v1.187a4.407 4.407 0 012.25.7 3.447 3.447 0 011.536 3.051H6.373a3.144 3.144 0 00-.264-1.143 1.37 1.37 0 00-1.213-.686v3.347a11.053 11.053 0 012.813 1.277 3.105 3.105 0 011.187 2.6 3.494 3.494 0 01-1.627 3.223 5.161 5.161 0 01-2.355.716z" fill="#004f6f"/></svg>