<svg xmlns="http://www.w3.org/2000/svg" width="19.392" height="25.923"><path d="M12.838 9.158a2.911 2.911 0 003.544 2.1 2.421 2.421 0 00.9-.442c.067-.012.133-.025.2-.042a2.548 2.548 0 001.834-3.1.525.525 0 10-1.017.26 1.487 1.487 0 01-.082.976 2.43 2.43 0 00-.076-.618 2.056 2.056 0 00-2.5-1.48 1.747 1.747 0 00-1.259 2.126A.522.522 0 0014.4 9a2.523 2.523 0 00.788 1.233A1.864 1.864 0 0113.855 8.9a2.463 2.463 0 011.566-2.93 6.349 6.349 0 011.309-.239.525.525 0 10-.08-1.047 7.43 7.43 0 00-1.207.193.537.537 0 00-.076.013 3.437 3.437 0 00-.25.075 7.276 7.276 0 00-3.474 2.253 7.353 7.353 0 00-1.116 1.747A6.462 6.462 0 009.34 7a6.537 6.537 0 00-.836-.8A3.553 3.553 0 008.629.568a.525.525 0 00-.518-.08 3.576 3.576 0 00-1.021.606A4.261 4.261 0 004.236 0h-.014a.525.525 0 00-.453.263 4.3 4.3 0 00-.571 2.3A4.657 4.657 0 00.152 3.934a.525.525 0 00-.135.506 4.68 4.68 0 001.955 2.7 4.3 4.3 0 00-.656 2.28.525.525 0 00.261.454 4.262 4.262 0 003.032.486 3.574 3.574 0 00.582 1.04.525.525 0 00.489.189 3.553 3.553 0 003-3.75 5.377 5.377 0 011.217 3.651q-.018.269-.016.541a2.888 2.888 0 00-1.834 1.179 2.883 2.883 0 10-2.616 4.528 2.882 2.882 0 002.36 4.085 2.884 2.884 0 105.23 0 2.882 2.882 0 002.36-4.085 2.884 2.884 0 10-2.616-4.528 2.888 2.888 0 00-1.834-1.179q0-.17.006-.338v-.009c0-.037 0-.074.006-.111A6.23 6.23 0 0112.441 7.9q.182-.212.379-.4a3.486 3.486 0 00.018 1.658zm2.634-1.006a.693.693 0 01.427-.32 1 1 0 011.221.723 1.384 1.384 0 01-.294 1.245 1.5 1.5 0 01-1.427-1.124c0-.01-.006-.019-.009-.028a.692.692 0 01.082-.496zM7.541 5.565a6.453 6.453 0 00-2.644-.752.525.525 0 10-.068 1.048 5.406 5.406 0 012.261.655v.005a2.506 2.506 0 01-1.268 3.963 2.529 2.529 0 01-.334-.863.525.525 0 00-.692-.4 3.212 3.212 0 01-2.418-.108 3.242 3.242 0 01.762-1.8.525.525 0 00-.169-.813 3.625 3.625 0 01-1.846-2.039 3.607 3.607 0 012.618-.846A.525.525 0 004.3 3a3.241 3.241 0 01.236-1.936 3.213 3.213 0 012.149 1.115.525.525 0 00.4.184.525.525 0 00.4-.183 2.53 2.53 0 01.721-.58 2.5 2.5 0 01-.663 3.966zM5.684 16.7a1.834 1.834 0 111.834-1.834A1.836 1.836 0 015.684 16.7zm2.359 4.085a1.834 1.834 0 111.834-1.834 1.836 1.836 0 01-1.834 1.835zm2.359 4.087a1.834 1.834 0 111.834-1.834 1.836 1.836 0 01-1.834 1.835zm4.718-11.84a1.834 1.834 0 11-1.834 1.834 1.836 1.836 0 011.834-1.833zm-2.359 4.086a1.834 1.834 0 11-1.834 1.834 1.836 1.836 0 011.834-1.834zm-.525-2.251a1.834 1.834 0 11-1.834-1.834 1.836 1.836 0 011.834 1.834z" fill="#003242"/></svg>