<svg xmlns="http://www.w3.org/2000/svg" viewBox="0 0 30.739 22.542"><g fill="#003242"><path d="M7.173 11.271h-2.05a.484.484 0 00-.512.512v3.074a.484.484 0 00.512.512h2.049a.484.484 0 00.512-.512v-3.074a.484.484 0 00-.511-.512zm-.512 3.074H5.636v-2.049h1.025v2.049zm.512 2.049h-2.05a.484.484 0 00-.512.512v3.074a.484.484 0 00.512.512h2.049a.484.484 0 00.512-.512v-3.074a.484.484 0 00-.511-.512zm-.512 3.074H5.636v-2.054h1.025v2.049zm18.956-8.197h-2.049a.484.484 0 00-.512.512v3.074a.484.484 0 00.512.512h2.049a.484.484 0 00.512-.512v-3.074a.484.484 0 00-.512-.512zm-.512 3.074H24.08v-2.049h1.025zm.512 2.049h-2.049a.484.484 0 00-.512.512v3.074a.484.484 0 00.512.512h2.049a.484.484 0 00.512-.512v-3.074a.484.484 0 00-.512-.512zm-.512 3.074H24.08v-2.054h1.025zM11.783 7.172h2.054a.484.484 0 00.512-.512v-4.1a.484.484 0 00-.512-.512h-2.049a.484.484 0 00-.512.512v4.1a.484.484 0 00.507.512zm.512-4.1h1.025v3.074h-1.025zm4.611 4.1h2.049a.484.484 0 00.512-.512v-4.1a.484.484 0 00-.512-.512h-2.049a.484.484 0 00-.512.512v4.1a.484.484 0 00.512.512zm.512-4.1h1.025v3.074h-1.025zm-.512 10.248h2.049a.484.484 0 00.512-.512v-4.1a.484.484 0 00-.512-.512h-2.049a.484.484 0 00-.512.512v4.1a.484.484 0 00.512.512zm.512-4.1h1.025v3.074h-1.025zm-3.581 4.1a.484.484 0 00.512-.512v-4.1a.484.484 0 00-.512-.512h-2.049a.484.484 0 00-.512.512v4.1a.484.484 0 00.512.512zM12.3 9.22h1.025v3.074H12.3z"/><path d="M30.227 21.518H28.69V9.734a.484.484 0 00-.512-.512h-6.66V.512A.484.484 0 0021.006 0H9.734a.484.484 0 00-.512.512v8.71h-6.66a.484.484 0 00-.512.512v11.783H.512a.484.484 0 00-.512.512.484.484 0 00.512.512h29.715a.512.512 0 000-1.025zM3.074 10.246h6.148v11.271H3.074zm7.173-.512v-8.71h10.246v20.493h-3.074v-4.611a.484.484 0 00-.512-.512h-3.074a.484.484 0 00-.512.512v4.611h-3.075V9.734zm4.1 11.783v-4.1h2.052v4.1zm7.173-11.271h6.148v11.271h-6.15z"/></g></svg>