<svg xmlns="http://www.w3.org/2000/svg" width="81.139" height="59.907"><g id="inverted-commas" transform="translate(0 -25.905)" fill="#fff"><path id="Path_131" data-name="Path 131" d="M0 53.361h19.68c-.336 14.343-4.4 15.971-9.514 16.436l-1.97.244v15.771l2.271-.122c6.672-.375 14.048-1.578 18.969-7.653 4.314-5.326 6.216-14.026 6.216-27.383V25.905H0z"/><path id="Path_132" data-name="Path 132" d="M111 25.905v27.456h19.417c-.336 14.343-4.273 15.971-9.382 16.436l-1.839.244v15.771l2.14-.122c6.672-.375 14.114-1.578 19.035-7.653 4.313-5.326 6.281-14.026 6.281-27.383V25.905z" transform="translate(-65.513)"/></g></svg>