<svg xmlns="http://www.w3.org/2000/svg" width="251" height="250"><g id="Group_2670" data-name="Group 2670" transform="translate(-.304 -.228)"><g id="Group_2646" data-name="Group 2646" transform="translate(.304 .141)" fill="#fff"><g id="Path_2366" data-name="Path 2366" opacity=".529"><path d="M125.5 249.5a126.37 126.37 0 01-25.193-2.53 124.734 124.734 0 01-23.463-7.254 125.169 125.169 0 01-39.733-26.682 125.51 125.51 0 01-15.264-18.426 124.356 124.356 0 01-11.524-21.148 123.507 123.507 0 01-7.284-23.369A124.937 124.937 0 01.5 125c0-8.447.854-16.89 2.54-25.091a123.507 123.507 0 017.283-23.37 124.356 124.356 0 0111.524-21.147 125.51 125.51 0 0115.264-18.426 125.169 125.169 0 0139.733-26.682 124.733 124.733 0 0123.463-7.255A126.414 126.414 0 01125.5.5c8.482 0 16.958.851 25.193 2.53a124.733 124.733 0 0123.463 7.254 125.17 125.17 0 0139.733 26.682 125.509 125.509 0 0115.264 18.426 124.356 124.356 0 0111.524 21.148 123.508 123.508 0 017.284 23.369A124.939 124.939 0 01250.5 125c0 8.447-.854 16.89-2.54 25.091a123.508 123.508 0 01-7.283 23.37 124.356 124.356 0 01-11.524 21.147 125.509 125.509 0 01-15.264 18.426 125.17 125.17 0 01-39.733 26.682 124.734 124.734 0 01-23.463 7.255A126.414 126.414 0 01125.5 249.5z" transform="translate(0 .087)"/><path d="M125.5 1c-8.448 0-16.89.848-25.093 2.52a124.23 124.23 0 00-23.369 7.225A124.668 124.668 0 0037.464 37.32 125.009 125.009 0 0022.26 55.673a123.855 123.855 0 00-11.478 21.062 123.007 123.007 0 00-7.254 23.274A124.438 124.438 0 001 125c0 8.414.851 16.822 2.53 24.99a123.006 123.006 0 007.253 23.275 123.854 123.854 0 0011.478 21.062 125.01 125.01 0 0015.203 18.353 124.668 124.668 0 0039.574 26.575 124.23 124.23 0 0023.37 7.226A125.914 125.914 0 00125.5 249c8.448 0 16.89-.848 25.093-2.52a124.23 124.23 0 0023.369-7.225 124.67 124.67 0 0039.574-26.575 125.005 125.005 0 0015.203-18.353 123.857 123.857 0 0011.478-21.062 123.006 123.006 0 007.254-23.274A124.438 124.438 0 00250 125c0-8.414-.851-16.822-2.53-24.99a123.007 123.007 0 00-7.253-23.275 123.857 123.857 0 00-11.478-21.062 125.004 125.004 0 00-33.629-33.495 124.67 124.67 0 00-21.148-11.433 124.23 124.23 0 00-23.37-7.226A125.913 125.913 0 00125.5 1m0-1C194.812 0 251 55.964 251 125s-56.188 125-125.5 125S0 194.036 0 125 56.188 0 125.5 0z" fill="#707070" transform="translate(0 .087)"/></g><g id="Path_2365" data-name="Path 2365" opacity=".529"><path d="M97.5 194.5a97.72 97.72 0 01-19.55-1.97 96.508 96.508 0 01-18.207-5.653 97.009 97.009 0 01-16.476-8.943A97.7 97.7 0 0128.91 166.09a97.698 97.698 0 01-11.845-14.356 97.008 97.008 0 01-8.943-16.476A96.508 96.508 0 012.47 117.05 97.72 97.72 0 01.5 97.5a97.72 97.72 0 011.97-19.55 96.509 96.509 0 015.653-18.207 97.01 97.01 0 018.943-16.476A97.7 97.7 0 0128.91 28.91a97.7 97.7 0 0114.356-11.845 97.01 97.01 0 0116.476-8.943A96.509 96.509 0 0177.951 2.47 97.72 97.72 0 0197.5.5a97.72 97.72 0 0119.55 1.97 96.508 96.508 0 0118.207 5.653 97.008 97.008 0 0116.476 8.943A97.698 97.698 0 01166.09 28.91a97.7 97.7 0 0111.845 14.356 97.009 97.009 0 018.943 16.476 96.508 96.508 0 015.652 18.208 97.72 97.72 0 011.97 19.55 97.72 97.72 0 01-1.97 19.55 96.507 96.507 0 01-5.653 18.207 97.007 97.007 0 01-8.943 16.476 97.698 97.698 0 01-11.845 14.356 97.698 97.698 0 01-14.356 11.845 97.007 97.007 0 01-16.476 8.943 96.507 96.507 0 01-18.208 5.652A97.72 97.72 0 0197.5 194.5z" transform="translate(28 27.087)"/><path d="M97.5 1c-6.548 0-13.092.66-19.45 1.96a96.007 96.007 0 00-18.112 5.623 96.508 96.508 0 00-16.391 8.897 97.195 97.195 0 00-14.283 11.784A97.195 97.195 0 0017.48 43.547a96.508 96.508 0 00-8.897 16.391 96.007 96.007 0 00-5.622 18.113A97.218 97.218 0 001 97.5c0 6.548.66 13.092 1.96 19.45a96.008 96.008 0 005.623 18.112 96.51 96.51 0 008.897 16.391 97.197 97.197 0 0011.784 14.283 97.196 97.196 0 0014.283 11.784 96.506 96.506 0 0016.391 8.897 96.007 96.007 0 0018.113 5.622A97.218 97.218 0 0097.5 194c6.548 0 13.092-.66 19.45-1.96a96.008 96.008 0 0018.112-5.623 96.507 96.507 0 0016.391-8.897 97.197 97.197 0 0014.283-11.784 97.197 97.197 0 0011.784-14.283 96.507 96.507 0 008.897-16.391 96.008 96.008 0 005.622-18.113A97.218 97.218 0 00194 97.5c0-6.548-.66-13.092-1.96-19.45a96.007 96.007 0 00-5.623-18.112 96.506 96.506 0 00-8.897-16.391 97.196 97.196 0 00-11.784-14.283 97.197 97.197 0 00-14.283-11.784 96.51 96.51 0 00-16.391-8.897 96.008 96.008 0 00-18.113-5.622A97.218 97.218 0 0097.5 1m0-1C151.348 0 195 43.652 195 97.5S151.348 195 97.5 195 0 151.348 0 97.5 43.652 0 97.5 0z" fill="#707070" transform="translate(28 27.087)"/></g></g><path id="Path_2364" data-name="Path 2364" d="M8 0a7.762 7.762 0 018 7.5A7.762 7.762 0 018 15a7.762 7.762 0 01-8-7.5A7.762 7.762 0 018 0z" transform="translate(215.304 42.228)" fill="#ff0138"/></g></svg>