<svg id="Group_2664" data-name="Group 2664" xmlns="http://www.w3.org/2000/svg" width="150" height="150"><g id="Path_2347" data-name="Path 2347" fill="#fff"><path d="M75 149.5c-10.058 0-19.814-1.97-28.999-5.854a74.505 74.505 0 01-12.654-6.87 75.038 75.038 0 01-11.026-9.097 75.039 75.039 0 01-9.098-11.026A74.506 74.506 0 016.354 104C2.47 94.814.5 85.058.5 75s1.97-19.814 5.854-28.999a74.506 74.506 0 016.87-12.654A75.039 75.039 0 0122.32 22.32a75.039 75.039 0 0111.026-9.098A74.506 74.506 0 0146 6.354C55.186 2.47 64.942.5 75 .5s19.814 1.97 28.999 5.854a74.505 74.505 0 0112.654 6.87 75.038 75.038 0 0111.026 9.097 75.037 75.037 0 019.098 11.026A74.505 74.505 0 01143.646 46c3.884 9.186 5.854 18.942 5.854 29s-1.97 19.814-5.854 28.999a74.505 74.505 0 01-6.87 12.654 75.037 75.037 0 01-9.097 11.026 75.037 75.037 0 01-11.026 9.098A74.504 74.504 0 01104 143.646c-9.186 3.884-18.942 5.854-29 5.854z"/><path d="M75 1c-9.99 0-19.681 1.956-28.804 5.815a74.005 74.005 0 00-12.57 6.822 74.535 74.535 0 00-10.952 9.037 74.535 74.535 0 00-9.037 10.953 74.005 74.005 0 00-6.822 12.57C2.956 55.318 1 65.01 1 75c0 9.99 1.956 19.681 5.815 28.804a74.005 74.005 0 006.822 12.57 74.535 74.535 0 009.037 10.952 74.535 74.535 0 0010.953 9.037 74.005 74.005 0 0012.57 6.822C55.318 147.044 65.01 149 75 149c9.99 0 19.681-1.956 28.804-5.815a74.005 74.005 0 0012.57-6.822 74.537 74.537 0 0010.952-9.037 74.536 74.536 0 009.037-10.953 74.005 74.005 0 006.822-12.57C147.044 94.682 149 84.99 149 75c0-9.99-1.956-19.681-5.815-28.804a74.005 74.005 0 00-6.822-12.57 74.536 74.536 0 00-9.037-10.952 74.537 74.537 0 00-10.953-9.037 74.005 74.005 0 00-12.57-6.822C94.682 2.956 84.99 1 75 1m0-1c41.421 0 75 33.579 75 75s-33.579 75-75 75S0 116.421 0 75 33.579 0 75 0z" fill="#707070"/></g><path id="Path_2368" data-name="Path 2368" d="M5 0a5 5 0 11-5 5 5 5 0 015-5z" transform="translate(130.992 111.862)" fill="#ff0138"/></svg>