<svg xmlns="http://www.w3.org/2000/svg" width="175.11" height="37.186"><g id="Group_1775" data-name="Group 1775" transform="translate(-140.659 -621.644)"><g id="Group_1777" data-name="Group 1777" transform="translate(165.494 633.452)"><path id="Path_1322" data-name="Path 1322" d="M5.646 6.717a10.248 10.248 0 01-3-.441A6.268 6.268 0 01.35 5.1l.864-1.938a6.8 6.8 0 002.024 1.07 7.361 7.361 0 002.408.413 4.162 4.162 0 002.236-.48A1.453 1.453 0 008.621 2.9a1.226 1.226 0 00-.413-.95 2.9 2.9 0 00-1.046-.585q-.633-.211-1.727-.48A20.132 20.132 0 012.95.154 4.09 4.09 0 011.319-.988a3.076 3.076 0 01-.681-2.1 3.584 3.584 0 01.6-2.025 4.09 4.09 0 011.827-1.45A7.386 7.386 0 016.049-7.1a9.638 9.638 0 012.418.307 6.683 6.683 0 012.053.883l-.786 1.938a7.762 7.762 0 00-1.842-.787 6.891 6.891 0 00-1.862-.269 3.888 3.888 0 00-2.2.5A1.539 1.539 0 003.113-3.2a1.2 1.2 0 00.413.94 2.981 2.981 0 001.046.576q.633.211 1.727.48a18.174 18.174 0 012.456.72A4.207 4.207 0 0110.4.653a3.009 3.009 0 01.681 2.072 3.539 3.539 0 01-.6 2.015A4.112 4.112 0 018.64 6.179a7.456 7.456 0 01-2.994.538zM16.565-4.8h-4.452v-2.108h11.4V-4.8H19.06V6.525h-2.495zm17.348 8.216H27.2l-1.328 3.109H23.3l6.046-13.433H31.8l6.066 13.433h-2.61zm-.825-1.957l-2.533-5.872-2.514 5.872zm9.461-6.275v4.087h6.486v2.111h-6.487v5.143h-2.494V-6.908h9.806v2.092zm12.7 0v4.087h6.486v2.111h-6.483v5.143h-2.495V-6.908h9.806v2.092z" transform="translate(87.712 7.1)"/><path id="Path_1323" data-name="Path 1323" d="M7.637 6.717a7.565 7.565 0 01-3.675-.892 6.578 6.578 0 01-2.571-2.467A6.841 6.841 0 01.46-.192a6.787 6.787 0 01.94-3.55 6.647 6.647 0 012.581-2.466A7.565 7.565 0 017.656-7.1a7.665 7.665 0 013.013.576 6.145 6.145 0 012.3 1.67L11.36-3.339a4.7 4.7 0 00-3.589-1.573 5.031 5.031 0 00-2.475.6 4.355 4.355 0 00-1.708 1.683 4.824 4.824 0 00-.614 2.437 4.824 4.824 0 00.614 2.437A4.355 4.355 0 005.3 3.924a5.031 5.031 0 002.475.6 4.675 4.675 0 003.585-1.588l1.612 1.535a6.129 6.129 0 01-2.312 1.67 7.736 7.736 0 01-3.023.576zm14.335 0a7.66 7.66 0 01-3.7-.892 6.608 6.608 0 01-2.591-2.475 6.8 6.8 0 01-.94-3.541 6.8 6.8 0 01.94-3.541 6.608 6.608 0 012.591-2.475 7.66 7.66 0 013.7-.892 7.66 7.66 0 013.7.892 6.629 6.629 0 012.591 2.466 6.787 6.787 0 01.94 3.55 6.787 6.787 0 01-.94 3.55 6.629 6.629 0 01-2.591 2.466 7.66 7.66 0 01-3.7.892zm0-2.188a4.846 4.846 0 002.418-.6 4.372 4.372 0 001.689-1.689 4.839 4.839 0 00.614-2.428 4.839 4.839 0 00-.614-2.427 4.372 4.372 0 00-1.689-1.693 4.846 4.846 0 00-2.418-.6 4.846 4.846 0 00-2.418.6 4.372 4.372 0 00-1.689 1.689 4.839 4.839 0 00-.614 2.427 4.839 4.839 0 00.614 2.428 4.372 4.372 0 001.689 1.689 4.846 4.846 0 002.418.604zM44.27-6.908V6.525h-2.053l-7.407-9.1v9.1h-2.476V-6.908h2.053l7.407 9.1v-9.1zm8.252 13.625a10.248 10.248 0 01-3-.441A6.268 6.268 0 0147.225 5.1l.864-1.938a6.8 6.8 0 002.025 1.065 7.361 7.361 0 002.408.413 4.162 4.162 0 002.236-.48A1.453 1.453 0 0055.5 2.9a1.226 1.226 0 00-.413-.95 2.9 2.9 0 00-1.046-.585q-.633-.211-1.727-.48a20.132 20.132 0 01-2.488-.731 4.09 4.09 0 01-1.632-1.142 3.076 3.076 0 01-.681-2.1 3.584 3.584 0 01.6-2.025 4.09 4.09 0 011.823-1.449 7.386 7.386 0 012.989-.538 9.638 9.638 0 012.418.307 6.683 6.683 0 012.057.883l-.787 1.938a7.762 7.762 0 00-1.842-.787 6.891 6.891 0 00-1.861-.269 3.888 3.888 0 00-2.2.5 1.539 1.539 0 00-.72 1.324 1.2 1.2 0 00.413.94 2.981 2.981 0 001.046.576q.633.211 1.727.48a18.174 18.174 0 012.456.72A4.206 4.206 0 0157.271.653a3.009 3.009 0 01.681 2.072 3.539 3.539 0 01-.6 2.015 4.112 4.112 0 01-1.833 1.439 7.456 7.456 0 01-2.997.538zm14.162 0a5.842 5.842 0 01-4.337-1.564A6.086 6.086 0 0160.792.672v-7.58h2.495V.576q0 3.953 3.416 3.953 3.4 0 3.4-3.953v-7.484h2.456v7.58a6.109 6.109 0 01-1.545 4.481 5.808 5.808 0 01-4.33 1.564zm9.844-13.625h2.495V4.414h7.023v2.111h-9.518z" transform="translate(-.46 7.116)"/></g><path id="Path_20" data-name="Path 20" d="M150.876 666.869l-10.217-9.189v-13.9l10.217 9.189z" transform="translate(0 -17.364)" fill="#ff0038"/><path id="Path_21" data-name="Path 21" d="M174.782 621.644l-10.217 9.189v13.9l10.217-9.189z" transform="translate(-18.753)" fill="#f1af40"/><path id="Path_22" data-name="Path 22" d="M150.876 710.137l-10.217-9.189v-13.9l10.217 9.189z" transform="translate(0 -51.307)" fill="#003242"/><path id="Path_23" data-name="Path 23" d="M174.782 664.912l-10.217 9.188V688l10.217-9.189z" transform="translate(-18.753 -33.942)" fill="#004f6f"/></g></svg>