<svg id="Group_1777" data-name="Group 1777" xmlns="http://www.w3.org/2000/svg" width="355.107" height="32.688"><path id="Path_1322" data-name="Path 1322" d="M12.866 25.549a24.217 24.217 0 01-7.1-1.043A14.811 14.811 0 01.35 21.74l2.041-4.58a16.075 16.075 0 004.784 2.517 17.4 17.4 0 005.691.975 9.834 9.834 0 005.283-1.134 3.434 3.434 0 001.746-2.993 2.9 2.9 0 00-.975-2.245 6.844 6.844 0 00-2.472-1.38q-1.5-.5-4.081-1.134a47.574 47.574 0 01-5.872-1.723 9.664 9.664 0 01-3.854-2.7A7.268 7.268 0 011.03 2.377a8.47 8.47 0 011.429-4.784A9.665 9.665 0 016.767-5.83a17.453 17.453 0 017.051-1.27 22.775 22.775 0 015.714.726 15.793 15.793 0 014.852 2.086L22.524.291a18.342 18.342 0 00-4.353-1.859 16.284 16.284 0 00-4.4-.635A9.189 9.189 0 008.58-1.024a3.637 3.637 0 00-1.7 3.129 2.829 2.829 0 00.975 2.222 7.044 7.044 0 002.471 1.36q1.5.5 4.081 1.134a42.945 42.945 0 015.8 1.7 9.94 9.94 0 013.877 2.7 7.111 7.111 0 011.61 4.9 8.363 8.363 0 01-1.428 4.761 9.716 9.716 0 01-4.331 3.4 17.618 17.618 0 01-7.069 1.267zm25.8-27.208H28.147v-4.988h26.936v4.988h-10.52V25.1h-5.9zM79.661 17.75H63.79l-3.129 7.35h-6.077L68.868-6.647h5.8L89 25.1h-6.165zm-1.95-4.625L71.725-.752l-5.94 13.876zM100.067-1.7v9.655h15.327v4.988h-15.327V25.1h-5.9V-6.647h23.172V-1.7zm30.019 0v9.655h15.327v4.988h-15.327V25.1h-5.9V-6.647h23.172V-1.7z" transform="translate(207.744 7.1)" fill="#fff"/><path id="Path_1323" data-name="Path 1323" d="M17.42 25.549a17.876 17.876 0 01-8.684-2.109 15.544 15.544 0 01-6.076-5.827 16.165 16.165 0 01-2.2-8.388A16.037 16.037 0 012.682.836a15.707 15.707 0 016.1-5.827A17.876 17.876 0 0117.465-7.1a18.113 18.113 0 017.119 1.36 14.521 14.521 0 015.442 3.945l-3.809 3.583a11.109 11.109 0 00-8.48-3.718 11.89 11.89 0 00-5.85 1.43 10.29 10.29 0 00-4.036 3.966A11.4 11.4 0 006.4 9.225a11.4 11.4 0 001.451 5.759 10.29 10.29 0 004.036 3.968 11.89 11.89 0 005.85 1.428 11.048 11.048 0 008.48-3.764l3.809 3.628a14.482 14.482 0 01-5.464 3.945 18.28 18.28 0 01-7.142 1.36zm33.874 0a18.1 18.1 0 01-8.752-2.109 15.615 15.615 0 01-6.122-5.85 16.072 16.072 0 01-2.22-8.365A16.072 16.072 0 0136.42.858a15.615 15.615 0 016.122-5.85A18.1 18.1 0 0151.293-7.1a18.1 18.1 0 018.752 2.109A15.666 15.666 0 0166.167.836a16.037 16.037 0 012.222 8.389 16.037 16.037 0 01-2.222 8.389 15.666 15.666 0 01-6.122 5.827 18.1 18.1 0 01-8.752 2.108zm0-5.169a11.45 11.45 0 005.714-1.428A10.331 10.331 0 0061 14.961a11.434 11.434 0 001.451-5.736A11.434 11.434 0 0061 3.488 10.331 10.331 0 0057.007-.5a12.141 12.141 0 00-11.427 0 10.331 10.331 0 00-3.99 3.99 11.434 11.434 0 00-1.451 5.736 11.434 11.434 0 001.451 5.736 10.331 10.331 0 003.99 3.99 11.45 11.45 0 005.713 1.428zm52.692-27.027V25.1h-4.852L81.63 3.6v21.5h-5.85V-6.647h4.852l17.5 21.494V-6.647zm19.5 32.2a24.217 24.217 0 01-7.1-1.043 14.811 14.811 0 01-5.419-2.766l2.041-4.58a16.075 16.075 0 004.784 2.517 17.4 17.4 0 005.691.975 9.834 9.834 0 005.283-1.134 3.434 3.434 0 001.746-2.993 2.9 2.9 0 00-.975-2.245 6.844 6.844 0 00-2.471-1.383q-1.5-.5-4.081-1.134a47.573 47.573 0 01-5.872-1.723 9.664 9.664 0 01-3.854-2.7 7.268 7.268 0 01-1.61-4.965 8.47 8.47 0 011.428-4.784 9.665 9.665 0 014.308-3.424 17.453 17.453 0 017.051-1.27 22.775 22.775 0 015.714.726A15.793 15.793 0 01135-4.289l-1.857 4.58a18.342 18.342 0 00-4.353-1.859 16.284 16.284 0 00-4.4-.635 9.188 9.188 0 00-5.19 1.179 3.637 3.637 0 00-1.7 3.129 2.829 2.829 0 00.975 2.222 7.044 7.044 0 002.471 1.36q1.5.5 4.081 1.134a42.946 42.946 0 015.8 1.7 9.94 9.94 0 013.877 2.7 7.111 7.111 0 011.61 4.9 8.363 8.363 0 01-1.428 4.761 9.716 9.716 0 01-4.331 3.4 17.618 17.618 0 01-7.07 1.267zm33.466 0q-6.575 0-10.248-3.7t-3.673-10.588V-6.647h5.9v17.686q0 9.341 8.072 9.341 8.026 0 8.026-9.341V-6.647h5.8v17.912q0 6.893-3.65 10.588t-10.229 3.696zm23.263-32.2h5.9v26.755h16.6V25.1h-22.502z" transform="translate(-.46 7.139)" fill="#fff"/></svg>