<svg xmlns="http://www.w3.org/2000/svg" width="324.915" height="85.87"><g id="Group_2553" data-name="Group 2553" transform="translate(-77.159 -27.522)"><g id="Group_2455" data-name="Group 2455" transform="translate(129.836 55.628)" fill="#fff"><path id="Path_1322" data-name="Path 1322" d="M9.945 17.93a18.565 18.565 0 01-5.441-.8A11.355 11.355 0 01.35 15.01l1.564-3.51a12.323 12.323 0 003.668 1.929 13.336 13.336 0 004.363.747 7.539 7.539 0 004.05-.869 2.633 2.633 0 001.338-2.294 2.222 2.222 0 00-.747-1.721 5.247 5.247 0 00-1.895-1.06q-1.147-.382-3.129-.869a36.472 36.472 0 01-4.5-1.321 7.409 7.409 0 01-2.956-2.07A5.572 5.572 0 01.871.166 6.493 6.493 0 011.967-3.5a7.41 7.41 0 013.3-2.625 13.38 13.38 0 015.408-.975 17.46 17.46 0 014.38.556 12.108 12.108 0 013.72 1.6L17.35-1.433a14.061 14.061 0 00-3.337-1.425 12.484 12.484 0 00-3.372-.487 7.044 7.044 0 00-3.98.9 2.788 2.788 0 00-1.3 2.4 2.169 2.169 0 00.747 1.7A5.4 5.4 0 008 2.7q1.147.382 3.129.869a32.923 32.923 0 014.45 1.3 7.62 7.62 0 012.972 2.068 5.451 5.451 0 011.232 3.763 6.411 6.411 0 01-1.1 3.65 7.449 7.449 0 01-3.32 2.607 13.507 13.507 0 01-5.418.973zM29.726-2.928H21.66v-3.824h20.65v3.824h-8.065v20.51h-4.519zm31.426 14.879H48.985l-2.4 5.632h-4.657L52.879-6.752h4.45l10.985 24.334h-4.728zM59.658 8.4L55.069-2.233 50.515 8.4zM76.8-2.963v7.4h11.75v3.829H76.8v9.317h-4.523V-6.752h17.764v3.789zm23.014 0v7.4h11.75v3.829H99.81v9.317h-4.519V-6.752h17.764v3.789z" transform="translate(159.182 7.1)"/><path id="Path_1323" data-name="Path 1323" d="M13.462 17.93A13.7 13.7 0 016.8 16.314a11.917 11.917 0 01-4.658-4.467A12.392 12.392 0 01.46 5.415a12.3 12.3 0 011.7-6.431 12.041 12.041 0 014.679-4.467A13.7 13.7 0 0113.5-7.1a13.886 13.886 0 015.458 1.043 11.132 11.132 0 014.172 3.024L20.206-.286a8.516 8.516 0 00-6.5-2.851 9.115 9.115 0 00-4.485 1.1A7.889 7.889 0 006.127 1a8.739 8.739 0 00-1.113 4.415A8.739 8.739 0 006.127 9.83a7.889 7.889 0 003.094 3.042 9.115 9.115 0 004.485 1.1 8.47 8.47 0 006.5-2.885l2.92 2.781a11.1 11.1 0 01-4.189 3.024 14.014 14.014 0 01-5.475 1.038zm25.969 0a13.877 13.877 0 01-6.709-1.617 11.971 11.971 0 01-4.693-4.485 12.321 12.321 0 01-1.7-6.414A12.321 12.321 0 0128.028-1a11.971 11.971 0 014.693-4.485 13.877 13.877 0 016.71-1.615 13.877 13.877 0 016.709 1.617 12.01 12.01 0 014.693 4.467 12.3 12.3 0 011.7 6.431 12.3 12.3 0 01-1.7 6.431 12.01 12.01 0 01-4.693 4.467 13.877 13.877 0 01-6.709 1.617zm0-3.963a8.778 8.778 0 004.38-1.1 7.92 7.92 0 003.059-3.054 8.766 8.766 0 001.112-4.4 8.766 8.766 0 00-1.112-4.4 7.92 7.92 0 00-3.059-3.059 9.308 9.308 0 00-8.761 0 7.92 7.92 0 00-3.059 3.059 8.766 8.766 0 00-1.112 4.4 8.766 8.766 0 001.112 4.4 7.92 7.92 0 003.059 3.059 8.778 8.778 0 004.381 1.095zm40.4-20.719v24.334h-3.72L62.688 1.1v16.482H58.2V-6.752h3.72L75.342 9.726V-6.752zM94.775 17.93a18.565 18.565 0 01-5.441-.8 11.355 11.355 0 01-4.154-2.12l1.564-3.51a12.323 12.323 0 003.668 1.929 13.336 13.336 0 004.363.747 7.539 7.539 0 004.05-.869 2.633 2.633 0 001.338-2.294 2.222 2.222 0 00-.747-1.721 5.247 5.247 0 00-1.895-1.06q-1.147-.382-3.129-.869a36.472 36.472 0 01-4.5-1.321 7.409 7.409 0 01-2.955-2.068A5.572 5.572 0 0185.7.166 6.493 6.493 0 0186.8-3.5a7.41 7.41 0 013.3-2.625 13.38 13.38 0 015.4-.975 17.46 17.46 0 014.38.556 12.108 12.108 0 013.72 1.6l-1.42 3.511a14.062 14.062 0 00-3.337-1.425 12.484 12.484 0 00-3.372-.487 7.044 7.044 0 00-3.98.9 2.788 2.788 0 00-1.3 2.4 2.169 2.169 0 00.747 1.7 5.4 5.4 0 001.89 1.045q1.147.382 3.129.869a32.924 32.924 0 014.45 1.3 7.621 7.621 0 012.972 2.068 5.451 5.451 0 011.234 3.755 6.411 6.411 0 01-1.1 3.65 7.449 7.449 0 01-3.32 2.607 13.507 13.507 0 01-5.418.981zm25.656 0q-5.041 0-7.857-2.833t-2.816-8.117V-6.752h4.519V6.806q0 7.161 6.188 7.161 6.153 0 6.153-7.161V-6.752h4.45V6.979q0 5.284-2.8 8.117t-7.837 2.834zm17.834-24.682h4.519v20.51h12.724v3.824h-17.243z" transform="translate(-.46 7.13)"/></g><g id="Group_2456" data-name="Group 2456" transform="translate(-63 -593)" stroke="#fff" stroke-width="1"><path id="Path_20" data-name="Path 20" d="M163.636 695.7l-22.977-20.66v-31.261l22.977 20.664z" transform="translate(0 -11.406)" fill="#ff0038"/><path id="Path_21" data-name="Path 21" d="M187.541 621.644l-22.977 20.664v31.261l22.977-20.669z" transform="translate(-12.319)" fill="#f1af40"/><path id="Path_22" data-name="Path 22" d="M163.636 738.972l-22.977-20.664v-31.261l22.977 20.664z" transform="translate(0 -33.702)" fill="#003242"/><path id="Path_23" data-name="Path 23" d="M187.541 664.912l-22.977 20.664v31.261l22.977-20.664z" transform="translate(-12.319 -22.296)" fill="#004f6f"/></g></g></svg>