<svg xmlns="http://www.w3.org/2000/svg" width="227.316" height="96.405"><g id="Group_2268" data-name="Group 2268" transform="translate(15138.999 -6960.644)"><path id="Path_1943" data-name="Path 1943" d="M11.507.37a19.759 19.759 0 01-5.791-.851 12.085 12.085 0 01-4.421-2.257L2.96-6.475a13.116 13.116 0 003.9 2.054 14.194 14.194 0 004.644.8 8.024 8.024 0 004.311-.925 2.8 2.8 0 001.425-2.442 2.364 2.364 0 00-.8-1.832 5.585 5.585 0 00-2.01-1.133q-1.221-.407-3.33-.925a38.817 38.817 0 01-4.792-1.406 7.885 7.885 0 01-3.145-2.2 5.93 5.93 0 01-1.313-4.053 6.911 6.911 0 011.166-3.9 7.886 7.886 0 013.514-2.797 14.24 14.24 0 015.753-1.036 18.583 18.583 0 014.662.592 12.886 12.886 0 013.959 1.7l-1.517 3.737a14.966 14.966 0 00-3.552-1.517 13.287 13.287 0 00-3.589-.518 7.5 7.5 0 00-4.236.962 2.967 2.967 0 00-1.387 2.553 2.308 2.308 0 00.8 1.813 5.747 5.747 0 002.016 1.11q1.221.407 3.33.925a35.041 35.041 0 014.731 1.389 8.111 8.111 0 013.163 2.2 5.8 5.8 0 011.313 4 6.824 6.824 0 01-1.165 3.885 7.928 7.928 0 01-3.532 2.773A14.375 14.375 0 0111.507.37zm21.053-22.2h-8.584v-4.07h21.978v4.07H37.37V0h-4.81zM66.008-5.994h-12.95L50.5 0h-4.953L57.2-25.9h4.736L73.63 0H68.6zm-1.591-3.774L59.533-21.09 54.686-9.768zm18.241-12.1v7.881h12.506v4.07H82.658V0h-4.81v-25.9h18.907v4.033zm24.494 0v7.881h12.506v4.07h-12.506V0h-4.81v-25.9h18.907v4.033z" transform="translate(-15084.977 7039.536)" fill="#003242"/><path id="Path_1942" data-name="Path 1942" d="M15.54.37a14.586 14.586 0 01-7.085-1.72A12.683 12.683 0 013.5-6.105a13.189 13.189 0 01-1.8-6.845 13.086 13.086 0 011.815-6.85 12.816 12.816 0 014.977-4.754 14.586 14.586 0 017.085-1.72 14.779 14.779 0 015.809 1.11 11.848 11.848 0 014.44 3.219l-3.108 2.923a9.064 9.064 0 00-6.918-3.03 9.7 9.7 0 00-4.773 1.166 8.4 8.4 0 00-3.293 3.237 9.3 9.3 0 00-1.184 4.7 9.3 9.3 0 001.184 4.7 8.4 8.4 0 003.293 3.238A9.7 9.7 0 0015.8-3.848a9.015 9.015 0 006.919-3.071l3.108 2.96A11.817 11.817 0 0121.368-.74 14.915 14.915 0 0115.54.37zm27.639 0a14.769 14.769 0 01-7.141-1.72 12.741 12.741 0 01-4.995-4.773 13.113 13.113 0 01-1.813-6.827 13.114 13.114 0 011.813-6.827 12.741 12.741 0 014.995-4.773 14.769 14.769 0 017.141-1.72 14.769 14.769 0 017.141 1.72 12.782 12.782 0 015 4.754 13.086 13.086 0 011.813 6.845 13.086 13.086 0 01-1.813 6.845 12.782 12.782 0 01-5 4.755A14.769 14.769 0 0143.179.37zm0-4.218a9.343 9.343 0 004.662-1.165A8.43 8.43 0 0051.1-8.269a9.33 9.33 0 001.184-4.681 9.33 9.33 0 00-1.184-4.681 8.43 8.43 0 00-3.256-3.256 9.343 9.343 0 00-4.662-1.166 9.343 9.343 0 00-4.662 1.166 8.43 8.43 0 00-3.256 3.256 9.33 9.33 0 00-1.184 4.681 9.33 9.33 0 001.184 4.681 8.43 8.43 0 003.256 3.256 9.343 9.343 0 004.659 1.165zM86.173-25.9V0h-3.959L67.932-17.538V0h-4.773v-25.9h3.959L81.4-8.362V-25.9zM102.083.37a19.759 19.759 0 01-5.79-.851 12.085 12.085 0 01-4.422-2.257l1.665-3.737a13.116 13.116 0 003.9 2.054 14.194 14.194 0 004.643.8 8.024 8.024 0 004.311-.925 2.8 2.8 0 001.424-2.442 2.365 2.365 0 00-.8-1.832 5.585 5.585 0 00-2.017-1.128q-1.221-.407-3.33-.925a38.817 38.817 0 01-4.791-1.406 7.885 7.885 0 01-3.145-2.2 5.93 5.93 0 01-1.313-4.051 6.911 6.911 0 011.166-3.9 7.886 7.886 0 013.515-2.793 14.24 14.24 0 015.753-1.036 18.583 18.583 0 014.662.592 12.886 12.886 0 013.959 1.7l-1.517 3.737a14.966 14.966 0 00-3.552-1.517 13.287 13.287 0 00-3.589-.518 7.5 7.5 0 00-4.237.962 2.967 2.967 0 00-1.378 2.544 2.308 2.308 0 00.8 1.813 5.747 5.747 0 002.016 1.11q1.221.407 3.33.925a35.041 35.041 0 014.736 1.387 8.111 8.111 0 013.163 2.2 5.8 5.8 0 011.313 4 6.824 6.824 0 01-1.165 3.885 7.928 7.928 0 01-3.534 2.775A14.375 14.375 0 01102.083.37zm27.306 0q-5.365 0-8.362-3.016t-3-8.639V-25.9h4.81v14.43q0 7.622 6.586 7.622 6.549 0 6.549-7.622V-25.9h4.736v14.615q0 5.624-2.979 8.639T129.389.37zM148.37-25.9h4.81v21.83h13.542V0H148.37z" transform="translate(-15084.977 7003.623)" fill="#003242"/><path id="Path_20" data-name="Path 20" d="M167.147 703.639l-26.488-23.821v-36.039l26.488 23.821z" transform="translate(-15279.658 6329.233)" fill="#ff0038"/><path id="Path_21" data-name="Path 21" d="M191.053 621.644l-26.488 23.821V681.5l26.488-23.821z" transform="translate(-15290.206 6339)" fill="#f1af40"/><path id="Path_22" data-name="Path 22" d="M167.147 746.907l-26.488-23.821v-36.039l26.488 23.821z" transform="translate(-15279.658 6310.142)" fill="#003242"/><path id="Path_23" data-name="Path 23" d="M191.053 664.912l-26.488 23.821v36.038l26.488-23.821z" transform="translate(-15290.206 6319.909)" fill="#004f6f"/><path id="Rectangle_1" data-name="Rectangle 1" transform="translate(-14950.979 7038.655)" fill="#ff0038" d="M0 0h39.296v2.318H0z"/></g></svg>