<svg xmlns="http://www.w3.org/2000/svg" width="227.817" height="98.649"><g id="Group_485" data-name="Group 485" transform="translate(-140.159 -620.522)"><path id="Path_1943" data-name="Path 1943" d="M11.507.37c7.1 0 10.471-3.552 10.471-7.7 0-9.509-15.355-5.92-15.355-11.433 0-1.961 1.628-3.515 5.624-3.515a14.393 14.393 0 017.141 2.035l1.517-3.737a16.375 16.375 0 00-8.621-2.294c-7.1 0-10.434 3.552-10.434 7.733 0 9.62 15.392 5.957 15.392 11.544 0 1.924-1.7 3.367-5.735 3.367A14.351 14.351 0 012.96-6.475L1.295-2.738C3.441-.888 7.474.37 11.507.37zM32.56 0h4.81v-21.83h8.584v-4.07H23.976v4.07h8.584zM68.6 0h5.03L61.938-25.9H57.2L45.547 0H50.5l2.553-5.994h12.95zM54.686-9.768l4.847-11.322 4.884 11.322zm42.069-12.1V-25.9H77.848V0h4.81v-9.916h12.506v-4.07H82.658v-7.881zm24.494 0V-25.9h-18.907V0h4.81v-9.916h12.506v-4.07h-12.506v-7.881z" transform="translate(194.682 700.536)" fill="#fff"/><path id="Path_1942" data-name="Path 1942" d="M15.54.37a13.145 13.145 0 0010.286-4.329l-3.108-2.96A9 9 0 0115.8-3.848a8.842 8.842 0 01-9.25-9.1 8.842 8.842 0 019.25-9.1 9.1 9.1 0 016.919 3.034l3.108-2.923a13.12 13.12 0 00-10.25-4.333C7.622-26.27 1.7-20.683 1.7-12.95S7.622.37 15.54.37zm27.639 0c8.029 0 13.949-5.624 13.949-13.32s-5.92-13.32-13.949-13.32S29.23-20.609 29.23-12.95 35.15.37 43.179.37zm0-4.218a8.826 8.826 0 01-9.1-9.1 8.826 8.826 0 019.1-9.1 8.826 8.826 0 019.1 9.1 8.826 8.826 0 01-9.1 9.1zM81.4-25.9v17.538L67.118-25.9h-3.959V0h4.773v-17.538L82.214 0h3.959v-25.9zM102.083.37c7.1 0 10.471-3.552 10.471-7.7 0-9.509-15.355-5.92-15.355-11.433 0-1.961 1.628-3.515 5.624-3.515a14.393 14.393 0 017.141 2.035l1.517-3.737a16.375 16.375 0 00-8.621-2.294c-7.1 0-10.434 3.552-10.434 7.733 0 9.62 15.392 5.957 15.392 11.544 0 1.924-1.7 3.367-5.735 3.367a14.351 14.351 0 01-8.547-2.849l-1.665 3.741C94.017-.888 98.05.37 102.083.37zm27.306 0c7.067 0 11.322-4.107 11.322-11.655V-25.9h-4.736v14.43c0 5.328-2.368 7.622-6.549 7.622s-6.586-2.294-6.586-7.622V-25.9h-4.81v14.615c0 7.548 4.255 11.655 11.359 11.655zM148.37 0h18.352v-4.07H153.18V-25.9h-4.81z" transform="translate(194.682 664.623)" fill="#fff"/><path id="Path_20" data-name="Path 20" d="M167.147 693.872l-26.488-23.821v-36.039l26.488 23.821z" fill="#ff0038" stroke="#fff" stroke-width="1"/><path id="Path_21" data-name="Path 21" d="M180.505 621.644l-26.488 23.821V681.5l26.488-23.821z" fill="#f1af40" stroke="#fff" stroke-width="1"/><path id="Path_22" data-name="Path 22" d="M167.147 718.049l-26.488-23.821v-36.039l26.488 23.821z" fill="#003242" stroke="#fff" stroke-width="1"/><path id="Path_23" data-name="Path 23" d="M180.505 645.821l-26.488 23.821v36.038l26.488-23.821z" fill="#004f6f" stroke="#fff" stroke-width="1"/><path id="Rectangle_1" data-name="Rectangle 1" transform="translate(328.68 699.656)" fill="#ff0038" d="M0 0h39.296v2.318H0z"/></g></svg>