<svg xmlns="http://www.w3.org/2000/svg" viewBox="0 0 29.57 27.599"><path d="M.986 13.306h3.943v-.986H.986V9.702l4.612-1.774-.354-.92-4.928 1.9a.493.493 0 00-.316.46v4.928h.986zm27.598 2.464H22.67a.493.493 0 00-.493.493v3.943a.493.493 0 00.493.493h5.914v5.2l-5.737-2.207a.493.493 0 00-.35 0l-5.248 1.968v-2.492a.493.493 0 00-.232-.418l-3.943-2.464a.493.493 0 00-.261-.075h-1.971a.493.493 0 00-.493.493v4.217l-2.957-1.109v-3.108a.493.493 0 00-.493-.493H.986v-2.957h7.885a.493.493 0 00.493-.493v-2.469h-.986v1.971H.986v-.986H0v11.828a.493.493 0 00.7.447l6.22-2.871 7.693 2.885a.493.493 0 00.346 0l7.71-2.891 6.232 2.4a.493.493 0 00.67-.46v-11.83h-.986zm-27.6 5.421h5.421v2.642l-5.421 2.5zm13.8 5.388l-3.45-1.294v-4.093h1.337l3.591 2.245v2.589zm8.378-6.866v-2.957h5.421v2.957z" fill="#003242"/><path d="M29.254 8.907l-6.407-2.464a.493.493 0 00-.324-.01l-7.738 2.418-1.331-.416-.294.941 1.479.462a.493.493 0 00.294 0l3.3-1.032v9.99l-3.669-2.446a.493.493 0 00-.273-.083h-.986v-1.971h-.984v2.464a.493.493 0 00.493.493h1.329l4.311 2.874a.493.493 0 00.766-.41V8.494l2.957-.924v4.751a.493.493 0 00.493.493h5.914v.986h.986V9.365a.493.493 0 00-.316-.46zm-6.091 2.924V7.62l5.421 2.085v2.126z" fill="#003242"/><path d="M7.947 9.592c-1.26.327-2.034.97-2.034 1.743 0 .35.17 1.01 1.309 1.5a7.569 7.569 0 005.267 0c1.139-.488 1.309-1.148 1.309-1.5 0-.78-.761-1.418-2.033-1.744.146-.169.3-.348.446-.536a7.844 7.844 0 002.079-4.62 4.435 4.435 0 10-8.871 0 7.844 7.844 0 002.079 4.62c.153.189.303.368.449.537zm4.866 1.743c0 .347-1.123.986-2.957.986s-2.957-.638-2.957-.986c0-.26.647-.709 1.825-.9.459.47.784.756.807.776a.493.493 0 00.649 0c.023-.021.349-.306.807-.777 1.289.208 1.826.683 1.826.901zM9.856.986a3.454 3.454 0 013.45 3.45 7.033 7.033 0 01-1.854 3.992 18.338 18.338 0 01-1.6 1.742 18.309 18.309 0 01-1.586-1.73 7.048 7.048 0 01-1.863-4A3.454 3.454 0 019.856.986z" fill="#003242"/><path d="M9.856 6.407a1.971 1.971 0 10-1.971-1.972 1.971 1.971 0 001.971 1.972zm0-2.957a.986.986 0 11-.986.986.986.986 0 01.986-.986z" fill="#003242"/></svg>