<svg xmlns="http://www.w3.org/2000/svg" width="803.418" height="622.449"><path d="M803.418 414.779C534.07 303.153 266.225 300.287 0 414.779V0h803.418z" fill="#fafafa"/><path d="M803.418 622.452H0V414.638q387.276-172.3 803.418 0z" fill="#fafafa"/><path fill="#e3e3e3" d="M49 64.521h158v7H49zm0 18h158v8H49zm0 19h158v7H49z"/><path fill="#d0cde1" d="M75 131.521h16v16H75z"/><path fill="#f1af40" d="M120 131.521h16v16h-16z"/><path fill="#94001e" d="M165 131.521h16v16h-16z"/><path fill="#e3e3e3" d="M60.893 192.064h134.705v23.154H60.893z"/><path fill="#f1af40" d="M60.893 227.593h134.705v23.154H60.893z"/><path fill="#af0023" d="M60.893 263.123h134.705v23.154H60.893z"/><path opacity=".15" d="M60.893 192.064h55.726v23.154H60.893zm-.001 35.529h18.041v23.154H60.892zm.001 35.53h89.803v23.154H60.893z"/><path d="M414.493 58.963v264.6a132.3 132.3 0 000-264.6zm-8.82 5.815a121.539 121.539 0 00-108.666 67.062l108.666 64.294z" fill="#e3e3e3"/><path d="M288.198 133.542a132.336 132.336 0 00118.277 191.623V203.554z" fill="#f1af40"/><path fill="#e3e3e3" d="M636 127.521h81v8h-81z"/><path fill="#f1af40" d="M609 123.521h16v16h-16z"/><path fill="#e3e3e3" d="M636 151.521h81v8h-81z"/><path fill="#f1af40" d="M609 147.521h16v16h-16z"/><path fill="#e3e3e3" d="M636 176.521h81v7h-81z"/><path fill="#f1af40" d="M609 171.521h16v16h-16z"/><path d="M371.762 241.541l-1.134-1.134 84.425-84.425h147.064v1.6h-146.4z" fill="#2f2e41"/><g fill="#f1af40"><path d="M60.719 380.817h460.145v1.808H60.719zm0 18.08h460.145v1.808H60.719zm0 18.081h460.145v1.808H60.719zm0 18.08h460.145v1.808H60.719zm0 18.08h460.145v1.808H60.719zm0 18.081h460.145v1.808H60.719zm0 18.08h460.145v1.808H60.719zm0 18.08h460.145v1.808H60.719zm0 18.081h460.145v1.808H60.719zm0 18.08h460.145v1.808H60.719zm0 18.08h460.145v1.808H60.719zm8.136-25.312h30.737v7.232H68.855z"/><path d="M118.576 519.132h30.737v7.232h-30.737zm49.721-36.161h30.737v7.232h-30.737zm49.721 17.176h30.737v7.232h-30.737zm49.721-35.256h30.737v7.232h-30.737zm49.721 35.256h30.737v7.232H317.46zm49.721-53.337h30.737v7.232h-30.737zm49.721-35.256h30.737v7.232h-30.737zm49.721 18.08h30.737v7.232h-30.737z"/><path d="M466.623 435.058v72.773h-18.985V415.17H416.9v92.661h-18.983v-57.41h-30.736v57.4h-68.706v-39.314h-30.736v39.324h-50.173v17.629h-18.533v-38.873H168.3v38.873h-49.724v18.08H68.855v19.889h428.5V435.058z" opacity=".1"/></g><path d="M716.78 478.022h-71.023l-37.335 60.424a71.03 71.03 0 00108.358-60.424z" fill="#f2f2f2"/><path d="M643.349 542.463a71.188 71.188 0 01-37.512-10.649l-.286-.177.177-.286 37.432-60.588h71.547v.337a71.44 71.44 0 01-71.358 71.363zm-36.871-11.046a70.694 70.694 0 00107.556-59.977h-70.5z" fill="#3f3d56"/><path d="M557.581 467.79a70.973 70.973 0 0033.688 60.424l37.335-60.424-61.674-35.242a70.7 70.7 0 00-9.349 35.242z" fill="#f2f2f2"/><path d="M597.096 526.27l-.287-.177a71.393 71.393 0 01-24.454-96.12l.167-.292 62.269 35.582zm-24.323-95.67a70.72 70.72 0 0024.1 94.742l36.974-59.84z" fill="#3f3d56"/><path d="M663.927 387.593l-15.311 69.363h71.023a71.045 71.045 0 00-55.712-69.363z" fill="#f1af40"/><path d="M714.709 461.204H642.93l15.474-70.1.329.072a71.382 71.382 0 0155.976 69.692zm-70.94-.674h70.265a71.09 71.09 0 00-55.118-68.624z" fill="#3f3d56"/><path d="M633.418 380.817a71 71 0 00-61.674 35.78l61.674 35.242 15.311-69.363a71.268 71.268 0 00-15.311-1.659z" fill="#f2f2f2"/><path d="M636.659 458.077l-62.365-35.637.168-.293a71.443 71.443 0 0177.35-34.282l.329.072zm-61.444-35.887l60.983 34.848 15.139-68.586a70.77 70.77 0 00-76.123 33.738zm98.173 15.434l-.49-.462 36.965-39.228h30.089v.674h-29.8z" fill="#3f3d56"/><path fill="#f1af40" d="M719.488 403.087h35.511v1.204h-35.511zm0 5.116h35.511v1.204h-35.511zm0 5.116h35.511v1.204h-35.511zM707.36 551.993h35.511v1.204H707.36zm0 5.116h35.511v1.204H707.36zm0 5.116h35.511v1.204H707.36z"/><path d="M727.711 545.954h-35.553l-.1-.146-27.625-40.09.555-.382 27.525 39.945h35.2z" fill="#3f3d56"/></svg>