<?xml version="1.0" encoding="UTF-8" standalone="no"?><svg viewBox="0 0 512 512" xmlns="http://www.w3.org/2000/svg" xmlns:xlink="http://www.w3.org/1999/xlink"><style>:root>svg{display:none}:root>svg:target{display:block}</style><svg viewBox="0 0 64 42.67" fill="#f1af40" id="arrow-long" xmlns="http://www.w3.org/2000/svg"><g data-name="Layer 2"><path class="acls-1" d="M63.22 19.57L44.5.78a2.67 2.67 0 00-3.78 3.77l14.07 14.12H2.67a2.67 2.67 0 100 5.33H55L40.73 38.11a2.67 2.67 0 103.76 3.78l18.72-18.54a2.67 2.67 0 000-3.78z" data-name="Layer 1"/></g></svg><svg viewBox="0 0 492 492" id="close" xmlns="http://www.w3.org/2000/svg"><path d="M300.188 246L484.14 62.04c5.06-5.064 7.852-11.82 7.86-19.024 0-7.208-2.792-13.972-7.86-19.028L468.02 7.872C462.952 2.796 456.196.016 448.984.016c-7.2 0-13.956 2.78-19.024 7.856L246.008 191.82 62.048 7.872C56.988 2.796 50.228.016 43.02.016c-7.2 0-13.96 2.78-19.02 7.856L7.872 23.988c-10.496 10.496-10.496 27.568 0 38.052L191.828 246 7.872 429.952C2.808 435.024.02 441.78.02 448.984c0 7.204 2.788 13.96 7.852 19.028l16.124 16.116c5.06 5.072 11.824 7.856 19.02 7.856 7.208 0 13.968-2.784 19.028-7.856l183.96-183.952 183.952 183.952c5.068 5.072 11.824 7.856 19.024 7.856h.008c7.204 0 13.96-2.784 19.028-7.856l16.12-16.116c5.06-5.064 7.852-11.824 7.852-19.028 0-7.204-2.792-13.96-7.852-19.028L300.188 246z"/></svg><svg viewBox="0 0 24 24" id="facebook" xmlns="http://www.w3.org/2000/svg"><path d="M15.997 3.985h2.191V.169C17.81.117 16.51 0 14.996 0c-3.159 0-5.323 1.987-5.323 5.639V9H6.187v4.266h3.486V24h4.274V13.267h3.345l.531-4.266h-3.877V6.062c.001-1.233.333-2.077 2.051-2.077z"/></svg><svg viewBox="0 0 19.606 20.706" id="growth" xmlns="http://www.w3.org/2000/svg"><g data-name="Group 2623"><g data-name="Group 2622"><path data-name="Path 2353" d="M19.199 19.897h-.887V7.018a1.088 1.088 0 00-1.087-1.087h-1.98a1.088 1.088 0 00-1.087 1.087v12.879h-2.253v-7.044a1.088 1.088 0 00-1.087-1.087H8.836a1.088 1.088 0 00-1.087 1.087v7.044h-2.25v-3.648a1.088 1.088 0 00-1.087-1.087H2.426a1.088 1.088 0 00-1.087 1.087v3.648H.404a.405.405 0 100 .809h18.795a.405.405 0 100-.809zm-14.514 0H2.148v-3.648a.279.279 0 01.278-.278h1.983a.279.279 0 01.278.278v3.648zm6.409 0H8.557v-7.044a.279.279 0 01.278-.278h1.983a.279.279 0 01.278.278zm6.409 0h-2.537V7.018a.279.279 0 01.278-.278h1.983a.279.279 0 01.278.278z" fill="#6e6e6e"/></g></g><g data-name="Group 2625"><g data-name="Group 2624"><path data-name="Path 2354" d="M18.314.425A.4.4 0 0017.89 0h-2.468a.405.405 0 100 .809h1.511l-4 4L11.429 3.3a.4.4 0 00-.572 0l-7.27 7.27a.404.404 0 10.572.572l6.984-6.984 1.508 1.508a.4.4 0 00.572 0l4.284-4.284v1.366a.405.405 0 10.809 0V.445l-.002-.02z" fill="#6e6e6e"/></g></g><g data-name="Group 2627"><g data-name="Group 2626"><circle data-name="Ellipse 17" cx=".404" cy=".404" r=".404" fill="#6e6e6e" transform="translate(2.105 11.862)"/></g></g></svg><svg viewBox="0 0 511 511.9" id="instagram" xmlns="http://www.w3.org/2000/svg"><path d="M510.95 150.5c-1.2-27.2-5.598-45.898-11.9-62.102-6.5-17.199-16.5-32.597-29.6-45.398-12.802-13-28.302-23.102-45.302-29.5-16.296-6.3-34.898-10.7-62.097-11.898C334.648.3 325.949 0 256.449 0s-78.199.3-105.5 1.5c-27.199 1.2-45.898 5.602-62.097 11.898-17.204 6.5-32.602 16.5-45.403 29.602-13 12.8-23.097 28.3-29.5 45.3-6.3 16.302-10.699 34.9-11.898 62.098C.75 177.801.449 186.5.449 256s.301 78.2 1.5 105.5c1.2 27.2 5.602 45.898 11.903 62.102 6.5 17.199 16.597 32.597 29.597 45.398 12.801 13 28.301 23.102 45.301 29.5 16.3 6.3 34.898 10.7 62.102 11.898 27.296 1.204 36 1.5 105.5 1.5s78.199-.296 105.5-1.5c27.199-1.199 45.898-5.597 62.097-11.898a130.934 130.934 0 0074.903-74.898c6.296-16.301 10.699-34.903 11.898-62.102 1.2-27.3 1.5-36 1.5-105.5s-.102-78.2-1.3-105.5zm-46.098 209c-1.102 25-5.301 38.5-8.801 47.5-8.602 22.3-26.301 40-48.602 48.602-9 3.5-22.597 7.699-47.5 8.796-27 1.204-35.097 1.5-103.398 1.5s-76.5-.296-103.403-1.5c-25-1.097-38.5-5.296-47.5-8.796C94.551 451.5 84.45 445 76.25 436.5c-8.5-8.3-15-18.3-19.102-29.398-3.5-9-7.699-22.602-8.796-47.5-1.204-27-1.5-35.102-1.5-103.403s.296-76.5 1.5-103.398c1.097-25 5.296-38.5 8.796-47.5C61.25 94.199 67.75 84.1 76.352 75.898c8.296-8.5 18.296-15 29.398-19.097 9-3.5 22.602-7.7 47.5-8.801 27-1.2 35.102-1.5 103.398-1.5 68.403 0 76.5.3 103.403 1.5 25 1.102 38.5 5.3 47.5 8.8 11.097 4.098 21.199 10.598 29.398 19.098 8.5 8.301 15 18.301 19.102 29.403 3.5 9 7.699 22.597 8.8 47.5 1.2 27 1.5 35.097 1.5 103.398s-.3 76.301-1.5 103.301zm0 0"/><path d="M256.45 124.5c-72.598 0-131.5 58.898-131.5 131.5s58.902 131.5 131.5 131.5c72.6 0 131.5-58.898 131.5-131.5s-58.9-131.5-131.5-131.5zm0 216.8c-47.098 0-85.302-38.198-85.302-85.3s38.204-85.3 85.301-85.3c47.102 0 85.301 38.198 85.301 85.3s-38.2 85.3-85.3 85.3zm0 0M423.852 119.3c0 16.954-13.747 30.7-30.704 30.7-16.953 0-30.699-13.746-30.699-30.7 0-16.956 13.746-30.698 30.7-30.698 16.956 0 30.703 13.742 30.703 30.699zm0 0"/></svg><svg viewBox="0 0 24 24" id="linkedin" xmlns="http://www.w3.org/2000/svg"><path d="M23.994 24v-.001H24v-8.802c0-4.306-.927-7.623-5.961-7.623-2.42 0-4.044 1.328-4.707 2.587h-.07V7.976H8.489v16.023h4.97v-7.934c0-2.089.396-4.109 2.983-4.109 2.549 0 2.587 2.384 2.587 4.243V24zM.396 7.977h4.976V24H.396zM2.882 0C1.291 0 0 1.291 0 2.882s1.291 2.909 2.882 2.909 2.882-1.318 2.882-2.909A2.884 2.884 0 002.882 0z"/></svg><svg data-name="Group 1776" viewBox="0 0 22 19" id="menu" xmlns="http://www.w3.org/2000/svg"><path data-name="Path 2340" d="M0 0h11v3H0z"/><path data-name="Path 2339" d="M0 8h22v3H0z"/><path data-name="Path 2338" d="M0 16h18v3H0z"/></svg><svg data-name="money (1)" viewBox="0 0 21.096 21.357" id="money" xmlns="http://www.w3.org/2000/svg"><g data-name="Group 2614"><g data-name="Group 2613"><circle data-name="Ellipse 16" cx=".417" cy=".417" r=".417" fill="#6e6e6e" transform="translate(2.931 16.451)"/></g></g><g data-name="Group 2616"><g data-name="Group 2615"><path data-name="Path 2348" d="M20.958 13.986a1.621 1.621 0 00-2.135-.827h-.006L16.126 14.4a.417.417 0 00.349.758l2.687-1.239a.785.785 0 01.631 1.437l-5.505 2.43a3.186 3.186 0 01-2.713-.061l-2.016-1a4.019 4.019 0 00-3.421-.078l-.035.015-1.5-3.4 2.087-.921a4.155 4.155 0 013.126-.1l4.053 1.488a.725.725 0 01-.482 1.368l-3.135-1.06a.417.417 0 10-.267.79l3.134 1.06a1.56 1.56 0 001.975-.972 1.569 1.569 0 00-.938-1.969l-4.053-1.489a4.986 4.986 0 00-3.751.12l-2.1.928a1.047 1.047 0 00-1.3-.382l-2.683 1.18a.417.417 0 00-.249.38L0 20.939a.417.417 0 00.605.374l5.249-2.652a1.049 1.049 0 00.576-1.233l.045-.02a3.186 3.186 0 012.713.061l2.016 1a4.019 4.019 0 003.421.077l5.506-2.431a1.621 1.621 0 00.827-2.129zm-15.338 3.8a.213.213 0 01-.113.119l-4.67 2.359.005-1.793 1.208-.593a.417.417 0 00-.368-.749l-.838.411.01-3.58 2.435-1.074a.214.214 0 01.283.11l2.044 4.629a.213.213 0 01.004.161z" fill="#6e6e6e"/></g></g><g data-name="Group 2618"><g data-name="Group 2617"><path data-name="Path 2349" d="M15.541 5.236h-.765a.52.52 0 01-.52-.52v-.445a.52.52 0 01.52-.52h.848a.438.438 0 01.437.437.417.417 0 10.834 0 1.273 1.273 0 00-1.271-1.271h-.048v-.508a.417.417 0 10-.834 0v.509a1.355 1.355 0 00-1.319 1.353v.445a1.355 1.355 0 001.354 1.354h.765a.52.52 0 01.52.52v.445a.52.52 0 01-.52.52h-.848a.438.438 0 01-.437-.437.417.417 0 00-.834 0 1.273 1.273 0 001.271 1.271h.048v.508a.417.417 0 10.834 0v-.509a1.355 1.355 0 001.319-1.353v-.446a1.355 1.355 0 00-1.354-1.353z" fill="#6e6e6e"/></g></g><g data-name="Group 2620"><g data-name="Group 2619"><path data-name="Path 2350" d="M15.159 0a5.665 5.665 0 105.665 5.665A5.671 5.671 0 0015.159 0zm0 10.5a4.831 4.831 0 114.831-4.831 4.836 4.836 0 01-4.831 4.831z" fill="#6e6e6e"/></g></g></svg><svg viewBox="0 0 18.993 18.996" id="pie-chart" xmlns="http://www.w3.org/2000/svg"><g data-name="Group 2628" fill="#6e6e6e"><path data-name="Path 2362" d="M16.42 9.979h-7.4v-7.4a.536.536 0 00-.538-.538 8.479 8.479 0 108.479 8.479.541.541 0 00-.541-.541zM8.479 17.92a7.4 7.4 0 01-.538-14.782v7.382a.536.536 0 00.538.538h7.382a7.41 7.41 0 01-7.382 6.862z"/><path data-name="Path 2363" d="M18.993 8.451A8.478 8.478 0 0010.513 0a.536.536 0 00-.538.538v7.941a.536.536 0 00.538.538h7.941a.536.536 0 00.538-.538zm-7.941-.507V1.1a7.407 7.407 0 016.844 6.844h-6.844z"/></g></svg><svg viewBox="0 0 55.579 55.579" id="services-business" xmlns="http://www.w3.org/2000/svg"><path d="M49.194 22.8A11.639 11.639 0 0032.783 6.384a11.64 11.64 0 00-22.026 5.269c0 .323.022.642.049.959a23.3 23.3 0 0012.5 42.966 23.128 23.128 0 0019.66-10.805c.317.026.636.049.959.049A11.64 11.64 0 0049.194 22.8zM40.339 5.379a9.861 9.861 0 11-9.861 9.861 9.872 9.872 0 019.861-9.861zM28.686 35.857h-5.379a.9.9 0 110-1.793h4.482a2.689 2.689 0 000-5.379h-8.067a.9.9 0 010-1.793h14.4a11.492 11.492 0 00-1.853 6.275 11.647 11.647 0 005.472 9.861h-9.952a.9.9 0 010-1.793h.9a2.689 2.689 0 000-5.379zM22.411 1.793a9.9 9.9 0 019.03 5.939 11.615 11.615 0 00-2.214 11.015 9.739 9.739 0 01-6.816 2.767 9.861 9.861 0 010-19.722zm-19.944 25.1H12.55a.9.9 0 110 1.793H8.068a2.689 2.689 0 000 5.379h8.068a.9.9 0 110 1.793H2.1a21.524 21.524 0 01-.3-3.586 21.8 21.8 0 01.667-5.379zm2.22 16.136h15.931a.9.9 0 010 1.793h-3.586a2.689 2.689 0 000 5.379h10.757a.9.9 0 01.9.9v2.015a21.8 21.8 0 01-5.379.674A21.522 21.522 0 014.687 43.029zm25.791 9.537V51.1a2.693 2.693 0 00-2.689-2.689H17.032a.9.9 0 010-1.793h3.586a2.689 2.689 0 000-5.379H3.757a21.368 21.368 0 01-1.284-3.589h13.663a2.689 2.689 0 000-5.379H8.068a.9.9 0 010-1.793h4.482a2.689 2.689 0 000-5.379H3.013a21.348 21.348 0 018.12-10.565 11.665 11.665 0 0011.278 8.772 11.5 11.5 0 007.551-2.794 11.727 11.727 0 004.2 4.587h-14.44a2.689 2.689 0 000 5.379h8.068a.9.9 0 010 1.793h-4.483a2.689 2.689 0 000 5.379h5.379a.9.9 0 010 1.793h-.9a2.689 2.689 0 000 5.379h12.988a21.318 21.318 0 01-10.295 7.744zm13.446-9.537a9.872 9.872 0 01-9.861-9.861 9.739 9.739 0 012.767-6.816 11.615 11.615 0 0011.015-2.214 9.85 9.85 0 01-3.922 18.891zm0 0" fill="#f86c3b"/><path d="M40.34 19.721a1.8 1.8 0 01-1.793-1.793h-1.793a3.581 3.581 0 002.689 3.458v1.92h1.793v-1.792h2.689v-3.586a3.589 3.589 0 00-3.586-3.586 1.8 1.8 0 01-1.793-1.793v-1.792h1.793a1.8 1.8 0 011.793 1.793h1.793a3.581 3.581 0 00-2.689-3.458V7.171h-1.793v1.793h-2.689v3.586a3.589 3.589 0 003.586 3.586 1.8 1.8 0 011.793 1.793v1.792zm0 0M44.822 14.343h1.793v1.793h-1.793zm0 0M34.064 14.343h1.793v1.793h-1.793zm0 0M17.929 15.24a4.482 4.482 0 108.964 0H25.1a2.69 2.69 0 11-5.379 0v-.9h3.586v-1.79h-3.586v-1.793h3.586V8.965h-3.586v-.9a2.69 2.69 0 115.379 0h1.793a4.482 4.482 0 10-8.964 0v.9h-3.586v1.793h3.586v1.793h-3.586v1.793h3.586zm0 0M49.097 28.364l-1.379-1.149-3.793 4.553-3.793-4.553-1.379 1.149 4.275 5.129v.571h-3.586v1.793h3.586v1.793h-3.586v1.794h3.586v1.793h1.793v-1.793h3.585v-1.793H44.82v-1.793h3.586v-1.793H44.82v-.571zm0 0" fill="#f86c3b"/></svg><svg viewBox="0 0 38.497 38.497" id="services-corporate" xmlns="http://www.w3.org/2000/svg"><path d="M38.364 5.39l-1.92-2.567a.665.665 0 00-1.027 0l-1.925 2.566a.641.641 0 00-.128.385V35.93a2.567 2.567 0 105.133 0V5.775a.641.641 0 00-.133-.385zm-1.15 30.54a1.283 1.283 0 11-2.566 0v-1.283h2.566zm0-2.566h-2.566v-1.283h2.566zm0-2.566h-2.566V7.703h2.566zm0-24.381h-2.566v-.428l1.283-1.711 1.283 1.711zM31.441 0H3.208a.642.642 0 00-.642.642v10.971A3.214 3.214 0 000 14.757v20.532A3.212 3.212 0 003.208 38.5h23.1a.645.645 0 00.454-.188l5.133-5.133a.641.641 0 00.128-.188c.009-.02.014-.039.021-.06a.643.643 0 00.033-.167c0-.013.008-.026.008-.039V.642A.642.642 0 0031.441 0zM19.248 35.289a1.925 1.925 0 01-1.925 1.925H3.208a1.925 1.925 0 01-1.925-1.925V14.757a1.925 1.925 0 011.925-1.925h14.115a1.925 1.925 0 011.925 1.925zM10.907 7.7v3.85H6.416V7.7zM6.416 6.416V3.85h4.491v2.566zM16.682 7.7v3.85h-4.491V7.7zm-4.491-1.284V3.85h4.491v2.566zm5.774 5.2V7.7h4.491v8.983h-1.924v-1.926a3.214 3.214 0 00-2.567-3.144zm0-5.2V3.85h4.491v2.566zm8.983 29.89v-2.942h2.942zm3.85-4.226h-4.492a.642.642 0 00-.642.642v4.491h-5.791a3.175 3.175 0 00.658-1.925V17.965h8.341a.642.642 0 00.642-.642V3.208a.642.642 0 00-.642-.642H5.774a.642.642 0 00-.642.642v8.341H3.85V1.283H30.8zM28.231 7.7v8.983H23.74V7.7zM23.74 6.416V3.85h4.491v2.566z" fill="#f86c3b"/><path d="M17.323 14.757H3.208a.642.642 0 00-.642.642v3.85a.642.642 0 00.642.642h14.115a.642.642 0 00.642-.642v-3.85a.642.642 0 00-.642-.642zm-.642 3.85H3.849v-2.566h12.832zM17.965 26.306h-3.85a.642.642 0 00-.642.642v7.7a.642.642 0 00.642.642h3.85a.642.642 0 00.642-.642v-7.7a.642.642 0 00-.642-.642zm-.642 7.7h-2.566V27.59h2.566zM17.965 21.173h-3.85a.642.642 0 00-.642.642v2.566a.642.642 0 00.642.642h3.85a.642.642 0 00.642-.642v-2.566a.642.642 0 00-.642-.642zm-.642 2.566h-2.566v-1.283h2.566zM12.19 26.306H8.34a.642.642 0 00-.642.642v2.566a.642.642 0 00.642.642h3.85a.642.642 0 00.642-.642v-2.566a.642.642 0 00-.642-.642zm-.642 2.566H8.982v-1.283h2.567zM12.19 21.173H8.34a.642.642 0 00-.642.642v2.566a.642.642 0 00.642.642h3.85a.642.642 0 00.642-.642v-2.566a.642.642 0 00-.642-.642zm-.642 2.566H8.982v-1.283h2.567zM6.416 26.306h-3.85a.642.642 0 00-.642.642v2.566a.642.642 0 00.642.642h3.85a.642.642 0 00.642-.642v-2.566a.642.642 0 00-.642-.642zm-.642 2.566H3.208v-1.283h2.567zM6.416 21.173h-3.85a.642.642 0 00-.642.642v2.566a.642.642 0 00.642.642h3.85a.642.642 0 00.642-.642v-2.566a.642.642 0 00-.642-.642zm-.642 2.566H3.208v-1.283h2.567zM12.19 31.439H8.34a.642.642 0 00-.642.642v2.566a.642.642 0 00.642.642h3.85a.642.642 0 00.642-.642v-2.566a.642.642 0 00-.642-.642zm-.642 2.566H8.982v-1.283h2.567zM6.416 31.439h-3.85a.642.642 0 00-.642.642v2.566a.642.642 0 00.642.642h3.85a.642.642 0 00.642-.642v-2.566a.642.642 0 00-.642-.642zm-.642 2.566H3.208v-1.283h2.567z" fill="#f86c3b"/></svg><svg viewBox="0 0 44.839 43.965" id="services-design" xmlns="http://www.w3.org/2000/svg"><path d="M44.183 37.92h-.8V14.299a3.281 3.281 0 00-3.277-3.277h-8.189a10.114 10.114 0 00-18.763 0H4.733a3.281 3.281 0 00-3.277 3.277V37.92h-.8a.655.655 0 00-.656.654 5.4 5.4 0 005.389 5.389H39.45a5.4 5.4 0 005.389-5.389.655.655 0 00-.656-.654zM2.766 14.299a1.969 1.969 0 011.966-1.966h7.988l-.036.153-.023.095-.035.161-.025.123-.029.151-.025.145-.022.134q-.021.133-.038.268c0 .033-.008.066-.011.1l-.021.192c0 .038-.007.077-.01.115l-.014.182c0 .037 0 .075-.007.112 0 .066-.007.132-.009.2v.2H5.636a.655.655 0 00-.656.656v16.424a.656.656 0 001.311 0v-15.77h6.177c.032.295.079.587.136.877a10.141 10.141 0 00.389 1.412l.007.019q.047.131.1.261l.009.023q.143.363.313.716l.047.1.083.162c.028.054.051.1.077.145l.075.137.1.178.063.108c.058.1.116.19.177.284l.013.019.041.062.039.059a.656.656 0 001.172-.181v-.006c.005-.018.01-.036.013-.055s0-.01 0-.014l.007-.048c.002-.016 0-.013 0-.02v-.043-.03-.033c0-.011 0-.026-.006-.04s0-.016 0-.023-.007-.032-.012-.047 0-.01 0-.015a.714.714 0 00-.021-.06.662.662 0 00-.063-.118l-.059-.09-.008-.012-.016-.025q-.083-.128-.161-.259l-.068-.118-.082-.142a2.238 2.238 0 01-.084-.157l-.055-.1a10.614 10.614 0 01-.092-.185l-.037-.077q-.049-.1-.095-.209l-.024-.054-.1-.232-.012-.031-.1-.255a8.879 8.879 0 01-.509-2.565 8.946 8.946 0 01-.012-.434c0-.113 0-.227.007-.34v-.066q.007-.161.02-.32c0-.025 0-.05.007-.075.009-.1.02-.2.032-.306l.008-.058a8.87 8.87 0 01.041-.278l.016-.1q.025-.141.054-.281l.025-.115a6.657 6.657 0 01.096-.389c.013-.045.033-.12.051-.179l.06-.2c.021-.069.036-.112.055-.168a8.807 8.807 0 0116.686 0l.054.165.061.2.05.178.039.146q.031.121.058.243l.025.116q.029.14.054.281l.016.1c.015.092.029.185.041.277l.008.058c.013.1.023.2.032.306 0 .025 0 .05.007.075q.013.16.02.32v.066c0 .113.007.226.007.34 0 .145 0 .29-.012.434a8.873 8.873 0 01-.508 2.562v.011c-.03.084-.062.167-.094.25l-.014.036-.094.228-.026.058-.093.205-.039.081q-.044.092-.09.182l-.056.107c-.027.052-.055.1-.083.155s-.055.1-.083.144-.044.078-.068.116a6.989 6.989 0 01-.162.259l-.013.021-.066.1v.007l-.071.11-.19.292-.108.168-.149.233-.108.171-.14.221-.108.169-.132.213-.1.168-.128.21-.1.16-.126.21-.091.152-.126.213-.083.14-.131.225-.068.118-.163.285-.028.049-.185.327-.043.078-.132.237-.06.109-.108.2-.062.115-.1.183-.06.113-.093.175-.057.109-.089.17-.053.1-.087.169-.047.093-.049.1v-7.1a.651.651 0 00-.064-.281v-.009l-1.746-3.651-1.528-3.2a.656.656 0 00-1.183 0l-1.528 3.2L18.67 18.2v.009a.651.651 0 00-.064.281v7.106l-.032-.063-.051-.1-.058-.114-.054-.105-.061-.118-.055-.106-.066-.126-.055-.1-.074-.139-.053-.1-.094-.174-.038-.07-.136-.25-.041-.074-.1-.185-.056-.1-.092-.164-.064-.113-.091-.161-.066-.116-.1-.168-.066-.115-.1-.177-.065-.111-.118-.2-.056-.095-.18-.3a.655.655 0 10-1.122.677l.211.352.008.014.189.321.036.061.154.265.045.079.137.24.048.085.126.224.05.089.119.214.047.085.114.209.044.082.11.2.041.076.108.2.035.066.109.21.027.051.114.223.015.028q.255.5.455.921l.013.028.081.171.021.045.067.143.014.063.057.125.025.056.051.113.024.054.046.1.023.051.042.1.021.049.037.087.019.044.034.08.017.041.03.071.016.038.025.062.014.035.02.049.038.094v.01l.02.052v.008l.032.083v4.955a2.24 2.24 0 002.237 2.237h3.392a2.24 2.24 0 002.237-2.237v-4.957l.049-.126c.081-.206.242-.6.5-1.161l.047-.1q.1-.227.229-.488l.093-.193c.066-.137.136-.278.21-.426l.209-.413.1-.191c.5-.962 1.143-2.121 1.954-3.445l.011-.018q.117-.191.239-.386l.037-.06.225-.358.076-.118.2-.313.221-.34.069-.106.078-.118.016-.025c.061-.093.119-.188.177-.283L31.26 20c.035-.059.069-.118.1-.178l.075-.137.076-.145.083-.161.046-.1q.172-.355.315-.721l.007-.017.1-.266v-.011a10.153 10.153 0 00.527-2.3h5.945v3.6a.656.656 0 001.311 0v-4.248a.655.655 0 00-.656-.656h-6.528v-.1-.1c0-.066-.005-.132-.009-.2q0-.056-.007-.113c0-.061-.009-.121-.014-.182 0-.038-.006-.077-.01-.115a6.255 6.255 0 00-.021-.192c0-.033-.007-.066-.011-.1q-.017-.135-.038-.268l-.022-.135c-.007-.045-.016-.1-.025-.144l-.029-.151-.025-.123a6.634 6.634 0 00-.035-.161l-.023-.095-.036-.153h7.756a1.969 1.969 0 011.966 1.966V37.92h-2.219V22.191a.656.656 0 00-1.311 0v15.73H6.291v-3.555a.656.656 0 00-1.311 0v3.555H2.766zm17.147 16.516v-1.562h5.244v1.562zm5.244 1.311v1.606a.927.927 0 01-.926.926h-3.392a.927.927 0 01-.926-.926v-1.606h5.244zm-5.244-4.184v-8.8h5.244v8.8h-5.244zm.387-10.114l1.119-2.341h2.23l1.119 2.341zm6.853 21.4a1.5 1.5 0 01-1.353.846h-6.764a1.5 1.5 0 01-1.352-.847zm12.3 3.422H5.389a4.084 4.084 0 01-4.025-3.422H16.3a2.818 2.818 0 002.736 2.158H25.8a2.818 2.818 0 002.736-2.158h14.939a4.084 4.084 0 01-4.025 3.426z" fill="#f86c3b"/><path d="M22.54 0a.655.655 0 00-.656.656v2.455a.656.656 0 101.311 0V.656A.655.655 0 0022.54 0zM35.179 5.69a.655.655 0 00-.894-.243l-2.128 1.214a.656.656 0 10.651 1.138l2.127-1.217a.656.656 0 00.244-.892zM30.081 1.707a.656.656 0 00-.919.122l-1.49 1.946a.656.656 0 001.041.8l1.49-1.945a.655.655 0 00-.122-.923zM12.682 6.662l-2.123-1.215a.656.656 0 00-.651 1.138l2.127 1.217a.656.656 0 10.651-1.138zM17.166 3.774l-1.49-1.946a.656.656 0 10-1.041.8l1.49 1.946a.656.656 0 001.041-.8z" fill="#f86c3b"/></svg><svg viewBox="0 0 39.388 39.389" id="services-merger" xmlns="http://www.w3.org/2000/svg"><path d="M38.949 18.418l-11.377-3.982V5.908a.657.657 0 00-.162-.432L22.814.224A.656.656 0 0022.32 0H.656A.657.657 0 000 .656V35.45a.657.657 0 00.656.656h12.473v1.313a1.97 1.97 0 001.971 1.97h21.006a1.97 1.97 0 001.969-1.969v-1.97a.656.656 0 00-.656-.656h-.656v-1.97a.657.657 0 00-.656-.656v-5.253a.657.657 0 00.656-.656V24.29h.656a.656.656 0 00.656-.656V22.32h.656a.657.657 0 00.656-.656v-2.626a.656.656 0 00-.438-.62zM22.977 2.4l2.494 2.848h-2.494zM1.313 34.793V1.313h20.351v4.6a.657.657 0 00.656.656h3.939v7.412l-.44-.154a.657.657 0 00-.433 0l-13.129 4.6a.656.656 0 00-.44.62v2.626a.657.657 0 00.656.656h.656v1.313a.657.657 0 00.656.656h.656v1.969a.657.657 0 00.656.656v5.252a.657.657 0 00-.656.656V34.8zM22.32 24.29v1.969a.657.657 0 00.656.656v5.252a.657.657 0 00-.656.656v1.969h-1.313v-1.968a.657.657 0 00-.656-.656v-5.253a.657.657 0 00.656-.656V24.29zm7.878 0v1.969a.657.657 0 00.656.656v5.252a.657.657 0 00-.656.656v1.969h-1.313v-1.968a.657.657 0 00-.656-.656v-5.253a.657.657 0 00.656-.656V24.29zm-5.908 2.625h2.626v5.252H24.29zm-.656 6.565h3.939v1.313h-3.94zm3.938-7.88h-3.939v-1.31h3.939zm-11.16 1.313h2.626v5.252h-2.626zm-.656 6.565h3.939v1.313h-3.94zm3.938-7.878h-3.939v-1.31h3.939zm17.069 11.819a.656.656 0 01-.656.656H15.1a.657.657 0 01-.656-.656v-1.313h22.32zm-5.252-2.626V33.48h3.939v1.313zm3.282-2.626h-2.626v-5.252h2.626zm.657-6.567h-3.939v-1.31h3.939zm1.313-2.626H14.442v-.654h22.32zm1.313-1.969H13.129V19.5L25.6 15.138 38.075 19.5zm0 0" fill="#f86c3b"/><path d="M23.633 18.381a1.969 1.969 0 101.969-1.969 1.97 1.97 0 00-1.969 1.969zm2.626 0a.656.656 0 11-.656-.656.657.657 0 01.656.656zm0 0M9.19 15.099A5.908 5.908 0 103.282 9.19a5.908 5.908 0 005.908 5.909zm-3.174-2.594a1.953 1.953 0 011.866-1.345h2.626a1.953 1.953 0 011.861 1.345 4.574 4.574 0 01-6.353 0zm1.866-3.971a1.313 1.313 0 111.313 1.313 1.313 1.313 0 01-1.313-1.313zm1.313-3.939a4.591 4.591 0 014.056 6.751 3.245 3.245 0 00-1.869-1.364 2.626 2.626 0 10-4.379 0 3.246 3.246 0 00-1.867 1.368 4.591 4.591 0 014.056-6.751zm0 0M19.694 7.878h1.313v1.313h-1.313zm0 0M22.32 7.878h2.626v1.313H22.32zm0 0M19.694 10.504h5.252v1.313h-5.252zm0 0M2.626 16.412h1.969v1.313H2.626zm0 0M5.908 16.412h4.6v1.313h-4.6zm0 0M2.626 19.038h7.878v1.313H2.626zm0 0M2.626 21.664h7.878v1.313H2.626zm0 0M2.626 24.29h1.313v1.313H2.626zm0 0M5.252 24.29h5.252v1.313H5.252zm0 0M2.626 26.915h2.626v1.313H2.626zm0 0M6.565 26.915h3.939v1.313H6.565zm0 0" fill="#f86c3b"/></svg><svg viewBox="0 0 42.098 41.02" id="services-planning" xmlns="http://www.w3.org/2000/svg"><path d="M26.856 10.401a2.058 2.058 0 10-1.642-.821l-3.377 4.72a2.05 2.05 0 00-2.039.449l-2.251-1.277a2.056 2.056 0 10-4.019 0l-2.252 1.277a2.053 2.053 0 10.61 1.072l2.251-1.277a2.05 2.05 0 002.8 0l2.251 1.277a2.056 2.056 0 103.652-.8l3.377-4.72a2.049 2.049 0 00.639.1zm0-2.878a.822.822 0 11-.822.822.823.823 0 01.822-.822zm-16.98 9.552a.822.822 0 11.827-.822.823.823 0 01-.827.822zm5.66-3.214a.822.822 0 11.822-.822.823.823 0 01-.822.822zm5.66 3.214a.822.822 0 11.822-.822.823.823 0 01-.822.822z" fill="#f86c3b"/><path d="M34.434 30.456H1.744a.512.512 0 01-.511-.511V4.503a.512.512 0 01.511-.511h2.907a.617.617 0 000-1.233H1.744A1.746 1.746 0 000 4.503v25.44a1.746 1.746 0 001.744 1.744H6v1.356a1.4 1.4 0 001.4 1.4h6.173l-2.906 5.673a.618.618 0 101.1.562l3.194-6.235h6.818l3.194 6.235a.618.618 0 101.1-.562l-2.906-5.673h6.173a1.4 1.4 0 001.4-1.4v-1.354h3.7a.617.617 0 100-1.233zM29.5 33.043a.169.169 0 01-.169.169H7.4a.169.169 0 01-.17-.169v-1.354H29.5zM7.118 3.993h27.869a.512.512 0 01.511.511v5.863a.617.617 0 001.233 0V4.504a1.746 1.746 0 00-1.744-1.744h-13.2V1.547A1.549 1.549 0 0020.24 0h-3.75a1.549 1.549 0 00-1.547 1.547v1.212H7.118a.617.617 0 100 1.233zm9.059-2.445a.314.314 0 01.314-.314h3.751a.314.314 0 01.314.314v1.211h-4.38V1.547z" fill="#f86c3b"/><path d="M8.626 21.462a.617.617 0 00-.617.617v5.449a.617.617 0 00.617.617h2.5a.617.617 0 00.617-.617v-5.449a.617.617 0 00-.617-.617zm1.885 5.449H9.242v-4.216h1.265zM14.285 18.31a.617.617 0 00-.617.617v8.6a.617.617 0 00.617.617h2.5a.617.617 0 00.617-.617v-8.6a.617.617 0 00-.617-.617zm1.885 8.6h-1.269v-7.367h1.268zM19.945 21.462a.617.617 0 00-.617.617v5.449a.617.617 0 00.617.617h2.5a.617.617 0 00.617-.617v-5.449a.617.617 0 00-.617-.617zm1.885 5.449h-1.268v-4.216h1.268zM25.605 25.1a.617.617 0 00-.617.617v1.81a.617.617 0 00.617.617h2.5a.617.617 0 100-1.233H26.22v-1.194a.617.617 0 00-.615-.617zM41.784 31.036l-3.538-6.128a8.064 8.064 0 10-7.974 2.276 8.1 8.1 0 002.1.278 7.958 7.958 0 001.815-.21l3.537 6.128a2.344 2.344 0 104.06-2.344zm-11.192-5.043a6.827 6.827 0 115.18-.682 6.782 6.782 0 01-5.181.682zm9.718 7.177a1.112 1.112 0 01-1.517-.406l-3.4-5.9a8.1 8.1 0 001.923-1.111l3.4 5.9a1.11 1.11 0 01-.406 1.518z" fill="#f86c3b"/><path d="M37.949 21.135a5.836 5.836 0 00-.292-4.228.617.617 0 10-1.116.526 4.619 4.619 0 11-1.392-1.721.617.617 0 10.744-.983 5.856 5.856 0 102.056 6.406z" fill="#f86c3b"/></svg><svg viewBox="0 0 43.962 43.962" id="services-services" xmlns="http://www.w3.org/2000/svg"><path d="M5.672 34.165v-9.348H4.254v9.348a2.127 2.127 0 101.418 0zm-.709 2.706a.709.709 0 11.709-.709.709.709 0 01-.709.709zM9.218 24.817a2.122 2.122 0 00-.709 4.124v9.348h1.418v-9.348a2.122 2.122 0 00-.709-4.124zm0 2.836a.709.709 0 11.709-.709.709.709 0 01-.709.709zM36.871 34.165v-9.348h-1.418v9.348a2.127 2.127 0 101.418 0zm-.709 2.706a.709.709 0 11.709-.709.709.709 0 01-.709.709zM40.416 24.817a2.122 2.122 0 00-.709 4.124v9.348h1.418v-9.348a2.122 2.122 0 00-.709-4.124zm0 2.836a.709.709 0 11.709-.709.709.709 0 01-.709.709z" fill="#f86c3b"/><path d="M30.49 22.69a2.116 2.116 0 00-.791.156 2.108 2.108 0 00-3.463-1.021 2.062 2.062 0 00-2.127-.423V15.3a7.826 7.826 0 005.58-6.353l3 1.649a6.961 6.961 0 101.441-.827l-4.369-2.4a7.789 7.789 0 00-15.555 0l-4.369 2.4a7.171 7.171 0 101.44.826l3-1.649a7.822 7.822 0 005.578 6.354v13.07a2.127 2.127 0 01-.217.935l-.595-2.974a4.583 4.583 0 00-4.481-3.674 1.8 1.8 0 00-1.5 2.794l.73 1.095a3.163 3.163 0 01.5 1.357l.491 3.923a4.816 4.816 0 00.593 1.806l2.342 4.817v1.255h-1.41v4.254h15.6v-4.25H30.49v-1.182l1.135-1.512a4.99 4.99 0 00.993-2.978v-9.219a2.13 2.13 0 00-2.128-2.127zm6.382-.709a5.636 5.636 0 01-3.4-1.141 4.253 4.253 0 016.8 0 5.636 5.636 0 01-3.401 1.141zM34.744 15.6a2.127 2.127 0 112.127 2.127 2.13 2.13 0 01-2.127-2.127zm2.127-4.963a5.666 5.666 0 014.419 9.221 5.67 5.67 0 00-2.078-1.615 3.545 3.545 0 10-4.681 0 5.677 5.677 0 00-2.078 1.615 5.666 5.666 0 014.419-9.221zM7.091 21.981a5.636 5.636 0 01-3.4-1.141 4.253 4.253 0 016.8 0 5.636 5.636 0 01-3.4 1.141zM4.963 15.6a2.127 2.127 0 112.127 2.127A2.13 2.13 0 014.963 15.6zm7.8.709a5.64 5.64 0 01-1.254 3.548 5.67 5.67 0 00-2.078-1.615 3.545 3.545 0 10-4.681 0 5.677 5.677 0 00-2.078 1.615 5.67 5.67 0 1110.091-3.548zM15.6 7.8a6.382 6.382 0 1111.457 3.852 5.647 5.647 0 00-2.726-2.636 3.545 3.545 0 10-4.7 0 5.647 5.647 0 00-2.731 2.636A6.365 6.365 0 0115.6 7.8zm8.509-1.418a2.127 2.127 0 11-2.127-2.127 2.13 2.13 0 012.126 2.127zm-6.125 6.384a4.235 4.235 0 018 0 6.326 6.326 0 01-2.131 1.134 2.109 2.109 0 00-3.743 0 6.332 6.332 0 01-2.127-1.135zM30.49 42.544H17.727v-1.418H30.49zm.709-8.509a3.565 3.565 0 01-.709 2.127l-1.418 1.891v1.654h-9.927v-1.581l-2.507-5.153a3.5 3.5 0 01-.44-1.318l-.491-3.924a4.58 4.58 0 00-.732-1.968l-.73-1.1a.379.379 0 01.316-.59 3.162 3.162 0 013.091 2.533l.912 4.557h1.729l.606-1.212a3.565 3.565 0 00.374-1.585V14.89a.709.709 0 111.418 0v11.345h1.418V23.4a.709.709 0 111.418 0v2.836h1.418V23.4a.709.709 0 011.418 0v2.836h1.418v-1.419a.709.709 0 111.418 0z" fill="#f86c3b"/></svg><svg viewBox="0 0 24 24" id="telegram" xmlns="http://www.w3.org/2000/svg"><path d="M12 24c6.629 0 12-5.371 12-12S18.629 0 12 0 0 5.371 0 12s5.371 12 12 12zM5.491 11.74l11.57-4.461c.537-.194 1.006.131.832.943l.001-.001-1.97 9.281c-.146.658-.537.818-1.084.508l-3-2.211-1.447 1.394c-.16.16-.295.295-.605.295l.213-3.053 5.56-5.023c.242-.213-.054-.333-.373-.121l-6.871 4.326-2.962-.924c-.643-.204-.657-.643.136-.953z"/></svg><svg viewBox="0 0 24 24" id="vk" xmlns="http://www.w3.org/2000/svg"><path d="M19.915 13.028c-.388-.49-.277-.708 0-1.146.005-.005 3.208-4.431 3.538-5.932l.002-.001c.164-.547 0-.949-.793-.949h-2.624c-.668 0-.976.345-1.141.731 0 0-1.336 3.198-3.226 5.271-.61.599-.892.791-1.225.791-.164 0-.419-.192-.419-.739V5.949c0-.656-.187-.949-.74-.949H9.161c-.419 0-.668.306-.668.591 0 .622.945.765 1.043 2.515v3.797c0 .832-.151.985-.486.985-.892 0-3.057-3.211-4.34-6.886-.259-.713-.512-1.001-1.185-1.001H.9c-.749 0-.9.345-.9.731 0 .682.892 4.073 4.148 8.553C6.318 17.343 9.374 19 12.154 19c1.671 0 1.875-.368 1.875-1.001 0-2.922-.151-3.198.686-3.198.388 0 1.056.192 2.616 1.667C19.114 18.217 19.407 19 20.405 19h2.624c.748 0 1.127-.368.909-1.094-.499-1.527-3.871-4.668-4.023-4.878z"/></svg><svg viewBox="0 0 512 512" id="whatsapp" xmlns="http://www.w3.org/2000/svg"><path d="M256 0C114.637 0 0 114.637 0 256s114.637 256 256 256 256-114.637 256-256S397.363 0 256 0zm5.426 405.05c-.004 0 .004 0 0 0h-.063c-25.644-.01-50.843-6.44-73.222-18.644l-81.223 21.301 21.738-79.375c-13.41-23.227-20.465-49.578-20.453-76.574.035-84.453 68.77-153.16 153.223-153.16 40.984.015 79.457 15.968 108.383 44.918 28.93 28.953 44.851 67.437 44.836 108.363-.036 84.457-68.778 153.172-153.22 153.172zm0 0"/><path d="M261.477 124.469c-70.247 0-127.375 57.105-127.407 127.3-.007 24.055 6.727 47.481 19.473 67.75l3.027 4.817-12.867 46.98 48.2-12.64 4.652 2.758c19.55 11.601 41.965 17.738 64.816 17.746h.05c70.192 0 127.321-57.11 127.352-127.309.012-34.02-13.222-66.004-37.265-90.066-24.043-24.063-56.02-37.325-90.031-37.336zm74.906 182.035c-3.192 8.937-18.485 17.098-25.84 18.2-6.598.983-14.941 1.394-24.113-1.517-5.563-1.765-12.692-4.12-21.828-8.062-38.403-16.578-63.485-55.234-65.399-57.79-1.914-2.554-15.633-20.753-15.633-39.593 0-18.836 9.89-28.097 13.399-31.926 3.511-3.832 7.66-4.789 10.21-4.789 2.551 0 5.106.024 7.337.133 2.351.117 5.507-.894 8.613 6.57 3.191 7.665 10.848 26.5 11.805 28.415.957 1.917 1.593 4.152.32 6.707-1.277 2.554-5.52 8.066-9.57 13.09-1.7 2.105-3.914 3.98-1.68 7.812 2.23 3.828 9.918 16.363 21.297 26.512 14.625 13.039 26.96 17.078 30.789 18.996 3.824 1.914 6.058 1.593 8.293-.957 2.23-2.555 9.57-11.176 12.12-15.008 2.552-3.832 5.106-3.192 8.614-1.914 3.512 1.273 22.332 10.535 26.16 12.449 3.828 1.918 6.38 2.875 7.336 4.473.961 1.597.961 9.258-2.23 18.199zm0 0"/></svg></svg>