<svg xmlns="http://www.w3.org/2000/svg" width="34.792" height="113.081"><g id="Group_2234" data-name="Group 2234" transform="translate(-976.203 -3363.408)"><path id="Path_1717" data-name="Path 1717" d="M2610.471-2482.758v2.664l9.748-8.768v-13.77l-9.748 8.769v2.084a2.416 2.416 0 01-2.548 2.256v4.51a2.415 2.415 0 012.548 2.255z" transform="translate(-1614.323 5888.396)" fill="#ffe6b8"/><path id="Path_1718" data-name="Path 1718" d="M2605.152-2473.3l-9.748-8.769v13.77l9.748 8.769z" transform="translate(-1614.102 5888.035)" fill="#ffe6b8"/><path id="Path_1719" data-name="Path 1719" d="M2620.265-2461.5l-9.748 8.768v13.77l9.748-8.769z" transform="translate(-1614.368 5887.671)" fill="#ffe6b8"/><path id="Path_1720" data-name="Path 1720" d="M2605.152-2452.734l-9.748-8.769v13.77l9.748 8.769z" transform="translate(-1614.102 5887.672)" fill="#f1af40"/><path id="Path_1721" data-name="Path 1721" d="M2610.517-2459.529l9.748-8.768v-13.77l-9.748 8.769z" transform="translate(-1614.368 5888.035)" fill="#f1af40"/><path id="Path_1722" data-name="Path 1722" d="M2595.4-2502.632v13.77l9.748 8.768v-2.664a2.416 2.416 0 012.55-2.256v-4.511a2.416 2.416 0 01-2.551-2.255v-2.084z" transform="translate(-1614.102 5888.396)" fill="#f1af40"/><path id="Path_1716" data-name="Path 1716" d="M2619.907-2525.389v15.923l-9.748 8.768v-24.691h-5.1v24.692l-9.748-8.769v-15.923h-5.1v77.454a2.125 2.125 0 00.732 1.581l14.115 12.7v21.349h5.1v-21.349l14.115-12.7a2.131 2.131 0 00.732-1.581v-77.454zm-14.847 85.3l-9.748-8.769v-13.77l9.748 8.769zm0-20.2l-9.748-8.768v-13.77l9.748 8.768zm14.847 11.435l-9.748 8.768v-13.77l9.748-8.768zm0-20.2l-9.748 8.768v-13.77l9.748-8.768zm0-20.2l-9.748 8.769v-2.666a2.415 2.415 0 00-2.548-2.255 2.415 2.415 0 00-2.551 2.255v2.666l-9.748-8.769v-13.77l9.748 8.769v2.083a2.415 2.415 0 002.55 2.255 2.415 2.415 0 002.549-2.255v-2.084l9.748-8.768z" transform="translate(-1614.011 5888.797)" fill="#004f6f"/></g></svg>