<svg id="growth" xmlns="http://www.w3.org/2000/svg" width="58.753" height="58.754"><g id="Group_2292" data-name="Group 2292" transform="translate(6.855 3.914)"><g id="Group_2291" data-name="Group 2291"><path id="Path_1980" data-name="Path 1980" d="M101 38.528l-1.958-5.875a.979.979 0 00-1.371-.567l-5.875 2.938a.98.98 0 00.875 1.753l3.2-1.6C87.449 50.577 72.091 60.38 56 60.38v1.958c17.017 0 33.233-10.462 41.919-26.84l1.217 3.649a.98.98 0 101.864-.619z" transform="translate(-56.002 -31.98)" fill="#f15a46"/></g></g><g id="Group_2294" data-name="Group 2294"><g id="Group_2293" data-name="Group 2293"><path id="Path_1981" data-name="Path 1981" d="M57.776 0H.981A.979.979 0 000 .979v44.065a.979.979 0 00.979.979h17.282l-3.526 11.463a.979.979 0 001.872.576L18.5 51.9h21.755l1.9 6.163a.979.979 0 101.872-.576L40.5 46.023h17.276a.979.979 0 00.979-.979V.979A.979.979 0 0057.776 0zM19.1 49.94l1.205-3.917h18.142l1.205 3.917zm37.7-5.875H1.96V1.958H56.8z" transform="translate(-.002)" fill="#f15a46"/></g></g><g id="Group_2296" data-name="Group 2296" transform="translate(6.855 36.231)"><g id="Group_2295" data-name="Group 2295"><path id="Path_1982" data-name="Path 1982" d="M60.9 296h-3.919a.979.979 0 00-.979.979v3.921a.979.979 0 00.979.979H60.9a.979.979 0 00.979-.979v-3.917A.979.979 0 0060.9 296zm-.979 3.917H57.96v-1.958h1.958z" transform="translate(-56.002 -296)" fill="#f15a46"/></g></g><g id="Group_2298" data-name="Group 2298" transform="translate(16.647 34.273)"><g id="Group_2297" data-name="Group 2297"><path id="Path_1983" data-name="Path 1983" d="M140.9 280h-3.917a.979.979 0 00-.979.979v5.875a.979.979 0 00.979.979h3.917a.979.979 0 00.979-.979v-5.875a.979.979 0 00-.979-.979zm-.979 5.875h-1.961v-3.917h1.958z" transform="translate(-136.002 -280)" fill="#f15a46"/></g></g><g id="Group_2300" data-name="Group 2300" transform="translate(26.439 30.356)"><g id="Group_2299" data-name="Group 2299"><path id="Path_1984" data-name="Path 1984" d="M220.9 248h-3.917a.979.979 0 00-.979.979v9.792a.979.979 0 00.979.979h3.917a.979.979 0 00.979-.979v-9.792a.979.979 0 00-.979-.979zm-.979 9.792h-1.961v-7.834h1.958z" transform="translate(-216.002 -248)" fill="#f15a46"/></g></g><g id="Group_2302" data-name="Group 2302" transform="translate(36.231 24.48)"><g id="Group_2301" data-name="Group 2301"><path id="Path_1985" data-name="Path 1985" d="M300.9 200h-3.917a.979.979 0 00-.979.979v15.668a.979.979 0 00.979.979h3.917a.979.979 0 00.979-.979v-15.668a.979.979 0 00-.979-.979zm-.979 15.668h-1.961v-13.71h1.958z" transform="translate(-296.002 -200)" fill="#f15a46"/></g></g><g id="Group_2304" data-name="Group 2304" transform="translate(46.023 13.709)"><g id="Group_2303" data-name="Group 2303"><path id="Path_1986" data-name="Path 1986" d="M380.9 112h-3.917a.979.979 0 00-.979.979v26.439a.979.979 0 00.979.979h3.917a.979.979 0 00.979-.979v-26.439a.979.979 0 00-.979-.979zm-.979 26.439h-1.961v-24.48h1.958z" transform="translate(-376.002 -112)" fill="#f15a46"/></g></g></svg>