<svg id="budget" xmlns="http://www.w3.org/2000/svg" width="51.765" height="64.74"><g id="Group_2306" data-name="Group 2306" transform="translate(5.406 5.406)"><g id="Group_2305" data-name="Group 2305"><path id="Path_1998" data-name="Path 1998" d="M99.332 49.544v-3.522c.747.245 1.216.738 1.216 1.195a1.014 1.014 0 102.027 0 3.6 3.6 0 00-3.244-3.285v-.162a1.014 1.014 0 10-2.027 0v.161a3.6 3.6 0 00-3.244 3.285c0 2.259 1.8 3.208 3.244 3.754v3.523c-.747-.245-1.216-.738-1.216-1.195a1.014 1.014 0 10-2.027 0 3.6 3.6 0 003.239 3.286v.161a1.014 1.014 0 002.027 0v-.161a3.6 3.6 0 003.244-3.285c.005-2.259-1.799-3.209-3.239-3.755zm-2.032-.785c-1.011-.5-1.216-.928-1.216-1.543 0-.457.469-.95 1.216-1.195zm2.027 5.734v-2.737c1.011.5 1.216.928 1.216 1.543.006.456-.464.949-1.211 1.194z" transform="translate(-94.061 -42.756)" fill="#f15a46"/></g></g><g id="Group_2308" data-name="Group 2308" transform="translate(16.219 7.569)"><g id="Group_2307" data-name="Group 2307"><path id="Path_1999" data-name="Path 1999" d="M189.238 59.858h-8.65a1.014 1.014 0 100 2.027h8.65a1.014 1.014 0 100-2.027z" transform="translate(-179.574 -59.858)" fill="#f15a46"/></g></g><g id="Group_2310" data-name="Group 2310" transform="translate(16.219 16.219)"><g id="Group_2309" data-name="Group 2309"><path id="Path_2000" data-name="Path 2000" d="M181.669 128.268h-1.081a1.014 1.014 0 100 2.027h1.081a1.014 1.014 0 100-2.027z" transform="translate(-179.574 -128.268)" fill="#f15a46"/></g></g><g id="Group_2312" data-name="Group 2312" transform="translate(5.406 23.787)"><g id="Group_2311" data-name="Group 2311"><path id="Path_2001" data-name="Path 2001" d="M125.351 188.124H95.076a1.014 1.014 0 000 2.027h30.275a1.014 1.014 0 100-2.027z" transform="translate(-94.062 -188.124)" fill="#f15a46"/></g></g><g id="Group_2314" data-name="Group 2314" transform="translate(11.894 30.275)"><g id="Group_2313" data-name="Group 2313"><path id="Path_2002" data-name="Path 2002" d="M149.626 239.431h-3.244a1.014 1.014 0 000 2.027h3.244a1.014 1.014 0 100-2.027z" transform="translate(-145.368 -239.431)" fill="#f15a46"/></g></g><g id="Group_2316" data-name="Group 2316" transform="translate(5.406 30.275)"><g id="Group_2315" data-name="Group 2315"><path id="Path_2003" data-name="Path 2003" d="M97.238 239.431h-2.162a1.014 1.014 0 100 2.027h2.162a1.014 1.014 0 100-2.027z" transform="translate(-94.062 -239.431)" fill="#f15a46"/></g></g><g id="Group_2318" data-name="Group 2318" transform="translate(11.894 34.6)"><g id="Group_2317" data-name="Group 2317"><path id="Path_2004" data-name="Path 2004" d="M149.626 273.636h-3.244a1.014 1.014 0 000 2.027h3.244a1.014 1.014 0 100-2.027z" transform="translate(-145.368 -273.636)" fill="#f15a46"/></g></g><g id="Group_2320" data-name="Group 2320" transform="translate(5.406 34.6)"><g id="Group_2319" data-name="Group 2319"><path id="Path_2005" data-name="Path 2005" d="M97.238 273.636h-2.162a1.014 1.014 0 100 2.027h2.162a1.014 1.014 0 100-2.027z" transform="translate(-94.062 -273.636)" fill="#f15a46"/></g></g><g id="Group_2322" data-name="Group 2322" transform="translate(11.894 38.925)"><g id="Group_2321" data-name="Group 2321"><path id="Path_2006" data-name="Path 2006" d="M149.626 307.841h-3.244a1.014 1.014 0 000 2.027h3.244a1.014 1.014 0 000-2.027z" transform="translate(-145.368 -307.841)" fill="#f15a46"/></g></g><g id="Group_2324" data-name="Group 2324" transform="translate(5.406 38.925)"><g id="Group_2323" data-name="Group 2323"><path id="Path_2007" data-name="Path 2007" d="M97.238 307.841h-2.162a1.014 1.014 0 000 2.027h2.162a1.014 1.014 0 000-2.027z" transform="translate(-94.062 -307.841)" fill="#f15a46"/></g></g><g id="Group_2326" data-name="Group 2326" transform="translate(11.894 43.25)"><g id="Group_2325" data-name="Group 2325"><path id="Path_2008" data-name="Path 2008" d="M149.626 342.045h-3.244a1.014 1.014 0 000 2.027h3.244a1.014 1.014 0 000-2.027z" transform="translate(-145.368 -342.045)" fill="#f15a46"/></g></g><g id="Group_2328" data-name="Group 2328" transform="translate(5.406 43.25)"><g id="Group_2327" data-name="Group 2327"><path id="Path_2009" data-name="Path 2009" d="M97.238 342.045h-2.162a1.014 1.014 0 000 2.027h2.162a1.014 1.014 0 000-2.027z" transform="translate(-94.062 -342.045)" fill="#f15a46"/></g></g><g id="Group_2330" data-name="Group 2330" transform="translate(11.894 47.575)"><g id="Group_2329" data-name="Group 2329"><path id="Path_2010" data-name="Path 2010" d="M149.626 376.25h-3.244a1.014 1.014 0 100 2.027h3.244a1.014 1.014 0 100-2.027z" transform="translate(-145.368 -376.25)" fill="#f15a46"/></g></g><g id="Group_2332" data-name="Group 2332" transform="translate(5.406 47.575)"><g id="Group_2331" data-name="Group 2331"><path id="Path_2011" data-name="Path 2011" d="M97.238 376.25h-2.162a1.014 1.014 0 100 2.027h2.162a1.014 1.014 0 100-2.027z" transform="translate(-94.062 -376.25)" fill="#f15a46"/></g></g><g id="Group_2334" data-name="Group 2334" transform="translate(27.031 16.219)"><g id="Group_2333" data-name="Group 2333"><path id="Path_2012" data-name="Path 2012" d="M267.181 128.268H266.1a1.014 1.014 0 000 2.027h1.081a1.014 1.014 0 100-2.027z" transform="translate(-265.086 -128.268)" fill="#f15a46"/></g></g><g id="Group_2336" data-name="Group 2336" transform="translate(32.438 16.219)"><g id="Group_2335" data-name="Group 2335"><path id="Path_2013" data-name="Path 2013" d="M309.936 128.268h-1.081a1.014 1.014 0 000 2.027h1.081a1.014 1.014 0 100-2.027z" transform="translate(-307.841 -128.268)" fill="#f15a46"/></g></g><g id="Group_2338" data-name="Group 2338" transform="translate(21.625 16.219)"><g id="Group_2337" data-name="Group 2337"><path id="Path_2014" data-name="Path 2014" d="M224.425 128.268h-1.081a1.014 1.014 0 100 2.027h1.081a1.014 1.014 0 000-2.027z" transform="translate(-222.33 -128.268)" fill="#f15a46"/></g></g><g id="Group_2340" data-name="Group 2340" transform="translate(16.219 11.894)"><g id="Group_2339" data-name="Group 2339"><path id="Path_2015" data-name="Path 2015" d="M191.4 94.063h-10.813a1.014 1.014 0 000 2.027H191.4a1.014 1.014 0 000-2.027z" transform="translate(-179.573 -94.063)" fill="#f15a46"/></g></g><g id="Group_2342" data-name="Group 2342"><g id="Group_2341" data-name="Group 2341"><path id="Path_2016" data-name="Path 2016" d="M98.814 28.112h-4.393V11.826a1.013 1.013 0 00-.3-.717L83.312.3a1.013 1.013 0 00-.717-.3H54.482a3.18 3.18 0 00-3.176 3.176v51.9a3.18 3.18 0 003.176 3.176h16.287v2.23a4.262 4.262 0 004.257 4.257h23.788a4.262 4.262 0 004.257-4.257V32.37a4.262 4.262 0 00-4.257-4.258zM83.609 3.461l7.352 7.352h-5.122a2.233 2.233 0 01-2.23-2.23zM70.769 32.37v23.855H54.482a1.15 1.15 0 01-1.149-1.149v-51.9a1.15 1.15 0 011.149-1.149h27.1v6.555a4.262 4.262 0 004.257 4.257h6.555v15.273H75.026a4.262 4.262 0 00-4.257 4.258zm30.275 28.113a2.233 2.233 0 01-2.23 2.23H75.026a2.233 2.233 0 01-2.23-2.23V32.37a2.233 2.233 0 012.23-2.23h23.788a2.233 2.233 0 012.23 2.23z" transform="translate(-51.306)" fill="#f15a46"/></g></g><g id="Group_2344" data-name="Group 2344" transform="translate(23.788 32.437)"><g id="Group_2343" data-name="Group 2343"><path id="Path_2017" data-name="Path 2017" d="M260.99 256.533h-19.463a2.1 2.1 0 00-2.095 2.095v4.325a2.1 2.1 0 002.095 2.095h19.463a2.1 2.1 0 002.095-2.095v-4.325a2.1 2.1 0 00-2.095-2.095zm.068 6.42a.067.067 0 01-.068.068h-19.463a.067.067 0 01-.068-.068v-4.325a.068.068 0 01.068-.068h19.463a.068.068 0 01.068.068v4.325z" transform="translate(-239.432 -256.533)" fill="#f15a46"/></g></g><g id="Group_2346" data-name="Group 2346" transform="translate(23.788 44.331)"><g id="Group_2345" data-name="Group 2345"><path id="Path_2018" data-name="Path 2018" d="M243.689 350.6h-2.162a2.1 2.1 0 00-2.095 2.095v2.162a2.1 2.1 0 002.095 2.095h2.162a2.1 2.1 0 002.095-2.095v-2.162a2.1 2.1 0 00-2.095-2.095zm.068 4.258a.068.068 0 01-.068.068h-2.163a.067.067 0 01-.068-.068v-2.162a.068.068 0 01.068-.068h2.162a.068.068 0 01.068.068v2.162z" transform="translate(-239.432 -350.596)" fill="#f15a46"/></g></g><g id="Group_2348" data-name="Group 2348" transform="translate(41.088 44.331)"><g id="Group_2347" data-name="Group 2347"><path id="Path_2019" data-name="Path 2019" d="M380.508 350.6h-2.162a2.1 2.1 0 00-2.095 2.095v2.162a2.1 2.1 0 002.095 2.095h2.162a2.1 2.1 0 002.095-2.095v-2.162a2.1 2.1 0 00-2.095-2.095zm.068 4.258a.067.067 0 01-.068.068h-2.163a.067.067 0 01-.067-.068v-2.162a.067.067 0 01.067-.068h2.163a.067.067 0 01.068.068z" transform="translate(-376.251 -350.596)" fill="#f15a46"/></g></g><g id="Group_2350" data-name="Group 2350" transform="translate(32.438 44.331)"><g id="Group_2349" data-name="Group 2349"><path id="Path_2020" data-name="Path 2020" d="M312.1 350.6h-2.162a2.1 2.1 0 00-2.095 2.095v2.162a2.1 2.1 0 002.095 2.095h2.162a2.1 2.1 0 002.095-2.095v-2.162a2.1 2.1 0 00-2.095-2.095zm.068 4.258a.067.067 0 01-.068.068h-2.162a.068.068 0 01-.068-.068v-2.162a.068.068 0 01.068-.068h2.162a.067.067 0 01.068.068z" transform="translate(-307.842 -350.596)" fill="#f15a46"/></g></g><g id="Group_2352" data-name="Group 2352" transform="translate(23.788 52.981)"><g id="Group_2351" data-name="Group 2351"><path id="Path_2021" data-name="Path 2021" d="M243.689 419.006h-2.162a2.1 2.1 0 00-2.095 2.095v2.162a2.1 2.1 0 002.095 2.095h2.162a2.1 2.1 0 002.095-2.095V421.1a2.1 2.1 0 00-2.095-2.094zm.068 4.257a.068.068 0 01-.068.068h-2.163a.067.067 0 01-.068-.068V421.1a.067.067 0 01.068-.068h2.162a.067.067 0 01.068.068v2.162z" transform="translate(-239.432 -419.006)" fill="#f15a46"/></g></g><g id="Group_2354" data-name="Group 2354" transform="translate(41.088 52.981)"><g id="Group_2353" data-name="Group 2353"><path id="Path_2022" data-name="Path 2022" d="M380.508 419.006h-2.162a2.1 2.1 0 00-2.095 2.095v2.162a2.1 2.1 0 002.095 2.095h2.162a2.1 2.1 0 002.095-2.095V421.1a2.1 2.1 0 00-2.095-2.094zm.068 4.257a.067.067 0 01-.068.068h-2.163a.067.067 0 01-.067-.068V421.1a.067.067 0 01.067-.068h2.163a.067.067 0 01.068.068z" transform="translate(-376.251 -419.006)" fill="#f15a46"/></g></g><g id="Group_2356" data-name="Group 2356" transform="translate(32.438 52.981)"><g id="Group_2355" data-name="Group 2355"><path id="Path_2023" data-name="Path 2023" d="M312.1 419.006h-2.162a2.1 2.1 0 00-2.095 2.095v2.162a2.1 2.1 0 002.095 2.095h2.162a2.1 2.1 0 002.095-2.095V421.1a2.1 2.1 0 00-2.095-2.094zm.068 4.257a.067.067 0 01-.068.068h-2.162a.068.068 0 01-.068-.068V421.1a.068.068 0 01.068-.068h2.162a.067.067 0 01.068.068z" transform="translate(-307.842 -419.006)" fill="#f15a46"/></g></g></svg>