<svg id="contract_1_" data-name="contract (1)" xmlns="http://www.w3.org/2000/svg" width="53.305" height="53.296"><path id="Path_1987" data-name="Path 1987" d="M223.957 97.993a2.666 2.666 0 00-4.885-.64l-.444.773a.888.888 0 00-1.208.32l-2.256 3.846-.773-.444a.887.887 0 10-.888 1.537l.773.444-7.55 13.084-1.865 4.984-.888 1.661a2.665 2.665 0 00.142 2.878l-2 2.451-.56-1.4a1.777 1.777 0 00-3.171-.249l-.32.542-.3-3.553a1.777 1.777 0 00-3.455-.417l-2.185 6.555a.888.888 0 00.56 1.119.769.769 0 00.275.071.888.888 0 00.844-.6l2.176-6.555.311 3.606a1.777 1.777 0 003.3.764l.329-.542.551 1.395a1.776 1.776 0 003.038.453l2.07-2.62a2.735 2.735 0 00.7.089 2.665 2.665 0 002.318-1.315l.888-1.483 3.384-4.113 7.63-13.244.773.444a.891.891 0 01.329 1.217l-3.553 6.156a.882.882 0 101.5.924l3.553-6.156a2.664 2.664 0 00-.977-3.642l-.773-.444 2.221-3.846a.889.889 0 00-.32-1.208l.444-.773a2.664 2.664 0 00.262-2.069zm-3.349.249a.888.888 0 01.542-.417.933.933 0 01.675.089.889.889 0 01.418.542.933.933 0 01-.089.675l-.444.773-1.546-.888zm-12.107 24.8l-.444-.258-1.315-.764 1.258-3.374 2.8 1.616zm-2.665 2.567a.888.888 0 01-.266-1.164l.444-.772 1.545.888-.444.764a.888.888 0 01-1.279.284zm5.978-6.8l-3.073-1.777 7.106-12.312 3.073 1.777zm7.994-13.848l-3.073-1.777 1.777-3.073 3.073 1.777zm0 0" transform="translate(-170.75 -85.362)" fill="#f15a46"/><path id="Path_1988" data-name="Path 1988" d="M73.855 356.81l-3.144 3.136-1.883-1.883a.889.889 0 10-1.253 1.261l1.883 1.883a1.791 1.791 0 002.514 0l3.135-3.145a.888.888 0 00-1.253-1.253zm0 0" transform="translate(-59.839 -317.006)" fill="#f15a46"/><path id="Path_1989" data-name="Path 1989" d="M32 319.591a7.55 7.55 0 0015.1 0 .888.888 0 10-1.777 0 5.774 5.774 0 11-2.31-4.619.888.888 0 001.066-1.421A7.55 7.55 0 0032 319.591zm0 0" transform="translate(-28.447 -277.398)" fill="#f15a46"/><path id="Path_1990" data-name="Path 1990" d="M95.983 49.816a.888.888 0 000-1.777H72.888a.888.888 0 00-.888.888v3.553a.888.888 0 00.888.888h23.095a.888.888 0 000-1.777H73.777v-1.775zm0 0" transform="translate(-64.006 -42.709)" fill="#f15a46"/><path id="Path_1991" data-name="Path 1991" d="M96.888 112.039a.888.888 0 100 1.777h17.765a.888.888 0 000-1.777zm0 0" transform="translate(-85.341 -99.603)" fill="#f15a46"/><path id="Path_1992" data-name="Path 1992" d="M148.43 168.039h-19.542a.888.888 0 100 1.777h19.542a.888.888 0 100-1.777zm0 0" transform="translate(-113.788 -149.385)" fill="#f15a46"/><path id="Path_1993" data-name="Path 1993" d="M75.542 216.927a.888.888 0 00-.888-.888H56.888a.888.888 0 000 1.777h17.766a.888.888 0 00.888-.889zm0 0" transform="translate(-49.782 -192.056)" fill="#f15a46"/><path id="Path_1994" data-name="Path 1994" d="M255.106 216.039h-6.218a.888.888 0 000 1.777h6.218a.888.888 0 100-1.777zm0 0" transform="translate(-220.464 -192.056)" fill="#f15a46"/><path id="Path_1995" data-name="Path 1995" d="M65.771 257.816a.888.888 0 000-1.777h-8.883a.888.888 0 000 1.777zm0 0" transform="translate(-49.782 -227.614)" fill="#f15a46"/><path id="Path_1996" data-name="Path 1996" d="M168.888 257.816h6.218a.888.888 0 100-1.777h-6.218a.888.888 0 000 1.777zm0 0" transform="translate(-149.346 -227.614)" fill="#f15a46"/><path id="Path_1997" data-name="Path 1997" d="M39.972 40.9a.888.888 0 00-.888.888v8.882a.888.888 0 01-.888.888H2.665a.888.888 0 01-.888-.888V2.7a.888.888 0 01.888-.888H38.2a.888.888 0 01.888.888v16.686a.888.888 0 101.777 0V2.7A2.665 2.665 0 0038.2.039H2.665A2.665 2.665 0 000 2.7v47.97a2.665 2.665 0 002.665 2.665H38.2a2.665 2.665 0 002.66-2.665v-8.882a.888.888 0 00-.888-.888zm0 0" transform="translate(0 -.039)" fill="#f15a46"/></svg>