<svg xmlns="http://www.w3.org/2000/svg" width="956.989" height="102.74"><path id="Path_1317" data-name="Path 1317" d="M54.247 2.73A49.5 49.5 0 0138.494.264a46.947 46.947 0 01-13.425-6.986 46.273 46.273 0 01-10.342-10.754 49.326 49.326 0 01-6.644-13.972 57.009 57.009 0 01-2.329-16.507A56.858 56.858 0 018.151-64.6a53.4 53.4 0 016.781-14.384 48.841 48.841 0 0110.411-11.231A45.682 45.682 0 0138.7-97.476a47.241 47.241 0 0115.548-2.534 48.412 48.412 0 0114.247 2.055 43.1 43.1 0 0112.192 5.89 42.236 42.236 0 019.521 9.178 38.457 38.457 0 016.1 12.055L76.576-65.9A26.653 26.653 0 0067.4-77.2a23.165 23.165 0 00-13.425-4.041 23.984 23.984 0 00-10.755 2.464 25.716 25.716 0 00-8.63 6.918A33.518 33.518 0 0028.9-61.38a40.518 40.518 0 00-2.05 13.151 40.531 40.531 0 001.986 13.014 30.426 30.426 0 005.685 10.205 25.587 25.587 0 008.7 6.644 25.8 25.8 0 0011.027 2.329 24.55 24.55 0 0013.767-3.9 27.064 27.064 0 009.52-11.443l19.726 4.932a40.1 40.1 0 01-9.11 15.48A42.616 42.616 0 0173.288-.832 49.45 49.45 0 0154.247 2.73zm102.466 0a52.955 52.955 0 01-16.3-2.466 48.085 48.085 0 01-13.9-7.055 46.829 46.829 0 01-10.685-10.959 51.8 51.8 0 01-6.928-14.178 54.729 54.729 0 01-2.461-16.572 55.394 55.394 0 012.461-16.647 50.491 50.491 0 016.986-14.247 48.038 48.038 0 0110.753-10.959 49.421 49.421 0 0113.9-7.123 52.086 52.086 0 0116.438-2.534 52.954 52.954 0 0116.3 2.466 48.085 48.085 0 0113.9 7.055 46.829 46.829 0 0110.701 10.959 51.8 51.8 0 016.922 14.178 54.729 54.729 0 012.466 16.575 55.394 55.394 0 01-2.466 16.644 50.491 50.491 0 01-6.986 14.247 48.038 48.038 0 01-10.758 10.958A49.421 49.421 0 01173.152.2a52.086 52.086 0 01-16.439 2.53zm.137-18.767a28.587 28.587 0 0011.712-2.4 26.939 26.939 0 009.315-6.781 31.946 31.946 0 006.1-10.342 37.634 37.634 0 002.192-13.082 37.634 37.634 0 00-2.192-13.082 31.946 31.946 0 00-6.1-10.342 26.939 26.939 0 00-9.315-6.781 28.587 28.587 0 00-11.712-2.4 28.587 28.587 0 00-11.712 2.4 26.939 26.939 0 00-9.315 6.781 31.947 31.947 0 00-6.1 10.342 37.634 37.634 0 00-2.192 13.082 37.634 37.634 0 002.192 13.082 31.947 31.947 0 006.1 10.342 26.939 26.939 0 009.315 6.781 28.587 28.587 0 0011.712 2.4zM221.919-.01v-97.26h17.671l45.069 64.384V-97.27h19.726V-.01h-17.671l-45.069-64.383V-.01zm130.274 2.055a41.108 41.108 0 01-16.1-3.082A34.678 34.678 0 01323.632-9.8a30.693 30.693 0 01-7.055-13.63l19.041-4.11a16.489 16.489 0 006.233 8.767 17.9 17.9 0 0010.616 3.151 18.024 18.024 0 007.74-1.575 12.523 12.523 0 005.205-4.315 11 11 0 001.849-6.3 9.027 9.027 0 00-3.425-7.329q-3.425-2.808-11.1-4.589l-4.384-.959q-15.069-3.288-22.192-10.616a24.686 24.686 0 01-7.123-17.877 27.735 27.735 0 012.6-12.055 29.337 29.337 0 017.192-9.521 33.575 33.575 0 0110.753-6.3 38.3 38.3 0 0113.288-2.26 37.633 37.633 0 0115.069 3.014 31.833 31.833 0 0111.781 8.63 29.673 29.673 0 016.438 13.288L367.4-70.284a15.575 15.575 0 00-5.685-8.425 15.51 15.51 0 00-9.384-2.945 14.943 14.943 0 00-6.644 1.438 11.668 11.668 0 00-4.658 3.973 9.925 9.925 0 00-1.712 5.685 8.336 8.336 0 003.7 7.329q3.7 2.534 10.959 4.178l4.384.959q14.932 3.288 22.123 10.411t7.192 18.219A29.886 29.886 0 01385-16.722a30.242 30.242 0 01-7.466 10A33.446 33.446 0 01366.3-.215a42.335 42.335 0 01-14.107 2.26zm88.9.685a47.851 47.851 0 01-17.26-2.945 36.717 36.717 0 01-13.151-8.493A37.753 37.753 0 01402.262-22a48.408 48.408 0 01-2.945-17.329V-97.27h20.411v56.986a29.729 29.729 0 002.6 12.877 19.2 19.2 0 007.466 8.425 21.651 21.651 0 0011.438 2.945 21.293 21.293 0 0011.37-2.945 19.776 19.776 0 007.466-8.425 29.078 29.078 0 002.671-12.877V-97.27h20.411v57.945A48.408 48.408 0 01480.208-22a37.275 37.275 0 01-8.493 13.288 37.276 37.276 0 01-13.288 8.497A48.407 48.407 0 01441.1 2.73zm58.498-2.74v-97.26H520v79.178h39.726V-.01zm104.521 2.055a41.109 41.109 0 01-16.1-3.082A34.68 34.68 0 01575.55-9.8a30.694 30.694 0 01-7.055-13.63l19.041-4.11a16.489 16.489 0 006.233 8.767 17.9 17.9 0 0010.616 3.151 18.024 18.024 0 007.74-1.575 12.523 12.523 0 005.205-4.315 11 11 0 001.849-6.3 9.027 9.027 0 00-3.425-7.329q-3.425-2.808-11.1-4.589l-4.384-.959q-15.068-3.288-22.192-10.616a24.685 24.685 0 01-7.123-17.877 27.735 27.735 0 012.6-12.055 29.338 29.338 0 017.192-9.521 33.574 33.574 0 0110.753-6.3 38.3 38.3 0 0113.288-2.26 37.632 37.632 0 0115.069 3.014 31.832 31.832 0 0111.781 8.63 29.672 29.672 0 016.438 13.288l-18.767 4.11a15.575 15.575 0 00-5.685-8.425 15.51 15.51 0 00-9.384-2.945 14.942 14.942 0 00-6.644 1.438 11.668 11.668 0 00-4.658 3.973 9.925 9.925 0 00-1.712 5.685 8.336 8.336 0 003.7 7.329q3.7 2.534 10.959 4.178l4.384.959Q625.208-54.8 632.4-47.681t7.192 18.219a29.885 29.885 0 01-2.671 12.74 30.24 30.24 0 01-7.466 10 33.446 33.446 0 01-11.233 6.507 42.335 42.335 0 01-14.11 2.26zM675.071-.01v-79.178h-27.4V-97.27h75.206v18.082h-27.4V-.01zm43.562 0l38.63-97.261h21.644L817.674-.01h-20.959l-7.945-21.37h-42.055L738.77-.01zm34.521-38.63h29.178l-14.658-38.767zM828.77-.01v-97.26h59.589v17.808h-39.726v23.973h35.343v17.671h-35.343V-.01zm74.384 0v-97.26h59.589v17.808h-39.726v23.973h35.343v17.671h-35.343V-.01z" transform="translate(-5.754 100.01)" fill="#034e6f" opacity=".09"/></svg>