<svg xmlns="http://www.w3.org/2000/svg" width="39.967" height="97.941"><g id="Group_2240" data-name="Group 2240" transform="translate(-1315.955 -3357.059)"><path id="Path_1723" data-name="Path 1723" d="M2821.746-2469.178l-19.406-17.452v-26.4l19.406 17.453z" transform="translate(-1480.995 5879.155)" fill="#ff0038"/><path id="Path_1724" data-name="Path 1724" d="M2831.992-2522.521l-19.406 17.453v26.4l19.406-17.452z" transform="translate(-1481.454 5879.579)" fill="#f1af40"/><path id="Path_1725" data-name="Path 1725" d="M2821.749-2477.034v17.084h-10.359l-9.049-8.139v-26.4z" transform="translate(-1480.995 5878.322)" fill="#ff0038"/><path id="Path_1726" data-name="Path 1726" d="M2831.992-2503.975l-19.406 17.452v26.4l19.406-17.452z" transform="translate(-1481.454 5878.748)" fill="#f1af40"/><path id="Path_1727" data-name="Path 1727" d="M2826.1-2452.7l-.848 6.536h-16.107l-.857-6.536z" transform="translate(-1481.262 5876.448)" fill="#004f6f"/><path id="Path_1728" data-name="Path 1728" d="M2824.751-2441.353l-2.652 20.415h-9.677l-2.66-20.415z" transform="translate(-1481.328 5875.938)" fill="#004f6f"/><path id="Path_1729" data-name="Path 1729" d="M2836.664-2475.727v16.373a.235.235 0 01-.242.234h-39.473a.242.242 0 01-.251-.234v-16.373a.25.25 0 01.251-.242h39.473a.242.242 0 01.242.242z" transform="translate(-1480.742 5877.491)" fill="#004f6f"/></g></svg>