<svg xmlns="http://www.w3.org/2000/svg" viewBox="0 0 22.539 22.543"><path d="M21.218 15.5a1.322 1.322 0 001.321-1.321v-3.17a1.322 1.322 0 00-1.321-1.321h-4.807a3.879 3.879 0 00.333-.861 2.979 2.979 0 00.269.216 4.606 4.606 0 004.025.341.44.44 0 00.3-.3A4.607 4.607 0 0021 5.054a2.971 2.971 0 00-.216-.268 4.209 4.209 0 001.585-.808.44.44 0 00.111-.559 3.564 3.564 0 00-2.467-1.949 3.121 3.121 0 00-.53-.051 5.274 5.274 0 00.12-.662.44.44 0 00-.313-.478c-1.589-.456-2.8-.346-3.609.329a2.8 2.8 0 00-.911 1.715 2.641 2.641 0 00-2.881.118l-.041.029a2.573 2.573 0 00-.239-1.23A2.147 2.147 0 008.756.2a1.808 1.808 0 00-1.028 1.859 2.42 2.42 0 00-2.733 3.813 2.423 2.423 0 00-1.038 3.816H1.321A1.322 1.322 0 000 11.009v3.17A1.322 1.322 0 001.321 15.5h1.056v1.233H1.321A1.322 1.322 0 000 18.052v3.17a1.322 1.322 0 001.321 1.321h19.9a1.322 1.322 0 001.321-1.321v-3.17a1.322 1.322 0 00-1.321-1.321h-1.059V15.5zM9.649 5.576a1.54 1.54 0 011.09 2.624A1.541 1.541 0 119.65 5.57zM8.625 9.408a1.529 1.529 0 01.885.28H7.74a1.529 1.529 0 01.885-.28zm2.736-.581a1.541 1.541 0 012.613.86h-3.047a1.522 1.522 0 01.434-.859zm1.745-1.242q.147-.028.27-.06c0 .05 0 .1.006.155a2.379 2.379 0 00-.275-.094zM16.25 1.28a2.751 2.751 0 012.422-.253 1.646 1.646 0 01-.211.611.44.44 0 00.449.732 2.32 2.32 0 012.6 1.143 2.557 2.557 0 01-1.98.449.44.44 0 00-.243.846c.215.065 2.038.71 1.273 3.791-3.081.765-3.727-1.058-3.791-1.273a.44.44 0 00-.846.243 2.556 2.556 0 01-.449 1.98 2.32 2.32 0 01-1.144-2.6.44.44 0 00-.73-.449 1.645 1.645 0 01-.611.211 2.752 2.752 0 01.253-2.422 2.281 2.281 0 011.734-.653l.339.339-.124 1.967a.44.44 0 00.412.467h.028A.44.44 0 0016.068 6l.075-1.193L18.432 7.1a.44.44 0 10.623-.623l-2.29-2.293 1.193-.075a.44.44 0 00-.058-.879l-1.967.124-.333-.339a2.28 2.28 0 01.65-1.735zM12.4 3.159a1.764 1.764 0 011.5-.262 2.637 2.637 0 00-1.326.824c-.675.806-.785 2.02-.329 3.609a.44.44 0 00.091.168 2.406 2.406 0 00-.3.034 2.419 2.419 0 00-1.878-2.785zM9.128 1a1.268 1.268 0 011.683.612 1.688 1.688 0 01-.161 1.706L9.268 4.3a2.434 2.434 0 00-.148-.819 1.524 1.524 0 00.8-.136.441.441 0 00-.372-.8.653.653 0 01-.867-.315A.926.926 0 019.128 1zm-3.37 2.225a1.541 1.541 0 110 2.179 1.536 1.536 0 010-2.179zM4.735 9.237a1.541 1.541 0 111.092.451h-.006a1.531 1.531 0 01-1.086-.451zM.88 14.178v-3.17a.441.441 0 01.44-.44H15.5a.433.433 0 00.093.011.439.439 0 00.1-.011h5.531a.441.441 0 01.44.44v3.17a.441.441 0 01-.44.44H13.1a.44.44 0 000 .88h4.065v1.233H5.371V15.5h3.888a.44.44 0 000-.88H1.321a.441.441 0 01-.441-.442zM3.258 15.5H4.49v1.233H3.258zm18.4 2.553v3.169a.441.441 0 01-.44.44H1.321a.441.441 0 01-.44-.44v-3.17a.441.441 0 01.44-.44h19.9a.441.441 0 01.437.44zm-2.377-1.321h-1.232V15.5h1.232zm0 0" fill="#003242"/><path d="M18.665 13.034a.44.44 0 10-.311-.129.444.444 0 00.311.129zm-14.978 0a.44.44 0 10-.311-.128.443.443 0 00.311.128zm14.978 6.252a.44.44 0 10.311.128.444.444 0 00-.311-.128zm-14.978 0a.44.44 0 10.311.128.442.442 0 00-.311-.128zm7.585-3.787a.44.44 0 10-.311-.129.443.443 0 00.311.129zm0 0" fill="#003242"/></svg>