<svg xmlns="http://www.w3.org/2000/svg" xmlns:xlink="http://www.w3.org/1999/xlink" width="264.377" height="262.807" viewBox="0 0 264.377 262.807">
  <defs>
    <clipPath id="clip-path">
      <path id="Path_1" data-name="Path 1" d="M0,0H264.377V262.807H0Z" fill="none"/>
    </clipPath>
  </defs>
  <g id="Repeat_Grid_9" data-name="Repeat Grid 9" clip-path="url(#clip-path)">
    <g id="Group_15940" data-name="Group 15940">
      <g id="undraw_ideation_2a64">
        <path id="Path_11203" data-name="Path 11203" d="M264.059,126.813l-5.328,22.946-4.325,18.615-3.447,14.847-4.322,18.615L232.513,262.65,57.5,185.212l-12.865-5.693-16.284-7.206-12.871-5.693L0,159.769l8.775-12.226,7.3-10.163L25.3,124.519,32.6,114.359,114.689,0l86.962,73.83,15.486,13.147L229.485,97.46l15.488,13.147Z" fill="#f2f2f2"/>
        <path id="Path_11204" data-name="Path 11204" d="M555.8,484.662l9.041,14.994,9.04,14.994H537.723l9.04-14.994Z" transform="translate(-399.815 -328.949)" fill="#057535"/>
        <path id="Rectangle_37" data-name="Rectangle 37" d="M0,0H37.915V36.3H0Z" transform="translate(83.328 126.263)" fill="#057535"/>
        <ellipse id="Ellipse_7" data-name="Ellipse 7" cx="24.505" cy="23.053" rx="24.505" ry="23.053" transform="translate(112.876 56.785)" fill="#057535"/>
        <path id="Path_11205" data-name="Path 11205" d="M647.5,402.411a4.03,4.03,0,1,1,4.026,3.855" transform="translate(-493.553 -283.68)" fill="#3f3d56"/>
        <path id="Path_11206" data-name="Path 11206" d="M532.448,594.451l-5.927-6.084,6.354-5.675,5.927,6.084Zm-4.982-6.051,5.015,5.148,5.377-4.8-5.015-5.148Z" transform="translate(-404.864 -408.656)" fill="#3f3d56"/>
        <path id="Path_11207" data-name="Path 11207" d="M388.752,329.669l-4.824-4.952L389.1,320.1l4.824,4.952Zm-4.055-4.926,4.082,4.19,4.376-3.908-4.082-4.19Z" transform="translate(-299.51 -230.429)" fill="#3f3d56"/>
        <path id="Rectangle_38" data-name="Rectangle 38" d="M0,0H183.574V.643H0Z" transform="translate(80.804 262.165)" fill="#3f3d56"/>
        <path id="Path_11208" data-name="Path 11208" d="M578.3,281.173c0-17.744,15.022-32.128,33.553-32.128S645.4,263.429,645.4,281.173,630.378,313.3,611.848,313.3" transform="translate(-436.538 -175.151)" fill="#3f3d56"/>
        <path id="Rectangle_39" data-name="Rectangle 39" d="M0,0,19.323.332,19.334,1,.011.666Z" transform="matrix(0.433, -0.901, 0.901, 0.433, 118.378, 116.165)" fill="#3f3d56"/>
        <path id="Rectangle_40" data-name="Rectangle 40" d="M0,0,.649.012l.772,42.994-.649-.012Z" transform="translate(119.997 139.717) rotate(-61.578)" fill="#3f3d56"/>
        <path id="Path_11209" data-name="Path 11209" d="M436.239,448.907H387.25V402h48.989Zm-48.316-.643h47.643V402.643H387.921Z" transform="translate(-305.178 -286.018)" fill="#3f3d56"/>
        <path id="Path_11210" data-name="Path 11210" d="M649.41,531.233H598.741l25.335-42.019Zm-49.509-.643H648.25L624.077,490.5Z" transform="translate(-463.442 -345.212)" fill="#3f3d56"/>
        <g id="Group_92" data-name="Group 92" transform="translate(11.675 105.983)">
          <path id="Rectangle_41" data-name="Rectangle 41" d="M0,0H.629V107.707H0Z" transform="translate(27.555 46.076)" fill="#3f3d56"/>
          <ellipse id="Ellipse_9" data-name="Ellipse 9" cx="12.266" cy="26.802" rx="12.266" ry="26.802" transform="translate(15.725 90.948)" fill="#3f3d56"/>
          <ellipse id="Ellipse_10" data-name="Ellipse 10" cx="12.266" cy="26.802" rx="12.266" ry="26.802" transform="translate(15.725 29.814)" fill="#3f3d56"/>
          <path id="Path_11218" data-name="Path 11218" d="M1053.856,429.11l-.6-.173c.038-.124,3.736-12.256-2.336-20.067-3.43-4.412-9.314-6.649-17.491-6.649v-.6c8.388,0,14.445,2.319,18,6.894,6.259,8.057,2.471,20.474,2.432,20.6Z" transform="translate(-1025.564 -394.393)" fill="#3f3d56"/>
          <ellipse id="Ellipse_11" data-name="Ellipse 11" cx="7.863" cy="7.529" rx="7.863" ry="7.529" transform="translate(0 0)" fill="#f2f2f2"/>
        </g>
      </g>
    </g>
  </g>
</svg>
