<svg xmlns="http://www.w3.org/2000/svg" xmlns:xlink="http://www.w3.org/1999/xlink"><symbol id="email" viewBox="0 0 100.354 100.352"><path d="M93.09 76.224c.047-.145.079-.298.079-.459V22.638c0-.162-.032-.316-.08-.462-.007-.02-.011-.04-.019-.06a1.492 1.492 0 00-.276-.46c-.008-.009-.009-.02-.017-.029-.005-.005-.011-.007-.016-.012a1.504 1.504 0 00-.442-.323c-.013-.006-.023-.014-.036-.02a1.48 1.48 0 00-.511-.123c-.018-.001-.035-.005-.053-.005-.017-.001-.032-.005-.049-.005H8.465c-.017 0-.033.004-.05.005l-.048.005a1.497 1.497 0 00-.518.125c-.01.004-.018.011-.028.015-.17.081-.321.191-.448.327-.005.005-.011.006-.016.011-.008.008-.009.019-.017.028a1.5 1.5 0 00-.277.461c-.008.02-.012.04-.019.061-.048.146-.08.3-.08.462v53.128c0 .164.033.32.082.468l.018.059a1.5 1.5 0 00.28.462c.007.008.009.018.016.026.006.007.014.011.021.018.049.051.103.096.159.14.025.019.047.042.073.06.066.046.137.083.21.117.018.008.034.021.052.028.181.077.38.121.589.121h83.204c.209 0 .408-.043.589-.121.028-.012.054-.03.081-.044.062-.031.124-.063.181-.102.03-.021.057-.048.086-.071.051-.041.101-.082.145-.129l.025-.022c.008-.009.01-.021.018-.03a1.5 1.5 0 00.275-.458c.01-.022.015-.043.022-.065zM9.965 26.04l25.247 23.061L9.965 72.346V26.04zm51.746 21.931c-.104.068-.214.125-.301.221-.033.036-.044.083-.073.121l-11.27 10.294-37.736-34.469h75.472L61.711 47.971zm-24.275 3.161l11.619 10.613a1.496 1.496 0 002.023 0l11.475-10.481 25.243 23.002H12.309l25.127-23.134zm27.342-1.9L90.169 26.04v46.33L64.778 49.232z"/></symbol><symbol id="facebook" viewBox="0 0 512 512"><path d="M384 176h-96v-64c0-17.664 14.336-32 32-32h32V0h-64c-53.024 0-96 42.976-96 96v80h-64v80h64v256h96V256h64l32-80z"/></symbol><symbol id="icon-arrow-left" viewBox="0 0 32 32"><path clip-rule="evenodd" d="M11.262 16.714l9.002 8.999a1.014 1.014 0 001.431 0 1.009 1.009 0 000-1.428L13.407 16l8.287-8.285a1.01 1.01 0 000-1.429 1.014 1.014 0 00-1.431 0l-9.002 8.999a1.02 1.02 0 00.001 1.429z" fill-rule="evenodd" id="Chevron_Right"/></symbol><symbol id="icon-arrow-right" viewBox="0 0 32 32"><path clip-rule="evenodd" d="M21.698 15.286l-9.002-8.999a1.014 1.014 0 00-1.431 0 1.009 1.009 0 000 1.428L19.553 16l-8.287 8.285a1.01 1.01 0 000 1.429 1.014 1.014 0 001.431 0l9.002-8.999a1.02 1.02 0 00-.001-1.429z" fill-rule="evenodd" id="Chevron_Right"/></symbol><symbol id="icon-close" viewBox="0 0 60.963 60.842"><path d="M59.595 52.861L37.094 30.359 59.473 7.98a4.676 4.676 0 00-6.611-6.611L30.483 23.748 8.105 1.369A4.676 4.676 0 001.494 7.98l22.378 22.379L1.369 52.861a4.674 4.674 0 003.306 7.98 4.66 4.66 0 003.306-1.369L30.483 36.97l22.501 22.502c.913.913 2.109 1.369 3.306 1.369s2.393-.456 3.306-1.369a4.677 4.677 0 00-.001-6.611z"/></symbol><symbol id="icon-reasons-1"><path id="park" d="M123.23 150.572h-13.121V132.8a10.315 10.315 0 008.657-9.959 68.266 68.266 0 00-2.613-14.408c-2.315-8.166-4.88-11.969-8.074-11.969s-5.759 3.8-8.074 11.969a68.265 68.265 0 00-2.613 14.408 10.315 10.315 0 008.657 9.959v17.771H92.794v-50.382a6.368 6.368 0 004.329-6.024v-8.657a2.029 2.029 0 00-2.029-2.029h-2.3v-2.435h4.464a2.029 2.029 0 000-4.058H84.272a2.029 2.029 0 000 4.058h4.464v2.435h-2.3a2.029 2.029 0 00-2.029 2.029v8.657a6.368 6.368 0 004.329 6.024v50.383h-7.094l-1.379-6.763h1.844a2.029 2.029 0 000-4.058h-4.463v-4.6h2.3a2.029 2.029 0 100-4.058h-2.3v-2.435h2.3a2.029 2.029 0 000-4.058H40.986a2.029 2.029 0 000 4.058h2.3v2.435h-2.3a2.029 2.029 0 100 4.058h2.3v4.6h-4.464a2.029 2.029 0 100 4.058h1.844l-1.379 6.763h-15.75V130.7a17.2 17.2 0 0015.15-17.055c0-15.242-14.712-47.119-15.339-48.469a2.029 2.029 0 00-3.681 0C19.041 66.524 4.329 98.4 4.329 113.644a17.2 17.2 0 0015.15 17.056v19.873H2.029a2.029 2.029 0 000 4.058h121.2a2.029 2.029 0 000-4.058zm-21.778-27.73a64.246 64.246 0 012.287-12.683c2.17-7.941 3.994-9.4 4.342-9.611.348.213 2.171 1.67 4.342 9.611a64.228 64.228 0 012.287 12.683 6.176 6.176 0 01-4.6 5.794v-4.171a2.029 2.029 0 10-4.058 0v4.171a6.176 6.176 0 01-4.6-5.794zM88.466 87.537h4.6v6.628a2.3 2.3 0 11-4.6 0zM8.387 113.644c0-11.262 9.122-33.447 13.121-42.631 4 9.184 13.121 31.369 13.121 42.631a13.141 13.141 0 01-11.092 12.964v-12.124l5.9-5.9a2.029 2.029 0 00-2.87-2.869l-3.029 3.029v-3.759a2.029 2.029 0 00-4.058 0v10.251l-3.029-3.029a2.029 2.029 0 10-2.87 2.869l5.9 5.9v5.63a13.141 13.141 0 01-11.094-12.962zm38.957 15.015h26.242v2.435H47.344zm0 6.493h26.242v4.6H47.344zm-2.536 8.657h31.314l1.378 6.763H43.429z" transform="translate(0 -64)"/></symbol><symbol id="icon-reasons-2"><g id="Group_15845" data-name="Group 15845"><g id="Group_15844" data-name="Group 15844"><path id="Path_11642" data-name="Path 11642" d="M82.567 7.864h-8.519v-2.5a5.362 5.362 0 00-10.723 0v2.5H33.3v-2.5a5.362 5.362 0 00-10.723 0V7.93a1.783 1.783 0 00-.476-.066h-7.12A8.946 8.946 0 006.045 16.8v30.441a1.787 1.787 0 003.574 0v-20.97h64.429a1.787 1.787 0 100-3.574H9.619V16.8a5.368 5.368 0 015.361-5.361h7.12a1.791 1.791 0 00.476-.066v2.3a5.362 5.362 0 0010.723 0v-2.235h30.026v2.234a5.362 5.362 0 0010.723 0v-2.234h8.519a5.368 5.368 0 015.362 5.362v67.911a3.218 3.218 0 01-6.436 0v-4.624a1.787 1.787 0 00-1.788-1.787H58.917a1.787 1.787 0 100 3.574h19v2.836a6.751 6.751 0 00.812 3.218H6.791a3.221 3.221 0 01-3.217-3.217v-2.836h40a1.787 1.787 0 100-3.574H25.719a14.655 14.655 0 10-19.1 0H1.787A1.787 1.787 0 000 80.087v4.624A6.8 6.8 0 006.791 91.5h77.92a6.8 6.8 0 006.789-6.789V16.8a8.946 8.946 0 00-8.933-8.936zm-52.841 5.808a1.787 1.787 0 11-3.574 0V5.361a1.787 1.787 0 113.574 0zm40.747 0a1.787 1.787 0 01-3.574 0V5.361a1.787 1.787 0 013.574 0zM5.09 67.2a11.08 11.08 0 1111.08 11.08A11.093 11.093 0 015.09 67.2z"/></g></g><g id="Group_15847" data-name="Group 15847" transform="translate(80.644 22.697)"><g id="Group_15846" data-name="Group 15846"><path id="Path_11643" data-name="Path 11643" d="M454.29 127.524a1.786 1.786 0 10.524 1.264 1.8 1.8 0 00-.524-1.264z" transform="translate(-451.24 -127)"/></g></g><g id="Group_15849" data-name="Group 15849" transform="translate(50.323 78.301)"><g id="Group_15848" data-name="Group 15848"><path id="Path_11644" data-name="Path 11644" d="M284.63 438.652a1.788 1.788 0 10.524 1.264 1.8 1.8 0 00-.524-1.264z" transform="translate(-281.58 -438.13)"/></g></g><g id="Group_15851" data-name="Group 15851" transform="translate(33.643 54.33)"><g id="Group_15850" data-name="Group 15850"><path id="Path_11645" data-name="Path 11645" d="M195.036 304a6.791 6.791 0 106.791 6.791 6.8 6.8 0 00-6.791-6.791zm0 10.008a3.217 3.217 0 113.217-3.217 3.221 3.221 0 01-3.217 3.217z" transform="translate(-188.245 -304)"/></g></g><g id="Group_15853" data-name="Group 15853" transform="translate(50.323 54.33)"><g id="Group_15852" data-name="Group 15852"><path id="Path_11646" data-name="Path 11646" d="M288.369 304a6.791 6.791 0 106.791 6.791 6.8 6.8 0 00-6.791-6.791zm0 10.008a3.217 3.217 0 113.217-3.217 3.221 3.221 0 01-3.217 3.217z" transform="translate(-281.578 -304)"/></g></g><g id="Group_15855" data-name="Group 15855" transform="translate(67.003 54.33)"><g id="Group_15854" data-name="Group 15854"><path id="Path_11647" data-name="Path 11647" d="M381.7 304a6.791 6.791 0 106.791 6.791A6.8 6.8 0 00381.7 304zm0 10.008a3.217 3.217 0 113.217-3.217 3.221 3.221 0 01-3.217 3.217z" transform="translate(-374.912 -304)"/></g></g><g id="Group_15857" data-name="Group 15857" transform="translate(16.962 35.743)"><g id="Group_15856" data-name="Group 15856"><path id="Path_11648" data-name="Path 11648" d="M101.7 200a6.791 6.791 0 106.791 6.791A6.8 6.8 0 00101.7 200zm0 10.008a3.217 3.217 0 113.217-3.217 3.221 3.221 0 01-3.217 3.217z" transform="translate(-94.912 -200)"/></g></g><g id="Group_15859" data-name="Group 15859" transform="translate(50.323 35.743)"><g id="Group_15858" data-name="Group 15858"><path id="Path_11649" data-name="Path 11649" d="M288.369 200a6.791 6.791 0 106.791 6.791 6.8 6.8 0 00-6.791-6.791zm0 10.008a3.217 3.217 0 113.217-3.217 3.221 3.221 0 01-3.217 3.217z" transform="translate(-281.578 -200)"/></g></g><g id="Group_15861" data-name="Group 15861" transform="translate(67.003 35.743)"><g id="Group_15860" data-name="Group 15860"><path id="Path_11650" data-name="Path 11650" d="M381.7 200a6.791 6.791 0 106.791 6.791A6.8 6.8 0 00381.7 200zm0 10.008a3.217 3.217 0 113.217-3.217 3.221 3.221 0 01-3.217 3.217z" transform="translate(-374.912 -200)"/></g></g><g id="Group_15863" data-name="Group 15863" transform="translate(33.643 35.743)"><g id="Group_15862" data-name="Group 15862"><path id="Path_11651" data-name="Path 11651" d="M195.036 200a6.791 6.791 0 106.791 6.791 6.8 6.8 0 00-6.791-6.791zm0 10.008a3.217 3.217 0 113.217-3.217 3.221 3.221 0 01-3.217 3.217z" transform="translate(-188.245 -200)"/></g></g><g id="Group_15865" data-name="Group 15865" transform="translate(9.149 62.319)"><g id="Group_15864" data-name="Group 15864"><path id="Path_11652" data-name="Path 11652" d="M64.582 349.224a1.787 1.787 0 00-2.528 0l-5.82 5.82-1.989-1.989a1.787 1.787 0 00-2.528 2.528l3.253 3.252a1.787 1.787 0 002.527 0l7.084-7.084a1.787 1.787 0 00.001-2.527z" transform="translate(-51.194 -348.7)"/></g></g></symbol><symbol id="icon-reasons-3"><g id="Group_15867" data-name="Group 15867"><g id="Group_15866" data-name="Group 15866"><path id="Path_11653" data-name="Path 11653" d="M126.259 90.951L115.276 76.83a15.9 15.9 0 008.689-6.433c2.587-4.471 1.417-9.928.285-15.2a41.513 41.513 0 01-1.222-8.267 41.5 41.5 0 011.222-8.274c1.125-5.274 2.3-10.727-.285-15.191-2.679-4.628-8.072-6.341-13.289-7.995a38.657 38.657 0 01-7.5-2.939 36.67 36.67 0 01-6.016-4.872C93.29 4.067 88.9 0 83.317 0s-9.972 4.067-13.844 7.657a36.679 36.679 0 01-6.011 4.875 38.646 38.646 0 01-7.5 2.931c-5.217 1.653-10.61 3.366-13.289 7.995-2.587 4.471-1.417 9.928-.285 15.2a41.5 41.5 0 011.22 8.274 41.5 41.5 0 01-1.222 8.274c-1.125 5.274-2.3 10.727.285 15.191a15.9 15.9 0 008.7 6.431L40.375 90.949a1.805 1.805 0 001.65 2.9l12.906-1.612 3.186 11.148a1.8 1.8 0 001.392 1.276 1.84 1.84 0 00.343.033 1.805 1.805 0 001.426-.7L72.8 89.169a16.691 16.691 0 0010.513 4.693 16.691 16.691 0 0010.517-4.693l11.527 14.821a1.8 1.8 0 001.426.7 1.841 1.841 0 00.343-.032 1.8 1.8 0 001.392-1.276l3.182-11.144 12.91 1.612a1.805 1.805 0 001.65-2.9zM60.61 98.972l-2.634-9.217a1.805 1.805 0 00-1.958-1.294L45.91 89.725l9.06-11.646 1 .319a38.645 38.645 0 017.495 2.931 36.67 36.67 0 016.01 4.871l.621.574zm22.707-8.72c-4.17 0-7.677-3.249-11.392-6.693a39.788 39.788 0 00-6.658-5.359 41.853 41.853 0 00-8.218-3.249c-4.771-1.514-9.278-2.944-11.256-6.363-1.888-3.265-.913-7.816.121-12.635a44.2 44.2 0 001.3-9.025 44.185 44.185 0 00-1.3-9.025c-1.034-4.818-2.009-9.368-.121-12.635 1.986-3.419 6.486-4.848 11.256-6.363a41.865 41.865 0 008.217-3.249 39.787 39.787 0 006.658-5.356c3.717-3.441 7.224-6.69 11.393-6.69s7.677 3.249 11.392 6.69a39.788 39.788 0 006.659 5.356 41.852 41.852 0 008.218 3.249c4.771 1.514 9.278 2.944 11.256 6.363 1.888 3.265.913 7.816-.121 12.635a44.2 44.2 0 00-1.3 9.025 44.183 44.183 0 001.3 9.025c1.034 4.818 2.009 9.368.121 12.635-1.986 3.419-6.486 4.848-11.256 6.363a41.865 41.865 0 00-8.217 3.249 39.787 39.787 0 00-6.657 5.356c-3.718 3.444-7.225 6.696-11.395 6.696zm27.309-1.791a1.805 1.805 0 00-1.958 1.294l-2.643 9.217-9.484-12.193.621-.574a36.679 36.679 0 016.011-4.875 38.647 38.647 0 017.5-2.931l1-.319 9.061 11.646z" transform="translate(-39.995)"/></g></g><g id="Group_15869" data-name="Group 15869" transform="translate(10.831 14.44)"><g id="Group_15868" data-name="Group 15868"><path id="Path_11654" data-name="Path 11654" d="M120.491 64a32.491 32.491 0 1032.491 32.491A32.491 32.491 0 00120.491 64zm0 61.372a28.881 28.881 0 1128.881-28.881 28.881 28.881 0 01-28.881 28.881z" transform="translate(-88 -64)"/></g></g><g id="Group_15871" data-name="Group 15871" transform="translate(21.801 24.904)"><g id="Group_15870" data-name="Group 15870"><path id="Path_11655" data-name="Path 11655" d="M178.964 124.863a3.61 3.61 0 00-2.917-1.486H165l-3.43-10.518a3.61 3.61 0 00-6.859 0l-3.421 10.518h-11.062a3.61 3.61 0 00-2.126 6.529l8.946 6.5-3.417 10.518a3.61 3.61 0 005.556 4.036l8.951-6.5 8.948 6.5a3.61 3.61 0 005.556-4.036l-3.417-10.52 8.946-6.5a3.61 3.61 0 00.793-5.041zm-12.924 9.393a1.805 1.805 0 00-.655 2.02l3.823 11.765-10.008-7.27a1.805 1.805 0 00-2.121 0l-10.009 7.271 3.821-11.765a1.805 1.805 0 00-.655-2.018l-10.007-7.271H152.6a1.8 1.8 0 001.717-1.247l3.823-11.765 3.823 11.763a1.8 1.8 0 001.717 1.247h12.37z" transform="translate(-136.616 -110.376)"/></g></g></symbol><symbol id="icon-reasons-4"><g id="speak" transform="translate(0 4)"><path id="Path_11661" data-name="Path 11661" d="M100.014 28.419a1.993 1.993 0 00-1.992 1.992v7.1a7.4 7.4 0 01-7.39 7.39H79.276a1.993 1.993 0 00-1.409.583L64.1 59.252V46.893a1.992 1.992 0 00-1.993-1.993H33.582a7.4 7.4 0 01-7.39-7.39V7.374a7.4 7.4 0 017.39-7.389h57.05a7.4 7.4 0 017.39 7.389v7.1a1.992 1.992 0 103.985 0v-7.1A11.387 11.387 0 0090.632-4h-57.05A11.387 11.387 0 0022.208 7.374v25.6H7.707A7.716 7.716 0 000 40.676v18.359a7.716 7.716 0 007.707 7.707H13.8l9.874 9.875a1.993 1.993 0 003.4-1.408v-8.467h15.387a7.715 7.715 0 007.707-7.707V48.886h9.947v15.175a1.992 1.992 0 003.4 1.408L80.1 48.886h10.532a11.387 11.387 0 0011.374-11.374v-7.1a1.993 1.993 0 00-1.992-1.993zm-53.83 30.616a3.726 3.726 0 01-3.723 3.722H25.084a1.993 1.993 0 00-1.992 1.992V70.4l-7.058-7.058a1.993 1.993 0 00-1.409-.584H7.707a3.726 3.726 0 01-3.722-3.722v-18.36a3.727 3.727 0 013.722-3.722h14.5v.558a11.387 11.387 0 0011.375 11.374h12.6zm0 0"/><path id="Path_11662" data-name="Path 11662" d="M296.135 77.914h-38.85a1.992 1.992 0 100 3.985h38.85a1.992 1.992 0 100-3.985zm0 0" transform="translate(-214.603 -68.858)"/><path id="Path_11663" data-name="Path 11663" d="M298.127 147.41a1.993 1.993 0 00-1.992-1.992h-38.85a1.992 1.992 0 100 3.985h38.85a1.992 1.992 0 001.992-1.993zm0 0" transform="translate(-214.603 -125.603)"/><path id="Path_11664" data-name="Path 11664" d="M257.285 212.918a1.992 1.992 0 100 3.985H279.7a1.992 1.992 0 100-3.985zm0 0" transform="translate(-214.603 -182.345)"/><path id="Path_11665" data-name="Path 11665" d="M616.992 149.4a1.992 1.992 0 101.992 1.992 2 2 0 00-1.992-1.992zm0 0" transform="translate(-516.979 -128.952)"/></g></symbol><symbol id="icon-reasons-5"><g id="Group_15875" data-name="Group 15875" transform="translate(29.639 74.477)"><g id="Group_15874" data-name="Group 15874"><path id="Path_11657" data-name="Path 11657" d="M156.592 385.418a2.028 2.028 0 00-.111-.365 1.97 1.97 0 00-.179-.334 1.885 1.885 0 00-.536-.536 1.913 1.913 0 00-.336-.178 1.825 1.825 0 00-.363-.111 1.912 1.912 0 00-.757 0 1.883 1.883 0 00-.365.111 1.967 1.967 0 00-.334.178 1.94 1.94 0 00-.714.869 1.881 1.881 0 00-.111.365 1.863 1.863 0 000 .757 1.822 1.822 0 00.111.363 1.8 1.8 0 00.179.336 1.886 1.886 0 00.536.536 1.953 1.953 0 00.334.179 1.883 1.883 0 00.365.111 1.865 1.865 0 00.757 0 1.825 1.825 0 00.363-.111 1.912 1.912 0 00.336-.179 1.886 1.886 0 00.536-.536 1.916 1.916 0 00.179-.336 1.962 1.962 0 00.111-.363 1.863 1.863 0 000-.757z" transform="translate(-152.75 -383.857)"/></g></g><g id="Group_15877" data-name="Group 15877" transform="translate(0 60.131)"><g id="Group_15876" data-name="Group 15876"><path id="Path_11658" data-name="Path 11658" d="M89.255 326.427l-.023-.058c-1.786-4.179-5.974-5.723-10.931-4.03l-13.518 3.738a8.862 8.862 0 00-5.487-5.4l-.051-.018-14.859-5.043a15.326 15.326 0 00-12.364-5.689c-5.069 0-9.553 3.477-12.119 7.268H1.94A1.94 1.94 0 000 319.13v24.463a1.94 1.94 0 001.94 1.94h11.537a1.94 1.94 0 001.94-1.94v-1.675h5.41a1.94 1.94 0 001.94-1.94v-.558c3.154.275 4.191.873 7.088 2.544a117.424 117.424 0 0011.657 5.952l.085.036a17.417 17.417 0 006.243 1.177 15.467 15.467 0 006.429-1.376l29.88-10.7a1.78 1.78 0 00.157-.064c2.855-1.314 7.11-5.017 4.949-10.562zm-77.718 15.226H3.881V321.07h7.656zm7.351-3.616h-3.47V321.07h3.47zm63.868-4.608l-29.867 10.694-.088.034-.078.034a12.576 12.576 0 01-9.663.165 112.4 112.4 0 01-11.266-5.756c-3.175-1.831-4.705-2.713-9.026-3.07V319.9c1.839-3.015 5.406-6.1 9.251-6.1 6.594 0 9.389 4.289 9.5 4.462a1.941 1.941 0 001.029.821l15.421 5.234c2.463.924 3.764 3.034 3.166 5.137a3.781 3.781 0 01-4.645 2.61l-17.384-5.509a1.94 1.94 0 10-1.172 3.7l17.414 5.519.055.017a7.616 7.616 0 005.825-.677 7.61 7.61 0 003.64-4.6q.067-.236.119-.471l14.569-4.036c2.1-.719 4.866-.978 6.1 1.855 1.267 3.328-2.041 5.157-2.901 5.568z" transform="translate(0 -309.922)"/></g></g><g id="Group_15879" data-name="Group 15879" transform="translate(65.826 23.958)"><g id="Group_15878" data-name="Group 15878"><path id="Path_11659" data-name="Path 11659" d="M343.094 125.059a1.885 1.885 0 00-.113-.365 1.838 1.838 0 00-.178-.334 1.886 1.886 0 00-.536-.536 1.969 1.969 0 00-.334-.179 1.933 1.933 0 00-1.122-.111 1.823 1.823 0 00-.363.111 1.916 1.916 0 00-.336.179 1.886 1.886 0 00-.536.536 1.969 1.969 0 00-.179.334 1.877 1.877 0 00-.111.365 1.863 1.863 0 000 .757 1.819 1.819 0 00.111.363 1.916 1.916 0 00.179.336 1.886 1.886 0 00.536.536 1.916 1.916 0 00.336.179 1.962 1.962 0 00.363.111 1.912 1.912 0 00.378.039 1.946 1.946 0 00.38-.039 2.055 2.055 0 00.363-.111 1.97 1.97 0 00.334-.179 1.886 1.886 0 00.536-.536 1.794 1.794 0 00.178-.336 1.827 1.827 0 00.113-.363 1.96 1.96 0 000-.757z" transform="translate(-339.25 -123.498)"/></g></g><g id="Group_15881" data-name="Group 15881" transform="translate(5.761)"><g id="Group_15880" data-name="Group 15880"><path id="Path_11660" data-name="Path 11660" d="M121.335 6.595H109.8a1.94 1.94 0 00-1.94 1.94v1.675h-5.41a1.94 1.94 0 00-1.94 1.94v.558c-3.154-.275-4.191-.873-7.088-2.544a117.41 117.41 0 00-11.659-5.95l-.085-.036a16.508 16.508 0 00-12.67.2L61.2 7.173 54.618.592a1.94 1.94 0 00-2.744 0L30.266 22.2a1.924 1.924 0 000 2.744l36.923 36.921a2.1 2.1 0 002.744 0l19.726-19.726a18.69 18.69 0 001.6.068c5.069 0 9.553-3.477 12.119-7.268h17.96a1.94 1.94 0 001.94-1.94V8.535a1.94 1.94 0 00-1.943-1.94zm-68.09-1.887l4.423 4.422a8.46 8.46 0 01-8.845 0zM38.8 27.993l-4.422-4.423 4.422-4.422a8.46 8.46 0 010 8.845zm29.761 29.756l-4.422-4.422a8.448 8.448 0 018.843 0zm7.217-7.217a12.33 12.33 0 00-14.434 0L41.6 30.789a12.331 12.331 0 000-14.436l4.427-4.427a12.331 12.331 0 0014.436 0l4.2 4.2a7.691 7.691 0 00-5.774 4.231A11.059 11.059 0 1071.6 34.043l6.551 2.223a12.388 12.388 0 002.058 9.834zm-11.8-19.076l.051.018 3.88 1.317a7.18 7.18 0 11-9.745-8.2 8.59 8.59 0 005.817 6.865zM83 43.3a8.487 8.487 0 01-1.24-4.035 15.087 15.087 0 003.422 1.853zm17.5-11.08c-1.839 3.015-5.406 6.1-9.251 6.1a14.123 14.123 0 01-2.024-.142h-.008a11.114 11.114 0 01-7.187-3.933c-.04-.058-.208-.279-.233-.316a1.933 1.933 0 00-1.069-.889l-15.421-5.232c-2.462-.924-3.763-3.032-3.167-5.135v-.009a3.78 3.78 0 014.643-2.6l17.387 5.507a1.94 1.94 0 101.172-3.7L71.516 17.49l-.121-.121-7.158-7.158L70.387 8l.067-.025.02-.008.078-.034a12.575 12.575 0 019.663-.165 112.4 112.4 0 0111.266 5.754c3.175 1.831 4.705 2.713 9.026 3.07zm7.351-1.167h-3.47V14.091h3.47zm11.537 0h-7.656V10.475h7.656z" transform="translate(-29.691 -.023)"/></g></g></symbol><symbol id="instagram" viewBox="0 0 512 512"><path d="M256 49.5c67.3 0 75.2.3 101.8 1.5 24.6 1.1 37.9 5.2 46.8 8.7 11.8 4.6 20.2 10 29 18.8s14.3 17.2 18.8 29c3.4 8.9 7.6 22.2 8.7 46.8 1.2 26.6 1.5 34.5 1.5 101.8s-.3 75.2-1.5 101.8c-1.1 24.6-5.2 37.9-8.7 46.8-4.6 11.8-10 20.2-18.8 29s-17.2 14.3-29 18.8c-8.9 3.4-22.2 7.6-46.8 8.7-26.6 1.2-34.5 1.5-101.8 1.5s-75.2-.3-101.8-1.5c-24.6-1.1-37.9-5.2-46.8-8.7-11.8-4.6-20.2-10-29-18.8s-14.3-17.2-18.8-29c-3.4-8.9-7.6-22.2-8.7-46.8-1.2-26.6-1.5-34.5-1.5-101.8s.3-75.2 1.5-101.8c1.1-24.6 5.2-37.9 8.7-46.8 4.6-11.8 10-20.2 18.8-29s17.2-14.3 29-18.8c8.9-3.4 22.2-7.6 46.8-8.7 26.6-1.3 34.5-1.5 101.8-1.5m0-45.4c-68.4 0-77 .3-103.9 1.5C125.3 6.8 107 11.1 91 17.3c-16.6 6.4-30.6 15.1-44.6 29.1-14 14-22.6 28.1-29.1 44.6-6.2 16-10.5 34.3-11.7 61.2C4.4 179 4.1 187.6 4.1 256s.3 77 1.5 103.9c1.2 26.8 5.5 45.1 11.7 61.2 6.4 16.6 15.1 30.6 29.1 44.6 14 14 28.1 22.6 44.6 29.1 16 6.2 34.3 10.5 61.2 11.7 26.9 1.2 35.4 1.5 103.9 1.5s77-.3 103.9-1.5c26.8-1.2 45.1-5.5 61.2-11.7 16.6-6.4 30.6-15.1 44.6-29.1 14-14 22.6-28.1 29.1-44.6 6.2-16 10.5-34.3 11.7-61.2 1.2-26.9 1.5-35.4 1.5-103.9s-.3-77-1.5-103.9c-1.2-26.8-5.5-45.1-11.7-61.2-6.4-16.6-15.1-30.6-29.1-44.6-14-14-28.1-22.6-44.6-29.1-16-6.2-34.3-10.5-61.2-11.7-27-1.1-35.6-1.4-104-1.4z"/><path d="M256 126.6c-71.4 0-129.4 57.9-129.4 129.4s58 129.4 129.4 129.4 129.4-58 129.4-129.4-58-129.4-129.4-129.4zm0 213.4c-46.4 0-84-37.6-84-84s37.6-84 84-84 84 37.6 84 84-37.6 84-84 84z"/><circle cx="390.5" cy="121.5" r="30.2"/></symbol><symbol id="phone" viewBox="0 0 24 24"><path d="M22 16.92v3a2 2 0 01-2.18 2 19.79 19.79 0 01-8.63-3.07 19.5 19.5 0 01-6-6 19.79 19.79 0 01-3.07-8.67A2 2 0 014.11 2h3a2 2 0 012 1.72 12.84 12.84 0 00.7 2.81 2 2 0 01-.45 2.11L8.09 9.91a16 16 0 006 6l1.27-1.27a2 2 0 012.11-.45 12.84 12.84 0 002.81.7A2 2 0 0122 16.92z"/></symbol><symbol id="toggle"><g id="Group_15907" data-name="Group 15907" transform="translate(-330 -17)"><rect id="Rectangle_195" data-name="Rectangle 195" width="25" height="3" rx="1.5" transform="translate(330 17)"/><rect id="Rectangle_196" data-name="Rectangle 196" width="15" height="3" rx="1.5" transform="translate(340 26)"/><rect id="Rectangle_197" data-name="Rectangle 197" width="25" height="3" rx="1.5" transform="translate(330 35)"/></g></symbol><symbol id="twitter" viewBox="0 0 48 39"><g id="Page-1" stroke="none" stroke-width="1" fill-rule="evenodd"><g id="Social-Icons---Isolated" transform="translate(-276 -59)"><path d="M319.087 68.715c.621 13.851-9.707 29.294-27.992 29.294A27.874 27.874 0 01276 93.584a19.8 19.8 0 0014.579-4.078 9.856 9.856 0 01-9.198-6.839 9.877 9.877 0 004.446-.167c-4.737-.953-8.005-5.219-7.899-9.781a9.798 9.798 0 004.462 1.23c-4.386-2.93-5.628-8.72-3.048-13.147 4.856 5.959 12.112 9.879 20.297 10.29-1.435-6.16 3.238-12.092 9.593-12.092a9.828 9.828 0 017.188 3.109 19.695 19.695 0 006.253-2.39 9.866 9.866 0 01-4.33 5.448 19.668 19.668 0 005.657-1.55 19.993 19.993 0 01-4.913 5.098" id="Twitter"/></g></g></symbol><symbol id="vk" viewBox="0 0 511.962 511.962"><path d="M250.503 400.807h30.592s9.248-1.024 13.952-6.112c4.352-4.672 4.192-13.44 4.192-13.44s-.608-41.056 18.464-47.104c18.784-5.952 42.912 39.68 68.48 57.248 19.328 13.28 34.016 10.368 34.016 10.368l68.384-.96s35.776-2.208 18.816-30.336c-1.376-2.304-9.888-20.8-50.848-58.816-42.88-39.808-37.12-33.344 14.528-102.176 31.456-41.92 44.032-67.52 40.096-78.464-3.744-10.432-26.88-7.68-26.88-7.68l-76.928.448s-5.696-.768-9.952 1.76c-4.128 2.496-6.784 8.256-6.784 8.256s-12.192 32.448-28.448 60.032c-34.272 58.208-48 61.28-53.6 57.664-13.024-8.416-9.76-33.856-9.76-51.904 0-56.416 8.544-79.936-16.672-86.016-8.384-2.016-14.528-3.36-35.936-3.584-27.456-.288-50.72.096-63.872 6.528-8.768 4.288-15.52 13.856-11.392 14.4 5.088.672 16.608 3.104 22.72 11.424 7.904 10.72 7.616 34.848 7.616 34.848s4.544 66.4-10.592 74.656c-10.4 5.664-24.64-5.888-55.2-58.72-15.648-27.04-27.488-56.96-27.488-56.96s-2.272-5.568-6.336-8.544c-4.928-3.616-11.84-4.768-11.84-4.768l-73.152.448s-10.976.32-15.008 5.088c-3.584 4.256-.288 13.024-.288 13.024s57.28 133.984 122.112 201.536c59.488 61.92 127.008 57.856 127.008 57.856z"/></symbol></svg>