<svg xmlns="http://www.w3.org/2000/svg" width="371.426" height="373.67"><g id="Group_6" data-name="Group 6" transform="translate(-1192.832 -5629.53)"><g id="Group_4" data-name="Group 4" opacity=".13"><path id="Path_14" data-name="Path 14" d="M1232.314 5766.03v-.032a35.648 35.648 0 01-14.715-11.453c-13.083-18.009-4.55-46.925 9.535-62.684 11.842-13.249 25.708-18.379 30.514-17.915.689.066 4.047.515 6.887.929a57.379 57.379 0 017.054 1.421h.012a100.2 100.2 0 012.794-17.521c2.156-8.5 3.76-14.527 8.828-20.131 2.228-2.463 8.6-9.506 15.5-7.862 4.318 1.029 6.729 4.955 7.617 6.611a91.7 91.7 0 00-9.2 25.274 89.9 89.9 0 00-1.8 19.784l.306.079-.3.5v.081c8.06 2.785 11.757 7.237 13.439 9.817 1.475 2.262 2.309 4.475 4.641 13.686a508.255 508.255 0 013.863 16.386l20.175 10-28.266 59.951a186.981 186.981 0 01-34.759-6.018c-32.046-8.76-42.127-20.89-42.125-20.903z"/><path id="Path_15" data-name="Path 15" d="M1297.432 5630.575a16.359 16.359 0 00-6.689.875c-8.069 2.9-11.358 11.879-14.418 20.232a78.345 78.345 0 00-4.689 24.217l2.454 1.523a78.763 78.763 0 0123.342-46.847z"/><rect id="Rectangle_9" data-name="Rectangle 9" width="67.843" height="27.035" rx="5.811" transform="rotate(-160.039 1147.019 2742.476)"/><rect id="Rectangle_10" data-name="Rectangle 10" width="77.619" height="25.373" rx="5.811" transform="rotate(-160.039 1147.059 2756.566)"/><rect id="Rectangle_11" data-name="Rectangle 11" width="67.843" height="26.747" rx="5.811" transform="rotate(-160.039 1139.438 2768.357)"/><rect id="Rectangle_12" data-name="Rectangle 12" width="67.843" height="26.747" rx="5.811" transform="rotate(-160.039 1141.51 2781.526)"/><path id="Path_16" data-name="Path 16" d="M1331.893 5730.237c-6.009 9.885-19.774 29.3-44.934 41.883a107.6 107.6 0 01-31.627 10.052 330.56 330.56 0 0045.822 9.979 141.733 141.733 0 0030.743-61.914z"/><path id="Path_17" data-name="Path 17" d="M1564.258 5973.454L1337.475 5733l-61.994 70.9 169.794 199.3z"/><path id="Path_18" data-name="Path 18" d="M1483.769 5993.576l-190.157-210.409-18.132 20.733 169.794 199.3z"/><path id="Path_19" data-name="Path 19" d="M1273.989 5675.5c6.085 3.5 8.22 5.045 8.039 5.419-.417.863-13.43-3.964-13.1-5.27.126-.494 2.163-.458 5.061-.149z"/></g><g id="Group_5" data-name="Group 5"><path id="Path_20" data-name="Path 20" d="M1224.03 5765.03v-.032a35.656 35.656 0 01-14.716-11.453c-13.083-18.009-4.55-46.925 9.536-62.684 11.842-13.249 25.708-18.379 30.513-17.915.689.066 4.047.515 6.887.929a57.347 57.347 0 017.055 1.421h.012a100.2 100.2 0 012.794-17.521c2.156-8.5 3.759-14.527 8.827-20.131 2.228-2.463 8.6-9.506 15.5-7.862 4.318 1.029 6.73 4.955 7.617 6.611a91.733 91.733 0 00-9.2 25.274 89.843 89.843 0 00-1.8 19.784l.305.079c-.1.169-.2.331-.3.5v.081c8.06 2.785 11.756 7.237 13.439 9.817 1.475 2.262 2.309 4.475 4.641 13.686a510.945 510.945 0 013.863 16.386l20.175 10-28.266 59.951a186.966 186.966 0 01-34.759-6.018c-32.044-8.76-42.125-20.89-42.123-20.903z" fill="#f5bba7"/><path id="Path_21" data-name="Path 21" d="M1289.147 5629.575a16.363 16.363 0 00-6.689.875c-8.068 2.9-11.357 11.879-14.418 20.232a78.372 78.372 0 00-4.688 24.217l2.454 1.523a78.769 78.769 0 0123.341-46.847z" fill="#e2a498"/><rect id="Rectangle_13" data-name="Rectangle 13" width="67.843" height="27.035" rx="5.811" transform="rotate(-160.039 1142.789 2742.705)" fill="#f5bba7"/><rect id="Rectangle_14" data-name="Rectangle 14" width="77.619" height="25.373" rx="5.811" transform="rotate(-160.039 1142.829 2756.796)" fill="#f5bba7"/><rect id="Rectangle_15" data-name="Rectangle 15" width="67.843" height="26.747" rx="5.811" transform="rotate(-160.039 1135.208 2768.586)" fill="#f5bba7"/><rect id="Rectangle_16" data-name="Rectangle 16" width="67.843" height="26.747" rx="5.811" transform="rotate(-160.039 1137.28 2781.755)" fill="#f5bba7"/><path id="Path_22" data-name="Path 22" d="M1323.609 5729.237c-6.01 9.885-19.774 29.3-44.935 41.883a107.592 107.592 0 01-31.627 10.052 330.702 330.702 0 0045.818 9.979 141.751 141.751 0 0030.744-61.914z" fill="#e2a498"/><path id="Path_23" data-name="Path 23" d="M1555.974 5972.454L1329.191 5732l-61.995 70.9 169.794 199.3z" fill="#25364a"/><path id="Path_24" data-name="Path 24" d="M1475.485 5992.576l-190.157-210.409-18.128 20.733 169.794 199.3z" fill="#1c293a"/><path id="Path_25" data-name="Path 25" d="M1265.7 5674.5c6.086 3.5 8.22 5.045 8.04 5.419-.417.863-13.43-3.964-13.1-5.27.129-.494 2.166-.458 5.06-.149z" fill="#e2a498"/></g></g></svg>