<svg xmlns="http://www.w3.org/2000/svg" width="718.184" height="558.608"><defs><clipPath id="clip-path"><path id="Path_276" data-name="Path 276" d="M883.3 375.752c-20.366 22.752-38.133 52.767-52.78 107.713C811.854 553.5 796.818 609.9 823.243 670.2c8.7 19.844 15.965 35.968 32.437 49.763 76.637 64.181 186.039-52.823 355.337-21.111 75.045 14.056 91.462 44.148 145.969 31.667 77.277-17.694 128.5-112.344 135.647-126.67 49.491-99.182 57.385-277.533-54.606-359.5-6.806-4.982-16.863-9.036-21.813-11.416-22.478-10.811-85.206-40.978-147.3-35.978-63.749 5.133-61.115 41.584-133.565 51.7-61.834 8.637-65.278-17.987-106.637-3.231-17.365 6.2-25 13.83-129.256 114.177-9.805 9.434-12.231 11.767-16.156 16.151z" fill="none"/></clipPath></defs><g id="студент" transform="translate(-809 -196.392)"><g id="Group_84" data-name="Group 84"><g id="Group_83" data-name="Group 83" clip-path="url(#clip-path)"><g id="Group_82" data-name="Group 82"><g id="Group_70" data-name="Group 70"><path id="Path_140" data-name="Path 140" d="M926.453 409.316C870.646 462.24 787.98 575.263 823.243 670.2c4.328 11.653 12.184 32.8 32.437 49.763 76.637 64.181 186.039-52.823 355.337-21.111 75.045 14.056 91.462 44.148 145.969 31.667 83.9-19.21 127.3-109.341 135.647-126.67 36.426-75.636 52.786-200.073-11.8-272.943-77.752-87.731-228.1-50.254-345.016-21.112-71.601 17.845-143.002 36.589-209.364 99.522z" fill="#6cd2ff"/><g id="Group_69" data-name="Group 69" fill="#3eb4dd"><path id="Path_141" data-name="Path 141" d="M1158.4 643.043l-2.759-7.9c-5.134 1.724-6.9 1.081-9.993-3.145-.482-.658-1.357-1.026-1.849-1.68a5.2 5.2 0 01-1.36-2.61c.006-3.657-2.283-5.275-5.922-5-3.12.235-6.332-.5-9.468-1.016-.506-.084-1.06-1.22-1.2-1.946-.631-3.258-2.467-4.24-5.354-2.726-.8.419-1.588.85-2.366 1.267-3.984-9.525-3.595-20.394-10.9-27.638.775-1.579 1.886-2.788 1.811-3.919-.138-2.073-2.066-1.205-3.385-1.427-3.848-.645-6.9 1.614-10.26 2.686-1.444.461-2.4.834-3.823-.215-.888-.655-2.459-.384-4.558-.624a16.315 16.315 0 002.12-.972c.692-.5 1.321-1.082 1.976-1.63-.662-.612-1.231-1.533-2.008-1.77a29.718 29.718 0 00-4.632-.69c.354-5.057-3.984-2.146-6.192-3.665 3.708-2.265 1.5-5.388.938-7.868-.291-1.29-3.029-2.464-4.846-2.879-3.275-.746-6.7-.8-10.042-1.294-3.518-.517-7-1.31-10.521-1.779-2.756-.368-5.725-2.854-7.793.147-7.253-2.142-14.188-4.2-21.13-6.233-1.491-.436-4.311 1.41-4.21 2.889a35.239 35.239 0 00.9 4.615c-1.661.1-3.4.184-5.136.325-.361.029-.969.205-1.017.416-.823 3.61-3.63 2.311-5.9 2.548a9.88 9.88 0 00-2.851 1.185c1.023 1.9 1.73 3.318 2.543 4.676.8 1.341 1.714 2.617 2.635 4.009-2.485 2.46-3.675 2.533-7.881.63-1.176-.533-2.675-.345-3.862-.862a52.157 52.157 0 01-4.922-2.727c.376-.962 1.126-2 .873-2.391-.826-1.286-1.864-3.044-3.1-3.312-1.8-.391-3.295-.516-5.027-1.729-1.795-1.257-4.7-1.138-7.127-1.225-2.545-.091-4.248-.539-4.126-3.639a2.753 2.753 0 00-1.763-2.044c-2.036-.219-2.167-1.532-2.289-3-.334-4.045-.33-4.045-4.075-5.813.738-3.408.063-3.81-4.643-3.028l-3.85-4.4a10.3 10.3 0 01-9.307.674 2.625 2.625 0 00-1.207-.013c-1.358.178-2.922.922-4.025.486-2.666-1.055-3.869.239-4.449 2.333-.656 2.37-1.957 2.072-3.926 1.472.367-1.156.744-2.1.959-3.07.5-2.279-.616-3.39-2.819-2.681a49.85 49.85 0 00-7.421 2.828c-1.064.542-1.661 2-2.595 2.556-1.955 1.062-3.945 2.066-5.831 3.239a1.745 1.745 0 00-.254 1.654c1.659 1.561.9 2.98.124 4.6a2.568 2.568 0 00.379 2.226c2.75 3.384 2.628 4.971-.439 7.891-1.847 0-3.463-.4-4.586.176-.523.266-.09 2.41-.09 4.261l-3.331.9a13.257 13.257 0 00.837-2.617c.04-.647-.047-1.663-.438-1.886-.5-.287-1.907-.114-1.99.152-1.013 3.238-4.512 2.445-6.5 4.108a18.011 18.011 0 01-4.914 2.511c-.57.229-1.393-.174-2.549-.361-.751 2.764-1.6 6.019-2.539 9.251a3.879 3.879 0 01-1.133 2.165c-4.019 2.448-4.424 6.465-4.916 10.529-.288 2.381-1.519 3.824-4.216 3.443-.822-.116-1.727.228-2.513.033-.606-.15-1.615-.963-1.541-1.226 1.187-4.205-2.009-7.258-2.591-10.722.558-1.36 1.842-3.071 1.429-3.75-1.238-2.033-2.963-4.934-4.817-5.19-4.033-.556-3.88-3.469-4.035-5.747-.188-2.779-1.3-4.292-3.327-6.044a75.378 75.378 0 01-8.616-9.363 4.614 4.614 0 01-.775-3.707c1.457-4.546-.079-8.611-1.528-12.735-.969-2.759.3-4.328 3.157-4.128a26.508 26.508 0 004.5-.335 23.986 23.986 0 012.528-.38c3.979.028 3.979.053 4-3.633 2.225.68 4.487 1.247 6.648 2.076 1.43.549 2.869 1.2 3.7-.5.868-1.771-.279-2.832-1.923-3.431-.526-.192-1.025-.457-1.547-.694 2.52-1.978 5.238-2.041 7.454.155 1.512 1.5 2.7 1.476 4.411.374 3.589-2.309 7.349-4.349 10.96-6.623 1.377-.867 2.43-1.583.6-3.664-2.058-2.344-3.091-5.59-4.558-8.449a.705.705 0 01-.074-.551c2.054-3.54-.2-4.631-2.891-6.35-3.106-1.988-2.839-3.79-.18-6.527.846-.871 1.734-1.7 2.55-2.5l-2.3-2.473c1.924-2.787 5.192-5.45 4.947-7.735-.258-2.4-3.884-4.432-6.154-6.743l4.657-4.271c.816 3.264 3.736 2.677 6.41 2.609 1.891-.048 2.957-1.084 2.467-2.947a4.344 4.344 0 011.035-4.41 2.054 2.054 0 00.447-1.042c.65-4.422 3.609-6.211 7.637-7.107 2.112-.471 2.191-3.343.726-5.453a17.739 17.739 0 01-2.188-5.205c-.152-.523.539-1.523 1.1-1.979 2.42-1.95 4.944-3.77 7.417-5.654 1.61-1.228 3.044-2.273 5.413-2.363 1.9-.072 3.674-2.111 5.611-3.058a40.555 40.555 0 014.71-1.64c1.051-.359 2.378-.447 3.091-1.152 2.055-2.03 3.431-.549 4.825.691 1.113.991 2.052 2.177 3.214 3.435 1.255-1.779 2.489-2.956.49-5.03-.85-.883-.439-3.048-.41-4.627 0-.205 1.229-.673 1.771-.54a78.828 78.828 0 0024.523 1.717c1.579-.116 3.425-2.253 4.381-3.9a8.556 8.556 0 016.027-4.46 4.917 4.917 0 002.591-1.907 11.349 11.349 0 017.134-4.833c3.637-.644 5.8-3.363 8.694-5.034 2.449-1.417 5.294-2.759 8.029-2.9a6.318 6.318 0 005.8-3.73c1.672-3.5 4.341-4.215 7.665-3.823a35.339 35.339 0 016.537 1.269 30.412 30.412 0 014.781 2.479c-1.984 2.1-1.878 3.965-.247 5.945a5.656 5.656 0 011.453 3.2c-.018 4.158-.285 8.318-.553 12.471-.171 2.654-.519 5.1-3.19 6.826-4.251 2.748-12.078 1.247-14.63-3.124a118.951 118.951 0 00-2.548-4.123c-2.234-3.488-3.377-7 .162-10.968-1.755-.177-3.37-.849-4.335-.324-1.662.9-3.488 6.779-2.951 8.492-.947.463-1.986.876-2.924 1.453-1.723 1.06-3.362 2.257-5.081 3.323s-3.511 2.056-5.52 3.223a8.026 8.026 0 011.329 6.534 4.3 4.3 0 003.467 5.334c2.075.523 2.789-.462 3.731-1.581 1.666-1.979 4.141-1.693 5.191.658 2.471 5.536 2.762 5.586 6.49 1.122a22.1 22.1 0 001.988-2.423c1.067-1.731 2.515-1.488 4.225-1.307 2.548.27 5.139.1 7.71.173.869.023 2.393.021 2.476.335a9.061 9.061 0 01-.15 3.08c-.1 1-.23 1.994-.347 2.991a13.657 13.657 0 002.686-.267 33.914 33.914 0 004.522-1.7c1.632-.755 3.287-1.516 3.255-3.824-.037-2.781 2.644-2.484 4.2-3.382 1.978-1.141 4.709-1.367 4.523-5.478 1.231 1.644 1.935 2.479 2.517 3.391.691 1.082 1.815 2.318.179 3.4a5.115 5.115 0 01-3.254 1.085c-2.229-.433-4.42-.067-5.291 1.731-.9 1.845-2.046 4.566.4 6.229 1.833 1.244 3.889 2.615 6.439.682 1.6-1.211 3.461-3.294 5.882-1.1a.283.283 0 00.273.022c2.554-2.3 5.219-.293 7.776-.07 2.957.258 5.852 1.173 8.8 1.682a20.222 20.222 0 003.285.015c.535 0 1.07.043 1.6.066l.51.924c-.632.383-1.567.627-1.823 1.183a3.758 3.758 0 00-.1 2.568c.126.369 1.294.686 1.873.545 2.762-.673 5.118-.6 7.271 1.766.746.82 2.6.711 3.97.862a31.617 31.617 0 003.5.027l-1.2 3.691c1.313-.057 2.626-.1 3.936-.177a9.837 9.837 0 001.973-.262c2.022-.556 4.166-.923 4.1-3.857-.017-.79.783-1.6 1.205-2.392 6.02 3.248 10.864 7.324 14.1 13.06a19.079 19.079 0 011.934 4.942c.47 1.994 1.119 2.425 2.871 1.168a41.107 41.107 0 014.265-2.4c-.275-.925-1.108-2.176-.778-2.89 1.329-2.882.433-4.072-2.54-4 .058-2.677 1.587-3.539 4.289-2.786a31.8 31.8 0 01.126-6.234 3.889 3.889 0 012.665-2.3c3.8-.668 6.289-3.378 9.212-5.393 3.868-2.667 3.822-2.727 7.412.061.879.683 1.778 1.34 3.167 2.385-1.41 1.392-2.666 2.673-3.966 3.908-1.478 1.4-3.766 2.423-2.2 5.147a1.408 1.408 0 01-.059 1.108c-1.615 3.47-2.958 7.121-5.014 10.313-1.475 2.291-2.2 4.064-.274 6.022-1.045 1.782-1.947 3.422-2.944 5-1.791 2.837-4.785 3.623-7.767 4.075-2.138.323-4.382-.112-6.551.087a3.389 3.389 0 00-2.536 1.472c-.228.633.585 2.005 1.313 2.545a21.2 21.2 0 004.915 2.731c.96.372 2.824.493 3.181-.027 1.485-2.165 3.532-1.814 5.584-1.915a3.855 3.855 0 001.705-.818 29.24 29.24 0 004.666-3.3 8.027 8.027 0 002.392-4.1c.317-2.266 1.269-3.273 3.427-3.3 2.354-.032 4.92-.349 5.442 2.94a3.3 3.3 0 01-.427 1.84c-.674 1.336-1.462 2.615-2.168 3.853 2.461 3.531 3.513 3.853 7.079 2.1l-3.72-2.54a9.366 9.366 0 011.485-1.676c2.537-1.716 2.7-4.294.486-6.454-2.427-2.365-4.861-4.532-8.616-4.236a1.979 1.979 0 01-1.511-1.219c-.225-2.522 4.119-8.129 6.708-9.078a44.612 44.612 0 01-1.69-5.753 3.006 3.006 0 011.363-2.272c2.406-1.518 4.952-2.815 7.735-4.357a29.124 29.124 0 00-1.583 2.59c-.948 1.941-1.807 3.925-2.678 5.9-.057.129.073.362.157.525.673 1.3 7.136 3.778 9.43 3.236l-5.394-5.634 5.33 1.192c1.07-3.9 2.329-4.432 5.2-2.15 1.658 1.317 2.8 3.281 4.463 4.591 1.216.959 2.9 1.326 4.763 2.125-.318.5-.589 1.49-1.145 1.69-3.153 1.131-3.47 4.15-4.136 6.624-.293 1.084 1.28 2.671 2.02 4.057 3.289-1.38 4.8-3.25 4.722-6.65-.053-2.371.842-4.762 1.388-7.525-1.4-1.3-3.323-2.911-5.007-4.735-.554-.6-.958-2.33-.656-2.57 2.081-1.656 1.284-2.955-.753-4.487 3.183-1.511 6.041-.918 8.868-.62 2.81.3 5.613.715 8.431.86 1.424.073 1.987-1.9 1.054-3.238a11.52 11.52 0 01-1.707-3.3c2.238 1.339 3.507.626 4.714-1.147a7.48 7.48 0 016.538-3.257c2.04-.029 4.06-.8 6.11-.952 2.676-.193 5.391.09 8.053-.186a28.909 28.909 0 005.238-1.553l4.157 2.722-.839-4.763 2.968-.718c-.362-2.863 1.153-7.006 3.111-7.542 1.292-.354 2.869.33 4.319.549l-.075.834-3.443 2.824 7.142.546a8.792 8.792 0 01.069 1.041c-.111.944-.237 1.886-.358 2.829 1.007-.336 2.231-.415 2.984-1.052 2.96-2.5 4.548-2.692 7.948-.645 2.187 1.318 4.4 2.587 6.789 3.983l-1.675 1.489a7.374 7.374 0 001.145.539c2.314.569 2.615 1.326 1.157 3.18-.761.967-1.7 1.8-2.43 2.786-1.807 2.421-3.55 4.89-5.3 7.353-.156.219-.167.758-.271.765-4.454.31-4.426 5.389-7.556 7.123a1.793 1.793 0 00-.653 1.629 1.985 1.985 0 001.654.729 4.983 4.983 0 002.044-.9c4.124-2.639 8.2-5.344 12.359-7.931.5-.312 1.366-.042 2.37-.042.717-1.818 1.66-1.99 2.993.054.514.787.975 1.608 1.578 2.609a16.11 16.11 0 002-1.529c3.222-3.4 6.1-3.579 10.264-1.193 3.962 2.272 8.279 1.823 12.255.039 1.041-.467 1.316-2.64 1.6-3.266l-2.363-2.329c1.449-.2 2.168-.29 2.882-.4 2.3-.364 4.6-1.069 6.886-1 1.862.056 4.17.531 5.431 1.72 1.84 1.734 2.657 4.514 4.386 6.414a42.973 42.973 0 007.477 6.561c1.465 1 3.614 1 5.455 1.449l.6-.852-2.964-8.885a8.981 8.981 0 002.625 1.225c1.143.092 2.921.16 3.37-.491 1.265-1.831 2.842-1.813 4.673-1.775 4.876.1 5.194-.177 6.974-5.482-4.917-.569-4.55-5.153-5.852-7.995 4.554-2.1 9.3-4.367 14.131-6.425.947-.4 3.175-.192 3.242.1.957 4.16 3.924 2.652 5.813 1.692 2.2-1.119 3.586-1.428 5.444.471.965.987 2.3.819 3.076-.993a36.663 36.663 0 013.816-6.862c2.182-3.041 5.826-3.215 8.943-.907 1.63 1.208 2.812 2.908 5.692 2.058 2.774-.819 3.628-1.9 3.227-4.495a3.424 3.424 0 011.638-3.824c1.842-1.255 3.533-3.04 1.695-5.77a60.324 60.324 0 007.112.726c1.35-.015 2.69-.95 1.747-2.663-.894-1.625-1.851-3.1-4.2-3.334-1.954-.193-3.813-1.348-5.533-2.007 1.019-3.315 1.149-6.914 3.008-8.864 1.752-1.836 3.168-4.36 6.18-5.37 3.587-1.2 6.767-3.63 10.1-5.558 1.979-1.143 3.817-2.449 6.353-1.242.885.422 2.168.111 3.24-.055.2-.03.453-1.372.344-1.426a29.031 29.031 0 00-3.017-1.165c-.175-.063-.349-.129-.474-.176l-1.442-3.951c1.571-.613 3.906-2.256 4.726-1.693 1.8 1.234 2.826 3.586 4.238 5.58l.389-1.066 10.544 7.971-3.911 3.026c-3.947-.669-4.68.028-4.036 4.358a21.749 21.749 0 00-3.21-.819c-.74-.079-2.04.054-2.178.429a3.062 3.062 0 00.216 2.576 29.476 29.476 0 003.7 3.3c2.38-2.562 3.856-.747 5.3.967a24.417 24.417 0 012.574 3.395c.566.974 1.684 1.636.738 3.41-.851 1.594 1.05 2.288 2.612 2.314 2.165.037 4.337-.065 6.5.063a12.888 12.888 0 012.656.837 22.159 22.159 0 013.235.92 24.64 24.64 0 013.153 2.154c-4.284 2.927-1.074 5.637-.131 8.155a144.4 144.4 0 006.246 14.271c1.336 2.653 3.4 4.938 5.067 7.43.771 1.15 1.4 2.4 2.174 3.752-5.019-.248-6.263 1.313-5.285 6.061a4.824 4.824 0 01-.2 2.2c-.338 1.178-.829 2.311-1.28 3.53l-1.269-.3 4.244 4.088c-3.245 2.425-3.092 4.485-.608 7.2 2.271 2.483 3.922 5.522 6.008 8.191 1.331 1.7 2.955 3.177 4.779 5.1l1.44-2.791a75.492 75.492 0 015.97 5.679 26.757 26.757 0 013.153 5.327 19.125 19.125 0 007.172 7.712c.669.413.945 1.726 1.1 2.674.645 4.053-.383 8.737 4.544 11.058 2.28 1.074 1.776 2.938 1.312 4.878-.282 1.181-.645 2.943-.043 3.636 3.44 3.952 3.773 8.97 4.936 13.915l-7.287-5.96c-6.159-5.031-12.612-9.75-18.377-15.2-3.892-3.679-7.943-7.679-8.367-13.737-.063-.889-1.084-1.817-1.846-2.53-1.587-1.486-2.987-2.781-1.089-5.123a3.7 3.7 0 00.009-3.114c-2.9-6.649-6.046-13.191-8.87-19.871a18.8 18.8 0 01-1.1-6.228 4.851 4.851 0 00-2.221-4.341c-2.95-2.217-5.322-5.309-7.585-8.3-1.423-1.881-1.749-2.359-5.206-1.533 1.664 2.48 3.206 4.685 4.641 6.957a20.758 20.758 0 011.523 3.181c.823 1.991 1.667 3.98 2.337 6.023a9.255 9.255 0 01.088 2.609c-.873-.317-2.014-.391-2.563-1a34.372 34.372 0 01-2.855-4.192l-1.193.9c-.925 1.37-1.882 2.719-2.767 4.115-2.457 3.873-1.172 7.59.413 11.359 1.317 3.131 2.294 6.406 3.635 9.526 1.707 3.97 2.141 4.131 6.145 3.561.741 2.649-1.316 2.581-2.9 2.838.816 3.469.142 5.257-2.857 7.193.186-.737.331-1.207.42-1.688.107-.572.423-1.338.177-1.68a1.777 1.777 0 00-1.632-.417 60.244 60.244 0 00-6.369 2.74c-1.4.719-2.224 1.649-1.562 3.69.279.86-1.307 2.682-2.442 3.544s-2.761 1.063-4.41 1.636l.788 1.9c-.106.122-.2.311-.349.388-1.963 1.015-4 1.9-5.884 3.048-1.825 1.116-3.243 2.316-3.66 4.947-.312 1.97-1.133 3.6.278 5.369a.452.452 0 01.038.279c-.224 4.133-.491 8.263-.665 12.4-.192 4.559-.277 9.123-.468 13.682a2.633 2.633 0 01-.858 1.689c-.563 3.186-1.172 6.366-1.66 9.564-.152 1-.312 2.734.118 2.947a6.689 6.689 0 003.461.2c1.141-.121 2.8-1.11 3.265-.678 1.039.967 1.475 2.58 2.334 4.281l2.186-.149c.147-.826.3-1.71.462-2.594.339 2.017.444 4.17 3.42 3.955.27-.915.6-2.041.936-3.17l2.747 1.051c-.582-1.777-1.075-2.951-1.332-4.175-.2-.974-.378-2.794-.118-2.88a7.281 7.281 0 013.681-.262 37.954 37.954 0 015.536 1.855 16.206 16.206 0 012.248 1.292c-.739.418-1.463.865-2.222 1.243a8.135 8.135 0 01-1.271.4l-.17.841c1.684.455 3.356.967 5.057 1.35 1.893.428 5.282 3.69 5.294 5.617a26.234 26.234 0 005.2 15.2c1.207 1.733 1.405 4.149 2.2 6.2.288.743 1.36 1.306 1.407 2 .281 4.1.433 8.216.488 12.327.027 1.969-.8 4.092-.3 5.886 1.775 6.423.638 12.534-1.036 18.729a83.243 83.243 0 00-2.368 11.657c-.57 4.728-3.9 7.66-6.443 11.132-.788 1.076-2.8.006-3.265 1.767a25.812 25.812 0 00-2.328-1.548c-1.136-.6-2.358-1.5-3.5-1.442-.638.033-1.477 1.679-1.72 2.717-.519 2.219.317 5.133-3.867 5.648 3.454-6.137 1.319-10.9-2.914-15.368.392-.824.855-1.717 1.247-2.64.918-2.156 2.326-3.364 4.859-2.948 2.732.449 4.119-.562 3.636-3.573a6.258 6.258 0 01.259-3.1c1.608-4.176-.346-8.012-.967-11.973-.13-.829-.739-1.84-.449-2.438 2.02-4.164-1.3-6.642-2.984-10.446-1.893 2.158-3.476 3.934-5.027 5.738-1.3 1.51-2.562 3.05-3.837 4.58-2.8 3.367-5.764 3.675-8.137.159-2.113-3.131-4.371-5.012-8.244-5.528-2.367-.315-4.59-1.7-7.1-.686-.52.209-1 .522-1.532.7-2.166.726-3.929 1.019-5.495-1.548-3.037-4.98-5.98-10.219-10-14.33-3.081-3.146-6.718-6.946-12.212-6a2.663 2.663 0 01-1.417-.015c-7.059-3.1-12.377 1.6-17.991 4.274-2.771 1.318-3.039 4.738-3.65 7.783a8.336 8.336 0 011.9.3 7.491 7.491 0 012.959 1.683c.3.388-.374 2.048-1.044 2.582-1.808 1.441-1.616 3.292-1.588 5.19.078 5.22-.828 10.095-5.67 13.1a5.769 5.769 0 01-4.307.821 14.844 14.844 0 00-9.194-.721 3.768 3.768 0 01-1.981.07c-4.865-1.519-7.976 1.262-11.524 3.967a25.736 25.736 0 01-9.94 4.493 51.088 51.088 0 01-13.693.95c-2.187-.134-4.257-2.2-6.38-3.4-.527-.3-1.168-.951-1.566-.827-2.607.808-4.456-.87-6.636-1.656a76.1 76.1 0 00-10.387-2.824c-.9-.187-2.112.6-3.043 1.161-3.4 2.062-10.754 1.629-13.369-1.279-1.017-1.131-.97-3.185-1.529-4.776-.256-.731-.665-1.778-1.242-1.971-4.639-1.548-9.465-2.606-13.982-4.437-5.692-2.308-7.525 3.258-11.22 4.958a2.34 2.34 0 00.21 1.905c2.061 2.056 1.516 4.492.744 6.646-.841 2.344-3.077 2.92-5.458 2.642-3.739-.436-7.49-.8-11.2-1.4a4.737 4.737 0 01-2.936-1.614c-1.8-2.619-4.469-2.435-7.084-2.788a26.317 26.317 0 01-7.291-1.57c-4.232-1.914-8.173-.3-12.128.484a76.913 76.913 0 00-12.2 3.51c-2.53.959-4.732 2.774-7.1 4.18-.689.418-1.441.752-1.825.947zm101.839-14.316a12.416 12.416 0 001.683 2.112c2.929 2.065 9.371.746 11.469-2.3 2.666-3.875 5.561-7.429 10.661-8.147a2.092 2.092 0 001.28-.942q2.721-4.588 5.307-9.257a5.176 5.176 0 00.392-1.645c.643-3.884 1.368-7.782 0-11.65a17.733 17.733 0 00-1.492-2.686c-.778.839-2.05 1.572-2.254 2.533-1.446 6.808-3.749 13.124-9 18.014-.318.3-.711.889-.612 1.2.806 2.5-1.251 3.154-2.612 4.326-1.765 1.521-3.3 3.332-5.173 4.7a20.053 20.053 0 01-4.663 2.142c-1.449.555-2.967.958-4.984 1.6zM954.507 447.746c1.945-.345 3.608-.357 5.005-.972a6.424 6.424 0 003.131-2.724c.881-1.887.94-4.145 1.725-6.094.72-1.786-.13-2.734-1.446-3.011-1.456-.307-3.5-.545-4.5.218a115.891 115.891 0 00-9.155 8.2 1.6 1.6 0 00-.175 1.491c.214.419 1.046.978 1.294.853 2.368-1.192 3.191.641 4.121 2.039zm13.941 5.9c1.671.156 2.692.006 3.473.371a3.01 3.01 0 004.247-1.729c1.436-3.4 3.882-5.056 6.953-5.306l1.1-6.732-1.075-.67c-2.64 1.121-4.993 1.725-6.859 3.026-1.766 1.231-4.138 1.907-4.51 4.947-.248 2.037-2.061 3.886-3.329 6.089zm-9.585 14.848l.945-.995-2.742-1.684c-1.059 2.444-1.844 4.018-2.429 5.663-.9 2.533.427 3.909 3.14 3.466a14.483 14.483 0 012.488-.023c.513-1.47.671-2.893 1.417-3.864 1.649-2.145.9-3.534-1.292-5.031zm-57.4 78.1c.437-3.837 4.472-1.137 6.464-3a3.725 3.725 0 00-5.034-1.544 7.724 7.724 0 01-6.934.706 3.909 3.909 0 00-2.769.84 2.113 2.113 0 00.153 1.977 5.942 5.942 0 002.833.981c1.596.146 3.216.031 5.288.031z"/><path id="Path_142" data-name="Path 142" d="M1468.254 589.088c-4.848 3.242-4.881 3.253-3.2 8.257 1.572 4.689 3.168 9.392 8.294 11.54.768.322 1.539.636 2.308.954-2.257 2.029-2.257 2.029-2.191 7.413a29.268 29.268 0 01-2.49-3.393c-3.861-7.394-7.621-14.841-11.487-22.232a20.83 20.83 0 00-3.258-5.017c-1.667-1.7-2.674-3.2-1.211-5.638l-1.194.889c-5.587-3.6-8.721-9.013-10.957-14.313l2.576-2.773c5.877 9.141 13.134 17.636 22.81 24.313z"/><path id="Path_143" data-name="Path 143" d="M1117.048 424.06c0 .867.344 2.221-.07 2.52-2.065 1.492-4.368 2.29-6.751.494-1.311 2.244-2.483 4.317-5.281 4.52-.421.03-.9.6-1.181 1.023-2.376 3.594-5.57 6.825-5.021 11.61-3.773.376-1.9-2.465-2.5-4.078l-2.1 1.314-1.73-1.93 2.688-.794.366-.6-1.718-.708c2.172-3.111 2.172-3.111-1.859-5.808 1.3-1.756 1.3-1.756 3.946-.435 3.438-1.673 6.294-4.568 10.647-4.012.934.119 2.121-1.292 3.1-2.1 2.722-2.242 3.594-2.248 5.634.161l1.885-1.1z"/><path id="Path_144" data-name="Path 144" d="M1117.108 424.142c1.369-1.477 2.656-3.047 4.152-4.381a2.654 2.654 0 012.349-.468c2.506 1.265 4.717-.1 7.059-.414 1.326-.178 2.722.252 4.077.192 1.555-.069 3.1-.377 4.836-.606 3.134 3.4 5.574 3.33 11.681 1.306 2.243-.743 3.563-.275 5.421 2.016a22.327 22.327 0 01-4.458 1.127c-4.373.115-8.756-.113-13.125.053a46.65 46.65 0 00-6.589 1.214l.524-1.868c-2.929-.709-5.016 5.65-8.173.71-3.77 3.457-3.947 3.482-7.813 1.04z"/><path id="Path_145" data-name="Path 145" d="M1218.8 415.076l1.619 2.579c-3.026 1.658-4.286 1.075-10.005-4.479l3.646-1.82-.147-.835c-.939-.3-1.89-.572-2.813-.918-.876-.328-1.722-.736-2.707-1.164.362-.945.714-1.784 1.005-2.644.383-1.135.69-1.069 2.049-.943 2.1.2 2.711.5 2.875 2.593.126 1.62 1.023 3.179 1.571 4.767.361 1.047.71 2.1 1.208 3.57a16.112 16.112 0 011.067-2.271 11.041 11.041 0 011.523-1.47c1.222 1.528 1.617 2.645-.891 3.035z"/><path id="Path_146" data-name="Path 146" d="M1310.282 430.267c-2.834 0-5.273-1.588-8.154-5.839 1.775-.9 3.418-1.935 5.418-.44.4.3 1.106.19 1.671.269l.18-2.142a25.005 25.005 0 012.706 1.933c1.453 1.357 1.451 2.708-.2 4.011a12.426 12.426 0 00-1.621 2.208z"/><path id="Path_147" data-name="Path 147" d="M1223.491 424.011l1.652-7.051 7.913 4.339c-1.723.6-2.948 1.109-4.216 1.457-1.707.468-3.447.815-5.349 1.255z"/><path id="Path_148" data-name="Path 148" d="M1328.077 435l-5.534.988-1.634-3.342 7.152 1.31.016 1.044z"/><path id="Path_149" data-name="Path 149" d="M1002.286 439.82l3.929-3.222 1.075.687c-.447 1.244-.6 2.772-1.446 3.632-.535.547-2.084.1-3.178.1z"/><path id="Path_150" data-name="Path 150" d="M1070.582 441.858l-6.318.434c3.273-3.292 5.03-3.357 6.318-.434z"/><path id="Path_151" data-name="Path 151" d="M1327.278 417.92l-4.238 1.878c.979-2.873 1.56-3.16 4.238-1.878z"/></g><path id="Path_152" data-name="Path 152" d="M1020.543 722.694c20.65-2.015 38.751.055 39.952-5.1.91-3.9-8.393-9.753-14.995-12.7-28.087-12.549-51.98 7.423-96.809 16.62-47.478 9.741-78.415-.814-79.17 4.04-.828 5.328 35.516 24.051 75.131 19.388 31.028-3.654 36.148-18.368 75.891-22.248z" fill="#6cd2ff"/><path id="Path_153" data-name="Path 153" d="M1490.585 345.062c-11.765-28.641-40.383-45.14-59.773-56.318-19.469-11.223-36.213-15.988-34.507-20.772 1.313-3.68 11.541-5.509 18.844-5.58 33.868-.333 59.48 41.2 71.6 60.554 12.822 20.481 31.937 58.1 36.57 113.141a1165.748 1165.748 0 01-19.121-51.642c-10.812-31.445-10.09-30.806-13.613-39.383z" fill="#6cd2ff"/></g><g id="Group_77" data-name="Group 77" opacity=".24"><path id="Path_154" data-name="Path 154" d="M1141.038 768.734l-35.932-3.3a108.258 108.258 0 0112.079-131.4l40.37 3.9a104.735 104.735 0 00-31.517 59.965c-5.515 36.617 10.617 63.909 15 70.835z"/><path id="Path_155" data-name="Path 155" d="M1217.507 745.279l27.641-23.2a108.257 108.257 0 00-84.818-101.077l-20.441 17.154a140.653 140.653 0 0177.618 107.118z"/><path id="Path_156" data-name="Path 156" d="M1139.983 505.246a89.639 89.639 0 0064.269 20.466l6.1 24.056a101.342 101.342 0 003.591 53.857 99.237 99.237 0 0025.492 39.136 91.664 91.664 0 0010.412 8.258 329.332 329.332 0 01-193.884 28.005 229.181 229.181 0 0042.008-89.761 125.026 125.026 0 0129.8-59.243z"/><path id="Path_157" data-name="Path 157" d="M1318.139 359.292h-.017c-1.2-3.087-6.637-6.142-9.081-7.415.695-1.667 8.045-19.522 5.117-23.023a5.394 5.394 0 00-2.843-1.751 5.072 5.072 0 00-2.113-.091c-2.382.524-3.3 4.926-3.8 7.259-.7 3.245-1.791 7.982-3.465 14.24l-3.7-.807a72.162 72.162 0 002.842-15.754 71.441 71.441 0 000-9.559c-.071-.267-1.109-3.907-4.121-4.578a5.081 5.081 0 00-2.966.313c-2.45 1.125-3.392 4.535-3.856 12.747a138.5 138.5 0 000 15.484h-5.969c.165-8.1.045-14.978-.142-20.331-.057-1.621-.251-10.148-3.553-11.848a6.393 6.393 0 00-3.321-.7 5.909 5.909 0 00-2.345.875c-4.344 2.914-2.817 13.045-2.435 15.574a97.766 97.766 0 004.405 17.773l-3.553.673c-.635-1.612-5.2-13.085-9.522-18.581a11.437 11.437 0 00-3.695-3.1c-.674-.352-4.189-2.193-6.68-.808a5 5 0 00-1.989 2.559c-.874 2.377 14.463 22.935 15.633 24.505a22.309 22.309 0 00-1.26 3.275 21.9 21.9 0 00-.774 3.831v.007a54.377 54.377 0 00-9.361-2.292c-4.711-.711-8.065-1.178-11.938.179-1.7.6-6.571 2.3-7.2 6.1a6.877 6.877 0 001.7 5.206 49.831 49.831 0 0114.591.718 48.861 48.861 0 0110.284 3.267l-.024.17.312-.043.04.017a13.567 13.567 0 002.085 8.8c.821 1.214 1.754 2.1 5.874 5.206 2.784 2.1 5.284 3.9 7.39 5.386q.38 6.1.758 12.207l35.969-1.523a101.487 101.487 0 004.309-18.671c2.375-17.893-1.579-25.495-1.586-25.496z"/><path id="Path_158" data-name="Path 158" d="M1203.544 526.614l59.961-62.474q6.282-31.6 12.566-63.192a76.9 76.9 0 0043.086-2.513 251.09 251.09 0 01-8.977 51.343c-3.495 12.234-6.168 21.351-12.566 31.956-6.459 10.7-14.3 18.925-28.724 30.518a371.1 371.1 0 01-62.115 40.213z"/><path id="Path_159" data-name="Path 159" d="M1060.637 394.867c-.155-16.763.083-29.5.35-35.389.075-1.673.288-4.737 2.423-7a9.877 9.877 0 015.655-2.693c13.715-2.553 11.5-3.6 19.029-4.129a73.468 73.468 0 0122.62 1.975l-1.077 6.822a49.532 49.532 0 0111.31-3.232c4.462-.711 7.641-1.177 11.31.18 1.613.6 6.225 2.3 6.822 6.1a7.113 7.113 0 01-1.616 5.206 44.582 44.582 0 00-23.876 4.129 14.145 14.145 0 01-1.975 8.8c-1.19 1.857-2.655 3-5.565 5.206a72.49 72.49 0 01-8.161 5.341l.1 4.712a86.024 86.024 0 01-11.23 2.962 87.172 87.172 0 01-26.119 1.01z"/><path id="Path_160" data-name="Path 160" d="M1060.644 387.664c-.005 3.993-.019 16.136 0 33.391.023 21.382.149 32.308 5.745 43.8 1.489 3.06 3.147 5.511 6.462 10.413a183.066 183.066 0 0030.16 34.109 191.12 191.12 0 0025.492 19.029l7.54 9.7 14-22.62q-11.757-12.26-24.415-24.774-13.421-13.252-26.569-25.493l-1.077-74.322a57.515 57.515 0 01-37.341-3.231z"/><path id="Path_161" data-name="Path 161" d="M1163.657 264.1h6.591l3.428 89.44-148.183-2.14z"/><path id="Path_162" data-name="Path 162" d="M1159.058 264.1h6.642l3.95 86.524-148.376 3.644z"/><path id="Path_163" data-name="Path 163" d="M1018.312 274.834l2.962 79.439 147.3-5.116-5.386-93.172-144.875 6.732z"/><g id="Group_71" data-name="Group 71"><path id="Path_164" data-name="Path 164" d="M1346.463 258c2.009 9.666.044 14.367-2.155 16.875-2.747 3.135-6.113 3.137-7.18 6.463-1.117 3.48 1.068 8.156 4.667 10.412a11.132 11.132 0 0011.131 0c6.333-3.586 7.117-13.045 5.744-19.029-2.198-9.581-10.788-14.014-12.207-14.721z"/><ellipse id="Ellipse_2" data-name="Ellipse 2" cx="6.161" cy="3.59" rx="6.161" ry="3.59" transform="translate(1340.06 253.575)"/><path id="Path_165" data-name="Path 165" d="M1312.452 237.507a32.257 32.257 0 0116.7 2.693 32.945 32.945 0 0115.8 15.8c1.032-.02 2.362-.2 2.872-1.077 1.515-2.6-5.018-9.932-11.489-14.182-2.363-1.552-10.8-6.918-21.723-5.566a29.008 29.008 0 00-5.565 1.257z"/><path id="Path_166" data-name="Path 166" d="M1350.073 259.906c-1.045.646 6.749 9.654 5 19.446-1.152 6.455-6.046 10.983-9.823 13.726 1.791.13 7.87.346 11.81-3.753 6.151-6.4 1.523-17.526.595-19.758-2.479-5.961-6.847-10.116-7.582-9.661z"/><path id="Path_167" data-name="Path 167" d="M1352.206 256.33a3.97 3.97 0 01-1.11 3.449 2.914 2.914 0 01-1.093.545l-1.967-6.315a3.535 3.535 0 014.17 2.321z"/></g><path id="Path_168" data-name="Path 168" d="M1195.978 281.835l43.445-75.759 76.118 30.519-40.932 69.3z"/><path id="Path_169" data-name="Path 169" d="M1244.18 274.115q-3.1-6.327-6.193-12.656a35.623 35.623 0 0116.426-19.388c13.544-7.279 26.765-2.643 28.813-1.885l6.733 13.195 1.615 5.385a32.263 32.263 0 01-43.085 20.735z"/><ellipse id="Ellipse_3" data-name="Ellipse 3" cx="23.524" cy="12.423" rx="23.524" ry="12.423" transform="rotate(-20.272 1360.594 -3340.74)"/><path id="Path_171" data-name="Path 171" d="M1279.243 401.608c2.113.052 18.937.181 30.435-13.675 10.06-12.123 8.727-26.137 8.444-28.646a63.444 63.444 0 012.321 12.457 65.164 65.164 0 01-3.725 27.513 77.008 77.008 0 01-37.475 2.351z"/><path id="Path_172" data-name="Path 172" d="M1236.6 363.361a8.9 8.9 0 011.847-3.164c3.153-3.429 8.34-3.185 13.167-2.957a42.573 42.573 0 0113.112 2.754c10.118-3.8 19.938-1.625 23.943 4.376a13.479 13.479 0 012.019 8.618 19.184 19.184 0 00-8.213-10.5c-8.087-4.84-16.6-1.331-17.5-.943a42.8 42.8 0 00-28.372 1.818z"/><path id="Path_173" data-name="Path 173" d="M1251.34 328.445a5.493 5.493 0 012.6-2.807c2.9-1.3 6.311 1.126 7.849 2.219 3.723 2.644 5.436 6.076 7.68 10.707a62.5 62.5 0 013.761 9.808c-.961-2.916-4.221-11.49-13.007-16.63a27.725 27.725 0 00-8.883-3.297z"/><path id="Path_174" data-name="Path 174" d="M1273.919 315.141c2.684-1.685 4.485-1.734 5.706-1.321 7.85 2.656 4.964 28.928 4.545 32.532-.185-5.81-.6-10.748-1.017-14.565-1.1-10.114-2.271-13.368-4.947-15.195a8.931 8.931 0 00-4.287-1.451z"/><path id="Path_175" data-name="Path 175" d="M1292.839 318.945a9.142 9.142 0 013.734 2.475c2.4 2.709 2.283 6.241 2.154 10.412-.2 6.328-.348 11.443-.487 15.867a162.484 162.484 0 003.094-16.226c.534-3.877.991-8.256-1.294-11.4a5.2 5.2 0 00-3.079-2.263 5.285 5.285 0 00-4.122 1.135z"/><path id="Path_176" data-name="Path 176" d="M1309.2 327.007c2.426-.118 3.691.577 4.39 1.269 2.337 2.31.979 7.174-.94 13.748a77.714 77.714 0 01-3.611 9.848c.876-3.9 1.833-8.356 2.938-13.809.567-2.8 1.114-5.706-.416-8.43a8.367 8.367 0 00-2.361-2.626z"/><path id="Path_177" data-name="Path 177" d="M1139.021 357.21a10.26 10.26 0 00-2.25-3.418c-3.029-3.005-7.2-3.118-10.655-3.161a36.5 36.5 0 00-16.519 3.908c-9.851-2.346-19.289.4-23.784 6.914a17.144 17.144 0 00-2.873 9.156 22.484 22.484 0 018.977-11.669 22.915 22.915 0 0117.434-2.851 56.7 56.7 0 0129.67 1.121z"/><path id="Path_178" data-name="Path 178" d="M1093.827 680.375a141.344 141.344 0 0124.554-88.687 786.73 786.73 0 00-16.476 54.758q-4.56 17.429-8.078 33.929z"/><path id="Path_179" data-name="Path 179" d="M1139.8 675.079a175.821 175.821 0 018.932-87.61 617.968 617.968 0 01-8.932 87.61z"/><path id="Path_180" data-name="Path 180" d="M1184.543 664.952a128.025 128.025 0 01-5.76-22.445 130.311 130.311 0 011.338-48.179 266.147 266.147 0 015.054 56.775q-.137 7.12-.632 13.849z"/><rect id="Rectangle_80" data-name="Rectangle 80" width="13.198" height="74.681" rx="3" transform="rotate(-3.552 4876.517 -18074.071)"/><g id="Group_72" data-name="Group 72"><path id="Path_181" data-name="Path 181" d="M1152.444 448.887c-.987-.661-6.908-4.5-12.742-2.275a7.53 7.53 0 00-3.576 2.464c-2.7 3.631-1.08 9.893 2.32 13.452a13.391 13.391 0 009.083 3.847l4.915-17.488z"/></g><g id="Group_74" data-name="Group 74"><g id="Group_73" data-name="Group 73"><path id="Path_182" data-name="Path 182" d="M1212.407 454.407c1.073-.508 7.5-3.432 12.937-.367a7.525 7.525 0 013.173 2.966c2.138 3.991-.394 9.943-4.283 12.96a13.391 13.391 0 01-9.552 2.463l-2.275-18.022z"/></g><path id="Path_183" data-name="Path 183" d="M1155.143 430.325c-2.254 2.526-2.422 4.36-5.848 21.107-2.356 11.522-2.907 13.738-2.83 18.233s.235 9.376 3.05 14.538a26.35 26.35 0 008.906 9.22c14.981 10.37 32.85 6.132 36.645 5.232a24.259 24.259 0 006.527-2.466 25.821 25.821 0 009.59-9.911c1.436-2.442 4.9-9.09 4.723-23.846-.178-14.739-.266-22.109-5.254-28.572-10.857-14.067-33.515-10.844-39.388-10.009-6.049.86-11.935 1.781-16.121 6.474z"/><path id="Path_184" data-name="Path 184" d="M1149.3 451.432a58.07 58.07 0 00-4.54-12.432 20.2 20.2 0 01-2.753-8.614 16.99 16.99 0 01.316-4.256 39.935 39.935 0 01-12.043-20.636c-.91-4.277-2.371-11.142 1.325-17.784.886-1.593 3.8-6.833 10.078-8.547a16.18 16.18 0 0110.7.943 62.175 62.175 0 0119.272 20.613c-.679-1.25-4.192-7.983-1.447-14.271a10.2 10.2 0 013.272-4.331c3.03-2.237 6.556-1.908 8.392-1.737a19.941 19.941 0 018.325 3.127c9.468 6.346 10.819 22.459 10.918 23.828.566-2.9 1.978-7.971 5.715-11.379a5.067 5.067 0 012.919-1.553c2.884-.295 5.309 2.827 6.466 4.317 5.345 6.882 4.461 18.748 4.087 22.435 2.654 1.736 7.363 5.4 7.762 10.649a10.207 10.207 0 01-.6 4.2c-2.993 8.755-10.014 23.269-11.555 26.437a53.873 53.873 0 00-2.382-17.587 53.238 53.238 0 00-3.883-9.289 13.368 13.368 0 01-15.5-5.873 42.388 42.388 0 01-36.734 3.909 56.7 56.7 0 00-8.113 17.84z"/><path id="Path_185" data-name="Path 185" d="M1170.558 478.341a33.991 33.991 0 0020.011-.578c.1.536.785 4.775-2.042 7.618-2.041 2.054-4.709 2.166-6.757 2.252-1.889.08-5.311.224-8.094-2.273a10.081 10.081 0 01-3.118-7.019z"/><circle id="Ellipse_4" data-name="Ellipse 4" cx="10.359" cy="10.359" r="10.359" transform="translate(1149.53 456.944)"/><circle id="Ellipse_5" data-name="Ellipse 5" cx="10.359" cy="10.359" r="10.359" transform="translate(1192.519 459.619)"/><path id="Path_186" data-name="Path 186" d="M1181.543 454.445l-2.721 12.781a2.11 2.11 0 001.967 1.327 2.224 2.224 0 001.751-1.05l-.997-13.058z"/><path id="Path_187" data-name="Path 187" d="M1156.841 447.272a18.805 18.805 0 0113.849-6.348 13.21 13.21 0 011.474 2.667c.645 1.57.992 2.415.663 3-.607 1.077-2.71-.139-6.515.3-3.569.415-5.277 1.9-8.138.969a7.205 7.205 0 01-1.333-.588z"/><path id="Path_188" data-name="Path 188" d="M1207.051 449.941a18.8 18.8 0 00-12.759-8.325 13.273 13.273 0 00-1.852 2.419c-.869 1.458-1.337 2.242-1.1 2.87.441 1.154 2.7.262 6.4 1.262 3.469.938 4.938 2.659 7.905 2.161a7.134 7.134 0 001.406-.387z"/><ellipse id="Ellipse_6" data-name="Ellipse 6" cx="2.842" cy="1.717" rx="2.842" ry="1.717" transform="rotate(-85.75 827.881 -399.151)"/><ellipse id="Ellipse_7" data-name="Ellipse 7" cx="2.842" cy="1.717" rx="2.842" ry="1.717" transform="rotate(-85.75 842.967 -414.079)"/><path id="Path_189" data-name="Path 189" d="M1171.053 481.082l19.347 1.072a7.453 7.453 0 01-1.836 3.242c-2.059 2.086-4.822 2.184-6.758 2.252-1.92.067-5.348.188-8.093-2.274a9.336 9.336 0 01-2.66-4.292z"/><path id="Path_190" data-name="Path 190" d="M1173.676 485.36a17.9 17.9 0 0114.2.64 9.534 9.534 0 01-1.814 1.166 11.8 11.8 0 01-10.828-.7 11.418 11.418 0 01-1.558-1.106z"/><path id="Path_192" data-name="Path 192" d="M1154.885 515.3a133.981 133.981 0 0049.367 10.414c-.328 1.017-4.632 13.618-17.772 17.329-1.412.4-13.376 3.552-23.158-4.713-10.422-8.808-8.554-22.286-8.437-23.03z"/><path id="Path_193" data-name="Path 193" d="M1170.584 496.638l-2.385 17.529-8.07 3.2a18.066 18.066 0 0032.949 7.647l-6.078-9.745 1.12-17.721z"/><path id="Path_194" data-name="Path 194" d="M1170.285 498.834l-.942 6.92 17.95 5.233.687-11.067a33.961 33.961 0 01-17.695-1.086z"/><path id="Path_195" data-name="Path 195" d="M1160.129 517.369l-14.914 28.569 27.218-13.759q-6.153-7.404-12.304-14.81z"/><path id="Path_196" data-name="Path 196" d="M1193.078 525.016l-.934 32.473-19.711-25.31z"/><path id="Path_197" data-name="Path 197" d="M1167.63 534.6l4.8-2.424q2.041 2.739 4.084 5.476l-3.341 5.613a23.545 23.545 0 01-6.416-2.525z"/><path id="Path_198" data-name="Path 198" d="M1160.129 517.369l12.954 12.26 19.995-4.613-20.645 7.163z"/><path id="Path_199" data-name="Path 199" d="M1112.449 374.074a58.163 58.163 0 01-25.918 7.845q.769 5.277 1.541 10.554l9.913-1.578.574-4.578a31.094 31.094 0 0011.4-8.664 29.56 29.56 0 002.49-3.579z"/><path id="Path_200" data-name="Path 200" d="M1097.985 390.895a55.867 55.867 0 01-9.915 1.578l10.99 72.744z"/><path id="Path_201" data-name="Path 201" d="M1098.908 464.679l-1.885 21.543 6.415-16.906z"/><path id="Path_202" data-name="Path 202" d="M1319.157 398.435a239.592 239.592 0 01-4.5 32.992c-3.315 15.945-6.6 31.724-15.659 47.925-11.275 20.152-26.059 31.238-44.078 44.749a243.73 243.73 0 01-44.75 26.583l-1.345-6.937a195.2 195.2 0 0026.979-14.662c15.405-10.018 43.1-28.044 59.329-61.893 11.79-24.589 13.222-48.548 12.163-65.481a93.403 93.403 0 0011.861-3.276z"/><path id="Path_203" data-name="Path 203" d="M1055.967 679.024c7.055.246 81.792 1.626 123.916-57.083 21.784-30.361 24.507-62.382 24.774-77.015l18.888-8.493q-6.686 7.127-13.372 14.251l-.842 4.988a105.873 105.873 0 0040.52 95.347 329.463 329.463 0 01-193.884 28.005z"/><path id="Path_204" data-name="Path 204" d="M1263.63 463.467l1.622 21.864-6.258-16.491z"/><path id="Path_205" data-name="Path 205" d="M1108.869 578.8c.264 1.472 16.7-3.077 40.931-.539a147.137 147.137 0 0140.393 10.233c-7.031-5.912-19.489-14.537-36.623-17.234-23.87-3.76-45.005 5.84-44.701 7.54z"/></g><path id="Path_206" data-name="Path 206" d="M1101.536 339.411a11.35 11.35 0 01-5.762-3.375c-1.632-1.565-3.344-3.048-5.051-4.532a1.328 1.328 0 01-.484-1.59c.049-.146-.069-.351-.11-.528-.16.108-.433.194-.459.328-.144.734-.487.562-.88.233q-7.469-6.258-14.935-12.518c-1.81-1.516-3.716-2.929-5.43-4.546-2.771-2.613-5.945-4.722-8.774-7.262-2.852-2.56-5.876-4.93-8.719-7.5a18.143 18.143 0 01-2.237-3.055l-.181-2.072a15.241 15.241 0 011.451-2.806c4.437-5.487 8.942-10.92 13.426-16.369a11.512 11.512 0 014.315-3.694l2.39-.209a12.937 12.937 0 015.612 3.5c2.709 2.479 5.538 4.825 8.3 7.244.515.45.892 1.258 1.461 1.4 1.2.309 1.841 1.243 2.672 1.939 4.552 3.812 9.063 7.671 13.576 11.529 1.244 1.063 2.407 2.222 3.672 3.257 1.872 1.532 3.824 2.965 5.7 4.489 2.956 2.4 5.869 4.85 8.821 7.254a10.313 10.313 0 012.849 3.588l.195 2.23a9.537 9.537 0 01-2.582 4.606 33.262 33.262 0 00-2.934 3.155 160.835 160.835 0 01-10.655 12.641 7.824 7.824 0 01-3.34 2.495zm-32.253-65.064a6.687 6.687 0 00-1.355.924c-2.243 2.62-4.446 5.275-6.669 7.912a.558.558 0 01-.379.189c-.08 0-.243-.2-.224-.278.218-.931-.588-.7-1.05-1.035l.05.565a2 2 0 00-.314-.231 2.42 2.42 0 00-.558-.173c-.048-.008-.187.2-.171.223a1.912 1.912 0 00.478.476 3.354 3.354 0 00.707.223l-.1.316-1.694-.553c-.351.852.747 1.265.889 2.057-.693.019-.81.395-.677.962a1.112 1.112 0 01.023.722 16.573 16.573 0 01-1.117 1.521c-1.217 1.551-2.454 3.087-3.659 4.648a1.278 1.278 0 00-.025 1.777c1.4 1.152 2.8 2.3 4.189 3.459q11.679 9.789 23.351 19.585c.933.783 1.857 1.577 2.788 2.363 3.034 2.563 6.075 5.117 9.1 7.693.392.334 1.029.527.935 1.257-.007.055.232.174.371.21.577.149 1.16.258 1.095 1.081-.009.11.261.34.41.348a1.641 1.641 0 011.369.935 9.83 9.83 0 001.182 1.295l.214-.1a8.757 8.757 0 00.864.669 15.184 15.184 0 011.578.852 1.625 1.625 0 001.926.229 5.1 5.1 0 001.356-1.087q6.259-7.515 12.477-15.066c.408-.493.855-.956 1.226-1.475a1.316 1.316 0 00-.088-1.875c-.7-.7-1.332-1.465-2.087-2.09-2.236-1.854-4.55-3.614-6.764-5.492a22.934 22.934 0 01-2.073-2.373c-.449-.5-.606-1.253-1.466-1.417a4.017 4.017 0 01-1.761-.811c-3.58-3-7.12-6.048-10.672-9.081-1.2-1.025-2.383-2.068-3.6-3.071-1.059-.871-2.165-1.684-3.229-2.547-.448-.364-.816-.827-1.27-1.182-1.461-1.143-2.977-2.217-4.411-3.393-1.628-1.334-3.156-2.788-4.788-4.118-2.094-1.701-3.969-3.696-6.377-5.043zm35.359 62.291l1.233-.849c-.329-.228-.6-.536-.916-.6a1.743 1.743 0 00-1.18.124c-.325.2-.705.641-.173 1.118l.55-.458c.1 1.538.217 1.67 1.063 1.26z"/><g id="Group_76" data-name="Group 76"><g id="Group_75" data-name="Group 75"><path id="Path_207" data-name="Path 207" d="M1072.262 295.687l-1.243 1.48q-2.352 2.8-4.987.592t-.284-5.015l4.865-5.8q2.352-2.8 4.988-.59t.282 5.014l-.909 1.082-1.67-1.4 1-1.194q.922-1.1.007-1.867t-1.839.33l-5.052 6.019q-.909 1.083.008 1.851t1.825-.314l1.336-1.592z"/><path id="Path_208" data-name="Path 208" d="M1073.866 306.667l1.256-1.5-3.777-3.167-1.256 1.5-1.72-1.443 2.566-3.057.691.579a3.233 3.233 0 001.65-1.084l7.231-7.8 4.949 4.154-8.044 9.586.771.648-2.566 3.057zm1.173-6.75a2.867 2.867 0 01-1.741 1.062l2.314 1.943 6.708-7.994-1.494-1.254z"/><path id="Path_209" data-name="Path 209" d="M1083.735 312.4l-1.783-1.5 1.391-2.279-2.169-1.82-2 1.766-1.623-1.362 11.155-9.636 2.587 2.171zm-1.067-6.92l1.7 1.429 3.879-6.351z"/><path id="Path_210" data-name="Path 210" d="M1086.483 314.7l-1.768-1.483 9.355-11.147 1.767 1.483-4.009 4.778 2.01 1.685 4.009-4.777 1.8 1.511-9.354 11.147-1.8-1.511 4.009-4.777-2.009-1.686z"/><path id="Path_211" data-name="Path 211" d="M1098.7 310.522a3.786 3.786 0 012.427-1.49 4.017 4.017 0 013.987 3.345 3.792 3.792 0 01-1.047 2.65l-4.865 5.8a3.783 3.783 0 01-2.427 1.49 4.019 4.019 0 01-3.986-3.345 3.785 3.785 0 011.047-2.65zm-3.19 7.392q-.922 1.1-.006 1.867t1.838-.33l5.051-6.019q.922-1.1.007-1.867t-1.839.33z"/><path id="Path_212" data-name="Path 212" d="M1101.414 324.359l-1.414 1.688-1.7-1.43 1.417-1.687zm-.855-2.048l3.156-4.217 3.9-4.65 1.768 1.484-3.9 4.649-3.606 3.84z"/></g></g><path id="Path_214" data-name="Path 214" d="M1288.823 575.02l59.533 72.439 104.213-93.172-48.451-78.85-115.295 99.583z"/><path id="Path_215" data-name="Path 215" d="M1304.242 597.557l117.946-96.808a13.061 13.061 0 013.292 4.69c7.541 18.845-35.613 52.162-48.127 61.823a268.484 268.484 0 01-67.688 37.9z"/><path id="Path_216" data-name="Path 216" d="M1314.54 538l-11.669-14.362a7.944 7.944 0 011.077-9.694l39.854-32.674a9.06 9.06 0 016.1-1.077 8.879 8.879 0 014.308 2.155l10.054 11.489-7.54 6.1-4.668-7.9a6.755 6.755 0 00-3.95-2.514 6.465 6.465 0 00-3.949.719c-1.014.494-33.452 16.317-29.621 29.621a8.68 8.68 0 001.615 3.052l6.822 6.822z"/><path id="Path_217" data-name="Path 217" d="M1311.774 534.764L1300.1 520.4a7.944 7.944 0 011.077-9.694l39.854-32.673a9.053 9.053 0 016.1-1.078 8.888 8.888 0 014.308 2.155l10.061 11.49-7.54 6.1-4.668-7.9a6.749 6.749 0 00-3.949-2.513 6.468 6.468 0 00-3.95.718c-1.014.494-33.452 16.317-29.621 29.621a8.669 8.669 0 001.616 3.052l6.821 6.822z"/><path id="Path_218" data-name="Path 218" d="M1306.4 600.991l-24.774-32.852a19.177 19.177 0 01-1.077-10.772c1.35-6.382 6.19-10.309 8.079-11.848 9.214-7.509 44.116-36.374 92.095-75.4 4.6-2.477 11.872-5.409 18.311-2.692 4.075 1.719 6.187 5.013 7.54 7 4.06 5.964 10.811 14.152 22.62 23.7A193.779 193.779 0 011306.4 600.991z"/><rect id="Rectangle_81" data-name="Rectangle 81" width="11.849" height="25.851" rx="5.168" transform="rotate(-40.55 1434.585 -1569.793)"/></g><path id="Path_219" data-name="Path 219" d="M1136.956 768.216l-35.932-3.3a108.259 108.259 0 0112.079-131.4l40.37 3.9a104.73 104.73 0 00-31.517 59.965c-5.515 36.619 10.617 63.909 15 70.835z" fill="#005daa"/><path id="Path_220" data-name="Path 220" d="M1213.425 744.761l27.641-23.2a108.258 108.258 0 00-84.818-101.076l-20.442 17.153a140.662 140.662 0 0177.619 107.118z" fill="#005daa"/><path id="Path_221" data-name="Path 221" d="M1135.9 504.729a89.633 89.633 0 0064.269 20.465l6.1 24.056a101.348 101.348 0 003.59 53.857 99.235 99.235 0 0025.493 39.136 91.524 91.524 0 0010.412 8.258 329.322 329.322 0 01-193.885 28.006 229.178 229.178 0 0042.009-89.762 125.029 125.029 0 0129.8-59.242z" fill="#303030"/><path id="Path_222" data-name="Path 222" d="M1314.057 358.774h-.017c-1.2-3.087-6.637-6.142-9.081-7.414.7-1.668 8.044-19.523 5.116-23.024a5.392 5.392 0 00-2.842-1.75 5.056 5.056 0 00-2.113-.091c-2.382.524-3.3 4.926-3.8 7.258-.7 3.246-1.791 7.982-3.465 14.241l-3.7-.808a72.163 72.163 0 002.845-15.758 71.435 71.435 0 000-9.56c-.071-.266-1.109-3.906-4.121-4.578a5.091 5.091 0 00-2.966.313c-2.45 1.125-3.392 4.536-3.856 12.748a138.526 138.526 0 000 15.484h-5.969c.165-8.1.045-14.978-.142-20.331-.057-1.621-.251-10.148-3.553-11.849a6.4 6.4 0 00-3.321-.7 5.927 5.927 0 00-2.345.875c-4.345 2.914-2.817 13.046-2.435 15.575a97.756 97.756 0 004.405 17.773l-3.553.673c-.635-1.612-5.2-13.084-9.522-18.58a11.423 11.423 0 00-3.695-3.1c-.674-.353-4.189-2.193-6.68-.808a5 5 0 00-1.989 2.558c-.874 2.377 14.463 22.935 15.633 24.505a22.412 22.412 0 00-1.26 3.275 21.9 21.9 0 00-.774 3.832v.006a54.562 54.562 0 00-9.361-2.292c-4.711-.711-8.065-1.177-11.939.18-1.7.6-6.57 2.3-7.2 6.1a6.881 6.881 0 001.705 5.207 49.8 49.8 0 0114.591.718 48.8 48.8 0 0110.284 3.267l-.024.17.312-.044.04.018a13.571 13.571 0 002.084 8.8c.822 1.215 1.755 2.1 5.875 5.206 2.784 2.1 5.284 3.9 7.39 5.386l.758 12.208 35.969-1.524a101.475 101.475 0 004.309-18.67c2.364-17.891-1.586-25.493-1.593-25.495z" fill="#f5bba7"/><path id="Path_223" data-name="Path 223" d="M1199.462 526.1l59.96-62.474 12.567-63.192a76.88 76.88 0 0043.085-2.514 251.027 251.027 0 01-8.976 51.344c-3.495 12.233-6.168 21.351-12.566 31.955-6.459 10.7-14.3 18.925-28.724 30.519a371.225 371.225 0 01-62.115 40.213z" fill="#303030"/><path id="Path_224" data-name="Path 224" d="M1056.555 394.349c-.155-16.763.083-29.5.349-35.388.076-1.674.289-4.738 2.424-7a9.864 9.864 0 015.655-2.693c13.715-2.553 11.495-3.6 19.029-4.129a73.472 73.472 0 0122.62 1.974l-1.077 6.822a49.572 49.572 0 0111.31-3.231c4.462-.711 7.641-1.178 11.31.179 1.613.6 6.225 2.3 6.822 6.1a7.109 7.109 0 01-1.616 5.206 44.581 44.581 0 00-23.876 4.129 14.145 14.145 0 01-1.975 8.8c-1.19 1.857-2.655 3-5.565 5.206a72.436 72.436 0 01-8.161 5.341l.1 4.712a85.961 85.961 0 01-11.229 2.963 87.2 87.2 0 01-26.12 1.009z" fill="#f5bba7"/><path id="Path_225" data-name="Path 225" d="M1056.562 387.146c-.006 3.993-.019 16.137 0 33.391.023 21.383.149 32.309 5.744 43.8 1.49 3.059 3.148 5.51 6.463 10.412a183.026 183.026 0 0030.16 34.109 191.14 191.14 0 0025.492 19.03q3.771 4.846 7.54 9.694l14-22.62q-11.757-12.26-24.415-24.774-13.42-13.252-26.569-25.492l-1.078-74.323a57.5 57.5 0 01-37.34-3.231z" fill="#303030"/><path id="Path_227" data-name="Path 227" d="M1159.574 263.586h6.592l3.428 89.441-148.183-2.145z" fill="#fff"/><path id="Path_228" data-name="Path 228" d="M1154.976 263.586h6.642l3.949 86.524-148.376 3.644z" fill="#9b9b9b"/><path id="Path_229" data-name="Path 229" d="M1014.23 274.316l2.962 79.439 147.3-5.116-5.386-93.172-144.876 6.733z" fill="#ffce00"/><g id="Group_78" data-name="Group 78"><path id="Path_230" data-name="Path 230" d="M1342.381 257.485c2.009 9.666.043 14.367-2.155 16.875-2.747 3.135-6.114 3.138-7.181 6.463-1.116 3.48 1.068 8.157 4.668 10.413a11.135 11.135 0 0011.13 0c6.334-3.586 7.117-13.046 5.745-19.03-2.198-9.583-10.788-14.017-12.207-14.721z" fill="#ffe457"/><ellipse id="Ellipse_8" data-name="Ellipse 8" cx="6.161" cy="3.59" rx="6.161" ry="3.59" transform="translate(1335.978 253.057)" fill="#ffe457"/><path id="Path_231" data-name="Path 231" d="M1308.37 236.99a32.244 32.244 0 0116.7 2.692 32.949 32.949 0 0115.8 15.8c1.032-.02 2.362-.2 2.872-1.077 1.515-2.6-5.018-9.932-11.489-14.182-2.363-1.552-10.8-6.917-21.723-5.565a29.019 29.019 0 00-5.565 1.256z" fill="#ffe464"/><path id="Path_232" data-name="Path 232" d="M1345.991 259.388c-1.045.646 6.749 9.654 5 19.447-1.152 6.455-6.046 10.983-9.823 13.726 1.791.129 7.87.346 11.81-3.753 6.15-6.4 1.523-17.527.595-19.759-2.479-5.96-6.847-10.116-7.582-9.661z" fill="#ffc650"/><path id="Path_233" data-name="Path 233" d="M1348.124 255.812a3.967 3.967 0 01-1.111 3.449 2.9 2.9 0 01-1.092.545l-1.967-6.314a3.533 3.533 0 014.17 2.32z" fill="#ffc650"/></g><path id="Path_234" data-name="Path 234" d="M1191.9 281.317l43.445-75.758 76.117 30.519-40.931 69.295z" fill="#171717"/><path id="Path_235" data-name="Path 235" d="M1240.1 273.6l-6.193-12.657a35.618 35.618 0 0116.426-19.388c13.544-7.279 26.765-2.642 28.813-1.885l6.732 13.2q.809 2.692 1.616 5.386a32.263 32.263 0 01-43.085 20.735z" fill="#313131"/><ellipse id="Ellipse_9" data-name="Ellipse 9" cx="23.524" cy="12.423" rx="23.524" ry="12.423" transform="rotate(-20.272 1357.104 -3329.583)" fill="#1f1f1f"/><path id="Path_237" data-name="Path 237" d="M1275.161 401.09c2.113.052 18.937.182 30.435-13.675 10.06-12.123 8.727-26.136 8.444-28.646a63.458 63.458 0 012.321 12.457 65.17 65.17 0 01-3.725 27.514 76.991 76.991 0 01-37.475 2.35z" fill="#e2a498"/><path id="Path_238" data-name="Path 238" d="M1232.523 362.844a8.9 8.9 0 011.847-3.165c3.153-3.428 8.34-3.184 13.167-2.957a42.574 42.574 0 0113.112 2.754c10.118-3.8 19.938-1.625 23.942 4.377a13.476 13.476 0 012.02 8.617 19.192 19.192 0 00-8.213-10.5c-8.087-4.84-16.6-1.331-17.5-.943a42.784 42.784 0 00-28.371 1.819z" fill="#e2a498"/><path id="Path_239" data-name="Path 239" d="M1247.258 327.927a5.49 5.49 0 012.6-2.806c2.9-1.3 6.311 1.126 7.849 2.218 3.723 2.644 5.436 6.076 7.68 10.708a62.506 62.506 0 013.761 9.807c-.962-2.915-4.221-11.489-13.007-16.629a27.707 27.707 0 00-8.883-3.298z" fill="#e2a498"/><path id="Path_240" data-name="Path 240" d="M1269.837 314.623c2.683-1.685 4.485-1.734 5.706-1.321 7.85 2.656 4.963 28.929 4.545 32.533a189.94 189.94 0 00-1.017-14.565c-1.1-10.115-2.271-13.368-4.947-15.195a8.923 8.923 0 00-4.287-1.452z" fill="#e2a498"/><path id="Path_241" data-name="Path 241" d="M1288.757 318.427a9.134 9.134 0 013.733 2.475c2.4 2.71 2.284 6.242 2.155 10.412-.2 6.328-.348 11.443-.487 15.867a162.47 162.47 0 003.094-16.225c.534-3.878.991-8.257-1.295-11.4a5.194 5.194 0 00-3.078-2.264 5.289 5.289 0 00-4.122 1.135z" fill="#e2a498"/><path id="Path_242" data-name="Path 242" d="M1305.12 326.49c2.425-.119 3.69.577 4.39 1.268 2.337 2.311.979 7.175-.94 13.748a77.716 77.716 0 01-3.611 9.849c.876-3.9 1.833-8.356 2.938-13.81.567-2.8 1.114-5.706-.416-8.43a8.371 8.371 0 00-2.361-2.625z" fill="#e2a498"/><path id="Path_243" data-name="Path 243" d="M1134.939 356.693a10.277 10.277 0 00-2.25-3.419c-3.029-3-7.2-3.118-10.656-3.161a36.505 36.505 0 00-16.519 3.909c-9.85-2.347-19.288.4-23.783 6.914a17.142 17.142 0 00-2.873 9.155 22.481 22.481 0 018.977-11.669 22.92 22.92 0 0117.434-2.851 56.711 56.711 0 0129.67 1.122z" fill="#e2a498"/><path id="Path_244" data-name="Path 244" d="M1089.745 679.858a141.339 141.339 0 0124.554-88.687 786.698 786.698 0 00-16.476 54.757q-4.56 17.429-8.078 33.93z" fill="#171717"/><path id="Path_245" data-name="Path 245" d="M1135.72 674.561a175.791 175.791 0 018.932-87.61 618.354 618.354 0 01-8.932 87.61z" fill="#171717"/><path id="Path_246" data-name="Path 246" d="M1180.461 664.435a128.059 128.059 0 01-5.76-22.445 130.308 130.308 0 011.338-48.179 266.07 266.07 0 015.053 56.774q-.135 7.122-.631 13.85z" fill="#171717"/><rect id="Rectangle_82" data-name="Rectangle 82" width="21.17" height="60.647" rx="3" transform="rotate(-3.552 4953.306 -17977.476)" fill="#fff"/><g id="Group_79" data-name="Group 79"><path id="Path_247" data-name="Path 247" d="M1148.361 448.37c-.986-.661-6.907-4.5-12.741-2.275a7.518 7.518 0 00-3.576 2.464c-2.7 3.631-1.08 9.892 2.32 13.451a13.385 13.385 0 009.083 3.847z" fill="#f59b9b"/><path id="Path_248" data-name="Path 248" d="M1133.954 454.137a6.046 6.046 0 0110.153-3.6" fill="none" stroke="#de7681" stroke-miterlimit="10" stroke-width="2"/><path id="Path_249" data-name="Path 249" d="M1138.547 449.05a7.013 7.013 0 00-.942 3.094c-.2 3.594 2.6 6.013 3 6.346" fill="none" stroke="#e07883" stroke-miterlimit="10" stroke-width="2"/></g><g id="Group_81" data-name="Group 81"><g id="Group_80" data-name="Group 80"><path id="Path_250" data-name="Path 250" d="M1208.325 453.889c1.073-.508 7.5-3.431 12.937-.366a7.516 7.516 0 013.173 2.965c2.138 3.991-.394 9.943-4.283 12.961a13.389 13.389 0 01-9.552 2.462l-2.275-18.022z" fill="#f59b9b"/><path id="Path_251" data-name="Path 251" d="M1221.721 461.723a6.046 6.046 0 00-9.51-5.059" fill="none" stroke="#de7681" stroke-miterlimit="10" stroke-width="2"/><path id="Path_252" data-name="Path 252" d="M1217.931 456.013a7.018 7.018 0 01.474 3.2c-.331 3.585-3.458 5.563-3.9 5.833" fill="none" stroke="#e07883" stroke-miterlimit="10" stroke-width="2"/></g><path id="Path_253" data-name="Path 253" d="M1151.061 429.808c-2.254 2.526-2.422 4.359-5.848 21.107-2.356 11.521-2.907 13.737-2.83 18.232s.235 9.376 3.05 14.539a26.345 26.345 0 008.906 9.219c14.981 10.371 32.85 6.132 36.645 5.232a24.223 24.223 0 006.527-2.466 25.82 25.82 0 009.59-9.91c1.436-2.442 4.9-9.09 4.723-23.847-.178-14.739-.266-22.109-5.254-28.571-10.857-14.068-33.516-10.845-39.388-10.01-6.049.861-11.935 1.781-16.121 6.475z" fill="#f5bba7"/><path id="Path_254" data-name="Path 254" d="M1145.213 450.915a58.177 58.177 0 00-4.535-12.436 20.191 20.191 0 01-2.753-8.615 16.972 16.972 0 01.316-4.255 39.94 39.94 0 01-12.043-20.637c-.91-4.277-2.371-11.141 1.325-17.784.886-1.593 3.8-6.832 10.078-8.546a16.166 16.166 0 0110.7.943 62.175 62.175 0 0119.272 20.613c-.679-1.25-4.192-7.983-1.447-14.272a10.2 10.2 0 013.272-4.331c3.03-2.237 6.556-1.908 8.392-1.737a19.958 19.958 0 018.325 3.127c9.468 6.346 10.819 22.46 10.918 23.829.566-2.9 1.978-7.971 5.715-11.379a5.074 5.074 0 012.919-1.554c2.884-.3 5.309 2.828 6.466 4.317 5.345 6.882 4.461 18.749 4.087 22.435 2.654 1.736 7.363 5.4 7.762 10.649a10.2 10.2 0 01-.6 4.195c-2.993 8.755-10.015 23.269-11.555 26.437a53.87 53.87 0 00-2.382-17.587 53.3 53.3 0 00-3.883-9.289 13.364 13.364 0 01-15.5-5.873 42.388 42.388 0 01-36.734 3.909 56.721 56.721 0 00-8.113 17.841z" fill="#352d55"/><path id="Path_255" data-name="Path 255" d="M1166.476 477.823a33.991 33.991 0 0020.011-.578c.1.536.784 4.775-2.042 7.619-2.041 2.053-4.709 2.166-6.757 2.252-1.889.079-5.311.223-8.094-2.274a10.081 10.081 0 01-3.118-7.019z" fill="#f7f7f7"/><circle id="Ellipse_10" data-name="Ellipse 10" cx="10.359" cy="10.359" r="10.359" transform="translate(1145.448 456.427)" fill="#f3aba1"/><circle id="Ellipse_11" data-name="Ellipse 11" cx="10.359" cy="10.359" r="10.359" transform="translate(1188.437 459.101)" fill="#f3aba1"/><path id="Path_256" data-name="Path 256" d="M1177.461 453.927l-2.721 12.782a2.11 2.11 0 001.967 1.326 2.216 2.216 0 001.75-1.05l-.996-13.058z" fill="#f3aba1"/><path id="Path_257" data-name="Path 257" d="M1152.759 446.755a18.8 18.8 0 0113.849-6.348 13.242 13.242 0 011.474 2.667c.645 1.57.992 2.415.662 3-.606 1.077-2.71-.14-6.514.3-3.569.416-5.277 1.9-8.138.97a7.171 7.171 0 01-1.333-.589z" fill="#352d55"/><path id="Path_258" data-name="Path 258" d="M1202.969 449.423a18.808 18.808 0 00-12.759-8.325 13.317 13.317 0 00-1.852 2.42c-.87 1.457-1.338 2.242-1.1 2.869.441 1.155 2.7.262 6.4 1.262 3.469.939 4.938 2.66 7.905 2.162a7.121 7.121 0 001.406-.388z" fill="#352d55"/><ellipse id="Ellipse_12" data-name="Ellipse 12" cx="2.842" cy="1.717" rx="2.842" ry="1.717" transform="rotate(-85.75 825.562 -397.212)" fill="#352d55"/><ellipse id="Ellipse_13" data-name="Ellipse 13" cx="2.842" cy="1.717" rx="2.842" ry="1.717" transform="rotate(-85.75 840.647 -412.14)" fill="#352d55"/><path id="Path_259" data-name="Path 259" d="M1166.971 480.565l19.347 1.071a7.447 7.447 0 01-1.836 3.242c-2.059 2.086-4.822 2.185-6.758 2.252-1.921.067-5.348.189-8.093-2.274a9.329 9.329 0 01-2.66-4.291z" fill="#352d55"/><path id="Path_260" data-name="Path 260" d="M1169.594 484.842a17.9 17.9 0 0114.2.64 9.528 9.528 0 01-1.814 1.166 11.8 11.8 0 01-10.828-.7 11.5 11.5 0 01-1.558-1.106z" fill="#f14659"/><path id="Path_262" data-name="Path 262" d="M1150.8 514.78a133.994 133.994 0 0049.368 10.414c-.328 1.018-4.632 13.618-17.772 17.329-1.412.4-13.376 3.552-23.158-4.713-10.422-8.81-8.552-22.284-8.438-23.03z" fill="#f2f2f2"/><path id="Path_263" data-name="Path 263" d="M1166.5 496.121l-2.385 17.528-8.07 3.2A18.066 18.066 0 001189 524.5l-6.075-9.748 1.12-17.72z" fill="#f5bba7"/><path id="Path_264" data-name="Path 264" d="M1166.2 498.317l-.942 6.92 17.95 5.233.687-11.068a33.975 33.975 0 01-17.695-1.085z" fill="#f39d99"/><path id="Path_265" data-name="Path 265" d="M1156.047 516.852q-7.456 14.285-14.914 28.568l27.217-13.758z" fill="#fff"/><path id="Path_266" data-name="Path 266" d="M1189 524.5l-.934 32.472-19.712-25.309z" fill="#fff"/><path id="Path_267" data-name="Path 267" d="M1163.548 534.085l4.8-2.423 4.085 5.475-3.341 5.613a23.59 23.59 0 01-6.416-2.524z" fill="#0080ff"/><path id="Path_268" data-name="Path 268" d="M1156.047 516.852l12.953 12.26 20-4.612-20.645 7.163z" fill="#f39d99"/><path id="Path_269" data-name="Path 269" d="M1108.366 373.557a58.135 58.135 0 01-25.917 7.844l1.541 10.554 9.912-1.578.575-4.577a31.114 31.114 0 0011.4-8.664 29.513 29.513 0 002.489-3.579z" fill="#e2a498"/><path id="Path_270" data-name="Path 270" d="M1093.9 390.377a55.884 55.884 0 01-9.915 1.578l10.99 72.745q-.534-37.161-1.075-74.323z" fill="#141414"/><path id="Path_271" data-name="Path 271" d="M1094.826 464.161l-1.885 21.543 6.415-16.906z" fill="#141414"/><path id="Path_272" data-name="Path 272" d="M1315.074 397.917a239.406 239.406 0 01-4.5 32.993c-3.315 15.945-6.595 31.723-15.659 47.924-11.275 20.152-26.059 31.238-44.078 44.749a243.778 243.778 0 01-44.75 26.584l-1.345-6.938a195.08 195.08 0 0026.979-14.662c15.405-10.018 43.1-28.044 59.329-61.892 11.79-24.59 13.222-48.548 12.163-65.481 1.9-.392 3.9-.868 6-1.447s4.041-1.195 5.861-1.83z" fill="#141414"/><path id="Path_273" data-name="Path 273" d="M1051.884 678.507c7.056.246 81.793 1.626 123.917-57.084 21.784-30.361 24.507-62.382 24.774-77.015l18.888-8.492-13.372 14.251-.842 4.987a105.873 105.873 0 0040.52 95.347 329.477 329.477 0 01-193.885 28.006z" fill="#141414"/><path id="Path_274" data-name="Path 274" d="M1259.548 462.95q.812 10.93 1.622 21.863l-6.258-16.491z" fill="#141414"/><path id="Path_275" data-name="Path 275" d="M1104.787 578.278c.263 1.472 16.7-3.077 40.931-.539a147.173 147.173 0 0140.393 10.233c-7.031-5.911-19.489-14.537-36.623-17.234-23.867-3.757-45.005 5.845-44.701 7.54z" fill="#141414"/></g></g></g></g><text id="Отчет_по_практике" data-name="Отчет по практике" transform="rotate(86.61 408.603 754.933)" fill="#2b2b82" font-size="19.146" font-family="Helvetica"><tspan x="-43.461" y="0">Отчет по </tspan><tspan x="-42.157" y="13.827">практике</tspan></text><path id="Path_277" data-name="Path 277" d="M1097.454 338.894a11.355 11.355 0 01-5.762-3.376c-1.632-1.565-3.344-3.047-5.051-4.532a1.329 1.329 0 01-.485-1.589c.05-.147-.068-.351-.109-.529-.16.108-.433.194-.459.328-.144.735-.487.563-.881.233l-14.934-12.517c-1.81-1.516-3.716-2.93-5.43-4.546-2.771-2.613-5.945-4.722-8.774-7.262-2.852-2.561-5.876-4.931-8.719-7.5a18.2 18.2 0 01-2.238-3.056l-.181-2.071a15.37 15.37 0 011.451-2.807c4.438-5.487 8.943-10.919 13.427-16.368a11.5 11.5 0 014.315-3.694l2.389-.209a12.933 12.933 0 015.613 3.5c2.709 2.479 5.538 4.826 8.3 7.244.515.45.892 1.258 1.461 1.4 1.2.309 1.841 1.244 2.672 1.94 4.552 3.811 9.063 7.67 13.576 11.528 1.244 1.063 2.407 2.222 3.672 3.257 1.872 1.532 3.824 2.965 5.7 4.489 2.956 2.4 5.869 4.851 8.821 7.255a10.31 10.31 0 012.849 3.587l.194 2.231a9.524 9.524 0 01-2.581 4.605 33.537 33.537 0 00-2.935 3.156 160.621 160.621 0 01-10.654 12.64 7.823 7.823 0 01-3.34 2.5zm-32.254-65.065a6.765 6.765 0 00-1.355.924c-2.243 2.62-4.446 5.275-6.669 7.912a.558.558 0 01-.379.189c-.08 0-.243-.2-.225-.278.219-.931-.588-.7-1.049-1.035l.05.565a1.951 1.951 0 00-.314-.23 2.473 2.473 0 00-.558-.174c-.048-.007-.187.205-.171.223a1.894 1.894 0 00.478.476 3.412 3.412 0 00.707.224l-.1.315-1.694-.552c-.351.851.747 1.264.889 2.057-.693.018-.81.395-.677.961a1.106 1.106 0 01.022.722 16.292 16.292 0 01-1.116 1.521c-1.217 1.551-2.454 3.088-3.659 4.648a1.278 1.278 0 00-.025 1.777c1.4 1.153 2.8 2.3 4.189 3.46q11.679 9.787 23.351 19.584c.933.784 1.857 1.578 2.788 2.364 3.034 2.562 6.075 5.116 9.1 7.693.392.333 1.029.526.935 1.256-.007.055.232.175.371.211.577.149 1.16.257 1.1 1.08-.009.11.261.341.41.348a1.643 1.643 0 011.369.935 9.909 9.909 0 001.182 1.3l.214-.1a8.492 8.492 0 00.864.669 15.178 15.178 0 011.578.853 1.623 1.623 0 001.926.228 5.043 5.043 0 001.355-1.087q6.261-7.515 12.478-15.066c.408-.492.855-.956 1.226-1.474a1.316 1.316 0 00-.088-1.875c-.7-.7-1.332-1.465-2.087-2.091-2.236-1.853-4.55-3.613-6.764-5.492a22.844 22.844 0 01-2.073-2.373c-.449-.5-.606-1.252-1.466-1.417a4.026 4.026 0 01-1.761-.81c-3.58-3-7.12-6.048-10.672-9.082-1.2-1.024-2.383-2.068-3.6-3.07-1.059-.871-2.165-1.684-3.229-2.548-.448-.363-.816-.827-1.27-1.182-1.461-1.143-2.977-2.217-4.411-3.392-1.628-1.334-3.157-2.789-4.788-4.118-2.098-1.707-3.973-3.701-6.382-5.049zm35.359 62.291l1.233-.849c-.33-.228-.6-.535-.917-.6a1.741 1.741 0 00-1.179.124c-.325.206-.705.642-.173 1.118l.55-.457c.1 1.538.217 1.669 1.063 1.259z" fill="#2b2b82"/><g id="Group_86" data-name="Group 86"><g id="Group_85" data-name="Group 85" fill="#2b2b82"><path id="Path_278" data-name="Path 278" d="M1068.18 295.169l-1.243 1.481q-2.352 2.8-4.987.591t-.284-5.014l4.865-5.8q2.352-2.8 4.988-.591t.282 5.014l-.909 1.083-1.67-1.4 1-1.194q.922-1.1.006-1.867t-1.838.33l-5.052 6.019q-.909 1.083.008 1.851t1.825-.314l1.336-1.592z"/><path id="Path_279" data-name="Path 279" d="M1069.784 306.15l1.256-1.5-3.777-3.169-1.256 1.5-1.72-1.443 2.566-3.058.691.579a3.23 3.23 0 001.65-1.084l7.231-7.8 4.949 4.155-8.045 9.586.772.647-2.566 3.058zm1.173-6.751a2.875 2.875 0 01-1.741 1.063l2.314 1.942 6.708-7.993-1.495-1.255z"/><path id="Path_280" data-name="Path 280" d="M1079.653 311.882l-1.783-1.5 1.391-2.279-2.169-1.821-2 1.766-1.623-1.361 11.155-9.637 2.587 2.171zm-1.067-6.921l1.7 1.43 3.879-6.352z"/><path id="Path_281" data-name="Path 281" d="M1082.4 314.188l-1.768-1.484 9.355-11.147 1.767 1.484-4.009 4.777 2.01 1.686 4.009-4.777 1.8 1.511-9.354 11.146-1.8-1.511 4.009-4.777-2.009-1.685z"/><path id="Path_282" data-name="Path 282" d="M1094.621 310.005a3.788 3.788 0 012.427-1.491 4.02 4.02 0 013.987 3.345 3.793 3.793 0 01-1.047 2.65l-4.865 5.8a3.782 3.782 0 01-2.427 1.489 4.017 4.017 0 01-3.986-3.344 3.788 3.788 0 011.046-2.65zm-3.191 7.391q-.923 1.1-.005 1.868t1.838-.331l5.051-6.018q.922-1.1.007-1.868t-1.839.33z"/><path id="Path_283" data-name="Path 283" d="M1097.332 323.842l-1.416 1.688-1.7-1.43 1.417-1.688zm-.855-2.049l3.156-4.217 3.9-4.649 1.768 1.483-3.9 4.65-3.601 3.84z"/></g></g><path id="Path_285" data-name="Path 285" d="M1284.741 574.5a283.64 283.64 0 0160.383 75.65q55.07-47.617 110.137-95.237l-55.225-80z" fill="#823500"/><path id="Path_286" data-name="Path 286" d="M1300.16 597.039l117.946-96.807a13.055 13.055 0 013.292 4.689c7.541 18.845-35.613 52.162-48.127 61.824a268.512 268.512 0 01-67.688 37.9q-2.712-3.801-5.423-7.606z" fill="#6d2d01"/><path id="Path_287" data-name="Path 287" d="M1310.458 537.479l-11.669-14.362a7.944 7.944 0 011.077-9.694l39.854-32.673a9.049 9.049 0 016.1-1.077 8.879 8.879 0 014.308 2.154l10.053 11.489-7.539 6.1-4.668-7.9a6.749 6.749 0 00-3.95-2.513 6.473 6.473 0 00-3.949.718c-1.014.494-33.452 16.318-29.621 29.621a8.682 8.682 0 001.615 3.052l6.822 6.822z" fill="#933b00"/><path id="Path_288" data-name="Path 288" d="M1307.692 534.246q-5.835-7.18-11.669-14.362a7.945 7.945 0 011.077-9.694l39.854-32.673a9.06 9.06 0 016.1-1.077 8.879 8.879 0 014.308 2.154l10.054 11.49-7.54 6.1-4.668-7.9a6.75 6.75 0 00-3.95-2.513 6.473 6.473 0 00-3.949.718c-1.014.495-33.452 16.318-29.621 29.621a8.682 8.682 0 001.615 3.052l6.822 6.822z" fill="#6d2d01"/><path id="Path_289" data-name="Path 289" d="M1345.124 650.152a548.674 548.674 0 00-26.659-42.547 548.707 548.707 0 00-41.465-52.69l53.041 88.774z" fill="#6d2d01"/><path id="Path_290" data-name="Path 290" d="M1302.314 600.474l-24.774-32.853a19.173 19.173 0 01-1.077-10.771c1.35-6.383 6.19-10.31 8.078-11.849 9.215-7.509 44.117-36.374 92.1-75.4 4.6-2.477 11.872-5.41 18.311-2.693 4.075 1.719 6.187 5.014 7.54 7 4.06 5.964 10.811 14.153 22.62 23.7a193.777 193.777 0 01-122.794 102.867z" fill="#e8991c"/><rect id="Rectangle_83" data-name="Rectangle 83" width="15.1" height="32.945" rx="6" transform="rotate(-40.5 1429.439 -1559.201)" fill="#e8e8e8"/><path id="Path_291" data-name="Path 291" d="M1346.465 649.164l108.8-94.249a436.071 436.071 0 00-108.8 94.249z" fill="#6d2d01"/><g id="Group_88" data-name="Group 88"><g id="Group_87" data-name="Group 87" fill="#282828"><path id="Path_292" data-name="Path 292" d="M819.346 517.972a4.378 4.378 0 012.256-2.291 3.457 3.457 0 012.939.109 3.422 3.422 0 011.931 2.233 4.568 4.568 0 01-.412 3.261l-1.069 2.239 4.88 2.332-1.11 2.324-11.636-5.558zm4.722 2.964a2.531 2.531 0 00.281-1.648 1.624 1.624 0 00-.972-1.1q-1.608-.768-2.627 1.368l-.757 1.584 3.24 1.548z"/><path id="Path_293" data-name="Path 293" d="M827.162 511.428a4.21 4.21 0 011.819-2.019 2.359 2.359 0 012.168.086l3.76 1.912q.435.222.622-.143a1.271 1.271 0 00.091-.494 2.143 2.143 0 00-.057-.613l1.169.6a4.494 4.494 0 01-.372 2.337 1.891 1.891 0 01-.62.771 1.112 1.112 0 01-.856.1 4.738 4.738 0 01-.4 2.825 2.372 2.372 0 01-1.31 1.191 1.961 1.961 0 01-1.655-.065 2.3 2.3 0 01-1.259-1.412 5.906 5.906 0 01.086-2.654l.384-1.936-.354-.179q-1.126-.573-1.844.838a3.905 3.905 0 00-.411 1.6 4.582 4.582 0 00.284 1.782l-1.818-.925a5.54 5.54 0 01.573-3.602zm5.126 4.214a.979.979 0 00.816.066 1.093 1.093 0 00.6-.554 2.356 2.356 0 00.092-1.688l-2.024-1.029a11 11 0 00-.155 1.649 2.816 2.816 0 00.145.995 1.048 1.048 0 00.526.561z"/><path id="Path_294" data-name="Path 294" d="M832.175 504.875a3.64 3.64 0 01-.315-1.748 4.447 4.447 0 01.548-1.694 4 4 0 011.5-1.578 3.9 3.9 0 012.11-.536 4.911 4.911 0 012.25.614 4.549 4.549 0 011.775 1.647 4.1 4.1 0 01.592 2.272 5.56 5.56 0 01-.717 2.524 4.327 4.327 0 01-2.918 2.368 6.11 6.11 0 01-4.193-.861 12.73 12.73 0 01-2.282-1.535 6.4 6.4 0 01-1.436-1.72 5.337 5.337 0 01-.629-1.972 7.148 7.148 0 01.208-2.464 25.333 25.333 0 011.431-3.922l1.61 1.119-.719 1.737a6.014 6.014 0 00-.55 3.369 3.852 3.852 0 001.735 2.38zm2.684 1.363a3.264 3.264 0 002.123.469 2.082 2.082 0 001.473-1.163 2.239 2.239 0 00.215-1.933 3.222 3.222 0 00-1.589-1.563 2.987 2.987 0 00-2.056-.411 2.1 2.1 0 00-1.433 1.14 2.256 2.256 0 00-.176 1.917 2.907 2.907 0 001.443 1.544z"/><path id="Path_295" data-name="Path 295" d="M837.528 492.271a5.62 5.62 0 011.749-1.911 4.18 4.18 0 012.244-.735 4.315 4.315 0 012.3.609 4.508 4.508 0 011.735 1.686 4.132 4.132 0 01.5 2.313 5.608 5.608 0 01-.769 2.5 5.539 5.539 0 01-1.774 1.918 4.141 4.141 0 01-2.245.718 4.514 4.514 0 01-2.33-.652 4.187 4.187 0 01-2.175-4 5.55 5.55 0 01.765-2.446zm2.64 4.315a3.079 3.079 0 002.114.462 2.18 2.18 0 001.542-1.133 2.292 2.292 0 00.259-1.932 3.073 3.073 0 00-1.5-1.625 2.872 2.872 0 00-2.087-.435 2.333 2.333 0 00-1.517 1.2 2.209 2.209 0 00-.21 1.884 2.915 2.915 0 001.399 1.579z"/><path id="Path_296" data-name="Path 296" d="M845.171 479.785l1.49.907-1.637 2.69 5.875 3.575-1.22 2.005-5.875-3.574-1.632 2.681-1.49-.907z"/><path id="Path_297" data-name="Path 297" d="M847.6 475.665a4.2 4.2 0 012.009-1.831 2.357 2.357 0 012.148.3l3.554 2.273q.413.264.633-.082a1.258 1.258 0 00.14-.483 2.151 2.151 0 000-.615l1.1.706a4.508 4.508 0 01-.6 2.29 1.9 1.9 0 01-.693.707 1.114 1.114 0 01-.861.01 4.75 4.75 0 01-.677 2.772 2.381 2.381 0 01-1.421 1.057 1.966 1.966 0 01-1.64-.227 2.308 2.308 0 01-1.115-1.529 5.928 5.928 0 01.347-2.633l.572-1.888-.335-.214q-1.065-.681-1.918.653a3.9 3.9 0 00-.566 1.553 4.55 4.55 0 00.108 1.8l-1.719-1.1a5.539 5.539 0 01.934-3.519zm4.689 4.7a.98.98 0 00.8.146 1.091 1.091 0 00.655-.493 2.353 2.353 0 00.257-1.67l-1.913-1.224a11.239 11.239 0 00-.317 1.627 2.8 2.8 0 00.048 1 1.048 1.048 0 00.469.611z"/><path id="Path_298" data-name="Path 298" d="M853.188 467.142a4.055 4.055 0 012.747-1.9 4.723 4.723 0 013.435.93l.282.19-3.52 5.234a2.63 2.63 0 001.972.252 3.116 3.116 0 001.665-1.359 4.683 4.683 0 00.669-1.5 7.106 7.106 0 00.189-1.81l1.4.942a6.563 6.563 0 01-1.232 3.749 4.887 4.887 0 01-2.941 2.173 4.229 4.229 0 01-3.457-.715 4.255 4.255 0 01-1.211-6.186zm4.093.281a2.447 2.447 0 00-1.552-.331 1.778 1.778 0 00-1.2.836 2 2 0 00-.375 1.467 2.47 2.47 0 00.86 1.4z"/><path id="Path_299" data-name="Path 299" d="M858.259 460.05l5.591.461-2.265-5.121 1.18-1.655 7.384 4.5-1.23 1.725-4.582-2.718 2.575 5.529-6.143-.608 4.12 3.444-1.225 1.716-6.63-5.551z"/><path id="Path_300" data-name="Path 300" d="M872.9 440.453l6.806 5.293-1.442 1.853-5.428-4.222-2.278 2.93 5.428 4.222-1.441 1.853-6.806-5.293z"/><path id="Path_301" data-name="Path 301" d="M877.119 434.994a5.611 5.611 0 012.039-1.6 4.18 4.18 0 012.335-.356 4.309 4.309 0 012.169.979 4.5 4.5 0 011.434 1.948 4.119 4.119 0 01.114 2.364 5.622 5.622 0 01-1.17 2.342 5.528 5.528 0 01-2.066 1.6 4.14 4.14 0 01-2.332.34 4.5 4.5 0 01-2.19-1.027 4.185 4.185 0 01-1.487-4.306 5.547 5.547 0 011.154-2.284zm1.894 4.69a3.081 3.081 0 002.01.8 2.177 2.177 0 001.706-.864 2.291 2.291 0 00.574-1.862 3.074 3.074 0 00-1.217-1.85 2.871 2.871 0 00-1.987-.773 2.336 2.336 0 00-1.694.937 2.2 2.2 0 00-.516 1.822 2.914 2.914 0 001.124 1.79z"/><path id="Path_302" data-name="Path 302" d="M887.95 422.562a4.149 4.149 0 012-1.357 1.822 1.822 0 011.779.371 1.906 1.906 0 01.637 1.112 2.287 2.287 0 01-.164 1.321 2.032 2.032 0 012.623 0 2.312 2.312 0 01.857 1.8 3.167 3.167 0 01-.919 2.061l-3.068 3.464-6.455-5.715zm2.272 2.878a1.969 1.969 0 00.558-1.042 1.034 1.034 0 00-.424-.878.808.808 0 00-.848-.178 2.39 2.39 0 00-.961.717l-.715.807 1.624 1.438zm2.949 2.114q.973-1.1.082-1.889a.884.884 0 00-.885-.192 2.469 2.469 0 00-1.08.8l-.823.928 1.693 1.5z"/><path id="Path_303" data-name="Path 303" d="M894.436 415.173a6.632 6.632 0 012.338-1.671l1.416 1.311a4.859 4.859 0 00-2.122 1.26 2.74 2.74 0 00-.8 1.935 2.879 2.879 0 002.873 2.651 2.825 2.825 0 001.932-1 6.8 6.8 0 001.212-2.207l1.348 1.248a7.727 7.727 0 01-1.538 2.464 5.1 5.1 0 01-3.269 1.766 4.054 4.054 0 01-3.255-1.173 4.361 4.361 0 01-1.534-3.22 4.766 4.766 0 011.399-3.364z"/><path id="Path_304" data-name="Path 304" d="M900.567 408.716a4.061 4.061 0 013.039-1.387 4.724 4.724 0 013.217 1.522l.246.237-4.389 4.53a2.63 2.63 0 001.9.6 3.119 3.119 0 001.878-1.043 4.723 4.723 0 00.923-1.357 7.183 7.183 0 00.5-1.75l1.213 1.176a6.557 6.557 0 01-1.873 3.472 4.89 4.89 0 01-3.278 1.621 4.227 4.227 0 01-3.277-1.314 4.254 4.254 0 01-.1-6.3zm3.98 1a2.453 2.453 0 00-1.469-.6 1.776 1.776 0 00-1.331.611 1.993 1.993 0 00-.627 1.378 2.47 2.47 0 00.6 1.53z"/><path id="Path_305" data-name="Path 305" d="M904.25 399.585a1.592 1.592 0 002.19-2.154l1.2-1.178a3.382 3.382 0 01.681 2.211 2.991 2.991 0 01-.927 2.057 3.131 3.131 0 01-2.056.959 3.588 3.588 0 01-2.284-.717zm2.36 3.245l3.728 3.792-.257-7.2.891-.876 6.045 6.148-1.586 1.559-3.579-3.641.147 7.145-.865.85-6.11-6.214z"/><path id="Path_306" data-name="Path 306" d="M917.935 386.212a4.376 4.376 0 012.953-1.27 3.457 3.457 0 012.681 1.21 3.417 3.417 0 01.945 2.8 4.569 4.569 0 01-1.612 2.865l-1.835 1.669 3.64 4-1.906 1.734-8.678-9.538zm3.254 4.526a2.529 2.529 0 00.882-1.42 1.622 1.622 0 00-.483-1.388q-1.2-1.318-2.95.275l-1.3 1.181 2.416 2.656z"/><path id="Path_307" data-name="Path 307" d="M928.281 382.542a5.605 5.605 0 012.282-1.228 4.183 4.183 0 012.36.046 4.318 4.318 0 011.972 1.333 4.527 4.527 0 011.083 2.164 4.141 4.141 0 01-.291 2.35 5.617 5.617 0 01-1.551 2.108 5.538 5.538 0 01-2.308 1.226 4.137 4.137 0 01-2.355-.062 4.518 4.518 0 01-1.985-1.384 4.181 4.181 0 01-.733-4.5 5.546 5.546 0 011.526-2.053zm1.07 4.943a3.082 3.082 0 001.843 1.134 2.183 2.183 0 001.829-.561 2.294 2.294 0 00.882-1.739 3.08 3.08 0 00-.884-2.03 2.874 2.874 0 00-1.827-1.1 2.332 2.332 0 00-1.829.635 2.207 2.207 0 00-.819 1.708 2.919 2.919 0 00.805 1.953z"/><path id="Path_308" data-name="Path 308" d="M936.881 375.3a6.633 6.633 0 012.543-1.34l1.227 1.488a4.875 4.875 0 00-2.273.963 2.735 2.735 0 00-1.056 1.81 2.876 2.876 0 002.489 3.014 2.823 2.823 0 002.049-.732 6.773 6.773 0 001.5-2.023l1.168 1.418a7.708 7.708 0 01-1.856 2.234 5.092 5.092 0 01-3.477 1.31 4.053 4.053 0 01-3.067-1.6 4.356 4.356 0 01-1.086-3.4 4.764 4.764 0 011.839-3.142z"/><path id="Path_309" data-name="Path 309" d="M944.093 369.512a6.628 6.628 0 012.571-1.287l1.194 1.515a4.866 4.866 0 00-2.292.914 2.739 2.739 0 00-1.095 1.786 2.876 2.876 0 002.425 3.067 2.821 2.821 0 002.064-.688 6.8 6.8 0 001.54-1.99l1.138 1.442a7.742 7.742 0 01-1.9 2.194 5.1 5.1 0 01-3.5 1.236 4.052 4.052 0 01-3.032-1.665 4.359 4.359 0 01-1.015-3.42 4.765 4.765 0 011.902-3.104z"/><path id="Path_310" data-name="Path 310" d="M949.824 365.293l3.2 4.249.694-7.174 1-.751 5.182 6.89-1.777 1.336-3.068-4.079-.8 7.1-.968.728-5.237-6.964z"/><path id="Path_311" data-name="Path 311" d="M958.519 358.862l3.089 4.327.871-7.155 1.018-.726 5.01 7.017-1.811 1.291-2.965-4.154-.972 7.079-.987.7-5.063-7.091z"/></g></g><g id="Group_89" data-name="Group 89" opacity=".17"><path id="Path_312" data-name="Path 312" d="M976.764 544.242c1.691 1.591 3.368 3.2 5.077 4.77a828.298 828.298 0 019.944 9.263 426.176 426.176 0 005.7 5.292q3.066 2.811 6.088 5.666c1.278 1.206 2.613 2.353 3.85 3.6a2.217 2.217 0 00.6.425.461.461 0 01-.17.351c-.851.893-1.685 1.8-2.552 2.681-1.289 1.308-2.428 2.758-3.778 4.009q-1.92-1.8-3.842-3.594c-2.006-1.872-4-3.758-6.028-5.607-1.28-1.167-2.542-2.352-3.809-3.532-2.026-1.887-4.057-3.766-6.074-5.662q-1.917-1.8-3.855-3.584-2.972-2.75-5.928-5.516a15.886 15.886 0 01-1.771-1.738c.954-1.017 1.882-2.061 2.87-3.044 1.248-1.238 2.308-2.659 3.678-3.78z"/><path id="Path_313" data-name="Path 313" d="M1001.524 580.3c1.35-1.251 2.489-2.7 3.778-4.009.867-.878 1.7-1.788 2.552-2.681a.461.461 0 00.17-.351 1.482 1.482 0 00.164-.118c1.043-.985 1.016-.957 2.045 0 2.093 1.953 4.217 3.874 6.274 5.867 1.051 1.017 2.157 1.978 3.231 2.972 1.9 1.76 3.79 3.536 5.7 5.285a6.212 6.212 0 012.109 4.946 5.988 5.988 0 01-4.847 6.063 5.722 5.722 0 01-4.31-.456 14.635 14.635 0 01-2.2-1.639l-2.334-2.147-2.758-2.585q-3.395-3.187-6.788-6.375c-1.116-1.043-2.232-2.087-3.38-3.094-.449-.394-.362-.684 0-1.037.21-.197.397-.423.594-.641z"/><path id="Path_314" data-name="Path 314" d="M1013.857 594.038l2.334 2.147a11.9 11.9 0 00-1.841 1.885c-.2.26-.186.4.028.622a6.772 6.772 0 011.013 1.092 1.39 1.39 0 01-.2 1.787 1.537 1.537 0 01-1.852.292 16.085 16.085 0 01-2.07-1.843c-1.757-1.558-3.41-3.232-5.14-4.822q-4.039-3.714-8.031-7.478c-1.28-1.208-2.616-2.358-3.86-3.607a1.7 1.7 0 01-.307-2.3 1.765 1.765 0 012.437.085c.66.616 1.309 1.244 1.976 1.853 1.784 1.631 3.5 3.338 5.279 4.974 1.962 1.8 3.92 3.607 5.859 5.435.623.588 1.265 1.159 1.869 1.769.278.281.545.362.784.012.486-.713 1.199-1.221 1.722-1.903z"/><path id="Path_315" data-name="Path 315" d="M976.764 544.242c-1.37 1.121-2.43 2.542-3.677 3.783-.988.983-1.916 2.027-2.87 3.044a14.153 14.153 0 01-2.946-3.128 18.291 18.291 0 01-2.135-3.666 6.054 6.054 0 01-.35-2.658 2.622 2.622 0 011.8-2.068 1 1 0 00.27-.173 11.531 11.531 0 016.8 2.315 28.16 28.16 0 013.108 2.551z"/><path id="Path_316" data-name="Path 316" d="M966.856 539.376a1 1 0 01-.27.173 2.622 2.622 0 00-1.8 2.068 34.731 34.731 0 01-2.583-2.375 1.723 1.723 0 01-.335-1.758 1.429 1.429 0 011.455-.8 1.959 1.959 0 011.212.521c.773.725 1.496 1.501 2.321 2.171z"/></g><g id="Group_90" data-name="Group 90"><path id="Path_317" data-name="Path 317" d="M975.193 544.242c1.691 1.591 3.368 3.2 5.077 4.77a820.771 820.771 0 019.944 9.263c1.88 1.785 3.787 3.54 5.7 5.292q3.066 2.811 6.088 5.666c1.279 1.206 2.613 2.353 3.85 3.6a2.232 2.232 0 00.6.425.463.463 0 01-.169.351c-.851.893-1.686 1.8-2.552 2.681-1.29 1.308-2.428 2.758-3.778 4.009q-1.922-1.8-3.843-3.594c-2.006-1.872-4-3.758-6.027-5.607-1.281-1.167-2.543-2.352-3.81-3.532-2.025-1.887-4.057-3.766-6.074-5.662a725.877 725.877 0 00-3.854-3.584q-2.973-2.75-5.928-5.516a15.807 15.807 0 01-1.772-1.738c.954-1.017 1.882-2.061 2.87-3.044 1.248-1.238 2.309-2.659 3.678-3.78z" fill="#40464f"/><path id="Path_318" data-name="Path 318" d="M999.954 580.3c1.35-1.251 2.488-2.7 3.778-4.009.866-.878 1.7-1.788 2.552-2.681a.463.463 0 00.169-.351 1.482 1.482 0 00.164-.118c1.043-.985 1.016-.957 2.045 0 2.093 1.953 4.217 3.874 6.274 5.867 1.051 1.017 2.157 1.978 3.231 2.972 1.9 1.76 3.79 3.536 5.7 5.285a6.213 6.213 0 012.109 4.946 5.988 5.988 0 01-4.847 6.063 5.72 5.72 0 01-4.309-.456 14.694 14.694 0 01-2.2-1.639l-2.334-2.147-2.758-2.585q-3.395-3.187-6.788-6.375c-1.116-1.043-2.231-2.087-3.379-3.094-.45-.394-.362-.684 0-1.037.209-.197.396-.423.593-.641z"/><path id="Path_319" data-name="Path 319" d="M1012.286 594.038l2.334 2.147a11.894 11.894 0 00-1.841 1.885c-.2.26-.186.4.029.622a6.764 6.764 0 011.012 1.092 1.389 1.389 0 01-.2 1.787 1.536 1.536 0 01-1.852.292 16.226 16.226 0 01-2.07-1.843c-1.756-1.558-3.41-3.232-5.139-4.822q-4.039-3.714-8.032-7.478c-1.28-1.208-2.616-2.358-3.859-3.607a1.7 1.7 0 01-.308-2.3 1.765 1.765 0 012.437.085c.661.616 1.309 1.244 1.976 1.853 1.785 1.631 3.5 3.338 5.279 4.974 1.962 1.8 3.92 3.607 5.859 5.435.624.588 1.266 1.159 1.869 1.769.278.281.546.362.784.012.487-.713 1.199-1.221 1.722-1.903z"/><path id="Path_320" data-name="Path 320" d="M975.193 544.242c-1.369 1.121-2.43 2.542-3.677 3.783-.988.983-1.916 2.027-2.87 3.044a14.147 14.147 0 01-2.945-3.128 18.249 18.249 0 01-2.136-3.666 6.039 6.039 0 01-.349-2.658 2.621 2.621 0 011.8-2.068.98.98 0 00.27-.173 11.537 11.537 0 016.8 2.315 28.15 28.15 0 013.107 2.551z" fill="#e5e5e5"/><path id="Path_321" data-name="Path 321" d="M965.285 539.376a.98.98 0 01-.27.173 2.621 2.621 0 00-1.8 2.068 34.529 34.529 0 01-2.584-2.375 1.728 1.728 0 01-.335-1.758 1.43 1.43 0 011.455-.8 1.962 1.962 0 011.213.521c.773.725 1.497 1.501 2.321 2.171z" fill="#235c87"/></g><path id="Path_322" data-name="Path 322" d="M1014.23 264.447v-11.585l144.46-6.008.6 11.835" fill="#383114"/><path id="Path_323" data-name="Path 323" d="M1311.434 597.688c-10.83-9.816-29.674-29.117-24.565-44.209 2.025-5.983 6.906-8.618 13.644-12.926 42.183-26.966 71.106-64.466 91.2-69.295 1.312-.316 6.111-1.339 6.1-2.689s-4.744-2.625-8.972-2.739a21.234 21.234 0 00-12.2 3.772l-92.1 75.4a19.064 19.064 0 00-3.471 3.221s-4.376 5.224-4.812 14.392c-.429 8.992 8.617 24.362 26.056 37.86z" fill="#efa335"/><g id="Group_92" data-name="Group 92"><path id="Path_324" data-name="Path 324" d="M999.8 645.4a16.223 16.223 0 00-6.5-5.958 16.041 16.041 0 00-8.547-2.331 16.382 16.382 0 00-8.936 2.979c-2.524 1.672-4.951 4.179-7.253 8.806-2.647 5.323-2.559 8.287-5.05 24.088-1.542 9.782-2.4 14.171-5.828 15.929a28.063 28.063 0 00-5.7 2.979 14.171 14.171 0 00-4.533 4.662 12.62 12.62 0 00-1.554 6.475l9.347 5.634.107.064v-.008l10.018 5.016a12.606 12.606 0 004.605-4.81 14.169 14.169 0 001.469-6.334 28.047 28.047 0 00-.577-6.4c-.378-3.837 2.851-6.929 10.245-13.518 11.941-10.643 14.481-12.172 17.526-17.279 2.647-4.439 3.442-7.836 3.484-10.863a16.539 16.539 0 00-2.323-9.131z" fill="#8e6547"/><rect id="Rectangle_84" data-name="Rectangle 84" width="26.937" height="2.631" rx="1.147" transform="rotate(28.497 -908.94 2209.193)"/><g id="Group_91" data-name="Group 91"><path id="Path_325" data-name="Path 325" d="M904.069 713.688l3.122-5.522 75.89 41.182-2.734 5.652z" fill="#2d2dba"/><path id="Path_326" data-name="Path 326" d="M905.122 707.213l79.257 43.125 5.18-18.131a3.81 3.81 0 000-2.331 4.1 4.1 0 00-1.3-1.684c-2.207-1.694-59.834-32.736-65.659-35.873a5.993 5.993 0 00-2.995-.388c-2.632.373-4.258 2.637-5.181 3.885-2.279 3.092-5.249 6.724-9.302 11.397z" fill="#bc6d2c"/><path id="Path_327" data-name="Path 327" d="M960.922 685.154a1202.138 1202.138 0 006.389-19.772c1.9-6.07 3.182-10.339 6.68-15.288 2.338-3.307 4.674-6.515 8.947-7.764 5-1.461 9.451.7 10.866 1.376a17.846 17.846 0 018.208 8.187 17.378 17.378 0 00-4.633-9.5 16.992 16.992 0 00-8.59-4.825 17.38 17.38 0 00-11.823 1.8c-4.948 2.67-7.1 6.943-8.4 9.529a28.487 28.487 0 00-2.725 8.912c-1.088 7.081-2.673 15.843-4.919 27.345z" fill="#af8061"/><path id="Path_328" data-name="Path 328" d="M907.191 708.166l-.435.768c16.782 9.462 29.022 16.284 38.625 21.59 3.962 2.188 9.181 5.062 15.864 9.583A179.191 179.191 0 01980.347 755l2.734-5.652z" fill="#16167f"/></g></g></g></svg>