<?xml version="1.0" encoding="utf-8"?><svg viewBox="0 0 139.433 40.394" xmlns="http://www.w3.org/2000/svg" xmlns:xlink="http://www.w3.org/1999/xlink"><style>:root>svg{display:none}:root>svg:target{display:block}</style><svg viewBox="0 0 54.221 23.114" id="logo" xmlns="http://www.w3.org/2000/svg"><g data-name="Group 67"><path data-name="Path 137" d="M43.387 22.862a1.43 1.43 0 01-.09-.059 1.27 1.27 0 01-.364-.363 3.739 3.739 0 01-.382-.771 4.884 4.884 0 01-.147-.474l-.048-.207-2.222-9.469a41.625 41.625 0 00-26.062.115q-1.17 4.433-2.047 9.093l-.1.492a3.362 3.362 0 01-.421 1.228 1.846 1.846 0 01-.364.364 1.187 1.187 0 01-.09.059l.085.252 1.1-.359a50.748 50.748 0 0130.035.03l1.034.329z"/><path data-name="Path 138" d="M8.583 22.854v-.3a1.376 1.376 0 01-.3-.206 1.438 1.438 0 01-.374-.529c-.025-.071-.051-.142-.075-.217a1.05 1.05 0 01-.015-.06 11.194 11.194 0 01-.53-3.721.972.972 0 00.345-.724 1.21 1.21 0 00-1.084-1.069l-.054-8.692-.554.192-4.484 1.526.022-.012a10.091 10.091 0 01-1.015.294c-.1.019-.2.027-.2.027a1.8 1.8 0 01-.211.006L0 9.594l1.008.351 4.873 1.694-.055 4.39a1.206 1.206 0 00-1.083 1.078.981.981 0 00.372.738 15.328 15.328 0 01-.788 3.991 1.427 1.427 0 01-.367.513 1.4 1.4 0 01-.3.206l-.005.314 1.01-.1a20.741 20.741 0 012.781-.012l.785.062.083.008z"/><path data-name="Path 139" d="M53.174 9.943l1.047-.352-.08-.254a1.806 1.806 0 01-.2.009 2.035 2.035 0 01-.338-.035 3.643 3.643 0 01-.471-.115v.007h-.01L27.683.509a.6.6 0 01-.394-.5h-.409a.719.719 0 01-.155.335.728.728 0 01-.192.164L14.926 4.47 7.26 7.087l.148 5.11 5.14 1.768.78-2.888a39.945 39.945 0 0127.569-.059l.715 3 11.539-4.064.022-.008z"/></g></svg><svg viewBox="0 0 28.059 27.214" id="star" xmlns="http://www.w3.org/2000/svg"><path data-name="Path 67" d="M4.848 24.825c.118-.53.17-.924.294-1.293 1.4-4.186.486-7.584-3.2-10.238-.972-.7-2.369-1.618-1.822-3.146.487-1.359 2.021-1.1 3.108-1.114 4.6-.072 7.546-2.1 8.736-6.66.275-1.052.759-2.46 2.216-2.37 1.2.075 1.573 1.362 1.856 2.3 1.375 4.557 4.318 6.831 9.123 6.767.966-.013 2.3-.207 2.766.993.545 1.411-.73 2.237-1.6 2.822-4.257 2.856-4.676 6.693-3.24 11.167.3.949.681 2.1-.441 2.847-.934.618-1.73-.109-2.543-.47a1.436 1.436 0 01-.351-.171c-3.844-3.23-7.6-2.927-11.523 0-1.652 1.238-3.55 1.736-3.379-1.434z"/></svg><svg viewBox="0 0 38.557 34.453" id="telegram" xmlns="http://www.w3.org/2000/svg"><path data-name="Path 335" d="M38.557 1.841c-.175.843-.36 1.684-.522 2.53q-1.577 8.235-3.142 16.473-1.148 6.02-2.287 12.042a1.721 1.721 0 01-1.025 1.463 1.632 1.632 0 01-1.593-.284c-3.009-2.043-6.024-4.078-9.022-6.138a.689.689 0 00-.963.018c-1.489 1.108-3.006 2.179-4.514 3.262a1.557 1.557 0 01-2.64-.956q-1.233-4.65-2.453-9.3a.6.6 0 00-.414-.463q-4.392-1.666-8.777-3.352A1.543 1.543 0 01.05 15.259a1.616 1.616 0 011.1-1.136q4.332-1.72 8.661-3.448Q22.959 5.443 36.111.221a2.732 2.732 0 011.195-.21c.671.057 1.02.567 1.25 1.156zm-8.585 28.52l4.636-24.32-.074-.035-16.732 16.1zm-16.16-8.436a9.484 9.484 0 01.754-.933q7.668-7.395 15.35-14.776c.109-.1.227-.2.34-.3l-.06-.069L5.733 15.58l.327.134c1.953.748 3.9 1.5 5.861 2.24a1.774 1.774 0 011.192 1.333c.216.895.471 1.787.699 2.638zm3.978 3.867l-3.61-2.457 1.12 4.247z"/></svg><svg viewBox="0 0 40.394 40.394" id="user-photo" xmlns="http://www.w3.org/2000/svg"><g data-name="Group 17"><path data-name="Path 39" d="M18.698 0h3c.076.018.152.039.229.052a32.717 32.717 0 013.67.666 19.847 19.847 0 0113.969 13.707 36.083 36.083 0 01.83 4.273v3l-.072.66a20.254 20.254 0 01-15.45 17.507c-1.041.25-2.116.358-3.176.531h-3c-.076-.018-.152-.039-.229-.052a32.61 32.61 0 01-3.67-.666A19.844 19.844 0 01.83 25.971 36.045 36.045 0 010 21.698v-3c.054-.454.1-.91.163-1.362A20.248 20.248 0 0115.522.531C16.564.283 17.638.173 18.698 0zm1.5 22.731v-.008c-1.432 0-2.868-.064-4.3.013a6.592 6.592 0 00-6.227 5.547 3.166 3.166 0 00.937 3.271 14.843 14.843 0 0018.77.332 3.3 3.3 0 001.4-3.132 6.658 6.658 0 00-6.125-6.012c-1.484-.061-2.972-.008-4.457-.008zm-6.624-10a6.629 6.629 0 106.582-6.644 6.6 6.6 0 00-6.587 6.647z"/></g></svg><svg viewBox="0 0 139.433 34.8" id="visa" xmlns="http://www.w3.org/2000/svg"><g data-name="Group 95"><g data-name="Group 93"><path data-name="Path 330" d="M47.555 27.844c.089-.236.15-.412.222-.584q3.852-9.213 7.706-18.424a2.55 2.55 0 012.773-1.858h4.217l4.345 20.834h-4.91c-.179-.837-.383-1.68-.533-2.533-.073-.418-.226-.583-.676-.578-1.978.026-3.956.022-5.934.008a.6.6 0 00-.687.473 44.058 44.058 0 01-.836 2.316c-.052.136-.207.33-.317.332-1.765.02-3.53.014-5.37.014zm12.812-7.369l-1.623-7.772-.142.009c-.926 2.565-1.853 5.131-2.8 7.763z"/><path data-name="Path 331" d="M14.108 21.057l5.565-14.074h5.6c-.078.211-.14.4-.216.581q-4.145 9.915-8.285 19.831a.628.628 0 01-.68.479c-1.575-.024-3.15-.008-4.726-.009-.154 0-.309-.016-.5-.027l-1.194-4.619c-1.045-4.043-2.1-8.082-3.126-12.13a2.5 2.5 0 00-1.6-1.926c-1.462-.521-2.94-1-4.412-1.487-.164-.054-.335-.087-.533-.138a2.225 2.225 0 010-.26c.01-.084.036-.167.07-.316h8.91a2.531 2.531 0 012.773 2.293l2.2 11.643c.01.05.03.1.045.148z"/><path data-name="Path 332" d="M32.353 27.074l.965-4.5c.281.124.511.228.743.328a9.939 9.939 0 005.722.856 4.268 4.268 0 001.669-.686 1.5 1.5 0 00.134-2.444 13.528 13.528 0 00-1.911-1.273c-.908-.554-1.875-1.021-2.743-1.631a5.055 5.055 0 01-2.253-3.291 5.758 5.758 0 011.582-5.111 8.474 8.474 0 014.406-2.385 14.067 14.067 0 018.034.611l-.908 4.252c-.868-.244-1.69-.517-2.531-.7a7.039 7.039 0 00-3.174-.05 3.792 3.792 0 00-1.4.656 1.259 1.259 0 00-.078 2.043 8.976 8.976 0 001.5 1.045c1 .6 2.056 1.125 3.034 1.765a5.053 5.053 0 012.414 3.238 6.172 6.172 0 01-2.212 6.287 9.113 9.113 0 01-4.742 1.943 16.726 16.726 0 01-7.66-.7c-.195-.073-.38-.165-.591-.253z"/><path data-name="Path 333" d="M27.683 6.991h5.338c-.164.792-.319 1.556-.481 2.317q-1.937 9.074-3.87 18.146c-.054.255-.119.408-.423.406-1.611-.012-3.221-.007-4.832-.01a.87.87 0 01-.182-.047z"/></g><g data-name="Group 94" transform="translate(-401.986 -6390.509)"><circle data-name="Ellipse 14" cx="17.4" cy="17.4" r="17.4" transform="translate(485.034 6390.509)"/><circle data-name="Ellipse 15" cx="17.4" cy="17.4" r="17.4" transform="translate(506.619 6390.509)" opacity=".71"/></g></g></svg><svg viewBox="0 0 51.149 29.325" id="vk" xmlns="http://www.w3.org/2000/svg"><path data-name="Path 334" d="M30.085 7.207c-.02 1.287-.047 2.5-.054 3.715a6.6 6.6 0 00.228 1.937 1.925 1.925 0 00.651 1.029.616.616 0 00.565.112 2.323 2.323 0 00.924-.548 11.644 11.644 0 001.7-1.929 36.418 36.418 0 004.374-7.93c.195-.471.392-.941.577-1.416a1.6 1.6 0 01.742-.863 1.9 1.9 0 01.672-.107c.107-.011.218.022.327.022h7.405c.5 0 1.006-.023 1.507.008a2.445 2.445 0 01.762.2.9.9 0 01.575.864 3.756 3.756 0 01-.3 1.47 18.173 18.173 0 01-1.86 3.41c-1.384 2.108-2.944 4.086-4.448 6.107a30.53 30.53 0 00-1.4 2.064 2.04 2.04 0 00-.339 1.328 2.1 2.1 0 00.592 1.2 32.459 32.459 0 001.657 1.682 44.452 44.452 0 014.34 4.477 12.83 12.83 0 011.616 2.431 2.864 2.864 0 01.221.717 1.344 1.344 0 01-.644 1.461 3.126 3.126 0 01-1.65.5c-2.176.064-4.357.049-6.529.176a5.482 5.482 0 01-3.849-1.325 17.7 17.7 0 01-2.161-2.163c-.722-.8-1.433-1.614-2.188-2.383a5.113 5.113 0 00-1.131-.835 1.3 1.3 0 00-1.678.267 3.5 3.5 0 00-.837 1.551 10.477 10.477 0 00-.391 2.617 5.325 5.325 0 01-.072.653 1.51 1.51 0 01-1.031 1.224 2.988 2.988 0 01-1.129.227c-.975-.013-1.951 0-2.927 0a14.493 14.493 0 01-5.032-.961 19.438 19.438 0 01-7.57-5.175 47.664 47.664 0 01-5.477-7.353A104.019 104.019 0 01.166 3.018a1.874 1.874 0 01-.159-.944.645.645 0 01.373-.548 2.559 2.559 0 011.178-.278c2.448-.01 4.9-.006 7.346-.007a2.245 2.245 0 011.968 1.441 35.283 35.283 0 002.288 4.864 42.623 42.623 0 003.223 5.06 6.382 6.382 0 001.5 1.527 1.193 1.193 0 001.328.133 1.268 1.268 0 00.509-.593 5.968 5.968 0 00.49-1.943 28.852 28.852 0 00.094-4.7 16.62 16.62 0 00-.284-2.79c-.049-.226-.128-.447-.175-.674a1.511 1.511 0 00-.8-1 3.724 3.724 0 00-1.676-.549c-.17-.012-.229-.087-.16-.241a1.744 1.744 0 01.256-.407 3.411 3.411 0 012.039-1.1 18.071 18.071 0 013.472-.26c1.3 0 2.6.018 3.893.078a9.014 9.014 0 011.677.279 1.953 1.953 0 011.581 1.852 19.209 19.209 0 01.066 2.146c-.01.966-.07 1.94-.108 2.843z"/></svg></svg>