<svg xmlns="http://www.w3.org/2000/svg" width="162.131" height="142.109"><g id="Group_44" data-name="Group 44" transform="translate(-887.569 -4471.846)"><path id="Path_86" data-name="Path 86" d="M897.277 4498c-8.681 12.588-9.189 33.21-9.311 38.167-.241 9.779-.778 31.563 13.315 47.989 8.647 10.078 18.914 13.607 28.818 17.011a90.906 90.906 0 0040.573 4.277c40.276-5.508 84.278-50.994 78.518-80.974-8.411-43.77-125.024-65.458-151.913-26.47z" fill="#9be213"/><g id="Group_43" data-name="Group 43"><path id="Path_87" data-name="Path 87" d="M917.751 4613.955l-5.328-137 104.326-5.114q.8 69.237 1.606 138.474z" opacity=".19"/><path id="Path_88" data-name="Path 88" d="M919.716 4597.339l-5.54-120.489 101.009-4.922 1.783 119.354a54.316 54.316 0 01-8.9 7.185 52.076 52.076 0 01-11.9 5.669c-18.577 6.364-40.2 4.038-40.2 4.038a105.21 105.21 0 01-36.252-10.835z" opacity=".19"/><path id="Path_89" data-name="Path 89" d="M919.6 4612.354l-5.689-134.085 101.01-4.922q1.3 67.566 2.593 135.132z" fill="#f9f9f9"/><path id="Path_90" data-name="Path 90" d="M1004.129 4535.121l-71.722 4.5a1.087 1.087 0 01-1.127-1.093l-.071-2.213a1.171 1.171 0 011.052-1.229l71.723-4.5a1.086 1.086 0 011.126 1.092l.071 2.213a1.171 1.171 0 01-1.052 1.23z" fill="#d1d1d1"/><path id="Path_91" data-name="Path 91" d="M999.463 4545.4l-61.751 3.876a.935.935 0 01-.97-.94l-.062-1.906a1.008 1.008 0 01.906-1.058l61.752-3.876a.934.934 0 01.97.94l.061 1.906a1.008 1.008 0 01-.906 1.058z" fill="#b2b2b2"/><path id="Path_92" data-name="Path 92" d="M1004.742 4554.232l-71.722 4.5a1.087 1.087 0 01-1.127-1.092l-.071-2.213a1.171 1.171 0 011.052-1.229l71.723-4.5a1.087 1.087 0 011.127 1.092l.071 2.213a1.171 1.171 0 01-1.053 1.229z" fill="#d1d1d1"/><path id="Path_93" data-name="Path 93" d="M1000.077 4564.506l-61.752 3.877a.937.937 0 01-.97-.941l-.061-1.9a1.007 1.007 0 01.906-1.058l61.751-3.877a.936.936 0 01.97.941l.062 1.905a1.007 1.007 0 01-.906 1.053z" fill="#b2b2b2"/><path id="Path_94" data-name="Path 94" d="M1002.875 4496.039l-71.722 4.5a1.087 1.087 0 01-1.127-1.092l-.071-2.213a1.172 1.172 0 011.052-1.23l71.723-4.5a1.088 1.088 0 011.127 1.093l.071 2.213a1.171 1.171 0 01-1.053 1.229z" fill="#d1d1d1"/><path id="Path_95" data-name="Path 95" d="M998.209 4506.313l-61.751 3.876a.935.935 0 01-.97-.94l-.061-1.906a1.007 1.007 0 01.906-1.058l61.751-3.876a.935.935 0 01.97.94l.061 1.906a1.007 1.007 0 01-.906 1.058z" fill="#b2b2b2"/><path id="Path_96" data-name="Path 96" d="M1003.488 4515.15l-71.722 4.5a1.087 1.087 0 01-1.127-1.092l-.071-2.213a1.171 1.171 0 011.053-1.229l71.722-4.5a1.087 1.087 0 011.127 1.092l.071 2.213a1.171 1.171 0 01-1.053 1.229z" fill="#d1d1d1"/><path id="Path_97" data-name="Path 97" d="M998.823 4525.425l-61.752 3.876a.937.937 0 01-.97-.941l-.061-1.9a1.007 1.007 0 01.906-1.058l61.751-3.877a.938.938 0 01.971.941l.061 1.905a1.009 1.009 0 01-.906 1.054z" fill="#b2b2b2"/><path id="Path_98" data-name="Path 98" d="M1005.383 4574.2l-71.722 4.5a1.088 1.088 0 01-1.127-1.093l-.071-2.213a1.17 1.17 0 011.052-1.229l71.723-4.5a1.086 1.086 0 011.126 1.092l.071 2.213a1.17 1.17 0 01-1.052 1.23z" fill="#d1d1d1"/><path id="Path_99" data-name="Path 99" d="M1000.717 4584.477l-61.751 3.876a.935.935 0 01-.97-.94l-.062-1.906a1.007 1.007 0 01.906-1.058l61.752-3.876a.935.935 0 01.97.94l.061 1.9a1.009 1.009 0 01-.906 1.064z" fill="#b2b2b2"/><path id="Path_100" data-name="Path 100" d="M1006 4593.314l-71.722 4.5a1.087 1.087 0 01-1.127-1.092l-.071-2.213a1.17 1.17 0 011.052-1.229l71.723-4.5a1.088 1.088 0 011.127 1.092l.071 2.213a1.171 1.171 0 01-1.053 1.229z" fill="#d1d1d1"/></g><path id="Path_101" data-name="Path 101" d="M996.584 4580.641h.047c-.014.025-.031.027-.047 0z" fill="#ebbe06"/><ellipse id="Ellipse_1" data-name="Ellipse 1" cx="1.722" cy="1.608" rx="1.722" ry="1.608" transform="rotate(-79.527 3202.535 1711.609)" fill="#161616"/><path id="Path_102" data-name="Path 102" d="M1003.265 4526.309q3.156-3.309 6.361-6.623 10.182-10.529 20.308-20.556c3.325 1.551 12.9 6.6 17.393 18.015a33.586 33.586 0 012.184 9.444c-14.435 11.405-24.924 19.694-25.371 20.078a1.531 1.531 0 01-.812.383 1.145 1.145 0 01-.427-.036c-1.5-1.273-2.442-3.059-3.666-4.585a97.9 97.9 0 00-14.646-14.6c-.509-.417-1.248-.654-1.324-1.52z" fill="#444"/><path id="Path_103" data-name="Path 103" d="M893.925 4504.071c24.7 14.008 32.65 18.491 33.687 19.049.141.076 1.431.764 3.209 1.755.174.1.274.154.539.3 3.679 2.04 7.336 4.122 11.017 6.157a1.373 1.373 0 01.782.826c.112.679-.353 1.075-.716 1.485a77.848 77.848 0 00-14.226 24.465 2.924 2.924 0 01-.594 1.092.707.707 0 01-.423.1l-39.309-17.16a78.691 78.691 0 012.965-29.746 75.526 75.526 0 013.069-8.323z" fill="#393939"/><path id="Path_104" data-name="Path 104" d="M1023.1 4546.892l26.408-20.3a41.914 41.914 0 01-3.774 20.783c-8.588 6.2-14.8 10.693-15.181 11a.988.988 0 01-.654.255.631.631 0 01-.287-.1q-.456-.551-.905-1.139a38.272 38.272 0 01-5.607-10.499z" fill="#343839"/><path id="Path_105" data-name="Path 105" d="M887.891 4542.141l39.41 17.141a1.337 1.337 0 01.037 1.335 66.824 66.824 0 00-2.951 10.552c-.1.51-.2 1.072-.276 1.684l-33.917-10.815a83.257 83.257 0 01-1.75-9.905 84.7 84.7 0 01-.553-9.992z" fill="#2c2e2f"/><path id="Path_106" data-name="Path 106" d="M951.936 4542.084a18.5 18.5 0 005 2.389c.261.077 1.04.335 2.015.552a22.975 22.975 0 007.637.333 42.786 42.786 0 00-2.4 2.311 8.735 8.735 0 00-.914.987c-1.443 1.847-2.616 3.946-4.376 5.511-2.073.449-3.494 2.118-3.211 3.781 1.029 2.51 3.081 3.485 5.423 3.9a14.956 14.956 0 007.152-.484 8.39 8.39 0 003.6-2.155 10.957 10.957 0 0112.143-3.041c1.3.565 2.413 1.478 3.654 2.159a2.331 2.331 0 002.609.1 13.279 13.279 0 012.927.162c2.634 2.489 5.909 3.9 8.885 5.82.915.588 1.778 1.239 2.654 1.875a11.453 11.453 0 004.137 2.043c-.969 1.462.35 1.812 1.048 2.279a4.282 4.282 0 012.05 4.4 6.482 6.482 0 01-.985 2.793 6.211 6.211 0 01-3.567 2.542 6.746 6.746 0 01-5.074-.585 48.535 48.535 0 01-8.256-3.208 46.69 46.69 0 017.118 4.108 5.736 5.736 0 011.442 1.277 5.881 5.881 0 01-2 4.175 5.112 5.112 0 01-4.943.756 38.467 38.467 0 01-4.245-.866 34.171 34.171 0 01-4.116-1.542c-.2-.021-.019.255-.025.045 0-.051.047-.055.146-.014 2.613 1.059 4.755 3.032 7.336 4.156a.421.421 0 01.207.21c.438.99-2.853 4.817-5.471 4.6-.319-.026-1.094-.119-1.35.23-.19.26.162.619.05 1.177a1.75 1.75 0 01-.528.862 8.571 8.571 0 01-4 1.9 7.71 7.71 0 01-3.088.031 7.307 7.307 0 01-2.37-.946c-.431-.682.108-1.191.341-1.728a8.273 8.273 0 00.867-3.64c-.074-1.767-.974-2.552-2.528-2.281-.681-.162-1.292.615-1.99.224-.356-1.1.4-2.1.323-3.208-.163-2.4-2.025-3.512-4.053-2.322a4.164 4.164 0 01-.653.368c-.764.011-1.5 1.252-2.125.526-.677-.789.4-1.562.66-2.354a3.442 3.442 0 00-.481-3.492 4.26 4.26 0 00-5.707-.676 11.429 11.429 0 01-1.582 1.152 9.6 9.6 0 00-3.657 2.292c-1.85 1.661-3.542 3.5-5.233 5.34l-1.161.121c-.422-.588.093-1.076.212-1.593.273-1.189.507-2.35-.3-3.393-1.575-2.447-3.623-2.9-6.04-1.328-.367.238-.694.625-1.193.46l-4.64-6.1c0-2.192.9-4.158 1.556-6.169 2.28-7 5.02-13.81 7.816-20.6a2.249 2.249 0 00.213-1.223 10.771 10.771 0 013.041-4.999z" fill="#e4aa82"/><path id="Path_107" data-name="Path 107" d="M993.357 4558.826a11.328 11.328 0 01-3.268-.112c-1.462.171-2.507-.747-3.542-1.57a17.813 17.813 0 01-3.712-4.141 7.193 7.193 0 00-10.539-1.666c-2.018 1.53-3.383 3.736-5.3 5.359-2.31 1.96-6.4 2.185-8.575.376q-1.992-1.654.378-3.04c2.033-2.5 3.737-5.3 5.986-7.607 1.808-1.668 3.306-3.724 5.438-4.993.084-.051.425-.244.911-.485 1.8-.9 4.827-2.037 12.3-2.685 3.681-.319 5.762-.286 7.516 1.129a3.446 3.446 0 00.333.288c1.919 1.424 4.17 2.193 6.173 3.456.881.555 1.771 1.091 2.63 1.685-1.923-1.394-3.665-3.077-5.847-4.058a.514.514 0 01-.322-.619l3.654-3.426c.446-.3.762.021 1.032.284 2.887 2.816 5.684 5.729 8.307 8.828a2.392 2.392 0 01.478.949c.415 1.742 1.742 2.832 2.629 4.236.8 1.272.766 1.537-.591 2.117a28.543 28.543 0 013.21 6.092 2.1 2.1 0 01.122 1.939c.193 2.6-1.2 4.413-2.78 6.133a16.588 16.588 0 01-9.233-5.581c-.878-1.041-.8-2.147.258-3.375a15.948 15.948 0 003.038-6.038 20.683 20.683 0 01-6.779 5.814c-1.206.628-2.462 1.518-3.905.711z" fill="#f1c08f"/><path id="Path_108" data-name="Path 108" d="M924.111 4572.853a92.735 92.735 0 011.287-6.621 94.71 94.71 0 011.9-6.95l12.67 5.357a.834.834 0 01.114.745 47.888 47.888 0 01-3.22 6.74 16.148 16.148 0 00-1.432 3.1 1.265 1.265 0 01-.46.649.8.8 0 01-.629 0c-.586-.203-4.635-1.386-10.23-3.02z" fill="#c7d0d5"/><path id="Path_109" data-name="Path 109" d="M1023.1 4546.892l7.049 11.7c-5.1 3.093-8.749 5.33-9.521 5.9a1.111 1.111 0 01-.9.275c-.245-.073-.429-.329-.638-.75a34.639 34.639 0 00-2.939-5.135c-.181-.063-.456.007-.544-.151-.865-1.539-2.1-2.829-2.652-4.579a67.775 67.775 0 016.095-4.695 65.156 65.156 0 014.05-2.565z" fill="#c7d0d5"/><path id="Path_110" data-name="Path 110" d="M961.069 4579.152c1.414-1.385 2.97-2.391 4.966-2.188 1.174.12 2.323.3 2.761 1.726a1.578 1.578 0 01-.277 1.479c-2.278 3.916-4.576 7.821-7.991 10.789-3.257 2.832-5.888 2.339-7.957-1.47a3.756 3.756 0 01.122-.585 3.588 3.588 0 01.51-1.045c.849-2.547 2.862-4.127 4.524-5.968.963-1.066 1.905-2.29 3.342-2.738z" fill="#f1c08e"/><path id="Path_111" data-name="Path 111" d="M952.571 4589.488c.934.492 1.358 1.563 2.254 2.147a3.441 3.441 0 004.467-.117c2.182-1.607 3.345-3.532 6.08-6.906a12.648 12.648 0 002.988-5.038 10.044 10.044 0 00.254-1.336 3.714 3.714 0 011.152 2.22 4.186 4.186 0 01-.374 2.192c-.439.921-1.132 1.421-.972 1.724.075.142.289.15.4.154.523.021.887-.422 1.264-.732a3.631 3.631 0 011.764-.765 28.423 28.423 0 00-2.048 2.431 14.43 14.43 0 00-2.829 5.2c-.538 2.037-.362 3.745 1.34 5a1.054 1.054 0 01.477.751c-1.234.924-2.413.341-3.381-.327a7.106 7.106 0 01-2.91-3.5c-1.281 1.442-2.669 2.494-4.582 2.27-2.175-.241-5.973-2.475-5.344-5.368z" fill="#e4925a"/><path id="Path_112" data-name="Path 112" d="M968.788 4596.421a4.493 4.493 0 01-2.208-2.219c-.722-1.73-.076-3.5.516-5.074a13.683 13.683 0 013.5-5.192 3.206 3.206 0 012.524-1.1 2.561 2.561 0 011.294.547c1.438 1.148 1.547 3.69.892 5.4a5.121 5.121 0 01-.249.55c-1.025 2.064-2.652 3.666-3.847 5.6-.215.347-.61.292-.953.3a3.445 3.445 0 01-1.469 1.188z" fill="#f1c08f"/><path id="Path_113" data-name="Path 113" d="M943.963 4581.19c2.948-2.388 4.116-2.446 6.78-.462a1.362 1.362 0 01.655 1.25 8.9 8.9 0 01-3.9 7.076c-2.067 1.349-5.939-.087-7.467-2.527a2.817 2.817 0 011-2.595 16.562 16.562 0 012.932-2.742z" fill="#f1bf8f"/><path id="Path_114" data-name="Path 114" d="M993.357 4558.826c3.62-.121 6.2-2.481 8.745-4.859.733-.685 1.288-1.586 2.114-2.261a11.393 11.393 0 01-2.286 6.08c-.266.381-.606.7-.9 1.064a1.919 1.919 0 00.079 2.767 18.7 18.7 0 007.723 5.057 2.216 2.216 0 011.143.621l-1.1 1.035c-2.152.578-3.421-1.142-4.889-2.167-1.683-1.176-3.445-2.19-5.178-3.265-1.544-.958-3.109-1.878-4.639-2.86a1.48 1.48 0 01-.812-1.212z" fill="#eca870"/><path id="Path_115" data-name="Path 115" d="M936.865 4572.124l3.021-7.4a12.168 12.168 0 011.443-3.554c2.585-5.189 4.556-9.218 6.313-12.212a145.164 145.164 0 014.294-6.87 258.1 258.1 0 00-11.636 29.879q-.5 1.567-.977 3.126-1.228-1.487-2.458-2.969z" fill="#d78f64"/><path id="Path_116" data-name="Path 116" d="M976.84 4588.925c.3-.217.559-.38.717-.478a3.066 3.066 0 011.951 1.338c.769 1.279.34 2.993-.222 4.523-.3.82-.681 1.61-1.025 2.414a9.8 9.8 0 01-2.528 3.026c-3.511.123-4.591-1.964-3.56-4.483a15.963 15.963 0 014.667-6.34z" fill="#f1c08f"/><path id="Path_117" data-name="Path 117" d="M940.028 4586.527a11.305 11.305 0 004.061 2.355c2.448.671 4.153-.087 5.431-2.465a26.617 26.617 0 001.878-4.439c.953 1.057 1.027 2.667.16 4.368a1.483 1.483 0 00-.276.7 12.842 12.842 0 01-2.083 3.987c-1.4 1.565-2.129 1.713-4.068.959a8.888 8.888 0 01-4.848-4.151 2.582 2.582 0 01-.255-1.314z" fill="#e3925b"/><path id="Path_118" data-name="Path 118" d="M1013.092 4554.114l3.059 4.764a8.438 8.438 0 00-1.743 1.063 8.889 8.889 0 00-1.634 1.694 16.368 16.368 0 00-1.072-3.757 13.671 13.671 0 00-1.6-3.009c-.795-1.09-1.707-1.934-1.476-2.37a.45.45 0 01.3-.2 4.434 4.434 0 01.45.108c.3.088.415.158.606.123a.4.4 0 00.28-.142c.13-.216-.168-.649-.289-.817-.934-1.3-1.847-2.621-2.781-3.923-.213-.3-.268-.537.054-.783.46-.076.74.251.985.554 1.734 2.136 3.68 4.097 4.861 6.695z" fill="#eca871"/><path id="Path_119" data-name="Path 119" d="M977.787 4588.539a14.964 14.964 0 00-4.946 6c-.972 2.2-.676 3.1-.541 3.408.371.85 1.42 1.4 3.433 1.8a3.8 3.8 0 01-5.248-3.508c-.012-.358.086-.736-.228-1q1.5-1.809 3.016-3.8.8-1.049 1.543-2.08a2.687 2.687 0 011.715-1.015 2.338 2.338 0 011.256.195z" fill="#e2935d"/><path id="Path_120" data-name="Path 120" d="M1002.656 4581.94c-.84-.462-2.065-1.141-3.537-1.976-4.219-2.394-6.329-3.591-6.23-3.824.124-.29 3.592 1 5.86 1.957a56.67 56.67 0 013.6 1.666z" fill="#d69068"/><path id="Path_121" data-name="Path 121" d="M995.025 4589.321a60.967 60.967 0 00-6.47-4.016c-.61-.325-1.546-.809-1.5-.937.054-.144 1.33.253 4.45 1.212 1.829.563 3.3 1.014 4.21 1.291a.813.813 0 00-.656.363c-.176.326.056.674.035 1.452a3.723 3.723 0 01-.069.635z" fill="#d28f6a"/><path id="Path_122" data-name="Path 122" d="M961.069 4579.152a49.712 49.712 0 00-7.866 8.706 1.924 1.924 0 00-.448-.412 2.4 2.4 0 00-.862-.312 4.46 4.46 0 00-.611-.09 120.585 120.585 0 015.111-4.769 34.891 34.891 0 014.051-3.155 13.151 13.151 0 012.292-1.322 11.475 11.475 0 01-1.667 1.354z" fill="#d79167"/><path id="Path_123" data-name="Path 123" d="M949.148 4547.075c-2.97 5.18-5.68 10.509-8.267 15.908-.288.6-.662 1.159-.995 1.737l-12.629-5.3a86.877 86.877 0 011.892-4.776s.963-2.171 2.006-4.331a74.875 74.875 0 0112-18.157c.435-.3.737.061 1.058.239 3.011 1.664 6 3.373 9.033 4.99.878.468 1 .882.412 1.744-.639.935-1.156 1.964-1.727 2.953a45.371 45.371 0 00-2.783 4.993z" fill="#fefefe"/><path id="Path_124" data-name="Path 124" d="M1013.092 4554.114c-1.979-2.388-3.691-5.022-5.844-7.25a78.008 78.008 0 00-9.679-10.147c-.146-.2-.288-.4-.438-.6-.538-.7-1.784-1.11-1.657-1.937.113-.74 1.137-1.365 1.792-2 2-1.951 3.83-4.109 6-5.867a124.761 124.761 0 0118.553 18.929q.652.825 1.285 1.654c-.6.481-1.526 1.216-2.693 2.076-1.2.881-2.035 1.339-3.38 2.376a22.751 22.751 0 01-3.939 2.766z" fill="#fefefe"/><path id="Path_125" data-name="Path 125" d="M993.915 4540.143a12.015 12.015 0 016.59 4.7 10.648 10.648 0 01.582.985 47.275 47.275 0 00-3.8-2.278c-2.044-1.1-3.066-1.644-3.589-1.865-1.548-.652-2.913-1.037-2.94-1.77a.507.507 0 01.135-.392c.3-.227.873.5 1.807.689a2.54 2.54 0 001.215-.069z" fill="#e9aa73"/><path id="Path_126" data-name="Path 126" d="M959.013 4553.768c-.058.056-1.262 1.259-.939 2.365.212.726.961 1.008 1.842 1.317 3.315 1.162 6.04.173 8.393-2.555 2.289-2.654 2.5-2.948 3.752-3.853a8.843 8.843 0 017.874-.937c4.5 1.656 4.2 6.468 9.182 8.2 2.373.825 4.474.44 4.469.669-.006.254-2.613.91-5.26.1-1.846-.563-3.117-1.86-4.241-2.519a10.091 10.091 0 01-2.754-2.507c-2.16-2.708-4.556-2.723-6.94-.107a24.493 24.493 0 00-1.942 2.425 11.315 11.315 0 01-15.518 3.33 3.3 3.3 0 01-1.553-1.962 2.314 2.314 0 01-.005-.5c.208-2.095 3.182-3.289 3.64-3.466z" fill="#eca86f"/><path id="Path_127" data-name="Path 127" d="M955.378 4557.736c3.285 3.991 10.519 4.382 14.493.925 1.728-1.5 2.758-3.608 4.387-5.155 1.39-1.321 2.88-2.539 4.873-1.719a5.733 5.733 0 011.891 1.27c1.076 1.1 2.048 2.326 3.063 3.5a8.928 8.928 0 00-2.648-.823 9.548 9.548 0 00-3.825.275c-3.769 1.027-4.184 3.439-8.121 5.222a13.943 13.943 0 01-6.9 1.163 8.883 8.883 0 01-5.912-2.221c-.666-.641-1.466-1.251-1.301-2.437z" fill="#d78f63"/></g></svg>