<svg xmlns="http://www.w3.org/2000/svg" width="271.771" height="21.737"><g id="Sound_Playing" data-name="Sound Playing" transform="translate(-79.41 -1397.28)" fill="#acacac"><path id="Rounded_Rectangle_2811_copy_8" data-name="Rounded Rectangle 2811 copy 8" d="M164.2 21V.733a.732.732 0 1 1 1.464 0V21a.732.732 0 1 1-1.464 0zm46.556-.731V1.462a.737.737 0 1 1 1.474 0v18.811a.737.737 0 1 1-1.474 0zm-93.131 0V1.462a.737.737 0 1 1 1.474 0v18.811a.737.737 0 1 1-1.474 0zm-9.8 0V1.462a.737.737 0 0 1 1.474 0v18.811a.737.737 0 0 1-1.474 0zm90.674-.719V2.18a.737.737 0 1 1 1.474 0v17.374a.737.737 0 1 1-1.474 0zm-9.8.005V2.175a.733.733 0 0 1 1.465 0V19.56a.733.733 0 0 1-1.465 0zm-12.253 0V2.175a.732.732 0 1 1 1.464 0V19.56a.732.732 0 0 1-1.464 0zm-17.158 0V2.175a.732.732 0 1 1 1.464 0V19.56a.732.732 0 0 1-1.464 0zm-14.7-.005V2.18a.737.737 0 1 1 1.474 0v17.374a.737.737 0 1 1-1.474 0zm-12.253 0V2.18a.737.737 0 0 1 1.474 0v17.374a.737.737 0 0 1-1.474 0zm-53.912 0V2.18a.738.738 0 0 1 1.475 0v17.374a.738.738 0 0 1-1.475 0zm-29.411 0V2.18a.738.738 0 0 1 1.475 0v17.374a.738.738 0 0 1-1.475 0zm-36.766 0V2.185a.742.742 0 1 1 1.484 0V19.55a.742.742 0 0 1-1.484 0zm166.644-.719V2.9a.738.738 0 0 1 1.475 0v15.931a.738.738 0 0 1-1.475 0zm-41.657 0V2.9a.732.732 0 1 1 1.464 0v15.935a.732.732 0 1 1-1.464 0zm-9.809 0V2.9a.737.737 0 0 1 1.474 0v15.931a.737.737 0 0 1-1.474 0zm-24.5 0V2.9a.737.737 0 1 1 1.474 0v15.931a.737.737 0 1 1-1.474 0zm-9.8 0V2.9a.732.732 0 1 1 1.464 0v15.935a.732.732 0 1 1-1.464 0zm-9.8 0V2.9a.732.732 0 1 1 1.464 0v15.935a.732.732 0 1 1-1.464 0zm-12.254 0V2.9a.732.732 0 1 1 1.464 0v15.935a.732.732 0 1 1-1.464 0zm-12.247 0V2.9a.733.733 0 0 1 1.465 0v15.935a.733.733 0 0 1-1.465 0zm-19.608 0V2.9a.737.737 0 0 1 1.474 0v15.931a.737.737 0 1 1-1.474 0zm-14.711 0V2.9a.737.737 0 0 1 1.474 0v15.931a.737.737 0 0 1-1.474 0zm181.338-.731V3.636a.737.737 0 1 1 1.474 0V18.1a.737.737 0 1 1-1.474 0zm-56.355 0V3.632a.733.733 0 1 1 1.465 0v14.475a.733.733 0 1 1-1.465 0zm-61.266 0V3.636a.737.737 0 1 1 1.474 0V18.1a.737.737 0 1 1-1.474 0zm-34.31 0V3.632a.733.733 0 0 1 1.465 0v14.475a.733.733 0 0 1-1.465 0zm-22.055 0V3.632a.732.732 0 1 1 1.464 0v14.475a.732.732 0 1 1-1.464 0zm-14.7 0V3.632a.732.732 0 1 1 1.464 0v14.475a.732.732 0 1 1-1.464 0zm166.631-.729V4.361a.737.737 0 1 1 1.474 0v13.017a.737.737 0 1 1-1.474 0zm-29.4 0V4.361a.737.737 0 1 1 1.474 0v13.017a.737.737 0 1 1-1.474 0zm-39.21 0V4.361a.737.737 0 1 1 1.474 0v13.017a.737.737 0 1 1-1.474 0zm-14.711 0V4.361a.737.737 0 1 1 1.474 0v13.017a.737.737 0 0 1-1.474 0zm85.776-.722V5.08a.732.732 0 0 1 1.464 0v11.576a.732.732 0 1 1-1.464 0zm-88.223 0V5.085a.737.737 0 1 1 1.474 0v11.567a.737.737 0 1 1-1.474 0zm-7.356 0V5.085a.737.737 0 0 1 1.474 0v11.567a.737.737 0 0 1-1.474 0zm-17.154 0V5.085a.737.737 0 0 1 1.474 0v11.567a.737.737 0 0 1-1.474 0zm-46.556 0V5.08a.732.732 0 0 1 1.464 0v11.576a.732.732 0 1 1-1.464 0zm176.447-.716V5.8a.732.732 0 0 1 1.464 0v10.133a.732.732 0 0 1-1.464 0zm-7.356-.005V5.81a.737.737 0 1 1 1.474 0v10.117a.737.737 0 1 1-1.474 0zm-44.1.005V5.8a.732.732 0 0 1 1.464 0v10.133a.732.732 0 0 1-1.464 0zm-17.155 0V5.8a.733.733 0 0 1 1.465 0v10.133a.733.733 0 0 1-1.465 0zm-9.8 0V5.8a.732.732 0 0 1 1.464 0v10.133a.732.732 0 0 1-1.464 0zm-49.023-.005V5.81a.737.737 0 0 1 1.474 0v10.117a.737.737 0 0 1-1.474 0zm-39.21 0V5.81a.737.737 0 0 1 1.474 0v10.117a.737.737 0 0 1-1.474 0zm-29.411 0V5.81a.737.737 0 1 1 1.474 0v10.117a.737.737 0 0 1-1.474 0zm174-.724V6.533a.737.737 0 1 1 1.474 0V15.2a.737.737 0 1 1-1.474 0zm-9.8 0V6.533a.737.737 0 1 1 1.474 0V15.2a.737.737 0 1 1-1.474 0zm-41.667 0V6.533a.737.737 0 0 1 1.474 0V15.2a.737.737 0 0 1-1.474 0zm-44.1.005v-8.68a.732.732 0 1 1 1.464 0v8.68a.732.732 0 0 1-1.464 0zm-17.155 0v-8.68a.733.733 0 0 1 1.465 0v8.68a.733.733 0 0 1-1.465 0zm-24.512 0v-8.68a.732.732 0 1 1 1.464 0v8.68a.732.732 0 0 1-1.464 0zM22.043 15.2V6.533a.737.737 0 1 1 1.474 0V15.2a.737.737 0 1 1-1.474 0zm-7.345.005V6.529a.732.732 0 1 1 1.464 0v8.68a.732.732 0 0 1-1.464 0zm186.256-.724V7.253a.732.732 0 1 1 1.464 0v7.231a.732.732 0 1 1-1.464 0zm-34.322 0V7.258a.737.737 0 1 1 1.474 0v7.222a.737.737 0 1 1-1.474 0zm-19.6 0V7.253a.732.732 0 1 1 1.464 0v7.231a.732.732 0 1 1-1.464 0zm-41.658 0V7.258a.737.737 0 1 1 1.474 0v7.222a.737.737 0 1 1-1.474 0zm-9.8 0V7.253a.732.732 0 1 1 1.464 0v7.231a.732.732 0 1 1-1.464 0zm-14.71 0V7.253a.732.732 0 1 1 1.464 0v7.231a.732.732 0 1 1-1.464 0zm-29.411 0V7.258a.737.737 0 0 1 1.474 0v7.222a.737.737 0 0 1-1.474 0zm156.847-.728V7.982a.738.738 0 0 1 1.475 0v5.771a.738.738 0 0 1-1.475 0zm-14.7 0V7.982a.737.737 0 0 1 1.474 0v5.771a.737.737 0 0 1-1.474 0zm-19.611 0V7.982a.737.737 0 1 1 1.474 0v5.771a.737.737 0 1 1-1.474 0zm-12.244 0V7.978a.732.732 0 1 1 1.464 0v5.78a.732.732 0 1 1-1.464 0zm-39.211 0V7.978a.733.733 0 0 1 1.465 0v5.78a.733.733 0 0 1-1.465 0zm-2.457 0V7.978a.733.733 0 0 1 1.465 0v5.78a.733.733 0 0 1-1.465 0zm-7.355 0V7.982a.737.737 0 1 1 1.474 0v5.771a.737.737 0 1 1-1.474 0zm-2.444 0V7.978a.732.732 0 1 1 1.464 0v5.78a.732.732 0 1 1-1.464 0zm-44.112 0V7.978a.732.732 0 1 1 1.464 0v5.78a.732.732 0 1 1-1.464 0zm-9.8 0V7.978a.732.732 0 1 1 1.464 0v5.78a.732.732 0 1 1-1.464 0zm-14.71 0V7.978a.732.732 0 1 1 1.464 0v5.78a.732.732 0 1 1-1.464 0zm-12.247 0V7.978a.733.733 0 0 1 1.465 0v5.78a.733.733 0 1 1-1.465 0zm-24.51 0V7.978a.733.733 0 0 1 1.465 0v5.78a.733.733 0 1 1-1.465 0zm151.934-.724V8.7a.737.737 0 1 1 1.474 0v4.333a.737.737 0 1 1-1.474 0zm-14.7 0V8.7a.737.737 0 1 1 1.474 0v4.333a.737.737 0 1 1-1.474 0zm-122.523.005V8.7a.733.733 0 1 1 1.465 0v4.343a.733.733 0 0 1-1.465 0zm-9.81 0V8.7a.737.737 0 1 1 1.474 0v4.333a.737.737 0 1 1-1.474 0zm181.355-.723V9.427a.732.732 0 0 1 1.464 0v2.884a.732.732 0 0 1-1.464 0zm-22.066-.005V9.433a.737.737 0 1 1 1.474 0v2.873a.737.737 0 1 1-1.474 0zm-105.377 0V9.433a.737.737 0 1 1 1.474 0v2.873a.737.737 0 0 1-1.474 0zm-29.411 0V9.433a.737.737 0 1 1 1.474 0v2.873a.737.737 0 0 1-1.474 0zm105.377-.724v-1.426a.737.737 0 1 1 1.474 0v1.425a.737.737 0 1 1-1.474 0zm-78.424 0v-1.426a.738.738 0 0 1 1.475 0v1.425a.738.738 0 1 1-1.475 0zm-14.7 0v-1.426a.737.737 0 1 1 1.474 0v1.425a.737.737 0 1 1-1.474 0zm-44.112 0v-1.426a.737.737 0 0 1 1.474 0v1.425a.737.737 0 1 1-1.474 0zm-1.72.012a.725.725 0 0 1 0-1.449h.019a.725.725 0 0 1 0 1.449z" transform="translate(79.41 1397.28)"/><path id="Rounded_Rectangle_2811_copy_8-2" data-name="Rounded Rectangle 2811 copy 8" d="M36.311 19.85V.437a.437.437 0 0 1 .874 0V19.85a.437.437 0 0 1-.874 0zm-4.353 0V.434a.434.434 0 0 1 .868 0v19.418a.434.434 0 1 1-.868 0zm-4.36 0V.437a.437.437 0 0 1 .874 0V19.85a.437.437 0 0 1-.874 0zm-26.142-.717V1.153a.434.434 0 1 1 .869 0v17.98a.434.434 0 1 1-.869 0zm18.879-.727V1.88a.437.437 0 1 1 .874 0v16.526a.437.437 0 1 1-.874 0zm-7.264 0V1.88a.437.437 0 1 1 .874 0v16.526a.437.437 0 1 1-.874 0zm27.6-.725V2.609a.434.434 0 1 1 .868 0v15.072a.434.434 0 1 1-.868 0zm-1.454-.727V3.336a.437.437 0 1 1 .874 0v13.618a.437.437 0 0 1-.874 0zm-4.36 0V3.336a.437.437 0 1 1 .874 0v13.618a.437.437 0 0 1-.874 0zm-26.138 0V3.333a.434.434 0 0 1 .869 0v13.624a.434.434 0 0 1-.869 0zm-1.454 0V3.333a.434.434 0 0 1 .869 0v13.624a.434.434 0 0 1-.869 0zm36.311-.729V4.06a.437.437 0 0 1 .874 0v12.168a.437.437 0 0 1-.874 0zM30.5 15.5V4.784a.437.437 0 0 1 .874 0V15.5a.437.437 0 0 1-.874 0zm15.977-.722V5.506a.434.434 0 1 1 .868 0v9.275a.434.434 0 1 1-.868 0zm-4.353 0V5.506a.434.434 0 1 1 .868 0v9.275a.434.434 0 1 1-.868 0zm-17.431 0V5.506a.434.434 0 1 1 .868 0v9.275a.434.434 0 1 1-.868 0zm-5.808 0V5.506a.434.434 0 0 1 .868 0v9.275a.434.434 0 1 1-.868 0zM0 14.782V5.506a.434.434 0 0 1 .868 0v9.275a.434.434 0 1 1-.868 0zm50.831-.727V6.233a.437.437 0 1 1 .874 0v7.821a.437.437 0 1 1-.874 0zm-5.808 0V6.233a.437.437 0 1 1 .874 0v7.821a.437.437 0 1 1-.874 0zm-15.975 0V6.233a.437.437 0 1 1 .874 0v7.821a.437.437 0 1 1-.874 0zm-5.809 0V6.231a.434.434 0 1 1 .868 0v7.827a.434.434 0 1 1-.868 0zm-5.808 0V6.231a.434.434 0 1 1 .868 0v7.827a.434.434 0 0 1-.868 0zm34.856-.729V6.958a.437.437 0 1 1 .874 0v6.371a.437.437 0 0 1-.874 0zm-4.353 0V6.954a.434.434 0 1 1 .868 0v6.377a.434.434 0 1 1-.868 0zm-33.406 0V6.958a.437.437 0 1 1 .874 0v6.371a.437.437 0 0 1-.874 0zm-2.911 0V6.958a.437.437 0 1 1 .874 0v6.371a.437.437 0 0 1-.874 0zm-1.443 0V6.954a.434.434 0 0 1 .868 0v6.377a.434.434 0 0 1-.868 0zm-4.365 0V6.958a.437.437 0 1 1 .874 0v6.371a.437.437 0 0 1-.874 0zm-1.45 0V6.958a.437.437 0 1 1 .873 0v6.371a.437.437 0 0 1-.873 0zm45.029-.716V7.673a.434.434 0 1 1 .868 0v4.939a.434.434 0 1 1-.868 0zm-27.6 0V7.676a.437.437 0 0 1 .874 0v4.934a.437.437 0 1 1-.874 0zm-18.879 0V7.673a.434.434 0 0 1 .868 0v4.939a.434.434 0 1 1-.868 0zm53.735-.728V8.405a.434.434 0 0 1 .868 0v3.479a.434.434 0 1 1-.868 0zm-2.9 0V8.408a.437.437 0 0 1 .874 0v3.474a.437.437 0 1 1-.874 0zm-15.975 0V8.408a.437.437 0 0 1 .874 0v3.474a.437.437 0 1 1-.874 0zm-4.359 0V8.408a.437.437 0 1 1 .873 0v3.474a.437.437 0 1 1-.873 0zm-17.426 0V8.405a.434.434 0 0 1 .868 0v3.479a.434.434 0 1 1-.868 0zm10.167-.724V9.13a.434.434 0 1 1 .868 0v2.031a.434.434 0 0 1-.868 0zm31.949-.723v-.58a.434.434 0 1 1 .868 0v.58a.434.434 0 0 1-.868 0zm-2.9 0v-.58a.434.434 0 1 1 .868 0v.58a.434.434 0 1 1-.868 0z" transform="translate(292.212 1398.004)"/></g></svg>