<svg id="Group_924" data-name="Group 924" xmlns="http://www.w3.org/2000/svg" width="30.798" height="31.47"><defs><clipPath id="clip-path"><path id="Path_231" data-name="Path 231" d="M6.517-4.495a9.307 9.307 0 0 1 .473-2.921l-5.3-4.05A15.728 15.728 0 0 0 .071-4.495a15.726 15.726 0 0 0 1.614 6.966l5.3-4.057a9.31 9.31 0 0 1-.468-2.908" transform="translate(-.071 11.465)" fill="none" clip-rule="evenodd"/></clipPath><clipPath id="clip-path-2"><path id="Path_233" data-name="Path 233" d="M15.016-9.385a9.117 9.117 0 0 1 5.8 2.074l4.584-4.578a15.7 15.7 0 0 0-10.385-3.934A15.71 15.71 0 0 0 .874-7.058l5.3 4.05a9.286 9.286 0 0 1 8.838-6.377" transform="translate(-.874 15.822)" fill="none" clip-rule="evenodd"/></clipPath><clipPath id="clip-path-3"><path id="Path_235" data-name="Path 235" d="M15.016-.171a9.286 9.286 0 0 1-8.839-6.377L.874-2.5a15.71 15.71 0 0 0 14.142 8.766 15.016 15.016 0 0 0 10.266-3.922l-5.033-3.891a9.746 9.746 0 0 1-5.233 1.376" transform="translate(-.874 6.548)" fill="none" clip-rule="evenodd"/></clipPath><clipPath id="clip-path-4"><path id="Path_237" data-name="Path 237" d="M22.945-6.561a13.036 13.036 0 0 0-.358-2.861H7.9v6.079h8.452a7.087 7.087 0 0 1-3.219 4.7l5.034 3.892a15.649 15.649 0 0 0 4.778-11.81" transform="translate(-7.905 9.422)" fill="none" clip-rule="evenodd"/></clipPath></defs><g id="Group_920" data-name="Group 920" transform="translate(0 8.764)" clip-path="url(#clip-path)"><path id="Path_230" data-name="Path 230" d="M-4.929-16.465h27.035v34.051H-4.929z" transform="translate(-5.129 6.407)" fill="#fabb05"/></g><g id="Group_921" data-name="Group 921" transform="translate(1.616)" clip-path="url(#clip-path-2)"><path id="Path_232" data-name="Path 232" d="M-4.126-20.822h44.643v32.929H-4.126z" transform="translate(-5.932 10.764)" fill="#ea4335"/></g><g id="Group_922" data-name="Group 922" transform="translate(1.616 18.656)" clip-path="url(#clip-path-3)"><path id="Path_234" data-name="Path 234" d="M-4.126-11.548H40.4v32.929H-4.126z" transform="translate(-5.932 1.49)" fill="#34a852"/></g><g id="Group_923" data-name="Group 923" transform="translate(15.757 12.874)" clip-path="url(#clip-path-4)"><path id="Path_236" data-name="Path 236" d="M2.9-14.422h35.161v34.79H2.9z" transform="translate(-12.962 4.364)" fill="#4285f4"/></g></svg>