<svg xmlns="http://www.w3.org/2000/svg" width="16.87" height="16.87"><g id="Group_1101" data-name="Group 1101" transform="translate(-1447 -47.163)"><circle id="Ellipse_148" data-name="Ellipse 148" cx="4.5" cy="4.5" r="4.5" transform="translate(1451 51)" fill="#fff"/><path id="Path_256" data-name="Path 256" d="M66.972 13.709a.667.667 0 0 1 .244.65l-.233 1.211a.62.62 0 0 0 .389.695l.756.283.756.283a.622.622 0 0 0 .75-.272l.6-1.039a.682.682 0 0 1 .617-.333 6.92 6.92 0 0 0 1.072-.033.675.675 0 0 1 .633.283l.695 1.022a.629.629 0 0 0 .772.217l.734-.339.734-.337a.624.624 0 0 0 .345-.728l-.311-1.156a.666.666 0 0 1 .2-.667 7.014 7.014 0 0 0 .739-.784.674.674 0 0 1 .645-.245l1.211.233a.62.62 0 0 0 .695-.389l.283-.756.283-.756a.622.622 0 0 0-.272-.75l-1.045-.589a.673.673 0 0 1-.339-.622 6.941 6.941 0 0 0-.033-1.072.675.675 0 0 1 .283-.633L79.2 6.39a.629.629 0 0 0 .217-.772l-.339-.734-.339-.734a.624.624 0 0 0-.728-.345l-1.156.311a.667.667 0 0 1-.672-.206 6.157 6.157 0 0 0-.811-.761.664.664 0 0 1-.25-.656l.224-1.193a.62.62 0 0 0-.389-.695L74.2.322l-.754-.283a.622.622 0 0 0-.75.272l-.611 1.056a.669.669 0 0 1-.611.328 6.427 6.427 0 0 0-1.084.039.663.663 0 0 1-.633-.289L69.073.439a.637.637 0 0 0-.761-.228l-.734.339-.717.345a.615.615 0 0 0-.339.728l.317 1.172a.658.658 0 0 1-.2.667 6.658 6.658 0 0 0-.739.795.667.667 0 0 1-.65.245l-1.2-.228a.62.62 0 0 0-.695.389l-.283.756-.283.756a.622.622 0 0 0 .272.75l1.056.611a.669.669 0 0 1 .328.611 6.426 6.426 0 0 0 .039 1.084.663.663 0 0 1-.289.633l-1 .672a.629.629 0 0 0-.217.772l.339.734.339.734a.624.624 0 0 0 .728.345l1.172-.317a.666.666 0 0 1 .667.2 6.414 6.414 0 0 0 .749.705zm2.684-8.485a3.566 3.566 0 1 1-1.689 4.751 3.566 3.566 0 0 1 1.689-4.752z" transform="translate(1384.251 47.163)" fill="#166529"/></g></svg>