<svg xmlns="http://www.w3.org/2000/svg" width="12.686" height="12.686"><path id="Mask" d="M1.586 12.686A1.586 1.586 0 0 1 0 11.1V8.881a.634.634 0 1 1 1.268 0V11.1a.317.317 0 0 0 .317.317H11.1a.317.317 0 0 0 .317-.317V8.881a.634.634 0 1 1 1.268 0V11.1a1.585 1.585 0 0 1-1.585 1.586zm4.369-3.938l-.012-.01-.012-.01c-.013-.01-.025-.022-.036-.033L2.723 5.523a.634.634 0 1 1 .9-.9l2.086 2.092V.634a.634.634 0 0 1 1.268 0v6.08l2.089-2.088a.634.634 0 0 1 .9.9L6.792 8.694l-.023.022-.012.01-.012.01-.012.01-.013.01a.634.634 0 0 1-.763-.01z" fill="#5c5c5c"/></svg>