<svg xmlns="http://www.w3.org/2000/svg" width="11.85" height="13.167"><path id="Mask" d="M9.546 13.167H2.3a.989.989 0 0 1-.988-.987V3.292H.658a.659.659 0 0 1 0-1.317h2.634V.658A.659.659 0 0 1 3.95 0H7.9a.659.659 0 0 1 .658.658v1.317h2.634a.659.659 0 0 1 0 1.317h-.658v8.888a.989.989 0 0 1-.988.987zM2.633 3.292v8.558h6.584V3.292zm1.976-1.975v.658h2.632v-.658zm2.633 9.217a.659.659 0 0 1-.658-.658V5.925a.658.658 0 0 1 1.317 0v3.95a.659.659 0 0 1-.659.659zm-2.633 0a.659.659 0 0 1-.658-.658V5.925a.658.658 0 0 1 1.317 0v3.95a.659.659 0 0 1-.659.659z" fill="#cfd7db"/></svg>