<svg id="vk" xmlns="http://www.w3.org/2000/svg" width="31.438" height="31.438"><path id="Rectangle_306" data-name="Rectangle 306" fill="#44678d" d="M0 0h31.438v31.438H0z"/><path id="Path_243" data-name="Path 243" d="M38.174 117.091a20.658 20.658 0 0 0 2.966 5.19 2.77 2.77 0 0 0 .6.548.454.454 0 0 0 .76-.226 6.5 6.5 0 0 0 .274-1.583c.021-1.066 0-1.764-.06-2.828a1.382 1.382 0 0 0-1.282-1.461c-.31-.056-.338-.311-.139-.565a1.976 1.976 0 0 1 1.617-.647c1.014-.055 2.032-.01 3.047 0a6.064 6.064 0 0 1 1.237.126 1.13 1.13 0 0 1 .9 1.007 4.294 4.294 0 0 1 .062.813c-.026 1.163-.082 2.326-.1 3.488a6.076 6.076 0 0 0 .125 1.368c.137.619.558.775.99.327a15.159 15.159 0 0 0 1.484-1.857 18.535 18.535 0 0 0 1.968-3.815c.274-.69.483-.84 1.226-.842h4.185a2.514 2.514 0 0 1 .74.1.638.638 0 0 1 .441.822 6.937 6.937 0 0 1-1.236 2.451c-.854 1.2-1.748 2.381-2.622 3.571a4.491 4.491 0 0 0-.3.478.986.986 0 0 0 .172 1.413c.758.782 1.57 1.514 2.305 2.318a13.666 13.666 0 0 1 1.451 1.887 1.068 1.068 0 0 1-.795 1.782c-.629.089-3.7 0-3.859 0a3.007 3.007 0 0 1-2.131-.856c-.648-.624-1.238-1.309-1.86-1.961a5.2 5.2 0 0 0-.6-.549c-.509-.388-1.009-.3-1.247.3a11.5 11.5 0 0 0-.387 1.978 1.049 1.049 0 0 1-1.1 1.023 10.344 10.344 0 0 1-5.594-1.054 11.825 11.825 0 0 1-3.712-3.243 39.2 39.2 0 0 1-4.113-6.754c-.06-.121-1.257-2.666-1.289-2.787a.716.716 0 0 1 .333-.92c.212-.083 4.156 0 4.222 0a1.373 1.373 0 0 1 1.321.958z" transform="translate(-30.029 -107.523)" fill="#fff"/></svg>