<svg xmlns="http://www.w3.org/2000/svg" width="17.504" height="17.504"><g id="Group_1044" data-name="Group 1044" transform="translate(-881.996 -853.5)" fill="#166529"><path id="Path_55" data-name="Path 55" d="M8.752 0A8.752 8.752 0 1 0 17.5 8.752 8.747 8.747 0 0 0 8.752 0zm0 16.137a7.385 7.385 0 1 1 7.385-7.385 7.381 7.381 0 0 1-7.385 7.385z" transform="translate(881.996 853.5)"/><path id="Path_245" data-name="Path 245" d="M2.083-2.921q-.033-.9-.148-1.828T1.7-6.58q-.123-.906-.221-1.766a14.392 14.392 0 0 1-.1-1.631 1.627 1.627 0 0 1 .082-.533 1.28 1.28 0 0 1 .217-.4 1 1 0 0 1 .307-.254.767.767 0 0 1 .361-.09.8.8 0 0 1 .377.09.954.954 0 0 1 .3.254 1.209 1.209 0 0 1 .2.4 1.794 1.794 0 0 1 .074.533 14.392 14.392 0 0 1-.1 1.631q-.1.861-.225 1.766t-.234 1.832q-.115.926-.148 1.828zm.262 1.3a.871.871 0 0 1 .344.07.921.921 0 0 1 .283.184.848.848 0 0 1 .189.275.822.822 0 0 1 .07.332.833.833 0 0 1-.07.344.911.911 0 0 1-.189.275.831.831 0 0 1-.283.184.918.918 0 0 1-.344.066.94.94 0 0 1-.352-.063.877.877 0 0 1-.287-.184.876.876 0 0 1-.193-.275.833.833 0 0 1-.07-.344.822.822 0 0 1 .07-.332.818.818 0 0 1 .193-.275.975.975 0 0 1 .287-.184.892.892 0 0 1 .352-.07z" transform="translate(888.519 867.78)"/></g></svg>