<svg id="Group_932" data-name="Group 932" xmlns="http://www.w3.org/2000/svg" width="37.606" height="31.339"><defs><clipPath id="clip-path"><path id="Path_242" data-name="Path 242" d="M37.606-9.957a15.069 15.069 0 0 1-4.43 1.245 7.894 7.894 0 0 0 3.393-4.375 15.2 15.2 0 0 1-4.9 1.917 7.609 7.609 0 0 0-5.631-2.5 7.815 7.815 0 0 0-7.712 7.911 8.072 8.072 0 0 0 .2 1.8 21.722 21.722 0 0 1-15.9-8.269 8.055 8.055 0 0 0-1.052 3.987 7.964 7.964 0 0 0 3.432 6.585 7.575 7.575 0 0 1-3.5-.987v.1A7.865 7.865 0 0 0 7.7 5.211a7.357 7.357 0 0 1-2.033.278 7.494 7.494 0 0 1-1.452-.14 7.745 7.745 0 0 0 7.207 5.491 15.234 15.234 0 0 1-9.582 3.389A15.441 15.441 0 0 1 0 14.12a21.481 21.481 0 0 0 11.827 3.551c14.193 0 21.952-12.053 21.952-22.509 0-.344-.007-.688-.02-1.025a15.835 15.835 0 0 0 3.847-4.095" transform="translate(0 13.667)" fill="none" clip-rule="evenodd"/></clipPath></defs><g id="Group_931" data-name="Group 931" clip-path="url(#clip-path)"><path id="Path_241" data-name="Path 241" d="M-5-18.667h61.11v54.843H-5z" transform="translate(-6.752 6.915)" fill="#00aaec"/></g></svg>