<svg id="Group_917" data-name="Group 917" xmlns="http://www.w3.org/2000/svg" width="31.47" height="31.47"><defs><clipPath id="clip-path"><path id="Path_227" data-name="Path 227" d="M16.809 15.47H1.737A1.737 1.737 0 0 1 0 13.733v-28A1.737 1.737 0 0 1 1.737-16h28a1.737 1.737 0 0 1 1.737 1.737v28a1.737 1.737 0 0 1-1.737 1.737h-8.023V3.283H25.8l.612-4.749h-4.7V-4.5c0-1.375.382-2.312 2.354-2.312h2.515v-4.248a33.618 33.618 0 0 0-3.665-.187c-3.626 0-6.109 2.213-6.109 6.278v3.5h-4.1v4.752h4.1V15.47z" transform="translate(0 16)" fill="none" clip-rule="evenodd"/></clipPath></defs><g id="Group_916" data-name="Group 916" clip-path="url(#clip-path)"><path id="Path_226" data-name="Path 226" d="M-5-21h51.138v51.138H-5z" transform="translate(-4.834 11.166)" fill="#4460a0"/></g></svg>