<svg xmlns="http://www.w3.org/2000/svg" width="55.004" height="55.004"><g id="information" transform="rotate(180 27.502 27.502)" opacity=".995"><g id="Group_24" data-name="Group 24"><g id="Group_23" data-name="Group 23" fill="#5c5c5c"><circle id="Ellipse_1" data-name="Ellipse 1" cx="2.686" cy="2.686" r="2.686" transform="translate(24.816 37.977)"/><path id="Path_55" data-name="Path 55" d="M27.5 0A27.5 27.5 0 1 0 55 27.5 27.487 27.487 0 0 0 27.5 0zm0 50.707a23.2 23.2 0 1 1 23.2-23.2 23.192 23.192 0 0 1-23.2 23.2z"/><path id="Path_56" data-name="Path 56" d="M184.594 128.5a8.6 8.6 0 0 0-8.594 8.594 2.149 2.149 0 1 0 4.3 0 4.3 4.3 0 1 1 4.3 4.3 2.149 2.149 0 0 0-2.149 2.149v5.372a2.149 2.149 0 1 0 4.3 0v-3.495a8.6 8.6 0 0 0-2.149-16.917z" transform="translate(-157.092 -114.695)"/></g></g></g></svg>