<svg xmlns="http://www.w3.org/2000/svg" width="70.002" height="76.047"><g id="Group_18" data-name="Group 18" transform="translate(-691.24 338.863)" fill-rule="evenodd"><path id="Path_43" data-name="Path 43" d="M733.391-299.6c-1.07 5.606-2.488 8.13-6.185 8.84v.005a14.011 14.011 0 0 1-2.641.216 6.82 6.82 0 0 1-4.5-1.735l.005-.033c-2.039-1.861-3.166-5.133-3.166-9.5a18.508 18.508 0 0 1 .357-3.764 29.9 29.9 0 0 0-3.466-6.035c-3.032 2.208-4.68 5.581-4.68 9.9 0 5.861 3.008 9.9 8.165 11.757v.023a21.827 21.827 0 0 0 7.289 1.153 15.98 15.98 0 0 0 5.4-.824v-.01a8.4 8.4 0 0 0 4.561-3.562l-.839-6.439zm-9.91-13.01a8.2 8.2 0 0 1 1.055-.141h1.129a7.238 7.238 0 0 1 4.251 1.388l.063.053.063.048.058.043h.005l.063.053.014.009.048.044.063.053.058.053.063.057.058.053.236.237.053.063.015.009.043.053h.01l.048.058.058.063.028.033.025.035.058.062.009.015.044.053.048.058.009.01.053.072v.01l.048.058.106.144.048.078.053.072.053.078.048.077.01.015.015.02.072.111.005.009.078.121.023.038.048.083.01.014.078.136v.009l.048.088.023.048.025.038c.038.078.077.154.12.232l.01.023.005.015.048.091.025.043.018.048.044.091.009.02a14.506 14.506 0 0 1 .766 2.1h.295l.111-2.1.236-4.671-.038-.02-.025-.01h-.018l-.01-.005h-.015l-.02-.01-.048-.02h-.014l-.025-.009h-.018l-.049-.02-.018-.01-.048-.018-.02-.01h-.024l-.073-.028h-.015l-.048-.015-.12-.048h-.044l-.073-.028h-.024l-.1-.038h-.023l-.03-.01-.048-.02h-.009l-.015-.01h-.03l-.048-.02h-.024l-.03-.01h-.023l-.078-.028h-.028l-.048-.02h-.01l-.02-.009h-.023l-.03-.01-.023-.01h-.053l-.058-.018a23.861 23.861 0 0 0-4.719-.916h-.164l-.086-.01h-.247l-.088-.009h-.045l-.086-.01h-.13l-.086-.01h-2.306a21.762 21.762 0 0 0-6.662 1.041c.121.111.242.212.367.313a8.584 8.584 0 0 0 3.071 1.566 7.257 7.257 0 0 1 2.516-.992zm0 0" transform="translate(4.181 5.691)" fill="#166529"/><path id="Path_44" data-name="Path 44" d="M702.078-309.565l-.642 13.221c0 6.19 3.312 10.195 7.284 13.873l.023.028c.126.106.241.217.362.328.3.274.612.554.925.829l.144.13.053.048.362.323 2.141 1.894 2.221 1.98.126.106 8.772 7.79 8.417-7.462 2.747-2.443 2.146-1.9.524-.463c.444-.4.882-.791 1.312-1.191l.038-.035c.043-.038.086-.077.131-.12l.033-.03c3.88-3.629 7.08-7.6 7.08-13.685l-.635-13.293a25.923 25.923 0 0 1-5.249-2.733l.362 16.027c0 4.845-3.36 7.924-6.739 10.928l-10.161 9.015-6.7-5.949-3.047-2.7-.41-.366c-3.393-3-6.739-6.083-6.739-10.951l.357-15.877a26.174 26.174 0 0 1-5.239 2.68zm0 0" transform="translate(2.385 6.198)" fill="#166529"/><path id="Path_45" data-name="Path 45" d="M699.464-315.365c-1.513 4.29 2.5 4.319 2.5 4.319a3.575 3.575 0 0 1-1.2-1.972 7.942 7.942 0 0 0 2.072 1.663c.652-1.3.088-1.919-.39-2.2a2.013 2.013 0 0 0-.675-.227 3.44 3.44 0 0 1-2.309-1.586zm31.924 30.3c-.366-1.567-.858-3.032-1.287-4.71-.01-.028-.01-.053-.018-.077-1.124-6.584-.439-9.954 2.448-13.974a16.425 16.425 0 0 1 1.566-1.86 7.265 7.265 0 0 0-4.256-1.388 8.247 8.247 0 0 1-3.6 1.364 8.355 8.355 0 0 1-4.17-1.783 7.319 7.319 0 0 1-2.631-4.647c-.343-2.256-1.433-6.387-4.874-8.7a6.51 6.51 0 0 1-.443-.322 6.31 6.31 0 0 1 .289-2.28 6.449 6.449 0 0 0-.626 1.985 5.035 5.035 0 0 1-1.552-2.665c-.4-1.962.13-5.254 4.893-9.766a.1.1 0 0 0-.126-.164 14.791 14.791 0 0 0-2.738 1.943 7.109 7.109 0 0 1-2.38-2.208 7.165 7.165 0 0 0 2.005 2.554 12.179 12.179 0 0 0-1.9 2.309 6.868 6.868 0 0 1-2.014-1.982 6.958 6.958 0 0 0 1.788 2.367 8.579 8.579 0 0 0-1.08 3.259 6.871 6.871 0 0 1-2.155-1.446 7.071 7.071 0 0 0 2.111 1.889 8.857 8.857 0 0 0 .38 3.119 23.1 23.1 0 0 0-4.281-.26 6.9 6.9 0 0 1-2.024-1.388 6.544 6.544 0 0 0 1.412 1.412 20.821 20.821 0 0 0-3.86.559 6.769 6.769 0 0 1-2.136-1.436 6.711 6.711 0 0 0 1.624 1.572 15.521 15.521 0 0 0-3.171 1.257 7.219 7.219 0 0 1-2.7-1.662 7.111 7.111 0 0 0 2.208 1.942 12.2 12.2 0 0 0-5.168 6.059c-.048.121.136.2.2.081a13.127 13.127 0 0 1 5.36-5.075 6.563 6.563 0 0 0-.511 2.473 6.7 6.7 0 0 1 1.2-2.81 14.355 14.355 0 0 1 3.538-1.07 6.8 6.8 0 0 0-.766 3.055 6.871 6.871 0 0 1 1.455-3.153 17.492 17.492 0 0 1 3.751-.043 6.736 6.736 0 0 0-.661 2.82 6.707 6.707 0 0 1 1.172-2.767 13.25 13.25 0 0 1 4.34 1.114 6.523 6.523 0 0 0-.579 2.636 6.353 6.353 0 0 1 .955-2.438 7.371 7.371 0 0 1 3.981 5.75 4.414 4.414 0 0 1-.023.642 17.173 17.173 0 0 0-.126 2.3 16.108 16.108 0 0 0-6.911-1.755 9.928 9.928 0 0 0-5.755 1.716 7.029 7.029 0 0 1-2.314-1.625 6.989 6.989 0 0 0 1.932 1.889 9.425 9.425 0 0 0-2.468 2.8 7.018 7.018 0 0 1-2.425-1.672 7.147 7.147 0 0 0 2.208 2.072 9.629 9.629 0 0 0-1.06 4.4 7.052 7.052 0 0 1-2.488-1.7 7.3 7.3 0 0 0 2.5 2.251 14.166 14.166 0 0 0 .645 3.62c.043.139.27.057.207-.073a20.626 20.626 0 0 1-.048-3.181 7.452 7.452 0 0 0 2.642-2.328 7.193 7.193 0 0 1-2.6 1.75c.174-1.9.685-4.039 1.992-5.225a4.507 4.507 0 0 1 .481-.506 6.781 6.781 0 0 0 2.834.067 6.429 6.429 0 0 1-2.483-.38 8.912 8.912 0 0 1 5.75-2.116 11.966 11.966 0 0 1 5.592 1.542c4.125 2.2 7.576 9.679 8.686 14.079a21.676 21.676 0 0 1 1.113 8.479 6.8 6.8 0 0 0 4.5 1.735 14.011 14.011 0 0 0 2.641-.216zm4.941-22.737a13.16 13.16 0 0 1 4.281-2.415 10.5 10.5 0 0 1 3.022-.468 8.923 8.923 0 0 1 5.75 2.116 6.425 6.425 0 0 1-2.483.38 6.781 6.781 0 0 0 2.834-.067 6.484 6.484 0 0 1 .482.506c1.307 1.186 1.818 3.326 1.99 5.225a7.147 7.147 0 0 1-2.6-1.75 7.4 7.4 0 0 0 2.641 2.328 20.985 20.985 0 0 1-.048 3.181c-.067.13.164.212.207.073a14.174 14.174 0 0 0 .647-3.62 7.83 7.83 0 0 0 2.164-1.788c.125-.154.226-.3.337-.463a7.04 7.04 0 0 1-2.488 1.7 9.613 9.613 0 0 0-1.06-4.4 7.146 7.146 0 0 0 2.208-2.072 7.025 7.025 0 0 1-2.425 1.672 9.425 9.425 0 0 0-2.468-2.8 6.86 6.86 0 0 0 1.934-1.889 7.042 7.042 0 0 1-2.314 1.625 9.933 9.933 0 0 0-5.755-1.716 16.093 16.093 0 0 0-6.913 1.755 17.39 17.39 0 0 0-.125-2.3 3.8 3.8 0 0 1-.025-.642 7.369 7.369 0 0 1 3.982-5.75 6.456 6.456 0 0 1 .954 2.438 6.586 6.586 0 0 0-.579-2.636 13.226 13.226 0 0 1 4.339-1.109 6.733 6.733 0 0 1 1.171 2.767 6.716 6.716 0 0 0-.66-2.82 17.48 17.48 0 0 1 3.75.043 7.089 7.089 0 0 1 1.431 3l.025.149a6.872 6.872 0 0 0-.766-3.055 14.356 14.356 0 0 1 3.538 1.07 6.719 6.719 0 0 1 1.2 2.81 6.514 6.514 0 0 0-.511-2.473 13.157 13.157 0 0 1 5.36 5.075c.058.116.246.039.2-.081a12.2 12.2 0 0 0-5.167-6.059 7.189 7.189 0 0 0 2.208-1.942 7.16 7.16 0 0 1-2.7 1.662 15.489 15.489 0 0 0-3.171-1.257 6.777 6.777 0 0 0 1.624-1.572 6.778 6.778 0 0 1-2.135 1.436 20.833 20.833 0 0 0-3.861-.559 6.393 6.393 0 0 0 1.408-1.412 6.817 6.817 0 0 1-2.02 1.388 23.1 23.1 0 0 0-4.281.26 8.942 8.942 0 0 0 .381-3.119 7.206 7.206 0 0 0 2.111-1.889 6.97 6.97 0 0 1-2.155 1.446 8.624 8.624 0 0 0-1.08-3.259 6.99 6.99 0 0 0 1.788-2.367 6.876 6.876 0 0 1-2.02 1.982 11.812 11.812 0 0 0-1.894-2.309 7.086 7.086 0 0 0 2.005-2.554 7.015 7.015 0 0 1-2.377 2.208 14.7 14.7 0 0 0-2.738-1.943.1.1 0 0 0-.125.164c4.762 4.511 5.288 7.8 4.893 9.766a5.044 5.044 0 0 1-1.552 2.665 6.373 6.373 0 0 0-.632-1.985 6.208 6.208 0 0 1 .295 2.28c-.141.111-.29.221-.444.322-3.441 2.314-4.531 6.445-4.878 8.7a7.517 7.517 0 0 1-1.431 3.423 24 24 0 0 1 4.719.916zm-18.5-26.964a3.62 3.62 0 0 1-1.5 1.769s3.967.569 3.163-3.9a3.5 3.5 0 0 1-2.536 1.229 1.937 1.937 0 0 0-.7.125c-.516.2-1.172.733-.743 2.111a8.07 8.07 0 0 0 2.319-1.335zm4.309-1.619a7.22 7.22 0 0 0 .048 2.588c1.446-.38 1.567-1.194 1.476-1.72a1.94 1.94 0 0 0-.265-.642 3.193 3.193 0 0 1-.26-2.709c-4.377 1.721-1.77 4.637-1.77 4.637a3.515 3.515 0 0 1 .771-2.154zm-4.208 9.784c1.292-.732 1.186-1.551.954-2.034a1.941 1.941 0 0 0-.433-.549 3.24 3.24 0 0 1-.993-2.551c-3.755 2.763-.438 4.922-.438 4.922a3.5 3.5 0 0 1 .154-2.275 7.341 7.341 0 0 0 .756 2.486zm1.793 13.063l.193-.115a9.674 9.674 0 0 0 5.292-5.332 9.6 9.6 0 0 0-.795-8.522 16.61 16.61 0 0 1-.675-1.234 3.849 3.849 0 0 0 .174-.362 7.217 7.217 0 0 0 .347-1c.048-.184.086-.371.116-.55s.043-.342.053-.481a3.453 3.453 0 0 0 0-.348 1.237 1.237 0 0 0 0-.125l-.015.125a3.064 3.064 0 0 1-.063.338 3.817 3.817 0 0 1-.125.458 4.362 4.362 0 0 1-.2.511 6.369 6.369 0 0 1-.481.9c-.015.02-.025.039-.038.058a17.7 17.7 0 0 1-1.61-5.755.1.1 0 0 0-.091-.1.111.111 0 0 0-.116.068c-1.008 2.617.675 6.329 1.765 8.3a6.96 6.96 0 0 1 .814 4.579 9.768 9.768 0 0 1-5.125 6.614 16.23 16.23 0 0 1 .579 1.966zm2.647-5.46a.087.087 0 0 0 .033 0 .132.132 0 0 0 .081-.033 3.514 3.514 0 0 0 .617-1.065.1.1 0 0 0-.062-.126 7.041 7.041 0 0 1-2.121-1.368c.023-.081.081-.27.139-.521a7.866 7.866 0 0 0 .188-1.244 6.047 6.047 0 0 0 .015-.665c0-.212-.023-.41-.043-.579a3.2 3.2 0 0 0-.068-.4c-.018-.1-.033-.154-.033-.154s0 .058.01.154a3.636 3.636 0 0 1 0 .4 4.26 4.26 0 0 1-.048.564 6.321 6.321 0 0 1-.116.637 8.425 8.425 0 0 1-.367 1.148l-.1.236a15.139 15.139 0 0 1-3.239-6.256.109.109 0 0 0-.121-.083.106.106 0 0 0-.1.106c.29 7.578 5.279 9.226 5.332 9.241zm-16.87-3.621a3.559 3.559 0 0 1-1.273-1.927 7.93 7.93 0 0 0 2.136 1.586c.6-1.317.01-1.919-.473-2.179a1.983 1.983 0 0 0-.69-.2 3.478 3.478 0 0 1-2.367-1.509c-1.344 4.348 2.667 4.232 2.667 4.232zm3.812-3.36a3.578 3.578 0 0 1-1.272-1.927 7.93 7.93 0 0 0 2.136 1.586c.6-1.32.009-1.924-.473-2.183a2.12 2.12 0 0 0-.69-.2 3.463 3.463 0 0 1-2.367-1.5c-1.345 4.342 2.665 4.231 2.665 4.231zm1.158-4.054a3.517 3.517 0 0 1-.834-2.135 7.668 7.668 0 0 0 1.755 1.967c.862-1.177.415-1.881 0-2.227a2.12 2.12 0 0 0-.627-.333 3.386 3.386 0 0 1-2-1.932c-2.236 4 1.712 4.661 1.712 4.661zm1.909-2.883a3.507 3.507 0 0 1-.839-2.135 7.774 7.774 0 0 0 1.755 1.967c.867-1.177.419-1.881 0-2.227a2.15 2.15 0 0 0-.632-.333 3.386 3.386 0 0 1-2-1.932c-2.236 4 1.717 4.661 1.717 4.661zm1.249 10.749a3.6 3.6 0 0 1 1.146-2 7.275 7.275 0 0 0-.415 2.554c1.494-.135 1.76-.921 1.765-1.45a1.838 1.838 0 0 0-.149-.675 3.223 3.223 0 0 1 .231-2.715c-4.622.975-2.578 4.281-2.578 4.281zm-11.3 16.461a2.077 2.077 0 0 0-.679.232c-.473.274-1.036.9-.386 2.193a7.745 7.745 0 0 0 2.068-1.663 3.574 3.574 0 0 1-1.191 1.977s4.01-.03 2.5-4.324a3.452 3.452 0 0 1-2.309 1.586zm6.3-3.292a3.155 3.155 0 0 1-2.449-.395 1.836 1.836 0 0 0-.559-.26c-.471-.111-1.224-.063-1.662 1.118a7.107 7.107 0 0 0 2.347.207 3.4 3.4 0 0 1-2.01.506s2.483 2.362 4.334-1.176zm-6.46-5.075a3.239 3.239 0 0 1 1.046-2.531 1.977 1.977 0 0 0 .439-.544c.246-.478.365-1.292-.912-2.048a7.393 7.393 0 0 0-.8 2.472 3.465 3.465 0 0 1-.106-2.279s-3.36 2.1.337 4.931zm4.551-.376a3.245 3.245 0 0 1 1.042-2.531 1.928 1.928 0 0 0 .443-.544c.241-.478.366-1.292-.911-2.048a7.29 7.29 0 0 0-.806 2.473 3.483 3.483 0 0 1-.11-2.28s-3.355 2.1.342 4.931zm4.926.979a3.239 3.239 0 0 1 1.046-2.53 1.977 1.977 0 0 0 .438-.539c.247-.482.366-1.3-.911-2.053a7.463 7.463 0 0 0-.8 2.473 3.461 3.461 0 0 1-.106-2.28s-3.36 2.1.337 4.931zm7.712-11.708c-.135.516-.076 1.34 1.34 1.821a7.169 7.169 0 0 0 .246-2.578 3.526 3.526 0 0 1 .607 2.208s2.826-2.728-1.407-4.753a3.218 3.218 0 0 1-.473 2.685 1.919 1.919 0 0 0-.313.617zm3.972-7.173a1.676 1.676 0 0 0-.352.468c-.194.41-.27 1.1.829 1.7a6.072 6.072 0 0 0 .6-2.1 2.923 2.923 0 0 1 .164 1.914s2.757-1.861-.434-4.136a2.715 2.715 0 0 1-.8 2.154zm28.458 34.937a7.2 7.2 0 0 0 .237-2.579c-1.484.236-1.692 1.036-1.658 1.567a1.94 1.94 0 0 0 .2.665 3.2 3.2 0 0 1-.038 2.718c4.541-1.277 2.266-4.44 2.266-4.44a3.549 3.549 0 0 1-1 2.068zm7.6-17.657a3.462 3.462 0 0 1 .347 2.256 7.49 7.49 0 0 0-1.282-2.279c-1.1.974-.824 1.755-.487 2.178a2.068 2.068 0 0 0 .541.454 3.293 3.293 0 0 1 1.528 2.294c3.065-3.451-.645-4.9-.645-4.9zm-23.227-17.921a3.612 3.612 0 0 1-1.5-1.769 8.055 8.055 0 0 0 2.317 1.335c.429-1.378-.226-1.909-.742-2.111a1.942 1.942 0 0 0-.7-.125 3.508 3.508 0 0 1-2.541-1.229c-.8 4.468 3.166 3.9 3.166 3.9zm-5.856-.8a7.216 7.216 0 0 0 .048-2.588 3.506 3.506 0 0 1 .771 2.154s2.609-2.916-1.768-4.637a3.213 3.213 0 0 1-.26 2.709 1.888 1.888 0 0 0-.265.642c-.091.526.028 1.34 1.475 1.72zm4.729 2.063a3.236 3.236 0 0 1-.992 2.551 1.947 1.947 0 0 0-.434.549c-.231.482-.337 1.3.954 2.034a7.324 7.324 0 0 0 .758-2.486 3.494 3.494 0 0 1 .154 2.275s3.311-2.159-.439-4.922zm-2.458 18.081l.193.115a16.464 16.464 0 0 1 .579-1.966 9.757 9.757 0 0 1-5.123-6.614 6.945 6.945 0 0 1 .814-4.579c1.09-1.976 2.772-5.687 1.765-8.3a.111.111 0 0 0-.116-.068.1.1 0 0 0-.091.1 17.788 17.788 0 0 1-1.615 5.755.67.67 0 0 0-.038-.058 6.388 6.388 0 0 1-.477-.9 4.577 4.577 0 0 1-.2-.511 3.829 3.829 0 0 1-.126-.458 2.742 2.742 0 0 1-.062-.338l-.015-.125a1.237 1.237 0 0 0 0 .125 2.825 2.825 0 0 0 0 .348c.01.139.023.3.053.481a4.569 4.569 0 0 0 .116.55 7.06 7.06 0 0 0 .347 1 3.6 3.6 0 0 0 .173.362c-.2.41-.423.819-.674 1.234a9.6 9.6 0 0 0-.8 8.522 9.663 9.663 0 0 0 5.292 5.332zm-3.186-6.44a3.542 3.542 0 0 0 .617 1.065.124.124 0 0 0 .081.033.112.112 0 0 0 .035 0c.053-.015 5.042-1.663 5.326-9.241a.1.1 0 0 0-.091-.106.109.109 0 0 0-.121.083 15.12 15.12 0 0 1-3.241 6.254l-.1-.236a7.527 7.527 0 0 1-.367-1.148 4.955 4.955 0 0 1-.115-.637 5.092 5.092 0 0 1-.053-.564c0-.168 0-.309.005-.4l.009-.154s-.014.058-.033.154a3.447 3.447 0 0 0-.068.4 6.508 6.508 0 0 0-.043.579 6.047 6.047 0 0 0 .015.665 8.025 8.025 0 0 0 .188 1.244c.058.25.116.439.141.521a7.057 7.057 0 0 1-2.121 1.368.1.1 0 0 0-.063.126zm24.323 1.715c-1.277.758-1.156 1.572-.911 2.05a2 2 0 0 0 .438.544 3.239 3.239 0 0 1 1.046 2.531c3.7-2.829.342-4.931.342-4.931a3.481 3.481 0 0 1-.111 2.279 7.273 7.273 0 0 0-.8-2.473zm3.374-4.477a3.568 3.568 0 0 1-1.267 1.927s4.005.116 2.66-4.228a3.461 3.461 0 0 1-2.367 1.5 2.065 2.065 0 0 0-.684.2c-.487.26-1.075.862-.478 2.179a7.83 7.83 0 0 0 2.135-1.586zm-4.246-1.162a3.591 3.591 0 0 1-1.267 1.929s4.005.111 2.66-4.232a3.452 3.452 0 0 1-2.367 1.5 2.08 2.08 0 0 0-.685.207c-.486.255-1.075.858-.473 2.178a7.853 7.853 0 0 0 2.131-1.586zm-6.719 1.051a7.915 7.915 0 0 0 2.135-1.586 3.6 3.6 0 0 1-1.272 1.927s4.01.116 2.66-4.232a3.458 3.458 0 0 1-2.367 1.509 2 2 0 0 0-.685.2c-.486.26-1.075.863-.471 2.179zm-3.34-5.543c-.482.259-1.071.862-.473 2.183a7.915 7.915 0 0 0 2.135-1.586 3.578 3.578 0 0 1-1.272 1.927s4.01.111 2.665-4.231a3.461 3.461 0 0 1-2.372 1.5 2.13 2.13 0 0 0-.684.2zm-1.683-3.924c-.42.347-.872 1.05-.005 2.227a7.64 7.64 0 0 0 1.755-1.967 3.52 3.52 0 0 1-.833 2.135s3.948-.665 1.71-4.661a3.386 3.386 0 0 1-2 1.932 2.151 2.151 0 0 0-.627.333zm-.154-2.622a3.51 3.51 0 0 1-.838 2.135s3.952-.665 1.715-4.661a3.386 3.386 0 0 1-2 1.932 2.18 2.18 0 0 0-.632.333c-.418.347-.867 1.05 0 2.227a7.714 7.714 0 0 0 1.758-1.967zm-2.087 12.884s2.043-3.306-2.579-4.281a3.221 3.221 0 0 1 .232 2.715 1.814 1.814 0 0 0-.151.675c.005.529.27 1.315 1.765 1.45a7.24 7.24 0 0 0-.415-2.554 3.6 3.6 0 0 1 1.148 2zm16.157 16.172a2.083 2.083 0 0 0-.675.231c-.478.275-1.041.9-.391 2.194a7.837 7.837 0 0 0 2.073-1.663 3.561 3.561 0 0 1-1.2 1.976s4.01-.033 2.5-4.323a3.444 3.444 0 0 1-2.309 1.586zm.969-6.354a3.456 3.456 0 0 1-2.309 1.586 2.106 2.106 0 0 0-.68.227c-.473.28-1.037.9-.386 2.2a7.884 7.884 0 0 0 2.066-1.665 3.549 3.549 0 0 1-1.191 1.971s4.01-.028 2.5-4.319zm-2.96-3.017a3.452 3.452 0 0 1-2.309 1.586 2.07 2.07 0 0 0-.679.227c-.473.279-1.036.9-.386 2.2a7.874 7.874 0 0 0 2.068-1.663 3.554 3.554 0 0 1-1.191 1.972s4.01-.028 2.5-4.319zm-1.8 12.084c.652-1.3.088-1.919-.39-2.193a2.017 2.017 0 0 0-.675-.232 3.44 3.44 0 0 1-2.309-1.586c-1.513 4.294 2.5 4.324 2.5 4.324a3.594 3.594 0 0 1-1.2-1.977 7.811 7.811 0 0 0 2.072 1.663zm-2.689-5.254c-.439-1.181-1.191-1.229-1.663-1.118a1.877 1.877 0 0 0-.564.26 3.14 3.14 0 0 1-2.443.395c1.851 3.538 4.332 1.176 4.332 1.176a3.409 3.409 0 0 1-2.01-.506 7.145 7.145 0 0 0 2.348-.207zm1.214-10.661c-1.282.756-1.156 1.571-.911 2.048a1.908 1.908 0 0 0 .438.544 3.239 3.239 0 0 1 1.046 2.531c3.7-2.829.337-4.931.337-4.931a3.455 3.455 0 0 1-.106 2.279 7.391 7.391 0 0 0-.8-2.472zm-3.634-.184a3.488 3.488 0 0 1-.114 2.28 7.276 7.276 0 0 0-.8-2.473c-1.277.756-1.157 1.571-.912 2.048a1.909 1.909 0 0 0 .444.544 3.245 3.245 0 0 1 1.041 2.531c3.7-2.829.342-4.931.342-4.931zm-4.931.979a3.47 3.47 0 0 1-.106 2.28 7.446 7.446 0 0 0-.806-2.473c-1.282.756-1.156 1.571-.911 2.053a1.873 1.873 0 0 0 .439.539 3.241 3.241 0 0 1 1.045 2.531c3.7-2.829.338-4.931.338-4.931zm-10.243-5.326a3.553 3.553 0 0 1 .6-2.208 7.229 7.229 0 0 0 .25 2.578c1.418-.481 1.471-1.306 1.34-1.821a1.894 1.894 0 0 0-.313-.617 3.215 3.215 0 0 1-.471-2.685c-4.232 2.025-1.408 4.753-1.408 4.753zm-3.017-6.642a2.934 2.934 0 0 1 .159-1.914 6.133 6.133 0 0 0 .6 2.1c1.1-.6 1.022-1.287.829-1.7a1.7 1.7 0 0 0-.352-.468 2.714 2.714 0 0 1-.806-2.154c-3.191 2.275-.433 4.136-.433 4.136zm12.036 22.115l.433 18.108c0 3.153-1.879 5.37-5.813 8.87l-.337.294-.025.02-1.591 1.412-.12.106-.6.531a19.953 19.953 0 0 0-.169-4.377 19.488 19.488 0 0 1-2.987.217 24.016 24.016 0 0 1-5.178-.545 12.8 12.8 0 0 1-2.984 4.715l-.453-.4-1.856-1.644-.5-.444s-.01 0-.015-.01c-.139-.125-.279-.246-.415-.365-3.557-3.216-5.254-5.37-5.254-8.374l.434-17.906-.086-.015-1.36 1.036c-.13.1-.255.2-.385.289l-.376 16.6c0 3.833 2.068 6.339 6.41 10.195l.41.367 3.047 2.7 6.049 5.37 6.059-5.379 3.057-2.715.395-.347c4.344-3.856 6.412-6.362 6.412-10.195l-.381-16.735-.2-.149c-.135-.1-1.605-1.229-1.629-1.224zm-39.492 8.261a7.264 7.264 0 0 0 .231 2.579 3.556 3.556 0 0 1-1-2.068s-2.28 3.163 2.261 4.44a3.2 3.2 0 0 1-.035-2.718 1.914 1.914 0 0 0 .2-.665c.035-.531-.173-1.331-1.657-1.567zm-6.425-15.1a7.462 7.462 0 0 0-1.282 2.279 3.462 3.462 0 0 1 .347-2.256s-3.717 1.451-.647 4.9a3.3 3.3 0 0 1 1.529-2.294 2.044 2.044 0 0 0 .539-.454c.333-.423.617-1.2-.486-2.178zm4.165 1.846a3.242 3.242 0 0 1 1.04-2.531 1.911 1.911 0 0 0 .444-.544c.241-.478.366-1.292-.912-2.05a7.306 7.306 0 0 0-.8 2.473 3.491 3.491 0 0 1-.111-2.279s-3.354 2.1.343 4.931zm-1.534-7.674a3.568 3.568 0 0 1-1.267-1.927 7.871 7.871 0 0 0 2.131 1.586c.6-1.317.014-1.919-.473-2.179a2.1 2.1 0 0 0-.685-.2 3.465 3.465 0 0 1-2.367-1.5c-1.345 4.344 2.66 4.228 2.66 4.228zm4.247-1.161a3.6 3.6 0 0 1-1.268-1.929 7.873 7.873 0 0 0 2.131 1.586c.6-1.32.015-1.923-.473-2.178a2.109 2.109 0 0 0-.684-.207 3.448 3.448 0 0 1-2.367-1.5c-1.35 4.344 2.66 4.232 2.66 4.232zm-2.377 18.514c.65-1.3.086-1.919-.39-2.194a2.094 2.094 0 0 0-.675-.231 3.44 3.44 0 0 1-2.309-1.586c-1.514 4.289 2.5 4.323 2.5 4.323a3.561 3.561 0 0 1-1.2-1.976 7.771 7.771 0 0 0 2.073 1.663zm.463-4.46a3.579 3.579 0 0 1-1.2-1.971 7.968 7.968 0 0 0 2.073 1.662c.65-1.3.086-1.918-.39-2.2a2.05 2.05 0 0 0-.675-.227 3.436 3.436 0 0 1-2.309-1.586c-1.514 4.29 2.5 4.319 2.5 4.319zm0 0" fill="#d7b25f"/></g></svg>