<svg xmlns="http://www.w3.org/2000/svg" xmlns:xlink="http://www.w3.org/1999/xlink"><symbol id="icon-about-us"><g id="Group_24" data-name="Group 24"><g id="Group_23" data-name="Group 23"><circle id="Ellipse_1" data-name="Ellipse 1" cx="2.686" cy="2.686" r="2.686" transform="translate(24.816 37.977)"/><path id="Path_55" data-name="Path 55" d="M27.5 0A27.5 27.5 0 1 0 55 27.5 27.487 27.487 0 0 0 27.5 0zm0 50.707a23.2 23.2 0 1 1 23.2-23.2 23.192 23.192 0 0 1-23.2 23.2z"/><path id="Path_56" data-name="Path 56" d="M184.594 128.5a8.6 8.6 0 0 0-8.594 8.594 2.149 2.149 0 1 0 4.3 0 4.3 4.3 0 1 1 4.3 4.3 2.149 2.149 0 0 0-2.149 2.149v5.372a2.149 2.149 0 1 0 4.3 0v-3.495a8.6 8.6 0 0 0-2.149-16.917z" transform="translate(-157.092 -114.695)"/></g></g></symbol><symbol id="icon-arrow-left"><path id="Mask" d="M13.367 26.735a13.367 13.367 0 1 1 13.368-13.368 13.382 13.382 0 0 1-13.368 13.368zm-5.346-14.7a1.337 1.337 0 1 0 0 2.673h7.466l-3.065 3.065a1.337 1.337 0 0 0 1.891 1.89l5.341-5.341a1.336 1.336 0 0 0 0-1.9l-5.341-5.347a1.337 1.337 0 1 0-1.891 1.89l3.065 3.065z" transform="rotate(180 13.367 13.367)"/></symbol><symbol id="icon-arrow-right"><path id="Mask" d="M13.367 26.735a13.367 13.367 0 1 1 13.368-13.368 13.382 13.382 0 0 1-13.368 13.368zm-5.346-14.7a1.337 1.337 0 1 0 0 2.673h7.466l-3.065 3.065a1.337 1.337 0 0 0 1.891 1.89l5.341-5.341a1.336 1.336 0 0 0 0-1.9l-5.341-5.347a1.337 1.337 0 1 0-1.891 1.89l3.065 3.065z"/></symbol><symbol id="icon-cancel"><g id="Group_1081" data-name="Group 1081" transform="translate(.707 .707)" stroke="#000" stroke-width="2"><path id="Line_162" data-name="Line 162" d="M18 0L0 18"/><path id="Line_163" data-name="Line 163" d="M0 0l18 18"/></g></symbol><symbol id="icon-delete"><path id="Mask" d="M9.546 13.167H2.3a.989.989 0 0 1-.988-.987V3.292H.658a.659.659 0 0 1 0-1.317h2.634V.658A.659.659 0 0 1 3.95 0H7.9a.659.659 0 0 1 .658.658v1.317h2.634a.659.659 0 0 1 0 1.317h-.658v8.888a.989.989 0 0 1-.988.987zM2.633 3.292v8.558h6.584V3.292zm1.976-1.975v.658h2.632v-.658zm2.633 9.217a.659.659 0 0 1-.658-.658V5.925a.658.658 0 0 1 1.317 0v3.95a.659.659 0 0 1-.659.659zm-2.633 0a.659.659 0 0 1-.658-.658V5.925a.658.658 0 0 1 1.317 0v3.95a.659.659 0 0 1-.659.659z"/></symbol><symbol id="icon-download"><path id="Mask" d="M1.586 12.686A1.586 1.586 0 0 1 0 11.1V8.881a.634.634 0 1 1 1.268 0V11.1a.317.317 0 0 0 .317.317H11.1a.317.317 0 0 0 .317-.317V8.881a.634.634 0 1 1 1.268 0V11.1a1.585 1.585 0 0 1-1.585 1.586zm4.369-3.938l-.012-.01-.012-.01c-.013-.01-.025-.022-.036-.033L2.723 5.523a.634.634 0 1 1 .9-.9l2.086 2.092V.634a.634.634 0 0 1 1.268 0v6.08l2.089-2.088a.634.634 0 0 1 .9.9L6.792 8.694l-.023.022-.012.01-.012.01-.012.01-.013.01a.634.634 0 0 1-.763-.01z"/></symbol><symbol id="icon-info"><g id="Group_1044" data-name="Group 1044" transform="translate(-881.996 -853.5)"><path id="Path_55" data-name="Path 55" d="M8.752 0A8.752 8.752 0 1 0 17.5 8.752 8.747 8.747 0 0 0 8.752 0zm0 16.137a7.385 7.385 0 1 1 7.385-7.385 7.381 7.381 0 0 1-7.385 7.385z" transform="translate(881.996 853.5)"/><path id="Path_245" data-name="Path 245" d="M2.083-2.921q-.033-.9-.148-1.828T1.7-6.58q-.123-.906-.221-1.766a14.392 14.392 0 0 1-.1-1.631 1.627 1.627 0 0 1 .082-.533 1.28 1.28 0 0 1 .217-.4 1 1 0 0 1 .307-.254.767.767 0 0 1 .361-.09.8.8 0 0 1 .377.09.954.954 0 0 1 .3.254 1.209 1.209 0 0 1 .2.4 1.794 1.794 0 0 1 .074.533 14.392 14.392 0 0 1-.1 1.631q-.1.861-.225 1.766t-.234 1.832q-.115.926-.148 1.828zm.262 1.3a.871.871 0 0 1 .344.07.921.921 0 0 1 .283.184.848.848 0 0 1 .189.275.822.822 0 0 1 .07.332.833.833 0 0 1-.07.344.911.911 0 0 1-.189.275.831.831 0 0 1-.283.184.918.918 0 0 1-.344.066.94.94 0 0 1-.352-.063.877.877 0 0 1-.287-.184.876.876 0 0 1-.193-.275.833.833 0 0 1-.07-.344.822.822 0 0 1 .07-.332.818.818 0 0 1 .193-.275.975.975 0 0 1 .287-.184.892.892 0 0 1 .352-.07z" transform="translate(888.519 867.78)"/></g></symbol><symbol id="icon-plus"><g id="Group_1018" data-name="Group 1018" transform="translate(-218 -688)"><circle id="Ellipse_147" data-name="Ellipse 147" cx="8.973" cy="8.973" r="8.973" transform="translate(218 688)"/><g id="Group_657" data-name="Group 657" transform="rotate(45 -723.135 620.685)" stroke="#fff" stroke-linecap="round" stroke-linejoin="round" stroke-miterlimit="10" stroke-width="2"><path id="Line_75" data-name="Line 75" d="M0 0l5.602 5.602"/><path id="Line_76" data-name="Line 76" d="M5.602 0L0 5.602"/></g></g></symbol></svg>