<svg xmlns="http://www.w3.org/2000/svg" width="36.76" height="36.76"><defs><clipPath id="clip-path"><circle id="Ellipse_2" data-name="Ellipse 2" cx="18.38" cy="18.38" r="18.38" fill="none"/></clipPath><linearGradient id="linear-gradient" x1=".265" y1="-.174" x2=".578" y2=".818" gradientUnits="objectBoundingBox"><stop offset="0" stop-color="#99e5ff"/><stop offset=".522" stop-color="#8bdaf9"/><stop offset="1" stop-color="#7ccef2"/></linearGradient><linearGradient id="linear-gradient-2" x1=".265" y1="-.174" x2=".578" y2=".818" gradientUnits="objectBoundingBox"><stop offset="0" stop-color="#9ce5ff"/><stop offset=".352" stop-color="#97e2fd"/><stop offset=".709" stop-color="#8bd9f8"/><stop offset="1" stop-color="#7ccef2"/></linearGradient><radialGradient id="radial-gradient" cx="-1336.11" cy="-617.153" fx="-1337.054" r="25.957" gradientTransform="matrix(.624 0 0 .624 -647.579 -298.249)" gradientUnits="userSpaceOnUse"><stop offset="0" stop-color="#d9f7ff"/><stop offset=".247" stop-color="#cff4ff"/><stop offset=".656" stop-color="#b6ecff"/><stop offset="1" stop-color="#9ce5ff"/></radialGradient><radialGradient id="radial-gradient-2" cx="-133.809" cy="-151.779" r="58.076" gradientTransform="matrix(.873 0 0 .873 -54.046 -52.742)" gradientUnits="userSpaceOnUse"><stop offset=".37" stop-color="#7ccef2"/><stop offset=".51" stop-color="#6fc7ef"/><stop offset="1" stop-color="#46b2e8"/></radialGradient><linearGradient id="linear-gradient-3" y1=".5" x2="1" y2=".5" gradientUnits="objectBoundingBox"><stop offset="0" stop-color="#7dacef"/><stop offset=".168" stop-color="#79a3e7"/><stop offset=".44" stop-color="#6e8bd3"/><stop offset=".78" stop-color="#5d64b2"/><stop offset="1" stop-color="#51489a"/></linearGradient><radialGradient id="radial-gradient-4" cx="-1090.662" cy="-1340.641" r="59.351" gradientTransform="matrix(.588 0 0 .588 -566.763 -694.952)" gradientUnits="userSpaceOnUse"><stop offset="0" stop-color="#b620b4"/><stop offset=".158" stop-color="#a226b6"/><stop offset=".449" stop-color="#7437bc"/><stop offset=".584" stop-color="#623fb1"/><stop offset=".85" stop-color="#444d9e"/><stop offset="1" stop-color="#395398"/></radialGradient></defs><g id="Group_32" data-name="Group 32" transform="translate(-291.835 -225.012)"><g id="Group_31" data-name="Group 31" transform="translate(291.835 225.012)" clip-path="url(#clip-path)"><g id="Group_30" data-name="Group 30" transform="translate(0 -6.133)"><g id="Group_29" data-name="Group 29"><path id="Path_74" data-name="Path 74" d="M322.253 185.485l-12.408-10.471L297.8 185.9a18.429 18.429 0 1 0 24.446-.416z" transform="translate(-291.836 -175.014)" fill="url(#linear-gradient)"/><path id="Path_75" data-name="Path 75" d="M322.253 185.485l-12.408-10.471L297.8 185.9a18.429 18.429 0 1 0 24.446-.416z" transform="translate(-291.836 -175.014)" fill="url(#linear-gradient-2)"/><path id="Path_77" data-name="Path 77" d="M414.464 185.485l-12.408-10.471-5.121 4.629a18.45 18.45 0 0 0 17.789 6.075 9.77 9.77 0 0 0-.26-.233z" transform="translate(-384.046 -175.014)" fill="url(#radial-gradient)"/><path id="Path_78" data-name="Path 78" d="M322.544 262.471a19.688 19.688 0 0 1-24.953.364 18.428 18.428 0 1 0 24.953-.364z" transform="translate(-291.836 -251.744)" opacity=".8" fill="url(#radial-gradient-2)"/><path id="Path_79" data-name="Path 79" d="M322.544 262.471a19.688 19.688 0 0 1-24.953.364 18.428 18.428 0 1 0 24.953-.364z" transform="translate(-291.836 -251.744)" opacity=".8" fill="url(#radial-gradient-2)"/><path id="Path_81" data-name="Path 81" d="M316.48 279.32a19.713 19.713 0 0 1-18.871-14.02 18.42 18.42 0 1 0 30.775 10.018 19.616 19.616 0 0 1-11.904 4.002z" transform="translate(-291.836 -254.223)" opacity=".7" fill="url(#linear-gradient-3)"/><path id="Path_84" data-name="Path 84" d="M310.115 360.255a19.709 19.709 0 0 1-18.076-11.855 18.429 18.429 0 1 0 36.366-.515 19.709 19.709 0 0 1-18.29 12.37z" transform="translate(-291.836 -326.682)" fill="url(#radial-gradient-4)"/></g></g></g></g></svg>