<svg xmlns="http://www.w3.org/2000/svg" width="432.275" height="212.839"><g id="Group_1123" data-name="Group 1123" transform="translate(1040 -1660.545)"><circle id="Ellipse_149" data-name="Ellipse 149" cx="29.227" cy="29.227" r="29.227" transform="translate(-879.189 1660.545)" fill="#166529"/><path id="Path_257" data-name="Path 257" d="M459.275 276.46v76.873A113.455 113.455 0 0 1 345.814 466.79H137v-76.873a113.562 113.562 0 0 1 72.237-105.735 111.393 111.393 0 0 1 11.053-3.665c.073-.024.15-.045.223-.063q1.66-.454 3.341-.856c.063-.017.122-.031.184-.045a113.5 113.5 0 0 1 21.045-2.969c.839-.038 1.677-.07 2.523-.087.3-.01.609-.017.919-.017q.961-.021 1.932-.021z" transform="translate(-1067 1405.192)" fill="#3f3d56"/><path id="Path_258" data-name="Path 258" d="M287.355 681c-82.861 0-150.064 22.344-150.345 49.942 0 0 194.92 3.142 226.856-1.721s55.331-24.4 55.331-24.4C441.755 683.632 370.216 681 287.355 681z" transform="translate(-1067.006 1141.444)" fill="#f2f2f2"/><g id="Group_1112" data-name="Group 1112" transform="translate(-835.336 1844.815)" opacity=".1"><ellipse id="Ellipse_150" data-name="Ellipse 150" cx="27.842" cy="7.734" rx="27.842" ry="7.734"/></g><g id="Group_1113" data-name="Group 1113" transform="translate(-775.127 1830.893)" opacity=".1"><ellipse id="Ellipse_151" data-name="Ellipse 151" cx="27.842" cy="7.734" rx="27.842" ry="7.734"/></g><g id="Group_1114" data-name="Group 1114" transform="translate(-832.552 1845.588)" opacity=".1"><ellipse id="Ellipse_152" data-name="Ellipse 152" cx="25.058" cy="6.961" rx="25.058" ry="6.961"/></g><g id="Group_1115" data-name="Group 1115" transform="translate(-772.343 1831.667)" opacity=".1"><ellipse id="Ellipse_153" data-name="Ellipse 153" cx="25.058" cy="6.961" rx="25.058" ry="6.961"/></g><circle id="Ellipse_154" data-name="Ellipse 154" cx="2.436" cy="2.436" r="2.436" transform="translate(-884.408 1710.205)" fill="#f2f2f2"/><circle id="Ellipse_155" data-name="Ellipse 155" cx="2.436" cy="2.436" r="2.436" transform="translate(-674.895 1805.564)" fill="#f2f2f2"/><circle id="Ellipse_156" data-name="Ellipse 156" cx="2.436" cy="2.436" r="2.436" transform="translate(-789.745 1727.258)" fill="#f2f2f2"/><circle id="Ellipse_157" data-name="Ellipse 157" cx="1.392" cy="1.392" r="1.392" transform="translate(-667.934 1713.685)" fill="#ff6584"/><circle id="Ellipse_158" data-name="Ellipse 158" cx="1.392" cy="1.392" r="1.392" transform="translate(-877.796 1783.291)" fill="#ff6584"/><path id="Path_259" data-name="Path 259" d="M91.392 580.134h-.634v-.634h-.124v.634H90v.124h.634v.634h.124v-.634h.634z" transform="translate(-988.677 1233.895)" fill="#f2f2f2"/><path id="Path_260" data-name="Path 260" d="M676.392 432.134h-.634v-.634h-.124v.634H675v.124h.634v.634h.124v-.634h.634z" transform="translate(-1370.08 1330.387)" fill="#f2f2f2"/><path id="Path_261" data-name="Path 261" d="M827.392 402.134h-.634v-.634h-.124v.634H826v.124h.634v.634h.124v-.634h.634z" transform="translate(-1468.528 1349.946)" fill="#f2f2f2"/><path id="Path_262" data-name="Path 262" d="M502.392 482.134h-.634v-.634h-.124v.634H501v.124h.634v.634h.124v-.634h.634z" transform="translate(-1256.637 1297.788)" fill="#f2f2f2"/><path id="Path_263" data-name="Path 263" d="M783.392 492.134h-.634v-.634h-.124v.634H782v.124h.634v.634h.124v-.634h.634z" transform="translate(-1439.842 1291.269)" fill="#f2f2f2"/><path id="Path_264" data-name="Path 264" d="M444.392 535.134h-.634v-.634h-.124v.634H443v.124h.634v.634h.124v-.634h.634z" transform="translate(-1218.823 1263.234)" fill="#f2f2f2"/><path id="Path_265" data-name="Path 265" d="M572.392 537.134h-.634v-.634h-.124v.634H571v.124h.634v.634h.124v-.634h.634z" transform="translate(-1302.275 1261.93)" fill="#f2f2f2"/><path id="Path_266" data-name="Path 266" d="M93.392 367.134h-.634v-.634h-.124v.634H92v.124h.634v.634h.124v-.634h.634z" transform="translate(-989.981 1372.765)" fill="#f2f2f2"/><path id="Path_276" data-name="Path 276" d="M478.392 351.134h-.634v-.634h-.124v.634H477v.124h.634v.634h.124v-.634h.634z" transform="translate(-1240.99 1383.197)" fill="#f2f2f2"/><path id="Path_277" data-name="Path 277" d="M642.392 295.134h-.634v-.634h-.124v.634H641v.124h.634v.634h.124v-.634h.634z" transform="translate(-1347.913 1419.707)" fill="#f2f2f2"/><path id="Path_278" data-name="Path 278" d="M624.392 312.134h-.634v-.634h-.124v.634H623v.124h.634v.634h.124v-.634h.634z" transform="translate(-1336.178 1408.624)" fill="#f2f2f2"/><circle id="Ellipse_161" data-name="Ellipse 161" cx="1.392" cy="1.392" r="1.392" transform="translate(-737.888 1703.244)" fill="#f2f2f2"/><path id="Path_282" data-name="Path 282" d="M981.706 276.46h-.7a28.568 28.568 0 0 0 28.535 28.378v-.7a27.87 27.87 0 0 1-27.839-27.682z" transform="translate(-1617.27 1405.192)" fill="#166529"/><path id="Path_283" data-name="Path 283" d="M944.706 276.46h-.7a41.456 41.456 0 0 0 41.412 41.255v-.7a40.762 40.762 0 0 1-40.716-40.559z" transform="translate(-1593.147 1405.193)" fill="#166529"/><path id="Path_284" data-name="Path 284" d="M906.7 276.46h-.7a54.7 54.7 0 0 0 54.641 54.48v-.7a54 54 0 0 1-53.941-53.78z" transform="translate(-1568.366 1405.192)" fill="#166529"/><text id="A_small_text_descrip" data-name="A small text descrip" transform="translate(-800 1748)" fill="#fff" font-size="16" font-family="Helvetica"><tspan x="0" y="0">Судьба твоя,</tspan><tspan x="0" y="25">секрет обнаружить!</tspan></text><g id="Group_1122" data-name="Group 1122" transform="translate(-2002.238 1431.34)"><path id="Path_285" data-name="Path 285" d="M963.866 251.22c-2.442 1.489-2.14 5.619.926 12.628.995 2 30.691 55.324 48.3 86.931l.313.56a2.864 2.864 0 0 0 3.858 1.134l5.57-3.018c.033-.022.828-.755.828-.755.328-.365.346-.471.575-1.763-.031-.322-46.161-82.96-50.367-88.722-5.587-7.655-7.752-8.362-10.003-6.995z" fill="#6cb52d"/><path id="Path_286" data-name="Path 286" d="M964 251.44c-2.311 1.41-1.975 5.435 1.029 12.3.99 1.992 30.682 55.307 48.294 86.911l.312.559a2.605 2.605 0 0 0 3.508 1.033l5.571-3.019c.063-.047.773-.715.773-.715.263-.295.272-.345.5-1.621-.049-.353-46.255-82.952-50.321-88.523-5.475-7.489-7.55-8.208-9.666-6.925z" fill="#7bbc42"/><path id="Path_287" data-name="Path 287" d="M964.135 251.663c-2.182 1.33-1.811 5.248 1.131 11.977 1.028 2.065 34.109 61.451 48.283 86.887l.312.56a2.345 2.345 0 0 0 3.159.93l5.57-3.017c-.007 0 .72-.678.72-.678.2-.222.2-.245.42-1.475-.073-.4-46.407-83.025-50.276-88.327-5.354-7.329-7.338-8.06-9.319-6.857z" fill="#8ac457"/><path id="Path_288" data-name="Path 288" d="M964.27 251.884c-2.052 1.251-1.648 5.061 1.233 11.652 1.017 2.043 34.1 61.428 48.273 86.865.02.03.312.561.312.561a2.083 2.083 0 0 0 2.808.828l5.571-3.018.663-.636c.135-.154.135-.154.345-1.335-.11-.455-46.66-83.236-50.23-88.128-5.234-7.167-7.13-7.909-8.975-6.789z" fill="#98cb6c"/><path id="Path_289" data-name="Path 289" d="M964.405 252.1c-1.9 1.156-1.445 4.966 1.335 11.327 1.01 2.026 34.088 61.407 48.263 86.843.027.022.315.567.315.567a1.82 1.82 0 0 0 2.455.72l5.57-3.018c.01-.005.6-.593.6-.593.07-.08.074-.084.272-1.195-.167-.539-47.069-83.662-50.184-87.93-5.111-7-6.916-7.755-8.626-6.721z" fill="#a7d281"/><path id="Path_290" data-name="Path 290" d="M964.539 252.327c-2.2 1.34-.431 6.722 1.439 11 1.037 2.082 37.194 66.98 48.251 86.821a4.251 4.251 0 0 1 .32.575 1.56 1.56 0 0 0 2.1.611l5.571-3.019c.013-.007.543-.547.543-.547.016-.018.2-1.059.2-1.059-.241-.631-47.193-83.7-50.138-87.731-4.996-6.841-6.71-7.608-8.286-6.651z" fill="#b6da96"/><path id="Path_291" data-name="Path 291" d="M964.674 252.549c-2.146 1.307.045 7.251 1.541 10.675 1.024 2.053 37.183 66.957 48.241 86.8l.32.575a1.3 1.3 0 0 0 1.75.509l5.571-3.018c.021-.014.477-.5.477-.5.021-.027.135-.915.135-.915-.332-.738-47.411-83.871-50.092-87.544-4.852-6.642-6.535-7.438-7.943-6.582z" fill="#c4e1ab"/><path id="Path_292" data-name="Path 292" d="M964.809 252.769c-2.055 1.252.465 7.657 1.643 10.352 1.064 2.129 40.363 72.659 48.23 86.777l.321.574a1.038 1.038 0 0 0 1.4.407l5.57-3.018c.045-.03.407-.441.407-.441.026-.037.069-.758.069-.758-.425-.845-47.4-83.756-50.042-87.377-4.707-6.448-6.352-7.272-7.598-6.516z" fill="#d3e9c0"/><path id="Path_293" data-name="Path 293" d="M964.943 252.991c-2 1.217 1.1 8.564 1.747 10.026 1.158 2.32 48.065 86.479 48.539 87.329a.781.781 0 0 0 1.051.3l5.57-3.018a5.26 5.26 0 0 0 .329-.375 2.659 2.659 0 0 0 .011-.591c-.5-.931-47.3-83.539-49.992-87.229-4.573-6.256-6.165-7.104-7.255-6.442z" fill="#e2f0d5"/><path id="Path_294" data-name="Path 294" d="M965.078 253.213c-1.912 1.165 1.81 9.618 1.849 9.7 1.152 2.3 48.055 86.457 48.529 87.306a.52.52 0 0 0 .7.2l5.571-3.019.252-.311-.046-.4c-.473-.837-47.272-83.446-49.944-87.1-4.703-6.437-6.101-6.868-6.911-6.376z" fill="#f0f8ea"/><path id="Path_295" data-name="Path 295" d="M965.213 253.434c-1.562.952 1.618 8.708 1.946 9.364 1.15 2.3 48.05 86.447 48.522 87.3a.26.26 0 0 0 .351.1l5.571-3.017a.259.259 0 0 0 .126-.157.264.264 0 0 0-.024-.2c-1.929-3.405-47.289-83.466-49.926-87.077-4.618-6.327-5.934-6.697-6.566-6.313z" fill="#f8fbf4"/><path id="Path_296" data-name="Path 296" d="M1015.909 349.968S968.551 265 967.39 262.682s-6.5-17.41 4.179-2.785c2.659 3.64 49.911 87.052 49.911 87.052z" fill="#fff"/><path id="Path_297" data-name="Path 297" d="M1025.557 302.942s16.141 8.752 20.95 17.351l-3.643 4.663 5.683.583 1.457 2.915s-9.967 10.615 11.122 17.55l18.321 6.485 34.392-21.849s-6.56-5.247-8.017-11.951c0 0 6.7-4.518 9.183-9.91s5.537-18.509 14.865-25.066c0 0-17.2-.147-28.453 14.579l-4.518 2.04-18.767-7.292s-6.412-2.624-13.408 5.683-8.306 10.2-8.306 10.2-24.609-8.383-30.861-5.981z" fill="#d0d8b2"/><path id="Path_298" data-name="Path 298" d="M1048.973 325.583l1.846 3.473s8.116.675 14.106-1.666l.273-1.009.665-1.6s-11.703 1.467-16.89.802z" fill="#fff"/><path id="Path_299" data-name="Path 299" d="M1071.848 322.125s.4 3.591 7.182 2.793 12.5-5.187 12.5-5.187l-.495-3.03s-7.483-2.423-12.139.9a60.443 60.443 0 0 1-7.048 4.524z" fill="#fff"/><path id="Path_300" data-name="Path 300" d="M1061.126 346l-6.677 6.3 3.709 2.411-5.564 5.564-1.484-3.709-25.777 12.24s7.789 29.857 16.319 32.64a54.654 54.654 0 0 0 21.513-13.353s-2.412 17.435-16.134 28.746c0 0 4.264 5.934 16.319 3.894 0 0 12.981-41.171 2.966-72.513z" fill="#edede4"/><path id="Path_301" data-name="Path 301" d="M1029.961 383.92s7.149 19.2 12.255 16.749 3.268-24.307 1.226-31.251c0 0-14.093 3.882-13.481 14.502z" fill="#d6d4cb"/><path id="Path_302" data-name="Path 302" d="M1066.693 348.453l12.754 4.036 8.88-6.3s-20.182 43.591 14.692 77.01l-25.67-.162.484-3.229-14.368-.644s12.753-36.97 3.228-70.711z" fill="#ad714f"/><path id="Path_303" data-name="Path 303" d="M1118.615 329.312s-10.385-.184-17.8 5.008-23.181 16.32-16.69 55.821c10.385 41.357 42.1 47.479 69.731 38.206l-10.386-13.353-3.895-.187s-11.312-10.755-12.426-26.705c0 0 14.1 9.643 20.4 1.113s11.312-21.142 8.53-56.935c0 0-6.12 9.458-12.611 2.782 0 0-12.981 10.756-22.625-6.12z" fill="#edede4"/><path id="Path_304" data-name="Path 304" d="M1119.626 350.627s19.405 5.924 28.187-13.072c0 0 7.132-.745 8.264-5.275 0 0 6.033 42.857-9.9 55.316-19.811 7.352-30.431-28.396-26.551-36.969z" fill="#d6d4cb"/><path id="Path_305" data-name="Path 305" d="M1120.841 328.942s8.18 16.169 21.662 6.366l4.9 1.633s-4.086 17.77-28.39 13.481c.001 0 .587-18.655 1.828-21.48z" fill="#ad714f"/><path id="Path_306" data-name="Path 306" d="M1017.2 368.379l5.967 8.329h1.463l.224 5.515s5.4 2.14 6.643.114 2.814-4.278 4.277-4.278c0 0 1.013-3.378-2.364-6.529l3.714-.112 4.166 6.3s3.263-5.629 2.137-10.919-7.2-11.482-7.2-11.482-3.04-3.151-10.92 3.152v3.152s-5.295.342-8.107 6.758z" fill="#d0d8b2"/><path id="Path_307" data-name="Path 307" d="M1120.682 327.04s6.257 19.919 22.784 8.022c0 0 7.488 8.762 14.518-7.449 0 0 6.455-2.869 5.74-7.46S1162 306.38 1162 306.38l-15.352-1.865.576-2.152s5.451.143 8.894-10.473l4.3-.717s-1-5.74-9.612-6.313-14.06 4.447-18.22 15.781-11.904 26.399-11.904 26.399z" fill="#d0d8b2"/><path id="Path_308" data-name="Path 308" d="M1025.412 302.958s17.6 10.718 21.087 17.078l6.012-4.183s-11.676-11.066-27.099-12.895z" fill="#a89656"/><path id="Path_309" data-name="Path 309" d="M1102.961 313.588s6.972-26.053 25.88-29.452c0 0-3.659 4.1-4.27 4.792s-8.8 17.6-10.892 19.431-5.75 6.796-10.718 5.229z" fill="#a89656"/><path id="Path_310" data-name="Path 310" d="M1083.94 324.061a18.885 18.885 0 0 1-10.778.263s5.433 6.4 12.267 3.33 5.959-7.623 5.959-7.623a24.249 24.249 0 0 1-7.448 4.03z" fill="#a89656"/><path id="Path_311" data-name="Path 311" d="M1050.819 329.056s9.464.262 14.106-1.666l-.087.439s-3.154.439-2.1 2.191l1.051.788-1.664 2.716a15.687 15.687 0 0 1-11.306-4.468z" fill="#a89656"/><path id="Path_312" data-name="Path 312" d="M1079.821 317.314s6.133-3.066 11.215-.613a16.638 16.638 0 0 0-1.051-4.469 37.175 37.175 0 0 0-10.164 5.082z" fill="#a89656"/><path id="Path_313" data-name="Path 313" d="M1079.244 317.762s-1.757 4.766 4.266 6.273c0 0 5.144-1.883 6.273-2.886 0 0 2.134-1.631-1.255-5.269 0 0-5.394-.88-9.284 1.882z" fill="#504b32"/><path id="Path_314" data-name="Path 314" d="M1054.027 325.541s8.531.5 11.541-.628l-.643 2.477s-6.131 1.915-9.016 1.538c0 0-2.009-1.38-1.882-3.387z" fill="#504b32"/><path id="Path_315" data-name="Path 315" d="M1092.264 303.714s5.47 1.445 6.194 2.994l3.1-8.362a35.718 35.718 0 0 0-9.294 5.368z" fill="#d6dfd8"/><path id="Path_316" data-name="Path 316" d="M1115.8 307.74s4.026 4.025 9.291 1.755a18 18 0 0 1-9.6 9.808s4.645 3.1 7.948 1.961l-4.339 7.436-6.4 1.343s-6.125-5.253-6.882-11.35c.004-.004 6.99-3.831 9.982-10.953z" fill="#d6dfd8"/><path id="Path_317" data-name="Path 317" d="M1014.846 351.516l1.948 3.209 2.063.344-.459 1.948 2.75 6.074 4.7-1.719-.545-2.9 3.753-2.257-1.947-3.553.344-2.522-3.209-5.614h-2.865l-.574 1.26.688 2.062s-3.893-1.148-6.647 3.668z" fill="#cbd8e0"/><path id="Path_318" data-name="Path 318" d="M1032.264 380.853l3.667 5.845s4.928.114 7.907-5.271l-6.3-10.2-4.128.3a9.014 9.014 0 0 1 2.753 6.573s-2.409-1.257-3.899 2.753z" fill="#cbd8e0"/><g id="Group_1121" data-name="Group 1121"><path id="Path_319" data-name="Path 319" d="M1096.673 300.606s-12.118-6.255-21.695-6.645-21.893 21.891-21.893 21.891a25.288 25.288 0 0 0-9.187 8.8s7.819 1.173 20.329 0c0 0-.587-2.932-5.669-6.06 0 0 12.119 6.842 4.887 7.232s-21.11-.39-21.11-.39a31.683 31.683 0 0 1 10.36-10.555s12.7-26 24.432-23.066a120.81 120.81 0 0 1 21.554 7.788z" fill="#1d1d1b"/><path id="Path_320" data-name="Path 320" d="M1056.017 309.794a73.626 73.626 0 0 0-29.906-6.842s14.855 7.818 20.915 16.614l-.392.978s-9.772-11.728-21.891-17.2c0 0 0-4.886 32.447 4.887z" fill="#1d1d1b"/><path id="Path_321" data-name="Path 321" d="M1026.111 302.952s15.246 2.15 26.778 12.314l-.781.586s-7.623-7.818-25.997-12.9z" fill="#1d1d1b"/><path id="Path_322" data-name="Path 322" d="M1081.428 309.207s-11.142 6.255-11.338 12.7c0 0 .587 1.173 5.277-2.541s13.682-8.4 17.593-7.231c0 0-4.3 0-11.338 4.3s-14.073 10.361-12.313 4.3 9.578-10.942 12.119-11.528z" fill="#1d1d1b"/><path id="Path_323" data-name="Path 323" d="M1074 313.7s-.781-4.105 7.233-10.36c0 0-8.406 4.692-8.209 11.923z" fill="#1d1d1b"/><path id="Path_324" data-name="Path 324" d="M1048.985 340.49c-6.317-4.713.8-12.334.8-12.334a1.877 1.877 0 0 0 .8.7s-8.449 8.495 6.015 14.556 21.229 7.98 21.229 7.98-20.443-4.633-28.844-10.902z" fill="#1d1d1b"/><path id="Path_325" data-name="Path 325" d="M1048.442 325.6s1.241 7.621 12.583 7.976l1.185-.318s-12-.745-13.058-7.834z" fill="#1d1d1b"/><path id="Path_326" data-name="Path 326" d="M1060.316 314.085s3.722 14.887 9.393 9.039l-.178-1.064s-3.367 6.026-9.215-7.975z" fill="#1d1d1b"/><path id="Path_327" data-name="Path 327" d="M1066.7 322.946a8.528 8.528 0 0 1 2.835-9.925s-7.447 4.079-2.835 9.925z" fill="#1d1d1b"/><path id="Path_328" data-name="Path 328" d="M1066.7 314.972a11.485 11.485 0 0 1 4.43-10.457s-6.734 3.191-4.785 11.7z" fill="#1d1d1b"/><path id="Path_329" data-name="Path 329" d="M1067.582 307.7a12.689 12.689 0 0 1 3.367-8.152 9.5 9.5 0 0 0-3.9 9.748z" fill="#1d1d1b"/><path id="Path_330" data-name="Path 330" d="M1071.481 322.592s3.721 8.507 14.178 5.317 4.43-15.419 4.43-15.419 4.255 11.874-4.608 14.887-13.469-5.493-13.469-5.493z" fill="#1d1d1b"/><path id="Path_331" data-name="Path 331" d="M1074.67 325.782s2.482 7.089 16.66 4.962c0 0-10.989.887-16.66-4.962z" fill="#1d1d1b"/><path id="Path_332" data-name="Path 332" d="M1073.253 324.719s1.949 9.038 16.3 15.418h.887s-13.824-7.444-16.3-15.064z" fill="#1d1d1b"/><path id="Path_333" data-name="Path 333" d="M1098.525 308.218s-2.7-8.578 7.352-15.685 16.664-8.822 25.487-9.312c0 0-9.067 4.656-13.723 20.1s-14.459 16.664-14.459 16.664 0 6.372-5.147 9.558c0 0 3.187-3.431 4.657-10.783 0 0 8.824-.98 12.988-13.479s10.048-19.115 12.989-20.83c0-.005-25.978 1.465-30.144 23.767z" fill="#1d1d1b"/><path id="Path_334" data-name="Path 334" d="M1100.369 298.868s-4.3.5-9.6 5.1c0 0 7.1 1 7.7 3.3l.2-.8a8.651 8.651 0 0 0-5.6-2.9s4.5-3.8 7.3-4.7z" fill="#1d1d1b"/><path id="Path_335" data-name="Path 335" d="M1094.671 301.867s3.6 1.2 4.1 2c-.002-.001-.801-2.6-4.1-2z" fill="#1d1d1b"/><path id="Path_336" data-name="Path 336" d="M1063.787 330.983a16.272 16.272 0 0 0-2.826 7.237s4.921 14.329 17.716 10.03c0 0-10.9 6.4-18.493-9.2 0 .003-.995-4.168 3.603-8.067z" fill="#1d1d1b"/><path id="Path_337" data-name="Path 337" d="M1060.39 338.439s4.859-.638 7.8 1.279c0 0 7.929-6.266 13.3-5.244l-1.15-1.022a17.091 17.091 0 0 0-12.149 5.5 12.921 12.921 0 0 0-7.544-1.406z" fill="#1d1d1b"/><path id="Path_338" data-name="Path 338" d="M1074.84 340.741s-6.01.64-3.964 4.22 10.358 2.558 11.126 2.047c0 0-7.417 4.219-12.276-1.919-2.814-4.089 5.114-4.348 5.114-4.348z" fill="#1d1d1b"/><path id="Path_339" data-name="Path 339" d="M1069.007 359.913l-.136 1.63s15.474-11.14 17.628-13.178 2.152-3.532 2.152-3.532-15.07 12.906-19.644 15.08z" fill="#1d1d1b"/><path id="Path_340" data-name="Path 340" d="M1105.53 319s1.79 8.055 6.523 11l2.174-.127s-6.266-3.966-7.929-11.126z" fill="#1d1d1b"/><path id="Path_341" data-name="Path 341" d="M1082.075 342.218l5.613 3.631-.661.661z" fill="#1d1d1b"/><path id="Path_342" data-name="Path 342" d="M1080.094 344.693a10.655 10.655 0 0 0 4.128 2.147s-2.477 1.32-4.128-2.147z" fill="#1d1d1b"/><path id="Path_343" data-name="Path 343" d="M1069.859 337.76l-.661-3.137 1.651 2.477z" fill="#1d1d1b"/><path id="Path_344" data-name="Path 344" d="M1074.48 335.779l3.3 1.32-1.981-1.816z" fill="#1d1d1b"/><path id="Path_345" data-name="Path 345" d="M1069.859 337.76l4.126 1.321-2.641-1.816z" fill="#1d1d1b"/><path id="Path_346" data-name="Path 346" d="M1071.18 327.029s-4.457-3.962-6.6.495c0 0-4.293.819-1.32 3.467.667.6 1.32.165 1.65-1.155a2.7 2.7 0 0 0 2.477 2.311s2.476-5.119 3.8-2.311c0 0 3.632.826 3.8-1.982s-3.807-.825-3.807-.825zm3.175.87c-.444 1.9-2.725 1.585-2.725 1.585-1.712-3.105-4.565 2.156-4.565 2.156-2.345-1.142-2.091-2.6-2.091-2.6s-.761 1.648-1.267 1.521c-2.537-1.774 1.14-2.535 1.14-2.535 1.521-4.183 6.465-.508 6.465-.508 1.521-.697 3.488-1.518 3.043.382z" fill="#1d1d1b"/><path id="Path_347" data-name="Path 347" d="M1066.177 324.349a4.057 4.057 0 0 0-.76 2.345l-.254.381a2.338 2.338 0 0 1 1.014-2.726z" fill="#1d1d1b"/><path id="Path_348" data-name="Path 348" d="M1067.688 324.146a2.178 2.178 0 0 1 1.876.469s-.375-1.688-1.876-.469z" fill="#1d1d1b"/><path id="Path_349" data-name="Path 349" d="M1077.128 319.042s6.81-4.257 14.26-1.916v-.639s-6.388-3.618-14.26 2.555z" fill="#1d1d1b"/><path id="Path_350" data-name="Path 350" d="M1050.1 328.832s9.587.152 14.477-1.308c-.001 0-10.86 3.436-14.477 1.308z" fill="#1d1d1b"/><path id="Path_351" data-name="Path 351" d="M1050.951 329.47s4.894 3.193 11.706.425l.426.639s-8.301 2.98-12.132-1.064z" fill="#1d1d1b"/><path id="Path_352" data-name="Path 352" d="M1073.3 324.149s10.215 2.768 17.877-4.895l.213 1.064s-10.218 8.088-18.09 3.831z" fill="#1d1d1b"/><path id="Path_353" data-name="Path 353" d="M1075 326.064s10.215 2.129 15.323-2.341c0 0-5.323 5.959-15.323 2.341z" fill="#1d1d1b"/><path id="Path_354" data-name="Path 354" d="M1053.717 325.851s.426 2.981 2.342 3.194h1.064a3.083 3.083 0 0 1-2.554-3.4z" fill="#1d1d1b"/><path id="Path_355" data-name="Path 355" d="M1078.405 318.4s-.637 4.044 4.333 6.047l1.278-.426a5.263 5.263 0 0 1-4.548-6.6z" fill="#1d1d1b"/><path id="Path_356" data-name="Path 356" d="M1088.621 316.274s2.128 3.618.639 4.9l1.145-.99s-.267-4.12-1.784-3.91z" fill="#1d1d1b"/><path id="Path_357" data-name="Path 357" d="M1035.919 305.587a6.829 6.829 0 0 1 .8 4.666l.8.8a5.6 5.6 0 0 0-1.6-5.466z" fill="#1d1d1b"/><path id="Path_358" data-name="Path 358" d="M1039.306 307.019a10.488 10.488 0 0 1 .8 5.889l.8 1.015a8.476 8.476 0 0 0-1.6-6.904z" fill="#1d1d1b"/><path id="Path_359" data-name="Path 359" d="M1043.121 309.33a13.11 13.11 0 0 1 1.006 7.362l1 1.269a10.593 10.593 0 0 0-2.006-8.631z" fill="#1d1d1b"/><path id="Path_360" data-name="Path 360" d="M1102.647 313.923s3-23.055 26.311-30.088c0 0-20.19 6.121-25.4 29.827 0 0 7.3-.261 12.765-9.117 0 0-5.599 11.593-13.676 9.378z" fill="#1d1d1b"/><path id="Path_361" data-name="Path 361" d="M1105.772 305.717s4.559-.13 4.559 5.731l.651-.391s-.652-7.424-5.21-5.34z" fill="#1d1d1b"/><path id="Path_362" data-name="Path 362" d="M1109.55 298.683s6.9-.261 6.773 6.512l.521-1.172s-.911-7.553-7.294-5.34z" fill="#1d1d1b"/><path id="Path_363" data-name="Path 363" d="M1113.849 293.733a5.749 5.749 0 0 1 4.818 4.82l.521-.652s-.26-5.08-5.339-4.168z" fill="#1d1d1b"/><path id="Path_364" data-name="Path 364" d="M1060.551 345.42l-7.862 7.39a17.1 17.1 0 0 1 12.893 14.624 17.818 17.818 0 0 0-10.063-15.41l6.6-5.975z" fill="#1d1d1b"/><path id="Path_365" data-name="Path 365" d="M1057.563 354.225l-5.66 4.874.471 1.416 6.447-5.5z" fill="#1d1d1b"/><path id="Path_366" data-name="Path 366" d="M1040.738 360.358s4.559.157 10.535-5.346c0 0 4.246 17.927 8.178 16.2 0 0-.157-5.19-.944-6.762s6.762 13.838.157 8.964-7.7-16.04-7.7-16.04-5.5 4.245-9.749 4.4z" fill="#1d1d1b"/><path id="Path_367" data-name="Path 367" d="M1118.733 328.436s-25.158.629-33.808 23.9c-6.345 17.071-4.571 61.5 25.476 76.11 10.917 5.307 25.936 5.4 45.13.628 0 0-9.432-9.907-11.792-15.1 0 0-34.753 3.932-48.592-19.97 0 0 7.706 23.744 47.333 21.229 0 0 6.6 10.378 10.065 12.736 0 0-44.03 12.266-59.6-17.769s-15.411-77.84 25.474-80.514z" fill="#1d1d1b"/><path id="Path_368" data-name="Path 368" d="M1083.982 386.933s-1.73-13.836 4.874-23.587 24.846-22.015 32.238-36.325 13.053-27.048 14.783-31.608 4.874-9.436 15.41-9.436a9.9 9.9 0 0 1 8.649 4.875l-4.875-.157s.471 13.524-13.367 9.592c0 0 1.415 2.359 7.549 1.573s7.7-10.064 7.7-10.064l5.5.157s-.786-7.076-11.951-7.548c0 0-12.107-2.832-18.4 15.1s-15.1 33.967-27.834 45.919-25.622 22.168-20.276 41.509z" fill="#1d1d1b"/><path id="Path_369" data-name="Path 369" d="M1089.486 355.955s8.807-14.152 22.33-16.669l1.887-2.358s-14.781 1.729-24.217 19.027z" fill="#1d1d1b"/><path id="Path_370" data-name="Path 370" d="M1082.013 316.548a2.74 2.74 0 0 0-.351 3.513 3.854 3.854 0 0 0 5.034 1.406c1.757-.7 3.395-3.4 1.055-5.505a30.576 30.576 0 0 0-5.738.586z" fill="#1d1d1b"/><path id="Path_371" data-name="Path 371" d="M1056.3 325.737s0 3.114 3.647 2.893 2.985-3 2.985-3z" fill="#1d1d1b"/><path id="Path_372" data-name="Path 372" d="M1086.967 317.757a1.563 1.563 0 1 1-1.562-1.563 1.562 1.562 0 0 1 1.562 1.563z" fill="#fff"/><path id="Path_373" data-name="Path 373" d="M1058.788 325.835a1.377 1.377 0 0 0-.111.543 1.4 1.4 0 1 0 2.694-.545z" fill="#fff"/><path id="Path_374" data-name="Path 374" d="M1064.167 377.159s-.2 25.673-18.672 39.678c0 0 3.5 5.639 17.893 4.668 0 0 13.032-34.037 3.89-73.327l-1.946-.973s10.9 31.7-2.915 72.551c0 0-9.92.583-14.394-3.113a47.991 47.991 0 0 0 16.144-39.484z" fill="#1d1d1b"/><path id="Path_375" data-name="Path 375" d="M1100.149 389.606s10.308 10.5 19.839 9.142c0 0-9.337-.194-18.477-9.53z" fill="#1d1d1b"/><path id="Path_376" data-name="Path 376" d="M1081.282 400.3a81.526 81.526 0 0 1-5.64 22.951s16.532.387 28.008.778l-1.944-1.751s-18.478-.974-23.342-.194c0 .005 4.475-14.584 2.918-21.784z" fill="#1d1d1b"/><path id="Path_377" data-name="Path 377" d="M1063.194 419.756s10.891 0 13.81.583l1.167-1.556s-7.2-.584-14.588-.584z" fill="#1d1d1b"/><path id="Path_378" data-name="Path 378" d="M1115.765 307.232s5.374 3.223 10.031 1.671c0 0-2.986 8.839-9.316 10.391 0 0 4.061 2.149 7.166 1.313l-.715 1.075s-3.941 1.672-8.361-2.747a18.276 18.276 0 0 0 9.913-8.837s-5.734 1.433-8.958-2.15z" fill="#1d1d1b"/><path id="Path_379" data-name="Path 379" d="M1115.884 312.964s4.777 1.552 7.643.12l-1.552 1.672s-4.537.238-6.091-1.792z" fill="#1d1d1b"/><path id="Path_380" data-name="Path 380" d="M1107.52 317.933s3.391 7.541 11.695 9.491l.846-.339s-8.643-2.2-12.118-9.49z" fill="#1d1d1b"/><path id="Path_381" data-name="Path 381" d="M1113.027 322s4.661 3.727 8.814 1.948l.254-.678s-3.645 1.443-9.068-1.27z" fill="#1d1d1b"/><path id="Path_382" data-name="Path 382" d="M1104.846 346.489s-.742 10.093 8.46 23.3c0 0-7.57-11.132-6.531-25.232z" fill="#1d1d1b"/><path id="Path_383" data-name="Path 383" d="M1070.116 380.328l12.912 5.344v-1.336l-13.061-5.64z" fill="#1d1d1b"/><path id="Path_384" data-name="Path 384" d="M1069.671 365.932l13.061 1.186.3-1.336-13.506-1.484z" fill="#1d1d1b"/><path id="Path_385" data-name="Path 385" d="M1069.818 370.83l12.468 2.375.148-1.04-12.912-2.819z" fill="#1d1d1b"/><path id="Path_386" data-name="Path 386" d="M1070.264 375.282l11.874 1.633.148-.89-12.17-2.227z" fill="#1d1d1b"/><path id="Path_387" data-name="Path 387" d="M1112.861 337.584s-4.751 46.752 22.114 54.916 23.451-53.878 21.373-60.111l-.89 1.484s6.529 52.689-15.141 57.735c-25.082-.148-28.049-43.634-25.379-57.289z" fill="#1d1d1b"/><path id="Path_388" data-name="Path 388" d="M1120.061 327.085s-11.5 55.471 20.109 61.852c16.771 2.374 16.327-29.09 16.327-29.09s-3.86 32.8-17.663 27.754-24.638-20.332-16.178-64.711z" fill="#1d1d1b"/><path id="Path_389" data-name="Path 389" d="M1118.8 350.94s20.929 5.641 29.536-13.209l-1.189-.89s-8.9 19.442-28.2 12.615z" fill="#1d1d1b"/><path id="Path_390" data-name="Path 390" d="M1121.023 329.865s9.053 17.959 23 4.9l-1.928-.3s-12.623 11.232-21.005-7.445z" fill="#1d1d1b"/><path id="Path_391" data-name="Path 391" d="M1120.43 333.872a23.5 23.5 0 0 0 21.223 11.726l1.336-1.188s-16.474 1.632-22.559-12.171z" fill="#1d1d1b"/><path id="Path_392" data-name="Path 392" d="M1119.539 338.177s5.492 10.685 11.279 12.615l2.969-.89s-9.35-2.078-14.248-13.655z" fill="#1d1d1b"/><path id="Path_393" data-name="Path 393" d="M1126.663 340.4s9.943 6.678 19.888-.6l.743-1.631s-8.166 7.28-20.631 2.231z" fill="#1d1d1b"/><path id="Path_394" data-name="Path 394" d="M1128.89 334.614s-7.869-10.983 5.788-13.8c9.647-1.483 12.763.3 12.763.3l-3.56 3.71s4.3 3.117 3.263 6.235-4.6 5.49-8.755 3.116c0 0 5.638.89 6.975-2.524s-2.523-5.639-2.523-5.639-3.265-1.187 1.484-3.562c0 0-22.263-4.007-15.435 10.389 0-.006.742 1.181 0 1.775z" fill="#1d1d1b"/><path id="Path_395" data-name="Path 395" d="M1142.841 335.356s6.088 6.236 12.617-1.483c5.788-6.68 1.78-11.874 1.78-11.874l-4.9-.3s-4.6-4.156-.594-8.757c0 0-6.827 5.194.444 10.092l3.71.446s2.969 7.272-4.9 11.873c-4.155 2.821-6.531-1.633-6.531-1.633z" fill="#1d1d1b"/><path id="Path_396" data-name="Path 396" d="M1149.224 301.516L1141.5 312.8l5.046-11.132z" fill="#1d1d1b"/><path id="Path_397" data-name="Path 397" d="M1146.849 303.891s8.9 1.929 16.473.89c0 0-1.482 5.2-.146 8.461s3.412 9.648-5.2 16.029V326.9s5.641-3.561 4.6-8.9a89.979 89.979 0 0 1-1.335-10.686s-9.946.3-14.695-2.374z" fill="#1d1d1b"/><path id="Path_398" data-name="Path 398" d="M1125.921 386.858s.89 17.216 11.874 27.754h2.374S1127.7 401.7 1127.405 387.9z" fill="#1d1d1b"/><path id="Path_399" data-name="Path 399" d="M1028.41 383.444s8.014 20.926 14.4 18.7 16.622-8.013 20.63-14.545l.149-1.336s-20.334 22.114-26.419 10.983-6.976-13.506-6.976-13.506z" fill="#1d1d1b"/><path id="Path_400" data-name="Path 400" d="M1043.4 372.906s4.156 24.934-1.781 27.754c0 0 5.937 2.079 4.6-15.286s-2.523-17.662-2.523-17.662z" fill="#1d1d1b"/><path id="Path_401" data-name="Path 401" d="M1041.768 377.062s4.007-8.608.594-14.248a62 62 0 0 0-6.085-8.607s-7.125-.893-11.726 4.006l.594 6.234s5.047 2.969 5.937 7.273h7.273l-1.633-2.821s4.006-3.711-1.04-9.647l-1.335.3s5.195 4.9 1.188 8.608l1.336 2.227-4.6.3a9.689 9.689 0 0 0-5.492-6.382l-.741-5.937s4.75-3.711 9.8-2.82c0 0 6.233 7.866 6.53 9.646s.588 8.906-.6 11.868z" fill="#1d1d1b"/><path id="Path_402" data-name="Path 402" d="M1025.442 361.181s-4.9-.148-9.5 7.273c0 0 6.233 6.085 6.382 8.608h2.078l.148-.89-1.336-.149a14.235 14.235 0 0 0-5.046-6.678s.3-4.6 7.421-6.976z" fill="#1d1d1b"/><path id="Path_403" data-name="Path 403" d="M1030.192 368.751s-4.6 1.039-6.977 4.3c0 0 1.781 4.6 1.336 7.421l-.3 2.227s6.827 3.858 8.46-1.93c0 0 1.188-2.374 3.563-2.226 0 0 1.038-5.047-2.82-7.421l-1.485.148s3.562 2.227 3.71 6.085c0 0-2.968.445-3.561 2.078s-.743 3.859-3.71 3.118l-2.969-.743s.594-6.085-.742-8.163a10.485 10.485 0 0 1 6.234-3.711" fill="#1d1d1b"/><path id="Path_404" data-name="Path 404" d="M1037.463 369.79l3.266.445-3.413-2.375-1.039.3s-.595.888 1.186 1.63z" fill="#1d1d1b"/><path id="Path_405" data-name="Path 405" d="M1020.84 364l-3.413-6.68s2.82-6.679 10.092-5.046l2.227 3.266-1.188.594-1.632-2.821s-4.453-1.929-8.312 4.156l3.265 5.64z" fill="#1d1d1b"/><path id="Path_406" data-name="Path 406" d="M1018.912 355.542l-2.821-.594-1.781-3.561a7.464 7.464 0 0 1 6.383-4.008l-.595-1.336.892-1.781 3.413-.3 3.562 5.937-.593 2.82h-.891l.594-2.82-2.969-5.047-2.077-.148-1.039 1.039 3.858 6.53h-1.039l-2.819-4.452a8.368 8.368 0 0 0-5.641 3.563l1.633 2.82 2.969.89z" fill="#1d1d1b"/><path id="Path_407" data-name="Path 407" d="M1016.982 354.207a8.039 8.039 0 0 1 6.085-3.563v-.744s-5.788.448-6.085 4.307z" fill="#1d1d1b"/><path id="Path_408" data-name="Path 408" d="M1037.909 370.977h-1.187l6.531 10.39s-6.235-.149-7.571 4.6l-2.968-5.195-.742.89 3.414 5.492s4.9.891 8.757-5.64zm-1.485 15.436a5.884 5.884 0 0 1 6.383-4.3s-.742 2.667-6.383 4.3z" fill="#1d1d1b"/><path id="Path_409" data-name="Path 409" d="M1033.9 383.594a8.36 8.36 0 0 1 8.46-5.047l-.891-.89a9.025 9.025 0 0 0-8.163 5.046z" fill="#1d1d1b"/><path id="Path_410" data-name="Path 410" d="M1036.128 376.023a7.315 7.315 0 0 1 3.414-.889l-.3-.891a15.777 15.777 0 0 0-3.413.594z" fill="#1d1d1b"/><path id="Path_411" data-name="Path 411" d="M1051.96 333.646a12.921 12.921 0 0 0 6.876-.293l-.731-.439a24.026 24.026 0 0 1-6.145.732z" fill="#1d1d1b"/><path id="Path_412" data-name="Path 412" d="M1066.131 347.911l15.042 4.211-1.4.7-13.235-4.011z" fill="#1d1d1b"/></g></g></g></svg>