<svg xmlns="http://www.w3.org/2000/svg" width="957.167" height="659.708"><g id="Group_176" data-name="Group 176" transform="translate(-5349 -6692.647)"><path id="Path_11244" data-name="Path 11244" d="M79.757 320.2c14.933 46.249 46.538 86.226 96.49 105.6 103.812 40.272 337.931 19.5 512.66-4.342 90.365-12.33 169.812-46.344 227.523-94.259z" transform="translate(5280.732 6846.804)" fill="#057535" opacity=".1"/><path id="Path_11245" data-name="Path 11245" d="M1008.1 102.51h-96.84c-4.6 0-8.369-2.7-8.369-6s3.766-6 8.369-6H928c-4.6 0-8.369-2.7-8.369-6s3.766-6 8.369-6h-11.958c-4.6 0-8.369-2.7-8.369-6s3.766-6 8.369-6h50.542a175.571 175.571 0 00-39.426-7.8c-137.817-12.7-187.022-4.3-204.383 4.341a237.037 237.037 0 01-70.834 22.278c-85.036 12.584-244.057 27.728-388.189-4.847-71.638-16.191-124.879 11.168-156.793 56.9h917.953c-1.2-13.291-4.785-25.566-11.373-36.3a10.414 10.414 0 01-5.439 1.428z" transform="translate(5280.732 6812.473)" fill="#057535" opacity=".1"/><path id="Path_11246" data-name="Path 11246" d="M70.346 223.67a220.931 220.931 0 003.754 80.69l849.913 22.31c23.529-19.444 43.459-41.158 59.049-64.637zM406.5 281.232h-16.731c4.6 0 8.366 2.7 8.366 6s-3.765 6-8.366 6h-96.8c-4.6 0-8.366-2.7-8.366-6s3.765-6 8.366-6H309.7c-4.6 0-8.366-2.7-8.366-6s3.765-6 8.366-6h-11.954c-4.6 0-8.366-2.7-8.366-6s3.765-6 8.366-6h96.8c4.6 0 8.366 2.7 8.366 6s-3.765 6-8.366 6H406.5c4.6 0 8.366 2.7 8.366 6s-3.766 6-8.366 6z" transform="translate(5280.732 6829.539)" fill="#057535" opacity=".1"/><path id="Path_11247" data-name="Path 11247" d="M1025 137.772l-931.958 16.2a204.4 204.4 0 00-22.317 68.776h937.944a217.32 217.32 0 0013.541-43.839c2.797-14.345 3.916-28.216 2.79-41.137zm-765.053 53.081h-16.8c4.621 0 8.4 2.7 8.4 6s-3.781 6-8.4 6h-97.23c-4.621 0-8.4-2.7-8.4-6s3.781-6 8.4-6h16.8c-4.621 0-8.4-2.7-8.4-6s3.781-6 8.4-6h-12c-4.621 0-8.4-2.7-8.4-6s3.781-6 8.4-6h97.226c4.621 0 8.4 2.7 8.4 6s-3.781 6-8.4 6h12c4.621 0 8.4 2.7 8.4 6s-3.775 6-8.396 6z" transform="translate(5280.732 6820.444)" fill="#057535" opacity=".1"/><path id="Path_11248" data-name="Path 11248" d="M560.82 663.552v29.333h6.567s3.4-28.667-.885-33.25-5.682 3.917-5.682 3.917z" transform="translate(5219.446 6584.804)" fill="#504f60"/><path id="Path_11249" data-name="Path 11249" d="M324.888 617.218s192-38 194.667-24.667c0 0 3 4.333 1.833 13.167s-3 35.167 19 37.167 26.833 6.167 27 21.333l-188.5 61.833-22.167-27s-20-9.833-20.5-9.833-11.333-24.167-11.333-24.167l-1.833-21.5 2.833-18.833z" transform="translate(5236.358 6584.804)" fill="#6e6d84"/><path id="Rectangle_74" data-name="Rectangle 74" transform="rotate(-9.095 48032.142 -31389)" fill="#504f60" d="M0 0h194.966v1.001H0z"/><path id="Rectangle_75" data-name="Rectangle 75" transform="rotate(-9.665 45422.76 -29302.236)" fill="#504f60" d="M0 0h197.838v1.001H0z"/><path id="Rectangle_76" data-name="Rectangle 76" transform="rotate(-10.915 40595.982 -25503.602)" fill="#504f60" d="M0 0h198.502v1.001H0z"/><path id="Rectangle_77" data-name="Rectangle 77" transform="rotate(-12.001 37210.881 -22848.729)" fill="#504f60" d="M0 0h198.579v1H0z"/><path id="Rectangle_78" data-name="Rectangle 78" transform="rotate(-12.978 34651.99 -20850.903)" fill="#504f60" d="M0 0h197.325v1H0z"/><path id="Rectangle_79" data-name="Rectangle 79" transform="rotate(-13.494 33498.93 -19918.605)" fill="#504f60" d="M0 0h196.621v1H0z"/><path id="Rectangle_80" data-name="Rectangle 80" transform="rotate(-14.416 31544.78 -18437.899)" fill="#504f60" d="M0 0h190.863v1H0z"/><path id="Rectangle_81" data-name="Rectangle 81" transform="rotate(-15.284 29923.069 -17198.826)" fill="#504f60" d="M0 0h195.682v1H0z"/><path id="Rectangle_82" data-name="Rectangle 82" transform="rotate(-16.099 28565.788 -16159.567)" fill="#504f60" d="M0 0h199.953v1H0z"/><path id="Rectangle_83" data-name="Rectangle 83" transform="rotate(-16.506 27957.672 -15676.987)" fill="#504f60" d="M0 0h200.4v1H0z"/><path id="Path_11250" data-name="Path 11250" d="M326.554 614.885s-9.667 2.5-10 36.333a43.467 43.467 0 002.5 18.193c3.5 9.141 8.833 21.974 6.167 29.974 0 0-2.6 21.5-8.8 26.667l5.966 5.333s13.581-31.067 28.5-26.167 19.5 12.833 17.833 37.333l-1.667 20.833 7.333 4.167s11-31 1.667-59.833c0 0-9.333-13.667-21.667-18.167s-18.593-6.591-24.833-24.771c0 0-2.333-17.48-.833-23.771s1.334-25.124-2.166-26.124z" transform="translate(5242.74 6584.804)" fill="#504f60"/><path id="Path_11251" data-name="Path 11251" d="M832.526 529.788v8.812h1.974s1.021-8.616-.266-9.993-1.708 1.181-1.708 1.181z" transform="translate(5192.48 6566.115)" fill="#504f60"/><path id="Path_11252" data-name="Path 11252" d="M761.618 515.863s57.7-11.421 58.506-7.413a5.921 5.921 0 01.551 3.957c-.351 2.655-.9 10.569 5.71 11.17s8.065 1.853 8.115 6.412l-56.652 18.584-6.662-8.115s-6.011-2.955-6.161-2.955-3.406-7.263-3.406-7.263l-.551-6.462.852-5.66z" transform="translate(5194.749 6565.969)" fill="#6e6d84"/><path id="Rectangle_84" data-name="Rectangle 84" transform="rotate(-9.095 47504.453 -33915.1)" fill="#504f60" d="M0 0h58.596v.301H0z"/><path id="Rectangle_85" data-name="Rectangle 85" transform="rotate(-9.665 44888.29 -31691.96)" fill="#504f60" d="M0 0h59.459v.301H0z"/><path id="Rectangle_86" data-name="Rectangle 86" transform="rotate(-10.915 40088.692 -27633.045)" fill="#504f60" d="M0 0h59.658v.301H0z"/><path id="Rectangle_87" data-name="Rectangle 87" transform="rotate(-12.001 36726.56 -24792.709)" fill="#504f60" d="M0 0h59.681v.301H0z"/><path id="Rectangle_88" data-name="Rectangle 88" transform="rotate(-12.978 34182.343 -22646.108)" fill="#504f60" d="M0 0h59.305v.301H0z"/><path id="Rectangle_89" data-name="Rectangle 89" transform="rotate(-13.494 32992.19 -21640.486)" fill="#504f60" d="M0 0h59.093v.301H0z"/><path id="Rectangle_90" data-name="Rectangle 90" transform="rotate(-14.416 31063.563 -20026.303)" fill="#504f60" d="M0 0h57.363v.301H0z"/><path id="Rectangle_91" data-name="Rectangle 91" transform="rotate(-15.284 29460.527 -18681.096)" fill="#504f60" d="M0 0h58.811v.301H0z"/><path id="Rectangle_92" data-name="Rectangle 92" transform="rotate(-16.099 28114.114 -17550.292)" fill="#504f60" d="M0 0h60.094v.301H0z"/><path id="Rectangle_93" data-name="Rectangle 93" transform="rotate(-16.506 27497.691 -17026.595)" fill="#504f60" d="M0 0h60.229v.301H0z"/><path id="Path_11253" data-name="Path 11253" d="M762.119 515.161s-2.905.751-3.005 10.92a13.064 13.064 0 00.751 5.468c1.052 2.747 2.655 6.6 1.853 9.008 0 0-.781 6.462-2.644 8.014l1.793 1.6s4.082-9.337 8.565-7.864 5.861 3.857 5.36 11.22l-.5 6.261 2.2 1.252s3.306-9.317.5-17.982c0 0-2.805-4.107-6.512-5.46s-5.588-1.981-7.464-7.445c0 0-.7-5.254-.25-7.144s.405-7.547-.647-7.848z" transform="translate(5198.752 6566.888)" fill="#504f60"/><path id="Path_11254" data-name="Path 11254" d="M129.7 733.91s5.471-.875 8.753 2.991c0 0-2.407 1.9-7.586-.729z" transform="translate(5267.732 6584.804)" fill="#057535"/><path id="Path_11255" data-name="Path 11255" d="M129.114 733.825s-3.489 4.3-1.778 9.078c0 0 2.845-1.139 3.155-6.938z" transform="translate(5267.732 6584.804)" fill="#057535"/><path id="Path_11256" data-name="Path 11256" d="M125.978 726.761s2.188-4.012 10.942 1.6c0 0-1.167 2.7-5.033 2.48s-4.887-1.964-5.909-4.08z" transform="translate(5267.732 6584.804)" fill="#057535"/><path id="Path_11257" data-name="Path 11257" d="M125.414 726.472s-4.541-.518-4.981 9.873c0 0 2.879.6 4.924-2.691s1.2-5.13.057-7.182z" transform="translate(5267.732 6584.804)" fill="#057535"/><path id="Path_11258" data-name="Path 11258" d="M122.769 718.182s2.553-7.076 11.817-2.042c0 0-2.115 6.492-10.869 4.45z" transform="translate(5267.732 6584.804)" fill="#057535"/><path id="Path_11259" data-name="Path 11259" d="M119.924 707.6s4.814-7.149 13.349-.511c0 0-2.991 6.711-12.619 3.064z" transform="translate(5267.732 6584.804)" fill="#057535"/><path id="Path_11260" data-name="Path 11260" d="M118.9 697.539s5.617-6.565 14.078 0c0 0-5.325 5.763-14.078 1.678z" transform="translate(5267.732 6584.804)" fill="#057535"/><path id="Path_11261" data-name="Path 11261" d="M118.027 687.764s5.69-6.857 13.787-.365c0 0-6.419 6.054-13.787 1.969z" transform="translate(5267.732 6584.804)" fill="#057535"/><path id="Path_11262" data-name="Path 11262" d="M118.538 679.084s5.981-8.826 13.568-2.845c0 0-6.419 7.586-13.568 4.523z" transform="translate(5267.732 6584.804)" fill="#057535"/><path id="Path_11263" data-name="Path 11263" d="M119.924 668.944s6.346-8.753 13.714-2.042c0 0-7.513 7.586-13.714 3.647z" transform="translate(5267.732 6584.804)" fill="#057535"/><path id="Path_11264" data-name="Path 11264" d="M122.04 659.881s7.512-8.225 14.077-4.942c0 0-7.829 8.735-14.394 7.131z" transform="translate(5267.732 6584.804)" fill="#057535"/><path id="Path_11265" data-name="Path 11265" d="M124.665 651.292s8.68-10.066 13.714-6.711c0 0-6.387 7.805-14.338 8.607z" transform="translate(5267.732 6575.486)" fill="#057535"/><path id="Path_11266" data-name="Path 11266" d="M128.456 641.327s7.589-8.227 13.133-6.184c0 0-6.492 8.534-14.151 8.753z" transform="translate(5267.732 6574.732)" fill="#057535"/><path id="Path_11267" data-name="Path 11267" d="M131.887 632.006s8.389-7.878 12.036-6.492c0 0-6.054 8.753-12.4 8.243z" transform="translate(5267.732 6573.92)" fill="#057535"/><path id="Path_11268" data-name="Path 11268" d="M135.242 623.4s7.221-9.41 11.161-8.68c0 0-4.377 8.389-11.161 9.629z" transform="translate(5267.732 6573.128)" fill="#057535"/><path id="Path_11269" data-name="Path 11269" d="M138.883 611.8s6.383-7.215 9.831-7.2c0 0-5.038 9.633-10.093 9.55z" transform="translate(5267.732 6572.3)" fill="#057535"/><path id="Path_11270" data-name="Path 11270" d="M141.041 604.068l6.164-15.027s.309 13.583-6.949 17.814z" transform="translate(5267.732 6571.522)" fill="#057535"/><path id="Path_11271" data-name="Path 11271" d="M143.544 587.5s1.021-12.546.365-13.568c0 0 4.408 10.431-.407 19.111z" transform="translate(5267.732 6570.349)" fill="#057535"/><path id="Path_11272" data-name="Path 11272" d="M122.531 718.014s-6.394-3.962-10.532 5.735c0 0 5.689 3.776 11.283-3.259z" transform="translate(5267.732 6584.804)" fill="#057535"/><path id="Path_11273" data-name="Path 11273" d="M119.72 707.2s-7.841-3.577-11.646 6.544c0 0 6.058 4.157 12.359-3.986z" transform="translate(5267.732 6584.804)" fill="#057535"/><path id="Path_11274" data-name="Path 11274" d="M118.538 698.14s-5.617-6.565-14.078 0c0 0 5.325 5.763 14.078 1.678z" transform="translate(5267.732 6584.804)" fill="#057535"/><path id="Path_11275" data-name="Path 11275" d="M117.836 687.764s-5.69-6.857-13.787-.365c0 0 6.419 6.054 13.787 1.969z" transform="translate(5267.732 6584.804)" fill="#057535"/><path id="Path_11276" data-name="Path 11276" d="M118.538 679.333s-3.991-9.887-12.666-5.635c0 0 4.68 8.767 12.313 7.275z" transform="translate(5267.732 6584.804)" fill="#057535"/><path id="Path_11277" data-name="Path 11277" d="M120.426 668.895s-3.966-10.058-12.773-5.394c0 0 5.387 9.219 12.373 6.948z" transform="translate(5267.732 6584.804)" fill="#057535"/><path id="Path_11278" data-name="Path 11278" d="M122.885 659.933s-1.572-11.028-8.845-12.015c0 0 1.546 11.628 7.874 14z" transform="translate(5267.732 6584.804)" fill="#057535"/><path id="Path_11279" data-name="Path 11279" d="M124.852 651.311s-.61-13.278-6.641-13.747c0 0 .2 10.083 5.961 15.625z" transform="translate(5267.732 6575.387)" fill="#057535"/><path id="Path_11280" data-name="Path 11280" d="M129.082 640.947s-1.8-11.047-7.551-12.4c0 0 .714 10.7 6.985 15.1z" transform="translate(5267.732 6574.61)" fill="#057535"/><path id="Path_11281" data-name="Path 11281" d="M132.57 632.086s-.061-11.508-3.577-13.2c0 0-2.181 10.417 2.558 14.669z" transform="translate(5267.732 6573.788)" fill="#057535"/><path id="Path_11282" data-name="Path 11282" d="M135.511 623.271s-.493-11.851-4.134-13.521c0 0-1.246 9.379 3.589 14.3z" transform="translate(5267.732 6573.013)" fill="#057535"/><path id="Path_11283" data-name="Path 11283" d="M139.392 612.739s-.022-9.633-2.621-11.9c0 0-2.585 10.559 1.264 13.837z" transform="translate(5267.732 6572.253)" fill="#057535"/><path id="Path_11284" data-name="Path 11284" d="M140.735 603.594l-2.528-16.044s-3.437 13.145 2.648 18.937z" transform="translate(5267.732 6571.467)" fill="#057535"/><path id="Path_11285" data-name="Path 11285" d="M141.229 587.65s-6.493-10.784-6.359-11.991c0 0 .689 11.3 8.862 16.938z" transform="translate(5267.732 6570.365)" fill="#057535"/><path id="Path_11286" data-name="Path 11286" d="M141.99 584.465s-6.127-15.318-8.9-16.558c0 0 8.753 4.45 9.41 16.121z" transform="translate(5267.732 6569.704)" fill="#057535"/><path id="Path_11287" data-name="Path 11287" d="M138.588 614.238l-.418-.128c5.171-16.862 6.461-27.625 3.633-30.307l.3-.318c2.997 2.843 1.783 13.478-3.515 30.753z" transform="translate(5267.732 6571.85)" fill="#444053"/><path id="Path_11288" data-name="Path 11288" d="M124.35 653.707l-.619-.219c.548-1.545 1.14-3.113 1.76-4.659 5.4-13.452 9.992-25.965 12.938-35.573l.539-.271c-2.952 9.625-7.464 22.62-12.868 36.088a125.142 125.142 0 00-1.75 4.634z" transform="translate(5267.732 6575.017)" fill="#444053"/><path id="Path_11289" data-name="Path 11289" d="M137.4 746.53c-.084-.093-8.465-9.53-14.307-25.643a94.939 94.939 0 01-5.652-29.377c-.4-12.538 2.23-26.538 6.738-39.254l.49.573c-10.117 28.541-6.1 53-.766 67.722 5.781 15.966 14.065 25.3 14.149 25.393z" transform="translate(5267.732 6584.804)" fill="#444053"/><path id="Path_11290" data-name="Path 11290" d="M731.351 496s34.477-1.452 38.107-68.955-32.3-78.935-32.3-78.935-11.384-6.357-16.431-6.623-21.918 1.328-21.918 1.328l18.6-3.587s-26.168-9.963-34.006-10.76l28.294 5.978s.4-15.674-6.376-20.855c0 0 5.775-.431 8.854 10.859a21.571 21.571 0 0012.914 14.5c10.5 4.093 25 10.554 28.31 16.09 0 0 6.11 6.376 5.181-10.228s-5.313-30.822-6.907-31.218c0 0-12.486-13.281-30.021-14.078 0 0 10.228-4.118 27.5 8.767 0 0 1.461-6.509-5.048-14.213s-16.6-23.91-27.63-25.637c0 0 15.409-.93 27.63 19 0 0 4.516 2.922 4.915-4.516a91.608 91.608 0 013.055-16.737s3.719 17.136-4.118 24.84c0 0 15.01 19.527 14.346 41.444 0 0 4.649 9.963 6.376-1.727 0 0 1-16.1 3-29.754a40.442 40.442 0 00-8.482-31.193c-3.319-4.131-5.631-8.145-4.347-10.251l17.4 20.722s14.612-33.873 25.239-41.179 11.955-8.9 11.955-8.9L798.3 250.231l21.519-7.572-21.519 9.963s-9.963 8.1-15.674 30.286-6.243 36-6.243 36 30.685-24.309 36.529-23.512l-19.858 15.018a47.31 47.31 0 00-18.664 34.529s38.389-9.83 47.688-11.689l17.534-17.933-13.283 17 27.364-.4 15.674-11.158s-12.354 10.361-11.158 11.025 19.261 1.461 19.261 1.461-45.961-.266-51.008 3.055-16.339 4.516-16.339 4.516l32.544 4.915-38.788-2.79s-29.356 5.313-30.95 14.479c0 0 5.982 15.6 9.963 21.785 3.307 5.14 9.963 21.785 11.291 36.4s3.188 37.061-1.86 50.743-6.907 21.519-4.384 25.637 4.915 9.431-3.321 10.494-44.367-.531-44.367-.531-11.028 2.178-8.9-5.952z" transform="translate(5194.117 6535.801)" fill="#dea3a2"/><path id="Path_11291" data-name="Path 11291" d="M750.66 488.752a17.351 17.351 0 0111.7-1.463c6.766 1.463 17.127.688 18.072.527" transform="translate(5198.902 6562.364)" opacity=".1"/><path id="Path_11292" data-name="Path 11292" d="M772.3 409.209s1.646 25.966-1.28 31.086z" transform="translate(5198.681 6557.137)" opacity=".1"/><path id="Path_11293" data-name="Path 11293" d="M778.376 440.295s-2.11 24.32-3.57 29.074 3.57-29.074 3.57-29.074z" transform="translate(5198.191 6559.701)" opacity=".1"/><path id="Path_11294" data-name="Path 11294" d="M780.435 380.5c1.494.549 7.893 13.531 6.614 17.371s-6.614-17.371-6.614-17.371z" transform="translate(5197.404 6554.287)" opacity=".1"/><path id="Path_11295" data-name="Path 11295" d="M764.207 367.024c.695.316 3.671 7.793 3.076 10s-3.076-10-3.076-10z" transform="translate(5199.272 6552.954)" opacity=".1"/><path id="Path_11296" data-name="Path 11296" d="M791.919 410.628c-.738 7.541-1.141 12.478-.671 18.512a71.135 71.135 0 01-.2 14.08" transform="translate(5196.734 6557.313)" opacity=".1"/><path id="Path_11297" data-name="Path 11297" d="M711.78 322.832a6.036 6.036 0 011.248 3.822c.045 1.367-.134 2.736-.043 4.1.1 1.436.776 3.119 2.2 3.311" transform="translate(5204.512 6549.369)" opacity=".1"/><path id="Path_11298" data-name="Path 11298" d="M736.31 277.877a34.7 34.7 0 014.808 5.967 14.087 14.087 0 001.365 1.943 22.3 22.3 0 002.636 2.158 12.431 12.431 0 014.2 6.589" transform="translate(5201.452 6545.785)" opacity=".1"/><path id="Path_11299" data-name="Path 11299" d="M805.748 239.065a8.511 8.511 0 01-1.7 2.28c-.6.572-1.288 1.057-1.833 1.683a13.26 13.26 0 00-1.176 1.732 47.506 47.506 0 01-4.912 6.2" transform="translate(5195.632 6535.801)" opacity=".1"/><path id="Path_11300" data-name="Path 11300" d="M773.592 277.491c1.144.715 1.443 2.247 1.418 3.6a10.21 10.21 0 00.247 4.007c.228.57.6 1.074.836 1.64a7.659 7.659 0 01.395 3.12q-.03 1.835-.109 3.668c-.064 1.471-.2 3.069-1.2 4.149" transform="translate(5198.347 6545.812)" opacity=".1"/><path id="Path_11301" data-name="Path 11301" d="M783.214 315.6a15.643 15.643 0 00-2.981 2.052 5.336 5.336 0 00-1.733 3.105c-.066.513-.031 1.038-.144 1.542a4.891 4.891 0 01-1.019 1.866 25.39 25.39 0 01-2.516 2.785" transform="translate(5197.863 6548.781)" fill="none"/><path id="Path_11302" data-name="Path 11302" d="M774.54 350.282a18.476 18.476 0 012.4-1.669 10.073 10.073 0 012.473-1.086 26.4 26.4 0 014.081-.44 5.763 5.763 0 003.719-1.527" transform="translate(5197.606 6551.061)" opacity=".1"/><path id="Path_11303" data-name="Path 11303" d="M828.552 333.5a10.876 10.876 0 00-4.732.842c-.733.378-1.372.918-2.092 1.319a6.331 6.331 0 01-3.048.795" transform="translate(5193.34 6550.044)" opacity=".1"/><path id="Path_11304" data-name="Path 11304" d="M806.141 340.169a.9.9 0 011.161.27c.289.331.447.761.745 1.083a3.347 3.347 0 002.42.742" transform="translate(5194.988 6550.556)" opacity=".1"/><path id="Path_11305" data-name="Path 11305" d="M796.9 305.839l-1.555.814a27.309 27.309 0 00-4.577 2.792" transform="translate(5196.409 6547.827)" opacity=".1"/><path id="Path_11306" data-name="Path 11306" d="M779.152 321.026c-1.021-.241-1.9.846-2.083 1.88a29.016 29.016 0 01-.262 3.129 5.812 5.812 0 01-1.531 2.295" transform="translate(5198.115 6549.132)" opacity=".1"/><path id="Path_11307" data-name="Path 11307" d="M761.872 322.922c-.928 2.773 1.042 5.8.466 8.669-.175.873-.581 1.685-.786 2.552a7.761 7.761 0 001.878 6.521" transform="translate(5199.624 6549.525)" opacity=".1"/><path id="Path_11308" data-name="Path 11308" d="M347.619 577.043s-54.5-2.295-60.236-109 51.057-124.771 51.057-124.771 17.994-10.048 25.973-10.468 34.645 2.1 34.645 2.1l-29.4-5.669s41.365-15.748 53.753-17.008l-44.724 9.449s-.63-24.777 10.079-32.966c0 0-9.129-.681-14 17.164a34.1 34.1 0 01-20.413 22.913c-16.591 6.47-39.525 16.683-44.75 25.434 0 0-9.659 10.079-8.189-16.168s8.4-48.72 10.919-49.347c0 0 19.737-20.994 47.454-22.254 0 0-16.168-6.509-43.464 13.858 0 0-2.31-10.289 7.979-22.467s26.247-37.795 43.674-40.525c0 0-24.357-1.47-43.674 30.026 0 0-7.139 4.619-7.769-7.139s-4.829-26.457-4.829-26.457-5.879 27.086 6.509 39.265c0 0-23.727 30.866-22.677 65.511 0 0-7.349 15.748-10.079-2.73 0 0-1.58-25.447-4.74-47.033a63.926 63.926 0 0113.407-49.308c5.246-6.53 8.9-12.875 6.871-16.2l-27.506 32.756s-23.1-53.543-39.895-65.091-18.9-14.068-18.9-14.068l27.086 31.706-34.016-11.968 34.016 15.748s15.748 12.808 24.777 47.874 9.869 56.9 9.869 56.9-48.5-38.425-57.742-37.165l31.389 23.739a74.784 74.784 0 0129.5 54.581s-60.673-15.54-75.373-18.48l-27.716-28.346 21 26.876-43.254-.63-24.777-17.638s19.527 16.378 17.638 17.428-30.446 2.31-30.446 2.31 72.65-.42 80.629 4.829 25.827 7.139 25.827 7.139l-51.443 7.769 61.312-4.409s46.4 8.4 48.924 22.887c0 0-9.456 24.658-15.748 34.435-5.228 8.124-15.748 34.435-17.848 57.532s-5.039 58.582 2.94 80.209 10.919 34.016 6.929 40.525-7.769 14.908 5.249 16.588 70.131-.84 70.131-.84 17.435 3.445 14.072-9.406z" transform="translate(5267.732 6535.801)" fill="#dea3a2"/><path id="Path_11310" data-name="Path 11310" d="M282.887 439.851s-2.6 41.044 2.023 49.137z" transform="translate(5267.732 6560.496)" opacity=".1"/><path id="Path_11312" data-name="Path 11312" d="M270.03 394.471c-2.361.867-12.477 21.389-10.454 27.459s10.454-27.459 10.454-27.459z" transform="translate(5267.732 6555.791)" opacity=".1"/><path id="Path_11313" data-name="Path 11313" d="M295.682 373.169c-1.1.5-5.8 12.318-4.862 15.814s4.862-15.814 4.862-15.814z" transform="translate(5246.702 6553.633)" opacity=".1"/><path id="Path_11314" data-name="Path 11314" d="M251.878 442.094c1.167 11.92 1.8 19.724 1.061 29.262a112.433 112.433 0 00.318 22.256" transform="translate(5267.732 6560.798)" opacity=".1"/><path id="Path_11315" data-name="Path 11315" d="M378.554 303.314a9.541 9.541 0 00-1.973 6.042c-.071 2.16.211 4.325.068 6.481-.15 2.269-1.226 4.931-3.48 5.234" transform="translate(5238.409 6547.905)" opacity=".1"/><path id="Path_11316" data-name="Path 11316" d="M339.779 232.252a54.855 54.855 0 00-7.6 9.433 22.26 22.26 0 01-2.157 3.071 35.241 35.241 0 01-4.167 3.411 19.65 19.65 0 00-6.638 10.415" transform="translate(5243.481 6535.801)" opacity=".1"/><path id="Path_11317" data-name="Path 11317" d="M230.017 170.9a13.453 13.453 0 002.694 3.6c.951.9 2.036 1.671 2.9 2.66a20.962 20.962 0 011.859 2.738 75.1 75.1 0 007.764 9.807" transform="translate(5267.732 6535.801)" opacity=".1"/><path id="Path_11318" data-name="Path 11318" d="M280.848 231.643c-1.809 1.13-2.281 3.551-2.241 5.684s.4 4.354-.39 6.334c-.361.9-.944 1.7-1.322 2.593a12.106 12.106 0 00-.624 4.933q.048 2.9.173 5.8c.1 2.324.32 4.851 1.9 6.559" transform="translate(5267.732 6535.801)" opacity=".1"/><path id="Path_11319" data-name="Path 11319" d="M265.638 291.884a24.732 24.732 0 014.712 3.243 8.435 8.435 0 012.739 4.909c.1.81.05 1.64.228 2.438a7.733 7.733 0 001.611 2.949 40.122 40.122 0 003.978 4.4" transform="translate(5267.732 6546.964)" fill="none"/><path id="Path_11320" data-name="Path 11320" d="M279.349 346.7a29.216 29.216 0 00-3.8-2.639 15.924 15.924 0 00-3.909-1.717 41.73 41.73 0 00-6.451-.7 9.11 9.11 0 01-5.879-2.414" transform="translate(5267.732 6550.617)" opacity=".1"/><path id="Path_11321" data-name="Path 11321" d="M193.972 320.179c2.555.069 5.208.162 7.48 1.332 1.159.6 2.168 1.451 3.308 2.085a10.008 10.008 0 004.817 1.256" transform="translate(5267.732 6549.008)" opacity=".1"/><path id="Path_11322" data-name="Path 11322" d="M229.4 330.719a1.426 1.426 0 00-1.836.427c-.456.523-.707 1.2-1.178 1.712-.93 1.008-2.455 1.124-3.825 1.173" transform="translate(5267.732 6549.819)" opacity=".1"/><path id="Path_11323" data-name="Path 11323" d="M244.007 276.452l2.458 1.286a43.169 43.169 0 017.235 4.413" transform="translate(5267.732 6545.488)" opacity=".1"/><path id="Path_11324" data-name="Path 11324" d="M272.059 300.458c1.614-.382 3.006 1.338 3.293 2.972s-.049 3.354.414 4.947a9.189 9.189 0 002.42 3.627" transform="translate(5267.732 6547.543)" opacity=".1"/><path id="Path_11325" data-name="Path 11325" d="M299.374 303.456c1.467 4.384-1.646 9.171-.736 13.7.277 1.381.919 2.664 1.243 4.034.854 3.606-.613 7.447-2.969 10.307" transform="translate(5246.114 6548.131)" opacity=".1"/><path id="Path_11326" data-name="Path 11326" d="M1043 654.388s-11.027 1.2-5.343-16.389l3.358-.427 1.643-3.841s2.39-5.463 4.012-4.951 3.815 1.11 4.17-1.024a7.391 7.391 0 014.69-5.378c2.408-.768 14.529-8.444 17.175-14.763s5.121-7.984 5.121-7.984 3.5.1 1.28 14.112c0 0-.768 4.794-1.878 5.818s-10.584 10.84-10.584 10.84l-4.78 11.352-1.792 5.634s4.439 4.353-1.664 8.792-13.991 1.878-13.991 1.878z" transform="translate(5161.443 6575.142)" fill="#057535"/><path id="Path_11327" data-name="Path 11327" d="M6204.955 7226.717l9.708-17.071 8.987-10.243s10.072-11.694 11.353-14.084c0 0 3.414-6.4 3.5-7.982" fill="none" stroke="#444053" stroke-miterlimit="10" stroke-width="1"/><path id="Path_11328" data-name="Path 11328" d="M6218.194 7237.144s-9.955-1.658-12.962-.829" fill="none" stroke="#444053" stroke-miterlimit="10" stroke-width="1"/><path id="Path_11329" data-name="Path 11329" d="M6200.601 7220.559s4.523 2.646 4.354 3.414" fill="none" stroke="#444053" stroke-miterlimit="10" stroke-width="1"/><path id="Path_11330" data-name="Path 11330" d="M6208.882 7206.833s1.264 10.758.364 12.341" fill="none" stroke="#444053" stroke-miterlimit="10" stroke-width="1"/><path id="Path_11331" data-name="Path 11331" d="M6219.851 7216.136s-11.149 4.251-11.531 4.922" fill="none" stroke="#444053" stroke-miterlimit="10" stroke-width="1"/><path id="Path_11332" data-name="Path 11332" d="M6217.006 7199.4s-.759 7.481-1.7 8.744" fill="none" stroke="#444053" stroke-miterlimit="10" stroke-width="1"/><path id="Path_11333" data-name="Path 11333" d="M6222.881 7206.223s-7.623 1.769-8.219 2.817" fill="none" stroke="#444053" stroke-miterlimit="10" stroke-width="1"/><path id="Path_11334" data-name="Path 11334" d="M6230.478 7195.585l-7.5 3.158s1.528-5.378 1.186-5.89" fill="none" stroke="#444053" stroke-miterlimit="10" stroke-width="1"/><path id="Path_11335" data-name="Path 11335" d="M6237.477 7187.423s-8.7 2.937-8.49 3.705l.979-3.705" fill="none" stroke="#444053" stroke-miterlimit="10" stroke-width="1"/><path id="Path_11336" data-name="Path 11336" d="M6238.502 7180.208l-3.5 2.55-.427-2.327" fill="none" stroke="#444053" stroke-miterlimit="10" stroke-width="1"/><path id="Path_11337" data-name="Path 11337" d="M1047.269 582.347s7.426-40.715 10.115-43.916l1.024.768s-10.375 38.141-10.247 49.664c0 0-7.251 58.3-2.514 76.225 0 0 .6 3.3-1.067 3.683a207.272 207.272 0 01-.163-55.779" transform="translate(5161.443 6574.728)" fill="#444053"/><path id="Path_11338" data-name="Path 11338" d="M6208.376 7159.054s4.353-6.018 8.578-6.4" fill="none" stroke="#444053" stroke-miterlimit="10" stroke-width="1"/><path id="Path_11339" data-name="Path 11339" d="M1057.816 579.658s-3.375 1.81-3.224 2.858 4.056 1.3 4.056 1.3z" transform="translate(5161.443 6569.96)" fill="#444053"/><path id="Path_11340" data-name="Path 11340" d="M1059.8 576.906s5.7-4.161 7.234-1.024-.64 4.161-.64 4.161l-4.161 1.408s5.7-.32 4.417 5.826c0 0-3.777 3.329-5.954-.384 0 0-.384 2.744-1.536 1.756s-3.521-2.044-1.6-6.862z" transform="translate(5161.443 6570.126)" fill="#057535"/><path id="Path_11341" data-name="Path 11341" d="M1060.185 580.363s.9-7.81-1.984-7.106-2.241 4.289-2.241 4.289l1.536 3.585z" transform="translate(5161.443 6569.649)" fill="#057535"/><path id="Path_11342" data-name="Path 11342" d="M1058.947 580.786a.5.5 0 00.2-.028.489.489 0 00.208-.233 8.545 8.545 0 00.594-1.337c.04-.029.08.037.086.086l.121.969a.232.232 0 00.055.147.224.224 0 00.115.045.71.71 0 00.362 0 .279.279 0 00.2-.274 1.05 1.05 0 01.515.01.476.476 0 01.334.364.264.264 0 01-.113.264.8.8 0 01-.117.044c-.276.1-.408.487-.7.508-.052 0-.114 0-.143.042a.128.128 0 00-.013.087 1.491 1.491 0 00.685.916l.606.473c0 .294-.034.643-.292.784a.426.426 0 01-.486-.064c-.128-.122-.181-.327-.345-.394-.185-.076-.394.086-.459.274a1.98 1.98 0 00-.043.595 1.7 1.7 0 01-.5 1.141.49.49 0 00-.13.167.75.75 0 00-.013.24.451.451 0 01-.261.4.368.368 0 01-.445-.133c-.128-.209.009-.471.078-.706.134-.451.007-.944.116-1.4.057-.238.177-.458.233-.7a.593.593 0 000-.323.655.655 0 00-.128-.206 2.491 2.491 0 00-.6-.522 1.1 1.1 0 01-.474-.4.793.793 0 01.13-.742c.144-.151.414-.092.624-.094z" transform="translate(5161.443 6570.074)" fill="#444053"/><path id="Path_11343" data-name="Path 11343" d="M1040 587.759s2.4 2.986 1.849 3.891-4.243-.387-4.243-.387z" transform="translate(5161.443 6570.618)" fill="#444053"/><path id="Path_11344" data-name="Path 11344" d="M1039.25 584.45s-3.615-6.059-6.256-3.773-1.039 4.08-1.039 4.08l3.278 2.924s-5.118-2.524-6.344 3.633c0 0 2.173 4.541 5.629 1.976 0 0-.72 2.675.727 2.217s4.04-.5 4.158-5.688z" transform="translate(5161.443 6570.646)" fill="#057535"/><path id="Path_11345" data-name="Path 11345" d="M1037.544 587.481s2.231-7.538 4.607-5.763.384 4.824.384 4.824l-2.817 2.7z" transform="translate(5161.443 6570.312)" fill="#057535"/><path id="Path_11346" data-name="Path 11346" d="M1038.518 588.355a.5.5 0 01-.169-.1.488.488 0 01-.1-.3 8.558 8.558 0 01-.024-1.463c-.026-.042-.088 0-.113.045l-.491.845a.234.234 0 01-.108.114.224.224 0 01-.123 0 .711.711 0 01-.332-.144.279.279 0 01-.076-.33 1.049 1.049 0 00-.478-.193.476.476 0 00-.45.2.264.264 0 000 .287.772.772 0 00.09.086c.214.2.185.608.447.742.046.024.1.044.116.095a.127.127 0 01-.022.086 1.491 1.491 0 01-.989.575l-.743.2c-.115.27-.22.605-.039.836a.427.427 0 00.472.131c.166-.062.295-.23.472-.228.2 0 .329.233.315.432a1.979 1.979 0 01-.193.564 1.7 1.7 0 00.01 1.244.49.49 0 01.055.2.749.749 0 01-.082.226.451.451 0 00.083.471.368.368 0 00.461.052c.2-.143.176-.437.2-.68.053-.468.363-.872.441-1.336.041-.242.017-.491.058-.732a.593.593 0 01.124-.3.654.654 0 01.2-.139 2.492 2.492 0 01.76-.244 1.1 1.1 0 00.593-.183.793.793 0 00.17-.734c-.071-.19-.343-.241-.535-.325z" transform="translate(5161.443 6570.652)" fill="#444053"/><path id="Path_11347" data-name="Path 11347" d="M6206.09 7190.987s2.108-7.59 5.194-10.752" fill="none" stroke="#444053" stroke-miterlimit="10" stroke-width="1"/><path id="Path_11348" data-name="Path 11348" d="M1051.366 601.04s.171-6.743 4.012-6.658 4.182 4.865 3.03 6.658c0 0 5.585-.6 5.8 4.012s-5.375 4.1-5.375 4.1-.64 4.78-5.164 5.463-3.639-5.8-3.639-5.8-5.153-.683-5.58-3.67 3.142-4.116 3.142-4.116z" transform="translate(5161.443 6572.115)" fill="#057535"/><path id="Path_11349" data-name="Path 11349" d="M1056.3 604.933c.105.047.23.014.342.044a.615.615 0 01.277.211c.234.264.481.64.291.937s-.659.224-.985.069-.712-.349-1.023-.167l.073 1.23a.37.37 0 01-.042.244.364.364 0 01-.289.105 8.277 8.277 0 01-.839 0 4.859 4.859 0 00-.084-1.3.435.435 0 00-.116-.253.4.4 0 00-.242-.075c-.421-.021-1.465.281-1.615-.372-.124-.54.626-.481.892-.783.527-.6.567-1.505 1.361-1.984.835-.5.61-.257.8.363.064.211-.181.435 0 .669.207.273.556-.009.752.164.234.211.17.774.447.898z" transform="translate(5161.443 6571.864)" fill="#444053"/><path id="Path_11350" data-name="Path 11350" d="M1057.941 601.544a1.944 1.944 0 00-1.5.694 5.76 5.76 0 00-.879 1.458" transform="translate(5161.443 6571.61)" opacity=".1"/><path id="Path_11351" data-name="Path 11351" d="M1053.219 606.541a1.944 1.944 0 00-1.5.694 5.756 5.756 0 00-.879 1.458" transform="translate(5161.443 6572.012)" opacity=".1"/><path id="Path_11352" data-name="Path 11352" d="M1052.735 603.4a1.944 1.944 0 00-1.093-1.239 5.755 5.755 0 00-1.648-.427" transform="translate(5161.443 6571.596)" opacity=".1"/><path id="Path_11353" data-name="Path 11353" d="M1057.971 609.315a1.944 1.944 0 00-.881-1.4 5.757 5.757 0 00-1.559-.684" transform="translate(5161.443 6572.064)" opacity=".1"/><path id="Path_11354" data-name="Path 11354" d="M1043.125 567.424s-2.888-6.1.579-7.752 5.927 2.457 5.707 4.576c0 0 4.715-3.051 6.987.965s-2.95 6.08-2.95 6.08 1.584 4.555-2.146 7.2-5.865-3.54-5.865-3.54-4.907 1.714-6.635-.76.949-5.09.949-5.09z" transform="translate(5161.443 6569.179)" fill="#057535"/><path id="Path_11355" data-name="Path 11355" d="M1049.281 568.675c.115-.005.212-.092.325-.115a.615.615 0 01.343.064c.328.13.718.355.682.706s-.487.5-.848.506-.792.009-.988.313l.62 1.065a.371.371 0 01.073.236c-.017.1-.118.172-.21.224a8.3 8.3 0 01-.75.377 4.858 4.858 0 00-.663-1.125.435.435 0 00-.218-.174.394.394 0 00-.25.042c-.385.171-1.181.911-1.609.4-.354-.426.342-.711.443-1.1.2-.77-.173-1.6.32-2.385.519-.826.428-.5.875-.035.152.16.034.47.3.6.308.151.492-.259.745-.193.313.076.511.608.81.594z" transform="translate(5161.443 6568.991)" fill="#444053"/><path id="Path_11356" data-name="Path 11356" d="M1049.222 564.909a1.944 1.944 0 00-1.026 1.3 5.759 5.759 0 00-.127 1.7" transform="translate(5161.443 6568.706)" opacity=".1"/><path id="Path_11357" data-name="Path 11357" d="M1047.26 571.5a1.945 1.945 0 00-1.025 1.3 5.754 5.754 0 00-.127 1.7" transform="translate(5161.443 6569.237)" opacity=".1"/><path id="Path_11358" data-name="Path 11358" d="M1045.411 568.911a1.945 1.945 0 00-1.535-.613 5.753 5.753 0 00-1.663.362" transform="translate(5161.443 6568.849)" opacity=".1"/><path id="Path_11359" data-name="Path 11359" d="M1052.752 571.832a1.945 1.945 0 00-1.417-.85 5.756 5.756 0 00-1.7.092" transform="translate(5161.443 6569.077)" opacity=".1"/><path id="Path_11360" data-name="Path 11360" d="M6202.737 7162.215s6.116 5.794 4.806 8.962" fill="none" stroke="#444053" stroke-miterlimit="10" stroke-width="1"/><path id="Path_11361" data-name="Path 11361" d="M1038.227 605.944s2.4 2.986 1.849 3.891-4.243-.387-4.243-.387z" transform="translate(5161.443 6572.087)" fill="#444053"/><path id="Path_11362" data-name="Path 11362" d="M1037.478 602.635s-3.615-6.059-6.256-3.773-1.039 4.08-1.039 4.08l3.278 2.924s-5.118-2.524-6.344 3.633c0 0 2.173 4.541 5.629 1.976 0 0-.72 2.675.727 2.217s4.04-.5 4.158-5.688z" transform="translate(5161.443 6572.144)" fill="#057535"/><path id="Path_11363" data-name="Path 11363" d="M1035.772 605.666s2.231-7.538 4.607-5.763.384 4.824.384 4.824l-2.817 2.7z" transform="translate(5161.443 6571.79)" fill="#057535"/><path id="Path_11364" data-name="Path 11364" d="M1036.745 606.54a.5.5 0 01-.169-.1.49.49 0 01-.1-.3 8.546 8.546 0 01-.024-1.463c-.025-.042-.088 0-.113.045l-.491.845a.232.232 0 01-.108.114.224.224 0 01-.124 0 .711.711 0 01-.332-.144.279.279 0 01-.076-.33 1.049 1.049 0 00-.478-.193.476.476 0 00-.45.2.264.264 0 000 .287.777.777 0 00.09.086c.214.2.184.608.447.742.046.024.1.044.116.095a.127.127 0 01-.022.086 1.491 1.491 0 01-.989.575l-.743.2c-.115.27-.22.605-.039.836a.426.426 0 00.472.132c.166-.062.295-.23.472-.228.2 0 .329.233.315.432a1.987 1.987 0 01-.193.564 1.7 1.7 0 00.01 1.244.49.49 0 01.055.2.749.749 0 01-.082.226.451.451 0 00.083.471.368.368 0 00.461.052c.2-.143.176-.437.2-.68.053-.468.363-.872.441-1.336.041-.242.017-.491.058-.732a.593.593 0 01.124-.3.654.654 0 01.2-.139 2.494 2.494 0 01.76-.244 1.1 1.1 0 00.593-.183.793.793 0 00.171-.734c-.071-.191-.342-.242-.535-.326z" transform="translate(5161.443 6572.127)" fill="#444053"/><path id="Path_11365" data-name="Path 11365" d="M6200.964 7181.881s6.116 5.794 4.806 8.962" fill="none" stroke="#444053" stroke-miterlimit="10" stroke-width="1"/><path id="Path_11366" data-name="Path 11366" d="M1050.009 541.314s2.4 2.986 1.849 3.891-4.243-.387-4.243-.387z" transform="translate(5161.443 6566.865)" fill="#444053"/><path id="Path_11367" data-name="Path 11367" d="M1049.26 538s-3.615-6.059-6.256-3.773-1.039 4.08-1.039 4.08l3.278 2.924s-5.118-2.524-6.344 3.633c0 0 2.173 4.541 5.629 1.976 0 0-.72 2.675.727 2.217s4.04-.5 4.158-5.688z" transform="translate(5161.443 6566.823)" fill="#057535"/><path id="Path_11368" data-name="Path 11368" d="M1047.553 541.035s2.231-7.538 4.607-5.763.384 4.824.384 4.824l-2.817 2.7z" transform="translate(5161.443 6566.537)" fill="#057535"/><path id="Path_11369" data-name="Path 11369" d="M1048.527 541.909a.5.5 0 01-.169-.1.488.488 0 01-.1-.3 8.558 8.558 0 01-.024-1.463c-.026-.042-.088 0-.113.045l-.491.845a.232.232 0 01-.108.114.224.224 0 01-.123 0 .709.709 0 01-.332-.144.28.28 0 01-.076-.33 1.05 1.05 0 00-.478-.193.476.476 0 00-.45.2.264.264 0 000 .287.792.792 0 00.09.086c.214.2.184.608.447.742.046.024.1.044.116.095a.127.127 0 01-.022.086 1.492 1.492 0 01-.989.575l-.743.2c-.115.27-.22.605-.039.836a.426.426 0 00.472.131c.166-.062.295-.23.472-.228.2 0 .329.233.315.432a1.975 1.975 0 01-.193.564 1.7 1.7 0 00.009 1.244.491.491 0 01.055.2.749.749 0 01-.082.226.451.451 0 00.083.471.368.368 0 00.461.052c.2-.143.176-.436.2-.68.053-.467.363-.872.441-1.336.041-.242.017-.491.058-.732a.594.594 0 01.124-.3.655.655 0 01.2-.139 2.494 2.494 0 01.76-.244 1.1 1.1 0 00.593-.183.793.793 0 00.171-.734c-.071-.19-.343-.241-.535-.325z" transform="translate(5161.443 6566.885)" fill="#444053"/><path id="Path_11370" data-name="Path 11370" d="M6212.743 7111.853s4.966 3.245 3.656 6.413" fill="none" stroke="#444053" stroke-miterlimit="10" stroke-width="1"/><path id="Path_11371" data-name="Path 11371" d="M1053.41 524.453s2.4 2.986 1.849 3.891-4.243-.387-4.243-.387z" transform="translate(5161.443 6565.503)" fill="#444053"/><path id="Path_11372" data-name="Path 11372" d="M1052.661 521.143s-3.615-6.059-6.256-3.773-1.039 4.08-1.039 4.08l3.278 2.924s-5.118-2.524-6.344 3.633c0 0 2.173 4.541 5.629 1.976 0 0-.72 2.675.727 2.217s4.04-.5 4.158-5.688z" transform="translate(5161.443 6565.436)" fill="#057535"/><path id="Path_11373" data-name="Path 11373" d="M1050.955 524.174s2.231-7.538 4.607-5.763.384 4.824.384 4.824l-2.817 2.7z" transform="translate(5161.443 6565.166)" fill="#057535"/><path id="Path_11374" data-name="Path 11374" d="M1051.928 525.048a.5.5 0 01-.169-.1.489.489 0 01-.1-.3 8.571 8.571 0 01-.024-1.463c-.025-.042-.088 0-.113.045l-.491.845a.232.232 0 01-.108.114.225.225 0 01-.124 0 .709.709 0 01-.332-.144.28.28 0 01-.076-.33 1.049 1.049 0 00-.478-.193.476.476 0 00-.45.2.264.264 0 000 .287.777.777 0 00.09.086c.214.2.184.608.447.743.046.024.1.044.116.095a.128.128 0 01-.022.086 1.491 1.491 0 01-.989.575l-.743.2c-.115.27-.22.605-.039.836a.427.427 0 00.472.131c.166-.062.295-.23.472-.228.2 0 .329.233.315.432a1.982 1.982 0 01-.193.564 1.7 1.7 0 00.01 1.244.49.49 0 01.055.2.752.752 0 01-.082.226.451.451 0 00.083.471.368.368 0 00.461.052c.2-.143.176-.437.2-.68.053-.467.363-.872.441-1.336.041-.242.017-.491.058-.732a.592.592 0 01.124-.3.655.655 0 01.2-.139 2.493 2.493 0 01.761-.244 1.1 1.1 0 00.593-.183.793.793 0 00.17-.734c-.071-.191-.342-.242-.535-.326z" transform="translate(5161.443 6565.517)" fill="#444053"/><path id="Path_11375" data-name="Path 11375" d="M6216.143 7093.625s4.966 3.245 3.656 6.413" fill="none" stroke="#444053" stroke-miterlimit="10" stroke-width="1"/><path id="Path_11376" data-name="Path 11376" d="M1076.307 540.995s-2.4 2.986-1.849 3.891 4.243-.387 4.243-.387z" transform="translate(5161.443 6566.839)" fill="#444053"/><path id="Path_11377" data-name="Path 11377" d="M1077.056 537.685s3.615-6.059 6.256-3.773 1.039 4.08 1.039 4.08l-3.278 2.924s5.118-2.524 6.344 3.633c0 0-2.173 4.541-5.629 1.976 0 0 .72 2.675-.727 2.217s-4.04-.5-4.158-5.688z" transform="translate(5161.443 6566.797)" fill="#057535"/><path id="Path_11378" data-name="Path 11378" d="M1078.762 540.716s-2.231-7.538-4.607-5.763-.384 4.824-.384 4.824l2.817 2.7z" transform="translate(5161.443 6566.511)" fill="#057535"/><path id="Path_11379" data-name="Path 11379" d="M1077.789 541.59a.5.5 0 00.169-.1.489.489 0 00.1-.3 8.572 8.572 0 00.024-1.463c.026-.042.088 0 .113.045l.491.845a.233.233 0 00.108.114.224.224 0 00.124 0 .711.711 0 00.332-.144.279.279 0 00.076-.33 1.049 1.049 0 01.478-.193.476.476 0 01.45.2.264.264 0 010 .287.776.776 0 01-.09.086c-.214.2-.185.608-.447.742-.046.024-.1.044-.116.095a.127.127 0 00.022.086 1.491 1.491 0 00.989.575l.743.2c.115.27.22.605.039.836a.427.427 0 01-.472.131c-.166-.062-.295-.23-.472-.228-.2 0-.329.233-.315.432a1.983 1.983 0 00.193.564 1.7 1.7 0 01-.01 1.244.489.489 0 00-.055.2.749.749 0 00.082.226.451.451 0 01-.083.471.368.368 0 01-.461.052c-.2-.143-.176-.437-.2-.68-.053-.468-.363-.872-.441-1.336-.041-.242-.017-.491-.058-.732a.594.594 0 00-.124-.3.655.655 0 00-.2-.139 2.492 2.492 0 00-.761-.244 1.1 1.1 0 01-.593-.183.793.793 0 01-.17-.734c.071-.19.346-.241.535-.325z" transform="translate(5161.443 6566.859)" fill="#444053"/><path id="Path_11380" data-name="Path 11380" d="M6236.456 7111.695s-22.568 6.8-21.257 9.972" fill="none" stroke="#444053" stroke-miterlimit="10" stroke-width="1"/><path id="Path_11381" data-name="Path 11381" d="M1060.941 552.738s-.193-6.743 3.647-6.864 4.439 4.633 3.384 6.485c0 0 5.544-.9 6.009 3.693s-5.146 4.381-5.146 4.381-.381 4.807-4.862 5.733-3.946-5.6-3.946-5.6-5.182-.4-5.769-3.364 2.916-4.279 2.916-4.279z" transform="translate(5161.443 6568.094)" fill="#057535"/><path id="Path_11382" data-name="Path 11382" d="M1066.074 556.359c.108.042.231 0 .344.025a.615.615 0 01.288.2c.248.251.515.614.341.92s-.646.259-.98.122-.729-.31-1.031-.111l.139 1.224a.37.37 0 01-.029.246.365.365 0 01-.283.121 8.281 8.281 0 01-.838.043 4.865 4.865 0 00-.155-1.3.435.435 0 00-.129-.247.394.394 0 00-.246-.061c-.421 0-1.448.359-1.633-.284-.153-.532.6-.514.849-.83.494-.624.485-1.534 1.252-2.054.807-.548.6-.29.815.32.075.207-.157.444.032.668.222.262.554-.039.76.123.258.2.224.767.504.875z" transform="translate(5161.443 6567.941)" fill="#444053"/><path id="Path_11383" data-name="Path 11383" d="M1067.534 552.887a1.945 1.945 0 00-1.46.774 5.764 5.764 0 00-.8 1.5" transform="translate(5161.443 6567.698)" opacity=".1"/><path id="Path_11384" data-name="Path 11384" d="M1063.088 558.131a1.945 1.945 0 00-1.46.774 5.755 5.755 0 00-.8 1.5" transform="translate(5161.443 6568.121)" opacity=".1"/><path id="Path_11385" data-name="Path 11385" d="M1062.436 555.018a1.945 1.945 0 00-1.158-1.178 5.759 5.759 0 00-1.669-.337" transform="translate(5161.443 6567.708)" opacity=".1"/><path id="Path_11386" data-name="Path 11386" d="M1067.982 560.645a1.944 1.944 0 00-.955-1.348 5.758 5.758 0 00-1.594-.6" transform="translate(5161.443 6568.149)" opacity=".1"/><path id="Path_11387" data-name="Path 11387" d="M6223.287 7096.252c.021-.247 1.055-16.294 1.055-16.294" fill="none" stroke="#444053" stroke-miterlimit="10" stroke-width="2"/><path id="Path_11388" data-name="Path 11388" d="M1073.926 521.685s-1.266 3.615-.447 4.285 3.871-1.779 3.871-1.779z" transform="translate(5161.443 6565.288)" fill="#444053"/><path id="Path_11389" data-name="Path 11389" d="M1073.53 518.315s1.39-6.917 4.642-5.642 2.339 3.5 2.339 3.5l-2.117 3.849s3.985-4.085 7.192 1.312c0 0-.536 5.006-4.649 3.738 0 0 1.57 2.283.053 2.333s-3.977.871-5.815-3.978z" transform="translate(5161.443 6565.057)" fill="#057535"/><path id="Path_11390" data-name="Path 11390" d="M1076.148 520.6s-4.615-6.364-6.263-3.9 1.245 4.676 1.245 4.676l3.555 1.606z" transform="translate(5161.443 6564.958)" fill="#057535"/><path id="Path_11391" data-name="Path 11391" d="M1075.522 521.753a.5.5 0 00.126-.153.489.489 0 000-.312 8.558 8.558 0 00-.464-1.387c.01-.048.084-.027.122.005l.744.633a.232.232 0 00.14.071.225.225 0 00.115-.044.712.712 0 00.266-.246.279.279 0 00-.038-.337 1.051 1.051 0 01.387-.341.476.476 0 01.492.042.264.264 0 01.1.271.778.778 0 01-.057.111c-.134.263.028.634-.174.849-.036.038-.084.076-.078.128a.128.128 0 00.049.074 1.491 1.491 0 001.124.213l.766-.061c.2.216.409.5.315.775a.426.426 0 01-.4.281c-.177 0-.355-.119-.521-.058a.384.384 0 00-.153.512 1.978 1.978 0 00.37.468 1.7 1.7 0 01.405 1.176.491.491 0 00.016.211.75.75 0 00.152.185.451.451 0 01.078.472.368.368 0 01-.417.2c-.236-.068-.312-.353-.419-.573-.206-.423-.633-.7-.861-1.112-.119-.214-.179-.457-.3-.671a.592.592 0 00-.216-.24.653.653 0 00-.234-.065 2.491 2.491 0 00-.8.024 1.1 1.1 0 01-.62.025.793.793 0 01-.405-.635c-.003-.209.236-.344.39-.491z" transform="translate(5161.443 6565.192)" fill="#444053"/><path id="Path_11392" data-name="Path 11392" d="M6235.243 7091.403s-19.012 13.933-16.721 16.483" fill="none" stroke="#444053" stroke-miterlimit="10" stroke-width="1"/><path id="Path_11393" data-name="Path 11393" d="M1059.629 533.149s-3.169-5.955.217-7.77 6.035 2.178 5.914 4.305c0 0 4.568-3.268 7.024.638s-2.663 6.211-2.663 6.211 1.795 4.476-1.807 7.3-6.024-3.263-6.024-3.263-4.822 1.941-6.664-.45.71-5.129.71-5.129z" transform="translate(5161.443 6566.317)" fill="#057535"/><path id="Path_11394" data-name="Path 11394" d="M1065.837 534.112c.115-.011.207-.1.319-.13a.615.615 0 01.345.048c.334.114.734.321.714.673s-.463.519-.823.545-.791.046-.973.358l.669 1.034a.37.37 0 01.083.233c-.012.106-.11.177-.2.234a8.263 8.263 0 01-.732.411 4.86 4.86 0 00-.715-1.093.435.435 0 00-.225-.164.4.4 0 00-.248.054c-.377.189-1.137.965-1.589.471-.373-.409.308-.727.391-1.121.165-.779-.247-1.589.209-2.4.479-.849.4-.524.873-.076.159.152.056.468.326.584.315.136.479-.282.736-.227.319.071.541.593.84.566z" transform="translate(5161.443 6566.201)" fill="#444053"/><path id="Path_11395" data-name="Path 11395" d="M1065.6 530.353a1.945 1.945 0 00-.964 1.342 5.759 5.759 0 00-.048 1.7" transform="translate(5161.443 6565.921)" opacity=".1"/><path id="Path_11396" data-name="Path 11396" d="M1063.95 537.027a1.945 1.945 0 00-.964 1.342 5.755 5.755 0 00-.048 1.7" transform="translate(5161.443 6566.459)" opacity=".1"/><path id="Path_11397" data-name="Path 11397" d="M1061.981 534.528a1.945 1.945 0 00-1.561-.541 5.759 5.759 0 00-1.645.44" transform="translate(5161.443 6566.089)" opacity=".1"/><path id="Path_11398" data-name="Path 11398" d="M1069.451 537.1a1.945 1.945 0 00-1.455-.783 5.757 5.757 0 00-1.694.171" transform="translate(5161.443 6566.289)" opacity=".1"/><path id="Path_11399" data-name="Path 11399" d="M1062.9 508.257s-3.319 5.8 0 7.426c0 0 4.532-3.073 0-7.426z" transform="translate(5161.443 6564.345)" fill="#444053"/><path id="Path_11400" data-name="Path 11400" d="M1071.465 506.963s-5.876 3.19-3.907 6.315c0 .001 5.473-.227 3.907-6.315z" transform="translate(5161.443 6564.188)" fill="#444053"/><path id="Path_11401" data-name="Path 11401" d="M1073.761 510.539s-5.876 3.19-3.907 6.315c0 0 5.473-.228 3.907-6.315z" transform="translate(5161.443 6564.478)" fill="#444053"/><path id="Line_4" data-name="Line 4" fill="none" stroke="#444053" stroke-miterlimit="10" stroke-width="2" d="M6229.32 7077.528l-6.033 14.043"/><path id="Path_11402" data-name="Path 11402" d="M6232.27 7080.626s-7.407 4.792-7.4 7.3" fill="none" stroke="#444053" stroke-miterlimit="10" stroke-width="2"/><ellipse id="Ellipse_51" data-name="Ellipse 51" cx="16.817" cy="2.843" rx="16.817" ry="2.843" transform="translate(5393.063 7337.522)" fill="#057535" opacity=".1"/><path id="Path_11403" data-name="Path 11403" d="M125.854 768.351s9.593-.3 12.484-2.354 14.756-4.517 15.473-1.215 14.416 16.421 3.586 16.508-25.164-1.687-28.05-3.445-3.493-9.494-3.493-9.494z" transform="translate(5272.732 6558.804)" fill="#a8a8a8"/><path id="Path_11404" data-name="Path 11404" d="M157.59 780.14c-10.83.087-25.164-1.687-28.05-3.445-2.2-1.339-3.073-6.141-3.366-8.357l-.32.012s.608 7.737 3.493 9.494 17.22 3.532 28.05 3.445c3.126-.025 4.206-1.137 4.147-2.785-.435.996-1.627 1.617-3.954 1.636z" transform="translate(5272.732 6558.804)" opacity=".2"/><ellipse id="Ellipse_52" data-name="Ellipse 52" cx="8.298" cy="1.403" rx="8.298" ry="1.403" transform="translate(6007.386 7211.106)" fill="#057535" opacity=".1"/><path id="Path_11405" data-name="Path 11405" d="M816.779 631.515s4.733-.146 6.16-1.161 7.281-2.229 7.635-.6 7.113 8.1 1.769 8.145-12.416-.832-13.84-1.7-1.724-4.684-1.724-4.684z" transform="translate(5192.982 6574.247)" fill="#a8a8a8"/><path id="Path_11406" data-name="Path 11406" d="M832.438 637.332c-5.344.043-12.416-.832-13.84-1.7-1.084-.66-1.516-3.03-1.661-4.124l-.158.006s.3 3.817 1.723 4.685 8.5 1.743 13.84 1.7c1.542-.012 2.075-.561 2.046-1.374-.214.491-.802.798-1.95.807z" transform="translate(5192.983 6574.291)" opacity=".2"/><g id="Group_180" data-name="Group 180" transform="translate(5948.235 7150.738)"><ellipse id="Ellipse_89" data-name="Ellipse 89" cx="14.565" cy="2" rx="14.565" ry="2" transform="translate(52.996 176.867)" fill="#057535" opacity=".1"/><ellipse id="Ellipse_90" data-name="Ellipse 90" cx="14.565" cy="2" rx="14.565" ry="2" transform="translate(134.455 174.867)" fill="#057535" opacity=".1"/><g id="Group_179" data-name="Group 179"><g id="Group_178" data-name="Group 178"><ellipse id="Ellipse_86" data-name="Ellipse 86" cx="20.49" cy="2.813" rx="20.49" ry="2.813" transform="translate(0 145.437)" fill="#057535" opacity=".1"/><ellipse id="Ellipse_87" data-name="Ellipse 87" cx="20.49" cy="2.813" rx="20.49" ry="2.813" transform="translate(78.485 153.395)" fill="#057535" opacity=".1"/><ellipse id="Ellipse_88" data-name="Ellipse 88" cx="20.49" cy="2.813" rx="20.49" ry="2.813" transform="translate(170.931 142.624)" fill="#057535" opacity=".1"/><path id="Path_11590" data-name="Path 11590" d="M905.207 822.511s-28.735-94.2 4.5-131.933c24.862-28.226 53.079-24.849 65.718-21.356a23.347 23.347 0 0115.075 12.525c4.417 9.534 3.619 25.007-27.57 43.063-52.224 30.235-55.472 71.714-55.472 71.714z" transform="translate(-805.792 -666.934)" fill="#057535"/><path id="Path_11591" data-name="Path 11591" d="M165.132 15.648S80.425 42.135 99.415 155.577" fill="none" stroke="#565987" stroke-miterlimit="10" stroke-width="1"/><path id="Path_11592" data-name="Path 11592" d="M115.657 25.143s11.664 7.861 7.956 19.672" fill="none" stroke="#565987" stroke-miterlimit="10" stroke-width="1"/><path id="Path_11594" data-name="Path 11594" d="M123.153 68.621s-12.522-6.354-15.759 1.6" fill="none" stroke="#565987" stroke-miterlimit="10" stroke-width="1"/><path id="Path_11595" data-name="Path 11595" d="M92.169 81.866s9.4-.75 9.573 3.748" fill="none" stroke="#565987" stroke-miterlimit="10" stroke-width="1"/><path id="Path_11596" data-name="Path 11596" d="M904.045 823.261s33.655-68.465 42.9-66.966c4.392.712 6.415 5.032 7.33 9.372a27.553 27.553 0 01-1.833 16.665c-4.775 10.955-17.602 31.761-48.397 40.929z" transform="translate(-805.792 -666.934)" fill="#057535"/><path id="Path_11597" data-name="Path 11597" d="M140.908 102.354s-35.326 51.224-42.15 53.473" fill="none" stroke="#565987" stroke-miterlimit="10" stroke-width="1"/><path id="Line_7" data-name="Line 7" fill="none" stroke="#565987" stroke-miterlimit="10" stroke-width="1" d="M144.152 110.35h-8.246"/><path id="Line_8" data-name="Line 8" fill="none" stroke="#565987" stroke-miterlimit="10" stroke-width="1" d="M134.276 129.091l-12.924.553"/><path id="Line_9" data-name="Line 9" fill="none" stroke="#565987" stroke-miterlimit="10" stroke-width="1" d="M126.411 114.098l1.403 6.732"/><path id="Line_10" data-name="Line 10" fill="none" stroke="#565987" stroke-miterlimit="10" stroke-width="1" d="M112.668 134.588l.25 6.118"/><path id="Path_11598" data-name="Path 11598" d="M905.045 823.261s-33.655-68.465-42.9-66.966c-4.392.712-6.415 5.032-7.33 9.372a27.553 27.553 0 001.833 16.665c4.774 10.955 17.602 31.761 48.397 40.929z" transform="translate(-805.792 -666.934)" fill="#057535"/><path id="Path_11599" data-name="Path 11599" d="M56.602 102.354s35.326 51.224 42.15 53.473" fill="none" stroke="#565987" stroke-miterlimit="10" stroke-width="1"/><path id="Line_11" data-name="Line 11" fill="none" stroke="#565987" stroke-miterlimit="10" stroke-width="1" d="M53.354 110.35H61.6"/><path id="Line_12" data-name="Line 12" fill="none" stroke="#565987" stroke-miterlimit="10" stroke-width="1" d="M63.23 129.091l12.924.553"/><path id="Line_13" data-name="Line 13" fill="none" stroke="#565987" stroke-miterlimit="10" stroke-width="1" d="M71.095 114.098l-1.403 6.732"/><path id="Line_14" data-name="Line 14" fill="none" stroke="#565987" stroke-miterlimit="10" stroke-width="1" d="M84.838 134.588l-.25 6.118"/><path id="Path_11600" data-name="Path 11600" d="M962.832 839.25a5.832 5.832 0 001.916-2.891 2.57 2.57 0 00-1.339-2.945c-1.229-.47-2.543.382-3.539 1.243s-2.138 1.843-3.441 1.661a5.239 5.239 0 001.62-4.9 2.048 2.048 0 00-.45-1c-.682-.73-1.92-.416-2.737.159-2.6 1.828-3.324 5.358-3.338 8.535a16.142 16.142 0 01-.048-3.516 3.607 3.607 0 00-1.32-3.11 3.977 3.977 0 00-2.014-.473 4.166 4.166 0 00-3.267.929 3.248 3.248 0 00.128 4.011 12.659 12.659 0 003.381 2.708 7.5 7.5 0 012.416 2.3 2.284 2.284 0 01.179.412h7.321a20.408 20.408 0 004.529-3.127z" transform="translate(-805.792 -666.934)" fill="#057535"/><path id="Path_11601" data-name="Path 11601" d="M834.59 811.676a5.832 5.832 0 001.916-2.891 2.57 2.57 0 00-1.339-2.945c-1.229-.47-2.543.382-3.539 1.243s-2.138 1.843-3.441 1.661a5.239 5.239 0 001.62-4.9 2.048 2.048 0 00-.451-1c-.682-.73-1.92-.416-2.737.159-2.6 1.828-3.324 5.358-3.338 8.535a16.142 16.142 0 01-.048-3.516 3.607 3.607 0 00-1.32-3.11 3.978 3.978 0 00-2.014-.473 4.165 4.165 0 00-3.267.929 3.248 3.248 0 00.128 4.011 12.66 12.66 0 003.381 2.708 7.5 7.5 0 012.417 2.3 2.278 2.278 0 01.179.412h7.323a20.408 20.408 0 004.529-3.128z" transform="translate(-805.792 -666.934)" fill="#057535"/><path id="Path_11602" data-name="Path 11602" d="M877.33 839.25a5.833 5.833 0 001.916-2.891 2.57 2.57 0 00-1.339-2.945c-1.229-.47-2.543.382-3.539 1.243s-2.138 1.843-3.441 1.661a5.239 5.239 0 001.62-4.9 2.048 2.048 0 00-.451-1c-.682-.73-1.92-.416-2.737.158-2.6 1.828-3.324 5.358-3.338 8.535a16.142 16.142 0 01-.048-3.516 3.607 3.607 0 00-1.32-3.11 3.978 3.978 0 00-2.014-.473 4.165 4.165 0 00-3.267.928 3.248 3.248 0 00.128 4.011 12.658 12.658 0 003.381 2.708 7.5 7.5 0 012.417 2.3 2.284 2.284 0 01.179.412h7.323a20.408 20.408 0 004.529-3.128z" transform="translate(-805.792 -666.934)" fill="#057535"/><path id="Path_11603" data-name="Path 11603" d="M998.543 783.511s2.745 3.59-1.267 9.01-7.321 10-5.984 13.375c0 0 6.054-10.066 10.982-10.207s1.69-6.124-3.731-12.178z" transform="translate(-805.792 -666.934)" fill="#057535"/><path id="Path_11604" data-name="Path 11604" d="M998.543 783.511a4.447 4.447 0 01.561 1.126c4.808 5.649 7.369 10.92 2.748 11.052-4.3.123-9.469 7.821-10.706 9.765a4.169 4.169 0 00.146.443s6.054-10.066 10.982-10.207 1.69-6.125-3.731-12.179z" transform="translate(-805.792 -666.934)" opacity=".1"/><path id="Path_11605" data-name="Path 11605" d="M1003.647 788.087c0 1.264-.142 2.288-.317 2.288s-.317-1.024-.317-2.288.177-.669.352-.669.282-.595.282.669z" transform="translate(-805.792 -666.934)" fill="#ffd037"/><path id="Path_11606" data-name="Path 11606" d="M1005.4 789.6c-1.109.6-2.077.97-2.16.817s.748-.768 1.857-1.373.672-.165.756-.011.655-.042-.453.567z" transform="translate(-805.792 -666.934)" fill="#ffd037"/><path id="Path_11607" data-name="Path 11607" d="M984.042 783.511s-2.745 3.59 1.267 9.01 7.321 10 5.984 13.375c0 0-6.054-10.066-10.982-10.207s-1.689-6.124 3.731-12.178z" transform="translate(-805.792 -666.934)" fill="#057535"/><path id="Path_11608" data-name="Path 11608" d="M984.042 783.511a4.448 4.448 0 00-.561 1.126c-4.808 5.649-7.369 10.92-2.748 11.052 4.3.123 9.469 7.821 10.706 9.765a4.177 4.177 0 01-.146.443s-6.054-10.066-10.982-10.207-1.689-6.125 3.731-12.179z" transform="translate(-805.792 -666.934)" opacity=".1"/><path id="Path_11609" data-name="Path 11609" d="M978.939 788.087c0 1.264.142 2.288.317 2.288s.317-1.024.317-2.288-.177-.669-.352-.669-.282-.595-.282.669z" transform="translate(-805.792 -666.934)" fill="#ffd037"/><path id="Path_11610" data-name="Path 11610" d="M977.187 789.6c1.109.6 2.077.97 2.16.817s-.748-.768-1.857-1.373-.672-.165-.756-.011-.656-.042.453.567z" transform="translate(-805.792 -666.934)" fill="#ffd037"/><path id="Path_11611" data-name="Path 11611" d="M979.813 805.427s7.676-.236 9.989-1.884 11.807-3.614 12.381-.972 11.535 13.139 2.869 13.209-20.136-1.35-22.444-2.756-2.795-7.597-2.795-7.597z" transform="translate(-805.792 -666.934)" fill="#a8a8a8"/><path id="Path_11612" data-name="Path 11612" d="M1005.207 814.86c-8.666.07-20.136-1.35-22.444-2.756-1.758-1.071-2.459-4.914-2.693-6.687l-.256.01s.486 6.19 2.795 7.6 13.779 2.826 22.444 2.756c2.5-.02 3.366-.91 3.318-2.228-.348.793-1.302 1.29-3.164 1.305z" transform="translate(-805.792 -666.934)" opacity=".2"/></g><path id="Path_11593" data-name="Path 11593" d="M156.636 32.14s-7.131-7.254-15.809-3.252" fill="none" stroke="#565987" stroke-miterlimit="10" stroke-width="1"/></g></g></g></svg>