<svg xmlns="http://www.w3.org/2000/svg" width="614.953" height="638.407"><defs><clipPath id="clip-path"><path fill="none" d="M0 0h614.953v638.407H0z"/></clipPath></defs><g id="Repeat_Grid_9" data-name="Repeat Grid 9" clip-path="url(#clip-path)"><g id="Group_15940" data-name="Group 15940" transform="translate(-1126.445 -7463.059)"><g id="undraw_ideation_2a64" transform="translate(1126.445 7463.059)"><path id="Path_11203" data-name="Path 11203" d="M614.213 308.051l-12.393 55.74-10.06 45.219-8.018 36.065-10.054 45.219-32.853 147.731L133.74 449.913l-29.924-13.83-37.877-17.505L36 404.749l-36-16.64 20.411-29.7 16.974-24.689 21.472-31.241L75.825 277.8 266.771 0l202.278 179.347 36.021 31.936 28.722 25.466 36.025 31.936z" fill="#f2f2f2"/><path id="Path_11204" data-name="Path 11204" d="M579.78 484.662l21.029 36.423 21.028 36.423h-84.114l21.028-36.423z" transform="translate(-216.943 -106.408)" fill="#057535"/><path id="Rectangle_37" data-name="Rectangle 37" transform="translate(193.824 306.716)" fill="#057535" d="M0 0h88.191v88.191H0z"/><ellipse id="Ellipse_7" data-name="Ellipse 7" cx="57" cy="56" rx="57" ry="56" transform="translate(262.555 137.941)" fill="#057535"/><path id="Path_11205" data-name="Path 11205" d="M647.5 407.921a9.365 9.365 0 119.365 9.365 9.365 9.365 0 01-9.365-9.365zm1.561 0a7.8 7.8 0 107.8-7.8 7.8 7.8 0 00-7.8 7.8z" transform="translate(-289.413 -119.502)" fill="#3f3d56"/><path id="Path_11206" data-name="Path 11206" d="M540.307 611.257l-13.786-14.78 14.78-13.786 13.786 14.78zm-11.588-14.7l11.665 12.506 12.506-11.665-11.665-12.506z" transform="translate(-243.541 -159.929)" fill="#3f3d56"/><path id="Path_11207" data-name="Path 11207" d="M395.148 343.347l-11.22-12.029 12.029-11.22 11.22 12.029zm-9.432-11.967l9.494 10.179 10.178-9.494-9.494-10.179z" transform="translate(-187.569 -102.276)" fill="#3f3d56"/><path id="Rectangle_38" data-name="Rectangle 38" transform="translate(187.953 636.846)" fill="#3f3d56" d="M0 0h427v1.561H0z"/><path id="Path_11208" data-name="Path 11208" d="M578.295 327.09a78.045 78.045 0 1178.045-78.045 78.045 78.045 0 01-78.045 78.045zm0-154.529a76.484 76.484 0 1076.484 76.484 76.484 76.484 0 00-76.484-76.484z" transform="translate(-248.561 -69.542)" fill="#3f3d56"/><path id="Rectangle_39" data-name="Rectangle 39" transform="rotate(-64.336 362.005 -77.804)" fill="#3f3d56" d="M0 0h46.551v1.561H0z"/><path id="Rectangle_40" data-name="Rectangle 40" transform="rotate(-61.578 424.357 -64.515)" fill="#3f3d56" d="M0 0h1.561v100.977H0z"/><path id="Path_11209" data-name="Path 11209" d="M501.2 515.945H387.25V402H501.2zm-112.385-1.561h110.82V403.561H388.811z" transform="translate(-196.347 -120.258)" fill="#3f3d56"/><path id="Path_11210" data-name="Path 11210" d="M716.6 591.286H598.741l58.931-102.072zm-115.159-1.561H713.9l-56.227-97.389z" transform="translate(-284.029 -139.406)" fill="#3f3d56"/><g id="Group_92" data-name="Group 92" transform="translate(27.157 257.451)"><path id="Rectangle_41" data-name="Rectangle 41" transform="translate(64.095 111.928)" fill="#3f3d56" d="M0 0h1.463v261.641H0z"/><ellipse id="Ellipse_9" data-name="Ellipse 9" cx="28.531" cy="65.108" rx="28.531" ry="65.108" transform="translate(36.578 220.93)" fill="#3f3d56"/><ellipse id="Ellipse_10" data-name="Ellipse 10" cx="28.531" cy="65.108" rx="28.531" ry="65.108" transform="translate(36.578 72.424)" fill="#3f3d56"/><path id="Path_11218" data-name="Path 11218" d="M1080.946 468.4l-1.4-.42c.089-.3 8.69-29.772-5.434-48.747-7.977-10.717-21.665-16.151-40.685-16.151v-1.463c19.511 0 33.6 5.634 41.863 16.746 14.559 19.573 5.747 49.735 5.656 50.035z" transform="translate(-1015.137 -384.065)" fill="#3f3d56"/><circle id="Ellipse_11" data-name="Ellipse 11" cx="18.289" cy="18.289" r="18.289" fill="#f2f2f2"/></g></g></g></g></svg>