<svg xmlns="http://www.w3.org/2000/svg" width="502.709" height="358.808"><g id="Group_85" data-name="Group 85" transform="translate(-3276.239 688)"><g id="undraw_right_places_h9n3_1_" data-name="undraw_right_places_h9n3 (1)" transform="translate(3276.239 -688)"><path id="Rectangle_12" data-name="Rectangle 12" transform="translate(99.411 19.104)" fill="#f2f2f2" d="M0 0h36.934v67.5H0z"/><path id="Rectangle_30" data-name="Rectangle 30" transform="translate(99.411 241.183)" fill="#f2f2f2" d="M0 0h36.934v67.5H0z"/><path id="Rectangle_13" data-name="Rectangle 13" transform="translate(208.938 241.554)" fill="#f2f2f2" d="M0 0h49.669v67.5H0z"/><path id="Rectangle_14" data-name="Rectangle 14" transform="translate(160.118 137.546)" fill="#f2f2f2" d="M0 0h49.245v74.292H0z"/><path id="Rectangle_15" data-name="Rectangle 15" transform="translate(209.363 40.754)" fill="#f2f2f2" d="M0 0h49.245v74.292H0z"/><path id="Rectangle_16" data-name="Rectangle 16" transform="translate(0 357.75)" fill="#2f2e41" d="M0 0h455.014v1.058H0z"/><path id="Path_11185" data-name="Path 11185" d="M519.687 400.453H299.263V109.558h220.424zm-219.479-.944h218.534V110.5H300.207z" transform="translate(-200.324 -90.926)" fill="#3f3d56"/><path id="Path_11186" data-name="Path 11186" d="M525.6 400.927H398.147v-290.47H525.6zm-126.508-.945h125.564V111.4H399.091z" transform="translate(-252.511 -91.401)" fill="#3f3d56"/><path id="Path_11187" data-name="Path 11187" d="M519.687 410.456H299.263V312.72h220.424zm-219.479-.944h218.534v-95.848H300.207z" transform="translate(-200.324 -198.146)" fill="#3f3d56"/><circle id="Ellipse_2" data-name="Ellipse 2" cx="14.009" cy="14.009" r="14.009" transform="translate(132.1 101.037)" fill="#057535"/><circle id="Ellipse_3" data-name="Ellipse 3" cx="14.009" cy="14.009" r="14.009" transform="translate(258.608 6.792)" fill="#057535"/><path id="Rectangle_17" data-name="Rectangle 17" transform="translate(208.678 19.528)" fill="#3f3d56" d="M0 0h.944v289.526H0z"/><path id="Path_11188" data-name="Path 11188" d="M846.438 700.564a106 106 0 014.641 41.741 100.7 100.7 0 01-25.9-77.959 105.994 105.994 0 0121.259 36.218z" transform="translate(-477.651 -383.718)" fill="#057535"/><path id="Path_11189" data-name="Path 11189" d="M884.669 700.564a106 106 0 00-4.641 41.741 100.7 100.7 0 0025.9-77.959 106 106 0 00-21.259 36.218z" transform="translate(-506.599 -383.718)" fill="#057535"/><path id="Path_11190" data-name="Path 11190" d="M876.841 695.846a106 106 0 01-7.888 41.251 100.7 100.7 0 01-1.736-82.132 106 106 0 019.624 40.881z" transform="translate(-495.891 -378.767)" fill="#3f3d56"/><circle id="Ellipse_5" data-name="Ellipse 5" cx="42.877" cy="42.877" r="42.877" transform="translate(166.486 168.961)" fill="#057535"/><circle id="Ellipse_6" data-name="Ellipse 6" cx="31.048" cy="31.048" r="31.048" transform="translate(63.459 260.54)" fill="#057535"/><path id="Path_11202" data-name="Path 11202" d="M715.591 198.782l-.347-.879-81.784 32.248-78.21-89.451 97.088-38.281-.347-.879-97.4 38.4-24.155-27.628 3.983-1.551a28.52 28.52 0 01-8.695-3.122 28.546 28.546 0 011.932 9.034l2.069-3.74 23.933 27.374-148.526 58.565-.122-4.272a28.518 28.518 0 01-5.863 7.139 28.545 28.545 0 019.158 1.218l-2.827-3.206 148.839-58.686 78.21 89.455-164.141 64.72-.122-4.272a28.52 28.52 0 01-5.863 7.139 28.544 28.544 0 019.158 1.218l-2.827-3.206 164.455-64.844 71.195 81.43.711-.622-70.973-81.177z" transform="translate(-253.039 -86.693)" fill="#3f3d56"/><path id="Rectangle_18" data-name="Rectangle 18" transform="translate(422.049 96.367)" fill="#3f3d56" d="M0 0h80.66v30.99H0z"/><path id="Rectangle_19" data-name="Rectangle 19" transform="translate(436.271 104.645)" fill="#f2f2f2" d="M0 0h52.217v2.547H0z"/><path id="Rectangle_20" data-name="Rectangle 20" transform="translate(436.271 110.589)" fill="#f2f2f2" d="M0 0h52.217v2.547H0z"/><path id="Rectangle_21" data-name="Rectangle 21" transform="translate(436.271 116.532)" fill="#f2f2f2" d="M0 0h52.217v2.547H0z"/><path id="Rectangle_22" data-name="Rectangle 22" transform="translate(358.795)" fill="#3f3d56" d="M0 0h80.66v30.99H0z"/><path id="Rectangle_23" data-name="Rectangle 23" transform="translate(373.017 8.278)" fill="#f2f2f2" d="M0 0h52.217v2.547H0z"/><path id="Rectangle_24" data-name="Rectangle 24" transform="translate(373.017 14.222)" fill="#f2f2f2" d="M0 0h52.217v2.547H0z"/><path id="Rectangle_25" data-name="Rectangle 25" transform="translate(373.017 20.165)" fill="#f2f2f2" d="M0 0h52.217v2.547H0z"/><path id="Rectangle_26" data-name="Rectangle 26" transform="translate(411.437 210.14)" fill="#3f3d56" d="M0 0h80.66v30.99H0z"/><path id="Rectangle_27" data-name="Rectangle 27" transform="translate(425.658 218.418)" fill="#f2f2f2" d="M0 0h52.217v2.547H0z"/><path id="Rectangle_28" data-name="Rectangle 28" transform="translate(425.658 224.361)" fill="#f2f2f2" d="M0 0h52.217v2.547H0z"/><path id="Rectangle_29" data-name="Rectangle 29" transform="translate(425.658 230.304)" fill="#f2f2f2" d="M0 0h52.217v2.547H0z"/></g><path id="Path_11202-2" data-name="Path 11202" d="M314.836 0L5.984 121.177l-.122-4.272A28.52 28.52 0 010 124.044a28.544 28.544 0 019.158 1.218l-2.827-3.206S314.836 2.563 314.836 0z" transform="rotate(10.02 4633.01 19053.175)" fill="#3f3d56"/></g></svg>