<svg xmlns="http://www.w3.org/2000/svg" width="56" height="56"><path fill="#fbb03b" d="M3.302 38c0-9.941 8.058-18 18-18 9.94 0 18 8.059 18 18s-8.06 18-18 18c-9.942 0-18-8.059-18-18z"/><path d="M27.65 54.157c-14.23 0-25.807-11.578-25.807-25.808S13.421 2.542 27.651 2.542s25.807 11.577 25.807 25.807c0 14.23-11.577 25.808-25.807 25.808zm0-53.459C12.405.698 0 13.103 0 28.35 0 43.596 12.404 56 27.65 56c15.247 0 27.652-12.404 27.652-27.65C55.302 13.102 42.897.697 27.65.697z"/><path d="M27.65 49.548c-11.688 0-21.198-9.509-21.198-21.199 0-11.69 9.51-21.199 21.199-21.199 11.689 0 21.199 9.51 21.199 21.2 0 11.689-9.51 21.198-21.2 21.198zm0-44.241c-12.705 0-23.042 10.337-23.042 23.042 0 12.706 10.337 23.043 23.043 23.043 12.705 0 23.042-10.337 23.042-23.043 0-12.705-10.337-23.042-23.042-23.042z"/><path d="M27.65 8.994a.921.921 0 00-.92.921v2.765a.921.921 0 101.842 0V9.915a.921.921 0 00-.921-.921zm0 34.102a.921.921 0 00-.92.922v2.765a.921.921 0 101.842 0v-2.765a.921.921 0 00-.921-.922zm18.435-15.668H43.32a.921.921 0 100 1.843h2.765a.921.921 0 100-1.843zm-34.103 0H9.217a.921.921 0 100 1.843h2.765a.921.921 0 100-1.843zm15.668 2.765a1.845 1.845 0 01-1.843-1.844c0-1.016.827-1.843 1.844-1.843 1.016 0 1.843.827 1.843 1.843a1.845 1.845 0 01-1.843 1.844zm0-5.53a3.69 3.69 0 00-3.686 3.686 3.69 3.69 0 003.687 3.687 3.69 3.69 0 003.687-3.687 3.69 3.69 0 00-3.687-3.686z"/><path d="M27.65 16.367a.921.921 0 00-.92.922v8.295a.921.921 0 101.842 0V17.29a.921.921 0 00-.921-.922zm7.374 11.061h-4.608a.921.921 0 100 1.843h4.608a.921.921 0 100-1.843zm-17.801-10.81l-1.824-1.824a.92.92 0 10-1.304 1.303l1.824 1.824a.92.92 0 001.304 0 .92.92 0 000-1.303zm23.983 23.983l-1.824-1.824a.92.92 0 10-1.303 1.304l1.824 1.824a.92.92 0 001.303 0 .92.92 0 000-1.304zm0-25.807a.92.92 0 00-1.303 0l-1.824 1.824a.92.92 0 101.303 1.303l1.824-1.824a.92.92 0 000-1.303zM17.223 38.777a.92.92 0 00-1.303 0l-1.825 1.824a.92.92 0 101.304 1.304l1.824-1.824a.92.92 0 000-1.304z"/></svg>