<svg xmlns="http://www.w3.org/2000/svg" width="58" height="58"><path fill="#fbb03b" d="M3 37c0-2.5 2.5-5 5-5h41c2.5 0 5 2.5 5 5v8c0 2.5-2.5 5-5 5H8c-2.5 0-5-2.5-5-5z"/><path d="M31.625 4.333h-5.75a4.797 4.797 0 00-4.792 4.792.959.959 0 001.917 0 2.879 2.879 0 012.875-2.875h5.75A2.879 2.879 0 0134.5 9.125a.959.959 0 001.917 0 4.797 4.797 0 00-4.792-4.792z"/><path d="M18.208 10.083c.53 0 .959-.429.959-.958 0-3.448 3.26-6.708 6.708-6.708h5.75c3.511 0 6.708 3.197 6.708 6.708a.959.959 0 001.917 0C40.25 4.531 36.22.5 31.625.5h-5.75c-4.514 0-8.625 4.111-8.625 8.625 0 .529.43.958.958.958zm38.334 31.625a.959.959 0 00-.959.959v10.541a2.879 2.879 0 01-2.875 2.875H4.792a2.879 2.879 0 01-2.875-2.875V42.667a.959.959 0 00-1.917 0v10.541A4.797 4.797 0 004.792 58h47.916a4.797 4.797 0 004.792-4.792V42.667a.959.959 0 00-.958-.959zm-.959-5.75a2.879 2.879 0 01-2.875 2.875H32.583v-7.666c0-1.057-.86-1.917-1.916-1.917h-3.834c-1.057 0-1.916.86-1.916 1.917v7.666H4.792a2.879 2.879 0 01-2.875-2.875V16.792a2.879 2.879 0 012.875-2.875h4.791v22.041a.959.959 0 001.917 0V13.917H46v22.041a.959.959 0 001.916 0V13.917h4.792a2.879 2.879 0 012.875 2.875v19.166zM4.792 12A4.797 4.797 0 000 16.792v19.166a4.797 4.797 0 004.792 4.792h21.083c.529 0 .958-.43.958-.958v-8.625h3.834v8.625c0 .529.429.958.958.958h21.083a4.797 4.797 0 004.792-4.792V16.792A4.797 4.797 0 0052.708 12z"/><path d="M29.737 44.583a.958.958 0 00-.958-.958h-.01a.955.955 0 00-.953.958c0 .53.434.959.963.959.53 0 .958-.43.958-.959z"/><path d="M25.875 42.667a.959.959 0 00-.958.958V46.5c0 1.057.86 1.917 1.916 1.917h3.834c1.057 0 1.916-.86 1.916-1.917v-2.875a.959.959 0 00-1.916 0V46.5h-3.833v-2.875a.959.959 0 00-.959-.958z"/></svg>