<svg xmlns="http://www.w3.org/2000/svg" width="61" height="62"><defs><linearGradient id="a" x2="61.11" y1="27.94" y2="27.94" gradientUnits="userSpaceOnUse"><stop offset="0" stop-color="#e05707"/><stop offset="1" stop-color="#d89f00"/></linearGradient><linearGradient id="b" x1=".04" x2="61.02" y1="58.91" y2="58.91" gradientUnits="userSpaceOnUse"><stop offset="0" stop-color="#e05707"/><stop offset="1" stop-color="#d89f00"/></linearGradient><linearGradient id="c" x1="5.82" x2="8.02" y1="15.69" y2="15.69" gradientUnits="userSpaceOnUse"><stop offset="0" stop-color="#e05707"/><stop offset="1" stop-color="#d89f00"/></linearGradient><linearGradient id="d" x1="9.77" x2="11.97" y1="15.66" y2="15.66" gradientUnits="userSpaceOnUse"><stop offset="0" stop-color="#e05707"/><stop offset="1" stop-color="#d89f00"/></linearGradient><linearGradient id="e" x1="13.73" x2="15.93" y1="15.66" y2="15.66" gradientUnits="userSpaceOnUse"><stop offset="0" stop-color="#e05707"/><stop offset="1" stop-color="#d89f00"/></linearGradient></defs><path fill="url(#a)" d="M27.46 22.536c0 1.015.012 2.03-.005 3.044-.01.615-.106.72-.713.724-2.08.013-4.16.013-6.24 0-.622-.002-.715-.097-.718-.711-.01-2.08-.01-4.16.002-6.24.003-.63.086-.714.703-.718 2.08-.01 4.16-.01 6.24 0 .64.004.718.095.726.781.012 1.04.003 2.08.003 3.12zm-16.59 3.775c-1.93.001-3.86.004-5.79 0-.972-.002-1.013-.04-1.014-.966-.001-3.86 0-7.721.006-11.581.001-.903.055-.962.943-.963 3.911-.004 7.822-.004 11.734 0 .864.001.926.063.927.898.006 3.911.008 7.823.005 11.734 0 .807-.066.873-.868.876-1.981.008-3.962.002-5.943.002zm48-2.591c-.186 1.214-.51 2.243-1.121 3.16-1.297 1.944-2.638 3.859-3.93 5.805a101.635 101.635 0 00-2.433 3.86c-.225.374-.513.444-.884.445-1.423.003-2.846.007-4.269.016-5.867.038-11.734.091-17.601.114-6.835.027-13.67.027-20.504.041-1.235.003-1.29.067-1.25 1.298.026.761.117.867.91.87 2.186.007 4.37.003 6.556-.01 5.816-.035 11.632-.09 17.449-.113 6.123-.023 12.246-.006 18.37-.039.755-.004 1.225.17 1.497.935.27.76.873 1.3 1.543 1.74.488.32 1.006.598 1.484.932 2.264 1.58 2.983 4.746 1.725 6.894-.353-.802-1.04-.63-1.675-.642-.464-.008-.694.199-.747.666-.104.926-.557 1.674-1.244 2.29-1.885 1.687-5.687 1.075-6.307-2.198-.134-.702-.182-.736-.893-.758a7.932 7.932 0 00-.457 0c-.719.023-.764.045-.931.736-.176.726-.424 1.404-.972 1.948-1.117 1.11-2.467 1.415-3.934 1.016-1.407-.383-2.27-1.372-2.641-2.794-.078-.297-.224-.768-.414-.808-.503-.106-1.053-.065-1.569.017-.133.022-.254.404-.298.637-.143.748-.486 1.365-1.004 1.927-1.097 1.19-2.47 1.42-3.913 1.013-1.445-.41-2.355-1.441-2.642-2.961-.124-.658-.183-.703-.839-.73-.127-.005-.254-.003-.38-.002-.85.01-.858.01-1.061.85-.36 1.489-1.26 2.509-2.74 2.876-1.508.375-2.87.01-3.96-1.167-.487-.525-.69-1.17-.858-1.842-.163-.656-.212-.687-.87-.714a6.795 6.795 0 00-.457-.002c-.771.015-.805.043-.953.777-.388 1.912-1.822 3.07-3.795 3.063-1.953-.007-3.366-1.18-3.75-3.114-.128-.65-.182-.698-.842-.724a7.151 7.151 0 00-.457-.002c-.76.017-.79.03-.964.777-.297 1.273-1.028 2.19-2.213 2.737-.108.05-.238.048-.455.087-.037-.278-.096-.515-.096-.753-.003-3.887 0-7.775.007-11.662.002-.797.076-.86.877-.875.508-.01 1.016-.007 1.524-.016.402-.007.603-.221.614-.62a3.96 3.96 0 01.007-.152c.078-1.288-.013-1.385-1.315-1.39-.356 0-.711-.007-1.067-.005-.445.002-.643-.218-.639-.66.008-.762 0-1.524 0-2.287 0-1.575-.002-3.15.004-4.725.003-.916.044-.961.936-.964 1.728-.007 3.456-.003 5.183-.003 10.722 0 21.444-.01 32.166.017.985.003 1.73-.228 2.409-.978 1.072-1.186 2.257-2.27 3.376-3.414.345-.353.72-.507 1.213-.506 3.533.011 7.064.004 10.596.009.246 0 .493.04.898.077zm-29.325-7.11zm0 0c-.41-.028-.734-.068-1.058-.07-2.413-.004-4.826-.002-7.24-.002-.279 0-.559-.009-.838-.003-.398.008-.627-.149-.624-.577.006-.864.003-1.727.004-2.591 0-.38.204-.55.57-.56.28-.006.559-.014.838-.032.364-.023.584-.224.543-.59-.057-.517.285-1.136-.338-1.52-.098-.061-.247-.05-.373-.055-.228-.01-.457-.008-.686-.008-1.803 0-3.607.003-5.41-.002-.93-.003-.974-.052-.981-1.008-.005-.66.008-1.321-.006-1.981-.016-.814-.133-.925-.926-.952a5.842 5.842 0 00-.382 0c-.788.025-.884.111-.895.88-.012.787-.001 1.575-.007 2.362-.002.28 0 .56-.357.67-.899.278-1.37-.04-1.371-.957-.003-2.516 0-5.03 0-7.546 0-.254.035-.524-.04-.756-.057-.18-.252-.432-.404-.446-.54-.048-1.089-.007-1.7 0-.03.464-.074.812-.075 1.16-.005 2.54.001 5.08-.002 7.62-.001.9-.053.951-.949.953-1.905.006-3.81-.002-5.715.008-.344.002-.685.064-1.07.102v1.964c.364.046.68.107 1 .121.871.041.92.071.921.912.006 3.887.006 7.774.005 11.66 0 .903-.025.92-.955.947-.98.029-1.014.064-1.023 1.056L0 27.674l.018 25.988c0 .203-.005.407.006.61.036.632.138.745.785.757 1.649.031 3.087-.512 4.31-1.622l.873-.795c1.245 1.473 2.832 2.385 4.838 2.414 2.016.028 3.582-.94 4.982-2.46 1.325 1.547 2.915 2.471 4.92 2.457 2.004-.014 3.605-.894 4.871-2.515 1.312 1.589 2.9 2.5 4.908 2.517 2.039.016 3.635-.934 4.989-2.511.179.213.3.373.438.518 2.502 2.615 6.17 2.675 8.745.15.192-.189.402-.358.649-.574 1.368 1.508 2.946 2.453 4.963 2.417 1.997-.036 3.581-.949 4.858-2.49.264.284.461.512.675.724 1.218 1.205 2.695 1.78 4.4 1.771.719-.004.818-.122.845-.854.003-.102.002-.203.002-.304-.008-.885-.082-.964-.94-1.003-.253-.012-.512.003-.76-.045-.65-.123-1.278-.304-1.712-.93.117-.207.222-.405.338-.597 1.17-1.935 1.415-4.003.808-6.16-.62-2.2-2.027-3.773-4.047-4.811-1.1-.566-1.618-1.466-1.44-2.679.07-.478.31-.968.586-1.374a623.863 623.863 0 014.98-7.21c1.05-1.5 1.804-3.122 2.1-4.934.138-.844.194-1.7-.004-2.598-.32-.036-.591-.094-.863-.095-4.496-.006-8.993.002-13.49-.01-.547-.002-.965.161-1.35.556-1.222 1.256-2.486 2.472-3.704 3.733-.423.439-.879.61-1.481.606-3.124-.02-6.249-.009-9.374-.01-.178 0-.355-.006-.533-.013-.337-.015-.508-.2-.524-.53a13.949 13.949 0 01-.016-.685c0-2.464.005-4.928-.003-7.392-.001-.345-.062-.688-.101-1.08z"/><path fill="url(#b)" d="M20.69 59.487c-1.361 1.543-2.933 2.441-4.966 2.419-1.997-.022-3.519-.96-4.835-2.452l-.819.778C7.11 63.05 2.324 62.187.578 58.495c-.276-.585-.39-1.254-.521-1.896-.085-.415.132-.682.59-.691.177-.003.355-.012.533-.01.768.016.844.064 1.01.839.316 1.474 1.182 2.466 2.615 2.897 2.22.67 4.34-.588 4.92-2.862.078-.306.015-.76.433-.803.518-.054 1.055-.01 1.57.075.116.019.207.375.252.59.356 1.707 1.642 2.926 3.371 3.173 1.882.27 3.818-1.125 4.188-2.987.06-.298.212-.775.394-.812.503-.104 1.052-.065 1.566.022.139.023.219.414.322.638.262.57.424 1.216.8 1.697 1.024 1.308 2.428 1.726 4.018 1.308 1.482-.39 2.338-1.448 2.749-2.894.086-.302.006-.76.425-.809.518-.06 1.057-.022 1.575.056.12.018.188.373.28.572.276.593.455 1.26.845 1.765.995 1.287 2.356 1.72 3.936 1.317 1.518-.388 2.432-1.39 2.804-2.905.075-.308.046-.759.449-.802.516-.056 1.054-.009 1.568.078.119.02.222.372.263.585.39 2.038 1.948 3.171 3.798 3.199 1.781.026 3.413-1.366 3.773-3.172.138-.693.192-.74.89-.763.204-.007.408.005.61.003.419-.004.654.177.72.612.116.743.414 1.402.93 1.968 1.077 1.184 2.39 1.603 3.926 1.18 1.475-.404 2.373-1.388 2.724-2.888.069-.292.253-.74.453-.782.476-.1 1.006-.053 1.484.06.118.028.205.542.17.815-.185 1.42-.86 2.596-1.93 3.532-2.391 2.097-5.793 2.006-8.088-.196l-.756-.727c-.204.178-.384.306-.529.467a5.933 5.933 0 01-8.578.275c-.231-.226-.466-.448-.756-.727-1.353 1.446-2.864 2.424-4.873 2.414-1.995-.012-3.558-.873-4.903-2.39-.16.131-.32.234-.446.369-2.495 2.66-6.3 2.723-8.876.145-.16-.158-.329-.306-.586-.543z"/><path fill="url(#c)" d="M6.077 14.563c.448 0 .873.002 1.299 0 .395-.002.616.18.632.587l.01.227c.062 1.304-.392 1.678-1.677 1.336-.18-.049-.422-.256-.449-.42-.088-.539-.17-1.1.185-1.73z"/><path fill="url(#d)" d="M10.86 14.555c1.023-.001 1.1.072 1.106 1.047.005 1.04-.104 1.154-1.099 1.158-.995.004-1.09-.088-1.093-1.066-.004-1.072.058-1.137 1.086-1.139z"/><path fill="url(#e)" d="M13.725 15.63c.003-1.033.053-1.08 1.153-1.075.972.005 1.056.094 1.052 1.112-.005.993-.122 1.101-1.173 1.093-.963-.008-1.035-.086-1.032-1.13z"/></svg>