<svg xmlns="http://www.w3.org/2000/svg" width="61" height="62"><defs><linearGradient id="a" x1="12.04" x2="50.37" y1="26.09" y2="34.61" gradientUnits="userSpaceOnUse"><stop offset="0" stop-color="#e05707"/><stop offset="1" stop-color="#d89f00"/></linearGradient><linearGradient id="b" x1="23.97" x2="25.34" y1="25.12" y2="25.42" gradientUnits="userSpaceOnUse"><stop offset="0" stop-color="#e05707"/><stop offset="1" stop-color="#d89f00"/></linearGradient><linearGradient id="c" x1="23.97" x2="25.32" y1="56.66" y2="56.96" gradientUnits="userSpaceOnUse"><stop offset="0" stop-color="#e05707"/><stop offset="1" stop-color="#d89f00"/></linearGradient><linearGradient id="d" x1="39.79" x2="41.16" y1="25.09" y2="25.39" gradientUnits="userSpaceOnUse"><stop offset="0" stop-color="#e05707"/><stop offset="1" stop-color="#d89f00"/></linearGradient><linearGradient id="e" x1="39.82" x2="41.16" y1="56.65" y2="56.94" gradientUnits="userSpaceOnUse"><stop offset="0" stop-color="#e05707"/><stop offset="1" stop-color="#d89f00"/></linearGradient><linearGradient id="f" x1="30.11" x2="35.13" y1="40.05" y2="41.73" gradientUnits="userSpaceOnUse"><stop offset="0" stop-color="#e05707"/><stop offset="1" stop-color="#d89f00"/></linearGradient></defs><path fill="url(#a)" d="M23.603 17.938c.171-.397.51-.365.835-.365 2.053-.004 4.106-.002 6.16-.003l.076.001c.668.026.756.1.78.74.017.43.016.863.001 1.293-.022.652-.108.744-.764.752-1.115.013-2.23.004-3.346.005-1.344 0-2.687.002-4.03-.002-.247 0-.494-.023-.78-.037.39-.868.74-1.621 1.068-2.384zM17.72 9.625c.204.187.333.273.419.39.908 1.255 1.823 2.505 2.711 3.775.834 1.192.893 2.537.534 3.874-.493 1.836-2.198 2.802-4.3 2.553-1.69-.2-3.018-1.726-3.12-3.512-.067-1.192.19-2.24.942-3.202.812-1.039 1.53-2.152 2.293-3.23.143-.201.31-.386.521-.648zm7.97 31.4c.063-3.686 3.201-6.8 6.95-6.712 3.755.087 6.752 3.112 6.727 6.856-.026 3.726-3.322 6.929-6.952 6.683-3.439.21-6.787-3.134-6.725-6.826zm-6.073-18.753c.026.27.062.467.063.663.004 2.462.008 4.924.003 7.387-.001.808-.058.865-.87.866-4.62.004-9.239.004-13.858 0-.811-.001-.874-.062-.874-.866-.003-3.96-.001-7.92.005-11.879 0-.81.06-.868.867-.87 2.056-.007 4.112-.007 6.168 0 .713.002.741.036.967.709.964 2.882 3.771 4.57 6.754 4.067.241-.041.488-.05.775-.077zm-7.736 23.715c-2.286 0-4.571.003-6.857-.002-.898-.002-.952-.053-.952-.948-.002-3.606 0-7.212.006-10.818.001-.9.046-.942.952-.942 4.572-.004 9.142-.004 13.713 0 .903 0 .942.04.943.948.005 3.606.007 7.212.005 10.818 0 .896-.046.94-.954.942-2.286.004-4.571.002-6.856.002zm5.883-40.11c-.237.28-.394.44-.522.622-1.411 1.987-2.82 3.976-4.224 5.969-.517.732-.941 1.515-1.085 2.41-.072.442-.293.603-.716.602-2.158-.006-4.317.005-6.475-.007-.558-.004-.65-.103-.651-.695-.007-3.758-.006-7.516.003-11.274.002-.621.088-.684.717-.708.177-.007.355-.003.533-.003h24.835c1.275 0 1.277.001 1.277 1.313l.003 10.132c0 .203-.008.407-.005.61.006.449-.22.633-.66.632-2.158-.007-4.317-.006-6.475 0-.398 0-.63-.188-.694-.562-.212-1.246-.904-2.242-1.626-3.233-1.226-1.683-2.428-3.383-3.644-5.073-.159-.22-.34-.425-.59-.736zm25.51 22.535c-1.717-.45-3.212-.266-4.454.887-1.206 1.12-1.632 2.534-1.329 4.312-2.989-1.618-5.953-1.998-8.961-.491-1.752.877-3.102 2.223-4.004 3.957-1.782 3.428-1.046 7.72 1.747 10.385 3.102 2.96 7.256 3.226 10.433 1.51 2.109-1.138 3.624-2.867 4.354-5.182.716-2.273.451-4.51-.432-6.747.89.465 1.738.947 2.47 1.587.182.159.209.557.214.846.021 1.398.011 2.795.012 4.192.004 4.879.008 9.758.01 14.636.001.255-.009.508-.003.762.01.445-.2.659-.646.648-.203-.005-.406.005-.61.005H23.02c-.178 0-.357.004-.534-.004-.614-.032-.7-.115-.734-.716-.011-.202-.005-.406-.005-.61l.02-34.683c.002-1.258.003-1.26 1.25-1.26H42.15c1.163.001 1.164.003 1.165 1.189.001 1.27.003 2.54 0 3.811-.001.274-.022.548-.04.966zm-43.18 4.81zm0 0c.523.023.925.049 1.327.056.37.007.572.167.574.55.002.228.007.457.007.686l.006 9.984c0 1.367.001 1.38-1.327 1.49-.44.036-.619.22-.653.657-.1 1.27.007 1.4 1.291 1.4 5.69.002 11.381 0 17.072.002.254 0 .508.004.761.01.333.01.521.174.532.516.006.228.012.457.012.686l.01 11.127c0 .254.007.508.01.761.008.406.218.603.618.608.254.003.509.01.763.01h13.032c3.43 0 6.86.004 10.289-.003.876-.001.956-.086.963-.963.01-1.397.004-2.795.006-4.192.001-.635-.01-1.27.009-1.905.018-.604.114-.688.728-.72.228-.012.458-.005.686-.005 2.312-.001 4.624-.011 6.935.006.573.004 1.022-.16 1.419-.585.64-.686 1.331-1.326 1.985-2.001.305-.314.648-.461 1.085-.449.558.016 1.118.004 1.677.001 1.168-.005 1.238-.08 1.181-1.274-.031-.662-.111-.769-.75-.78-1.042-.019-2.086-.037-3.124.015-.32.016-.684.196-.93.414a19.822 19.822 0 00-1.721 1.724c-.492.558-1.048.787-1.8.77-2.058-.042-4.116-.012-6.174-.014-1.198-.002-1.2-.003-1.2-1.17 0-4.065-.006-8.13.017-12.195.003-.627-.195-1.039-.732-1.375-1.27-.795-2.511-1.637-3.76-2.466a4.912 4.912 0 01-.72-.558c-.647-.631-.82-1.714-.429-2.543.38-.809 1.159-1.232 2.137-1.12.323.036.645.136.954.247 2.987 1.075 5.97 2.163 8.957 3.236.454.163.786.429 1.03.846.748 1.27 1.531 2.519 2.265 3.796.288.502.66.712 1.233.7 1.168-.025 2.337-.004 3.506-.006 1.242-.003 1.284-.048 1.25-1.29-.02-.766-.104-.861-.9-.875a69.915 69.915 0 00-2.742-.002c-.516.012-.855-.186-1.115-.632-.614-1.053-1.297-2.068-1.88-3.137-.369-.674-.888-1.046-1.594-1.295-2.204-.777-4.391-1.6-6.585-2.405-.857-.314-.878-.338-.879-1.265-.002-2.286.004-4.572-.003-6.86-.001-.318-.055-.636-.09-1.009-.422-.024-.77-.062-1.12-.062-3.124-.005-6.25-.003-9.373-.004-.204 0-.407-.005-.61-.005-.38 0-.554-.2-.556-.57-.001-.355-.006-.71-.007-1.067-.002-1.042-.042-1.19 1.136-1.152.1.004.203-.008.304-.014.295-.015.5-.162.508-.459.015-.494-.012-.99-.023-1.553-.52-.025-.919-.058-1.318-.06-.416-.003-.606-.2-.6-.607.003-.178-.005-.356-.005-.534l.004-10.44c0-.179.007-.356.007-.534 0-.371.174-.566.555-.568.305-.001.621.034.91-.037.18-.044.428-.237.453-.395.082-.516.153-1.055-.1-1.545C34.724.62.79.64.088.85v1.946c.475 0 .874.01 1.272-.003.458-.015.643.203.631.648-.012.457 0 .914 0 1.371 0 3.278.005 6.555 0 9.832 0 .773-.056.81-.822.838-.345.013-.689.05-1.08.079v1.913c.364.036.659.083.955.092.931.03.949.034.95.946.005 3.125.004 6.25.005 9.374 0 .864.01 1.728-.005 2.592-.01.617-.09.678-.718.711-.372.019-.742.044-1.182.07z"/><path fill="url(#b)" d="M25.715 25.29c.001 1.034-.074 1.108-1.124 1.105-.956-.004-1.049-.094-1.055-1.026-.007-1.032.106-1.15 1.098-1.153.989-.004 1.08.087 1.081 1.074z"/><path fill="url(#c)" d="M24.676 55.761c.936.007 1.025.1 1.023 1.064-.002.974-.128 1.1-1.09 1.099-.94-.002-1.066-.135-1.063-1.127.004-.953.102-1.044 1.13-1.036z"/><path fill="url(#d)" d="M41.54 25.37c-.12.31-.184.84-.37.887-.49.125-1.034.06-1.552.016-.091-.007-.2-.268-.231-.426-.043-.22-.028-.452-.025-.68.01-.849.104-.938.973-.95 1.03-.016 1.11.065 1.206 1.153z"/><path fill="url(#e)" d="M41.543 56.794c-.14.387-.19.915-.384.975-.456.141-.982.077-1.477.051-.095-.004-.247-.208-.257-.328-.03-.427-.037-.86.003-1.285.013-.138.19-.358.31-.37.447-.041.946-.125 1.338.03.236.092.313.595.467.927z"/><path fill="url(#f)" d="M29.73 42.946c.413-.032.883.006 1.102.574.018.044.06.082.095.117.48.482 2.624.533 3.122.076.466-.428.358-1.21-.225-1.446-.25-.102-.541-.132-.816-.145-.482-.024-.965-.003-1.447-.013-1.516-.028-2.731-1.026-2.978-2.437-.257-1.474.542-2.876 1.972-3.383.472-.168.912-.286 1.002-.89.02-.128.286-.288.457-.313.347-.052.717-.072 1.058-.004.202.04.489.249.523.423.09.464.384.598.767.728 1.026.345 1.75 1.011 2.05 2.077.183.654.048.854-.617.876-.62.02-1.276.146-1.66-.597-.088-.17-.43-.277-.661-.291a15.75 15.75 0 00-1.903-.002c-.559.034-.854.332-.873.774-.02.452.31.87.832.931.502.06 1.014.027 1.52.048.38.016.768.01 1.136.092a2.99 2.99 0 012.335 2.683 3.007 3.007 0 01-1.96 3.045c-.454.169-.937.243-1.012.871-.015.127-.284.289-.456.318-.32.055-.656.035-.986.027-.305-.008-.558-.13-.606-.464-.064-.438-.38-.546-.734-.656-.893-.276-1.56-.826-1.957-1.687-.475-1.027-.285-1.335.92-1.332z"/></svg>