<svg xmlns="http://www.w3.org/2000/svg" width="61" height="61"><defs><linearGradient id="a" x2="61.09" y1="44.28" y2="44.28" gradientUnits="userSpaceOnUse"><stop offset="0" stop-color="#e05707"/><stop offset="1" stop-color="#d89f00"/></linearGradient><linearGradient id="b" x1="8.84" x2="52.25" y1="13.39" y2="13.39" gradientUnits="userSpaceOnUse"><stop offset="0" stop-color="#e05707"/><stop offset="1" stop-color="#d89f00"/></linearGradient><linearGradient id="c" x1="21.53" x2="34.54" y1="45.34" y2="45.34" gradientUnits="userSpaceOnUse"><stop offset="0" stop-color="#e05707"/><stop offset="1" stop-color="#d89f00"/></linearGradient><linearGradient id="d" x1="36.32" x2="38.5" y1="45.33" y2="45.33" gradientUnits="userSpaceOnUse"><stop offset="0" stop-color="#e05707"/><stop offset="1" stop-color="#d89f00"/></linearGradient><linearGradient id="e" x1="3.85" x2="6.04" y1="36.49" y2="36.49" gradientUnits="userSpaceOnUse"><stop offset="0" stop-color="#e05707"/><stop offset="1" stop-color="#d89f00"/></linearGradient><linearGradient id="f" x1="3.85" x2="6.03" y1="56.16" y2="56.16" gradientUnits="userSpaceOnUse"><stop offset="0" stop-color="#e05707"/><stop offset="1" stop-color="#d89f00"/></linearGradient><linearGradient id="g" x1="3.85" x2="6.02" y1="46.32" y2="46.32" gradientUnits="userSpaceOnUse"><stop offset="0" stop-color="#e05707"/><stop offset="1" stop-color="#d89f00"/></linearGradient><linearGradient id="h" x1="55.05" x2="57.24" y1="36.5" y2="36.5" gradientUnits="userSpaceOnUse"><stop offset="0" stop-color="#e05707"/><stop offset="1" stop-color="#d89f00"/></linearGradient><linearGradient id="i" x1="55.06" x2="57.23" y1="56.16" y2="56.16" gradientUnits="userSpaceOnUse"><stop offset="0" stop-color="#e05707"/><stop offset="1" stop-color="#d89f00"/></linearGradient><linearGradient id="j" x1="55.1" x2="57.24" y1="46.38" y2="46.38" gradientUnits="userSpaceOnUse"><stop offset="0" stop-color="#e05707"/><stop offset="1" stop-color="#d89f00"/></linearGradient></defs><path fill="url(#a)" d="M30.553 31.458h-7.621c-.229 0-.458-.006-.686-.02-.297-.02-.468-.182-.482-.484-.011-.228-.008-.457-.009-.685-.002-.368.178-.57.549-.588.202-.01.406-.014.61-.014H38.31c.955.01 1.314.508.98 1.413-.057.15-.266.293-.434.343-.211.063-.452.034-.68.035h-7.623zM59.016 46.34v11.356c0 .228-.01.457-.004.685.01.444-.198.652-.644.65a701.715 701.715 0 00-4.42 0c-.439.002-.665-.193-.661-.64.002-.203-.006-.406-.006-.609.003-7.622.008-15.243.012-22.865 0-.126-.001-.254.001-.38.019-.805.084-.882.871-.888 1.32-.01 2.642-.01 3.963-.001.8.005.868.073.87.878.007 3.354.005 6.707.008 10.06v1.754h.01zm-56.93-.067V34.917c0-.229.006-.457.006-.686 0-.37.175-.575.552-.575 1.524-.003 3.048-.003 4.573 0 .37 0 .56.195.567.566.004.203.009.406.009.61.005 7.646.01 15.293.013 22.94 0 1.261-.001 1.262-1.267 1.264-1.143 0-2.286.003-3.43-.002-1-.003-1.037-.037-1.038-1.024-.002-3.912 0-7.824 0-11.737h.015zm7.904-.066c0-1.373-.002-2.745 0-4.117.003-1.728-.117-1.585 1.628-1.588 2.109-.002 4.218.019 6.326-.007 1.662-.02 3.3-.243 4.823-.952.712-.33 1.412-.705 2.061-1.144 1.04-.7 1.656-1.699 1.81-2.96.043-.353.079-.706.112-1.06.059-.612.136-.699.734-.728.355-.017.712-.006 1.068-.006 1.651 0 3.302-.007 4.954.005.712.005.773.083.833.781.03.354.069.708.116 1.06.156 1.17.724 2.086 1.67 2.794 2.054 1.539 4.396 2.179 6.92 2.21 2.338.03 4.676.004 7.014.008.986.002 1.034.049 1.035 1.033.006 3.151.008 6.302.006 9.453-.001 1.003-.058 1.055-1.1 1.057-2.16.004-4.32-.018-6.48.008-1.684.021-3.355.204-4.917.881-.764.331-1.523.721-2.198 1.204-2.084 1.494-4.404 2.055-6.918 1.828-1.643-.149-3.177-.676-4.526-1.66-1.312-.958-2.748-1.658-4.352-1.93a21.45 21.45 0 00-3.1-.315c-2.158-.047-4.319-.011-6.478-.016-.976-.003-1.04-.068-1.044-1.037-.005-1.601-.001-3.202-.001-4.802h.004zM.07 31.578c-.028.345-.07.618-.069.89.002 9.197.008 18.394.018 27.59 0 .96.074 1.027 1.057 1.028 2.616.005 5.233.005 7.85 0 .967-.001 1.047-.08 1.052-1.04.009-1.6.001-3.201.007-4.801.005-.955.06-1.014.978-1.016 2.49-.006 4.98-.018 7.47.007 1.122.01 2.244.158 3.26.667.972.488 1.89 1.085 2.845 1.611 3.087 1.703 6.308 2.15 9.699 1.028a13.627 13.627 0 003.46-1.74c1.397-.964 2.947-1.518 4.633-1.552 2.666-.053 5.334-.025 8.002-.017.648.003.753.114.765.761.019.99.008 1.982.01 2.973 0 .736-.008 1.473.006 2.21.015.787.117.883.875.91.077.002.153.001.23.001h7.773c.203-.001.43.036.601-.043a.955.955 0 00.436-.44c.078-.172.042-.399.042-.602.008-9.17.015-18.342.018-27.513 0-.956-.069-1.026-1.055-1.029-2.642-.006-5.285-.006-7.927.001-.912.002-1.007.101-1.01 1.006-.008 1.6.001 3.201-.003 4.802-.002.987-.046 1.032-1.032 1.034-2.388.004-4.776-.02-7.164.008-1.836.022-3.49-.513-5.062-1.43-.911-.532-1.336-1.266-1.303-2.308.026-.853.064-.919.908-.926 1.067-.01 2.134.007 3.2-.013.632-.012.764-.122.77-.686.02-1.6.005-3.2.01-4.8.001-.443-.209-.657-.645-.662-.177-.003-.355-.01-.533-.01H20.807c-.204 0-.407.008-.61.023-.326.025-.511.197-.52.535-.006.254-.014.508-.014.762 0 1.32-.007 2.642.006 3.963.007.776.1.856.893.881.228.008.457.003.686.004.863.001 1.727 0 2.59.005.315.001.649.018.689.43.091.94.043 1.846-.831 2.462-1.464 1.031-3.067 1.72-4.875 1.747-2.641.04-5.284.018-7.926.013-.83-.001-.896-.075-.9-.935-.006-1.6.003-3.201-.002-4.802-.003-1.023-.074-1.102-1.067-1.104-2.616-.005-5.233-.005-7.85.003-.32.001-.639.07-1.007.114z"/><path fill="url(#b)" d="M29.657 6.957c-.007-.776.094-.88.863-.884.804-.004.902.086.909.838.006.774-.099.883-.863.888-.798.004-.903-.093-.91-.842zm1.772 11.782c0 .406-.004.812 0 1.218.005.439-.199.662-.646.65-.178-.005-.355-.003-.533-.003-.364-.002-.582-.172-.585-.548-.007-.862-.005-1.725-.002-2.588.002-.37.195-.56.566-.567.152-.003.305-.01.457-.005.617.022.713.105.74.7.019.38.004.762.004 1.143h-.001zm-.856-3.944c-.734-.001-1.469.012-2.203-.005-.566-.013-.665-.105-.673-.673-.016-1.14-.016-2.28.002-3.419.009-.557.114-.661.684-.667 1.444-.015 2.888-.015 4.331 0 .557.007.665.12.674.682.018 1.14.018 2.28.001 3.42-.009.557-.11.645-.688.658-.709.016-1.419.004-2.128.004zm-.034 9.77c-2.613 0-5.227.003-7.84-.001-.851-.001-1.283-.722-.874-1.467a.57.57 0 01.353-.24c.22-.044.454-.031.681-.031l15.3-.001c.1 0 .203-.002.304 0 .798.018.871.092.871.877 0 .78-.07.86-.88.861-2.638.006-5.277.002-7.915.002zm-.072-20.711H12.796c-.305 0-.61.008-.914-.018-.541-.046-.772-.265-.807-.726-.036-.482.21-.831.696-.945.195-.046.403-.046.605-.046 12.11-.002 24.222-.003 36.332.002.25 0 .514.017.748.095.427.143.615.517.548.97-.062.418-.322.618-.724.645-.304.02-.61.022-.914.022l-17.9.001zm10.873 22.79c.033-.28.078-.503.08-.725.008-1.295.006-2.59.006-3.887 0-1.418 0-1.42-1.423-1.42-1.855-.001-3.71.006-5.565-.005-.709-.004-.785-.09-.802-.794a38.671 38.671 0 01-.003-1.524c.018-1.173-.212-1.497 1.269-1.403.05.004.101-.006.152-.009.334-.013.513-.192.538-.52.015-.203.022-.407.023-.61.002-2.26.004-4.523.002-6.784-.001-1.116-.013-1.122-1.157-1.165-.151-.005-.316.013-.451-.041-.126-.051-.269-.162-.319-.282-.345-.818.029-1.393.894-1.403h.457l13.492-.001c.33 0 .663.008.99-.03 1.49-.172 2.63-1.371 2.717-2.838.087-1.48-.844-2.785-2.268-3.111-.414-.095-.857-.085-1.287-.085C36.59.003 24.495.004 12.399.004c-.202 0-.406-.003-.609.003-1.526.045-2.74 1.118-2.928 2.589-.194 1.515.709 2.92 2.184 3.324.433.118.902.145 1.355.146 4.6.01 9.198.006 13.798.006.254 0 .517-.031.758.026.168.04.385.178.441.325.326.852-.024 1.352-.926 1.378a10.99 10.99 0 00-.456.02c-.331.023-.51.205-.528.534-.012.228-.019.457-.019.685 0 2.135-.001 4.27.003 6.403.002 1.272-.112 1.52 1.324 1.464.549-.022.635.106.65.697.018.686.012 1.373.006 2.058-.007.891-.057.945-.958.948-1.982.006-3.964-.004-5.946.008-.793.005-.88.097-.884.882-.01 1.474-.005 2.948.003 4.421 0 .222.047.443.08.724.337.045.63.119.925.12 6.581.006 13.162.006 19.744-.001.294 0 .588-.075.924-.12z"/><path fill="url(#c)" d="M28.031 44.244c1.828 0 3.654-.004 5.481.002.958.004 1.03.085 1.032 1.052 0 .178-.006.355-.012.533-.01.368-.212.555-.57.58-.201.013-.405.02-.608.02h-10.58c-.203 0-.406-.008-.609-.02-.396-.023-.593-.244-.614-.633-.004-.076-.01-.152-.013-.228-.06-1.195.043-1.304 1.242-1.305 1.75-.003 3.501-.001 5.251 0z"/><path fill="url(#d)" d="M37.401 44.245c1.01 0 1.096.084 1.096 1.068 0 .984-.125 1.113-1.077 1.117-.962.003-1.093-.127-1.096-1.096-.004-.993.09-1.088 1.077-1.09z"/><path fill="url(#e)" d="M6.04 36.556c-.006.945-.113 1.044-1.128 1.034-.948-.009-1.066-.133-1.066-1.122 0-.967.1-1.062 1.107-1.06 1.017.002 1.093.083 1.087 1.148z"/><path fill="url(#f)" d="M4.952 55.077c.996.002 1.075.083 1.075 1.089 0 .988-.101 1.09-1.084 1.085-.96-.004-1.088-.135-1.09-1.105-.001-.975.098-1.071 1.1-1.07z"/><path fill="url(#g)" d="M5.063 45.303c.065.004.289-.037.464.038.182.076.425.247.45.408.063.393.044.807-.002 1.206-.015.133-.205.335-.33.348-.45.047-.91.059-1.36.011-.144-.015-.305-.235-.382-.397-.071-.15-.048-.348-.051-.524-.015-.977.096-1.087 1.211-1.09z"/><path fill="url(#h)" d="M56.15 35.408c.994 0 1.093.1 1.09 1.077-.003.99-.13 1.111-1.16 1.105-.955-.005-1.038-.095-1.034-1.127.005-.978.086-1.055 1.105-1.055z"/><path fill="url(#i)" d="M56.13 57.25c-.976.002-1.073-.097-1.07-1.1.002-.993.082-1.072 1.089-1.073.987 0 1.088.1 1.084 1.084-.004.96-.134 1.088-1.104 1.09z"/><path fill="url(#j)" d="M56.063 47.472c-.308-.129-.822-.198-.88-.399-.133-.461-.066-.989-.025-1.484.009-.1.258-.215.413-.254.193-.048.403-.03.606-.03.952 0 1.058.105 1.06 1.028 0 .94-.11 1.042-1.174 1.14z"/></svg>