<svg xmlns="http://www.w3.org/2000/svg" width="58" height="68"><defs><linearGradient id="a" x1="29.01" x2="29.01" y1=".36" y2="67.27" gradientUnits="userSpaceOnUse"><stop offset="0" stop-color="#fff"/><stop offset="1" stop-color="#fff"/></linearGradient><linearGradient id="b" x1="32.35" x2="32.35" y1="30.42" y2="46.08" gradientUnits="userSpaceOnUse"><stop offset="0" stop-color="#fff"/><stop offset="1" stop-color="#fff"/></linearGradient></defs><path fill="url(#a)" d="M55.763 61.69a3.346 3.346 0 01-3.345 3.346H5.583a3.345 3.345 0 010-6.69h46.835a3.345 3.345 0 013.345 3.345zM2.237 33.814a3.339 3.339 0 013.332-3.346h13.824c-.043.082-.074.152-.117.232a40.953 40.953 0 00-.954 1.928c-.223.489-.429.96-.603 1.41-.023.054-.05.111-.071.168-.19.496-.343.962-.473 1.41-.033.112-.06.224-.09.342-.091.346-.166.678-.223.996-.011.065-.035.14-.044.205H5.583a3.345 3.345 0 01-3.346-3.345zm0-27.878A3.345 3.345 0 015.583 2.59h46.835a3.345 3.345 0 110 6.69H5.583a3.345 3.345 0 01-3.346-3.344zM22.258 29.91A101.885 101.885 0 0129 20.016c.181.235.385.504.607.802a98.828 98.828 0 016.134 9.095c2.723 4.688 3.295 7.133 3.295 8.36 0 5.542-4.493 10.036-10.036 10.036-5.543 0-10.036-4.494-10.036-10.036a5.94 5.94 0 01.132-1.165 25.455 25.455 0 013.162-7.199zm-15.56-18.4h44.604v16.728h-13.96c-.044-.076-.091-.15-.137-.223-.111-.19-.223-.377-.342-.565l-.291-.47-.335-.54c-.1-.16-.203-.318-.305-.477a92.442 92.442 0 00-.335-.519l-.311-.472-.327-.492-.319-.471a77.83 77.83 0 00-.317-.465l-.312-.451c-.104-.15-.207-.297-.309-.446l-.302-.428-.3-.425-.28-.389-.291-.4c-.097-.132-.174-.241-.262-.359l-.274-.373-.233-.313c-.088-.12-.177-.24-.262-.351-.06-.081-.111-.154-.174-.23l-.274-.364-.112-.15-.257-.335-.133-.173-.185-.238-.055-.071a51.55 51.55 0 00-.43-.543 1.152 1.152 0 00-1.739 0 51.16 51.16 0 00-.43.543l-.054.071-.197.255-.12.153-.238.313-.14.181-.25.335-.199.263-.24.324-.254.334-.253.345a44 44 0 00-.285.39l-.26.36-.315.435-.264.373-.341.484c-.09.126-.178.254-.268.382l-.355.514-.278.408-.358.53a83.15 83.15 0 00-.647.976l-.281.436c-.12.187-.241.374-.36.563l-.287.455-.347.557c-.096.159-.192.316-.286.474-.055.091-.112.18-.166.272H6.698zm0 44.606V39.388h10.086c0 .025.008.049.01.073.016.157.043.309.065.464.032.243.063.485.111.722.032.163.076.323.112.483.053.223.111.446.171.67.05.162.112.32.164.481.072.208.144.416.224.62.065.16.138.313.21.47.09.196.18.39.28.58.08.155.167.303.253.452.112.184.216.366.335.543.095.146.194.288.294.428a10.103 10.103 0 00.713.905 12.38 12.38 0 001.254 1.256c.13.112.262.223.397.335.165.131.335.255.506.378.14.101.28.202.425.297.179.111.362.223.546.334.148.087.295.175.446.256.191.1.388.19.585.282.154.07.307.144.464.21.207.085.418.157.63.23.157.055.311.111.472.163.223.068.455.121.685.177.153.037.304.08.46.112.259.05.523.086.788.12.132.018.262.045.397.058a12.303 12.303 0 002.438 0c.135-.013.266-.04.398-.058.264-.034.529-.07.788-.12.156-.031.306-.075.46-.112.23-.056.46-.111.684-.177.161-.048.316-.112.472-.163.212-.073.424-.145.63-.23.158-.066.31-.14.465-.21.196-.092.393-.183.584-.282.154-.08.3-.169.447-.256.184-.111.367-.215.545-.334.146-.095.285-.196.425-.297.172-.123.341-.247.507-.378.134-.112.266-.223.396-.335a11.139 11.139 0 00.832-.792 13.262 13.262 0 00.757-.864 13.379 13.379 0 001.007-1.476c.086-.15.173-.297.253-.452.101-.19.191-.384.28-.58.073-.157.145-.31.211-.47.083-.204.155-.412.223-.62.056-.16.112-.319.165-.482.065-.223.117-.446.171-.669.038-.16.081-.32.111-.483.047-.237.078-.48.112-.722.02-.155.049-.307.065-.464 0-.024.007-.048.01-.073h10.086v16.727zm49.065-22.302a3.34 3.34 0 01-3.332 3.345H41.178c-.01-.064-.033-.14-.044-.204a10.666 10.666 0 00-.223-1.004c-.03-.111-.057-.223-.09-.334a18.285 18.285 0 00-.474-1.41c-.02-.054-.046-.112-.068-.166a26.977 26.977 0 00-.82-1.87 32.56 32.56 0 00-.75-1.492c-.038-.073-.067-.138-.11-.21h13.819a3.345 3.345 0 013.345 3.345zm.605 3.938a5.576 5.576 0 00-2.835-9.402V11.4A5.576 5.576 0 0052.418.359H5.583a5.576 5.576 0 00-1.116 11.04v16.95a5.576 5.576 0 000 10.928v16.95a5.576 5.576 0 001.116 11.04h46.835a5.576 5.576 0 001.115-11.04v-16.95a5.629 5.629 0 002.835-1.526z"/><path fill="url(#b)" d="M29 46.079a7.816 7.816 0 007.806-7.806c0-.49-.215-2.46-2.991-7.238a1.116 1.116 0 10-1.928 1.116c2.606 4.49 2.69 6.115 2.69 6.122A5.583 5.583 0 0129 43.849a1.115 1.115 0 100 2.23z"/></svg>