<svg xmlns="http://www.w3.org/2000/svg" width="124" height="123"><defs><clipPath id="a"><path fill="#fff" d="M37 61.5C37 47.417 48.417 36 62.5 36S88 47.417 88 61.5 76.583 87 62.5 87 37 75.583 37 61.5z"/></clipPath><clipPath id="b"><path fill="#fff" d="M28 61.5C28 42.446 43.446 27 62.5 27 81.554 27 97 42.446 97 61.5 97 80.554 81.554 96 62.5 96 43.446 96 28 80.554 28 61.5z"/></clipPath><clipPath id="c"><path fill="#fff" d="M19 61.5C19 37.476 38.476 18 62.5 18S106 37.476 106 61.5 86.524 105 62.5 105 19 85.524 19 61.5z"/></clipPath><clipPath id="d"><path fill="#fff" d="M10 61.5C10 32.505 33.505 9 62.5 9S115 32.505 115 61.5 91.495 114 62.5 114 10 90.495 10 61.5z"/></clipPath><clipPath id="e"><path fill="#fff" d="M1 61.5C1 27.534 28.534 0 62.5 0S124 27.534 124 61.5 96.466 123 62.5 123 1 95.466 1 61.5z"/></clipPath></defs><path fill="none" stroke="#fbb03b" stroke-miterlimit="50" stroke-width="2" d="M37 61.5C37 47.417 48.417 36 62.5 36S88 47.417 88 61.5 76.583 87 62.5 87 37 75.583 37 61.5z" clip-path="url(&quot;#a&quot;)"/><path fill="none" stroke="#fbb03b" stroke-miterlimit="50" stroke-width="2" d="M28 61.5C28 42.446 43.446 27 62.5 27 81.554 27 97 42.446 97 61.5 97 80.554 81.554 96 62.5 96 43.446 96 28 80.554 28 61.5z" clip-path="url(&quot;#b&quot;)"/><path fill="none" stroke="#fbb03b" stroke-miterlimit="50" stroke-width="2" d="M19 61.5C19 37.476 38.476 18 62.5 18S106 37.476 106 61.5 86.524 105 62.5 105 19 85.524 19 61.5z" clip-path="url(&quot;#c&quot;)"/><path fill="none" stroke="#fbb03b" stroke-miterlimit="50" stroke-width="2" d="M10 61.5C10 32.505 33.505 9 62.5 9S115 32.505 115 61.5 91.495 114 62.5 114 10 90.495 10 61.5z" clip-path="url(&quot;#d&quot;)" opacity=".52"/><path fill="none" stroke="#fbb03b" stroke-miterlimit="50" stroke-width="2" d="M1 61.5C1 27.534 28.534 0 62.5 0S124 27.534 124 61.5 96.466 123 62.5 123 1 95.466 1 61.5z" clip-path="url(&quot;#e&quot;)" opacity=".2"/></svg>