<svg xmlns="http://www.w3.org/2000/svg" width="217" height="22"><path fill="#005597" d="M4 4.773c1.9-2.4 4.7-3.9 8-3.9 2.4 0 4.6.8 6.4 2.2-1.9-1.8-4.6-2.9-7.4-2.9-3.8 0-7.1 1.9-9.1 4.9.5-.3 1.3-.4 2.1-.3zm5.8 12.7c-3.4-1.6-5.8-4.4-6.4-7.4-.3-1.7.3-2.8.6-3.4.4-.7.9-.7.9-.7s-.4-.3-1.2-.4c-.9-.2-2-.1-2.8 1.1-.5 1.3-.9 2.7-.9 4.2 0 2.9 1.1 6.2 4.4 8.8.9.7 1.9 1.2 3 1.6.1 0 .3.1.5.1.5.1 1 .2 1.4.3h2.1c.2 0 .4 0 .6-.1h.1c.2 0 .3 0 .5-.1.1 0 .2 0 .3-.1 1.8-.4 3.3-1.2 4.5-2.1.7-.5 1.3-1.1 1.8-1.8-2.5 1.5-6 1.5-9.4 0z"/><path fill="#005597" d="M10.4 16.673c1.4.8 2.8 1.2 4.3 1.3.6-.2 1.2-.4 1.7-.7 2.1-1.3 8.3-9.9 8.3-9.9s-3.4-.6-4.8.5c-1.5 1.1-2.6 2.8-4.2 4.6-1.6 1.8-2.3 3-3.8 3.3-1.1.3-2.1.2-3 0z"/><path fill="#e3051b" d="M20.3 17.073c1.3-.9 4.3-5.1 4.3-5.1s-2.3-1.2-4.4 0c-2.1 1.2-2 1.5-4.1 3.2-2.1 1.7-3.6 1.9-4.8 1.8h-.2c3 1.5 6.9 1.7 9.2.1z"/><path fill="#005597" d="M199.5 20.073h.013l-.013.1zm1.9-14.8l.4-3.4h6.1l-.5 3.8h5.8c1.9 0 3.3 1.4 3.1 3.1l-1.1 8.2c-.1.8-.5 1.5-1.1 2.1-.7.7-1.7 1-2.7 1h-11.887zm7.6 10c.4 0 .4 0 1-4.4l.1-.4h-3.2l-.7 4.8zm-161.9 4.8h.013l-.013.1zm.4-3l1.7-15.2h12.2c1 0 1.9.4 2.4 1s.7 1.3.6 2.1l-1.1 8.6c-.2 1.7-2 3.1-3.9 3.1h-5.8l-.5 3.4h-5.987zm7.3-9.5l-.6 4.3h2.7c.3 0 .5-.2.5-.5l.7-4.7h-3.2zm82.6 12.6l2.3-18.3h15l-.6 4.8h-8.8l-.3 2.3h8.8l-.5 4.1h-8.8l-.3 2.3h8.9l-.6 4.8zm-31 0c-1.3 0-2.4-.5-3.2-1.4-.7-.8-1-1.7-.8-2.8l1.3-10c.1-1 .7-2 1.5-2.8 1-.9 2.3-1.4 3.5-1.4h6.6c2.1 0 4.4.9 4.1 3.5l-.4 3.2h-6.1l.3-1.8h-3.6v.4c0 .2-.4 2.6-.6 4.5-.3 1.8-.4 2.9-.4 3v.4h3.5l.3-1.8h6.1l-.3 2.9c-.3 2.3-2.6 4.1-5 4.1zm22.5 0l.8-6.5h-3.5l-.8 6.5h-6.1l2.4-18.3h6.1l-.9 6.9h3.5l.9-6.9h6.4l-2.3 18.3zm-35.4 0l.8-6.5h-3.5l-.8 6.5h-6.1l2.3-18.3h6.1l-.8 6.9H95l.9-6.9h6.4l-2.3 18.3zm-17.4 0l-.3-3.2-5.9.1-1 3.1h-6.2l6.3-17.4c.2-.5.8-.9 1.4-.9h8.9c.6 0 1.1.4 1.1.9l1.9 17.4zm-4.5-7.8h3.7l-.6-5h-1.2zm114.1 7.8l1.7-13.5H182l.6-4.8h18.1l-2.9 4.8h-4.4l-1.7 13.5zm-151.8 0l1.8-13.5h-6.1l3.1-4.8h14.7l-.7 4.8h-5l-1.7 13.5zm129.5 0l.5-3.5h-5.8c-1.9 0-3.3-1.4-3.1-3.1l1.1-8.6c.1-.8.5-1.5 1.1-2.1.7-.7 1.7-1 2.7-1h17.8c1 0 1.9.4 2.4 1s.7 1.3.6 2.1l-1.1 8.6c-.2 1.7-2 3.1-3.9 3.1h-5.8l-.5 3.4zm7.2-8.3h2.8c.2 0 .4-.2.5-.4l.7-4.8h-3.2zm-9.3 0h3.2l.4-2.6.3-2.6H162zm-139.8-7.1l2-3.5s-2.3-.4-4.3 1.2-6.3 11.8-9.5 12.4c-.7.1-1.4.2-1.9.1.4 0 .9 0 1.5-.1 3.3-.6 7.4-11.7 9.3-13.3 2.7-2.3 6-1.4 6-1.4z"/></svg>