<svg xmlns="http://www.w3.org/2000/svg" width="597" height="169"><path d="M113.468 12.136c-.51 0-1.02 0-1.529.004-.243.08-.485.159-.73.235-.058-.08-.118-.155-.177-.235-.026-.028-.044-.06-.069-.088.375.012.748.028 1.128.036l1.377.048z"/><path d="M111.209 12.376c-.058-.08-.12-.156-.179-.236h.908c-.243.08-.486.16-.73.236z"/><path fill="#2e2e2e" d="M26.232 89.452c11.078.271 21.888.531 32.909.795l42.378-.039c-.117-.002-.23-.002-.347-.006 6.868-10.046 13.495-19.301 19.931-28.683-.137-.324-.277-.645-.418-.97-4.312-.144-8.626-.285-12.938-.427-11.619-.388-23.227-1.11-34.843-.035C53.206 61.907 38.3 71.436 27.155 87.21c-.343.485-.474 1.124-.923 2.241zm155.098-55.07c-2.126 6.214-4.48 12.53-8.146 17.964a203.072 203.072 0 01-7.765 10.735c-1.533-6.216-5.117-11.941-10.392-15.967-5.81-4.44-10.938-5.08-21.919-5.351-14.64-.363-28.421-.831-42.428-1.127l-32.125.032c-10.54-.255-20.88-.502-31.471-.76.43-1.071.555-1.68.88-2.146 10.66-15.083 24.914-24.197 43.75-25.937 11.11-1.026 22.21-.338 33.323.032 1.975.068 3.95.131 5.925.195.024.028.044.06.068.087.06.08.12.156.179.236.243-.076.486-.155.729-.236.51-.004 1.019-.004 1.528-.004 8.227-.015 16.452.068 24.667.427 15.297.665 28.782 6.808 39.716 17.973a62.666 62.666 0 013.48 3.847zm-1.071 72.721c-9.811 11.463-22.38 18.296-37.435 19.865-6.495.672-13.144.78-19.638.207-6.462-.57-10.452 1.596-14.103 6.967-6.78 9.97-14.912 18.877-25.284 25.362-10.504 6.566-22.078 9.179-34.385 8.824-.358-.011-.71-.274-1.438-.569 4.074-5.984 8.127-11.942 12.22-17.961a64.651 64.651 0 002.643-.737c28.286-8.492 46.837-17.762 53.379-21.89 1.521-.96 3.165-1.796 4.714-2.752 23.532-14.518 44.336-31.69 60.266-53.49 4.066-5.562 7.74-11.3 10.616-17.352a48.652 48.652 0 011.063 4.217c3.802 18.375-.383 35.018-12.618 49.309zm-51.738-7.721c-15.939 11.917-33.845 21.481-53.613 28.79.115-.166.23-.338.346-.51 0 0 21.995-30.729 20.414-28.384 5.929.064 4.185.071 3.528.071 9.775.016 19.55.076 29.325.033z"/><path fill="#fbb03b" d="M197.829 32.57c-.716 7.501-2.895 14.441-6.016 21.007-2.875 6.052-6.55 11.79-10.615 17.352-15.931 21.8-36.735 38.973-60.266 53.49-1.55.956-3.194 1.792-4.714 2.751-6.542 4.129-25.094 13.398-53.379 21.89a74.033 74.033 0 01-27.322 2.84c-5.705-.47-11.607-1.35-16.934-3.26C5.627 143.983-.772 132.982.598 119.405c.916-9.07 3.91-17.588 8.76-25.287 5.208-8.263 11.37-16 17.153-23.943.453-.629 1.17-1.087 2.305-1.215-.916 1.25-1.804 2.526-2.754 3.756-8.232 10.68-15.292 21.943-18.244 35.007-.91 4.03-1.308 8.342-.873 12.451 1.06 9.994 7.811 15.095 20.946 16.564 10.11 1.127 20.08-.088 29.62-2.85a252.207 252.207 0 0017.373-5.707h.003c.008-.004.017-.004.021-.008 19.769-7.31 37.673-16.874 53.612-28.792 13.801-10.312 26.125-22.392 36.899-36.3a203.573 203.573 0 007.764-10.735c3.667-5.434 6.02-11.75 8.146-17.964.168-.483.33-.965.494-1.446 1.258-3.715 1.25-8.015.868-11.993-.66-6.896-5.276-11.3-12.16-13.816-8.317-3.042-16.981-3.508-25.475-2.234-9.803 1.474-19.41 3.934-29.086 6.02-1.321.287-2.595.749-3.881 1.175-.379-.008-.753-.024-1.128-.035-.243-.32-.489-.637-.732-.956.573-.008 1.218.14 1.704-.052 15.56-6.068 31.59-10.738 48.795-10.32 6.598.159 13.514 1.373 19.713 3.563 12.272 4.34 18.61 15.473 17.388 28.282z"/><path fill="#999" d="M112.09 12.088c-.051.02-.1.035-.151.052-.243.08-.486.159-.73.235-.058-.08-.118-.155-.178-.235-.025-.028-.043-.06-.068-.088.375.012.748.028 1.128.036z"/><path fill="#2e2e2e" d="M246.317 114.278V72.556h-13.124v-8.257h35.748v8.257h-13.123v41.722zm29.841 0v-49.98h32.458v8.123h-23.094v11.816h16.819v7.988h-16.819v13.528h24.102v8.525zm50.62-42.192h6.98c3.446 0 5.88.537 7.3 1.611 1.42 1.074 2.133 2.886 2.133 5.438 0 2.529-.713 4.33-2.133 5.403-1.42 1.075-3.854 1.612-7.3 1.612h-6.98zm0 42.192V94.072h9.263c5.416 0 9.532-1.27 12.352-3.81 2.82-2.54 4.23-6.248 4.23-11.127 0-4.99-1.444-8.71-4.33-11.161-2.888-2.451-7.274-3.675-13.16-3.675h-17.856v49.98zm34.068 0v-49.98h13.46l7.216 24.268a80.93 80.93 0 011.697 6.378 67.716 67.716 0 011.055 6.077c.403-1.858.862-3.765 1.376-5.724a185.49 185.49 0 011.88-6.596l7.35-24.402h12.924v49.98h-8.054V72.353a154.058 154.058 0 01-1.377 5.539 164.87 164.87 0 01-1.58 5.505l-9.127 30.88h-6.884l-8.86-30.88a397.072 397.072 0 01-1.964-7.067c-.39-1.486-.72-2.814-.99-3.977v41.924zm66.764-49.979v27.624c0 2.149-.051 4.04-.15 5.673a45.418 45.418 0 01-.486 4.498 143.27 143.27 0 012.935-6.78c.952-2.036 1.853-3.783 2.704-5.237l15.607-25.778h8.728v49.98h-8.728V87.392c0-1.926.054-3.733.17-5.422.11-1.69.29-3.273.536-4.749a90.467 90.467 0 01-5.64 11.95l-14.366 25.106h-10.037v-49.98zm40.415 49.979v-49.98h9.398v19.805h19.066V64.299h9.396v49.98h-9.396V92.56h-19.066v21.717zm64.413-41.252l6.377 22.354h-12.72zm-11.782 41.252l3.189-10.942h17.253l3.089 10.942h9.397l-15.038-49.98H526.8l-15.073 49.98zm61.442-49.979L597 114.279h-9.463l-11.28-40.782-11.413 40.781h-9.433l14.936-49.98z"/></svg>