<svg xmlns="http://www.w3.org/2000/svg" width="30" height="30"><defs><clipPath id="a"><path fill="#fff" d="M4 30c-2 0-4-2-4-4V4c0-2 2-4 4-4h22c2 0 4 2 4 4v22c0 2-2 4-4 4z"/></clipPath></defs><path fill="#fff" d="M4 30c-2 0-4-2-4-4V4c0-2 2-4 4-4h22c2 0 4 2 4 4v22c0 2-2 4-4 4z"/><path fill="none" stroke="#fbb03b" stroke-miterlimit="50" stroke-width="4" d="M4 30c-2 0-4-2-4-4V4c0-2 2-4 4-4h22c2 0 4 2 4 4v22c0 2-2 4-4 4z" clip-path="url(&quot;#a&quot;)"/><g fill="#fbb03b"><path d="M11.3 10.057l-.43-.43a.463.463 0 010-.657l3.764-3.766a.463.463 0 01.656 0l3.766 3.766a.463.463 0 010 .657l-.43.43a.465.465 0 01-.665-.008l-2.223-2.334.017 14.334a.464.464 0 01-.465.465h-.62a.464.464 0 01-.465-.465l-.017-14.334-2.224 2.334a.462.462 0 01-.664.008z"/><path d="M18.625 19.86l.43.43a.463.463 0 010 .657l-3.763 3.766a.463.463 0 01-.657 0l-3.766-3.766a.463.463 0 010-.656l.43-.43a.465.465 0 01.665.007l2.224 2.334v-5.567c0-.257.207-.465.464-.465h.62c.258 0 .465.208.465.465v5.567l2.224-2.334c.18-.19.48-.193.664-.008z"/></g></svg>