<svg xmlns="http://www.w3.org/2000/svg" width="30" height="30"><defs><clipPath id="a"><path fill="#fff" d="M26 0c2 0 4 2 4 4v22c0 2-2 4-4 4H4c-2 0-4-2-4-4V4c0-2 2-4 4-4z"/></clipPath></defs><path fill="#fff" d="M26 0c2 0 4 2 4 4v22c0 2-2 4-4 4H4c-2 0-4-2-4-4V4c0-2 2-4 4-4z"/><path fill="none" stroke="#fbb03b" stroke-miterlimit="50" stroke-width="4" d="M26 0c2 0 4 2 4 4v22c0 2-2 4-4 4H4c-2 0-4-2-4-4V4c0-2 2-4 4-4z" clip-path="url(&quot;#a&quot;)"/><path fill="#fbb03b" d="M18.7 19.943l.43.43a.463.463 0 010 .657l-3.764 3.766a.463.463 0 01-.656 0l-3.766-3.766a.463.463 0 010-.657l.43-.43a.465.465 0 01.665.008l2.223 2.334v-5.567c0-.258.208-.465.465-.465h.62c.258 0 .465.207.465.465v5.567l2.224-2.334c.18-.19.48-.194.664-.008zm-7.325-9.803l-.43-.43a.463.463 0 010-.657l3.763-3.766a.463.463 0 01.657 0l3.766 3.766a.463.463 0 010 .656l-.43.43a.465.465 0 01-.665-.007l-2.224-2.334v5.567a.464.464 0 01-.464.465h-.62a.464.464 0 01-.465-.465V7.798l-2.224 2.334a.462.462 0 01-.664.008z"/></svg>