<svg xmlns="http://www.w3.org/2000/svg" width="193" height="135"><defs><linearGradient id="a" x1="128.41" x2="128.41" y1="109.01" y2="121.83" gradientUnits="userSpaceOnUse"><stop offset="0" stop-color="#e05707"/><stop offset="1" stop-color="#d89f00"/></linearGradient><linearGradient id="b" x1="163.68" x2="163.68" y1="109.01" y2="121.83" gradientUnits="userSpaceOnUse"><stop offset="0" stop-color="#e05707"/><stop offset="1" stop-color="#d89f00"/></linearGradient><linearGradient id="c" x1="64.3" x2="64.3" y1="109.01" y2="121.83" gradientUnits="userSpaceOnUse"><stop offset="0" stop-color="#e05707"/><stop offset="1" stop-color="#d89f00"/></linearGradient><linearGradient id="d" x1="29.02" x2="29.02" y1="109.01" y2="121.83" gradientUnits="userSpaceOnUse"><stop offset="0" stop-color="#e05707"/><stop offset="1" stop-color="#d89f00"/></linearGradient><linearGradient id="e" x1="128.5" x2="128.5" y1="27" y2="32" gradientUnits="userSpaceOnUse"><stop offset="0" stop-color="#e05707"/><stop offset="1" stop-color="#d89f00"/></linearGradient><linearGradient id="f" x1="146.5" x2="146.5" y1="39" y2="44" gradientUnits="userSpaceOnUse"><stop offset="0" stop-color="#e05707"/><stop offset="1" stop-color="#d89f00"/></linearGradient></defs><g opacity=".71"><path fill="#f8f8f8" d="M186.13 118.616h-3.466c0-.099 0-.222.025-.321a17.338 17.338 0 000-5.768c0-.1 0-.223-.025-.322h3.465zm-22.451 9.63c-5.1-.026-9.703-3.02-11.758-7.674-2.847-6.461.074-14.01 6.534-16.857.025-.024.05-.024.1-.05 3.218-1.41 6.906-1.41 10.149-.025.049 0 .074.026.123.026 6.485 2.846 9.43 10.421 6.584 16.906-2.054 4.654-6.658 7.673-11.732 7.673zM146.055 107.7zm-25.348-9.851a19.22 19.22 0 00-8.911 7.97H80.929c-5.322-9.208-17.08-12.327-26.287-7.03a19.207 19.207 0 00-7.97 8.911 19.276 19.276 0 00-8.021-8.836v-5.868h115.423v5.892a19.101 19.101 0 00-8.02 8.812c-4.282-9.728-15.619-14.134-25.347-9.851zm19.482 22.698c-2.847 6.51-10.422 9.48-16.932 6.634a12.807 12.807 0 01-6.609-6.585 13.055 13.055 0 010-10.296c2.847-6.51 10.445-9.456 16.956-6.61a12.768 12.768 0 016.585 6.584 12.996 12.996 0 010 10.273zm-56.932-1.931c0-.099 0-.222.024-.321a17.338 17.338 0 000-5.768c0-.1 0-.223-.024-.322h26.187c0 .099 0 .223-.024.322a17.337 17.337 0 000 5.768c0 .099 0 .222.024.32zm-18.961 9.63c-5.1-.026-9.703-3.02-11.758-7.674a13.045 13.045 0 01-.025-10.248c2.846-6.51 10.421-9.48 16.931-6.633a12.809 12.809 0 016.61 6.583 13.058 13.058 0 010 10.298c-2.056 4.654-6.684 7.648-11.758 7.673zm-23.49-7.7c-2.847 6.511-10.422 9.481-16.932 6.635a12.807 12.807 0 01-6.61-6.585c-2.846-6.485.075-14.035 6.56-16.881.026 0 .05-.024.075-.024 3.218-1.412 6.906-1.412 10.149-.025.049 0 .074.025.123.025 6.46 2.821 9.43 10.37 6.634 16.856zm-34.234-1.93v-6.41h3.465c0 .098 0 .222-.025.321a17.34 17.34 0 000 5.768c0 .099 0 .222.025.32zm25.643-25.644v3.466c-.148-.025-.32 0-.47-.05a15.772 15.772 0 00-2.426-.198c-.098 0-.198-.025-.296-.025-.099 0-.199.025-.297.025-.817.024-1.634.075-2.452.199-.147.024-.32 0-.47.049v-3.466zm-6.41-76.932v38.466a3.211 3.211 0 003.218 3.218 3.211 3.211 0 003.217-3.218v-3.218h19.233v3.218a3.211 3.211 0 003.218 3.218 3.211 3.211 0 003.218-3.218V16.04h122.725a113.057 113.057 0 010 70.546H12.092a113.041 113.041 0 010-70.546zm6.41 22.427H51.45v6.41H32.215zm0-6.412v-6.41H51.45v6.41zM51.473 16.04v3.218H32.215V16.04zm89.755-9.628h19.233v3.217h-19.233zm25.668 90.05c-.149-.024-.322 0-.47-.05a15.785 15.785 0 00-2.425-.198c-.1 0-.199-.024-.297-.024-.1 0-.198.024-.298.024a20.55 20.55 0 00-2.45.199c-.15.025-.322 0-.47.049v-3.466h6.41zm22.427 9.333h-9.06a19.51 19.51 0 00-6.956-6.956v-5.867h9.63a3.22 3.22 0 003.044-2.203l.643-1.98a119.277 119.277 0 000-75.026l-.668-1.98a3.245 3.245 0 00-3.02-2.204h-16.04V3.218A3.212 3.212 0 00163.68 0h-25.645a3.212 3.212 0 00-3.218 3.218v6.411H57.885V6.412a3.211 3.211 0 00-3.218-3.218 3.21 3.21 0 00-3.218 3.218v3.217H32.215V6.412a3.21 3.21 0 00-3.218-3.218 3.211 3.211 0 00-3.218 3.218v3.217H9.74a3.218 3.218 0 00-3.044 2.203l-.644 1.98a119.296 119.296 0 000 75.027l.668 1.98a3.247 3.247 0 003.02 2.203h9.629v5.891a19.13 19.13 0 00-6.956 6.955H3.354a3.212 3.212 0 00-3.218 3.218v12.822a3.212 3.212 0 003.218 3.218h9.01c5.322 9.208 17.08 12.353 26.287 7.03a19.222 19.222 0 007.971-8.91c4.282 9.726 15.619 14.133 25.347 9.85a19.207 19.207 0 008.911-7.97h30.867c5.322 9.208 17.08 12.353 26.287 7.03a19.222 19.222 0 007.971-8.91c4.282 9.726 15.619 14.133 25.347 9.85a19.207 19.207 0 008.911-7.97h9.035a3.212 3.212 0 003.218-3.218v-12.822c.025-1.857-1.41-3.291-3.193-3.291z" opacity=".71"/><path fill="url(#a)" d="M134.816 115.423a6.41 6.41 0 01-6.41 6.41 6.41 6.41 0 01-6.41-6.41 6.41 6.41 0 016.41-6.41 6.41 6.41 0 016.41 6.41z" opacity=".71"/><path fill="url(#b)" d="M170.089 115.423a6.41 6.41 0 01-6.41 6.41 6.41 6.41 0 01-6.411-6.41 6.41 6.41 0 016.41-6.41 6.41 6.41 0 016.411 6.41z" opacity=".71"/><path fill="url(#c)" d="M70.706 115.423a6.41 6.41 0 01-6.41 6.41 6.41 6.41 0 01-6.411-6.41 6.41 6.41 0 016.41-6.41 6.41 6.41 0 016.411 6.41z" opacity=".71"/><path fill="url(#d)" d="M35.433 115.423a6.41 6.41 0 01-6.41 6.41 6.41 6.41 0 01-6.411-6.41 6.41 6.41 0 016.41-6.41 6.41 6.41 0 016.411 6.41z" opacity=".71"/></g><path fill="url(#e)" d="M96 29.5c0-1.25 1.25-2.5 2.5-2.5h60c1.25 0 2.5 1.25 2.5 2.5s-1.25 2.5-2.5 2.5h-60c-1.25 0-2.5-1.25-2.5-2.5z"/><path fill="url(#f)" d="M114 41.5c0-1.25 1.25-2.5 2.5-2.5h60c1.25 0 2.5 1.25 2.5 2.5s-1.25 2.5-2.5 2.5h-60c-1.25 0-2.5-1.25-2.5-2.5z"/></svg>