<svg xmlns="http://www.w3.org/2000/svg" width="211" height="110"><defs><linearGradient id="a" x1="67.5" x2="67.5" y1="105" y2="110" gradientUnits="userSpaceOnUse"><stop offset="0" stop-color="#e05707"/><stop offset="1" stop-color="#d89f00"/></linearGradient><linearGradient id="b" x1="58.63" x2="58.63" y1="92.51" y2="98.09" gradientUnits="userSpaceOnUse"><stop offset="0" stop-color="#e05707"/><stop offset="1" stop-color="#d89f00"/></linearGradient><linearGradient id="c" x1="82.5" x2="82.5" y1="92.51" y2="98.09" gradientUnits="userSpaceOnUse"><stop offset="0" stop-color="#e05707"/><stop offset="1" stop-color="#d89f00"/></linearGradient><linearGradient id="d" x1="178" x2="178" y1="92.51" y2="98.09" gradientUnits="userSpaceOnUse"><stop offset="0" stop-color="#e05707"/><stop offset="1" stop-color="#d89f00"/></linearGradient></defs><path fill="url(#a)" d="M0 107.5c0-1.25 1.25-2.5 2.5-2.5h130c1.25 0 2.5 1.25 2.5 2.5s-1.25 2.5-2.5 2.5H2.5c-1.25 0-2.5-1.25-2.5-2.5z"/><g opacity=".71"><path fill="url(#b)" d="M58.635 92.515h-.03a2.78 2.78 0 00-2.777 2.792c0 1.542 1.265 2.792 2.807 2.792a2.792 2.792 0 100-5.584z" opacity=".71"/><path fill="url(#c)" d="M82.51 92.515h-.03a2.78 2.78 0 00-2.777 2.792c0 1.542 1.266 2.792 2.808 2.792a2.792 2.792 0 000-5.584z" opacity=".71"/><path fill="url(#d)" d="M178.012 92.515h-.03a2.78 2.78 0 00-2.777 2.792c0 1.542 1.265 2.792 2.807 2.792a2.792 2.792 0 000-5.584z" opacity=".71"/><path fill="#f8f8f8" d="M205.034 71.625h-3.176a2.792 2.792 0 000 5.585h3.176v12.13a.192.192 0 01-.192.192h-13.31c-2.251-5.26-7.476-8.955-13.55-8.955h-9.145V32.634c0-.106.086-.192.192-.192h21.863l2.117 6.353h-15.027a2.792 2.792 0 00-2.792 2.792V56.51a5.783 5.783 0 005.777 5.776h22.718l.42.42c.599.599.93 1.396.93 2.245v6.674zm-27.052 32.827c-5.043 0-9.145-4.103-9.145-9.145 0-5.043 4.103-9.145 9.145-9.145 5.043 0 9.145 4.102 9.145 9.145 0 5.042-4.102 9.145-9.145 9.145zm20.996-47.75h-18.011a.192.192 0 01-.192-.193V44.38h14.096zm-35.457 35.813h-66.58a14.67 14.67 0 00-2.926-6.353h72.433a14.66 14.66 0 00-2.927 6.353zM55.43 80.577v-6.353h66.041v6.353zm27.052 23.875c-5.043 0-9.145-4.103-9.145-9.145 0-5.043 4.102-9.145 9.145-9.145 5.042 0 9.145 4.102 9.145 9.145 0 5.042-4.102 9.145-9.145 9.145zm-23.876 0c-5.043 0-9.145-4.103-9.145-9.145 0-5.043 4.103-9.145 9.145-9.145 5.043 0 9.146 4.102 9.146 9.145 0 5.042-4.103 9.145-9.146 9.145zm-33.02-62.865c0-13.974 10.65-25.506 24.26-26.908v6.018a2.792 2.792 0 005.584 0v-6.162h66.041v6.162a2.792 2.792 0 005.585 0v-6.018c13.61 1.402 24.26 12.934 24.26 26.908 0 13.974-10.65 25.506-24.26 26.908V32.632a2.792 2.792 0 00-5.585 0v36.007H55.43V32.632a2.792 2.792 0 00-5.585 0v35.863c-13.61-1.401-24.26-12.934-24.26-26.908zM82.288 5.776c0-.106.087-.192.193-.192h11.937c.106 0 .192.086.192.192v3.175H82.288zm80.964 62.479v12.322h-36.197v-6.474a32.442 32.442 0 0016-5.848zM44.144 92.515h-6.43a.193.193 0 01-.192-.192v-6.161h9.549a14.673 14.673 0 00-2.927 6.353zm163.908-33.76l-3.754-3.754-7.563-22.69a2.793 2.793 0 00-.846-5.453h-26.86a5.783 5.783 0 00-5.776 5.776v30.037h-14.1c4.83-5.692 7.746-13.053 7.746-21.083 0-17.996-14.64-32.637-32.636-32.637h-24.068V5.776A5.783 5.783 0 0094.42 0H82.48a5.783 5.783 0 00-5.776 5.776v3.175H52.636C34.641 8.951 20 23.591 20 41.587c0 17.055 13.15 31.095 29.844 32.516v6.474H28.761a2.792 2.792 0 000 5.584h3.177v6.161a5.783 5.783 0 005.776 5.777h6.43c1.31 6.79 7.294 11.938 14.461 11.938 4.908 0 9.26-2.415 11.938-6.117 2.678 3.702 7.03 6.117 11.937 6.117 7.168 0 13.153-5.147 14.461-11.938h66.58c1.309 6.79 7.294 11.938 14.46 11.938 8.123 0 14.73-6.608 14.73-14.73 0-.064-.003-.127-.004-.19h12.135a5.783 5.783 0 005.776-5.777V64.95a8.7 8.7 0 00-2.566-6.194z" opacity=".71"/></g></svg>